<svg width="120" height="120" viewBox="0 0 120 120" fill="none" xmlns="http://www.w3.org/2000/svg">
<path d="M83.033 54.7173C81.5749 54.7173 80.2603 54.0445 79.3003 53.5554C58.8894 43.1336 55.1349 38.6409 41.7785 31.0573L41.493 30.8973C39.7603 29.9264 35.7021 27.6554 37.7603 23.9518C38.9021 21.8973 41.3749 21.4645 44.5894 22.9282C58.8712 29.4264 72.384 37.61 84.7512 47.2536C85.5094 47.8445 87.5203 49.4136 87.0785 51.6645C86.7658 53.2591 85.2021 54.6645 83.033 54.7173ZM39.3512 24.8354C38.3658 26.6082 39.7167 27.8191 42.3821 29.3118L42.6785 29.4791C55.1803 36.5754 54.4458 37.5427 69.4749 46.1664C72.973 48.1718 76.5567 50.1136 80.1276 51.9373C81.1949 52.4827 82.0876 52.9009 83.033 52.9009L83.1912 52.8973C84.0658 52.8518 85.1203 52.2045 85.293 51.3154C85.4512 50.5173 84.9385 49.7064 83.6331 48.6882C71.3803 39.1336 57.9894 31.0227 43.8367 24.5845C42.2476 23.8591 40.2003 23.3082 39.3512 24.8354Z" fill="#1A1A1A"/>
<path d="M79.659 45.1456C79.5917 45.1456 79.5244 45.1383 79.4572 45.122C79.1153 45.0456 78.8499 44.7783 78.7717 44.4383L78.6753 44.0147C78.5481 43.4511 78.9735 42.9129 79.5481 42.9056C85.6553 35.0292 92.1117 23.7638 92.3317 20.5038C92.4135 19.3183 91.9717 18.2201 91.2117 17.7074C90.2317 17.0456 88.8099 17.3601 87.9026 17.9347C84.9153 19.8201 76.3608 34.7365 73.7481 39.6674C73.5117 40.1111 72.9626 40.2783 72.519 40.0456C72.0753 39.8111 71.9062 39.2601 72.1408 38.8165C72.2462 38.6201 82.8172 18.9965 86.9299 16.3983C88.3662 15.4892 90.559 15.0765 92.2262 16.202C93.5335 17.0838 94.2699 18.7801 94.1444 20.6292C93.8644 24.7801 86.379 37.2492 80.3662 44.8056C80.1953 45.022 79.9317 45.1456 79.659 45.1456Z" fill="#1A1A1A"/>
<path d="M58.0186 31.4477C57.9495 31.4477 57.8822 31.4404 57.8132 31.4241C57.4713 31.3441 57.2059 31.0768 57.1313 30.7332L57.0368 30.3095C56.9277 29.8186 57.2386 29.335 57.7295 29.2259C57.7895 29.2132 57.8495 29.2059 57.9095 29.2041C64.0168 21.3277 70.4732 10.0623 70.6932 6.80407C70.7732 5.61861 70.3332 4.52043 69.5732 4.00589C68.5859 3.34407 67.2004 3.64043 66.2641 4.23316C63.2786 6.11861 54.7222 21.035 52.1113 25.9659C51.875 26.4077 51.3241 26.5786 50.8822 26.3441C50.4386 26.1095 50.2695 25.5586 50.5041 25.115C50.6095 24.9186 61.1804 5.29498 65.2932 2.6968C66.7313 1.78952 68.9241 1.3768 70.5895 2.50043C71.8986 3.38225 72.6332 5.07861 72.5095 6.9277C72.2295 11.0786 64.7422 23.5477 58.7313 31.1041C58.5568 31.3241 58.2932 31.4477 58.0186 31.4477Z" fill="#1A1A1A"/>
<path d="M59.3744 81.3097C57.818 81.3097 56.0307 81.0169 53.9362 80.4133C44.3326 77.6442 35.6362 71.7969 29.4489 63.9478C24.238 57.3369 25.1507 53.2842 29.1671 46.7006C32.7326 40.8533 36.578 35.0678 40.5926 29.5078C40.8853 29.0969 41.4544 29.0096 41.8616 29.3024C42.2689 29.5969 42.3598 30.1642 42.0671 30.5715C38.0798 36.0951 34.2616 41.8406 30.7198 47.6478C26.9198 53.8787 26.3726 57.1078 30.878 62.8242C36.8326 70.3769 45.1998 76.0042 54.4416 78.6678C65.3344 81.8078 65.3944 77.4296 78.7744 53.1478C79.0162 52.7078 79.5671 52.5496 80.0089 52.7896C80.4489 53.0315 80.6089 53.586 80.3671 54.0242L69.8671 73.0806C66.9453 78.3769 64.3016 81.3097 59.3744 81.3097Z" fill="#1A1A1A"/>
<path d="M33.1377 75.8317C32.7668 73.2244 34.3323 70.7753 35.3668 69.1553C35.6377 68.7317 36.1995 68.608 36.6213 68.8789C37.045 69.1499 37.1686 69.7117 36.8977 70.1335C35.7195 71.979 34.6813 73.7826 34.9359 75.5753C35.1068 76.7771 35.8741 77.9462 37.0413 78.7844C38.405 79.7626 40.1104 80.1499 41.7141 79.8499C43.645 79.488 45.3886 78.088 46.1613 76.2844C46.3595 75.8244 46.8923 75.608 47.3541 75.8062C47.8159 76.0026 48.0304 76.5371 47.8323 76.9989C46.8123 79.3808 44.5977 81.1589 42.0486 81.6353C37.8068 82.4371 33.6595 79.4971 33.1377 75.8317Z" fill="#1A1A1A"/>
<path d="M58.2723 117.82C57.9687 117.42 58.0469 116.849 58.4487 116.547C63.3723 112.82 65.4051 108.765 64.1778 105.129C62.3105 99.6037 55.4869 99.3928 49.7541 99.82C43.1669 100.316 35.9014 100.327 33.0014 94.1982C30.6487 89.2273 33.5269 84.1037 36.2705 79.7891C36.5396 79.3673 37.1014 79.2419 37.5251 79.511C37.9487 79.78 38.0741 80.3419 37.8051 80.7655L37.6251 81.0473C35.7287 84.0219 32.5523 89 34.6451 93.42C37.0523 98.5073 43.6378 98.4546 49.6178 98.0073C53.3741 97.7273 63.3414 96.9782 65.9014 104.547C66.7705 107.118 67.0978 112.282 59.5469 117.996C59.1396 118.302 58.5705 118.216 58.2723 117.82Z" fill="#1A1A1A"/>
<path d="M50.4278 62.8839C48.3441 62.8839 46.4332 61.8966 45.4368 60.3057C44.3732 58.6039 44.3968 56.5657 45.5059 54.5639C46.9587 51.9402 49.9896 49.9639 52.5568 49.9639C55.5678 50.0057 58.1387 52.3275 58.2387 55.0348C58.2823 56.2039 57.895 57.4493 57.0896 58.7366C55.6314 61.0639 53.1841 62.8839 50.4278 62.8839ZM52.6023 51.7802C50.6332 51.7802 48.2332 53.3893 47.0968 55.4439C45.0732 59.0984 48.3968 61.6166 51.3841 60.9657C52.9787 60.6166 54.4968 59.4511 55.5514 57.7693C56.1605 56.7984 56.455 55.9002 56.4241 55.102C56.3587 53.3602 54.5732 51.8075 52.6023 51.7802Z" fill="#1A1A1A"/>
<path d="M48.1194 57.5765L46.1649 55.622C45.9867 55.4438 45.9867 55.1565 46.1649 54.9784C46.3431 54.8002 46.6303 54.8002 46.8067 54.9784L48.7613 56.9329C48.9394 57.1111 48.9394 57.3984 48.7613 57.5765C48.5849 57.7547 48.2976 57.7547 48.1194 57.5765Z" fill="#1A1A1A"/>
<path d="M49.9463 56.17L47.2899 53.5136C47.1117 53.3354 47.1117 53.0481 47.2899 52.87C47.4681 52.6918 47.7553 52.6918 47.9335 52.87L50.5899 55.5263C50.7681 55.7045 50.7681 55.9918 50.5899 56.1681C50.4117 56.3481 50.1244 56.3481 49.9463 56.17Z" fill="#1A1A1A"/>
<path d="M51.9557 54.2692L49.6102 51.9238C49.432 51.7456 49.432 51.4583 49.6102 51.2801C49.7884 51.1019 50.0757 51.1019 50.2538 51.2801L52.5993 53.6256C52.7775 53.8038 52.7775 54.091 52.5993 54.2692C52.4211 54.4456 52.1338 54.4456 51.9557 54.2692Z" fill="#1A1A1A"/>
<path d="M54.6146 53.9936L52.0164 51.3936C51.8383 51.2154 51.8383 50.9282 52.0164 50.7518C52.1946 50.5736 52.4819 50.5736 52.6601 50.7518L55.2583 53.3518C55.6801 53.7736 55.0419 54.4209 54.6146 53.9936Z" fill="#1A1A1A"/>
<path d="M47.6503 59.5371L45.743 57.6298C45.5648 57.4516 45.5648 57.1644 45.743 56.9862C45.9212 56.808 46.2085 56.808 46.3866 56.9862L48.2939 58.8934C48.4721 59.0716 48.4721 59.3589 48.2939 59.5353C48.1157 59.7134 47.8285 59.7134 47.6503 59.5371Z" fill="#1A1A1A"/>
<path d="M46.4344 60.1149C46.2562 59.9367 46.2562 59.6494 46.4344 59.4712L49.0435 56.8622C49.2217 56.684 49.509 56.684 49.6871 56.8622C49.8653 57.0403 49.8653 57.3276 49.6871 57.504L47.0781 60.1131C46.8999 60.2912 46.6108 60.2912 46.4344 60.1149Z" fill="#1A1A1A"/>
<path d="M47.9789 56.4171C47.8625 56.4171 47.7462 56.3735 47.6571 56.2844C47.4789 56.1062 47.4789 55.8189 47.6571 55.6426L49.8262 53.4735C50.0043 53.2953 50.2916 53.2953 50.4698 53.4735C50.648 53.6517 50.648 53.9389 50.4698 54.1171C50.2571 54.3262 48.2771 56.4171 47.9789 56.4171Z" fill="#1A1A1A"/>
<path d="M51.4071 54.5732C51.2289 54.395 51.2289 54.1078 51.4071 53.9296L53.038 52.2987C53.2162 52.1205 53.5034 52.1205 53.6816 52.2987C53.8598 52.4769 53.8598 52.7641 53.6816 52.9405L52.0507 54.5714C51.8725 54.7496 51.5834 54.7496 51.4071 54.5732Z" fill="#1A1A1A"/>
<path d="M63.4056 79.3384L55.4383 71.3712C55.2601 71.193 55.2601 70.9057 55.4383 70.7293C55.6165 70.5512 55.9038 70.5512 56.082 70.7293L64.0492 78.6966C64.2274 78.8748 64.2274 79.1621 64.0492 79.3402C63.8711 79.5166 63.5838 79.5166 63.4056 79.3384Z" fill="#1A1A1A"/>
<path d="M66.1361 76.4692L60.0907 70.4238C59.9125 70.2456 59.9125 69.9583 60.0907 69.7801C60.2688 69.6019 60.5561 69.6019 60.7343 69.7801L66.7798 75.8256C66.9579 76.0038 66.9579 76.291 66.7798 76.4692C66.6016 76.6456 66.3143 76.6456 66.1361 76.4692Z" fill="#1A1A1A"/>
<path d="M68.4029 72.4498L63.7938 67.8407C63.6156 67.6626 63.6156 67.3753 63.7938 67.1971C63.972 67.0189 64.2592 67.0189 64.4374 67.1971L69.0465 71.8062C69.2247 71.9844 69.2247 72.2717 69.0465 72.4498C68.8683 72.628 68.5811 72.628 68.4029 72.4498Z" fill="#1A1A1A"/>
<path d="M70.4856 67.9009L67.7547 65.1718C67.5765 64.9936 67.5765 64.7063 67.7547 64.5282C67.9329 64.35 68.2202 64.35 68.3984 64.5282L71.1275 67.2573C71.3056 67.4354 71.3056 67.7227 71.1275 67.9009C70.9511 68.0773 70.6638 68.0773 70.4856 67.9009Z" fill="#1A1A1A"/>
<path d="M72.7196 64.1893L70.3414 61.8111C69.9196 61.3893 70.5578 60.742 70.9851 61.1674L73.3632 63.5456C73.5414 63.7238 73.5414 64.0111 73.3632 64.1893C73.1851 64.3656 72.896 64.3656 72.7196 64.1893Z" fill="#1A1A1A"/>
<path d="M74.303 61.555L72.3211 59.5732C72.143 59.395 72.143 59.1077 72.3211 58.9295C72.4993 58.7514 72.7866 58.7514 72.9648 58.9295L74.9466 60.9114C75.1248 61.0895 75.1248 61.3768 74.9466 61.555C74.7684 61.7314 74.4811 61.7314 74.303 61.555Z" fill="#1A1A1A"/>
<path d="M75.9829 58.322L74.2157 56.5566C74.0375 56.3784 74.0375 56.0911 74.2157 55.9129C74.3938 55.7348 74.6811 55.7348 74.8593 55.9129L76.6266 57.6784C76.8048 57.8566 76.8048 58.1438 76.6266 58.3202C76.4484 58.5002 76.1611 58.5002 75.9829 58.322Z" fill="#1A1A1A"/>
<path d="M77.9861 56.0203L76.0243 54.0585C75.8461 53.8803 75.8461 53.5931 76.0243 53.4149C76.2024 53.2367 76.4897 53.2367 76.6661 53.4149L78.6279 55.3767C78.8061 55.5549 78.8061 55.8422 78.6279 56.0203C78.4515 56.1967 78.1643 56.1967 77.9861 56.0203Z" fill="#1A1A1A"/>
<path d="M57.1219 79.5145L50.7 73.0927C50.5219 72.9145 50.5219 72.6272 50.7 72.4491C50.8782 72.2709 51.1655 72.2709 51.3437 72.4491L57.7655 78.8709C57.9437 79.0491 57.9437 79.3363 57.7655 79.5127C57.5873 79.6927 57.2982 79.6927 57.1219 79.5145Z" fill="#1A1A1A"/>
<path d="M50.8318 78.0477L46.7391 73.955C46.5609 73.7768 46.5609 73.4896 46.7391 73.3114C46.9173 73.1332 47.2046 73.1332 47.3827 73.3114L51.4755 77.4041C51.6537 77.5823 51.6537 77.8696 51.4755 78.0477C51.2973 78.2259 51.0082 78.2259 50.8318 78.0477Z" fill="#1A1A1A"/>
<path d="M48.2039 77.8316C48.0258 77.6534 48.0258 77.3661 48.2039 77.1897L53.8821 71.5116C54.0603 71.3334 54.3476 71.3334 54.5258 71.5116C54.704 71.6897 54.704 71.977 54.5258 72.1552L48.8476 77.8334C48.6694 78.0097 48.3821 78.0097 48.2039 77.8316Z" fill="#1A1A1A"/>
<path d="M51.3055 78.3481C51.1273 78.1699 51.1273 77.8826 51.3055 77.7044L58.8782 70.1317C59.0564 69.9535 59.3437 69.9535 59.5219 70.1317C59.7001 70.3099 59.7001 70.5971 59.5219 70.7753L51.9491 78.3481C51.7691 78.5262 51.4819 78.5262 51.3055 78.3481Z" fill="#1A1A1A"/>
<path d="M54.4071 79.2945C54.2289 79.1164 54.2289 78.8291 54.4071 78.6509L63.2271 69.8309C63.4053 69.6527 63.6925 69.6527 63.8707 69.8309C64.0489 70.0091 64.0489 70.2964 63.8707 70.4745L55.0507 79.2945C54.8707 79.4727 54.5834 79.4727 54.4071 79.2945Z" fill="#1A1A1A"/>
<path d="M56.987 79.7736L66.1125 70.6463C66.2906 70.4681 66.5779 70.4681 66.7561 70.6463C66.9343 70.8245 66.9343 71.1118 66.7561 71.29L57.6306 80.4172C57.207 80.8391 56.5615 80.1991 56.987 79.7736Z" fill="#1A1A1A"/>
<path d="M66.6117 69.008C66.4953 69.008 66.379 68.9643 66.2899 68.8752C66.1117 68.6971 66.1117 68.4098 66.2899 68.2334L71.6953 62.828C71.8735 62.6498 72.1608 62.6498 72.3372 62.828C72.5153 63.0062 72.5153 63.2934 72.3372 63.4716L66.9317 68.8771C66.8444 68.9625 66.7281 69.008 66.6117 69.008Z" fill="#1A1A1A"/>
<path d="M71.8914 61.1222C71.7133 60.944 71.7133 60.6567 71.8914 60.4785L75.7969 56.5731C75.9751 56.3949 76.2624 56.3949 76.4405 56.5731C76.6187 56.7513 76.6187 57.0385 76.4405 57.2167L72.5351 61.1222C72.3569 61.2985 72.0678 61.2985 71.8914 61.1222Z" fill="#1A1A1A"/>
<path d="M75.4867 55.83C75.3703 55.83 75.254 55.7863 75.1649 55.6972C74.9867 55.5191 74.9867 55.2318 75.1649 55.0554L77.0194 53.1991C77.1976 53.0209 77.4849 53.0209 77.6631 53.1991C77.8413 53.3772 77.8413 53.6645 77.6631 53.8427L75.8085 55.6972C75.7194 55.7845 75.6031 55.83 75.4867 55.83Z" fill="#1A1A1A"/>
<path d="M58.897 28.8386L55.0243 24.9659C54.8461 24.7877 54.8461 24.5004 55.0243 24.3241C55.2024 24.1459 55.4897 24.1459 55.6661 24.3241L59.5388 28.1968C59.717 28.375 59.717 28.6622 59.5388 28.8386C59.3624 29.0168 59.0752 29.0168 58.897 28.8386Z" fill="#1A1A1A"/>
<path d="M60.2039 26.8281L57.4657 24.0899C57.2875 23.9117 57.2875 23.6245 57.4657 23.4481C57.6438 23.2699 57.9311 23.2699 58.1075 23.4481L60.8457 26.1863C61.0239 26.3645 61.0239 26.6517 60.8457 26.8299C60.6693 27.0063 60.382 27.0063 60.2039 26.8281Z" fill="#1A1A1A"/>
<path d="M61.8023 23.9803L59.9696 22.1475C59.7914 21.9693 59.7914 21.6821 59.9696 21.5057C60.1478 21.3275 60.435 21.3275 60.6132 21.5057L62.4459 23.3384C62.6241 23.5166 62.6241 23.8039 62.4459 23.9821C62.2678 24.1584 61.9805 24.1584 61.8023 23.9803Z" fill="#1A1A1A"/>
<path d="M63.1358 22.1827L61.8485 20.8954C61.6703 20.7173 61.6703 20.43 61.8485 20.2518C62.0267 20.0736 62.3139 20.0736 62.4903 20.2518L63.7776 21.5391C63.9558 21.7173 63.9558 22.0045 63.7776 22.1809C63.6012 22.3609 63.3139 22.3609 63.1358 22.1827Z" fill="#1A1A1A"/>
<path d="M64.3512 20.0154L62.9149 18.5772C62.7367 18.399 62.7367 18.1118 62.9149 17.9354C63.0931 17.7572 63.3803 17.7572 63.5585 17.9354L64.9949 19.3736C65.1731 19.5518 65.1731 19.839 64.9949 20.0154C64.8167 20.1936 64.5276 20.1936 64.3512 20.0154Z" fill="#1A1A1A"/>
<path d="M55.5222 28.5947L52.5204 25.5928C52.3422 25.4147 52.3422 25.1274 52.5204 24.951C52.6985 24.7728 52.9858 24.7728 53.164 24.951L56.1658 27.9528C56.344 28.131 56.344 28.4183 56.1658 28.5965C55.9876 28.771 55.7004 28.771 55.5222 28.5947Z" fill="#1A1A1A"/>
<path d="M52.5204 27.469C52.3422 27.2909 52.3422 27.0036 52.5204 26.8254L56.7785 22.5672C56.9567 22.389 57.244 22.389 57.4222 22.5672C57.6004 22.7454 57.6004 23.0327 57.4222 23.209L53.164 27.4672C52.9858 27.6472 52.6985 27.6472 52.5204 27.469Z" fill="#1A1A1A"/>
<path d="M55.4011 27.8296L59.6138 23.6168C60.0374 23.195 60.6829 23.8332 60.2574 24.2587L56.0447 28.4714C55.6211 28.895 54.9756 28.2568 55.4011 27.8296Z" fill="#1A1A1A"/>
<path d="M61.6703 22.2189C61.5539 22.2189 61.4376 22.1752 61.3485 22.0861C61.1703 21.908 61.1703 21.6207 61.3485 21.4425L63.6212 19.1698C63.7994 18.9916 64.0867 18.9916 64.263 19.1698C64.4412 19.348 64.4412 19.6352 64.263 19.8134C64.0521 20.0243 61.9685 22.2189 61.6703 22.2189Z" fill="#1A1A1A"/>
<path d="M80.9102 41.6134L76.9266 37.6298C76.7484 37.4516 76.7484 37.1644 76.9266 36.9862C77.1048 36.808 77.3921 36.808 77.5684 36.9862L81.5521 40.9698C81.7302 41.148 81.7302 41.4353 81.5521 41.6116C81.3757 41.7916 81.0884 41.7916 80.9102 41.6134Z" fill="#1A1A1A"/>
<path d="M82.4249 39.7041L79.7704 37.0478C79.5922 36.8696 79.5922 36.5823 79.7704 36.4041C79.9485 36.226 80.2358 36.226 80.414 36.4041L83.0685 39.0605C83.2467 39.2387 83.2467 39.526 83.0685 39.7041C82.8904 39.8823 82.6031 39.8823 82.4249 39.7041Z" fill="#1A1A1A"/>
<path d="M84.0495 37.1931L81.8368 34.9804C81.6586 34.8022 81.6586 34.5149 81.8368 34.3368C82.0149 34.1586 82.3022 34.1586 82.4804 34.3368L84.6931 36.5495C84.8713 36.7277 84.8713 37.0149 84.6931 37.1913C84.5149 37.3713 84.2277 37.3713 84.0495 37.1931Z" fill="#1A1A1A"/>
<path d="M85.0783 34.7346L83.5164 33.1728C83.3383 32.9946 83.3383 32.7073 83.5164 32.5291C83.6946 32.351 83.9819 32.351 84.1583 32.5291L85.7201 34.091C85.8983 34.2691 85.8983 34.5564 85.7201 34.7346C85.5437 34.9128 85.2546 34.9128 85.0783 34.7346Z" fill="#1A1A1A"/>
<path d="M86.8006 32.846C86.6843 32.846 86.5679 32.8024 86.4788 32.7133L85.1297 31.3642C84.9515 31.186 84.9515 30.8987 85.1297 30.7206C85.3079 30.5424 85.5952 30.5424 85.7734 30.7206L87.1225 32.0696C87.3006 32.2478 87.3006 32.5351 87.1225 32.7133C87.0334 32.8024 86.917 32.846 86.8006 32.846Z" fill="#1A1A1A"/>
<path d="M77.3755 41.7602L75.0555 39.4384C74.8773 39.2602 74.8773 38.973 75.0555 38.7948C75.2337 38.6166 75.521 38.6166 75.6991 38.7948L78.0191 41.1166C78.1973 41.2948 78.1973 41.582 78.0191 41.7602C77.841 41.9366 77.5537 41.9366 77.3755 41.7602Z" fill="#1A1A1A"/>
<path d="M75.2469 41.7006C75.0687 41.5224 75.0687 41.2351 75.2469 41.057L78.8215 37.4842C78.9997 37.306 79.2869 37.306 79.4633 37.4842C79.6415 37.6624 79.6415 37.9497 79.4633 38.1279L75.8887 41.7006C75.7124 41.877 75.4251 41.877 75.2469 41.7006Z" fill="#1A1A1A"/>
<path d="M78.8016 41.313C78.6234 41.1348 78.6234 40.8476 78.8016 40.6694L82.9325 36.5385C83.3543 36.1148 84.0016 36.7548 83.5761 37.1803L79.4452 41.3112C79.2652 41.4894 78.978 41.4894 78.8016 41.313Z" fill="#1A1A1A"/>
<path d="M82.3539 36.0837C82.2375 36.0837 82.1212 36.04 82.0321 35.9509C81.8539 35.7728 81.8539 35.4855 82.0321 35.3073L84.6921 32.6473C84.8703 32.4691 85.1575 32.4691 85.3357 32.6473C85.5139 32.8255 85.5139 33.1128 85.3357 33.2909L82.6757 35.9509C82.5866 36.0382 82.4703 36.0837 82.3539 36.0837Z" fill="#1A1A1A"/>
<path d="M62.8487 11.0171C62.6251 10.8989 62.5415 10.6262 62.6578 10.4044C63.7287 8.36802 66.856 4.28075 69.1869 5.36984C69.4142 5.47711 69.5124 5.7462 69.4051 5.97347C69.2978 6.20075 69.0306 6.29711 68.7996 6.19166C67.2706 5.47893 64.5124 8.82984 63.4615 10.8262C63.3433 11.0498 63.0706 11.1335 62.8487 11.0171Z" fill="#1A1A1A"/>
<path d="M85.0563 24.6134L84.2617 24.1716C85.3272 22.2534 87.3054 18.677 90.7908 19.2025C91.0399 19.2389 91.2108 19.4698 91.1726 19.7189C91.1381 19.968 90.8999 20.1425 90.6563 20.1007C87.8035 19.6825 86.0144 22.888 85.0563 24.6134Z" fill="#1A1A1A"/>
</svg>
