<svg xmlns="http://www.w3.org/2000/svg" width="120" height="120" fill="none" viewBox="0 0 120 120"><path fill="#1a1a1a" d="M83.033 54.717c-1.458 0-2.773-.672-3.733-1.162-20.41-10.421-24.165-14.914-37.52-22.498l-.286-.16c-1.733-.97-5.79-3.242-3.733-6.945 1.142-2.055 3.615-2.488 6.83-1.024A200.3 200.3 0 0 1 84.75 47.254c.758.59 2.77 2.16 2.328 4.41-.313 1.595-1.877 3-4.046 3.053M39.351 24.835c-.985 1.773.366 2.984 3.031 4.477l.297.167c12.501 7.096 11.767 8.064 26.796 16.687a252 252 0 0 0 10.653 5.771c1.067.546 1.96.964 2.905.964l.158-.004c.875-.045 1.93-.692 2.102-1.582.158-.798-.355-1.609-1.66-2.627a198.4 198.4 0 0 0-39.796-24.104c-1.59-.725-3.637-1.276-4.486.251"/><path fill="#1a1a1a" d="M79.659 45.146a.91.91 0 0 1-.887-.707l-.097-.424a.91.91 0 0 1 .873-1.11c6.107-7.876 12.564-19.141 12.784-22.401.082-1.186-.36-2.284-1.12-2.797-.98-.661-2.402-.347-3.31.228-2.987 1.885-11.541 16.802-14.154 21.732a.91.91 0 0 1-1.607-.85c.105-.197 10.676-19.82 14.789-22.419 1.436-.909 3.629-1.322 5.296-.196 1.308.882 2.044 2.578 1.918 4.427-.28 4.151-7.765 16.62-13.778 24.177a.9.9 0 0 1-.707.34m-21.64-13.698a.91.91 0 0 1-.887-.715l-.095-.424a.91.91 0 0 1 .873-1.105c6.107-7.876 12.563-19.142 12.783-22.4.08-1.185-.36-2.284-1.12-2.798-.987-.662-2.373-.366-3.309.227C63.28 6.12 54.722 21.035 52.111 25.966a.91.91 0 0 1-1.607-.85c.105-.197 10.676-19.821 14.79-22.42 1.437-.906 3.63-1.32 5.296-.196 1.309.882 2.043 2.579 1.92 4.428-.28 4.15-7.768 16.62-13.779 24.176a.91.91 0 0 1-.712.344m1.355 49.862c-1.556 0-3.343-.293-5.438-.897-9.603-2.769-18.3-8.616-24.487-16.465-5.211-6.611-4.298-10.664-.282-17.247a267 267 0 0 1 11.426-17.193.91.91 0 0 1 1.475 1.064A266 266 0 0 0 30.72 47.648c-3.8 6.23-4.347 9.46.158 15.176 5.955 7.553 14.322 13.18 23.564 15.844 10.892 3.14 10.952-1.238 24.332-25.52a.91.91 0 0 1 1.593.876l-10.5 19.057c-2.922 5.296-5.565 8.229-10.493 8.229"/><path fill="#1a1a1a" d="M33.138 75.832c-.371-2.608 1.194-5.057 2.229-6.677a.907.907 0 1 1 1.53.978c-1.178 1.846-2.216 3.65-1.961 5.442.17 1.202.938 2.371 2.105 3.21 1.364.978 3.07 1.365 4.673 1.065 1.931-.362 3.675-1.762 4.447-3.566a.91.91 0 0 1 1.671.715c-1.02 2.382-3.234 4.16-5.783 4.636-4.242.802-8.39-2.138-8.911-5.803"/><path fill="#1a1a1a" d="M58.272 117.82a.907.907 0 0 1 .177-1.273c4.923-3.727 6.956-7.782 5.729-11.418-1.867-5.525-8.691-5.736-14.424-5.309-6.587.496-13.853.507-16.753-5.622-2.352-4.97.526-10.094 3.27-14.409a.91.91 0 0 1 1.534.977l-.18.281C35.73 84.022 32.552 89 34.645 93.42c2.407 5.087 8.993 5.035 14.973 4.587 3.756-.28 13.723-1.029 16.283 6.54.87 2.571 1.197 7.735-6.354 13.449a.91.91 0 0 1-1.275-.176m-7.844-54.936c-2.084 0-3.995-.987-4.991-2.578-1.064-1.702-1.04-3.74.069-5.742 1.453-2.624 4.484-4.6 7.05-4.6 3.012.042 5.583 2.364 5.683 5.07.043 1.17-.344 2.415-1.15 3.703-1.458 2.327-3.905 4.147-6.661 4.147m2.174-11.104c-1.969 0-4.369 1.61-5.505 3.664-2.024 3.654 1.3 6.173 4.287 5.522 1.595-.35 3.113-1.515 4.167-3.197.61-.97.904-1.869.873-2.667-.065-1.742-1.85-3.294-3.822-3.322"/><path fill="#1a1a1a" d="m48.12 57.577-1.955-1.955a.454.454 0 1 1 .642-.644l1.954 1.955a.454.454 0 1 1-.642.644m1.827-1.407-2.656-2.656a.454.454 0 1 1 .644-.644l2.656 2.656a.45.45 0 0 1 0 .642.453.453 0 0 1-.644.002m2.01-1.9-2.346-2.346a.454.454 0 1 1 .644-.644l2.345 2.346a.454.454 0 1 1-.643.643m2.659-.275-2.599-2.6a.454.454 0 1 1 .644-.642l2.598 2.6c.422.422-.216 1.069-.643.642m-6.965 5.543-1.907-1.907a.454.454 0 1 1 .644-.644l1.907 1.907a.456.456 0 0 1-.644.644"/><path fill="#1a1a1a" d="M46.434 60.115a.454.454 0 0 1 0-.644l2.61-2.609a.454.454 0 1 1 .643.642l-2.609 2.61a.456.456 0 0 1-.644 0m1.545-3.697a.453.453 0 0 1-.322-.774l2.17-2.17a.454.454 0 1 1 .643.644c-.213.21-2.193 2.3-2.491 2.3m3.428-1.844a.454.454 0 0 1 0-.643l1.631-1.631a.454.454 0 1 1 .644.642l-1.631 1.63a.456.456 0 0 1-.644.002m11.999 24.765-7.968-7.967a.455.455 0 0 1 .644-.642l7.967 7.968a.454.454 0 1 1-.643.641m2.73-2.868-6.045-6.046a.454.454 0 1 1 .643-.644l6.046 6.046a.454.454 0 1 1-.644.643m2.267-4.019-4.61-4.61a.454.454 0 1 1 .644-.643l4.61 4.61a.454.454 0 1 1-.644.643m2.083-4.55-2.731-2.728a.454.454 0 1 1 .643-.644l2.73 2.73a.454.454 0 1 1-.642.643m2.234-3.711-2.38-2.38c-.421-.422.217-1.069.644-.644l2.378 2.379a.454.454 0 1 1-.643.643m1.584-2.633-1.982-1.982a.455.455 0 1 1 .644-.644l1.982 1.982a.454.454 0 1 1-.644.644m1.68-3.233-1.767-1.765a.454.454 0 1 1 .643-.644l1.768 1.765a.45.45 0 0 1 0 .642.453.453 0 0 1-.644.002m2.003-2.302-1.962-1.962a.454.454 0 1 1 .642-.643l1.962 1.962a.454.454 0 1 1-.642.643M57.122 79.515 50.7 73.093a.454.454 0 1 1 .644-.644l6.422 6.422a.45.45 0 0 1 0 .642.453.453 0 0 1-.644.001m-6.29-1.466-4.093-4.093a.454.454 0 1 1 .644-.644l4.092 4.093a.454.454 0 1 1-.643.644"/><path fill="#1a1a1a" d="M48.204 77.832a.45.45 0 0 1 0-.642l5.678-5.678a.454.454 0 1 1 .644.643l-5.678 5.678a.456.456 0 0 1-.644-.001m3.102.516a.454.454 0 0 1 0-.644l7.572-7.572a.454.454 0 1 1 .644.643l-7.573 7.573a.454.454 0 0 1-.643 0m3.101.947a.454.454 0 0 1 0-.644l8.82-8.82a.454.454 0 1 1 .644.644l-8.82 8.82a.454.454 0 0 1-.644 0m2.58.479 9.125-9.128a.454.454 0 1 1 .644.644l-9.125 9.127c-.424.422-1.07-.218-.644-.643m9.625-10.766a.453.453 0 0 1-.322-.775l5.405-5.405a.454.454 0 1 1 .642.644l-5.405 5.405a.46.46 0 0 1-.32.131m5.279-7.886a.455.455 0 0 1 0-.644l3.906-3.905a.454.454 0 1 1 .644.644l-3.906 3.905a.46.46 0 0 1-.644 0m3.596-5.292a.453.453 0 0 1-.322-.775l1.854-1.856a.454.454 0 1 1 .644.644l-1.855 1.854a.46.46 0 0 1-.321.133m-16.59-26.991-3.873-3.873a.45.45 0 0 1 0-.642.45.45 0 0 1 .642 0l3.873 3.873a.45.45 0 0 1 0 .642.45.45 0 0 1-.642 0m1.307-2.011-2.738-2.738a.45.45 0 0 1 0-.642.45.45 0 0 1 .642 0l2.738 2.738a.454.454 0 1 1-.642.642m1.598-2.848-1.832-1.832a.454.454 0 1 1 .644-.642l1.832 1.832a.454.454 0 1 1-.644.642m1.334-1.797-1.288-1.288a.454.454 0 1 1 .642-.643l1.288 1.287a.45.45 0 0 1 0 .642.45.45 0 0 1-.642.002m1.215-2.168-1.436-1.438a.454.454 0 1 1 .644-.642l1.436 1.439a.454.454 0 1 1-.644.642m-8.829 8.579-3.002-3.002a.454.454 0 1 1 .644-.642l3.002 3.002a.454.454 0 1 1-.644.642"/><path fill="#1a1a1a" d="M52.52 27.469a.454.454 0 0 1 0-.644l4.258-4.258a.454.454 0 1 1 .644.642l-4.258 4.258a.453.453 0 0 1-.644.002m2.881.361 4.213-4.213c.423-.422 1.069.216.643.642l-4.212 4.212c-.424.424-1.07-.214-.644-.641m6.269-5.611a.454.454 0 0 1-.322-.776l2.273-2.273a.454.454 0 1 1 .642.644c-.21.21-2.295 2.405-2.593 2.405m19.24 19.394-3.983-3.983a.454.454 0 1 1 .641-.644l3.984 3.984a.45.45 0 0 1 0 .642.45.45 0 0 1-.642.001m1.515-1.909-2.655-2.656a.454.454 0 1 1 .644-.644l2.654 2.656a.454.454 0 1 1-.643.644m1.625-2.511-2.213-2.213a.454.454 0 1 1 .643-.643l2.213 2.212a.45.45 0 0 1 0 .642.453.453 0 0 1-.644.002m1.029-2.458-1.562-1.562a.455.455 0 0 1 .642-.644l1.562 1.562a.454.454 0 1 1-.642.644m1.722-1.889a.45.45 0 0 1-.321-.133l-1.35-1.349a.454.454 0 1 1 .644-.643l1.35 1.349a.455.455 0 0 1-.322.776m-9.425 8.914-2.32-2.322a.454.454 0 1 1 .643-.643l2.32 2.322a.454.454 0 1 1-.644.643"/><path fill="#1a1a1a" d="M75.247 41.7a.454.454 0 0 1 0-.643l3.575-3.573a.454.454 0 1 1 .642.644L75.888 41.7a.455.455 0 0 1-.642 0m3.556-.387a.454.454 0 0 1 0-.644l4.13-4.13c.422-.424 1.07.216.644.641l-4.13 4.131a.456.456 0 0 1-.644.002m3.552-5.229a.454.454 0 0 1-.322-.776l2.66-2.66a.454.454 0 1 1 .644.643l-2.66 2.66a.46.46 0 0 1-.322.133M62.849 11.017a.453.453 0 0 1-.191-.613c1.07-2.036 4.198-6.123 6.529-5.034a.453.453 0 0 1 .218.603.456.456 0 0 1-.605.219c-1.53-.713-4.288 2.638-5.338 4.634a.453.453 0 0 1-.613.191m22.207 13.596-.794-.441c1.065-1.919 3.043-5.495 6.529-4.97.249.037.42.268.382.517a.45.45 0 0 1-.517.382c-2.853-.418-4.642 2.787-5.6 4.512"/></svg>