<svg xmlns="http://www.w3.org/2000/svg" width="96" height="96" fill="none" viewBox="0 0 96 96"><path fill="#036" d="M51.068 57.543C62.385 56.84 71.678 46.1 70.466 34.8c-.602-5.496-3.82-10.504-8.395-13.071-2.551-1.436-5.717-2.246-9.407-2.407-4.382-.208-8.487.561-11.884 2.216-2.29 1.12-4.324 2.711-5.887 4.6-5.263 6.375-5.796 15.678-1.296 22.624 3.879 5.939 10.887 9.211 17.471 8.782m7.426-34.425c-.015-.024-.01-.055-.032-.077l-1.513-1.513.212-.213c.604.145 1.171.325 1.727.518l.445.446zm-6.288-2.225-.217-.217q.212.003.424.01zm-4.19.485-1.82 1.82-1.608-1.609a23 23 0 0 1 3.001-.637zm-7.849 2.067.238.237-1.877 1.877-.553-.553a17 17 0 0 1 2.192-1.561m.623-.346c.15-.08.292-.17.443-.247l-.344.344zm-8.315 19.695 1.369 1.368-.695.696a18 18 0 0 1-.674-2.064m-.547-4.338c.034.01.062.04.096.04a.34.34 0 0 0 .243-.1l.408-.41 1.469 1.47-1.962 1.961c-.167-.98-.248-1.97-.254-2.961m.014-.704c.006-.161.003-.325.012-.486l.237.237zm.126-1.343c-.008-.009-.02-.006-.029-.013q.15-1.375.506-2.715a.34.34 0 0 0 .225-.093l.108-.108 1.67 1.669-1.87 1.868zm2.58-7.568.95.95-2.684 2.684a17.5 17.5 0 0 1 1.733-3.634m.1 19.173a17.4 17.4 0 0 1-1.324-2.46l.905-.905.073.073a.343.343 0 1 0 .485-.486l-.072-.072 2.494-2.494a.343.343 0 1 0-.485-.484l-2.495 2.494-1.72-1.72 2.02-2.02.239.24a.343.343 0 1 0 .485-.486l-.238-.239 1.147-1.146a.342.342 0 1 0-.484-.485l-1.147 1.146-1.469-1.469 1.87-1.868.895.895a.343.343 0 1 0 .485-.485l-.895-.896 1.017-1.017a.343.343 0 1 0-.486-.486l-1.017 1.018-1.669-1.669 2.72-2.72.818.817-1.31 1.31a.343.343 0 1 0 .486.485l1.31-1.31.967.968a.343.343 0 1 0 .486-.485l-.968-.968 2.16-2.162a.343.343 0 1 0-.485-.486l-2.16 2.163-.818-.818 1.61-1.61c.32-.319-.163-.807-.484-.486l-1.611 1.61-1.057-1.057c.29-.424.596-.84.926-1.24.456-.55.969-1.061 1.505-1.552l.585.585-.25.25a.343.343 0 1 0 .486.485l.25-.25 1.882 1.883a.343.343 0 1 0 .484-.485l-1.882-1.883 1.877-1.877 1.962 1.962a.343.343 0 1 0 .485-.485l-.633-.634c.026-.015.059-.01.082-.034l1.86-1.859a.343.343 0 1 0-.486-.485l-1.86 1.859c-.023.023-.019.055-.034.082l-.891-.891 1.226-1.226a.34.34 0 0 0 .092-.222c.375-.15.744-.308 1.135-.436l2.007 2.007c.014.06.024.124.072.17a.343.343 0 0 0 .485 0l.05-.05 2.062-2.061 1.184 1.184a.343.343 0 1 0 .486-.484l-1.25-1.25a.33.33 0 0 0-.094-.26.33.33 0 0 0-.26-.093l-.138-.138c.845-.092 1.71-.138 2.589-.147l.705.705-1.21 1.21a.342.342 0 1 0 .486.485l1.21-1.21 1.27 1.271a.343.343 0 1 0 .486-.483l-1.271-1.271.238-.24c.115-.114.111-.283.029-.416q1.284.072 2.47.255l.55.55-1.26 1.26a.343.343 0 1 0 .486.485l1.26-1.26 1.514 1.514c.067.067.155.1.242.1.014 0 .024-.014.037-.015.015.058.022.117.068.162a.343.343 0 0 0 .485 0l1.01-1.01 1.695 1.697a.34.34 0 0 0 .484 0 .34.34 0 0 0 0-.484l-1.459-1.46c.285.138.591.255.861.407 4.196 2.354 7.147 6.962 7.702 12.023 1.131 10.535-7.565 20.572-18.122 21.228-6.026.397-12.585-2.572-16.239-8.158"/><path fill="#036" d="M4.452 78.056c-.627 2.706 1.124 5.679 3.748 6.362 3.694.946 7.093-2.209 10.311-5.017-.14 8.556 1.921 12.326 12.106 12.326l.337-.001 26.555-.056-.007.203a5.4 5.4 0 0 0 1.654-.206l16.114-.034c9.373 0 11.38-3.251 11.38-10.36l-.018-17.747c.037-.462.048-.942.014-1.448l-.015.001-.044-43.904c0-8.98-2.452-11.992-11.443-12.822a296.4 296.4 0 0 0-43.065-.789c-11.933.636-14.123 4.988-14.17 13.42-.047 13.836 1.32 8.13.884 43.08-6.324 5.245-13.536 13.634-14.341 16.992m4.091 5.035c-1.9-.494-3.214-2.747-2.757-4.72.625-2.612 7.152-10.736 14.124-16.467 3.97-3.284 8.27-6.013 9.761-6.691a29 29 0 0 0 1.828 1.886 34 34 0 0 0 1.906 1.627c-.051.312-.118.615-.19.909-.292 0-.501.325-.178.648-.145.474-.304.891-.45 1.21-.806 1.828-2.106 3.47-3.26 4.864a107 107 0 0 1-10.57 11.006l-.034.03c-4.176 3.737-7.225 6.453-10.18 5.698m28.085-21.636a.34.34 0 0 0-.484 0l-.482.483-1.306-1.305q.157-.514.273-1.041a27 27 0 0 0 4.138 2.345l-1.553 1.553-1.068-1.068.48-.483a.34.34 0 0 0 .002-.484m-3.467 3.468a.343.343 0 0 0 .485 0l.181-.181 1.21 1.21-1.727 1.726-1.545-1.546a.342.342 0 1 0-.484.485l.18.182-2.15 2.15-.217-.218c.43-.5.872-.996 1.29-1.499.838-1.012 1.741-2.158 2.513-3.42l.447.447-.18.181a.337.337 0 0 0-.003.483m-5.74 6.4a.34.34 0 0 0 .485 0l1.405-1.405 1.209 1.21a.33.33 0 0 0-.276.086l-2.392 2.392-1.452-1.45c-.092-.092-.216-.098-.332-.063a108 108 0 0 0 2.575-2.84l.182.182-1.404 1.404a.34.34 0 0 0 0 .483m5.83-8.126c.209-.375.414-.752.588-1.147.098-.216.188-.45.277-.69l1.062 1.062-1.351 1.35zm-4.534-11.522c-5.773-8.91-5.087-20.848 1.664-29.028 5.533-6.686 14.28-9.139 22.983-8.736 14.182.62 21.675 9.36 22.81 19.725 1.57 14.622-10.502 28.413-25.023 29.317-8.263.537-17.349-3.506-22.434-11.278m-7.775 26.126a.342.342 0 1 0-.485.485l.134.135-.704.704.015-.957c.652-.594 1.29-1.198 1.925-1.804l.41.41-1.162 1.161zm-1.065 1.928c.137.08.266.108.407-.033l.793-.793 1.726 1.726-1.915 1.914-1.01-1.009a50 50 0 0 1 0-1.805m55.391 10.533-10.644.022 1.259-1.26.886.887a.342.342 0 1 0 .484-.485l-.886-.886 2.105-2.105c.013.06.023.123.07.17l2.154 2.152-.701.701a.343.343 0 1 0 .485.486l.7-.701.73.73a.343.343 0 1 0 .486-.486l-.73-.73 2.272-2.272 1.765 1.765-1.353 1.353a.343.343 0 1 0 .485.486l1.353-1.353 1.199 1.198a.343.343 0 1 0 .485-.485l-1.198-1.199 2.635-2.635 1.765 1.764-1.644 1.644a.343.343 0 1 0 .485.486l1.644-1.644.994.994c-1.89 1.192-4.575 1.403-7.285 1.403m7.817-1.78c-.016-.033-.014-.071-.041-.099L82.04 87.38l1.573-1.572a.343.343 0 1 0-.485-.486l-1.572 1.573-1.764-1.765 2.302-2.302c.045-.045.052-.105.067-.161l2.766 2.765c-.361 1.47-.98 2.35-1.842 3.05m2.187-14.705-.256-.257.255-.255zm.004 4.938-.914-.914.912-.912zm-.399.57c.143.143.265.11.4.036l.002 1.953c0 1.164-.028 2.3-.19 3.348l-3.897-3.897c.112.028.188.06.316-.07l2.37-2.369zm.394-6.884c-.065.013-.13.025-.18.074l-.56.56-1.427-1.426a.343.343 0 1 0-.485.485l1.426 1.426-1.426 1.426a.343.343 0 1 0 .485.485l1.426-1.426.742.742.001 1.174-1.395 1.396-1.354-1.355a.343.343 0 1 0-.484.485l1.354 1.355-2.37 2.37c-.087.087-.096.204-.07.316l-.316-.317a.343.343 0 1 0-.486.486l1.62 1.62c-.058.014-.118.021-.162.066l-2.302 2.302-1.281-1.28a.343.343 0 1 0-.484.485l1.28 1.28-2.635 2.636-1.764-1.765 3.975-3.974a.343.343 0 1 0-.486-.486l-3.973 3.975-1.282-1.282a.343.343 0 1 0-.484.485l1.28 1.282-2.272 2.272-2.152-2.152c-.047-.047-.11-.056-.17-.07l2.923-2.923a.343.343 0 1 0-.486-.486l-5.413 5.413-.338-.338c-.319-.318-.807.163-.485.485l.338.339-1.644 1.644c-.028.029-.026.067-.043.101l-2.104.004c4.692-4.175 2.708-10.622 2.945-15.52.134-2.802 1.338-6.436 4.283-7.449 4.111-1.41 8.704 2.907 13.422 1.67 1.269-.333 2.27-.982 3.006-1.869zM32.153 5.933a295 295 0 0 1 42.867.784c8.278.764 10.197 3.201 10.197 11.457l.046 45.375c-.253 2.696-1.9 3.735-3.352 4.116-4.2 1.107-8.806-3.255-13.519-1.64-3.591 1.234-5.044 5.293-5.207 8.681-.162 3.365.559 6.668.017 9.845-.432 2.537-2.132 5.051-4.38 5.746l-27.873.058c-3.35.026-7.083-.181-9.205-2.522l.461-.46.946.946a.342.342 0 1 0 .484-.485l-.946-.947 2.82-2.82a.342.342 0 1 0-.485-.485l-2.82 2.82-.793-.793a.343.343 0 1 0-.484.485l.793.793-.405.405c-.928-1.32-1.282-2.958-1.394-4.744l.481.48-.227.228a.343.343 0 1 0 .484.486l.227-.228 1.192 1.192a.343.343 0 1 0 .484-.485l-1.192-1.192 1.916-1.914.017.018a.343.343 0 1 0 .486-.486l-.018-.018.266-.266a.343.343 0 1 0-.484-.485l-.266.266-1.726-1.726 1.161-1.162 1.674 1.675a.343.343 0 1 0 .486-.486l-1.674-1.674 1.077-1.078a.343.343 0 0 0-.484-.485l-1.077 1.078-.395-.395a111 111 0 0 0 3.51-3.554c-.02.107-.007.216.077.3l1.452 1.45-2.769 2.769a.343.343 0 1 0 .486.485l2.768-2.768.355.355a.343.343 0 1 0 .486-.484l-.356-.355 2.393-2.393a.33.33 0 0 0 .086-.275l.391.39a.343.343 0 1 0 .486-.485l-1.897-1.896 2.15-2.15.88.879-.792.792a.343.343 0 1 0 .485.486l.793-.793.724.724a.343.343 0 1 0 .485-.485l-.724-.724c2.157-2.157 1.988-1.95 1.988-1.95.014-.014.015-.052.04-.078a.343.343 0 0 0 0-.485.33.33 0 0 0-.201-.084l-1.31-1.31 1.35-1.35 1.068 1.068-.561.562a.343.343 0 1 0 .484.486l.556-.557 1.086 1.086a.34.34 0 0 0 .484 0 .34.34 0 0 0 0-.484l-1.086-1.086 1.568-1.567c.054-.055.07-.126.082-.198 3.713 1.587 7.829 2.374 11.892 2.11 15.337-.954 27.944-15.515 26.3-30.832-1.122-10.236-8.45-20.263-24.112-20.947-9.058-.411-18.24 2.148-24.102 9.232-7.13 8.637-7.852 21.24-1.756 30.65.415.635.82 1.186 1.223 1.706-2.302 1.143-6.048 3.775-8.61 5.808.427-32.979-.946-28.217-.902-41.946.041-7.397 1.377-11.448 12.874-12.06"/><path fill="#036" d="m52.443 43.67 1.442-1.442.979.979-2.375 2.374a.343.343 0 1 0 .484.486l2.375-2.375.624.624-1.443 1.442a.343.343 0 1 0 .484.486l1.444-1.443 1.777 1.777-.777.778a.343.343 0 1 0 .484.485l.777-.777.087.086a.343.343 0 1 0 .484-.485l-.087-.087 2.045-2.043.28.28a.343.343 0 1 0 .485-.485l-.28-.28.265-.265a.343.343 0 1 0-.484-.485l-.265.265-.624-.624 2.132-2.133 1.326 1.328a.343.343 0 1 0 .486-.486l-1.326-1.328 1.668-1.669a.343.343 0 1 0-.485-.485l-1.669 1.668-.979-.979 1.362-1.361a.343.343 0 1 0-.486-.486l-1.361 1.362-.314-.314.94-.94a.343.343 0 1 0-.485-.486l-.94.94-.69-.69a.34.34 0 0 0-.484 0 .34.34 0 0 0 0 .485l.69.69-2.133 2.132-.822-.823a.336.336 0 0 0-.449-.015.34.34 0 0 0-.582-.236l-2.138 2.138-.91-.91a.343.343 0 1 0-.484.485l.91.91-1.444 1.443a.343.343 0 0 0 0 .485.34.34 0 0 0 .486.004m8.321.378-2.044 2.044-1.777-1.777 1.051-1.052a.343.343 0 1 0-.485-.485l-1.052 1.051-.624-.624 2.043-2.044 1.777 1.777-1.398 1.398a.342.342 0 1 0 .485.486l1.399-1.399zm-.269-5.503.314.314-1.487 1.487a.343.343 0 1 0 .484.486l1.487-1.488.98.98-2.133 2.131-1.777-1.777zm-4.016 1.088c.006.08.03.16.092.223l.823.822-2.043 2.043-.98-.979zM17.7 68.941l-.62-.507c.434-.436.881-.857 1.33-1.277.206.16.405.33.629.462a.343.343 0 1 0 .347-.591c-.168-.097-.313-.227-.47-.344q.797-.715 1.624-1.394l.657.473a.343.343 0 1 0 .4-.557l-.514-.372c.544-.434 1.103-.85 1.666-1.26l.522.594a.344.344 0 0 0 .484.032.344.344 0 0 0 .032-.484l-.484-.55c.281-.2.57-.387.855-.58.06.126.135.244.172.378.05.18.234.29.42.242a.343.343 0 0 0 .242-.421c-.056-.206-.14-.4-.234-.591.344-.224.68-.46 1.03-.674a.343.343 0 1 0-.358-.585c-.356.218-.697.456-1.047.684a3 3 0 0 0-.48-.488.343.343 0 0 0-.425.538c.121.096.21.223.312.34-.316.212-.631.422-.94.641l-.157-.177a.343.343 0 0 0-.514.454l.117.133c-.604.442-1.202.893-1.785 1.363l-.736-.53a.34.34 0 0 0-.478.078.34.34 0 0 0 .078.478l.593.428c-.536.446-1.064.897-1.58 1.366a5 5 0 0 1-.57-.635.342.342 0 1 0-.554.403c.184.252.405.477.628.698-.453.423-.903.85-1.34 1.291l-.77-.632a.343.343 0 0 0-.434.53l.732.602q-1.152 1.198-2.215 2.474a4.4 4.4 0 0 0-1.076-.612.343.343 0 1 0-.245.64 3.7 3.7 0 0 1 .878.496 47 47 0 0 0-1.397 1.826 3.5 3.5 0 0 0-.696-.326.343.343 0 1 0-.215.651q.26.088.499.227c-.284.4-.546.813-.818 1.221l-.443-.277a.343.343 0 0 0-.36.583l.422.262c-.123.192-.258.376-.377.57a.342.342 0 1 0 .583.36c.12-.194.254-.377.377-.57l.437.272c.162.1.372.05.472-.11.1-.161.05-.374-.111-.473l-.421-.26c.26-.39.51-.787.782-1.171.252.236.467.51.617.817a.343.343 0 1 0 .615-.301c-.2-.41-.481-.771-.816-1.073.44-.602.889-1.198 1.358-1.778.16.171.308.355.433.554a.342.342 0 1 0 .581-.362 4.4 4.4 0 0 0-.571-.715q1.072-1.287 2.233-2.494l.657.54a.343.343 0 0 0 .436-.53"/></svg>