<svg width="96" height="96" viewBox="0 0 96 96" fill="none" xmlns="http://www.w3.org/2000/svg">
<path d="M51.068 57.5434C62.3853 56.84 71.6789 46.0999 70.4655 34.7989C69.8635 29.3034 66.6468 24.2946 62.0714 21.7279C59.5197 20.2923 56.3537 19.4819 52.664 19.3215C48.2818 19.1131 44.1766 19.8823 40.7803 21.5373C38.4905 22.6575 36.4558 24.248 34.8927 26.1361C29.6302 32.5119 29.0969 41.815 33.5969 48.7612C37.4759 54.6996 44.4838 57.9725 51.068 57.5434ZM58.4941 23.1182C58.479 23.0935 58.4831 23.0634 58.4625 23.0414L56.9488 21.5277L57.1613 21.3152C57.7646 21.4605 58.3323 21.6401 58.8876 21.8334L59.3332 22.2791L58.4941 23.1182ZM52.206 20.8928L51.9894 20.6762C52.1306 20.6789 52.2705 20.6803 52.4131 20.6858L52.206 20.8928ZM48.0158 21.3782L46.1963 23.1977L44.588 21.5894C45.5519 21.3138 46.5514 21.1013 47.5894 20.9518L48.0158 21.3782ZM40.1674 23.4445L40.4046 23.6817L38.5275 25.5588L37.975 25.0063C38.6592 24.4331 39.3886 23.908 40.1674 23.4445ZM40.7899 23.099C40.9394 23.0181 41.082 22.929 41.2328 22.8522L40.8886 23.1964L40.7899 23.099ZM32.4753 42.794L33.8437 44.1624L33.1486 44.8576C32.8853 44.1816 32.6536 43.4947 32.4753 42.794ZM31.9283 38.4558C31.9625 38.4667 31.99 38.4955 32.0242 38.4955C32.112 38.4955 32.1997 38.4626 32.2669 38.3954L32.6755 37.9868L34.144 39.4553L32.1819 41.4174C32.0146 40.4371 31.9337 39.4471 31.9283 38.4558ZM31.942 37.7524C31.9475 37.5906 31.9447 37.4274 31.9543 37.2656L32.1915 37.5028L31.942 37.7524ZM32.0681 36.4086C32.0599 36.4004 32.0475 36.4032 32.0393 36.3963C32.138 35.4804 32.3081 34.5741 32.5453 33.6815C32.6262 33.6773 32.7071 33.6499 32.7701 33.5882L32.8785 33.4799L34.5471 35.1486L32.6783 37.0174L32.0681 36.4086ZM34.6472 28.8413L35.5974 29.7915L32.9141 32.4749C33.3474 31.2093 33.926 29.9903 34.6472 28.8413ZM34.7473 48.014C34.2359 47.2242 33.7957 46.4001 33.4242 45.5541L34.3291 44.6492L34.4018 44.7219C34.5362 44.8562 34.7528 44.8562 34.8872 44.7219C35.0215 44.5875 35.0215 44.3708 34.8872 44.2365L34.8145 44.1638L37.3086 41.6697C37.443 41.5353 37.443 41.3187 37.3086 41.1857C37.1742 41.0513 36.9576 41.0513 36.8232 41.1857L34.3291 43.6798L32.6097 41.9604L34.6294 39.9407L34.868 40.1793C35.0023 40.3136 35.219 40.3136 35.3534 40.1793C35.4877 40.0449 35.4877 39.8283 35.3534 39.6939L35.1148 39.4553L36.2624 38.309C36.3968 38.1747 36.3968 37.958 36.2624 37.8237C36.1281 37.6893 35.9114 37.6893 35.7784 37.8237L34.6308 38.9699L33.1623 37.5014L35.0311 35.6326L35.9265 36.5279C36.0609 36.6623 36.2775 36.6623 36.4119 36.5279C36.5462 36.3936 36.5462 36.1769 36.4119 36.0426L35.5165 35.1472L36.5339 34.1298C36.6683 33.9954 36.6683 33.7788 36.5339 33.6444C36.3995 33.5101 36.1829 33.5101 36.0485 33.6444L35.0311 34.6618L33.3625 32.9931L36.0828 30.2728L36.9 31.09L35.5906 32.3994C35.4562 32.5338 35.4562 32.7504 35.5906 32.8848C35.7249 33.0192 35.9416 33.0192 36.0759 32.8848L37.3854 31.5754L38.3534 32.5434C38.4878 32.6778 38.7044 32.6778 38.8388 32.5434C38.9732 32.409 38.9732 32.1924 38.8388 32.058L37.8708 31.09L40.0317 28.9277C40.1661 28.7933 40.1661 28.5767 40.0317 28.4423C39.8973 28.308 39.6807 28.308 39.5463 28.4423L37.3854 30.6046L36.5682 29.7874L38.1779 28.1763C38.4974 27.8582 38.0147 27.3701 37.6939 27.6909L36.0828 29.3007L35.0257 28.2435C35.3163 27.8198 35.6221 27.4044 35.9525 27.004C36.4078 26.4542 36.9206 25.9427 37.4567 25.4519L38.0422 26.0374L37.7926 26.2869C37.6582 26.4213 37.6582 26.6379 37.7926 26.7723C37.927 26.9067 38.1436 26.9067 38.278 26.7723L38.5275 26.5227L40.4101 28.4053C40.5445 28.5397 40.7611 28.5397 40.8941 28.4053C41.0285 28.2709 41.0285 28.0543 40.8941 27.9199L39.0116 26.0374L40.8886 24.1603L42.8507 26.1224C42.9851 26.2567 43.2018 26.2567 43.3361 26.1224C43.4705 25.988 43.4705 25.7714 43.3361 25.637L42.7027 25.0035C42.7287 24.9884 42.7616 24.9925 42.7849 24.9692L44.6442 23.11C44.7786 22.9756 44.7786 22.759 44.6442 22.6246C44.5098 22.4902 44.2932 22.4902 44.1588 22.6246L42.2995 24.4839C42.2762 24.5072 42.2803 24.5387 42.2653 24.5661L41.374 23.6749L42.5998 22.4491C42.6615 22.3874 42.6862 22.3065 42.6917 22.227C43.0674 22.0775 43.4362 21.9185 43.827 21.7909L45.8343 23.7983C45.8481 23.8586 45.8576 23.9217 45.9056 23.9683C46.04 24.1027 46.2566 24.1027 46.391 23.9683L46.4404 23.9189L46.4417 23.9176L48.5026 21.8568L49.6872 23.0414C49.8216 23.1758 50.0382 23.1758 50.1726 23.0414C50.307 22.907 50.307 22.6904 50.1726 22.5574L48.9221 21.3069C48.9276 21.2137 48.9002 21.1191 48.8289 21.0478C48.7576 20.9765 48.663 20.9491 48.5698 20.9545L48.4313 20.8161C49.2759 20.7242 50.1411 20.6776 51.02 20.6694L51.7247 21.3741L50.5154 22.5835C50.381 22.7178 50.381 22.9345 50.5154 23.0688C50.6498 23.2032 50.8664 23.2032 51.0008 23.0688L52.2101 21.8595L53.4812 23.1305C53.6155 23.2649 53.8322 23.2649 53.9666 23.1305C54.1009 22.9962 54.1009 22.7795 53.9666 22.6465L52.6955 21.3755L52.9341 21.1369C53.0493 21.0217 53.0452 20.8531 52.9629 20.7201C53.8185 20.7681 54.6425 20.8531 55.4337 20.9751L55.9835 21.5249L54.7234 22.785C54.5891 22.9194 54.5891 23.136 54.7234 23.2704C54.8578 23.4048 55.0744 23.4048 55.2088 23.2704L56.4689 22.0103L57.9826 23.5241C58.0498 23.5912 58.1376 23.6242 58.2253 23.6242C58.239 23.6242 58.2486 23.6104 58.2623 23.6091C58.2774 23.6667 58.2843 23.7256 58.3295 23.7709C58.4639 23.9052 58.6805 23.9052 58.8149 23.7709L59.8241 22.7617L61.5202 24.4578C61.6545 24.5922 61.8712 24.5922 62.0042 24.4578C62.1385 24.3234 62.1385 24.1068 62.0042 23.9738L60.5453 22.5149C60.8305 22.652 61.1362 22.7686 61.4064 22.9208C65.602 25.275 68.5527 29.8834 69.108 34.9443C70.2392 45.4787 61.5435 55.5155 50.9857 56.1722C44.9596 56.5685 38.4014 53.6 34.7473 48.014Z" fill="#003366"/>
<path d="M4.45175 78.0558C3.82514 80.7624 5.57609 83.735 8.20045 84.4179C11.8943 85.3639 15.2933 82.209 18.5114 79.4009C18.3715 87.9568 20.4324 91.7274 30.6172 91.7274C30.7296 91.7274 30.842 91.7274 30.9545 91.726L57.5093 91.6698L57.5025 91.8727C58.0262 91.8906 58.5678 91.8316 59.1561 91.6671L75.2697 91.6328C84.6428 91.6328 86.6501 88.3818 86.6501 81.2738L86.6323 63.5258C86.6693 63.0638 86.6803 62.5839 86.646 62.0779L86.6309 62.0793L86.587 18.1754C86.587 9.19448 84.1354 6.18346 75.1435 5.35255C60.8494 4.04585 46.3606 3.78122 32.0788 4.56414C20.1458 5.20035 17.9561 9.55234 17.9081 17.9835C17.8615 31.8196 19.2299 26.1143 18.7925 61.0633C12.4688 66.3092 5.25661 74.6979 4.45175 78.0558ZM8.54323 83.0906C6.64283 82.597 5.32928 80.3442 5.78587 78.3711C6.41111 75.7591 12.9377 67.6351 19.91 61.9038C23.8794 58.6199 28.1807 55.8913 29.6711 55.2126C30.1359 55.7474 30.8955 56.5344 31.4988 57.0993C32.0624 57.6258 32.9536 58.3758 33.4047 58.7255C33.354 59.0381 33.2868 59.3411 33.2141 59.6345C32.9234 59.6359 32.7137 59.9595 33.0372 60.2831C32.8919 60.7575 32.7328 61.1743 32.5875 61.4924C31.7813 63.3215 30.4814 64.9628 29.3269 66.3572C26.1582 70.1813 22.6043 73.882 18.7651 77.3551C18.7623 77.3579 18.7596 77.3606 18.7568 77.3634C18.7459 77.373 18.7335 77.3826 18.7226 77.3935C14.5474 81.1299 11.498 83.8461 8.54323 83.0906ZM36.6283 61.4554C36.4939 61.321 36.2772 61.321 36.1442 61.4554L35.6616 61.938L34.3563 60.6327C34.4605 60.2899 34.5523 59.943 34.6291 59.592C35.9399 60.4942 37.3248 61.2799 38.7672 61.9367L37.2137 63.4902L36.1456 62.4221L36.6269 61.9394C36.7612 61.8064 36.7613 61.5898 36.6283 61.4554ZM33.1606 64.923C33.295 65.0574 33.5117 65.0574 33.646 64.923L33.827 64.742L35.0364 65.9514L33.3101 67.6776L31.7648 66.1324C31.6305 65.998 31.4138 65.998 31.2808 66.1324C31.1464 66.2667 31.1464 66.4834 31.2808 66.6177L31.4618 66.7987L29.3119 68.9487L29.0938 68.7307C29.5244 68.2316 29.9659 67.7352 30.3841 67.232C31.2219 66.2201 32.1254 65.0738 32.8974 63.8124L33.3444 64.2594L33.1634 64.4404C33.0263 64.572 33.0263 64.7886 33.1606 64.923ZM27.4211 71.3221C27.5554 71.4565 27.7721 71.4565 27.9064 71.3221L29.3105 69.9181L30.5198 71.1274C30.4211 71.1164 30.321 71.1384 30.2442 71.2138L27.8516 73.6064L26.3996 72.1558C26.3077 72.0639 26.1843 72.0584 26.0677 72.0927C26.948 71.1562 27.8063 70.2088 28.6427 69.2531L28.8251 69.4354L27.4211 70.8395C27.2867 70.9711 27.2867 71.1877 27.4211 71.3221ZM33.2511 63.1968C33.4596 62.8224 33.6652 62.4454 33.8394 62.0505C33.9367 61.8338 34.0272 61.5994 34.1163 61.3608L35.1776 62.4221L33.827 63.7726L33.2511 63.1968ZM28.7168 51.6751C22.9443 42.7641 23.6299 30.8269 30.3813 22.6467C35.9139 15.961 44.6604 13.5081 53.3644 13.9112C67.546 14.5309 75.0393 23.2706 76.1746 33.6364C77.7446 48.2582 65.6717 62.0491 51.1513 62.9527C42.8875 63.4902 33.8023 59.4467 28.7168 51.6751ZM20.9424 77.8008C20.8081 77.6664 20.5914 77.6664 20.4571 77.8008C20.3227 77.9351 20.3227 78.1518 20.4571 78.2861L20.5914 78.4205L19.8867 79.1253L19.9017 78.1682C20.5544 77.5745 21.192 76.9698 21.8268 76.3638L22.2368 76.7738L21.0754 77.9351L20.9424 77.8008ZM19.8771 79.7286C20.0142 79.8081 20.1431 79.8369 20.2843 79.6957L21.0768 78.9031L22.8031 80.6294L20.8876 82.5435L19.8784 81.5344C19.8661 80.8831 19.8675 80.3415 19.8771 79.7286ZM75.2683 90.2617L64.6242 90.2836L65.8829 89.0249L66.7686 89.9106C66.903 90.045 67.1196 90.045 67.2526 89.9106C67.387 89.7763 67.387 89.5596 67.2526 89.4253L66.3669 88.5395L68.4716 86.4348C68.4853 86.4951 68.4949 86.5582 68.5429 86.6048L70.6956 88.7575L69.9949 89.4582C69.8605 89.5925 69.8605 89.8092 69.9949 89.9436C70.1293 90.0779 70.3459 90.0779 70.4803 89.9436L71.1809 89.2429L71.9104 89.9723C72.0447 90.1067 72.2614 90.1067 72.3958 89.9723C72.5301 89.838 72.5301 89.6213 72.3958 89.487L71.6663 88.7575L73.9383 86.4855L75.7029 88.2502L74.3496 89.6035C74.2153 89.7379 74.2153 89.9545 74.3496 90.0889C74.484 90.2233 74.7006 90.2233 74.835 90.0889L76.1883 88.7356L77.3867 89.934C77.5211 90.0683 77.7377 90.0683 77.8721 89.934C78.0065 89.7996 78.0065 89.5829 77.8721 89.4486L76.6737 88.2502L79.309 85.6149L81.0737 87.3795L79.4297 89.0235C79.2953 89.1579 79.2953 89.3745 79.4297 89.5089C79.5641 89.6433 79.7807 89.6433 79.9151 89.5089L81.5591 87.8649L82.5532 88.859C80.6637 90.0505 77.9777 90.2617 75.2683 90.2617ZM83.0852 88.4819C83.0687 88.449 83.0714 88.4106 83.044 88.3832L82.0403 87.3795L83.613 85.8068C83.7474 85.6725 83.7474 85.4558 83.613 85.3214C83.4787 85.1871 83.262 85.1871 83.1277 85.3214L81.5563 86.8941L79.7917 85.1295L82.0938 82.8273C82.1391 82.7821 82.1459 82.7218 82.161 82.6656L84.9266 85.4311C84.566 86.901 83.9476 87.7813 83.0852 88.4819ZM85.2721 73.7765L85.0157 73.5201L85.2707 73.265L85.2721 73.7765ZM85.2762 78.7153L84.3617 77.8008L85.2735 76.8889L85.2762 78.7153ZM84.8772 79.2857C85.0198 79.4283 85.1419 79.3954 85.2776 79.3213L85.279 81.2738C85.279 82.4379 85.2515 83.5732 85.0884 84.6222L81.1916 80.7254C81.304 80.7528 81.3795 80.7843 81.5083 80.6555L83.8777 78.2861L84.8772 79.2857ZM85.2707 72.4012C85.2063 72.4135 85.1405 72.4259 85.0911 72.4752L84.5303 73.0347L83.1044 71.6087C82.97 71.4743 82.7533 71.4743 82.619 71.6087C82.4846 71.7431 82.4846 71.9597 82.619 72.0941L84.045 73.5201L82.619 74.946C82.4846 75.0804 82.4846 75.2971 82.619 75.4314C82.7533 75.5658 82.97 75.5658 83.1044 75.4314L84.5303 74.0054L85.2721 74.7472L85.2735 75.9209L83.8777 77.3167L82.5244 75.9621C82.39 75.8277 82.1733 75.8277 82.0403 75.9621C81.906 76.0964 81.906 76.3131 82.0403 76.4474L83.3937 77.8021L81.0243 80.1714C80.9366 80.2592 80.9284 80.3757 80.9544 80.4882L80.6377 80.1714C80.5033 80.0371 80.2867 80.0371 80.1523 80.1714C80.0179 80.3058 80.0179 80.5225 80.1523 80.6568L81.7716 82.2761C81.714 82.2912 81.6537 82.2981 81.6098 82.3433L79.3077 84.6455L78.027 83.3648C77.8927 83.2305 77.676 83.2305 77.543 83.3648C77.4086 83.4992 77.4086 83.7158 77.543 83.8502L78.8237 85.1309L76.1883 87.7662L74.4237 86.0015L78.3986 82.0266C78.533 81.8922 78.533 81.6756 78.3986 81.5412C78.2642 81.4068 78.0476 81.4068 77.9132 81.5412L73.9397 85.5161L72.6577 84.2341C72.5233 84.0998 72.3066 84.0998 72.1736 84.2341C72.0393 84.3685 72.0393 84.5851 72.1736 84.7195L73.4543 86.0015L71.1823 88.2735L69.0296 86.1208C68.983 86.0742 68.9199 86.0646 68.8596 86.0509L71.7829 83.1276C71.9172 82.9932 71.9172 82.7766 71.7829 82.6422C71.6485 82.5079 71.4319 82.5079 71.2975 82.6422L65.8842 88.0555L65.5456 87.7168C65.2275 87.3987 64.7393 87.88 65.0615 88.2022L65.3988 88.5409L63.7549 90.1849C63.7274 90.2137 63.7288 90.2521 63.7123 90.2863L61.6076 90.2904C66.2997 86.1153 64.3156 79.6682 64.5528 74.7705C64.6872 71.9679 65.8911 68.3344 68.8363 67.3211C72.947 65.9116 77.5403 70.228 82.2584 68.9912C83.5267 68.658 84.5276 68.0094 85.2639 67.1223L85.2707 72.4012ZM32.1529 5.93254C46.3674 5.15373 60.7905 5.41562 75.0201 6.71683C83.2977 7.48055 85.2173 9.91844 85.2173 18.1741L85.2625 63.5491C85.0102 66.2448 83.3635 67.2841 81.9115 67.6653C77.7117 68.7718 73.1046 64.4102 68.392 66.0254C64.801 67.2594 63.3476 71.318 63.1845 74.7061C63.0227 78.0709 63.7439 81.3739 63.2023 84.5509C62.7704 87.0875 61.0702 89.6021 58.8215 90.2973L30.949 90.3549C27.5993 90.3809 23.8657 90.1739 21.7445 87.8334L22.2053 87.3727L23.1513 88.3187C23.2857 88.4531 23.5023 88.4531 23.6353 88.3187C23.7697 88.1844 23.7697 87.9677 23.6353 87.8334L22.6893 86.8873L25.5097 84.0668C25.6441 83.9325 25.6441 83.7158 25.5097 83.5815C25.3753 83.4471 25.1587 83.4471 25.0243 83.5815L22.2039 86.4019L21.4114 85.6094C21.277 85.475 21.0604 85.475 20.9273 85.6094C20.793 85.7438 20.793 85.9604 20.9273 86.0948L21.7199 86.8873L21.3154 87.2918C20.3871 85.9727 20.0334 84.3342 19.9209 82.5476L20.4022 83.0289L20.1746 83.2565C20.0402 83.3909 20.0402 83.6075 20.1746 83.7419C20.309 83.8763 20.5256 83.8763 20.6586 83.7419L20.8862 83.5143L22.0777 84.7058C22.2121 84.8402 22.4287 84.8402 22.5617 84.7058C22.6961 84.5714 22.6961 84.3548 22.5617 84.2204L21.3702 83.0289L23.2857 81.1148L23.3035 81.1326C23.4379 81.267 23.6545 81.267 23.7889 81.1326C23.9233 80.9982 23.9233 80.7816 23.7889 80.6472L23.7711 80.6294L24.0371 80.3634C24.1715 80.229 24.1715 80.0124 24.0371 79.878C23.9027 79.7437 23.6861 79.7437 23.5531 79.878L23.2871 80.144L21.5608 78.4178L22.7222 77.2564L24.3963 78.9306C24.5307 79.0649 24.7473 79.0649 24.8817 78.9306C25.0161 78.7962 25.0161 78.5796 24.8817 78.4452L23.2076 76.771L24.2853 75.6933C24.4196 75.5589 24.4196 75.3423 24.2853 75.2079C24.1509 75.0735 23.9343 75.0735 23.8013 75.2079L22.7235 76.2856L22.3287 75.8908C23.5339 74.7267 24.7007 73.5393 25.8388 72.3368C25.8196 72.4437 25.8319 72.5534 25.9156 72.637L27.3676 74.0877L24.5993 76.856C24.4649 76.9904 24.4649 77.207 24.5993 77.3414C24.7336 77.4758 24.9503 77.4758 25.0846 77.3414L27.853 74.5731L28.2081 74.9282C28.3425 75.0626 28.5591 75.0626 28.6935 74.9282C28.8278 74.7938 28.8278 74.5772 28.6935 74.4442L28.3384 74.0891L30.731 71.6964C30.8078 71.6197 30.8283 71.5196 30.8174 71.4208L31.2081 71.8116C31.3425 71.946 31.5592 71.946 31.6935 71.8116C31.8279 71.6772 31.8279 71.4606 31.6935 71.3262L29.7972 69.4299L31.9472 67.28L32.8275 68.1589L32.0349 68.9514C31.9006 69.0858 31.9006 69.3024 32.0349 69.4368C32.1693 69.5712 32.386 69.5712 32.5203 69.4368L33.3128 68.6443L34.0368 69.3682C34.1712 69.5026 34.3878 69.5026 34.5222 69.3682C34.6566 69.2339 34.6566 69.0172 34.5222 68.8829L33.7982 68.1589C35.955 66.0021 35.7864 66.2091 35.7864 66.2091C35.8001 66.1954 35.8015 66.157 35.8261 66.131C35.9605 65.9966 35.9605 65.78 35.8261 65.6456C35.7699 65.5894 35.6972 65.5716 35.6246 65.562L34.3151 64.2525L35.6643 62.902L36.7325 63.9701L36.1717 64.5322C36.0373 64.6666 36.0373 64.8833 36.1717 65.0176C36.306 65.152 36.5227 65.152 36.6557 65.0176L37.2124 64.4609L38.2983 65.5469C38.4327 65.6813 38.6493 65.6813 38.7823 65.5469C38.9167 65.4125 38.9167 65.1959 38.7823 65.0629L37.6964 63.9769L39.2636 62.4097C39.3184 62.3549 39.3349 62.2836 39.3458 62.2123C43.0589 63.7987 47.175 64.5857 51.2377 64.3225C66.5753 63.3681 79.1815 48.8067 77.5375 33.4897C76.4159 23.2541 69.0886 13.227 53.4261 12.5428C44.3683 12.1315 35.1858 14.6914 29.3242 21.7747C22.1943 30.4115 21.4717 43.015 27.5678 52.4251C27.9832 53.0599 28.3877 53.6111 28.7908 54.1308C26.4887 55.2743 22.7427 57.9055 20.1801 59.9389C20.6079 26.9603 19.2354 31.7223 19.2792 17.9931C19.3204 10.5958 20.6559 6.54544 32.1529 5.93254Z" fill="#003366"/>
<path d="M52.4426 43.6701L53.885 42.2276L54.864 43.2066L52.4892 45.5814C52.3548 45.7158 52.3548 45.9325 52.4892 46.0668C52.6236 46.2012 52.8402 46.2012 52.9732 46.0668L55.348 43.692L55.9719 44.3159L54.5295 45.7583C54.3951 45.8927 54.3951 46.1093 54.5295 46.2437C54.6638 46.3781 54.8805 46.3781 55.0135 46.2437L56.4573 44.8013L58.2343 46.5783L57.4569 47.3557C57.3225 47.4901 57.3225 47.7067 57.4569 47.8411C57.5912 47.9755 57.8079 47.9755 57.9409 47.8411L58.7183 47.0637L58.8047 47.15C58.9391 47.2844 59.1557 47.2844 59.2887 47.15C59.4231 47.0157 59.4231 46.799 59.2887 46.6646L59.2023 46.5783L61.2467 44.5353L61.5264 44.815C61.6608 44.9494 61.8774 44.9494 62.0118 44.815C62.1461 44.6806 62.1461 44.464 62.0118 44.3296L61.7321 44.0499L61.9967 43.7853C62.1311 43.6509 62.1311 43.4342 61.9967 43.2999C61.8623 43.1655 61.6457 43.1655 61.5127 43.2999L61.2481 43.5645L60.6242 42.9406L62.7563 40.8085L64.0822 42.1358C64.2166 42.2701 64.4332 42.2701 64.5676 42.1358C64.702 42.0014 64.702 41.7848 64.5676 41.6504L63.2417 40.3218L64.9104 38.6531C65.0447 38.5187 65.0447 38.3021 64.9104 38.1677C64.776 38.0333 64.5594 38.0333 64.425 38.1677L62.7563 39.8364L61.7773 38.8574L63.1389 37.4958C63.2732 37.3615 63.2732 37.1448 63.1389 37.0105C63.0045 36.8761 62.7878 36.8761 62.6535 37.0105L61.2919 38.372L60.9779 38.058L61.9185 37.1174C62.0529 36.983 62.0529 36.7664 61.9185 36.632C61.7842 36.4977 61.5675 36.4977 61.4332 36.632L60.4926 37.5726L59.8029 36.8829C59.6685 36.7486 59.4519 36.7486 59.3189 36.8829C59.1845 37.0173 59.1845 37.234 59.3189 37.367L60.0085 38.0566L57.8764 40.1888L57.0537 39.3661C56.9303 39.2427 56.7398 39.2454 56.6054 39.351C56.604 39.266 56.5725 39.1796 56.508 39.1152C56.3737 38.9808 56.157 38.9808 56.0226 39.1152L53.885 41.2528L52.9746 40.3423C52.8402 40.208 52.6236 40.208 52.4906 40.3423C52.3562 40.4767 52.3562 40.6933 52.4906 40.8277L53.401 41.7381L51.9572 43.1806C51.8229 43.315 51.8229 43.5316 51.9572 43.666C52.0916 43.8031 52.3082 43.8031 52.4426 43.6701ZM60.764 44.0485L58.7197 46.0915L56.9427 44.3145L57.9943 43.2629C58.1287 43.1285 58.1287 42.9118 57.9943 42.7775C57.86 42.6431 57.6433 42.6431 57.509 42.7775L56.4573 43.8291L55.8334 43.2053L57.8764 41.1609L59.6534 42.9379L58.2549 44.3365C58.1205 44.4708 58.1205 44.6875 58.2549 44.8218C58.3892 44.9562 58.6059 44.9562 58.7402 44.8218L60.1388 43.4233L60.764 44.0485ZM60.4953 38.5448L60.8093 38.8588L59.3216 40.3464C59.1872 40.4808 59.1872 40.6975 59.3216 40.8318C59.456 40.9662 59.6726 40.9662 59.8056 40.8318L61.2933 39.3441L62.2723 40.3231L60.1402 42.4553L58.3632 40.6783L60.4953 38.5448ZM56.4792 39.6335C56.4847 39.713 56.5094 39.7939 56.5711 39.8556L57.3938 40.6783L55.3508 42.7213L54.3718 41.7423L56.4792 39.6335Z" fill="#003366"/>
<path d="M17.6991 68.941L17.0807 68.4337C17.514 67.9976 17.961 67.5767 18.4107 67.1571C18.6164 67.3176 18.8152 67.4876 19.0387 67.6192C19.2019 67.7138 19.4116 67.6603 19.5076 67.4972C19.6036 67.334 19.5488 67.1242 19.3856 67.0282C19.2183 66.9309 19.073 66.8006 18.9167 66.6841C19.4459 66.2056 19.9903 65.7435 20.5401 65.2897L21.1969 65.7627C21.3449 65.871 21.5616 65.8422 21.6754 65.6845C21.7865 65.531 21.7522 65.3171 21.5972 65.206L21.0831 64.8344C21.6274 64.3998 22.1855 63.9843 22.749 63.5744L23.2714 64.1681C23.3989 64.3107 23.6142 64.323 23.7554 64.1996C23.8966 64.0748 23.9117 63.8568 23.7869 63.7156L23.3029 63.1658C23.584 62.9669 23.8733 62.7791 24.1585 62.5858C24.2175 62.7119 24.2929 62.8298 24.3299 62.9642C24.3793 63.1438 24.5644 63.2549 24.7509 63.2055C24.9332 63.1562 25.0415 62.9683 24.9922 62.7846C24.936 62.5789 24.8523 62.3842 24.7577 62.1936C25.1019 61.9701 25.4378 61.7343 25.7874 61.5204C25.9492 61.4217 26 61.2105 25.9012 61.0487C25.8025 60.8869 25.59 60.8389 25.4296 60.9349C25.0744 61.1529 24.733 61.3915 24.3834 61.6191C24.2394 61.4409 24.0831 61.2736 23.9035 61.131C23.7568 61.0144 23.5401 61.0378 23.4222 61.1872C23.3043 61.3353 23.329 61.5506 23.4784 61.6685C23.5991 61.7645 23.6882 61.892 23.7897 62.0099C23.4743 62.221 23.159 62.4308 22.8491 62.6502L22.6928 62.4733C22.5694 62.3307 22.3514 62.317 22.2101 62.4432C22.0675 62.5679 22.0538 62.7846 22.1786 62.9272L22.2965 63.0602C21.6918 63.5017 21.094 63.9528 20.5113 64.4231L19.775 63.8925C19.6228 63.78 19.4075 63.8143 19.2965 63.9706C19.1854 64.1242 19.2197 64.3381 19.3746 64.4491L19.9683 64.8769C19.4322 65.3226 18.9043 65.7737 18.3888 66.2426C18.1845 66.0424 17.9857 65.8367 17.8184 65.6078C17.7059 65.4542 17.4921 65.4226 17.3399 65.5323C17.1863 65.6434 17.1534 65.8587 17.2644 66.0109C17.4482 66.2632 17.6689 66.488 17.8924 66.7088C17.4386 67.1325 16.9888 67.5589 16.5528 68.0004L15.7822 67.3683C15.6355 67.249 15.4189 67.2696 15.2996 67.4163C15.1803 67.563 15.2009 67.7796 15.3476 67.8989L16.0798 68.4995C15.3119 69.2989 14.5743 70.1229 13.8654 70.9744C13.5363 70.7235 13.1771 70.5109 12.789 70.3615C12.6108 70.2943 12.4134 70.3821 12.3462 70.5589C12.279 70.7358 12.3667 70.9333 12.5436 71.0018C12.8603 71.1238 13.1524 71.2966 13.4225 71.4982C12.9399 72.0946 12.4778 72.7061 12.0253 73.3245C11.8059 73.1929 11.5742 73.0791 11.3288 72.9982C11.1492 72.9365 10.9545 73.0366 10.8955 73.2162C10.8365 73.3958 10.9325 73.5891 11.1135 73.6495C11.2863 73.7071 11.4536 73.7838 11.6126 73.8757C11.3288 74.2761 11.0669 74.6888 10.7954 75.0974L10.3525 74.8204C10.1935 74.7217 9.98096 74.7697 9.88086 74.9315C9.78077 75.0919 9.83013 75.3031 9.99192 75.4032L10.4142 75.665C10.2908 75.857 10.1565 76.0407 10.0372 76.2341C9.93708 76.3945 9.98644 76.6057 10.1482 76.7057C10.3087 76.8058 10.5198 76.7565 10.6199 76.5947C10.7392 76.4014 10.8736 76.2176 10.997 76.0257L11.4344 76.2971C11.5962 76.3972 11.8059 76.3479 11.906 76.1861C12.0061 76.0257 11.9568 75.8131 11.795 75.7144L11.374 75.4539C11.6332 75.0631 11.8841 74.6669 12.1556 74.2829C12.4079 74.5188 12.6231 74.793 12.7726 75.1001C12.8535 75.2647 13.0537 75.3428 13.2306 75.2578C13.4006 75.1742 13.4705 74.9685 13.3882 74.7985C13.188 74.3899 12.907 74.0279 12.5724 73.7263C13.0125 73.1243 13.4609 72.5279 13.9298 71.9479C14.0903 72.1193 14.2383 72.303 14.3631 72.5018C14.4632 72.6636 14.6757 72.7116 14.8348 72.6115C14.9952 72.5114 15.0446 72.3003 14.9445 72.1399C14.7827 71.8793 14.5839 71.6462 14.3727 71.4255C15.0871 70.5672 15.833 69.7362 16.6063 68.9314L17.2631 69.4703C17.4139 69.5923 17.6278 69.5662 17.7457 69.4223C17.8664 69.2769 17.8444 69.0616 17.6991 68.941Z" fill="#003366"/>
</svg>
