<svg xmlns="http://www.w3.org/2000/svg" width="40" height="40" fill="none" viewBox="0 0 40 40"><path fill="#1a1a1a" d="M36.363 7.952a.1.1 0 0 1 .06-.018.1.1 0 0 1-.06.018m-4.193-.134a1 1 0 0 0-.025-.158l-.066.067zm-.2.897q.063-.108.109-.225l-.17.17zm-2.28-1.461c-.933 1.388.995 2.83 2.092 1.703l-.085-.085-.097.097c-.14.133-.358-.073-.212-.218l.097-.097c-.06-.055-.206-.188-.243-.26l-.254.254.351.351c.091.091.024.255-.109.255-.097 0-.388-.321-.454-.388l-.297.29a.154.154 0 0 1-.219 0c-.151-.15.14-.35.297-.508l-.084-.085c-.14-.14.072-.358.218-.212l.085.079.581-.588a.16.16 0 0 1 .219 0c.06.06.06.151 0 .212l-.146.133c.018.012.03-.006.043.006l.224.194.34-.394-.2-.309c-.037 0-.08.097-.11.067s-.042.042-.042.006c-.212-.212.036-.394.181-.249l.152-.151c-.49-.903-1.776-.933-2.327-.103m2.352 2.285c-1.727 1.37-4.103-.764-2.86-2.624a1.98 1.98 0 0 1 1.642-.867c1.945 0 2.63 2.382 1.218 3.49"/><path fill="#1a1a1a" d="M30.012 4.576a3.4 3.4 0 0 0-.94.357l.134.133.14-.139c.145-.14.357.073.212.218l-.134.134.073.078.649-.648zm-1.206.515a3.3 3.3 0 0 0-.521.442l.224.23.485-.484zm-1.06 1.442.551-.557-.218-.219a3 3 0 0 0-.436.673zm-.03 1.618.575.576c.127-.127.242-.279.37-.151.133.133-.049.26-.182.394a.15.15 0 0 1-.158.157l-.303.303.515.51a.166.166 0 0 1 0 .217.166.166 0 0 1-.218 0l-.509-.515-.079.073c.68 1.218 1.885 1.83 3.055 1.83 4.097 0 5.049-5.897.982-6.933l-.085.085.103.103c.09.097.024.26-.11.26-.084 0-.145-.078-.211-.145-.152.151-.34.424-.491.273-.146-.146.121-.334.279-.491l-.2-.194c-.249-.018-.025-.018-.303-.012-.012.085-.103.151-.17.218l.248.254c.097.097.03.261-.103.261-.097 0-.29-.224-.363-.297l-.643.643c.14.139.352.29.212.43-.139.133-.29-.079-.424-.212-.17.163-.418.515-.576.357-.157-.157.188-.406.358-.575l-.073-.073-.485.479.437.436c.09.097.024.26-.11.26-.096 0-.466-.406-.539-.478l-.557.551.394.394c.103-.012.17.06.163.158l.103.103c.14.145-.072.357-.212.218l-.079-.079zm-.183-1.406-.024-.018-.018.055zm.019 2.649.024.042.012-.006zm-.273-1.237.006-.006-.006-.006zm.09.643c.067.042.37.351.437.412l.273-.273-.576-.576c-.06.061-.115.128-.188.164.055.376.012.097.055.273m.134-.86.612-.613-.37-.37c-.163.164-.284.08-.296-.048a3.4 3.4 0 0 0-.164.915c.103-.024.14.03.218.115m-.751.908c-1.049-5.097 6.351-6.957 8.006-2.254 1.315 3.733-2.91 7.018-6.206 4.885a4.1 4.1 0 0 1-1.8-2.63m-3.438 5.31-.321.321.29.29.51-.508a1.2 1.2 0 0 0-.479-.103m-1.49.945a3 3 0 0 0-.322.685l.279.273.497-.497zm-.54 2.497.206-.206-.194-.194q-.01.2-.012.4m.097-.74.321.322.382-.382-.303-.309c-.067.067-.321.333-.4.37m.036-.733a6 6 0 0 0-.066.364l.212-.218zm-.066 5-.176-.175-.012.357zm.048-1.006-.188-.194-.012.394zm-.279 2.449.237-.243-.218-.218zm.122-3.57.254-.254-.236-.23zm.206 4.552-.352-.346q-.002.248-.012.485l.115.11zm-.249.678-.097.097c.085 1.237.733 2.316 1.903 2.346.576 0 1.194-.358 1.57-.91 1.212-1.781 1.212-10.096-.51-11.345l-.726.722c-.091.096-.28.036-.249-.134l-.31-.315c-.072.073-.332.37-.435.37-.134 0-.2-.164-.104-.26l.322-.322-.06-.06c-.25.157-.37.278-.504.436l.515.515c.115-.018.188.06.17.17.097.097.194.187.085.297-.103.097-.188.03-.279-.055l-.497.503c.079.085.49.49.382.49.06 0 .048.134 0 .189l-.455.43c.122.121.267.23.14.358a.146.146 0 0 1-.212 0l-.146-.146-.43.437v.054l.436.436.685-.69a.155.155 0 0 1 .218.218l-.69.685.145.145c.097.097.03.26-.103.26-.091 0-.188-.12-.255-.193l-.479.485-.006.072.394.388.388-.388c.14-.14.352.073.212.212l-.388.388c.097.103.194.188.085.297a.154.154 0 0 1-.218 0l-.079-.072-.315.309.26.26.589-.588c.054-.054.151-.054.212 0 .06.061.06.158 0 .219l-.588.587.26.255a.153.153 0 0 1 0 .218.15.15 0 0 1-.109.043.14.14 0 0 1-.103-.043l-.26-.26-.382.381.388.394.103-.103c.06-.06.157-.06.218 0 .055.06.055.158 0 .212l-.103.103.073.073c.06.06.06.158 0 .218a.15.15 0 0 1-.11.043c-.078 0-.12-.06-.181-.115l-.352.351.443.443.315-.316c.14-.139.351.08.212.219l-.327.327c.048.127-.043.242-.182.182l-.267.266c.164.164.491.394.334.546a.146.146 0 0 1-.213 0zm-.703-1.084c.23-6.716.043-7.491 1.079-8.728 1.054-1.254 3.29-1.49 3.976 1.619.57 2.606.654 5.266.248 7.897-.273 1.806-1.09 3.387-2.903 3.345-1.036-.055-1.818-.867-2.133-1.648-.322-.813-.297-1.704-.267-2.485m-4.26-7.135c-.134 0-.206-.164-.11-.255.17-.17.4-.496.558-.345a.166.166 0 0 1 0 .218c-.073.073-.351.382-.448.382"/><path fill="#1a1a1a" d="m15.848 14.17.346.345.254-.254c-.309-.115-.418-.097-.6-.091m-1.17.521.176.176c.06-.067.564-.588.649-.618l-.024-.024a2.1 2.1 0 0 0-.8.466m-.2.23c-.127.152-.12.091-.315.48l.08.078.4-.4zm-.672 8.17.436.436.503-.503c.14-.139.352.073.212.219l-.503.497.406.406c.06.06.06.157 0 .218-.054.054-.151.054-.212 0l-.406-.406-.345.345c.024.121.042.237.066.352l.37.37.655-.649c.06-.06.151-.06.212 0 .06.054.06.151 0 .212l-.649.655.2.2c.097.097.03.26-.109.26-.09 0-.236-.175-.309-.248l-.097.103c.606 1.473 1.915 1.345 2.648.466.843-1 .728-2.23.776-3.497.188-5.575.54-7.23-.92-8.127l-.328.327c.157.158.454.364.303.516-.152.151-.358-.14-.515-.303-.08.078-.491.527-.588.527-.133 0-.206-.164-.11-.26l.48-.48-.297-.296c-.03.084-.552.587-.613.648l.667.667c.14.145-.073.357-.212.218l-.673-.673-.4.4.479.479c.103-.103.188-.2.297-.085.115.11.018.194-.085.297l.327.321c.091.097.025.26-.109.26-.097 0-.357-.296-.43-.369l-.721.727.448.449.091-.091c.14-.14.352.079.212.218l-.09.085c.181.182-.025.406-.213.218l-.648.643c.072.066.582.551.6.642.079-.079.17-.133.26-.042a.16.16 0 0 1 0 .212l-.751.751.394.4.066-.066c.14-.14.352.072.213.218l-.061.06c.079.085.146.17.048.267s-.181.03-.266-.048l-.485.485.358.363c.17-.176.43-.533.587-.376.158.158-.2.413-.375.588l.066.067c.097.097.03.26-.103.26-.079 0-.115-.048-.175-.109zm.127-7.109a8 8 0 0 0-.188.879l.249.248.727-.727-.479-.473c-.103.103-.2.206-.309.073m-.194 7.473c.03.163.055.327.085.49l.206-.205zm.255-5.921-.394.4c-.018.151-.025.303-.037.46l.237.237.642-.643zm-.328-.097.115-.116-.09-.09c-.007.072-.019.139-.025.206m-.181 2.763v.412l.206-.206zm.315-1.14-.297.298c-.006.14-.018.279-.018.418l.418.418.54-.54c-.092-.017-.577-.526-.643-.593m-.212-.211-.061-.06a1 1 0 0 1-.012.126zm-.08 2.357.304.303.49-.49-.4-.394-.405.406q.01.083.012.175m.055.788c.025.273.049.552.085.824l.521-.52-.357-.358c-.079.078-.152.139-.249.054m-.024-.2c.03-.036-.036.024.06-.073l-.066-.06a1 1 0 0 1 .006.133m-.164 3.006c-.557-2.551-.975-7.77.54-10.09.467-.716 1.115-1.158 2.006-1.158 1.079.03 1.89.788 2.236 1.648s.328 1.394.194 4.891c-.145 3.946.043 5.085-1 6.321-.473.564-1.121.891-1.757.873-.928-.024-1.837-.758-2.219-2.485M9.449 8.054l-.328.321.437.437c.054-.31 0-.515-.11-.758m-.497 1.26.224.219c.133-.133.224-.218.321-.479-.06.018-.067.055-.206-.079zm-1.134.207-.272.267c.478.266.957.23 1.393-.061l-.2-.2c-.103.103-.193.212-.309.097-.115-.121-.006-.206.097-.315-.06-.055-.206-.188-.242-.26l-.255.254.352.345c.09.097.024.26-.11.26-.096 0-.381-.32-.454-.387m.394-2.26c-1.242 0-1.854 1.49-.909 2.345.067-.073.23-.237.297-.303l-.079-.085a.146.146 0 0 1 0-.212c.11-.115.194-.018.297.079l.588-.588a.15.15 0 0 1 .212 0c.128.127-.006.224-.14.345.02 0 .031-.012.043 0l.218.188.34-.406-.2-.333c-.043 0-.079.12-.11.09-.03-.03-.042.067-.042.03-.212-.211.037-.393.182-.248.06-.06.327-.333.394-.375a1.35 1.35 0 0 0-1.09-.528m-1.8 2.15a1.98 1.98 0 0 1 .158-1.89c.873-1.31 2.963-1.103 3.497.424.824 2.327-2.618 3.758-3.655 1.467"/><path fill="#1a1a1a" d="m8.37 5.103.103.103.09-.09q-.092-.002-.194-.013m-1.158.127.121.128.194-.194a5 5 0 0 0-.315.066m-1.146.558c-.187.145-.37.303-.527.485l.067.067.509-.504zm-.715.721c-.218.291-.03.03-.175.267l.218-.224zm-.24 3.376-.346-.345q.075.256.194.503zm-.321-1.376-.158-.157q-.008.165-.006.32zm.218.218-.321.316c.06.054.581.575.636.63l.248-.249a.156.156 0 0 1 .219 0c.145.146-.103.316-.249.461l.237.236c.097.097.024.26-.11.26-.09 0-.272-.211-.345-.278l-.218.212c2.303 3.891 7.86 1.037 6.467-2.915a3.4 3.4 0 0 0-1.928-2.018l.182.176c.14.145-.073.357-.218.218l-.2-.206c-.073.073-.212.248-.31.248-.133 0-.2-.163-.102-.26l.2-.2-.17-.17-.085-.018-.248.254c.127.122.278.237.151.364a.146.146 0 0 1-.212 0l-.157-.152c-.091.091-.176.176-.285.073-.11-.109-.019-.194.072-.285l-.284-.284-.43.43.236.236c.097.091.024.255-.11.255-.09 0-.266-.206-.339-.28-.127.128-.242.286-.376.159-.127-.128.03-.243.158-.37l-.23-.237c-.2.08-.382.176-.558.285l.024.03c.103-.012.176.055.164.158l.497.497c.097.097.024.26-.11.26-.096 0-.496-.436-.575-.514l-.503.503.333.333a.153.153 0 0 1 0 .218.15.15 0 0 1-.109.043c-.036 0-.079-.013-.103-.043l-.34-.333-.484.485c.06.054.497.485.545.551.097.067.091.164.03.224l-.478.48.303.302c.06.06.06.152 0 .212a.15.15 0 0 1-.11.049.16.16 0 0 1-.108-.049zm-.097-1.26c-.036.036-.036.042-.103.054a4 4 0 0 0-.121.455l.32.321.365-.37zm-.164-1.158c1.873-2.794 6.28-2.29 7.394.891.915 2.6-1.03 5.57-3.885 5.57-3.024 0-5.539-3.437-3.509-6.46"/><path fill="#1a1a1a" d="M37.048 8.49c.006-.03.019-.06.019-.09l-.055.054zm.049-1.642a4 4 0 0 0-.079-.472l-.394.394c.091.006.23.175.303.242zm-.642 2.164.381.388c.152-.46.097-.327.146-.546l-.182-.187zm.472-1.57-.46.467c-.012.012-.03.024-.043.024a.1.1 0 0 0-.06.018.1.1 0 0 0 .06-.018c.121.006.26.194.376.31.109-.11.188-.231.309-.195q.016-.2.024-.4zm-.69 1.788-.558.564c.072.03.642.612.697.679.133-.255.254-.503.351-.758zm-.667 1.74.303.297c.133-.188.254-.37.37-.564-.086-.012-.23-.176-.31-.255.08.158-.212.364-.363.521m-.806 27.624h1.818c-.067-.606-.267-.903-.57-1.285l-.527.49.309.31c.097.097.018.26-.11.26-.102 0-.326-.242-.411-.32zm.06-26.879.346.351c.188-.181.357-.375.515-.57-.067-.048-.267-.26-.328-.314zm-.8.8.267.26q.354-.236.654-.508l-.339-.34zm-.248 25.66-.382.419h.988c.006 0 .006-.091.03-.115l.649-.68-.473-.472-.594.6c.151.152.406.327.26.479-.151.145-.315-.079-.478-.23m-.467-24.95.073.072c.224-.103.448-.218.654-.346l-.224-.224zm-1.06 24.969.224.248c.03.03.042.152.042.152h.552c-.013 0-.006-.134.03-.17l.467-.479-.534-.545zm-.34.327h.255l-.128-.127zm.66-25.6-.484.485.279.279c.175-.049.339-.103.503-.164-.146-.079-.097-.182.018-.29zm-.969.952c.145-.03.29-.055.43-.091l-.157-.164c-.06.06-.2.206-.273.255m1.188-1.17.309.309.497-.497-.31-.31zm-1.721 21.909c.078.079.133.121.078.23.11.012.225.03.334.043 1.266-.612 1.418-1.764.757-2.649l-.672.673.387.388c.17-.17.394-.485.546-.333.151.157-.164.381-.327.545l.23.236a.148.148 0 0 1-.11.255c-.09 0-.266-.206-.338-.273zm.29 3.103s-.836.879-.842.879h.982c.006 0 .006-.06.018-.073l.303-.345zm-.787-23.964-.25.249c.158 0 .315-.018.473-.03zm-.576 20.225-.449.454c.08.079.17.146.164.236l.782.091.145-.145zm-.77-.794-.466.466.57.564.454-.455c-.06-.06-.515-.503-.558-.575m-.103-9.534-.57.57.534.533zm-.757 1.843.672.672.037-1-.188-.187zm.024 3.703.527.527.037-1.09zm.024 9.14.224.26h1.443l-.297-.334-.2.164a.154.154 0 0 1-.218 0c-.134-.14.066-.279.206-.418l-.437-.437zm-.2.187-.012-.012-.012.012zm.618-12.133c-.03.078-.551.588-.618.648l.77.77.042-1.279c-.079-.006-.127-.073-.194-.14m-.285 7.472-.618.619c.352.03.691.066 1.03.103l.152-.152zm-.903 4.091-.563.57h.715c.03-.085.127-.164.188-.23zm.103-4.89-.709.709.588.581.703-.703zm-1.278 1.284c.26.019.527.043.788.067l-.43-.43zm1.157-5.49-.879.872c.061.067.164.152.188.224.697.08 1.358.17 1.964.273l.006-.097c-.06-.048-.673-.667-.727-.715l-.437.43a.147.147 0 0 1-.212 0 .154.154 0 0 1 0-.218l.43-.43zm-1.151 9.666-.273-.273-.267.273zm-.782-9.418-.546.551a.14.14 0 0 1-.006.128l1.03.09.146-.145zm-.843 5.109-.06-.06-.055.054c.037 0 .08.006.115.006m-.624-26.097c.018-.067.043-.133.06-.2l-.133.127zm.164 29.994-.412.412h.818zM23.8 7.69l.14.14.15-.152a5 5 0 0 1-.29.012m.418 21.43-.557.558q.48.028.963.066l.11-.109zm-1.46 4.952q.792.046 1.575.103l.237-.243-.861-.86-.964.97c0 .005.012.017.012.03m.187 4.448-.066-.073-.067.073zm-.26-30.782-.146.146.255.248c.06-.066.351-.351.418-.418q-.263.007-.527.024m.085 21.515-.352.352q.373.017.746.042zm-.406 8.68-.552.545c.006.012.018.024.018.042h.582c.036-.079.188-.218.255-.285zm-1.255-3.97c0 .024 1.345.078 1.376.078l-.079-.024-.71-.776zm.152-4.643-.225.224.46.018zm-.328 8.667-.527.533h.94l.06-.06zm-1.042-8.485-.055-.055-.048.049q.047.008.103.006m-.406-21.51.109-.108a3 3 0 0 1-.206.012zm-.352 25.886c.437.018.867.042 1.297.06l.006-.006-.678-.679zm.37 4.206-.406.406.024.03h.812zm-1-8.619-.024-.024-.018.024zM17.72 7.981l.243.248.272-.273q-.254.018-.515.025m.267 25.345-.491.491 1.018.036zm-.77-3.885c.267.006.54.006.824.012l.225-.224-.328-.327c-.042-.043-.042-.103-.024-.158zM16.128 8.06l.363.358.388-.388c-.249.012-.497.018-.752.03m.072 25.352-.364.364c.249 0 .491.006.74.012zm.121-4.467-.479.48c.297.005.619.005.964.011-.055-.06-.43-.43-.485-.49m.212 9.14-.436.436h.564c.018-.079.06-.109.133-.182zm-1.418.254-.176.182h.352zm.03-30.242-.466.018.224.224zm-.236 20.848-.479.48h.928c-.061-.062-.413-.4-.449-.48m-.424 4.673-.14.14h.273zM14.23 9.491l.127.133.704-.703-.158-.158c-.212.213-.412-.018-.212-.212l-.382-.381c.024.442-.006.89-.079 1.32m-.14.588a5.4 5.4 0 0 1-.254.745l.219.218.648-.642-.345-.352c-.091.091-.182.134-.267.03m-.442 28.442h.23l-.108-.115zm-.32-9.37-.286.285c.17 0 .364-.006.57-.006zm-.425 9.37h.321l.328-.333-.273-.267-.491.491zm-.127-4.818-.055.06h.115zm-.437-20.6.225.224.69-.685-.315-.315c-.03.043-.06.079-.097.121.03.055.03.121-.018.17zm-.394 16.103-.278.273.527-.019zm-.66 4.594-.085-.085-.085.09c.06 0 .11-.005.17-.005m-.188-19.927q.018.002.036.012l.073-.073c-.036.018-.073.042-.11.06m-.285 24.484-.157.164h.32zM9.885 16.94l.194-.2-.2-.2zm.012.776.14.14.575-.582-.315-.316-.406.4zm0-1.588.4.4.63-.63c-.072-.043-.351-.334-.412-.394zm.012 2.86.17.164.412-.412-.455-.46-.133.133zm.024 1.964.103 8.734q.564-.126 1.164-.17l-.285-.285a.154.154 0 0 1 0-.218c.146-.152.346.133.503.29l.321-.32c-.085-.14.049-.273.188-.194l.697-.691c.06-.06.158-.06.212 0 .06.054.06.151 0 .212l-.678.685.448.448 1.515-1.515c.146-.145.358.073.212.212l-.794.794.48.473 1.448-1.449a.15.15 0 0 1 .103-.048c.115 0 .218.158.109.267l-.582.581c.073.043.442.419.503.48l1.327-1.328c.14-.14.352.079.212.218l-.612.612c.06.049.43.418.485.479l1.06-1.06a.154.154 0 0 1 .219 0c.145.15-.134.345-.297.508.054-.024.115-.018.157.025l.328.327.672-.673a.15.15 0 0 1 .213 0c.06.055.06.152 0 .212l-.673.673c.09.091.164.127.14.243l.539.018.248-.255c-.157-.157-.454-.37-.303-.521a.166.166 0 0 1 .218 0l.303.31 1.085-1.086c.06-.06.152-.06.212 0 .06.055.06.152 0 .212l-1.085 1.085c.073.073.219.188.219.279.12.006.236.012.357.012l.418-.418-.145-.146a.154.154 0 0 1 0-.218c.06-.06.151-.06.212 0l.152.152.727-.733a.153.153 0 0 1 .218 0c.06.06.06.151 0 .212l-.733.733.333.333c.036.037.042.085.03.134.055.006.116.006.176.012l.546-.546-.285-.285a.146.146 0 0 1 0-.212c.06-.06.157-.06.218 0l.279.28.666-.662a.146.146 0 0 1 .212 0 .147.147 0 0 1 0 .213l-.66.666.436.443.576-.576c-.133-.133-.31-.26-.176-.394.133-.127.26.049.394.182l.582-.588c.145-.146.357.073.218.212l-.588.588.515.515.534-.533c-.134-.134-.328-.267-.188-.4.133-.14.267.054.4.188l.618-.612c.14-.146.352.072.212.212l-.612.612.624.624.873-.873-.454-.454c-.055-.06-.055-.158 0-.212a.153.153 0 0 1 .218 0l.454.448.085-.085c.06-.06.158-.06.212 0 .06.06.06.158 0 .218l-.085.085.34.34.794-.794v-.049c-.006 0-.006.006-.012.006a.15.15 0 0 1-.11-.042l-.848-.85-.485.485a.16.16 0 0 1-.109.049.15.15 0 0 1-.11-.049.146.146 0 0 1 0-.212l.492-.49-.115-.116a.146.146 0 0 1 0-.212c.06-.06.151-.06.212 0l.115.115c.067-.067.57-.582.648-.618l-.497-.497-.381.382a.16.16 0 0 1-.11.048.15.15 0 0 1-.108-.048.146.146 0 0 1 0-.212l.381-.382c-.085-.091-.163-.176-.06-.279.06-.06.151-.06.212 0l.066.06.516-.514-.328-.328-.2.194a.15.15 0 0 1-.103.049c-.133 0-.206-.164-.109-.261l.2-.2a.144.144 0 0 1 .006-.206.144.144 0 0 1 .206-.006l.716-.715c.024-.024.054-.03.084-.037l.297-8.678c-3.551-.382-5.72-3.322-5.279-6.103-.054-.049-.157-.158-.218-.213-.066.067-.127.158-.218.158a.15.15 0 0 1-.103-.048.146.146 0 0 1 0-.213l.11-.115-.213-.206-.503.51c-.012.005-.024.005-.03.011.018.049.018.11-.024.152a.16.16 0 0 1-.11.042c-.096 0-.442-.381-.52-.454l-.413.412a.15.15 0 0 1-.109.042.14.14 0 0 1-.103-.042.154.154 0 0 1 0-.218l.412-.412-.121-.116q-.454.021-.91.043l-.2.2.558.551a.154.154 0 0 1 0 .219.14.14 0 0 1-.103.042c-.103 0-.587-.521-.666-.6l-.37.37a.154.154 0 0 1-.218 0c-.158-.158.2-.412.376-.582l-.158-.158a4 4 0 0 1-.26.012l-.346.352.297.29c.097.098.024.261-.11.261-.096 0-.332-.272-.4-.339-.169.17-.417.515-.575.358s.188-.406.358-.576l-.291-.285-.406.018a.16.16 0 0 1-.03.146l-.358.357.454.455c.14.14-.078.357-.218.212l-.454-.455c-.067.073-.328.364-.425.364-.133 0-.2-.164-.103-.26l.316-.316-.43-.43-.619.618c.145.146.376.31.236.455-.145.14-.303-.091-.448-.237-.073.067-.303.334-.4.334-.134 0-.2-.164-.11-.261l.292-.29-.558-.558c-.042 0-.085.006-.127.006l-.473.472.17.164c.14-.079.272.055.188.194l.424.424c.06.06.06.158 0 .212a.146.146 0 0 1-.212 0l-.412-.412-.703.703.345.346c.091-.091.182-.176.285-.067.109.103.024.188-.073.285l.297.29c.097.098.024.261-.109.261-.097 0-.327-.272-.4-.339l-.642.648.309.31c.14.145-.073.357-.218.218l-.31-.315c-.072.072-.248.278-.345.278-.133 0-.2-.163-.103-.26l.23-.23-.14-.14a6 6 0 0 1-.575.964l.346.34c.17-.17.412-.516.57-.359s-.189.407-.358.57l.224.23c.097.098.03.261-.103.261-.097 0-.26-.2-.333-.273l-.691.685.266.267c.097.097.03.26-.103.26-.097 0-.309-.242-.375-.309-.23.225-.449.013-.219-.218l-.218-.224-.776.776.764.757c.097.097.024.26-.109.26-.097 0-.545-.484-.624-.563a.15.15 0 0 1-.037.128l-.618.618.37.375c.048.049.048.116.018.176.018.006.037.006.055.018.06.061.06.158 0 .219l-.661.66.345.352c.146-.012.213.157.116.254l-.722.722.455.454.248-.248c.14-.14.358.072.213.218l-.291.29c-.018.085-.043.11-.121.122l-.461.46c.06.067.345.34.388.419.103-.103.188-.206.303-.091.06.06.06.151 0 .212l-.764.764.194.193a.148.148 0 0 1-.109.255c-.09 0-.224-.164-.297-.236zm.073-.503.485-.479c-.079-.036-.352-.327-.412-.387l-.158.157.006.63zm.455 12.473-.752.752c.073.066.14.115.14.2.339-.019.466-.03.812-.043l.327-.327c-.079-.073-.521-.485-.527-.582m-.158-17.63-.442-.437.012.867zm-.449-.873.013.012.648.649.618-.625a.16.16 0 0 1 .128-.036l-.14-.14c-.127.037-.2-.06-.17-.17-.042-.042-.042-.102-.018-.157a5 5 0 0 1-1.078.4zm-.351 19.473-.006-.006-.006.006zm-.527 4.2-.425.43h.582l.097-.103c-.072-.079-.254-.224-.254-.327m-.673-4.46c.06.066.267.254.297.333l.424-.037.26-.254c-.066-.067-.472-.449-.49-.54zm-.218.211-.194.2c.109-.018.23-.03.351-.042zm-.388 4.382-.297.297h.576c-.055-.06-.23-.23-.28-.297m1.424-7.606c-1.06.485-2.388 2.315-1.994 3.546.073-.019.17-.03.255-.043l.49-.49-.218-.213c-.139-.145.08-.358.219-.218l.212.212.97-.964c.06-.06.151-.06.212 0 .151.152-.146.358-.31.521.098.013.473.419.54.485l1.194-1.194a.16.16 0 0 1 .212 0c.152.152-.133.346-.29.504.096.005.508.448.587.527l.806-.806c.14-.146.358.072.212.212l-.806.806c.097.097.212.176.194.285l.679-.018.279-.28-.437-.436c-.145-.145.073-.357.212-.218l.437.437.72-.716a.146.146 0 0 1 .213 0c.06.061.06.158 0 .219l-.715.715c.067.072.2.175.2.266.242-.006.479-.006.727-.006l.346-.345-.267-.273c-.146-.14.073-.351.212-.212l.267.267.685-.685c.06-.06.157-.06.218 0 .06.06.06.157 0 .212l-.691.69c.121.122.273.213.182.352.182 0 .357.007.54.007l.569-.57-.255-.255c-.145-.14.073-.357.212-.212l.255.255.588-.588c.06-.06.157-.06.218 0a.16.16 0 0 1 0 .212l-.588.588.412.412a.15.15 0 0 1 .006.188c.085.006.164.006.249.012l.69-.697c-.15-.145.067-.358.213-.212l.54-.533a.146.146 0 0 1 .211 0c.06.06.06.151 0 .212l-.533.533.552.557a.15.15 0 0 1 .036.128l1.382-1.382c.06-.06.157-.06.218 0a.166.166 0 0 1 0 .218l-.418.412.678.68.734-.734c.006-.08.054-.128.14-.134l.175-.181a.153.153 0 0 1 .218 0c.121.127-.024.236-.145.357l.782.776 1.206-1.212c.145-.14.357.079.218.218l-.055.048.86.861 1.092-1.085c.14-.145.351.073.212.212L25 33.933c.067.073.242.218.248.31.28.023.546.042.819.066l.539-.54-.521-.52a.166.166 0 0 1 0-.219.166.166 0 0 1 .218 0l.521.521.733-.733a.136.136 0 0 1 .158-.158c.188-.187.37.049.242.188l.588.582 1.116-1.115c.145-.145.357.073.218.212l-.46.46c.072.043.514.498.575.558l.77-.77a.146.146 0 0 1 .212 0c.048.055.072.146 0 .219l-.764.763.636.643.891-.891-.4-.4c-.145.073-.248-.06-.187-.188l-.158-.157-.297-.297a.154.154 0 0 1 0-.219c.055-.054.151-.054.212 0l.443.443.69-.685c-1.472-1.533-9.139-1.788-11.63-1.879-.067.024 0 .03-.09 0-3.45-.121-9.328-.37-11.2.491m-2.685 7.903-.06-.06-.055.06zm-1.085 0-.09-.09-.085.09zm.467-3.267c-1.006.455-2.254 2.128-2.63 3.34h1.557l.303-.34L5 38.17c-.127-.128.024-.407.26-.164l.8-.8a.16.16 0 0 1 .219.006.174.174 0 0 1 0 .224l-.8.818.303.34h.103l1.133-1.164c.06-.06.158-.09.218-.03.06.054.06.163 0 .224l-.648.667.266.309h.116l1.206-1.249c.06-.06.157-.097.218-.036.06.055.06.152 0 .212l-.503.497c.067.049.309.297.37.358l1.018-1.025c.06-.06.157-.06.218 0 .06.061.06.158 0 .212l-.382.382c.103 0 .249.182.327.261l1.025-1.024c.054-.055.151-.055.212.006a.16.16 0 0 1 0 .224L9.655 38.46l.103.14h.466l.37-.412-.188-.224c-.055-.061-.055-.158 0-.213.14-.139.267.055.406.188l.643-.642c.054-.06.151-.055.212.006.06.06.06.164 0 .224l-.643.66.376.413h.848l.11-.152-.54-.575a.147.147 0 0 1 0-.213c.06-.06.158-.06.218 0l.534.54.57-.57c.03-.073-.013-.024.06-.06.109-.11.2-.219.315-.103.06.06.06.157 0 .212l-.024.03.273.273.77-.77c.054-.055.15-.055.211.006a.16.16 0 0 1 0 .224l-.77.788.328.364h.2l.394-.425-.279-.32a.146.146 0 0 1 0-.213.147.147 0 0 1 .212 0l.279.279.667-.66a.146.146 0 0 1 .212 0c.06.06.06.157 0 .218l-.66.678.266.285c.036.037.048.158.042.158h.03l.65-.685-.122-.158a.16.16 0 0 1 0-.212c.06-.06.158-.06.218 0l.121.121.358-.363c.06-.06.157-.06.212 0 .06.06.06.157 0 .212l-.358.364.255.26 1.182-1.176c.06-.06.151-.054.212.007.06.054.06.163 0 .218l-1.176 1.2.176.212h1.242l.025-.067-.57-.606a.147.147 0 0 1 0-.212c.06-.06.157-.06.218 0l.57.57.406-.406-.097-.097a.146.146 0 0 1 0-.213c.06-.06.151-.06.212 0l.097.091.497-.497a.166.166 0 0 1 .218 0 .166.166 0 0 1 0 .219l-.497.497.455.454 1.218-1.224a.166.166 0 0 1 .218 0c.06.06.06.157 0 .218l-.455.455.467.472.552-.551c-.025-.115.054-.188.163-.17l.322-.315c.06-.06.157-.06.218 0 .054.054.054.151 0 .212l-.297.297.303.303.775-.77a.146.146 0 0 1 .213.006c.06.061.06.164 0 .225l-.77.788.279.32h.17l.624-.66-.17-.206a.157.157 0 0 1 0-.212c.06-.06.157-.06.218 0l.17.17.254-.255a.15.15 0 0 1 .213 0c.06.06.06.17 0 .224l-.255.28.624.66h.328c.006 0 .012-.103.036-.127l.4-.43-.31-.31a.154.154 0 0 1 0-.218.16.16 0 0 1 .213 0l.309.309 1-.994c.14-.145.352.073.212.212l-.994 1 .358.358.654-.655c-.182-.182.037-.394.212-.212l.491-.497a.166.166 0 0 1 .219 0 .166.166 0 0 1 0 .218l-.491.491.339.34 1.067-1.073c.145-.14.357.079.218.218l-.14.133.437.437.8-.8c.145-.146.357.072.218.212l-.8.8.333.34c.03-.086.746-.782.812-.85-.133-.139.067-.339.213-.205l.26-.267c.14-.14.352.079.212.218l-.26.26.46.462.788-.782c-.151-.152.06-.37.212-.218.146-.14.291-.352.43-.213.14.14-.072.285-.212.43l.528.528.6-.594-.152-.151c-.14-.14.073-.358.218-.213l.146.146c.14-.14.279-.334.412-.194.133.133-.055.273-.2.412l.473.467c.054-.055.478-.485.545-.54-1.048-1.103-2.788-1.345-4.333-1.54-5.14-.708-21.97-1.981-25.667-.248M3.012 7.23c-1.115 4.643 3.606 8 7.479 6.267 2.09-.934 3.454-3.352 3.182-5.624a.28.28 0 0 1 .066-.23.3.3 0 0 1 .225-.104c4.406-.103 7.987-.46 10.848-.46h.006c.103 0 .2.042.255.127a.3.3 0 0 1 .018.285c-1.188 2.4.376 5.721 3.921 6.394l.14-.146-.091-.09c-.146-.146.072-.358.212-.219l.097.097 1.048-1.054c.06-.055.158-.055.212 0 .06.06.06.157 0 .218l-1.048 1.048.242.243c.03.006.055.006.085.006l.449-.449-.061-.06a.146.146 0 0 1 0-.212.146.146 0 0 1 .212 0l.06.054 1.243-1.242c.145-.14.358.072.218.218l-1.242 1.242.394.394c.066-.006.273-.03.315-.042-.03-.006-.06-.012-.079-.03a.154.154 0 0 1 0-.219l.236-.236c-.145-.146-.381-.31-.236-.449.14-.145.303.091.449.237l.49-.491-.084-.079c-.14-.145.072-.357.218-.218l.079.085 1.139-1.134a.147.147 0 0 1 .212 0c.06.055.06.152 0 .213l-.424.424.315.309.582-.588-.194-.188c-.14-.14.079-.357.218-.212l.188.188.54-.534c-.146-.145-.37-.303-.23-.442.145-.14.296.079.442.224.157-.157.37-.46.527-.345-.091-.091-.394-.376-.406-.467q-.017.01-.024.012c-.134 0-.207-.163-.11-.26l.68-.673c-.195-.194.023-.406.211-.218l.346-.346c-.152-.151-.406-.327-.26-.472.011-.012.023-.019.035-.03a.15.15 0 0 1-.109-.043.166.166 0 0 1 0-.218l.467-.46c-.133-.134-.297-.237-.218-.383-.006 0-.012.006-.018.006a.15.15 0 0 1-.11-.042.146.146 0 0 1 0-.212l.57-.57c-1.242-4.509-6.357-4.654-16.133-4.654-7.188 0-16.424.109-17.794 5.854m6.236 7.243c-4.345.648-7.842-3.158-6.83-7.388C3.848 1.133 12.685.77 20.806.77c10.267 0 12.91.624 14.721 2.054 4.667 3.703 1.612 11.94-5.49 11.782l-.534 15.727c1.073.212 1.921.467 2.412.788 1.443.94 1.83 2.758.473 3.897 3.57.545 4.757 2.14 4.824 3.727.2.649 1.794.455-34.4.455-.09 0-.17-.079-.23-.146a.38.38 0 0 1-.067-.278c.23-1.485 1.6-3.825 4.043-4.443-.503-1.612 1.03-3.879 2.878-4.485z"/></svg>