<svg width="40" height="40" viewBox="0 0 40 40" fill="none" xmlns="http://www.w3.org/2000/svg">
<path d="M36.3633 7.95178C36.3815 7.93965 36.4057 7.93359 36.4239 7.93359C36.4057 7.94571 36.3875 7.95178 36.3633 7.95178Z" fill="#1A1A1A"/>
<path d="M32.1695 7.81755C32.1635 7.763 32.1574 7.70846 32.1453 7.65997L32.0786 7.72664L32.1695 7.81755ZM31.9695 8.71452C32.012 8.64179 32.0483 8.56906 32.0786 8.49028L31.9089 8.65997L31.9695 8.71452ZM29.6908 7.25391C28.7574 8.64179 30.6847 10.0842 31.7817 8.95694L31.6968 8.87209L31.5998 8.96906C31.4604 9.1024 31.2423 8.89634 31.3877 8.75088L31.4847 8.65391C31.4241 8.59937 31.2786 8.46603 31.2423 8.39331L30.9877 8.64785L31.3392 8.99937C31.4301 9.09028 31.3635 9.25391 31.2301 9.25391C31.1332 9.25391 30.8423 8.9327 30.7756 8.86603L30.4786 9.15694C30.418 9.21755 30.3211 9.21755 30.2604 9.15694C30.1089 9.00543 30.3998 8.80543 30.5574 8.64785L30.4726 8.563C30.3332 8.42361 30.5453 8.20543 30.6907 8.35088L30.7756 8.42967L31.3574 7.84179C31.418 7.78725 31.515 7.78118 31.5756 7.84179C31.6362 7.9024 31.6362 7.99331 31.5756 8.05391L31.4301 8.18725C31.4483 8.19937 31.4604 8.18119 31.4726 8.19331L31.6968 8.38725L32.0362 7.99331L31.8362 7.68422C31.7998 7.68422 31.7574 7.78119 31.7271 7.75088C31.6968 7.72058 31.6847 7.79331 31.6847 7.75694C31.4726 7.54482 31.7211 7.363 31.8665 7.50846L32.018 7.35694C31.5271 6.45391 30.2423 6.42361 29.6908 7.25391ZM32.0423 9.53876C30.315 10.9085 27.9392 8.77512 29.1817 6.91452C29.5453 6.37512 30.1635 6.04785 30.8241 6.04785C32.7695 6.04785 33.4544 8.42967 32.0423 9.53876Z" fill="#1A1A1A"/>
<path d="M30.0123 4.57558C29.6789 4.64831 29.3638 4.76952 29.0729 4.93316L29.2062 5.06649L29.3456 4.9271C29.4911 4.78771 29.7032 4.99983 29.5577 5.14528L29.4244 5.27861L29.4971 5.3574L30.1456 4.70892L30.0123 4.57558ZM28.8062 5.09074C28.6183 5.21801 28.4426 5.36952 28.285 5.53316L28.5092 5.76346L28.9941 5.27861L28.8062 5.09074ZM27.7456 6.53316L28.2971 5.97558L28.0789 5.7574C27.8971 5.97558 27.7941 6.12104 27.6426 6.43013L27.7456 6.53316ZM27.7153 8.15134L28.2911 8.7271C28.4183 8.59983 28.5335 8.44831 28.6608 8.57558C28.7941 8.70892 28.6123 8.83619 28.4789 8.96952C28.4789 9.06043 28.4183 9.1271 28.3214 9.1271L28.0183 9.43013L28.5335 9.93922C28.588 9.99983 28.588 10.0968 28.5335 10.1574C28.4729 10.2119 28.3759 10.2119 28.3153 10.1574L27.8062 9.64225L27.7274 9.71498C28.4062 10.9332 29.6123 11.5453 30.782 11.5453C34.8789 11.5453 35.8305 5.64831 31.7638 4.61195L31.6789 4.6968L31.782 4.79983C31.8729 4.8968 31.8062 5.06043 31.6729 5.06043C31.588 5.06043 31.5274 4.98164 31.4608 4.91498C31.3092 5.06649 31.1214 5.33922 30.9699 5.18771C30.8244 5.04225 31.0911 4.85437 31.2486 4.6968L31.0486 4.50286C30.8002 4.48468 31.0244 4.48468 30.7456 4.49074C30.7335 4.57558 30.6426 4.64225 30.5759 4.70892L30.8244 4.96346C30.9214 5.06043 30.8547 5.22407 30.7214 5.22407C30.6244 5.22407 30.4305 4.99983 30.3577 4.9271L29.7153 5.56952C29.8547 5.70892 30.0668 5.86043 29.9274 5.99983C29.788 6.13316 29.6365 5.92104 29.5032 5.78771C29.3335 5.95134 29.085 6.30286 28.9274 6.14528C28.7699 5.98771 29.1153 5.73922 29.285 5.56952L29.2123 5.4968L28.7274 5.97558L29.1638 6.41195C29.2547 6.50892 29.188 6.67255 29.0547 6.67255C28.9577 6.67255 28.588 6.26649 28.5153 6.19377L27.9577 6.74528L28.3517 7.13922C28.4547 7.1271 28.5214 7.19983 28.5153 7.2968L28.6183 7.39983C28.7577 7.54528 28.5456 7.7574 28.4062 7.61801L28.3274 7.53922L27.7153 8.15134ZM27.5335 6.74528L27.5092 6.7271C27.5032 6.74528 27.4971 6.76346 27.4911 6.78164L27.5335 6.74528ZM27.5517 9.39377C27.5577 9.40589 27.5699 9.42407 27.5759 9.43619L27.588 9.43013L27.5517 9.39377ZM27.2789 8.1574L27.285 8.15134L27.2789 8.14528V8.1574ZM27.3699 8.79983C27.4365 8.84225 27.7395 9.15134 27.8062 9.21195L28.0789 8.93922L27.5032 8.36346C27.4426 8.42407 27.388 8.49074 27.3153 8.5271C27.3699 8.90286 27.3274 8.62407 27.3699 8.79983ZM27.5032 7.93922L28.1153 7.3271L27.7456 6.9574C27.582 7.12104 27.4608 7.03619 27.4486 6.90892C27.3517 7.20589 27.2971 7.51498 27.285 7.82407C27.388 7.79983 27.4244 7.85437 27.5032 7.93922ZM26.7517 8.84831C25.7032 3.75134 33.1032 1.89074 34.7577 6.59377C36.0729 10.3271 31.8486 13.6119 28.5517 11.4786C27.6183 10.8726 26.9759 9.93922 26.7517 8.84831Z" fill="#1A1A1A"/>
<path d="M23.3152 14.1578L22.994 14.479L23.2849 14.7699L23.794 14.2608C23.6304 14.1881 23.4728 14.1578 23.3152 14.1578ZM21.8243 15.1032C21.6849 15.3214 21.5819 15.5517 21.5031 15.7881L21.7819 16.0608L22.2789 15.5638L21.8243 15.1032ZM21.2849 17.6002L21.491 17.3941L21.297 17.2002C21.291 17.3335 21.2849 17.4668 21.2849 17.6002ZM21.3819 16.8608L21.7031 17.182L22.0849 16.8002L21.7819 16.4911C21.7152 16.5578 21.4607 16.8244 21.3819 16.8608ZM21.4183 16.1274C21.394 16.2426 21.3698 16.3638 21.3516 16.4911L21.5637 16.2729L21.4183 16.1274ZM21.3516 21.1274L21.1758 20.9517L21.1637 21.3093L21.3516 21.1274ZM21.4001 20.1214L21.2122 19.9275L21.2001 20.3214L21.4001 20.1214ZM21.1213 22.5699L21.3577 22.3274L21.1395 22.1093L21.1213 22.5699ZM21.2425 19.0002L21.497 18.7456L21.2607 18.5153L21.2425 19.0002ZM21.4486 23.5517L21.097 23.2062C21.097 23.3699 21.091 23.5335 21.0849 23.6911L21.2001 23.8002L21.4486 23.5517ZM21.2001 24.2305L21.1031 24.3274C21.188 25.5638 21.8364 26.6426 23.0061 26.6729C23.5819 26.6729 24.2001 26.3153 24.5758 25.7638C25.788 23.982 25.788 15.6668 24.0667 14.4184L23.3395 15.1396C23.2486 15.2365 23.0607 15.1759 23.091 15.0062L22.7819 14.6911C22.7092 14.7638 22.4486 15.0608 22.3455 15.0608C22.2122 15.0608 22.1455 14.8971 22.2425 14.8002L22.5637 14.479L22.5031 14.4184C22.2546 14.5759 22.1334 14.6971 22.0001 14.8547L22.5152 15.3699C22.6304 15.3517 22.7031 15.4305 22.6849 15.5396C22.7819 15.6365 22.8789 15.7274 22.7698 15.8365C22.6667 15.9335 22.5819 15.8668 22.491 15.782L21.994 16.285C22.0728 16.3699 22.4849 16.7759 22.3758 16.7759C22.4364 16.7759 22.4243 16.9093 22.3758 16.9638L21.9213 17.3941C22.0425 17.5153 22.188 17.6244 22.0607 17.7517C22.0001 17.8123 21.9031 17.8123 21.8486 17.7517L21.7031 17.6062L21.2728 18.0426V18.0971L21.7092 18.5335L22.394 17.8426C22.4546 17.782 22.5516 17.782 22.6122 17.8426C22.6728 17.9032 22.6728 18.0002 22.6122 18.0608L21.9213 18.7456L22.0667 18.8911C22.1637 18.9881 22.097 19.1517 21.9637 19.1517C21.8728 19.1517 21.7758 19.0305 21.7092 18.9578L21.2304 19.4426L21.2243 19.5153L21.6183 19.9032L22.0061 19.5153C22.1455 19.3759 22.3577 19.5881 22.2183 19.7274L21.8304 20.1153C21.9274 20.2184 22.0243 20.3032 21.9152 20.4123C21.8546 20.4729 21.7577 20.4729 21.697 20.4123L21.6183 20.3396L21.3031 20.6487L21.5637 20.9093L22.1516 20.3214C22.2061 20.2668 22.3031 20.2668 22.3637 20.3214C22.4243 20.382 22.4243 20.479 22.3637 20.5396L21.7758 21.1274L22.0364 21.382C22.097 21.4426 22.097 21.5396 22.0364 21.6002C22.0061 21.6305 21.9698 21.6426 21.9274 21.6426C21.891 21.6426 21.8546 21.6305 21.8243 21.6002L21.5637 21.3396L21.1819 21.7214L21.5698 22.1153L21.6728 22.0123C21.7334 21.9517 21.8304 21.9517 21.891 22.0123C21.9455 22.0729 21.9455 22.1699 21.891 22.2244L21.788 22.3274L21.8607 22.4002C21.9213 22.4608 21.9213 22.5578 21.8607 22.6184C21.8304 22.6487 21.794 22.6608 21.7516 22.6608C21.6728 22.6608 21.6304 22.6002 21.5698 22.5456L21.2183 22.8971L21.6607 23.3396L21.9758 23.0244C22.1152 22.885 22.3274 23.1032 22.188 23.2426L21.8607 23.5699C21.9092 23.6971 21.8183 23.8123 21.6789 23.7517L21.4122 24.0184C21.5758 24.182 21.9031 24.4123 21.7455 24.5638C21.6849 24.6244 21.594 24.6244 21.5334 24.5638L21.2001 24.2305ZM20.497 23.1456C20.7274 16.4305 20.5395 15.6547 21.5758 14.4184C22.6304 13.1638 24.8667 12.9274 25.5516 16.0365C26.1213 18.6426 26.2061 21.3032 25.8001 23.9335C25.5274 25.7396 24.7092 27.3214 22.897 27.279C21.8607 27.2244 21.0789 26.4123 20.7637 25.6305C20.4425 24.8184 20.4667 23.9274 20.497 23.1456Z" fill="#1A1A1A"/>
<path d="M16.2366 16.012C16.1033 16.012 16.0306 15.8484 16.1275 15.7575C16.2972 15.5878 16.5275 15.2605 16.6851 15.412C16.7397 15.4726 16.7397 15.5696 16.6851 15.6302C16.6124 15.7029 16.3336 16.012 16.2366 16.012Z" fill="#1A1A1A"/>
<path d="M15.8482 14.1699L16.1936 14.5154L16.4482 14.2608C16.1391 14.1457 16.03 14.1639 15.8482 14.1699ZM14.6785 14.6912L14.8542 14.8669C14.9148 14.8002 15.4179 14.279 15.5027 14.2487L15.4785 14.2245C15.1936 14.3093 14.9148 14.473 14.6785 14.6912ZM14.4785 14.9215C14.3512 15.073 14.3573 15.0124 14.1633 15.4002L14.2421 15.479L14.6421 15.079L14.4785 14.9215ZM13.8057 23.0912L14.2421 23.5275L14.7451 23.0245C14.8845 22.8851 15.0966 23.0972 14.9573 23.2427L14.4542 23.7396L14.8603 24.1457C14.9209 24.2063 14.9209 24.3033 14.8603 24.3639C14.8057 24.4184 14.7088 24.4184 14.6482 24.3639L14.2421 23.9578L13.8966 24.3033C13.9209 24.4245 13.9391 24.5396 13.9633 24.6548L14.333 25.0245L14.9876 24.376C15.0482 24.3154 15.1391 24.3154 15.1997 24.376C15.2603 24.4305 15.2603 24.5275 15.1997 24.5881L14.5512 25.2427L14.7512 25.4427C14.8482 25.5396 14.7815 25.7033 14.6421 25.7033C14.5512 25.7033 14.4057 25.5275 14.333 25.4548L14.236 25.5578C14.8421 27.0305 16.1512 26.9033 16.8845 26.0245C17.7269 25.0245 17.6118 23.7942 17.6603 22.5275C17.8482 16.9518 18.1997 15.2972 16.7391 14.4002L16.4118 14.7275C16.5694 14.8851 16.8663 15.0912 16.7148 15.2427C16.5633 15.3942 16.3573 15.1033 16.1997 14.9396C16.1209 15.0184 15.7088 15.4669 15.6118 15.4669C15.4785 15.4669 15.4057 15.3033 15.5027 15.2063L15.9815 14.7275L15.6845 14.4305C15.6542 14.5154 15.133 15.0184 15.0724 15.079L15.7391 15.7457C15.8785 15.8912 15.6663 16.1033 15.5269 15.9639L14.8542 15.2912L14.4542 15.6912L14.933 16.1699C15.036 16.0669 15.1209 15.9699 15.23 16.0851C15.3451 16.1942 15.2482 16.279 15.1451 16.3821L15.4724 16.7033C15.5633 16.8002 15.4966 16.9639 15.3633 16.9639C15.2663 16.9639 15.0057 16.6669 14.933 16.5942L14.2118 17.3215L14.6603 17.7699L14.7512 17.679C14.8906 17.5396 15.1027 17.7578 14.9633 17.8972L14.8724 17.9821C15.0542 18.1639 14.8482 18.3881 14.6603 18.2002L14.0118 18.8427C14.0845 18.9093 14.5936 19.3942 14.6118 19.4851C14.6906 19.4063 14.7815 19.3518 14.8724 19.4427C14.9269 19.5033 14.9269 19.5942 14.8724 19.6548L14.1209 20.4063L14.5148 20.8063L14.5815 20.7396C14.7209 20.6002 14.933 20.8124 14.7936 20.9578L14.733 21.0184C14.8118 21.1033 14.8785 21.1881 14.7815 21.2851C14.6845 21.3821 14.5997 21.3154 14.5148 21.2366L14.03 21.7215L14.3876 22.0851C14.5573 21.9093 14.8179 21.5518 14.9754 21.7093C15.133 21.8669 14.7754 22.1215 14.5997 22.2972L14.6663 22.3639C14.7633 22.4608 14.6966 22.6245 14.5633 22.6245C14.4845 22.6245 14.4482 22.576 14.3876 22.5154L13.8057 23.0912ZM13.933 15.9821C13.8542 16.2487 13.7997 16.5457 13.7451 16.8608L13.9936 17.1093L14.7209 16.3821L14.2421 15.9093C14.1391 16.0124 14.0421 16.1154 13.933 15.9821ZM13.7391 23.4548C13.7694 23.6184 13.7936 23.7821 13.8239 23.9457L14.03 23.7396L13.7391 23.4548ZM13.9936 17.5336L13.5997 17.9336C13.5815 18.0851 13.5754 18.2366 13.5633 18.3942L13.7997 18.6305L14.4421 17.9881L13.9936 17.5336ZM13.6663 17.4366L13.7815 17.3215L13.6906 17.2305C13.6845 17.3033 13.6724 17.3699 13.6663 17.4366ZM13.4845 20.2002V20.6124L13.6906 20.4063L13.4845 20.2002ZM13.7997 19.0608L13.5027 19.3578C13.4966 19.4972 13.4845 19.6366 13.4845 19.776L13.9027 20.1942L14.4421 19.6548C14.3512 19.6366 13.8663 19.1275 13.7997 19.0608ZM13.5876 18.8487L13.5269 18.7881C13.5269 18.8305 13.5209 18.873 13.5148 18.9154L13.5876 18.8487ZM13.5088 21.2063L13.8118 21.5093L14.3027 21.0184L13.9027 20.6245L13.4966 21.0305C13.5027 21.0851 13.5088 21.1457 13.5088 21.2063ZM13.5633 21.9942C13.5876 22.2669 13.6118 22.5457 13.6482 22.8184L14.1694 22.2972L13.8118 21.9396C13.733 22.0184 13.6603 22.079 13.5633 21.9942ZM13.5391 21.7942C13.5694 21.7578 13.5027 21.8184 13.5997 21.7215L13.533 21.6608C13.5391 21.7033 13.5391 21.7457 13.5391 21.7942ZM13.3754 24.8002C12.8179 22.2487 12.3997 17.0305 13.9148 14.7093C14.3815 13.9942 15.03 13.5518 15.9209 13.5518C16.9997 13.5821 17.8118 14.3396 18.1573 15.2002C18.5027 16.0608 18.4845 16.5942 18.3512 20.0912C18.2057 24.0366 18.3936 25.176 17.3512 26.4124C16.8785 26.976 16.23 27.3033 15.5936 27.2851C14.6663 27.2608 13.7573 26.5275 13.3754 24.8002Z" fill="#1A1A1A"/>
<path d="M9.44858 8.0542L9.12131 8.37541C9.58191 8.83601 9.55767 8.81177 9.55767 8.81177C9.61222 8.50268 9.55767 8.29662 9.44858 8.0542ZM8.95161 9.3148L9.17585 9.53298C9.30919 9.39965 9.4001 9.3148 9.49707 9.0542C9.43646 9.07238 9.4304 9.10874 9.29101 8.97541L8.95161 9.3148ZM7.81828 9.52086L7.54555 9.78753C8.02434 10.0542 8.50313 10.0178 8.93949 9.72692L8.73949 9.52692C8.63646 9.62995 8.54555 9.73905 8.4304 9.62389C8.31525 9.50268 8.42434 9.41783 8.52737 9.30874C8.46676 9.2542 8.32131 9.12086 8.28494 9.04814L8.0304 9.30268L8.38191 9.64814C8.47282 9.74511 8.40616 9.90874 8.27282 9.90874C8.17585 9.90874 7.89101 9.58753 7.81828 9.52086ZM8.21222 7.26026C6.96979 7.26026 6.35767 8.75117 7.30313 9.60571C7.36979 9.53299 7.53343 9.36935 7.6001 9.30268L7.52131 9.21783C7.4607 9.15723 7.4607 9.06026 7.52131 9.00571C7.6304 8.89056 7.71525 8.98753 7.81828 9.0845L8.40616 8.49662C8.4607 8.44208 8.55767 8.43602 8.61828 8.49662C8.74555 8.62389 8.61222 8.72086 8.47888 8.84208C8.49707 8.84208 8.50919 8.82995 8.52131 8.84208L8.73949 9.02995L9.07888 8.62389L8.87888 8.29056C8.83646 8.29056 8.8001 8.41177 8.76979 8.38147C8.73949 8.35117 8.72737 8.44814 8.72737 8.41177C8.51525 8.19965 8.76373 8.01783 8.90919 8.16329C8.96979 8.10268 9.23646 7.82995 9.30313 7.78753C9.05464 7.46026 8.6607 7.26026 8.21222 7.26026ZM6.41222 9.41177C6.13949 8.81177 6.2001 8.06632 6.56979 7.52086C7.44252 6.21177 9.53343 6.41783 10.0668 7.94511C10.891 10.2724 7.44858 11.7027 6.41222 9.41177Z" fill="#1A1A1A"/>
<path d="M8.3695 5.10315L8.47253 5.20618L8.56344 5.11528C8.50284 5.11528 8.43617 5.10922 8.3695 5.10315ZM7.21193 5.23043L7.33314 5.3577L7.52708 5.16376C7.41799 5.18194 7.31496 5.20618 7.21193 5.23043ZM6.06647 5.788C5.8786 5.93346 5.69678 6.09103 5.5392 6.27285L5.60587 6.33952L6.11496 5.83649L6.06647 5.788ZM5.35132 6.50922C5.13314 6.80012 5.32102 6.53952 5.17557 6.77588L5.39375 6.55164L5.35132 6.50922ZM5.1089 9.88497L4.76344 9.53952C4.81193 9.70922 4.8786 9.87891 4.95738 10.0425L5.1089 9.88497ZM4.78769 8.50922L4.63011 8.35164C4.62405 8.46073 4.62405 8.56982 4.62405 8.67285L4.78769 8.50922ZM5.00587 8.7274L4.68466 9.04255C4.74526 9.09709 5.26647 9.61831 5.32102 9.67285L5.5695 9.42437C5.63011 9.36376 5.72708 9.36376 5.78769 9.42437C5.93314 9.56982 5.68466 9.73952 5.5392 9.88497L5.77557 10.1213C5.87253 10.2183 5.79981 10.3819 5.66647 10.3819C5.57557 10.3819 5.39375 10.1698 5.32102 10.1032L5.10284 10.3153C7.40587 14.2062 12.9634 11.3516 11.5695 7.40012C11.2362 6.46073 10.5331 5.75164 9.64223 5.38194L9.82405 5.5577C9.96344 5.70315 9.75132 5.91528 9.60587 5.77588L9.40587 5.56982C9.33314 5.64255 9.19375 5.81831 9.09678 5.81831C8.96344 5.81831 8.89678 5.65467 8.99375 5.5577L9.19375 5.3577L9.02405 5.188C8.99375 5.18194 8.9695 5.17588 8.9392 5.16982L8.69072 5.42437C8.81799 5.54558 8.9695 5.66073 8.84223 5.788C8.78163 5.84861 8.68466 5.84861 8.63011 5.788L8.47253 5.63649C8.38163 5.7274 8.29678 5.81225 8.18769 5.70922C8.0786 5.60012 8.1695 5.51528 8.26041 5.42437L7.97556 5.13952L7.54526 5.56982L7.78163 5.80618C7.8786 5.89709 7.80587 6.06073 7.67253 6.06073C7.58163 6.06073 7.40587 5.85467 7.33314 5.78194C7.20587 5.90922 7.09072 6.06679 6.95738 5.93952C6.83011 5.81225 6.98769 5.69709 7.11496 5.56982L6.88466 5.33346C6.68466 5.41225 6.50284 5.50922 6.32708 5.61831L6.35132 5.64861C6.45435 5.63649 6.52708 5.70315 6.51496 5.80618L7.01193 6.30315C7.1089 6.40012 7.03617 6.56376 6.90284 6.56376C6.80587 6.56376 6.40587 6.1274 6.32708 6.04861L5.82405 6.55164L6.15738 6.88497C6.21799 6.94558 6.21799 7.04255 6.15738 7.10315C6.12708 7.13346 6.09072 7.14558 6.04829 7.14558C6.01193 7.14558 5.9695 7.13346 5.94526 7.10315L5.60587 6.76982L5.12102 7.25467C5.18163 7.30922 5.61799 7.73952 5.66647 7.80619C5.76344 7.87285 5.75738 7.96982 5.69678 8.03043L5.21799 8.50922L5.52102 8.81225C5.58163 8.87285 5.58163 8.96376 5.52102 9.02437C5.49072 9.05467 5.45435 9.07285 5.41193 9.07285C5.37557 9.07285 5.33314 9.05467 5.30284 9.02437L5.00587 8.7274ZM4.9089 7.46679C4.87253 7.50315 4.87253 7.50922 4.80587 7.52134C4.75738 7.67285 4.71496 7.82437 4.68466 7.97588L5.00587 8.29709L5.3695 7.9274L4.9089 7.46679ZM4.74526 6.30922C6.61799 3.51528 11.0241 4.01831 12.1392 7.20012C13.0544 9.80012 11.1089 12.7698 8.25435 12.7698C5.23011 12.7698 2.71496 9.33346 4.74526 6.30922Z" fill="#1A1A1A"/>
<path d="M37.0484 8.49074C37.0545 8.46044 37.0666 8.43014 37.0666 8.39984L37.0121 8.45438L37.0484 8.49074ZM37.0969 6.84832C37.0787 6.69074 37.0545 6.53317 37.0181 6.37559L36.6242 6.76953C36.7151 6.77559 36.8545 6.94529 36.9272 7.01196L37.0969 6.84832ZM36.4545 9.01196L36.8363 9.39984C36.9878 8.93923 36.9333 9.07256 36.9818 8.85438L36.8 8.6665L36.4545 9.01196ZM36.9272 7.44226L36.4666 7.90893C36.4545 7.92105 36.4363 7.93317 36.4242 7.93317C36.406 7.93317 36.3818 7.93923 36.3636 7.95135C36.3878 7.95135 36.406 7.94529 36.4242 7.93317C36.5454 7.93923 36.6848 8.12711 36.8 8.24226C36.909 8.13317 36.9878 8.01196 37.109 8.04832C37.1212 7.91499 37.1272 7.78165 37.1333 7.64832L36.9272 7.44226ZM36.2363 9.23014L35.6787 9.79377C35.7515 9.82408 36.3212 10.4059 36.3757 10.4726C36.509 10.218 36.6303 9.96953 36.7272 9.71499L36.2363 9.23014ZM35.5697 10.9695L35.8727 11.2665C36.006 11.0786 36.1272 10.8968 36.2424 10.7029C36.1575 10.6907 36.0121 10.5271 35.9333 10.4483C36.0121 10.6059 35.7212 10.812 35.5697 10.9695ZM34.7636 38.5938H36.5818C36.5151 37.9877 36.3151 37.6908 36.0121 37.3089L35.4848 37.7998L35.7939 38.1089C35.8909 38.2059 35.8121 38.3695 35.6848 38.3695C35.5818 38.3695 35.3575 38.1271 35.2727 38.0483L34.7636 38.5938ZM34.8242 11.715L35.1697 12.0665C35.3575 11.8847 35.5272 11.6907 35.6848 11.4968C35.6181 11.4483 35.4181 11.2362 35.3575 11.1817L34.8242 11.715ZM34.0242 12.515L34.2909 12.7756C34.5272 12.618 34.7454 12.4483 34.9454 12.2665L34.606 11.9271L34.0242 12.515ZM33.7757 38.1756L33.3939 38.5938H34.3818C34.3878 38.5938 34.3878 38.5029 34.4121 38.4786L35.0606 37.7998L34.5878 37.3271L33.9939 37.9271C34.1454 38.0786 34.4 38.2544 34.2545 38.4059C34.103 38.5514 33.9394 38.3271 33.7757 38.1756ZM33.309 13.2241L33.3818 13.2968C33.606 13.1938 33.8303 13.0786 34.0363 12.9514L33.8121 12.7271L33.309 13.2241ZM32.2484 38.1938L32.4727 38.4423C32.503 38.4726 32.5151 38.5938 32.5151 38.5938H33.0666C33.0545 38.5938 33.0606 38.4604 33.0969 38.4241L33.5636 37.9453L33.0303 37.3998L32.2484 38.1938ZM31.909 38.5211H32.1636L32.0363 38.3938L31.909 38.5211ZM32.5697 12.921L32.0848 13.4059L32.3636 13.6847C32.5394 13.6362 32.703 13.5817 32.8666 13.521C32.7212 13.4423 32.7697 13.3392 32.8848 13.2301L32.5697 12.921ZM31.6 13.8726C31.7454 13.8423 31.8909 13.818 32.0303 13.7817L31.8727 13.618C31.8121 13.6786 31.6727 13.8241 31.6 13.8726ZM32.7878 12.7029L33.0969 13.012L33.5939 12.515L33.2848 12.2059L32.7878 12.7029ZM31.0666 34.612C31.1454 34.6907 31.2 34.7332 31.1454 34.8423C31.2545 34.8544 31.3697 34.8726 31.4787 34.8847C32.7454 34.2726 32.8969 33.121 32.2363 32.2362L31.5636 32.9089L31.9515 33.2968C32.1212 33.1271 32.3454 32.812 32.4969 32.9635C32.6484 33.1211 32.3333 33.3453 32.1697 33.5089L32.4 33.7453C32.4969 33.8423 32.4303 33.9998 32.2909 33.9998C32.2 33.9998 32.0242 33.7938 31.9515 33.7271L31.0666 34.612ZM31.3575 37.715C31.3575 37.715 30.5212 38.5938 30.5151 38.5938H31.4969C31.503 38.5938 31.503 38.5332 31.5151 38.5211L31.8181 38.1756L31.3575 37.715ZM30.5697 13.7514L30.3212 13.9998C30.4787 13.9998 30.6363 13.9817 30.7939 13.9695L30.5697 13.7514ZM29.9939 33.9756L29.5454 34.4301C29.6242 34.5089 29.7151 34.5756 29.709 34.6665C29.9757 34.6968 30.2363 34.7271 30.4909 34.7574L30.6363 34.612L29.9939 33.9756ZM29.2242 33.1817L28.7575 33.6483L29.3272 34.212L29.7818 33.7574C29.7212 33.6968 29.2666 33.2544 29.2242 33.1817ZM29.1212 23.6483L28.5515 24.218L29.0848 24.7514L29.1212 23.6483ZM28.3636 25.4907L29.0363 26.1635L29.0727 25.1635L28.8848 24.9756L28.3636 25.4907ZM28.3878 29.1938L28.9151 29.7211L28.9515 28.6301L28.3878 29.1938ZM28.4121 38.3332L28.6363 38.5938H30.0787L29.7818 38.2604L29.5818 38.4241C29.5212 38.4847 29.4242 38.4847 29.3636 38.4241C29.2303 38.2847 29.4303 38.1453 29.5697 38.0059L29.1333 37.5695L28.4121 38.3332ZM28.2121 38.5211L28.2 38.5089L28.1878 38.5211H28.2121ZM28.8303 26.3877C28.8 26.4665 28.2787 26.9756 28.2121 27.0362L28.9818 27.8059L29.0242 26.5271C28.9454 26.521 28.8969 26.4544 28.8303 26.3877ZM28.5454 33.8604L27.9272 34.4786C28.2787 34.5089 28.6181 34.5453 28.9575 34.5817L29.109 34.4301L28.5454 33.8604ZM27.6424 37.9514L27.0787 38.5211H27.7939C27.8242 38.4362 27.9212 38.3574 27.9818 38.2907L27.6424 37.9514ZM27.7454 33.0604L27.0363 33.7695L27.6242 34.3514L28.3272 33.6483L27.7454 33.0604ZM26.4666 34.3453C26.7272 34.3635 26.9939 34.3877 27.2545 34.412L26.8242 33.9817L26.4666 34.3453ZM27.6242 28.8544L26.7454 29.7271C26.806 29.7938 26.909 29.8786 26.9333 29.9514C27.6303 30.0301 28.2909 30.121 28.8969 30.2241L28.903 30.1271C28.8424 30.0786 28.2303 29.4604 28.1757 29.412L27.7394 29.8423C27.6787 29.9029 27.5818 29.9029 27.5272 29.8423C27.4666 29.7817 27.4666 29.6847 27.5272 29.6241L27.9575 29.1938L27.6242 28.8544ZM26.4727 38.5211L26.2 38.2483L25.9333 38.5211H26.4727ZM25.6909 29.1029L25.1454 29.6544C25.1636 29.6968 25.1636 29.7392 25.1394 29.7817C25.4909 29.812 25.8303 29.8423 26.1697 29.8726L26.3151 29.7271L25.6909 29.1029ZM24.8484 34.212L24.7878 34.1514L24.7333 34.2059C24.7697 34.2059 24.8121 34.212 24.8484 34.212ZM24.2242 8.11499C24.2424 8.04832 24.2666 7.98165 24.2848 7.91499L24.1515 8.04226L24.2242 8.11499ZM24.3878 38.1089L23.9757 38.5211H24.7939L24.3878 38.1089ZM23.8 7.69074L23.9394 7.83014L24.0909 7.67862C23.9939 7.68468 23.8969 7.69074 23.8 7.69074ZM24.2181 29.121L23.6606 29.6786C23.9818 29.6968 24.303 29.7211 24.6242 29.7453L24.7333 29.6362L24.2181 29.121ZM22.7575 34.0726C23.2848 34.1029 23.8121 34.1392 24.3333 34.1756L24.5697 33.9332L23.709 33.0726L22.7454 34.0423C22.7454 34.0483 22.7575 34.0604 22.7575 34.0726ZM22.9454 38.5211L22.8787 38.4483L22.8121 38.5211H22.9454ZM22.6848 7.73923L22.5394 7.88468L22.7939 8.13317C22.8545 8.0665 23.1454 7.78165 23.2121 7.71499C23.0363 7.72105 22.8606 7.72711 22.6848 7.73923ZM22.7697 29.2544L22.4181 29.6059C22.6666 29.618 22.9151 29.6301 23.1636 29.6483L22.7697 29.2544ZM22.3636 37.9332L21.8121 38.4786C21.8181 38.4907 21.8303 38.5029 21.8303 38.5211H22.4121C22.4484 38.4423 22.6 38.3029 22.6666 38.2362L22.3636 37.9332ZM21.109 33.9635C21.109 33.9877 22.4545 34.0423 22.4848 34.0423L22.406 34.018L21.6969 33.2423L21.109 33.9635ZM21.2606 29.3211L21.0363 29.5453C21.1878 29.5514 21.3454 29.5574 21.4969 29.5635L21.2606 29.3211ZM20.9333 37.9877L20.406 38.5211H21.3454L21.406 38.4604L20.9333 37.9877ZM19.8909 29.5029L19.8363 29.4483L19.7878 29.4968C19.8181 29.5029 19.8545 29.5029 19.8909 29.5029ZM19.4848 7.99377L19.5939 7.88468C19.5575 7.89074 19.406 7.8968 19.3878 7.8968L19.4848 7.99377ZM19.1333 33.8786C19.5697 33.8968 20 33.9211 20.4303 33.9392L20.4363 33.9332L19.7575 33.2544L19.1333 33.8786ZM19.503 38.0847L19.0969 38.4907L19.1212 38.5211H19.9333L19.503 38.0847ZM18.503 29.4665L18.4787 29.4423L18.4606 29.4665H18.503ZM17.7212 7.98165L17.9636 8.23014L18.2363 7.95741C18.0666 7.96953 17.8969 7.97559 17.7212 7.98165ZM17.9878 33.3271L17.4969 33.818C17.8363 33.8301 18.1757 33.8423 18.5151 33.8544L17.9878 33.3271ZM17.2181 29.4423C17.4848 29.4483 17.7575 29.4483 18.0424 29.4544L18.2666 29.2301L17.9394 28.9029C17.8969 28.8604 17.8969 28.7998 17.9151 28.7453L17.2181 29.4423ZM16.1272 8.06044L16.4909 8.41802L16.8787 8.03014C16.6303 8.04226 16.3818 8.04832 16.1272 8.06044ZM16.2 33.412L15.8363 33.7756C16.0848 33.7756 16.3272 33.7817 16.5757 33.7877L16.2 33.412ZM16.3212 28.9453L15.8424 29.4241C16.1394 29.4301 16.4606 29.4301 16.806 29.4362C16.7515 29.3756 16.3757 29.0059 16.3212 28.9453ZM16.5333 38.0847L16.0969 38.5211H16.6606C16.6787 38.4423 16.7212 38.412 16.7939 38.3392L16.5333 38.0847ZM15.1151 38.3392L14.9394 38.5211H15.2909L15.1151 38.3392ZM15.1454 8.09681C14.9878 8.10287 14.8363 8.10893 14.6787 8.11499L14.903 8.33923L15.1454 8.09681ZM14.909 28.9453L14.4303 29.4241H15.3575C15.2969 29.3635 14.9454 29.0241 14.909 28.9453ZM14.4848 33.618L14.3454 33.7574H14.6181L14.4848 33.618ZM14.2303 9.49074L14.3575 9.62408L15.0606 8.92105L14.903 8.76347C14.6909 8.97559 14.4909 8.74529 14.6909 8.55135L14.309 8.16953C14.3333 8.61196 14.303 9.06044 14.2303 9.49074ZM14.0909 10.0786C14.0242 10.3332 13.9394 10.5817 13.8363 10.8241L14.0545 11.0423L14.703 10.3998L14.3575 10.0483C14.2666 10.1392 14.1757 10.1817 14.0909 10.0786ZM13.6484 38.5211H13.8787L13.7697 38.4059L13.6484 38.5211ZM13.3272 29.1514L13.0424 29.4362C13.2121 29.4362 13.406 29.4301 13.6121 29.4301L13.3272 29.1514ZM12.903 38.5211H13.2242L13.5515 38.1877L13.2787 37.9211L12.7878 38.412L12.903 38.5211ZM12.7757 33.7029L12.7212 33.7635H12.8363L12.7757 33.7029ZM12.3394 13.1029L12.5636 13.3271L13.2545 12.6423L12.9394 12.3271C12.909 12.3695 12.8787 12.4059 12.8424 12.4483C12.8727 12.5029 12.8727 12.5695 12.8242 12.618L12.3394 13.1029ZM11.9454 29.2059L11.6666 29.4786C11.8424 29.4726 12.0181 29.4665 12.1939 29.4604L11.9454 29.2059ZM11.2848 33.7998L11.2 33.715L11.1151 33.8059C11.1757 33.8059 11.2242 33.7998 11.2848 33.7998ZM11.0969 13.8726C11.109 13.8726 11.1212 13.8786 11.1333 13.8847L11.206 13.812C11.1697 13.8301 11.1333 13.8544 11.0969 13.8726ZM10.8121 38.3574L10.6545 38.5211H10.9757L10.8121 38.3574ZM9.88481 16.9392L10.0787 16.7392L9.87875 16.5392L9.88481 16.9392ZM9.89693 17.715L10.0363 17.8544L10.6121 17.2726L10.2969 16.9574L9.89087 17.3574L9.89693 17.715ZM9.89693 16.1271L10.2969 16.5271L10.9272 15.8968C10.8545 15.8544 10.5757 15.5635 10.5151 15.5029L9.89693 16.1271ZM9.90905 18.9877L10.0787 19.1514L10.4909 18.7392L10.0363 18.2786L9.90299 18.412L9.90905 18.9877ZM9.93329 20.9514L10.0363 29.6847C10.4121 29.5998 10.8 29.5453 11.2 29.515L10.9151 29.2301C10.8545 29.1695 10.8545 29.0726 10.9151 29.012C11.0606 28.8604 11.2606 29.1453 11.4181 29.3029L11.7394 28.9817C11.6545 28.8423 11.7878 28.7089 11.9272 28.7877L12.6242 28.0968C12.6848 28.0362 12.7818 28.0362 12.8363 28.0968C12.8969 28.1514 12.8969 28.2483 12.8363 28.3089L12.1575 28.9938L12.606 29.4423L14.1212 27.9271C14.2666 27.7817 14.4787 27.9998 14.3333 28.1392L13.5394 28.9332L14.0181 29.4059L15.4666 27.9574C15.4969 27.9271 15.5333 27.9089 15.5697 27.9089C15.6848 27.9089 15.7878 28.0665 15.6787 28.1756L15.0969 28.7574C15.1697 28.7998 15.5394 29.1756 15.6 29.2362L16.9272 27.9089C17.0666 27.7695 17.2787 27.9877 17.1394 28.1271L16.5272 28.7392C16.5878 28.7877 16.9575 29.1574 17.0121 29.218L18.0727 28.1574C18.1333 28.0968 18.2303 28.0968 18.2909 28.1574C18.4363 28.3089 18.1575 28.5029 17.9939 28.6665C18.0484 28.6423 18.109 28.6483 18.1515 28.6907L18.4787 29.018L19.1515 28.3453C19.2121 28.2847 19.309 28.2847 19.3636 28.3453C19.4242 28.3998 19.4242 28.4968 19.3636 28.5574L18.6909 29.2301C18.7818 29.321 18.8545 29.3574 18.8303 29.4726C19.006 29.4786 19.1878 29.4847 19.3697 29.4907L19.6181 29.2362C19.4606 29.0786 19.1636 28.8665 19.3151 28.715C19.3757 28.6604 19.4727 28.6604 19.5333 28.715L19.8363 29.0241L20.9212 27.9392C20.9818 27.8786 21.0727 27.8786 21.1333 27.9392C21.1939 27.9938 21.1939 28.0907 21.1333 28.1514L20.0484 29.2362C20.1212 29.3089 20.2666 29.4241 20.2666 29.515C20.3878 29.521 20.503 29.5271 20.6242 29.5271L21.0424 29.1089L20.8969 28.9635C20.8363 28.9029 20.8363 28.8059 20.8969 28.7453C20.9575 28.6847 21.0484 28.6847 21.109 28.7453L21.2606 28.8968L21.9878 28.1635C22.0484 28.1029 22.1454 28.1029 22.206 28.1635C22.2666 28.2241 22.2666 28.315 22.206 28.3756L21.4727 29.1089L21.806 29.4423C21.8424 29.4786 21.8484 29.5271 21.8363 29.5756C21.8909 29.5817 21.9515 29.5817 22.0121 29.5877L22.5575 29.0423L22.2727 28.7574C22.2121 28.7029 22.2121 28.6059 22.2727 28.5453C22.3333 28.4847 22.4303 28.4847 22.4909 28.5453L22.7697 28.8241L23.4363 28.1635C23.4909 28.1029 23.5878 28.1029 23.6484 28.1635C23.709 28.2241 23.709 28.321 23.6484 28.3756L22.9878 29.0423L23.4242 29.4847L24 28.9089C23.8666 28.7756 23.6909 28.6483 23.8242 28.515C23.9575 28.3877 24.0848 28.5635 24.2181 28.6968L24.8 28.1089C24.9454 27.9635 25.1575 28.1817 25.0181 28.321L24.4303 28.9089L24.9454 29.4241L25.4787 28.8907C25.3454 28.7574 25.1515 28.6241 25.2909 28.4907C25.4242 28.3514 25.5575 28.5453 25.6909 28.6786L26.309 28.0665C26.4484 27.9211 26.6606 28.1392 26.5212 28.2786L25.909 28.8907L26.5333 29.515L27.406 28.6423L26.9515 28.1877C26.8969 28.1271 26.8969 28.0301 26.9515 27.9756C27.0121 27.915 27.109 27.915 27.1697 27.9756L27.6242 28.4241L27.709 28.3392C27.7697 28.2786 27.8666 28.2786 27.9212 28.3392C27.9818 28.3998 27.9818 28.4968 27.9212 28.5574L27.8363 28.6423L28.1757 28.9817L28.9697 28.1877V28.1392C28.9636 28.1392 28.9636 28.1453 28.9575 28.1453C28.9151 28.1453 28.8787 28.1332 28.8484 28.1029L28 27.2544L27.5151 27.7392C27.4848 27.7695 27.4424 27.7877 27.406 27.7877C27.3636 27.7877 27.3272 27.7695 27.2969 27.7392C27.2363 27.6786 27.2363 27.5877 27.2969 27.5271L27.7878 27.0362L27.6727 26.921C27.6121 26.8665 27.6121 26.7695 27.6727 26.7089C27.7333 26.6483 27.8242 26.6483 27.8848 26.7089L28 26.8241C28.0666 26.7574 28.5697 26.2423 28.6484 26.2059L28.1515 25.7089L27.7697 26.0907C27.7394 26.121 27.6969 26.1392 27.6606 26.1392C27.6181 26.1392 27.5818 26.121 27.5515 26.0907C27.4909 26.0301 27.4909 25.9392 27.5515 25.8786L27.9333 25.4968C27.8484 25.4059 27.7697 25.321 27.8727 25.218C27.9333 25.1574 28.0242 25.1574 28.0848 25.218L28.1515 25.2786L28.6666 24.7635L28.3393 24.4362L28.1394 24.6301C28.109 24.6604 28.0727 24.6786 28.0363 24.6786C27.903 24.6786 27.8303 24.515 27.9272 24.418L28.1272 24.218C28.0727 24.1574 28.0727 24.0665 28.1333 24.012C28.1878 23.9514 28.2787 23.9514 28.3393 24.0059L29.0545 23.2907C29.0787 23.2665 29.1091 23.2604 29.1394 23.2544L29.4363 14.5756C25.8848 14.1938 23.7151 11.2544 24.1575 8.47256C24.103 8.42408 24 8.31499 23.9394 8.26044C23.8727 8.32711 23.8121 8.41802 23.7212 8.41802C23.6848 8.41802 23.6484 8.39984 23.6181 8.36953C23.5575 8.30893 23.5575 8.21802 23.6181 8.15741L23.7272 8.04226L23.5151 7.8362L23.0121 8.34529C23 8.35135 22.9878 8.35135 22.9818 8.35741C23 8.4059 23 8.4665 22.9575 8.50893C22.9272 8.53923 22.8848 8.55135 22.8484 8.55135C22.7515 8.55135 22.406 8.16953 22.3272 8.09681L21.9151 8.50893C21.8848 8.53923 21.8484 8.55135 21.806 8.55135C21.7697 8.55135 21.7333 8.53923 21.703 8.50893C21.6424 8.44832 21.6424 8.35135 21.703 8.29074L22.1151 7.87862L21.9939 7.76347C21.6909 7.77559 21.3878 7.79378 21.0848 7.8059L20.8848 8.0059L21.4424 8.55741C21.503 8.61802 21.503 8.71499 21.4424 8.77559C21.4121 8.8059 21.3757 8.81802 21.3394 8.81802C21.2363 8.81802 20.7515 8.29681 20.6727 8.21802L20.303 8.58771C20.2424 8.64832 20.1454 8.64832 20.0848 8.58771C19.9272 8.43014 20.2848 8.17559 20.4606 8.0059L20.303 7.84832C20.2181 7.85438 20.1272 7.86044 20.0424 7.86044L19.6969 8.21196L19.9939 8.50287C20.0909 8.59984 20.0181 8.76347 19.8848 8.76347C19.7878 8.76347 19.5515 8.49074 19.4848 8.42408C19.3151 8.59377 19.0666 8.93923 18.909 8.78165C18.7515 8.62408 19.0969 8.37559 19.2666 8.2059L18.9757 7.92105C18.8424 7.92711 18.703 7.93317 18.5697 7.93923C18.5818 7.98771 18.5757 8.04226 18.5394 8.08468L18.1818 8.44226L18.6363 8.8968C18.7757 9.0362 18.5575 9.25438 18.4181 9.10893L17.9636 8.65438C17.8969 8.72711 17.6363 9.01802 17.5394 9.01802C17.406 9.01802 17.3394 8.85438 17.4363 8.75741L17.7515 8.44226L17.3212 8.01196L16.703 8.63014C16.8484 8.77559 17.0787 8.93923 16.9394 9.08468C16.7939 9.22408 16.6363 8.99377 16.4909 8.84832C16.4181 8.91499 16.1878 9.18165 16.0909 9.18165C15.9575 9.18165 15.8909 9.01802 15.9818 8.92105L16.2727 8.63014L15.7151 8.07256C15.6727 8.07256 15.6303 8.07862 15.5878 8.07862L15.1151 8.55135L15.2848 8.71499C15.4242 8.6362 15.5575 8.76953 15.4727 8.90893L15.8969 9.33317C15.9575 9.39377 15.9575 9.49074 15.8969 9.54529C15.8363 9.6059 15.7454 9.6059 15.6848 9.54529L15.2727 9.13317L14.5697 9.8362L14.9151 10.1817C15.006 10.0907 15.0969 10.0059 15.2 10.115C15.309 10.218 15.2242 10.3029 15.1272 10.3998L15.4242 10.6907C15.5212 10.7877 15.4484 10.9514 15.3151 10.9514C15.2181 10.9514 14.9878 10.6786 14.9151 10.612L14.2727 11.2604L14.5818 11.5695C14.7212 11.715 14.509 11.9271 14.3636 11.7877L14.0545 11.4726C13.9818 11.5453 13.806 11.7514 13.709 11.7514C13.5757 11.7514 13.509 11.5877 13.606 11.4907L13.8363 11.2604L13.6969 11.121C13.5333 11.4544 13.3454 11.7817 13.1212 12.0847L13.4666 12.4241C13.6363 12.2544 13.8787 11.9089 14.0363 12.0665C14.1939 12.2241 13.8484 12.4726 13.6787 12.6362L13.903 12.8665C14 12.9635 13.9333 13.1271 13.8 13.1271C13.703 13.1271 13.5394 12.9271 13.4666 12.8544L12.7757 13.5392L13.0424 13.8059C13.1394 13.9029 13.0727 14.0665 12.9394 14.0665C12.8424 14.0665 12.6303 13.8241 12.5636 13.7574C12.3333 13.9817 12.1151 13.7695 12.3454 13.5392L12.1272 13.315L11.3515 14.0907L12.1151 14.8483C12.2121 14.9453 12.1394 15.1089 12.006 15.1089C11.909 15.1089 11.4606 14.6241 11.3818 14.5453C11.3878 14.5877 11.3818 14.6362 11.3454 14.6726L10.7272 15.2907L11.0969 15.6665C11.1454 15.715 11.1454 15.7817 11.1151 15.8423C11.1333 15.8483 11.1515 15.8483 11.1697 15.8604C11.2303 15.921 11.2303 16.018 11.1697 16.0786L10.509 16.7392L10.8545 17.0907C11 17.0786 11.0666 17.2483 10.9697 17.3453L10.2484 18.0665L10.703 18.521L10.9515 18.2726C11.0909 18.1332 11.309 18.3453 11.1636 18.4907L10.8727 18.7817C10.8545 18.8665 10.8303 18.8907 10.7515 18.9029L10.2909 19.3635C10.3515 19.4301 10.6363 19.7029 10.6787 19.7817C10.7818 19.6786 10.8666 19.5756 10.9818 19.6907C11.0424 19.7514 11.0424 19.8423 10.9818 19.9029L10.2181 20.6665L10.4121 20.8604C10.509 20.9574 10.4424 21.115 10.303 21.115C10.2121 21.115 10.0787 20.9514 10.006 20.8786L9.93329 20.9514ZM10.006 20.4483L10.4909 19.9695C10.4121 19.9332 10.1394 19.6423 10.0787 19.5817L9.92117 19.7392L9.92723 20.3695L10.006 20.4483ZM10.4606 32.9211L9.70905 33.6726C9.78178 33.7392 9.84844 33.7877 9.84844 33.8726C10.1878 33.8544 10.3151 33.8423 10.6606 33.8301L10.9878 33.5029C10.909 33.4301 10.4666 33.018 10.4606 32.9211ZM10.303 15.2907L9.86056 14.8544L9.87269 15.721L10.303 15.2907ZM9.8545 14.418C9.86662 14.4301 9.86662 14.4301 9.86662 14.4301L10.5151 15.0786L11.1333 14.4544C11.1697 14.4241 11.2121 14.412 11.2606 14.418L11.1212 14.2786C10.9939 14.315 10.9212 14.218 10.9515 14.1089C10.909 14.0665 10.909 14.0059 10.9333 13.9514C10.6242 14.1029 10.3878 14.212 9.8545 14.3514V14.418ZM9.50299 33.8907L9.49693 33.8847L9.49087 33.8907H9.50299ZM8.97572 38.0907L8.55147 38.5211H9.13329L9.23026 38.418C9.15753 38.3392 8.97572 38.1938 8.97572 38.0907ZM8.30299 33.6301C8.36359 33.6968 8.56965 33.8847 8.59996 33.9635C8.73935 33.9514 8.88481 33.9392 9.0242 33.9271L9.28481 33.6726C9.21814 33.6059 8.81208 33.2241 8.7939 33.1332L8.30299 33.6301ZM8.08481 33.8423L7.89087 34.0423C7.99996 34.0241 8.12117 34.012 8.24238 33.9998L8.08481 33.8423ZM7.69693 38.2241L7.39996 38.5211H7.97572C7.92117 38.4604 7.74541 38.2907 7.69693 38.2241ZM9.12117 30.618C8.06056 31.1029 6.73329 32.9332 7.12723 34.1635C7.19996 34.1453 7.29693 34.1332 7.38178 34.1211L7.87268 33.6301L7.6545 33.418C7.51511 33.2726 7.73329 33.0604 7.87268 33.1998L8.08481 33.412L9.0545 32.4483C9.11511 32.3877 9.20602 32.3877 9.26662 32.4483C9.41814 32.5998 9.12117 32.8059 8.95753 32.9695C9.0545 32.9817 9.43026 33.3877 9.49693 33.4544L10.6909 32.2604C10.7515 32.2059 10.8424 32.2059 10.903 32.2604C11.0545 32.412 10.7697 32.6059 10.6121 32.7635C10.709 32.7695 11.1212 33.212 11.2 33.2907L12.006 32.4847C12.1454 32.3392 12.3636 32.5574 12.2181 32.6968L11.4121 33.5029C11.509 33.5998 11.6242 33.6786 11.606 33.7877C11.8242 33.7817 12.0484 33.7756 12.2848 33.7695L12.5636 33.4907L12.1272 33.0544C11.9818 32.9089 12.2 32.6968 12.3394 32.8362L12.7757 33.2726L13.4969 32.5574C13.5515 32.4968 13.6484 32.4968 13.709 32.5574C13.7697 32.618 13.7697 32.715 13.709 32.7756L12.9939 33.4907C13.0606 33.5635 13.1939 33.6665 13.1939 33.7574C13.4363 33.7514 13.6727 33.7514 13.9212 33.7514L14.2666 33.4059L14 33.1332C13.8545 32.9938 14.0727 32.7817 14.2121 32.9211L14.4787 33.1877L15.1636 32.5029C15.2242 32.4423 15.3212 32.4423 15.3818 32.5029C15.4424 32.5635 15.4424 32.6604 15.3818 32.715L14.6909 33.4059C14.8121 33.5271 14.9636 33.618 14.8727 33.7574C15.0545 33.7574 15.2303 33.7635 15.4121 33.7635L15.9818 33.1938L15.7272 32.9392C15.5818 32.7998 15.8 32.5817 15.9394 32.7271L16.1939 32.9817L16.7818 32.3938C16.8424 32.3332 16.9394 32.3332 17 32.3938C17.0545 32.4544 17.0545 32.5453 17 32.6059L16.4121 33.1938L16.8242 33.6059C16.8727 33.6604 16.8727 33.7392 16.8303 33.7938C16.9151 33.7998 16.9939 33.7998 17.0787 33.8059L17.7697 33.1089C17.6181 32.9635 17.8363 32.7514 17.9818 32.8968L18.5212 32.3635C18.5757 32.3029 18.6727 32.3029 18.7333 32.3635C18.7939 32.4241 18.7939 32.515 18.7333 32.5756L18.2 33.1089L18.7515 33.6665C18.7878 33.7029 18.7939 33.7514 18.7878 33.7938L20.1697 32.412C20.2303 32.3514 20.3272 32.3514 20.3878 32.412C20.4424 32.4726 20.4424 32.5695 20.3878 32.6301L19.9697 33.0423L20.6484 33.7211L21.3818 32.9877C21.3878 32.9089 21.4363 32.8604 21.5212 32.8544L21.6969 32.6726C21.7575 32.612 21.8545 32.612 21.9151 32.6726C22.0363 32.7998 21.8909 32.9089 21.7697 33.0301L22.5515 33.8059L23.7575 32.5938C23.903 32.4544 24.1151 32.6726 23.9757 32.812L23.9212 32.8604L24.7818 33.7211L25.8727 32.6362C26.0121 32.4907 26.2242 32.7089 26.0848 32.8483L25 33.9332C25.0666 34.0059 25.2424 34.1514 25.2484 34.2423C25.5272 34.2665 25.7939 34.2847 26.0666 34.3089L26.606 33.7695L26.0848 33.2483C26.0303 33.1877 26.0303 33.0907 26.0848 33.0301C26.1454 32.9756 26.2424 32.9756 26.303 33.0301L26.8242 33.5514L27.5575 32.818C27.5454 32.7211 27.6181 32.6483 27.7151 32.6604C27.903 32.4726 28.0848 32.7089 27.9575 32.8483L28.5454 33.4301L29.6606 32.315C29.806 32.1695 30.0181 32.3877 29.8787 32.5271L29.4181 32.9877C29.4909 33.0301 29.9333 33.4847 29.9939 33.5453L30.7636 32.7756C30.8303 32.7089 30.9212 32.7211 30.9757 32.7756C31.0242 32.8301 31.0484 32.9211 30.9757 32.9938L30.2121 33.7574L30.8484 34.3998L31.7394 33.5089L31.3394 33.1089C31.1939 33.1817 31.0909 33.0483 31.1515 32.9211L30.9939 32.7635L30.6969 32.4665C30.6363 32.4059 30.6363 32.3089 30.6969 32.2483C30.7515 32.1938 30.8484 32.1938 30.909 32.2483L31.3515 32.6907L32.0424 32.0059C30.5697 30.4726 22.903 30.218 20.4121 30.1271C20.3454 30.1514 20.4121 30.1574 20.3212 30.1271C16.8727 30.0059 10.9939 29.7574 9.12117 30.618ZM6.43632 38.5211L6.37572 38.4604L6.32117 38.5211H6.43632ZM5.35147 38.5211L5.26056 38.4301L5.17572 38.5211H5.35147ZM5.81814 35.2544C4.81208 35.7089 3.56359 37.3817 3.18784 38.5938H4.74541L5.04844 38.2544L4.99996 38.1695C4.87268 38.0423 5.0242 37.7635 5.26056 38.0059L6.06056 37.2059C6.12117 37.1514 6.21814 37.1514 6.27875 37.212C6.33329 37.2726 6.33329 37.3756 6.27875 37.4362L5.47875 38.2544L5.78178 38.5938H5.88481L7.01814 37.4301C7.07875 37.3695 7.17571 37.3392 7.23632 37.3998C7.29693 37.4544 7.29693 37.5635 7.23632 37.6241L6.58784 38.2907L6.8545 38.5998H6.96965L8.17571 37.3514C8.23632 37.2907 8.33329 37.2544 8.3939 37.315C8.4545 37.3695 8.4545 37.4665 8.3939 37.5271L7.89087 38.0241C7.95753 38.0726 8.19996 38.3211 8.26056 38.3817L9.27875 37.3574C9.33935 37.2968 9.43632 37.2968 9.49693 37.3574C9.55753 37.418 9.55753 37.515 9.49693 37.5695L9.11511 37.9514C9.21814 37.9514 9.36359 38.1332 9.44238 38.212L10.4666 37.1877C10.5212 37.1332 10.6181 37.1332 10.6787 37.1938C10.7394 37.2544 10.7394 37.3574 10.6787 37.418L9.6545 38.4604L9.75753 38.5998H10.2242L10.5939 38.1877L10.406 37.9635C10.3515 37.9029 10.3515 37.8059 10.406 37.7514C10.5454 37.612 10.6727 37.8059 10.8121 37.9392L11.4545 37.2968C11.509 37.2362 11.606 37.2423 11.6666 37.3029C11.7272 37.3635 11.7272 37.4665 11.6666 37.5271L11.0242 38.1877L11.4 38.5998H12.2484L12.3575 38.4483L11.8181 37.8726C11.7575 37.818 11.7575 37.7211 11.8181 37.6604C11.8787 37.5998 11.9757 37.5998 12.0363 37.6604L12.5697 38.1998L13.1394 37.6301C13.1697 37.5574 13.1272 37.6059 13.2 37.5695C13.309 37.4604 13.4 37.3514 13.5151 37.4665C13.5757 37.5271 13.5757 37.6241 13.5151 37.6786L13.4909 37.7089L13.7636 37.9817L14.5333 37.212C14.5878 37.1574 14.6848 37.1574 14.7454 37.218C14.806 37.2786 14.806 37.3817 14.7454 37.4423L13.9757 38.2301L14.303 38.5938H14.503L14.8969 38.1695L14.6181 37.8483C14.5575 37.7877 14.5575 37.6968 14.6181 37.6362C14.6727 37.5756 14.7697 37.5756 14.8303 37.6362L15.109 37.915L15.7757 37.2544C15.8363 37.1938 15.9333 37.1938 15.9878 37.2544C16.0484 37.315 16.0484 37.412 15.9878 37.4726L15.3272 38.1514L15.5939 38.4362C15.6303 38.4726 15.6424 38.5938 15.6363 38.5938H15.6666L16.3151 37.9089L16.1939 37.7514C16.1394 37.6908 16.1394 37.5998 16.1939 37.5392C16.2545 37.4786 16.3515 37.4786 16.4121 37.5392L16.5333 37.6604L16.8909 37.2968C16.9515 37.2362 17.0484 37.2362 17.103 37.2968C17.1636 37.3574 17.1636 37.4544 17.103 37.5089L16.7454 37.8726L17 38.1332L18.1818 36.9574C18.2424 36.8968 18.3333 36.9029 18.3939 36.9635C18.4545 37.018 18.4545 37.1271 18.3939 37.1817L17.2181 38.3817L17.3939 38.5938H18.6363L18.6606 38.5271L18.0909 37.9211C18.0303 37.8604 18.0303 37.7635 18.0909 37.7089C18.1515 37.6483 18.2484 37.6483 18.309 37.7089L18.8787 38.2786L19.2848 37.8726L19.1878 37.7756C19.1272 37.715 19.1272 37.618 19.1878 37.5635C19.2484 37.5029 19.3393 37.5029 19.4 37.5635L19.4969 37.6544L19.9939 37.1574C20.0545 37.1029 20.1515 37.1029 20.2121 37.1574C20.2666 37.218 20.2666 37.315 20.2121 37.3756L19.7151 37.8726L20.1697 38.3271L21.3878 37.1029C21.4484 37.0483 21.5454 37.0483 21.606 37.1029C21.6666 37.1635 21.6666 37.2604 21.606 37.3211L21.1515 37.7756L21.6181 38.2483L22.1697 37.6968C22.1454 37.5817 22.2242 37.5089 22.3333 37.5271L22.6545 37.212C22.7151 37.1514 22.8121 37.1514 22.8727 37.212C22.9272 37.2665 22.9272 37.3635 22.8727 37.4241L22.5757 37.7211L22.8787 38.0241L23.6545 37.2544C23.7151 37.1938 23.8121 37.1998 23.8666 37.2604C23.9272 37.321 23.9272 37.4241 23.8666 37.4847L23.0969 38.2726L23.3757 38.5938H23.5454L24.1697 37.9332L24 37.7271C23.9454 37.6665 23.9454 37.5695 24 37.515C24.0606 37.4544 24.1575 37.4544 24.2181 37.515L24.3878 37.6847L24.6424 37.4301C24.703 37.3695 24.8 37.3756 24.8545 37.4301C24.9151 37.4907 24.9151 37.5998 24.8545 37.6544L24.6 37.9332L25.2242 38.5938H25.5515C25.5575 38.5938 25.5636 38.4907 25.5878 38.4665L25.9878 38.0362L25.6787 37.7271C25.6181 37.6665 25.6181 37.5695 25.6787 37.5089C25.7394 37.4544 25.8303 37.4544 25.8909 37.5089L26.2 37.818L27.2 36.8241C27.3394 36.6786 27.5515 36.8968 27.4121 37.0362L26.4181 38.0362L26.7757 38.3938L27.4303 37.7392C27.2484 37.5574 27.4666 37.3453 27.6424 37.5271L28.1333 37.0301C28.1939 36.9756 28.2909 36.9756 28.3515 37.0301C28.406 37.0907 28.406 37.1877 28.3515 37.2483L27.8606 37.7392L28.2 38.0786L29.2666 37.0059C29.4121 36.8665 29.6242 37.0847 29.4848 37.2241L29.3454 37.3574L29.7818 37.7938L30.5818 36.9938C30.7272 36.8483 30.9394 37.0665 30.8 37.2059L30 38.0059L30.3333 38.3453C30.3636 38.2604 31.0787 37.5635 31.1454 37.4968C31.0121 37.3574 31.2121 37.1574 31.3575 37.2907L31.6181 37.0241C31.7575 36.8847 31.9697 37.1029 31.8303 37.2423L31.5697 37.5029L32.0303 37.9635L32.8181 37.1817C32.6666 37.0301 32.8787 36.812 33.0303 36.9635C33.1757 36.8241 33.3212 36.612 33.4606 36.7514C33.6 36.8907 33.3878 37.0362 33.2484 37.1817L33.7757 37.7089L34.3757 37.115L34.2242 36.9635C34.0848 36.8241 34.2969 36.6059 34.4424 36.7514L34.5878 36.8968C34.7272 36.7574 34.8666 36.5635 35 36.7029C35.1333 36.8362 34.9454 36.9756 34.8 37.115L35.2727 37.5817C35.3272 37.5271 35.7515 37.0968 35.8181 37.0423C34.7697 35.9392 33.0303 35.6968 31.4848 35.5029C26.3454 34.7938 9.51511 33.521 5.81814 35.2544ZM3.01208 7.23014C1.89693 11.8726 6.61814 15.2301 10.4909 13.4968C12.5818 12.5635 13.9454 10.1453 13.6727 7.87256C13.6606 7.78771 13.6848 7.70287 13.7394 7.64226C13.8 7.57559 13.8787 7.53923 13.9636 7.53923C18.3697 7.4362 21.9515 7.07862 24.8121 7.07862H24.8181C24.9212 7.07862 25.0181 7.12105 25.0727 7.2059C25.1272 7.29681 25.1333 7.39377 25.0909 7.49074C23.903 9.89074 25.4666 13.212 29.0121 13.8847L29.1515 13.7392L29.0606 13.6483C28.9151 13.5029 29.1333 13.2907 29.2727 13.4301L29.3697 13.5271L30.4181 12.4726C30.4787 12.418 30.5757 12.418 30.6303 12.4726C30.6909 12.5332 30.6909 12.6301 30.6303 12.6907L29.5818 13.7392L29.8242 13.9817C29.8545 13.9877 29.8787 13.9877 29.909 13.9877L30.3575 13.5392L30.2969 13.4786C30.2363 13.418 30.2363 13.321 30.2969 13.2665C30.3575 13.2059 30.4545 13.2059 30.509 13.2665L30.5697 13.321L31.8121 12.0786C31.9575 11.9392 32.1697 12.1514 32.0303 12.2968L30.7878 13.5392L31.1818 13.9332C31.2484 13.9271 31.4545 13.9029 31.4969 13.8907C31.4666 13.8847 31.4363 13.8786 31.4181 13.8604C31.3575 13.7998 31.3575 13.7029 31.4181 13.6423L31.6545 13.4059C31.509 13.2604 31.2727 13.0968 31.4181 12.9574C31.5575 12.812 31.7212 13.0483 31.8666 13.1938L32.3575 12.7029L32.2727 12.6241C32.1333 12.4786 32.3454 12.2665 32.4909 12.4059L32.5697 12.4907L33.709 11.3574C33.7636 11.2968 33.8606 11.2968 33.9212 11.3574C33.9818 11.412 33.9818 11.5089 33.9212 11.5695L33.4969 11.9938L33.8121 12.3029L34.3939 11.715L34.2 11.5271C34.0606 11.3877 34.2787 11.1695 34.4181 11.315L34.606 11.5029L35.1454 10.9695C35 10.8241 34.7757 10.6665 34.9151 10.5271C35.0606 10.3877 35.2121 10.6059 35.3575 10.7514C35.5151 10.5938 35.7272 10.2907 35.8848 10.4059C35.7939 10.315 35.4909 10.0301 35.4787 9.93923C35.4666 9.94529 35.4606 9.95135 35.4545 9.95135C35.3212 9.95135 35.2484 9.78771 35.3454 9.69074L36.0242 9.01802C35.8303 8.82408 36.0484 8.61196 36.2363 8.79984L36.5818 8.45438C36.4303 8.30287 36.1757 8.12711 36.3212 7.98165C36.3333 7.96953 36.3454 7.96347 36.3575 7.95135C36.3151 7.95135 36.2787 7.93923 36.2484 7.90893C36.1939 7.84832 36.1939 7.75135 36.2484 7.69074L36.7151 7.23014C36.5818 7.0968 36.4181 6.99377 36.4969 6.84832C36.4909 6.84832 36.4848 6.85438 36.4787 6.85438C36.4363 6.85438 36.4 6.84226 36.3697 6.81196C36.309 6.75135 36.309 6.65438 36.3697 6.59984L36.9394 6.03014C35.6969 1.52105 30.5818 1.37559 20.806 1.37559C13.6181 1.37559 4.38178 1.48468 3.01208 7.23014ZM9.24844 14.4726C4.90299 15.121 1.40602 11.315 2.41814 7.08468C3.84844 1.13317 12.6848 0.769531 20.806 0.769531C31.0727 0.769531 33.7151 1.39377 35.5272 2.82408C40.1939 6.52711 37.1394 14.7635 30.0363 14.6059L29.503 30.3332C30.5757 30.5453 31.4242 30.7998 31.9151 31.121C33.3575 32.0604 33.7454 33.8786 32.3878 35.018C35.9575 35.5635 37.1454 37.1574 37.2121 38.7453C37.4121 39.3938 39.006 39.1998 2.81208 39.1998C2.72117 39.1998 2.64238 39.1211 2.58178 39.0544C2.52723 38.9877 2.49693 38.8604 2.51511 38.7756C2.74541 37.2907 4.11511 34.9514 6.55753 34.3332C6.0545 32.7211 7.58784 30.4544 9.43632 29.8483L9.24844 14.4726Z" fill="#1A1A1A"/>
</svg>
