<svg xmlns="http://www.w3.org/2000/svg" width="40" height="40" fill="none" viewBox="0 0 40 40"><path fill="#1a1a1a" d="M26.297 4.014c.026-2.044-.642-2.693-2.64-2.764C5.92.606 7.607.668 6.99.642 5.25.562 2.339.41 2.253 2.85c-.022.606-.832 35.37-.562 36.323.037.13.156.22.292.22h36.08a.303.303 0 0 0 .302-.31c-.083-3.822-.163-10.896-.243-14.583-.05-1.796-.628-2.427-2.441-2.363l-.362.01c.014-.376.017-.704.02-1.03.005-.408.01-.816.034-1.327a.303.303 0 0 0-.303-.318h-.002c-.061 0-5.86.048-8.987-.01q.106-7.725.216-15.448m-1.296 34.773H2.221C2.069 38 2.9 1.692 2.86 2.871c.063-1.779 2.246-1.712 4.103-1.624l16.673.608c1.704.062 2.077.484 2.057 2.151-.506 35.412-.384 33.596-.691 34.781m10.7-16.044c1.418-.05 1.774.276 1.814 1.772.077 3.53.158 10.426.237 14.272H25.634c.247-1.082.186-.902.397-15.756zm-4.65-.468.226-.225.212.212zM34 22.187l.73-.73a32 32 0 0 1-.017.709zm.755-2.106v.006c-.011.007-.024.005-.034.014l-.617.617a.151.151 0 1 0 .215.214l.425-.425-.009.603v.123a.15.15 0 0 0-.21.002l-.806.806a.15.15 0 0 0-.036-.086l-.514-.514.592-.592a.151.151 0 1 0-.214-.215l-.592.593-.263-.263a.151.151 0 1 0-.215.214l.263.263-.509.51a.151.151 0 1 0 .215.214l.509-.51.514.515c.02.02.049.025.075.031l-1.682.05c-.006-.027-.01-.056-.032-.078l-.337-.337.828-.828a.151.151 0 1 0-.214-.214l-.829.828-.163-.164a.151.151 0 1 0-.214.214l.163.164c-.06.06-.389.377-.427.452l-.242.008c.014-.008.031-.006.043-.018a.15.15 0 0 0 0-.214l-.358-.36a.151.151 0 1 0-.214.215l.358.36c.014.014.034.013.052.02l-1.052.032 1.213-1.212a.151.151 0 1 0-.215-.215l-1.285 1.285-.237-.238a.151.151 0 1 0-.215.215l.181.181-2.626.077.034-2.357c2.71.052 7.418.024 8.68.014"/><path fill="#1a1a1a" d="M4.903 9.248c1.058.01 2.084.122 3.164.133h.003c.133 0 .25-.087.29-.215a7.7 7.7 0 0 0 .298-3.006.3.3 0 0 0-.21-.263c-1.207-.385-2.47-.286-3.546-.137a.3.3 0 0 0-.262.297L4.603 8.94a.304.304 0 0 0 .3.307m3.167-2.83a6.9 6.9 0 0 1-.227 2.353c-.88-.02-1.734-.1-2.63-.124L5.227 7.4c.007-.005.017-.003.024-.01l.46-.459.263.263-.22.221a.15.15 0 0 0 0 .214c.058.059.154.06.214 0l.22-.221.09.09c.06.059.155.06.215 0a.15.15 0 0 0 0-.214l-.09-.09.418-.417a.151.151 0 1 0-.214-.215l-.418.418-.263-.263.423-.422c.014-.014.013-.033.021-.05.562-.015 1.138.021 1.699.173M5.55 6.34a.15.15 0 0 0-.087-.037q.243-.028.494-.047l-.245.245zm-.139-.031c-.027.006-.054.01-.075.03a.15.15 0 0 0 0 .215l.161.162-.264.263.009-.653q.084-.01.169-.017M9.947 9.248c1.057.01 2.084.122 3.164.133h.003c.133 0 .25-.087.29-.215.297-.976.392-1.932.298-3.006a.3.3 0 0 0-.21-.263c-1.208-.385-2.47-.286-3.547-.137a.3.3 0 0 0-.262.297L9.647 8.94a.303.303 0 0 0 .3.307m.581-2.907c-.02-.02-.048-.025-.074-.031q.233-.028.476-.047l-.24.24zm2.586.077a6.9 6.9 0 0 1-.227 2.354c-.88-.02-1.734-.1-2.63-.124l.016-1.3.417-.417.262.263-.221.221a.15.15 0 0 0 0 .214c.06.06.155.058.214 0l.221-.221.09.09c.059.059.155.06.215 0a.15.15 0 0 0 0-.214l-.09-.09.418-.418a.151.151 0 1 0-.214-.215l-.419.419-.263-.263.423-.423c.013-.013.013-.032.02-.048.585-.019 1.185.014 1.768.172m-2.835.495.005-.43c.021.081.122.164.191.234zm.089-.595c-.058.023-.059.002-.083.092v-.083q.042-.004.083-.009M14.99 9.248c1.059.01 2.083.122 3.163.133h.003c.134 0 .251-.087.29-.215.298-.976.392-1.932.299-3.006a.3.3 0 0 0-.21-.263c-1.208-.385-2.47-.286-3.547-.137a.3.3 0 0 0-.262.297l-.038 2.884a.305.305 0 0 0 .301.307m.334-2.552.02.02-.02.022zm.074-.355c-.012-.012-.028-.01-.042-.017q.209-.025.423-.043l-.22.221zm2.758.077a6.9 6.9 0 0 1-.226 2.354c-.88-.02-1.733-.1-2.63-.124l.018-1.476.241-.24.263.262-.22.221a.15.15 0 0 0 0 .214c.059.059.154.06.214 0l.222-.221.09.09c.058.059.154.06.214 0a.15.15 0 0 0 0-.214l-.09-.09.418-.417a.151.151 0 1 0-.215-.215l-.417.418-.263-.263.422-.422c.012-.011.01-.028.018-.042.637-.034 1.3-.009 1.941.165M20.033 9.248c1.059.01 2.084.122 3.164.133h.003c.133 0 .25-.087.29-.215a7.7 7.7 0 0 0 .298-3.006.3.3 0 0 0-.21-.263c-1.206-.385-2.47-.286-3.547-.137a.3.3 0 0 0-.262.297l-.037 2.884a.305.305 0 0 0 .301.307m.335-2.553.02.022-.021.021zm.074-.354c-.012-.012-.028-.01-.042-.017.138-.017.282-.03.423-.043l-.22.221zm2.758.077a6.9 6.9 0 0 1-.227 2.353c-.879-.02-1.733-.1-2.63-.124l.018-1.475.242-.242.262.263-.221.222a.15.15 0 0 0 0 .214c.06.06.156.058.215 0l.22-.222.09.09c.06.059.155.06.215 0a.15.15 0 0 0 0-.214l-.09-.09.418-.418a.151.151 0 1 0-.214-.214l-.418.418-.263-.263.422-.423c.012-.011.01-.028.018-.042.64-.032 1.302-.007 1.943.167M23.523 11.203c-1.06-.011-2.078-.123-3.164-.134-.149.023-.254.086-.293.215-.297.976-.391 1.932-.298 3.007.01.122.093.226.21.263 1.149.366 2.35.301 3.547.136a.3.3 0 0 0 .262-.296l.037-2.885a.305.305 0 0 0-.3-.306m-2.928.477h.015l-.008.008zm.424.019q.267.011.533.025c-.019.007-.04.007-.054.022l-.419.418-.263-.262zm2.165 2.425c-.889.11-1.885.163-2.828-.091a7 7 0 0 1 .093-1.763l.154-.154.263.263-.221.221a.151.151 0 1 0 .215.215l.22-.221.09.09a.152.152 0 0 0 .215-.215l-.09-.09.418-.418a.15.15 0 0 0 0-.215c-.01-.01-.026-.01-.04-.016a62 62 0 0 0 1.541.073zM18.48 11.203c-1.06-.01-2.079-.123-3.164-.134-.143.023-.253.086-.293.215-.297.976-.391 1.932-.298 3.007.01.122.093.226.21.263 1.149.366 2.35.301 3.546.136a.3.3 0 0 0 .262-.296l.038-2.885a.304.304 0 0 0-.3-.306m-2.929.477h.015l-.008.008zm.424.019q.268.01.533.025c-.018.007-.039.007-.054.022l-.418.418-.263-.262zm2.165 2.425c-.888.11-1.885.163-2.827-.091a7 7 0 0 1 .093-1.764l.153-.153.263.263-.22.221a.152.152 0 1 0 .214.215l.221-.221.09.09a.152.152 0 0 0 .214-.215l-.09-.09.418-.418a.15.15 0 0 0 0-.215c-.01-.01-.027-.01-.04-.016.435.025 1.15.063 1.542.073zM13.437 11.203c-1.06-.01-2.079-.123-3.164-.134-.139.023-.254.086-.292.215a7.7 7.7 0 0 0-.299 3.007c.01.122.094.226.21.263 1.147.365 2.35.302 3.547.136a.3.3 0 0 0 .262-.296l.037-2.885a.305.305 0 0 0-.301-.306m-2.986.674.025.024-.04.039zm.647-.17q.262.01.523.024c-.011.007-.026.005-.036.015l-.418.418-.263-.262zm2 2.417c-.89.11-1.885.163-2.828-.091a7 7 0 0 1 .065-1.562l.355-.355.263.263-.222.221a.151.151 0 1 0 .215.215l.221-.221.09.09a.152.152 0 0 0 .214-.215l-.09-.09.419-.418a.15.15 0 0 0 0-.215c-.005-.005-.013-.003-.018-.007l.053.002c.428.026.856.05 1.293.062zM8.393 11.203c-1.059-.01-2.078-.123-3.163-.134-.134.023-.254.086-.293.215-.297.976-.393 1.932-.299 3.007.011.122.094.226.21.263 1.147.365 2.35.302 3.548.136a.3.3 0 0 0 .262-.296l.037-2.885a.304.304 0 0 0-.302-.306m-2.972.62.077.079-.123.123q.02-.1.046-.201m.697-.113q.26.01.52.024c-.01.006-.022.004-.03.012l-.418.418-.263-.262zm1.937 2.414c-.89.11-1.886.163-2.828-.091a7 7 0 0 1 .053-1.485l.432-.432.263.263-.22.221a.152.152 0 1 0 .214.215l.221-.221.09.09a.152.152 0 0 0 .215-.215l-.09-.09.418-.418a.15.15 0 0 0 0-.215l-.01-.004c.421.025.843.05 1.272.06zM4.904 20.13c1.059.01 2.078.122 3.163.133h.003c.134 0 .251-.088.29-.215a7.7 7.7 0 0 0 .299-3.006.3.3 0 0 0-.21-.263c-1.205-.385-2.47-.286-3.547-.137a.3.3 0 0 0-.261.296l-.037 2.885a.303.303 0 0 0 .3.306m2.939-.477c-.882-.02-1.726-.1-2.63-.124l.02-1.578c.006-.005.014-.003.019-.008l.46-.46.262.263-.22.222a.152.152 0 1 0 .214.214l.222-.221.09.09a.151.151 0 1 0 .215-.215l-.09-.09.417-.418c.055-.055.053-.14.006-.199.416.015.834.06 1.242.17a6.9 6.9 0 0 1-.227 2.354m-1.784-2.518q.269-.017.544-.017l-.413.414-.263-.263zm-.64.056.078.078-.259.26.004-.32c.058-.008.12-.012.177-.018M9.947 20.13c1.06.01 2.077.122 3.164.133h.003c.133 0 .25-.087.29-.214.297-.977.392-1.932.298-3.007a.3.3 0 0 0-.21-.263c-1.207-.386-2.47-.286-3.547-.137a.3.3 0 0 0-.262.296l-.036 2.885a.303.303 0 0 0 .3.307m.456-2.933.072.072-.192.192.003-.252q.059-.007.117-.012m1.175-.076-.412.411-.263-.263.131-.13q.27-.018.544-.018m1.309 2.532c-.882-.02-1.726-.1-2.63-.124l.02-1.634.412-.412.263.263-.221.221a.151.151 0 1 0 .214.215l.221-.22.09.089a.152.152 0 0 0 .215-.214l-.09-.09.418-.418a.15.15 0 0 0 .005-.203c.438.011.88.058 1.31.174a7 7 0 0 1-.228 2.353M14.99 20.13c1.06.01 2.078.122 3.163.133h.003c.134 0 .251-.087.29-.214.298-.977.392-1.932.299-3.007a.3.3 0 0 0-.21-.263c-1.208-.386-2.47-.286-3.547-.137a.3.3 0 0 0-.262.296l-.038 2.885a.305.305 0 0 0 .301.307m.338-2.877.017.016-.017.017zm1.114-.126-.406.405-.263-.263.117-.116q.27-.021.552-.026m1.714.172a6.9 6.9 0 0 1-.226 2.354c-.881-.02-1.724-.1-2.63-.124l.022-1.81.237-.236.263.263-.22.221a.151.151 0 1 0 .214.215l.221-.221.09.09a.152.152 0 0 0 .214-.215l-.09-.09.418-.418a.15.15 0 0 0 .002-.21c.495.003.996.05 1.485.181M20.033 20.13c1.06.01 2.079.122 3.164.133h.003c.133 0 .25-.088.29-.215a7.7 7.7 0 0 0 .298-3.006.3.3 0 0 0-.21-.263c-1.205-.385-2.469-.286-3.547-.137a.3.3 0 0 0-.262.296l-.037 2.885a.305.305 0 0 0 .301.306m.339-2.878.017.017-.018.017zm1.114-.126-.406.405-.263-.263.116-.116q.274-.02.553-.026m1.714.174a6.9 6.9 0 0 1-.227 2.353c-.882-.02-1.725-.1-2.63-.124l.023-1.81.237-.236.263.263-.221.22a.151.151 0 1 0 .214.215l.221-.22.09.09c.059.058.155.059.215 0a.15.15 0 0 0 0-.215l-.09-.09.418-.418a.15.15 0 0 0 .002-.21c.494.002.996.05 1.485.182M23.523 22.084c-.75-.007-1.411-.062-2.262-.104.023-.055.023-.117-.021-.163a.15.15 0 0 0-.215 0l-.15.15q-.255-.012-.516-.017c-.149.023-.254.086-.293.215-.297.976-.391 1.932-.298 3.007.01.121.093.225.21.262 1.153.368 2.36.301 3.547.137a.3.3 0 0 0 .262-.296l.037-2.885a.305.305 0 0 0-.3-.306m-2.316.506-.128.126-.139-.139zm1.977 2.416c-.89.11-1.885.163-2.828-.09a7 7 0 0 1 .19-2.19l.057-.057.263.263-.221.221a.151.151 0 1 0 .215.215l.22-.221.09.09a.152.152 0 0 0 .215-.215l-.09-.09.323-.322c.41.023 1.188.065 1.597.076zM18.48 22.084c-.752-.007-1.411-.062-2.263-.104.023-.055.024-.117-.021-.163a.15.15 0 0 0-.215 0l-.149.15q-.256-.012-.516-.017c-.143.023-.253.086-.293.215-.297.976-.391 1.932-.298 3.007.01.121.093.225.21.262 1.16.37 2.37.3 3.546.137a.3.3 0 0 0 .262-.296l.038-2.885a.3.3 0 0 0-.3-.306m-2.317.506-.127.126-.139-.139zm1.977 2.416c-.887.11-1.884.164-2.827-.091a7 7 0 0 1 .189-2.19l.057-.057.263.263-.221.221a.151.151 0 1 0 .214.215l.222-.222.09.09a.152.152 0 0 0 .214-.214l-.09-.09.322-.322c.41.024 1.187.065 1.597.076zM13.437 22.084c-.66-.007-1.208-.048-2.094-.095.03-.057.03-.125-.017-.172a.15.15 0 0 0-.215 0l-.154.154q-.34-.016-.685-.02c-.139.022-.254.085-.292.214a7.7 7.7 0 0 0-.299 3.007c.01.121.094.225.21.262 1.15.367 2.36.3 3.547.137a.3.3 0 0 0 .262-.296l.037-2.885a.304.304 0 0 0-.3-.306m-2.151.513-.12.12-.13-.131zm1.811 2.408c-.887.11-1.883.164-2.828-.091a7 7 0 0 1 .138-1.964l.282-.282.263.263-.22.221a.151.151 0 1 0 .214.215l.22-.222.09.09a.152.152 0 0 0 .215-.214l-.09-.09.315-.315c.436.026 1.025.058 1.431.068zM8.393 22.084c-.624-.006-1.152-.043-2.029-.091.031-.058.033-.127-.015-.176a.15.15 0 0 0-.215 0l-.156.156q-.37-.017-.748-.023c-.134.023-.254.086-.293.215-.297.976-.393 1.931-.299 3.007.011.121.094.225.21.262 1.15.367 2.355.301 3.548.137a.3.3 0 0 0 .262-.296l.037-2.885a.304.304 0 0 0-.302-.306m-2.087.517-.116.116-.128-.128q.122.005.244.012m1.749 2.405c-.89.11-1.886.163-2.828-.091a7 7 0 0 1 .118-1.88l.368-.367.263.263-.221.221a.151.151 0 1 0 .214.215l.221-.222.09.09a.152.152 0 0 0 .215-.214l-.09-.09.31-.312c.437.026.948.054 1.37.065zM4.904 31.012c1.063.011 2.08.122 3.163.133h.003c.134 0 .251-.087.29-.214a7.7 7.7 0 0 0 .299-3.007.3.3 0 0 0-.21-.262c-1.208-.386-2.47-.286-3.547-.137a.3.3 0 0 0-.261.296l-.037 2.885a.303.303 0 0 0 .3.306m3.166-2.83a6.9 6.9 0 0 1-.227 2.353c-.881-.02-1.737-.1-2.63-.123l.018-1.453c.007-.005.016-.003.022-.009l.46-.46.263.264-.22.22a.151.151 0 1 0 .214.215l.22-.221.09.09a.152.152 0 0 0 .215-.215l-.09-.09.418-.418a.151.151 0 1 0-.214-.214l-.418.418-.263-.263.263-.263c.618-.027 1.259 0 1.88.169m-2.358-.12-.017-.017q.019 0 .038-.003zm-.39.02c.007.01.005.024.014.033l.161.161-.26.262.005-.447q.04-.005.08-.009M9.947 31.012c1.062.011 2.08.122 3.164.133h.003c.133 0 .25-.087.29-.214.297-.977.392-1.932.298-3.007a.3.3 0 0 0-.21-.262c-1.207-.386-2.47-.286-3.547-.137a.3.3 0 0 0-.262.296l-.036 2.885a.303.303 0 0 0 .3.306m.356-2.923c.005.009.003.019.01.026l.162.161-.194.194.005-.38zm.376-.037.024-.003-.013.013zm2.435.13a6.9 6.9 0 0 1-.227 2.353c-.88-.02-1.739-.1-2.63-.123l.02-1.508.413-.413.263.263-.222.22a.151.151 0 1 0 .215.215l.221-.22.09.09a.152.152 0 0 0 .214-.215l-.09-.09.419-.418a.152.152 0 1 0-.215-.215l-.418.418-.263-.263.26-.26c.64-.033 1.306-.008 1.95.166M14.99 31.012c1.063.011 2.08.122 3.163.133h.003c.134 0 .251-.087.29-.214.298-.977.392-1.932.299-3.007a.3.3 0 0 0-.21-.262c-1.208-.386-2.47-.286-3.547-.137a.3.3 0 0 0-.262.296l-.038 2.885a.304.304 0 0 0 .301.306m.337-2.753.018.017-.018.018zm2.83-.077a6.9 6.9 0 0 1-.227 2.353c-.881-.02-1.737-.1-2.63-.123l.02-1.684.239-.238.263.263-.22.22a.151.151 0 1 0 .214.215l.221-.22.09.089a.152.152 0 0 0 .214-.215l-.09-.09.418-.418a.151.151 0 1 0-.214-.214l-.418.418-.263-.263.255-.254c.693-.047 1.424-.03 2.127.16M20.033 31.012c1.063.011 2.08.122 3.164.133h.003c.133 0 .25-.087.29-.214.298-.978.392-1.934.298-3.007a.3.3 0 0 0-.21-.262c-1.207-.386-2.47-.286-3.547-.137a.3.3 0 0 0-.262.296l-.037 2.885a.304.304 0 0 0 .301.306m.338-2.754.018.018-.019.02zm2.83-.076a6.9 6.9 0 0 1-.228 2.353c-.881-.02-1.737-.1-2.63-.123l.021-1.683.239-.239.262.263-.221.22a.151.151 0 1 0 .215.215l.22-.22.09.09a.152.152 0 0 0 .215-.215l-.09-.09.418-.418a.151.151 0 1 0-.214-.214l-.418.418-.263-.263.254-.255c.695-.048 1.426-.03 2.13.16M23.524 32.966c-.75-.008-1.425-.063-2.269-.105-.006-.012-.005-.027-.015-.037a.15.15 0 0 0-.215 0l-.028.027a22 22 0 0 0-.638-.02c-.149.024-.254.087-.293.215-.297.977-.391 1.932-.298 3.007.01.122.093.225.21.262 1.15.367 2.357.302 3.547.137a.3.3 0 0 0 .262-.296l.037-2.885a.3.3 0 0 0-.3-.305m-2.7.487q.254.01.503.024l-.246.246-.263-.263zm2.36 2.435c-.886.11-1.883.164-2.827-.091a7 7 0 0 1 .152-2.026l.095-.096.263.263-.222.222a.15.15 0 0 0 0 .214c.06.06.156.058.215 0l.221-.221.09.09a.152.152 0 0 0 .215-.215l-.09-.09.418-.418c.007-.007.005-.017.01-.025.439.026 1.089.06 1.491.071zM18.48 32.966c-.751-.008-1.429-.063-2.269-.105-.064-.115-.164-.103-.257-.01q-.316-.013-.637-.019c-.143.023-.254.086-.293.215-.297.976-.391 1.931-.298 3.007.01.121.093.225.21.262 1.15.367 2.357.301 3.546.137a.3.3 0 0 0 .262-.297l.038-2.884a.3.3 0 0 0-.302-.306m-2.699.487q.253.01.502.023l-.246.247-.263-.263zm2.36 2.434c-.887.111-1.883.165-2.828-.09a7 7 0 0 1 .152-2.027l.094-.095.263.263-.22.221a.15.15 0 0 0 0 .215c.059.058.154.059.214 0l.222-.222.09.09a.152.152 0 0 0 .214-.215l-.09-.09c.061-.06.383-.376.428-.442.439.026 1.087.06 1.491.071zM13.437 32.966c-.656-.007-1.21-.048-2.092-.095-.05-.11-.149-.131-.266-.014a24 24 0 0 0-.806-.025c-.139.023-.254.086-.292.215-.298.978-.393 1.933-.299 3.007.01.121.094.225.21.262 1.151.367 2.358.301 3.547.137a.3.3 0 0 0 .262-.296l.037-2.885a.305.305 0 0 0-.301-.306m-2.031.518-.24.24-.262-.263q.252.01.502.023m1.691 2.404c-.888.11-1.883.164-2.827-.091a7 7 0 0 1 .1-1.802l.32-.319.263.263-.222.221a.15.15 0 0 0 0 .214c.06.06.156.058.215 0l.221-.22.09.09a.152.152 0 0 0 .214-.215l-.09-.09.419-.418c.005-.005.003-.012.007-.017l.03.001c.428.026.855.05 1.29.062zM8.393 32.966c-.621-.006-1.154-.044-2.024-.09-.007-.018-.006-.037-.02-.051a.15.15 0 0 0-.215 0l-.036.036a23 23 0 0 0-.868-.028c-.134.023-.254.086-.293.215-.297.976-.393 1.931-.299 3.006.011.122.094.226.21.263 1.15.367 2.358.301 3.548.137a.3.3 0 0 0 .262-.297l.037-2.884a.305.305 0 0 0-.302-.307m-2.939.477.027.001.017.017-.062.063c.007-.027.01-.054.018-.081m.972.045-.237.236-.26-.26q.25.011.497.024m1.629 2.4c-.888.11-1.883.164-2.828-.091a7 7 0 0 1 .087-1.722l.399-.4.263.264-.22.221a.15.15 0 0 0 0 .214c.058.059.154.06.214 0l.221-.221.089.09a.152.152 0 0 0 .214-.215l-.09-.09c.06-.06.37-.365.424-.431.416.024.833.048 1.257.06zM27.384 32.158c1.059.01 2.078.123 3.163.134h.003c.134 0 .251-.087.29-.215a7.7 7.7 0 0 0 .299-3.006.3.3 0 0 0-.21-.263c-1.205-.385-2.469-.286-3.547-.137a.3.3 0 0 0-.262.296l-.037 2.885a.305.305 0 0 0 .3.306m.317-1.23.203.203-.208.207zm.017-1.264.151.151-.155.156zm1.606-.506.069.069-.193.193-.268-.268q.194-.002.392.006m-.807.007.468.469-.1.1a.152.152 0 1 0 .214.215l.11-.11c.075.05.135.039.185-.011.052-.052.05-.127.012-.186l.2-.2.335.335a.151.151 0 1 0 .215-.215l-.375-.375c.258.03.516.073.77.142a6.9 6.9 0 0 1-.227 2.353c-.814-.019-1.371-.077-2.429-.114l.23-.23c.073.052.14.043.19-.01.053-.052.052-.131.01-.19l.185-.185a.151.151 0 1 0-.215-.215l-.177.178-.411-.41.003-.241c.055.022.097.04.16-.023l.213-.213.145.146a.151.151 0 1 0 .214-.215l-.145-.145.268-.269a.152.152 0 1 0-.214-.214l-.269.268-.36-.36v-.004c.257-.03.525-.055.795-.07M32.427 32.158c1.059.01 2.078.123 3.163.134h.003c.134 0 .251-.087.29-.215.298-.976.393-1.931.3-3.006a.3.3 0 0 0-.21-.263c-1.207-.385-2.47-.286-3.548-.137a.3.3 0 0 0-.262.296l-.037 2.885a.304.304 0 0 0 .3.306m1.041-2.99.089.089a.15.15 0 0 0-.205.003l-.173.173-.216-.216q.25-.03.505-.049m-.502.48-.187.187c-.014.014-.014.034-.022.051l.006-.441zm-.22 1.069.176.175-.18.18zm2.62.965c-.882-.02-1.725-.1-2.63-.124v-.052l.4-.4.003.003a.152.152 0 0 0 .215-.214l-.003-.003.327-.328a.151.151 0 1 0-.214-.214l-.328.327-.384-.384.004-.299c.007.019.007.04.022.055.059.059.155.06.215 0l.187-.187.293.293a.152.152 0 0 0 .215-.215l-.294-.293.173-.173a.15.15 0 0 0 .005-.205l.388.389-.09.089a.152.152 0 1 0 .215.215l.098-.098c.075.049.136.04.187-.012.051-.051.05-.128.011-.186l.23-.23.125.124a.151.151 0 1 0 .215-.214l-.126-.126c.009-.01.008-.023.014-.033.254.029.506.072.756.14a7 7 0 0 1-.229 2.355m-1.036-2.525.066.065-.222.223-.29-.29q.221-.007.446.002M35.916 34.113c-1.059-.01-2.078-.123-3.163-.133-.115.018-.254.086-.293.214a7.7 7.7 0 0 0-.298 3.007.3.3 0 0 0 .21.262c1.147.366 2.356.302 3.547.138a.3.3 0 0 0 .262-.297l.037-2.885a.305.305 0 0 0-.302-.306m-1.192.778-.23-.23q.235.011.472.021c-.02.008-.041.008-.057.024zm-1.109-.272-.224.224-.247-.247q.238.01.471.023m-.87 2.18a8 8 0 0 1 .007-.833l.412.413zm2.833.235c-.816.1-1.72.143-2.594-.046l.395-.395.103.103a.152.152 0 0 0 .214-.214l-.103-.103.145-.145a.151.151 0 1 0-.215-.215l-.145.145-.591-.591q.046-.383.14-.766l.25.25-.19.191a.151.151 0 1 0 .214.215l.19-.19.704.703a.151.151 0 1 0 .215-.215l-.704-.703.419-.42h.019l.466.467-.167.167a.151.151 0 1 0 .215.214l.166-.166.29.29a.152.152 0 0 0 .214-.215l-.29-.29.186-.185a.15.15 0 0 0 0-.214c-.013-.013-.03-.011-.045-.019.177.009.35.021.529.026zM30.873 34.113c-1.06-.01-2.077-.123-3.164-.133h-.003a.3.3 0 0 0-.29.214c-.297.976-.392 1.932-.298 3.007.01.121.093.225.21.262 1.153.368 2.36.301 3.547.138a.3.3 0 0 0 .261-.297l.038-2.885a.304.304 0 0 0-.3-.306m-.315 1.033-.455-.454c.153.006.305.017.46.021zm-.905-.476.043.043-.26.261-.33-.33.165.008c.127.007.256.01.382.018m-1.022-.048-.29.29-.32-.319c.206.006.407.019.61.029m-.924 2.321a8 8 0 0 1-.006-.838l.468.467-.386.386c-.025-.007-.052-.008-.076-.015m.435.084.24-.24h.001a.152.152 0 0 0 .215-.215h-.001l.373-.374a.151.151 0 1 0-.214-.214l-.374.373-.656-.656c.029-.28.08-.556.144-.833l.257.258-.234.233a.151.151 0 1 0 .215.215l.234-.234.296.296a.151.151 0 1 0 .215-.215l-.297-.295.303-.302.364.364-.006.007a.151.151 0 1 0 .215.214l.006-.006.017.017a.152.152 0 0 0 .214-.215l-.017-.017.26-.261.443.443c.052.052.13.064.202.005l-.021 1.659c-.756.094-1.585.134-2.394-.007"/></svg>