<svg xmlns="http://www.w3.org/2000/svg" width="96" height="96" fill="none" viewBox="0 0 96 96"><path fill="#06c" d="M26.341 88.401q-1.061 0-2.12-.08a.727.727 0 0 1-.376-1.312c3.64-2.672 6.738-6.437 9.005-10.933C12.958 74.365 1.848 59.436 1.471 45.99c-.355-12.867 8.376-23.446 17.183-28.223 9.5-5.147 20.135-5.73 30.867-5.534 9.194.171 18.886.932 27.48 5.312 9.55 4.875 16.206 14.011 17.365 23.841 1.664 14.122-8.425 34.985-35.21 34.985-1.443 0-2.965-.057-4.522-.167a66 66 0 0 0-4.37-.153 29.1 29.1 0 0 1-5.4 5.796c-5.196 4.227-11.775 6.554-18.523 6.554m-.074-1.456h.076c6.413 0 12.666-2.212 17.606-6.227a27.8 27.8 0 0 0 5.338-5.81.73.73 0 0 1 .599-.313c1.773 0 3.36.05 4.85.157 30.033 2.14 39.774-19.734 38.189-33.196-1.106-9.352-7.46-18.058-16.584-22.715-8.33-4.246-17.824-4.987-26.845-5.154-10.419-.19-20.893.345-30.147 5.359C10.93 23.61 2.587 33.699 2.926 45.949c.365 13.043 11.385 27.553 31.09 28.755.24.014.459.147.581.355a.72.72 0 0 1 .034.679c-2.092 4.47-4.96 8.308-8.364 11.207"/><path fill="#06c" d="M41.769 59.094q-.368 0-.719-.066a3.995 3.995 0 0 1-3.268-3.658c-.13-1.884-.275-4.016.102-6.24.49-2.892 1.84-5.38 3.802-7.01 2.222-1.848 4.745-2.35 6.967-2.792.604-.12 1.094-.218 1.57-.338 2.344-.583 4.181-1.783 5.04-3.296.71-1.249.622-2.983-.19-3.712-.612-.55-1.935-.712-3.008-.36-1.645.542-2.975 1.956-3.802 3.048-1.291 1.705-3.89 2.07-5.601.774a3.97 3.97 0 0 1-1.546-2.64 3.97 3.97 0 0 1 .773-2.96c2.17-2.867 4.825-4.878 7.678-5.818 3.84-1.264 8.087-.474 10.85 2.009 3.598 3.233 4.37 9.083 1.797 13.609-1.964 3.454-5.536 5.978-10.058 7.104-.636.157-1.288.289-1.94.42-1.356.27-2.757.548-3.423 1.1-.479.398-.863 1.218-1.027 2.196-.218 1.291-.116 2.78-.007 4.353a4.006 4.006 0 0 1-3.99 4.277m11.529-29.122c1.089 0 2.09.34 2.749.93 1.319 1.185 1.536 3.658.481 5.512-1.054 1.855-3.223 3.31-5.952 3.989a31 31 0 0 1-1.524.328c-2.168.432-4.496.896-6.437 2.508-1.694 1.407-2.867 3.586-3.297 6.135-.35 2.053-.21 4.093-.086 5.894a2.54 2.54 0 0 0 2.537 2.371l.177-.006a2.546 2.546 0 0 0 2.362-2.712c-.114-1.663-.222-3.235.025-4.697.224-1.33.783-2.45 1.533-3.072.949-.788 2.463-1.09 4.067-1.408.631-.127 1.26-.252 1.872-.406 4.134-1.03 7.382-3.306 9.146-6.412 2.243-3.944 1.596-9.022-1.504-11.808-2.38-2.138-6.078-2.813-9.424-1.709-2.57.845-4.982 2.683-6.973 5.314a2.53 2.53 0 0 0-.493 1.883 2.53 2.53 0 0 0 .985 1.68c1.092.825 2.742.59 3.563-.491.95-1.257 2.507-2.893 4.508-3.552a5.3 5.3 0 0 1 1.685-.27M41.59 69.865c-1.358 0-2.645-.665-3.363-1.734-.64-.959-.856-2.207-.606-3.519.316-1.65 1.353-3.046 2.704-3.64 1.537-.68 3.14-.307 4.231.954.944 1.088 1.417 2.73 1.208 4.183-.243 1.684-1.474 3.13-3.06 3.597a4 4 0 0 1-1.114.159m.283-7.782a2.4 2.4 0 0 0-.962.22c-.92.405-1.633 1.394-1.86 2.583-.175.919-.034 1.808.387 2.436.567.848 1.84 1.292 2.856.99 1.038-.305 1.87-1.297 2.032-2.41.152-1.054-.187-2.241-.867-3.024-.315-.363-.845-.795-1.586-.795"/><path fill="#06c" d="M5.834 76.073C1.498 72.08 1.724 65.228 3.38 60.15c4.393-13.474 16.962-22.533 28.68-29.616a349 349 0 0 1 37.153-19.507C75.037 8.403 83.47 5.433 89.46 9.89c4.367 3.251 7.431 10.885 1.696 21.7a.726.726 0 1 1-1.284-.68c5.303-10.001 2.624-16.945-1.282-19.853-5.37-4-13.291-1.177-18.78 1.296a347 347 0 0 0-36.997 19.425C21.322 38.723 9.006 47.58 4.763 60.6 3.246 65.252 2.99 71.478 6.82 75.005c5.135 4.727 13.903 1.87 20.944-.428l.732-.238a.73.73 0 0 1 .916.467.73.73 0 0 1-.467.916l-.73.239c-7.42 2.417-16.621 5.415-22.381.113"/><path fill="#06c" d="m68.159 75.888-.851-.278a.727.727 0 1 1 .452-1.381l.852.278c7.13 2.337 16.003 5.247 21.163.497 3.83-3.525 3.575-9.753 2.058-14.405-4.246-13.02-16.562-21.876-28.05-28.823a348 348 0 0 0-36.997-19.425c-5.49-2.473-13.413-5.295-18.782-1.296-3.893 2.899-6.574 9.82-1.317 19.782a.728.728 0 0 1-1.288.679C-.285 20.74 2.781 13.13 7.135 9.89c5.99-4.457 14.424-1.488 20.247 1.134a349 349 0 0 1 37.153 19.507c11.717 7.085 24.287 16.144 28.681 29.618 1.657 5.08 1.88 11.933-2.455 15.924-5.79 5.327-15.104 2.274-22.602-.185M60.34 74.882l-5.87-5.871a.364.364 0 1 1 .515-.513l5.87 5.87a.363.363 0 1 1-.514.514"/><path fill="#06c" d="m64.594 74.686-5.673-5.673a.363.363 0 1 1 .515-.513l5.673 5.672a.364.364 0 1 1-.515.514M69.85 71.465l-4.321-4.32a.363.363 0 1 1 .515-.515l4.321 4.32a.363.363 0 1 1-.515.515M74.52 70.678l-4.251-4.251a.364.364 0 1 1 .513-.515l4.252 4.251a.363.363 0 1 1-.513.515M79.532 67.074l-3.376-3.376a.364.364 0 1 1 .515-.515l3.376 3.376a.364.364 0 1 1-.515.515M83.418 63.636l-2.81-2.81a.363.363 0 1 1 .516-.514l2.809 2.809a.363.363 0 0 1-.515.515M87.072 60.25l-3.303-3.303a.364.364 0 1 1 .515-.515l3.303 3.303a.364.364 0 1 1-.515.515M89.817 57.25l-2.458-2.457a.363.363 0 1 1 .513-.515l2.46 2.458a.364.364 0 1 1-.515.515M91.419 53.251l-2.48-2.48a.364.364 0 1 1 .513-.515l2.48 2.48a.364.364 0 1 1-.513.515M92.191 49.717 90.374 47.9a.363.363 0 1 1 .515-.515l1.817 1.817a.363.363 0 1 1-.515.515M54.396 73.392l-3.662-3.66a.363.363 0 1 1 .515-.516l3.662 3.661a.363.363 0 1 1-.515.515M49.824 75.282l-3.971-3.973a.364.364 0 1 1 .515-.515l3.97 3.973a.363.363 0 1 1-.514.515M46.116 77.894l-3.138-3.137a.364.364 0 1 1 .515-.515l3.137 3.137a.363.363 0 0 1-.515.515M42.78 80.502l-3.224-3.225a.364.364 0 1 1 .515-.515l3.225 3.225a.364.364 0 1 1-.515.515M39.193 82.671l-3.174-3.174a.36.36 0 0 1 0-.513.36.36 0 0 1 .514 0l3.173 3.174a.364.364 0 1 1-.513.513M35.9 84.39l-2.344-2.343a.364.364 0 1 1 .515-.515l2.343 2.343a.363.363 0 1 1-.515.515M33.096 85.697l-1.925-1.925a.363.363 0 1 1 .515-.515l1.925 1.925a.363.363 0 1 1-.515.515M29.326 86.86l-1.196-1.197a.364.364 0 1 1 .515-.515l1.196 1.197a.364.364 0 1 1-.515.515"/><path fill="#06c" d="M26.978 86.978a.364.364 0 0 1 0-.515l6.942-6.943a.363.363 0 1 1 .515.515l-6.944 6.943a.36.36 0 0 1-.513 0M32.24 86.156a.364.364 0 0 1 0-.515l7.547-7.548a.364.364 0 1 1 .515.515l-7.547 7.548a.36.36 0 0 1-.515 0M40.214 81.716a.364.364 0 0 1 0-.515l6.52-6.519a.364.364 0 1 1 .514.515l-6.52 6.52a.363.363 0 0 1-.514 0M42.269 75.47a.364.364 0 0 1 0-.515l4.337-4.34a.364.364 0 1 1 .515.516l-4.337 4.338a.363.363 0 0 1-.515 0M47.449 74.154a.364.364 0 0 1 0-.515l4.954-4.954a.364.364 0 1 1 .515.515l-4.954 4.954a.365.365 0 0 1-.515 0M52.709 73.662a.363.363 0 0 1 0-.515l4.722-4.725a.364.364 0 1 1 .515.515l-4.723 4.725a.365.365 0 0 1-.514 0M56.08 75.06a.363.363 0 0 1 0-.515l7.198-7.199a.363.363 0 1 1 .515.515l-7.199 7.199a.365.365 0 0 1-.514 0M60.025 74.299l7.128-7.128a.363.363 0 1 1 .514.515l-7.127 7.127c-.342.34-.854-.177-.515-.514M67.918 71.606a.363.363 0 0 1 0-.515l8.57-8.57a.363.363 0 1 1 .514.515l-8.57 8.57a.365.365 0 0 1-.514 0M74.505 69.821a.363.363 0 0 1-.257-.62l8.18-8.181a.363.363 0 1 1 .515.515l-8.18 8.18a.36.36 0 0 1-.258.106M82.22 64.783a.363.363 0 0 1 0-.515l4.768-4.768c.338-.337.856.173.515.515l-4.768 4.768a.365.365 0 0 1-.515 0M84.11 58.865a.364.364 0 0 1 0-.515l3.92-3.919a.364.364 0 1 1 .514.515l-3.918 3.919a.365.365 0 0 1-.515 0M88.468 52.945a.364.364 0 0 1 0-.516l2.293-2.292a.363.363 0 1 1 .514.515l-2.292 2.292a.36.36 0 0 1-.515 0M68.466 74.966a.363.363 0 0 1-.257-.621l4.54-4.54a.363.363 0 1 1 .516.514l-4.542 4.541a.37.37 0 0 1-.257.106M67.758 73.657l-2.204-2.202a.363.363 0 1 1 .515-.515l2.204 2.202a.363.363 0 1 1-.515.515"/><path fill="#06c" d="M65.205 73.708a.363.363 0 0 1 0-.515l1.642-1.644c.345-.341.85.178.515.515l-1.642 1.644a.365.365 0 0 1-.515 0M42.262 69.065a.36.36 0 0 1-.257-.107l-1.763-1.763a.363.363 0 1 1 .515-.514l1.763 1.763a.364.364 0 0 1-.258.62M43.144 67.925a.36.36 0 0 1-.258-.107l-1.4-1.4a.364.364 0 1 1 .515-.515l1.4 1.4a.364.364 0 0 1-.257.622M44.372 65.835a.36.36 0 0 1-.258-.106l-1.54-1.54a.364.364 0 1 1 .513-.516l1.54 1.54a.363.363 0 0 1-.256.622"/><path fill="#06c" d="M39.98 68.701a.364.364 0 0 1-.258-.621l2.036-2.037a.363.363 0 1 1 .515.514l-2.036 2.038a.36.36 0 0 1-.257.106M42.78 65.85a.365.365 0 0 1-.257-.62l1.465-1.465a.364.364 0 1 1 .515.515l-1.465 1.465a.37.37 0 0 1-.258.106"/></svg>