<svg xmlns="http://www.w3.org/2000/svg" width="48" height="48" fill="none" viewBox="0 0 48 48"><path fill="#000" d="M1.134 47.165a.364.364 0 0 0 .514 0l.793-.793c.919.654 1.925.367 2.976-.046A93 93 0 0 0 9.56 44.58a287 287 0 0 0 17.944-.03c4.886-.161 6.073-1.783 6.194-6.063.072-2.478.167-5.122.31-8.543a65.2 65.2 0 0 0 11.795-12.143c.442-.593.89-1.236 1.082-1.984.231-.895 0-1.81-.588-2.332-.882-.774-2.162-.508-3.266-.154-.416-1.387-2.004-2.614-5.132-2.064a16.2 16.2 0 0 0-3.161.917c.027-.757.05-1.519.074-2.307a.37.37 0 0 0-.078-.236c-3.614-4.58-8.867-8.11-10.281-8.813-.057-.028-.077-.044-.16-.044L5.254.727C3.055.71 2.458 1.518 2.458 3.363c.029 35.566-.987 37.331.34 39.354-.364.46-.734.946-.926 1.5-.198.573-.156 1.158.087 1.61l-.824.825a.36.36 0 0 0 0 .513m2.141-5.053a3 3 0 0 1-.242-.667l.881-.881.352.352c-.33.399-.67.793-.99 1.196M4.5 40.634l-.328-.328 1.001-1c.05-.05.052-.119.031-.181l.317.316c-.16.182-.325.36-.484.545-.183.214-.356.433-.537.648m2.675-3.02a.18.18 0 0 0-.045-.11l-.462-.462 1.15-1.15.529.529c-.393.396-.79.789-1.172 1.194m12.257-9.512c.393.727 4.357 6.167 5.237 6.98-.727.64-6.195 4.37-12.617 7.52l-3.626-5.223c4.521-4.65 8.098-7.183 11.006-9.277m-9.357 6.632-.47-.469.87-.87.497.498q-.453.418-.897.841m4.041-3.541q-.68.553-1.348 1.125l-.272-.272 1.237-1.237zm1.62-1.277-.379-.378 1.02-1.02.524.523c-1.13.827-.7.521-1.166.875m11.474 3.852c-.104 1.231-.976 1.554-1.791.985-.944-.654-5.298-6.72-5.437-7.273-.207-.892.281-1.456.787-1.456 1.088 0 6.677 6.03 6.44 7.744M25.9 35.725l-.133.133-.235-.234c.122.044.245.081.368.101m.515 0c.187-.025.26-.008.576-.194l.296.296-.776.776-.487-.488zM23.95 37.58c-.03.008-.06.012-.084.035l-1.317 1.317-.271-.27 1.376-1.378zm-9.356 4.55-.501.502-.16-.16c0-.002.66-.341.661-.341m3.206-1.763.6.6-1.329 1.328-.975-.974a108 108 0 0 0 1.704-.954m3.535-2.14c.064.073.36.365.428.434l-.087.087a.182.182 0 1 0 .257.258l.087-.087.271.27-1.232 1.233-1.248-1.249c.56-.342.987-.604 1.524-.946m.685.177-.377-.378a87 87 0 0 0 1.66-1.092l.093.093zm-8.426 4.243.241.242-1 1c-.01.01-.008.023-.014.034-.59-.011-1.177-.016-1.766-.03.631-.298 1.78-.859 2.539-1.246m.499.5.812.811c-.532-.005-1.065-.018-1.598-.027zm18.878-4.681c-.112 3.94-1.042 5.209-5.49 5.357-4.049.136-8.167.182-12.3.14a.18.18 0 0 0-.004-.247l-.827-.827 1.35-1.35.066-.036 1.05 1.05-1.002 1a.182.182 0 1 0 .258.258l1-1 .297.295a.182.182 0 1 0 .257-.257l-.296-.296 1.329-1.328.66.66a.182.182 0 1 0 .257-.257l-.66-.66.932-.933a.182.182 0 1 0-.258-.258l-.932.933-.532-.533c.321-.186.973-.571 1.367-.81l1.31 1.31-.184.185a.182.182 0 0 0 .257.257l.184-.184.089.089a.182.182 0 1 0 .257-.257l-.088-.089 1.232-1.232.482.483a.182.182 0 1 0 .258-.257l-.483-.483 1.317-1.317c.023-.023.027-.054.035-.084l.675.675a.182.182 0 1 0 .257-.257l-1.181-1.182a.18.18 0 0 0-.005-.246.18.18 0 0 0-.246-.005l-.047-.047c.528-.358 1.005-.66 1.465-1.047l.435.435-.663.664a.182.182 0 1 0 .257.258l.664-.664.488.488-.64.64a.182.182 0 1 0 .257.257l.64-.64.41.409a.182.182 0 1 0 .257-.258l-.41-.408.777-.776.358.358a.182.182 0 1 0 .258-.256l-.378-.379c.025-.065.025-.138-.028-.191s-.126-.053-.191-.028l-.278-.277c.327-.305.55-.741.616-1.223q.07-.026.14-.054l.759.759-.448.448a.182.182 0 1 0 .257.257l.448-.448.208.208a.182.182 0 1 0 .258-.257l-.208-.208 1.04-1.04.219.219a.182.182 0 1 0 .257-.257l-.24-.24c.025-.064.024-.135-.028-.187s-.123-.052-.188-.03l-.382-.38q.477-.322.949-.652l.294.294a.18.18 0 0 0 .047.143c.04.04.075.053.143.047l.2.2a.182.182 0 1 0 .257-.258l-.166-.166.776-.776.185.186a.182.182 0 1 0 .258-.257l-.186-.186.224-.224a.182.182 0 1 0-.257-.257l-.224.224-.056-.056c.272-.202.55-.4.817-.605-.132 3.128-.22 5.6-.288 7.93m-.827-7.105.093.093-.776.776-.213-.213c.487-.346.496-.363.896-.656m-2.454 1.726.41.409-1.04 1.04-.665-.664c.547-.275.85-.49 1.295-.785M45.816 14.03c.44.389.5 1.086.366 1.606 0 0-.048.505-.962 1.73a64.5 64.5 0 0 1-11.794 12.115c-1.116.882-4.285 3.26-5.529 3.83-.361-2.067-3.923-5.83-5.553-7.176 0 0 11.488-7.53 12.006-7.856 1.99-1.258 9.81-5.703 11.466-4.249m-10.364 1.975a3.7 3.7 0 0 1 1.323-.003c-.694.377-1.422.801-2.228 1.298l.042-1.041c.29-.111.577-.2.863-.254m2.574-4.021c1.758-.31 3.838-.078 4.32 1.573a36.6 36.6 0 0 0-4.662 1.966c-.566-.266-1.45-.4-2.363-.232-2.86.538-8.491 5.28-10.627 7.294-1.01.97-1.478.521-1.195-.306.58-1.708 6.376-7.194 11.003-9.212a15.6 15.6 0 0 1 3.524-1.084M24.552 1.74c2.518 1.566 4.748 3.283 6.672 5.132l-.402.402-.02-.02a.182.182 0 1 0-.257.257l.02.02-.205.206a.182.182 0 1 0 .257.257l.205-.205.41.41-.594.595-1.058-1.057a.18.18 0 0 0-.257 0c-.062.062-.06.153-.014.224-.014.008-.031.006-.043.017l-.871.871-.63-.631a.182.182 0 0 0-.257.257l.63.63-.687.689-.799-.8.764-.763a.182.182 0 1 0-.257-.258l-.848.848c-.021.01-.046.01-.063.027s-.018.041-.026.063l-.883.883-.464-.464a.182.182 0 1 0-.258.257l.465.464-.5.498c-.555-.335-.573-.998-.566-1.652.03-2.329.1-4.788.536-7.157m7.628 7.407c.013.013.031.011.046.02l-.624.623c-.009-.018-.007-.04-.023-.054l-.686-.686.595-.595zm-2.692.795-.837-.836.872-.87c.008-.009.006-.021.012-.03l.844.844zm-4.15.365.265.265a.182.182 0 1 0 .258-.257l-.265-.265.799-.799.798.8-.427.427c-.054.055-.053.132-.024.199q-.285.032-.57.062c-.435.042-.862.047-1.225-.04zm2.112 0 .262.263q-.294.034-.589.064zm.537.024-.28-.28.688-.688.835.836-.21.21q-.505.067-1.012.129c.035-.069.037-.15-.02-.207m1.796-.024a.2.2 0 0 0-.043-.103l.897-.897.686.687a.18.18 0 0 0 .13.053c.004 0 .009-.006.014-.006q.002.007.006.014-.844.135-1.69.252m3.312-1.494c.244.277.476.56.707.842q-.935.175-1.88.33zm-.247-.267-.39.39c-.009-.015-.007-.033-.02-.046l-.715-.714c.02-.063.018-.13-.032-.18-.049-.05-.117-.052-.18-.032l-.432-.433.404-.404q.711.697 1.365 1.419M3.185 3.362c0-1.437.273-1.922 2.066-1.908l18.604.055c-.462 2.455-.536 4.986-.566 7.379-.027 2.152.925 2.77 2.954 2.574a89 89 0 0 0 7.827-1.117q-.031 1.072-.07 2.146c-4.312 1.946-10.462 7.404-11.19 9.552-.52 1.52.795 2.596 2.385 1.068 3.623-3.415 7.432-5.91 8.654-6.529l-.048 1.183c-.375.237-12.039 7.907-12.039 7.907-.234-.168-.503-.318-.816-.363-.86-.125-1.892.657-1.716 2.066-.24.146-.43.291-.653.464l-.328-.328.308-.308a.182.182 0 1 0-.257-.257l-.308.307-.431-.432a.182.182 0 1 0-.257.257l.432.433-.592.592a.182.182 0 1 0 .257.257l.592-.592.29.289q-.542.373-1.085.766l-.562-.562.775-.774a.182.182 0 1 0-.258-.258l-.774.775-.03-.029a.182.182 0 1 0-.257.258l.03.028-1.02 1.02-.18-.18a.182.182 0 1 0-.258.258l.18.18-.422.423a.182.182 0 1 0 .258.257l.422-.422.347.347q-.524.407-1.044.824l-.913-.913a.182.182 0 1 0-.257.257l.242.242-1.237 1.238-.35-.351a.182.182 0 1 0-.258.258l.35.35-.22.22a.182.182 0 1 0 .257.257l.22-.22.253.253c-.42.361-.843.717-1.254 1.089l-.507-.506.783-.783a.182.182 0 1 0-.257-.257l-.784.78-.1-.1a.182.182 0 1 0-.258.257l.1.1-.868.87-.187-.188a.182.182 0 1 0-.257.258l.188.187-.468.467a.182.182 0 1 0 .257.258l.467-.468.46.46q-.61.583-1.207 1.18l-.527-.527.104-.103a.182.182 0 1 0-.258-.258l-.103.104-.26-.26a.182.182 0 1 0-.257.258l.26.259-1.15 1.15-.281-.28a.182.182 0 1 0-.258.257l.281.28-.796.797a.182.182 0 1 0 .257.257l.797-.797.462.462a.18.18 0 0 0 .118.048c-.417.445-.82.904-1.226 1.361l-.804-.804a.182.182 0 1 0-.257.258l.394.393c-.063-.02-.131-.02-.181.031l-1.001 1-.384-.383a.182.182 0 1 0-.257.257l.384.384-.708.708c-.087-.584-.09-1.185-.087-1.77l.843-.842.426.425a.182.182 0 1 0 .257-.257l-.426-.426.487-.487a.182.182 0 1 0-.258-.257l-.486.486-.828-.827.003-.364.619-.616.528.529a.182.182 0 1 0 .257-.258l-.529-.528.69-.689a.182.182 0 1 0-.258-.257l-.688.688-.601-.6c.086-9.14.29-26.58.287-31.603m-.292 32.112.348.348-.355.355zm-.018 2.096.574.574-.583.584zm-.317 6.886c.41-1.182 4.304-5.453 5.348-6.548l3.485 5.02a91.818 91.818 0 0 1-6.24 2.723c-.726.285-1.969.731-2.52-.086-.19-.28-.217-.694-.073-1.11"/><path fill="#000" d="m8.368 11.89 1.126-1.126 1.12 1.121a.182.182 0 1 0 .258-.258l-1.12-1.12 1.276-1.277 1.806 1.807-.914.914-.708-.708a.182.182 0 1 0-.257.258l.708.708-1.5 1.5-1.07-1.071a.182.182 0 1 0-.258.257l1.07 1.07-1.572 1.573a.182.182 0 1 0 .258.258l1.572-1.573 1.24 1.24a.182.182 0 1 0 .257-.257l-1.24-1.24 1.5-1.5 1.364 1.364a.182.182 0 1 0 .258-.257l-1.364-1.364.914-.915 1.085 1.086a.182.182 0 1 0 .258-.257l-1.086-1.086 1.026-1.026.89.891a.182.182 0 1 0 .258-.256l-.891-.891.266-.266a.18.18 0 0 0 0-.257.18.18 0 0 0-.256 0l-.267.266-.875-.875a.182.182 0 1 0-.258.258l.875.875-1.025 1.025-1.807-1.807 1.89-1.89.744.744a.182.182 0 1 0 .258-.257l-.743-.744.196-.197a.18.18 0 0 0 0-.257.18.18 0 0 0-.257 0l-.197.196-.791-.79a.182.182 0 1 0-.258.256l.792.791-1.89 1.89-.988-.987a.182.182 0 1 0-.257.257l.987.987-1.276 1.276-.624-.624a.182.182 0 1 0-.257.257l.624.625-1.126 1.126a.182.182 0 0 0 .256.257M39.12 18.378l-2.209 1.354-.202-.357a.182.182 0 0 0-.316.18l.207.366-2.374 1.456a1.6 1.6 0 0 1-.16-.457.182.182 0 0 0-.358.059c.034.206.111.401.209.587l-1.621.994-.122-.27a.182.182 0 1 0-.332.15l.142.312-2.518 1.543a3.5 3.5 0 0 1-.19-.646.18.18 0 0 0-.21-.147.18.18 0 0 0-.148.21c.046.265.131.524.234.775l-1.94 1.189a.182.182 0 1 0 .19.31l1.901-1.165c.151.289.333.562.55.801a.182.182 0 1 0 .269-.244 3.5 3.5 0 0 1-.51-.747l2.521-1.545.278.617a.18.18 0 0 0 .241.091c.092-.041.133-.15.092-.24l-.298-.66 1.667-1.022c.13.168.279.321.455.438a.182.182 0 0 0 .202-.302 1.6 1.6 0 0 1-.346-.327l2.356-1.443.282.495a.182.182 0 0 0 .316-.18l-.287-.505 2.218-1.36a.183.183 0 0 0 .06-.25.183.183 0 0 0-.25-.06M13.225 36.418c.159.174.335.332.54.445a.183.183 0 0 0 .247-.072.183.183 0 0 0-.072-.247c-.161-.09-.3-.211-.427-.346l1.193-.908.186.302a.182.182 0 0 0 .31-.19l-.205-.333 1.288-.98.253.276a.182.182 0 1 0 .268-.246l-.23-.252.917-.699a.18.18 0 0 0 .034-.254.18.18 0 0 0-.254-.035l-.944.72-.336-.366a.182.182 0 0 0-.267.246l.312.34-1.232.94-.194-.316a.182.182 0 0 0-.31.19l.213.346-1.226.934a1.8 1.8 0 0 1-.267-.668.181.181 0 1 0-.358.059c.049.295.17.577.334.83l-1.506 1.146a.18.18 0 0 0-.035.255.18.18 0 0 0 .255.034z"/></svg>