<svg width="48" height="48" viewBox="0 0 48 48" fill="none" xmlns="http://www.w3.org/2000/svg">
<path d="M1.13362 47.1654C1.27543 47.3072 1.50598 47.3072 1.6478 47.1654L2.44125 46.3719C3.3598 47.0257 4.36634 46.7392 5.41725 46.3261C6.80634 45.7806 8.19907 45.1923 9.5598 44.5799C15.602 44.7566 21.6063 44.7472 27.5045 44.5501C32.3896 44.3886 33.5765 42.7668 33.698 38.4868C33.77 36.009 33.8653 33.3654 34.0078 29.9443C38.4507 26.425 42.4194 22.3414 45.8027 17.801C46.2449 17.2075 46.6929 16.5654 46.8849 15.817C47.1162 14.9217 46.8856 14.0068 46.2965 13.4846C45.4151 12.7108 44.1351 12.977 43.0311 13.3305C42.6151 11.9443 41.0274 10.7174 37.8987 11.2672C36.8551 11.4512 35.7947 11.7639 34.738 12.1843C34.7649 11.4265 34.7889 10.665 34.8122 9.87664C34.8143 9.79154 34.7867 9.70791 34.7343 9.641C31.1198 5.06136 25.8674 1.53118 24.4529 0.827908C24.3962 0.799544 24.3758 0.783544 24.2936 0.783544L5.25362 0.726817C3.05434 0.710089 2.45725 1.51809 2.45725 3.36318C2.48562 38.929 1.46962 40.6941 2.79762 42.7174C2.43325 43.1777 2.06307 43.6628 1.87107 44.2177C1.67325 44.7901 1.71471 45.3748 1.95834 45.8279L1.13434 46.6519C0.991798 46.7937 0.991798 47.0235 1.13362 47.1654ZM3.27543 42.1115C3.1678 41.905 3.09216 41.6795 3.03253 41.4454L3.91398 40.5639L4.26598 40.9159C3.93507 41.3145 3.59543 41.7086 3.27543 42.1115ZM4.49871 40.6337L4.17144 40.3065L5.17216 39.3057C5.22234 39.2555 5.2238 39.1872 5.20343 39.1246L5.5198 39.441C5.35907 39.6235 5.19471 39.8017 5.03616 39.9857C4.85289 40.2003 4.6798 40.4185 4.49871 40.6337ZM7.17434 37.6148C7.16998 37.5748 7.15907 37.5348 7.12853 37.5043L6.66671 37.0425L7.81725 35.8919L8.34598 36.4206C7.95325 36.817 7.55689 37.2097 7.17434 37.6148ZM19.4311 28.1021C19.8238 28.8294 23.7882 34.2694 24.6682 35.0817C23.9409 35.7225 18.4725 39.4526 12.0507 42.6017L8.42453 37.3792C12.946 32.7297 16.5227 30.1959 19.4311 28.1021ZM10.074 34.7341L9.60489 34.265L10.4733 33.3959L10.9707 33.8934C10.6682 34.1697 10.3714 34.4526 10.074 34.7341ZM14.1154 31.193C13.6609 31.561 13.2136 31.9385 12.7671 32.3181L12.4951 32.0461L13.7322 30.809L14.1154 31.193ZM15.7343 29.9159L15.3562 29.5377L16.3765 28.5174L16.9002 29.041C15.77 29.8679 16.1991 29.5625 15.7343 29.9159ZM27.2085 33.7683C27.1053 34.9995 26.2325 35.3225 25.418 34.753C24.474 34.0992 20.1198 28.0323 19.9809 27.4803C19.7743 26.5879 20.2623 26.0243 20.7685 26.0243C21.8558 26.0243 27.4449 32.0534 27.2085 33.7683ZM25.9009 35.7254L25.7678 35.8585L25.5329 35.6235C25.6551 35.6679 25.778 35.705 25.9009 35.7254ZM26.4158 35.7246C26.6027 35.6999 26.6769 35.7174 26.9925 35.5312L27.2885 35.8272L26.5125 36.6032L26.0253 36.1152L26.4158 35.7246ZM23.9496 37.5814C23.9198 37.5894 23.8893 37.593 23.866 37.6163L22.5489 38.9334L22.2776 38.6621L23.6543 37.2854L23.9496 37.5814ZM14.594 42.1319L14.0929 42.633L13.9322 42.4723C13.9329 42.4715 14.5933 42.1319 14.594 42.1319ZM17.7998 40.3683L18.3998 40.9683L17.0711 42.2963L16.0958 41.3217C16.7307 40.9741 17.5133 40.5341 17.7998 40.3683ZM21.3351 38.2279C21.3991 38.3006 21.6943 38.593 21.7634 38.6621L21.6762 38.7494C21.6049 38.8206 21.6049 38.9355 21.6762 39.0068C21.7474 39.0781 21.8623 39.0781 21.9329 39.0068L22.0202 38.9195L22.2914 39.1908L21.0594 40.4228L19.8107 39.1741C20.3707 38.8323 20.7983 38.5697 21.3351 38.2279ZM22.0202 38.4046L21.6427 38.0272C22.2005 37.6694 22.7547 37.3057 23.3038 36.9355L23.3962 37.0279L22.0202 38.4046ZM13.594 42.6483L13.8354 42.8897L12.8347 43.8905C12.8253 43.8999 12.8274 43.913 12.8209 43.9239C12.2318 43.913 11.6442 43.9079 11.0551 43.8934C11.6863 43.5959 12.8347 43.0352 13.594 42.6483ZM14.0929 43.1472L14.9053 43.9595C14.3729 43.9537 13.8398 43.9406 13.3074 43.9319L14.0929 43.1472ZM32.9707 38.4665C32.8594 42.4061 31.9293 43.6759 27.4805 43.8243C23.4325 43.9595 19.314 44.0061 15.1802 43.9646C15.2434 43.8934 15.2449 43.785 15.1765 43.7166L14.3503 42.8897L15.6994 41.5406C15.722 41.529 15.7438 41.5159 15.7656 41.5043L16.8151 42.5537L15.8143 43.5545C15.7431 43.6257 15.7431 43.7406 15.8143 43.8119C15.8856 43.8832 16.0005 43.8832 16.0718 43.8119L17.0725 42.8112L17.3685 43.1072C17.4398 43.1785 17.5547 43.1785 17.626 43.1072C17.6973 43.0359 17.6973 42.921 17.626 42.8497L17.33 42.5537L18.6587 41.2257L19.3198 41.8868C19.3911 41.9581 19.506 41.9581 19.5765 41.8868C19.6478 41.8155 19.6478 41.7006 19.5765 41.6294L18.9154 40.9683L19.8478 40.0359C19.9191 39.9646 19.9191 39.8497 19.8478 39.7785C19.7765 39.7072 19.6616 39.7072 19.5903 39.7785L18.658 40.7108L18.1256 40.1777C18.4471 39.9915 19.0987 39.6068 19.4929 39.3683L20.8034 40.6788L20.6194 40.8628C20.5482 40.9341 20.5482 41.049 20.6194 41.1203C20.6907 41.1915 20.8056 41.1915 20.8762 41.1203L21.0602 40.9363L21.1489 41.025C21.2202 41.0963 21.3351 41.0963 21.4063 41.025C21.4776 40.9537 21.4776 40.8388 21.4063 40.7683L21.3176 40.6795L22.5496 39.4475L23.0325 39.9305C23.1038 40.0017 23.2187 40.0017 23.29 39.9305C23.3613 39.8592 23.3613 39.7443 23.29 39.673L22.8071 39.1901L24.1242 37.873C24.1474 37.8497 24.1511 37.8185 24.1591 37.7894L24.834 38.4643C24.9053 38.5355 25.0202 38.5355 25.0914 38.4643C25.1627 38.393 25.1627 38.2781 25.0914 38.2068L23.9096 37.025C23.9722 36.9537 23.9729 36.8468 23.9053 36.7785C23.8369 36.7101 23.73 36.7115 23.6587 36.7741L23.6122 36.7275C24.1402 36.369 24.6173 36.0679 25.0769 35.6795L25.5125 36.1152L24.8485 36.7792C24.7773 36.8505 24.7773 36.9654 24.8485 37.0366C24.9198 37.1079 25.0347 37.1079 25.106 37.0366L25.77 36.3726L26.258 36.8606L25.618 37.5006C25.5467 37.5719 25.5467 37.6868 25.618 37.7581C25.6893 37.8294 25.8042 37.8294 25.8754 37.7581L26.5154 37.1181L26.9242 37.5268C26.9954 37.5981 27.1103 37.5981 27.1816 37.5268C27.2529 37.4555 27.2529 37.3406 27.1816 37.2694L26.7729 36.8606L27.5489 36.0846L27.9074 36.4432C27.9787 36.5145 28.0936 36.5145 28.1649 36.4432C28.2362 36.3719 28.2362 36.257 28.1649 36.1865L27.7867 35.8083C27.8122 35.7428 27.8122 35.6701 27.7591 35.617C27.706 35.5639 27.6333 35.5639 27.5678 35.5894L27.29 35.3115C27.6173 35.0068 27.8405 34.5705 27.906 34.089C27.9525 34.0708 27.9998 34.0548 28.0463 34.0352L28.8049 34.7937L28.3569 35.2417C28.2856 35.313 28.2856 35.4279 28.3569 35.4992C28.4282 35.5705 28.5431 35.5705 28.6143 35.4992L29.0623 35.0512L29.2703 35.2592C29.3416 35.3305 29.4565 35.3305 29.5278 35.2592C29.5991 35.1879 29.5991 35.073 29.5278 35.0017L29.3198 34.7937L30.3598 33.7537L30.5787 33.9726C30.65 34.0439 30.7649 34.0439 30.8362 33.9726C30.9074 33.9014 30.9074 33.7865 30.8362 33.7159L30.5969 33.4766C30.6209 33.4119 30.6202 33.3406 30.5678 33.289C30.5162 33.2374 30.4449 33.2366 30.3802 33.2599L29.9983 32.8781C30.3162 32.6635 30.6325 32.4475 30.9467 32.2272L31.2405 32.521C31.2362 32.5726 31.2478 32.6243 31.2878 32.6643C31.3271 32.7035 31.3634 32.7174 31.4311 32.7115L31.6303 32.9108C31.7016 32.9821 31.8165 32.9821 31.8878 32.9108C31.9591 32.8395 31.9591 32.7246 31.8878 32.6534L31.722 32.4875L32.498 31.7115L32.6834 31.897C32.7547 31.9683 32.8696 31.9683 32.9409 31.897C33.0122 31.8257 33.0122 31.7108 32.9409 31.6395L32.7554 31.4541L32.9794 31.2301C33.0507 31.1588 33.0507 31.0439 32.9794 30.9734C32.9082 30.9021 32.7933 30.9021 32.722 30.9734L32.498 31.1974L32.442 31.1414C32.714 30.9385 32.9918 30.7414 33.2594 30.5355C33.1271 33.6643 33.0383 36.1363 32.9707 38.4665ZM32.1438 31.3617L32.2369 31.4548L31.4609 32.2308L31.2478 32.0177C31.7351 31.6723 31.7445 31.6555 32.1438 31.3617ZM29.69 33.0875L30.0994 33.497L29.0594 34.537L28.3954 33.873C28.9416 33.5981 29.2456 33.3835 29.69 33.0875ZM45.8165 14.0301C46.2551 14.4185 46.3162 15.1159 46.1816 15.6359C46.1816 15.6359 46.1336 16.1406 45.2202 17.3661C41.8405 21.9014 37.8725 25.977 33.426 29.481C32.3103 30.3632 29.1409 32.7414 27.8973 33.3108C27.5358 31.2439 23.9743 27.4803 22.3438 26.1348C22.3438 26.1348 33.8318 18.6046 34.3496 18.2788C36.3409 17.0214 44.1605 12.5755 45.8165 14.0301ZM35.4522 16.0054C35.9045 15.9232 36.3547 15.9232 36.7751 16.0017C36.0813 16.3785 35.3525 16.8032 34.5467 17.2999C34.5613 16.953 34.5758 16.6061 34.5889 16.2585C34.8798 16.1479 35.1656 16.0592 35.4522 16.0054ZM38.026 11.9835C39.7838 11.6745 41.8645 11.9057 42.3453 13.5566C40.7336 14.1035 39.0485 14.8272 37.6842 15.5232C37.1176 15.257 36.234 15.1239 35.3205 15.2912C32.4609 15.8286 26.8296 20.5719 24.6943 22.585C23.6834 23.5552 23.2158 23.1065 23.4994 22.2788C24.0783 20.5712 29.8754 15.0846 34.5023 13.0665C35.6791 12.5515 36.8645 12.1886 38.026 11.9835ZM24.5518 1.73991C27.0696 3.30573 29.3002 5.02282 31.2238 6.87227L30.8216 7.27445L30.802 7.25482C30.7307 7.18354 30.6158 7.18354 30.5453 7.25482C30.474 7.32609 30.474 7.441 30.5453 7.51227L30.5649 7.53191L30.3598 7.737C30.2885 7.80827 30.2885 7.92318 30.3598 7.99445C30.4311 8.06573 30.546 8.06573 30.6173 7.99445L30.8223 7.78936L31.2325 8.19954L30.6376 8.79445L29.5802 7.737C29.5089 7.66573 29.394 7.66573 29.3227 7.737C29.2609 7.79882 29.2631 7.89045 29.3089 7.961C29.2951 7.969 29.2776 7.96682 29.266 7.97845L28.3947 8.849L27.7642 8.21773C27.6929 8.14645 27.578 8.14645 27.5074 8.21773C27.4362 8.289 27.4362 8.40391 27.5074 8.47518L28.138 9.10573L27.4507 9.79373L26.6522 8.99445L27.4158 8.23082C27.4871 8.15954 27.4871 8.04464 27.4158 7.97336C27.3445 7.90209 27.2296 7.90209 27.1591 7.97336L26.3111 8.82136C26.29 8.83009 26.2653 8.83009 26.2478 8.84754C26.2303 8.865 26.2303 8.889 26.2216 8.91082L25.3387 9.79373L24.8747 9.32973C24.8034 9.25845 24.6885 9.25845 24.6173 9.32973C24.546 9.401 24.546 9.51591 24.6173 9.58718L25.082 10.0512L24.5823 10.5494C24.0267 10.2141 24.0085 9.55082 24.0165 8.897C24.0456 6.56827 24.1169 4.10863 24.5518 1.73991ZM32.1802 9.14718C32.1933 9.15954 32.2114 9.15809 32.226 9.16609L31.602 9.79009C31.5933 9.77191 31.5947 9.75082 31.5794 9.73627L30.8929 9.04973L31.4878 8.45482L32.1802 9.14718ZM29.4878 9.94209L28.6514 9.10645L29.5227 8.23518C29.5307 8.22718 29.5285 8.21482 29.5351 8.20609L30.3794 9.05045L29.4878 9.94209ZM25.3387 10.3072L25.6034 10.5719C25.6747 10.6432 25.7896 10.6432 25.8609 10.5719C25.9322 10.5006 25.9322 10.3857 25.8609 10.3145L25.5962 10.0497L26.3947 9.25118L27.1933 10.0505L26.7663 10.4781C26.7118 10.5326 26.7125 10.6097 26.7416 10.6766C26.5518 10.6963 26.362 10.7203 26.1729 10.7385C25.7373 10.7806 25.3096 10.7865 24.9474 10.6992L25.3387 10.3072ZM27.45 10.3079L27.7125 10.5705C27.5162 10.593 27.3198 10.6134 27.1234 10.6345L27.45 10.3079ZM27.9874 10.3305L27.7074 10.0505L28.3947 9.36318L29.2303 10.1988L29.0209 10.4083C28.6834 10.4526 28.346 10.4977 28.0078 10.5377C28.0427 10.4694 28.0449 10.3879 27.9874 10.3305ZM29.7831 10.3072C29.7816 10.2701 29.7649 10.2345 29.7402 10.2039L30.6369 9.30718L31.3234 9.99373C31.3591 10.0294 31.4056 10.0468 31.4522 10.0468C31.4573 10.0468 31.4616 10.041 31.4667 10.041C31.4674 10.0461 31.4711 10.0497 31.4725 10.0548C30.9096 10.1443 30.3474 10.2294 29.7831 10.3072ZM33.0951 8.81264C33.3394 9.08973 33.5707 9.37264 33.802 9.65482C33.178 9.77118 32.5518 9.88173 31.9227 9.98427L33.0951 8.81264ZM32.8478 8.54573L32.4573 8.93627C32.4493 8.921 32.4507 8.90282 32.4383 8.89045L31.7234 8.17554C31.7431 8.113 31.7409 8.04536 31.6914 7.99591C31.642 7.94645 31.5743 7.94427 31.5118 7.96391L31.0791 7.53118L31.4827 7.12682C31.9562 7.59227 32.4129 8.06427 32.8478 8.54573ZM3.18453 3.36245C3.18453 1.92536 3.45798 1.43954 5.25071 1.45409L23.8551 1.50863C23.3933 3.96391 23.3191 6.49482 23.2893 8.88754C23.2623 11.0395 24.2143 11.6585 26.2427 11.4621C28.8573 11.2083 31.4871 10.8301 34.0696 10.345C34.0485 11.0592 34.0274 11.7748 34.0005 12.4912C29.6878 14.4374 23.538 19.8955 22.81 22.0432C22.29 23.5639 23.6049 24.6388 25.1947 23.1108C28.818 19.6963 32.6274 17.2003 33.8493 16.5821C33.834 16.9763 33.8173 17.3697 33.8005 17.7654C33.426 18.0017 21.762 25.6723 21.762 25.6723C21.5278 25.5043 21.2594 25.3537 20.946 25.3094C20.0856 25.1843 19.0536 25.9661 19.2296 27.3748C18.9903 27.521 18.7998 27.6665 18.5773 27.8388L18.2493 27.5108L18.5569 27.2032C18.6282 27.1319 18.6282 27.017 18.5569 26.9457C18.4856 26.8745 18.3707 26.8745 18.3002 26.9457L17.9925 27.2534L17.5605 26.8214C17.4893 26.7501 17.3743 26.7501 17.3038 26.8214C17.2325 26.8926 17.2325 27.0075 17.3038 27.0788L17.7358 27.5108L17.1438 28.1028C17.0725 28.1741 17.0725 28.289 17.1438 28.3603C17.2151 28.4315 17.33 28.4315 17.4013 28.3603L17.9933 27.7683L18.2827 28.057C17.922 28.3065 17.5598 28.5603 17.1976 28.8228L16.6362 28.2614L17.4107 27.4868C17.482 27.4155 17.482 27.3006 17.4107 27.2294C17.3394 27.1581 17.2245 27.1581 17.1533 27.2294L16.3787 28.0039L16.3496 27.9755C16.2783 27.9043 16.1634 27.9043 16.0929 27.9755C16.0216 28.0468 16.0216 28.1617 16.0929 28.233L16.122 28.2614L15.1016 29.2817L14.9213 29.1014C14.85 29.0301 14.7351 29.0301 14.6638 29.1014C14.5925 29.1726 14.5925 29.2875 14.6638 29.3588L14.8442 29.5392L14.4223 29.9617C14.3511 30.033 14.3511 30.1479 14.4223 30.2192C14.4936 30.2905 14.6085 30.2905 14.6798 30.2192L15.1016 29.7966L15.4493 30.1443C15.0987 30.4141 14.7518 30.6905 14.4049 30.9675L13.4922 30.0548C13.4209 29.9835 13.306 29.9835 13.2347 30.0548C13.1634 30.1261 13.1634 30.241 13.2347 30.3123L13.4769 30.5545L12.2398 31.7915L11.8893 31.441C11.818 31.3697 11.7031 31.3697 11.6318 31.441C11.5605 31.5123 11.5605 31.6272 11.6318 31.6985L11.9823 32.049L11.7627 32.2686C11.6914 32.3399 11.6914 32.4548 11.7627 32.5261C11.834 32.5974 11.9489 32.5974 12.0194 32.5261L12.2398 32.3065L12.4922 32.5588C12.0725 32.9203 11.6493 33.2759 11.2376 33.6475L10.7314 33.1421L11.514 32.3595C11.5853 32.2883 11.5853 32.1734 11.514 32.1021C11.4427 32.0308 11.3278 32.0308 11.2573 32.1021L10.4733 32.8825L10.3722 32.7814C10.3009 32.7101 10.186 32.7101 10.1147 32.7814C10.0434 32.8526 10.0434 32.9675 10.1147 33.0388L10.2158 33.1399L9.34743 34.0083L9.1598 33.8206C9.08853 33.7494 8.97362 33.7494 8.90307 33.8206C8.8318 33.8919 8.8318 34.0068 8.90307 34.0781L9.09071 34.2657L8.62307 34.7334C8.5518 34.8046 8.5518 34.9195 8.62307 34.9908C8.69434 35.0621 8.80925 35.0621 8.8798 34.9908L9.34743 34.5232L9.8078 34.9835C9.40053 35.3719 8.99762 35.7646 8.5998 36.1625L8.07325 35.6359L8.17653 35.5326C8.2478 35.4614 8.2478 35.3465 8.17653 35.2752C8.10525 35.2039 7.99034 35.2039 7.91907 35.2752L7.8158 35.3785L7.55689 35.1195C7.48562 35.0483 7.37071 35.0483 7.29944 35.1195C7.22816 35.1908 7.22816 35.3057 7.29944 35.377L7.55834 35.6359L6.40853 36.7865L6.1278 36.5057C6.05653 36.4345 5.94162 36.4345 5.87034 36.5057C5.79907 36.577 5.79907 36.6919 5.87034 36.7632L6.15107 37.0439L5.35543 37.8395C5.28416 37.9108 5.28416 38.0257 5.35543 38.097C5.42671 38.1683 5.54162 38.1683 5.61216 38.097L6.40925 37.2999L6.87107 37.7617C6.9038 37.7945 6.94671 37.8083 6.98889 37.8105C6.57216 38.2555 6.16853 38.7145 5.76343 39.1712L4.95907 38.3668C4.8878 38.2955 4.77289 38.2955 4.70234 38.3668C4.63107 38.4381 4.63107 38.553 4.70234 38.6243L5.0958 39.0177C5.03253 38.9974 4.96489 38.9988 4.91471 39.049L3.91398 40.0497L3.52998 39.6665C3.45871 39.5952 3.3438 39.5952 3.27325 39.6665C3.20198 39.7377 3.20198 39.8526 3.27325 39.9239L3.65653 40.3072L2.94889 41.0148C2.86162 40.4315 2.85943 39.8301 2.86234 39.2454L3.70525 38.4025L4.13071 38.8279C4.20198 38.8992 4.31689 38.8992 4.38743 38.8279C4.45871 38.7566 4.45871 38.6417 4.38743 38.5705L3.96198 38.145L4.44853 37.6585C4.5198 37.5872 4.5198 37.4723 4.44853 37.401C4.37725 37.3297 4.26234 37.3297 4.19107 37.401L3.70453 37.8875L2.87689 37.0599C2.87762 36.9428 2.87907 36.8177 2.8798 36.6955L3.49871 36.0795L4.02744 36.609C4.09871 36.6803 4.21362 36.6803 4.28416 36.609C4.35543 36.5377 4.35543 36.4228 4.28416 36.3515L3.75543 35.8228L4.44416 35.1341C4.51543 35.0628 4.51543 34.9479 4.44416 34.8766C4.37289 34.8054 4.25798 34.8054 4.18743 34.8766L3.49871 35.5654L2.89798 34.9646C2.9838 25.825 3.18816 8.38573 3.18453 3.36245ZM2.89289 35.4737L3.24125 35.8221L2.88634 36.177C2.88853 35.9486 2.89071 35.7159 2.89289 35.4737ZM2.87471 37.5697L3.44925 38.1443L2.86598 38.7275C2.86889 38.3792 2.87107 37.9937 2.87471 37.5697ZM2.55834 44.4555C2.9678 43.2737 6.86234 39.0032 7.90598 37.9079L11.3911 42.9275C11.3642 42.9406 9.32125 43.9086 9.33871 43.8846C7.96416 44.505 6.55544 45.0992 5.1518 45.6505C4.42453 45.9363 3.18234 46.3821 2.6318 45.5646C2.44125 45.2854 2.41362 44.8708 2.55834 44.4555Z" fill="black"/>
<path d="M8.36805 11.8901L9.49387 10.7642L10.6146 11.885C10.6859 11.9562 10.8008 11.9562 10.872 11.885C10.9433 11.8137 10.9433 11.6988 10.872 11.6275L9.75132 10.5068L11.0277 9.23043L12.8342 11.037L11.92 11.9512L11.2124 11.2435C11.1411 11.1722 11.0262 11.1722 10.955 11.2435C10.8837 11.3148 10.8837 11.4297 10.955 11.501L11.6626 12.2086L10.163 13.7082L9.09241 12.6377C9.02114 12.5664 8.90623 12.5664 8.83496 12.6377C8.76369 12.709 8.76369 12.8239 8.83496 12.8952L9.9055 13.9657L8.33314 15.5381C8.26187 15.6093 8.26187 15.7242 8.33314 15.7955C8.40441 15.8668 8.51932 15.8668 8.59059 15.7955L10.163 14.2232L11.403 15.4632C11.4742 15.5344 11.5891 15.5344 11.6604 15.4632C11.7317 15.3919 11.7317 15.277 11.6604 15.2057L10.4204 13.9657L11.92 12.4661L13.2844 13.8304C13.3557 13.9017 13.4706 13.9017 13.5419 13.8304C13.6131 13.7592 13.6131 13.6442 13.5419 13.573L12.1775 12.2086L13.0917 11.2944L14.1775 12.3802C14.2488 12.4515 14.3637 12.4515 14.435 12.3802C14.5062 12.309 14.5062 12.1941 14.435 12.1228L13.3491 11.037L14.3746 10.0115L15.2655 10.9024C15.3368 10.9737 15.4517 10.9737 15.523 10.9024C15.5942 10.8312 15.5942 10.7162 15.523 10.6457L14.632 9.75479L14.8982 9.48861C14.9695 9.41734 14.9695 9.30243 14.8982 9.23188C14.827 9.16061 14.712 9.16061 14.6415 9.23188L14.3746 9.49806L13.4997 8.62315C13.4284 8.55188 13.3135 8.55188 13.2422 8.62315C13.171 8.69443 13.171 8.80934 13.2422 8.88061L14.1171 9.75552L13.0917 10.781L11.2851 8.97443L13.1753 7.08425L13.9193 7.82825C13.9906 7.89952 14.1055 7.89952 14.1768 7.82825C14.248 7.75697 14.248 7.64206 14.1768 7.57079L13.4335 6.82679L13.6299 6.6297C13.7011 6.55843 13.7011 6.44352 13.6299 6.37297C13.5586 6.3017 13.4437 6.3017 13.3731 6.37297L13.176 6.56934L12.3848 5.77806C12.3135 5.70679 12.1986 5.70679 12.1273 5.77806C12.056 5.84934 12.056 5.96425 12.1273 6.03479L12.9186 6.82606L11.0284 8.71625L10.0415 7.72934C9.97023 7.65806 9.85532 7.65806 9.78405 7.72934C9.71278 7.80061 9.71278 7.91552 9.78405 7.98606L10.771 8.97297L9.49459 10.2493L8.87059 9.62534C8.79932 9.55406 8.68441 9.55406 8.61387 9.62534C8.54259 9.69661 8.54259 9.81152 8.61387 9.88279L9.23787 10.5068L8.11205 11.6326C8.04078 11.7039 8.04078 11.8188 8.11205 11.8901C8.18187 11.9606 8.29678 11.9606 8.36805 11.8901Z" fill="black"/>
<path d="M39.1197 18.378L36.911 19.7315L36.7088 19.3751C36.6594 19.2871 36.5474 19.2565 36.4608 19.3067C36.3735 19.3562 36.343 19.4675 36.3925 19.5547L36.6005 19.9213L34.2259 21.3765C34.1525 21.2311 34.0935 21.0791 34.0666 20.9198C34.0506 20.8202 33.9546 20.754 33.8579 20.77C33.759 20.7867 33.6914 20.8798 33.7081 20.9787C33.7423 21.1845 33.8194 21.3802 33.9168 21.5664L32.2957 22.5598L32.1743 22.2893C32.1321 22.1976 32.0245 22.1576 31.9335 22.1984C31.8419 22.2398 31.8012 22.3475 31.8426 22.4391L31.9837 22.7518L29.4659 24.2951C29.3845 24.0849 29.3154 23.8696 29.2761 23.6493C29.2586 23.5504 29.1634 23.4805 29.0652 23.5016C28.9663 23.5191 28.9001 23.6129 28.9175 23.7125C28.9641 23.9773 29.0492 24.2362 29.1517 24.4871L27.2121 25.6755C27.1263 25.7278 27.0994 25.8398 27.1517 25.9256C27.2048 26.0122 27.3175 26.0376 27.4019 25.986L29.303 24.8209C29.4543 25.1096 29.6361 25.3831 29.8528 25.6224C29.9197 25.6965 30.0346 25.7024 30.1095 25.6347C30.1837 25.5678 30.1895 25.4529 30.1219 25.378C29.9205 25.1555 29.751 24.9016 29.6121 24.6311L32.1335 23.0856L32.4114 23.7031C32.4528 23.7962 32.5626 23.8347 32.6521 23.794C32.7437 23.7525 32.7845 23.6449 32.7437 23.5533L32.4463 22.8936L34.1132 21.8718C34.2434 22.0398 34.3917 22.1933 34.5677 22.3104C34.6514 22.3656 34.7648 22.3438 34.8201 22.2602C34.8761 22.1765 34.8528 22.0638 34.7699 22.0078C34.6375 21.9198 34.5248 21.8056 34.4237 21.6813L36.7801 20.2376L37.0615 20.7329C37.1117 20.8216 37.2245 20.85 37.3095 20.8013C37.3968 20.7518 37.4274 20.6405 37.3779 20.5533L37.0906 20.0478L39.3095 18.6878C39.3954 18.6354 39.4215 18.5235 39.3699 18.4376C39.3168 18.3525 39.2055 18.3264 39.1197 18.378Z" fill="black"/>
<path d="M13.2246 36.4177C13.3839 36.5923 13.5599 36.7501 13.765 36.8628C13.8537 36.9108 13.9635 36.8788 14.0123 36.7908C14.0603 36.7028 14.0283 36.5923 13.9403 36.5435C13.7788 36.4548 13.6399 36.3326 13.5126 36.1981L14.7061 35.2897L14.8923 35.5923C14.9461 35.6795 15.0595 35.7035 15.1424 35.6519C15.2283 35.5995 15.2544 35.4875 15.2021 35.4017L14.997 35.0686L16.285 34.0883L16.5381 34.3646C16.6064 34.4388 16.7206 34.4439 16.7948 34.3755C16.869 34.3079 16.8734 34.193 16.8057 34.1188L16.5752 33.8672L17.493 33.1683C17.573 33.1079 17.5883 32.9937 17.5272 32.9137C17.4668 32.8337 17.3534 32.8177 17.2726 32.8795L16.3286 33.5981L15.9934 33.233C15.9257 33.1588 15.8108 33.1545 15.7366 33.2221C15.6632 33.2897 15.6581 33.4054 15.7257 33.4788L16.0384 33.8199L14.8064 34.7581L14.6123 34.4425C14.5592 34.3566 14.4464 34.3305 14.3621 34.3828C14.2763 34.4352 14.2501 34.5472 14.3024 34.633L14.5155 34.9792L13.2886 35.913C13.1592 35.7079 13.0617 35.4825 13.0224 35.2446C13.0064 35.145 12.9119 35.0781 12.8137 35.0948C12.7148 35.1108 12.6472 35.2046 12.6639 35.3035C12.7126 35.5988 12.8334 35.881 12.9984 36.1334L11.4915 37.2803C11.4115 37.3406 11.3963 37.4548 11.4574 37.5348C11.5177 37.6141 11.6312 37.6308 11.7119 37.569L13.2246 36.4177Z" fill="black"/>
</svg>
