<svg xmlns="http://www.w3.org/2000/svg" width="96" height="96" fill="none" viewBox="0 0 96 96"><path fill="#06c" d="M66.587 37.434c.002-.282-.233-.615-.384-.883-1.79-3.172-3.643-6.445-6.012-9.354-.13-.358-.484-.575-.9-.436l-19.88-1.14c-6.04-.351-9.229 1.86-8.397 8.604.278 2.278.11 22.176-.019 29.81-.084 4.945 1.53 6.427 5.996 6.663l21.785 1.17c5.73.308 7.29-1.692 7.358-6.517.064-4.525.13-8.378.195-12.14.297-.296.65-.56.348-.862-.092-.092-.214-.102-.332-.076.083-4.78.162-9.25.242-14.84m-6.664-8.19c1.766 2.359 3.242 4.888 4.74 7.546-2.008.523-4.455.635-5.329-1.177-.61-1.271.034-3.386.59-6.37M32.451 64.058c.108-6.365.317-27.488.008-30.013-.736-5.982 1.94-7.25 6.872-6.974l19.312 1.105c-.925 4.966-1.396 6.448-.616 8.064.819 1.703 2.974 3.007 7.095 1.929-.082 5.596-.163 10.183-.255 15.472l-.89.889-.283-.284a.364.364 0 1 0-.515.515l1.64 1.64q0 .067-.003.134L63.3 58.055l-.285-.285a.363.363 0 1 0-.515.514l.285.285-.555.556a.363.363 0 1 0 .513.515l.556-.556 1.437 1.438c.004.004.012.002.016.005l-.004.243c-.137-.068-.299-.071-.413.042l-1.918 1.917-1.3-1.3a.364.364 0 1 0-.515.515l.207.207c-.069.013-.139.026-.192.078l-1.586 1.586-.217-.217a.363.363 0 1 0-.514.515l.216.217-.57.57-1.3-1.3a.364.364 0 0 0-.515 0c-.018.017-.013.043-.026.063-.018-.05-.02-.103-.059-.14a.364.364 0 0 0-.514 0l-1.712 1.713-.15-.15a.363.363 0 1 0-.515.515l.15.15-1.653 1.652-1.639-1.64c-.032-.031-.077-.03-.115-.047l.544-.544a.36.36 0 0 0 0-.514.36.36 0 0 0-.513 0l-2.476 2.476-.963-.962a.35.35 0 0 0-.21-.087l.846-.848a.364.364 0 1 0-.515-.515l-2.885 2.885-.894-.895a.364.364 0 1 0-.515.515l.895.895-.895.894a.363.363 0 0 0 0 .515h.002l-2.985-.16.734-.735.704.704a.365.365 0 0 0 .515-.514l-.704-.704 2.928-2.928a.363.363 0 1 0-.515-.515l-2.928 2.928-.352-.352a.363.363 0 1 0-.515.514l.352.353-.894.894c-.087.087-.102.202-.083.314l-1.508-.081c-3.632-.194-4.687-1.002-4.616-5.189m31.581 4.752-1.166-1.166.556-.556a.363.363 0 1 0-.515-.515l-.556.556-.57-.57 1.572-1.573a.35.35 0 0 0 .087-.209l.959.959a.36.36 0 0 0 .257.106l.005-.002c-.034 1.125-.168 2.165-.629 2.97m-2.82-6.261.692.692-.757.76a.364.364 0 1 0 .514.514l.758-.76.63.63a.35.35 0 0 0-.21.088l-1.572 1.572-1.72-1.72 1.585-1.586c.054-.05.067-.122.08-.19m-.458 4.011-.57.57-1.721-1.72.57-.57zm.515.514.57.57-.57.57-.57-.57zm1.665-3.833 1.804-1.805q-.027 1.713-.052 3.556zm1.834-3.72-.954-.953.986-.987zm-8.718 4.51c.017-.018.013-.044.026-.064.017.05.019.102.058.14l1.3 1.301-1.72 1.721-1.382-1.382zm2.803 6.382-16.08-.862c.019-.013.043-.009.06-.025l.894-.895.719.719c.14.141.37.143.514 0a.36.36 0 0 0 0-.513l-.718-.719 1.646-1.647a.35.35 0 0 0 .088.211l.963.962-.556.556a.364.364 0 1 0 .515.513l.555-.556.784.784a.365.365 0 0 0 .515-.515l-.784-.784 1.484-1.485c.017.04.016.083.048.115l1.64 1.64-1.37 1.368a.364.364 0 1 0 .515.515l1.37-1.369.434.435c.141.141.371.143.515 0a.36.36 0 0 0 0-.513l-.435-.435 1.65-1.651 1.381 1.382-.69.69a.363.363 0 1 0 .514.513l.69-.688 1.06 1.06a.363.363 0 1 0 .514-.515l-1.06-1.06 1.72-1.72 1.72 1.72-.283.284a.363.363 0 1 0 .515.514l.284-.283.57.57-.013.013a.363.363 0 1 0 .515.515l.013-.013.058.058a.365.365 0 0 0 .515-.515l-.058-.058.57-.57 1.17 1.17c.033.033.08.031.12.05-1.094 1.123-3.037 1.122-4.791 1.034m5.984-15.02-.346-.347.357-.358q-.004.351-.011.704"/><path fill="#06c" d="M37.412 44.192h.016l23.31-1.005a.364.364 0 0 0 .347-.38.374.374 0 0 0-.38-.348l-23.307 1.005a.364.364 0 0 0 .014.728M36.767 49.945h.006l23.677-.377a.364.364 0 0 0-.006-.727h-.006l-23.677.377a.364.364 0 0 0 .006.727M60.728 54.378h-.015l-23.862.905a.364.364 0 0 0 .015.727h.014l23.862-.905a.364.364 0 0 0-.014-.727M56.944 60.177a.37.37 0 0 0-.381-.346l-20.088.914a.364.364 0 0 0 .018.727h.017l20.088-.914c.199-.01.355-.178.346-.38M17.48 20.39c1.239.274 2.417-.027 3.557-.31 2.758-.69 3.599-.57 7.072 1.448 4.233 2.459 5.826 2.662 10.287.827l6.17-2.534c6.083-2.502 2.793-8.015-2.668-6.15-.967.332-2.064.865-3.003 1.113-.41.109-.825.06-1.029-.093-.008-.054.085-.278.605-.595 5.997-3.66 14.35-3.142 19.852 1.233.84.68 1.632 1.388 2.627 1.786 2.494 1.005 4.819-.702 4.215-3.365-.643-2.847-7.56-11.362-18.819-12.08-.017-.047-.019-.098-.056-.136a.36.36 0 0 0-.515 0l-.093.093a23 23 0 0 0-2.145.04.347.347 0 0 0-.468.013l-.014.014c-2.685.226-5.122.858-7.731 1.733-1.462.49-2.908 1.037-4.352 1.585-2.684 1.015-5.456 2.065-8.281 2.695a24 24 0 0 1-3.188.504c-.985.08-1.992-.216-2.952.216-1.968.885-2.916 4.624-2.965 6.336-.069 2.307 1.272 5.064 3.893 5.627m-2.318-4.42 1.775 1.774-.502.502c-.64-.58-1.076-1.407-1.273-2.277m48.588-1.903c.345 1.53-.854 2.251-2.259 1.696-.788-.318-1.585-1.029-2.26-1.576-5.964-4.74-15.013-5.299-21.516-1.335-2.535 1.543-1.049 4.016 1.549 3.337 1.171-.307 2.013-.77 3.107-1.14 3.61-1.24 6.052 1.613 1.642 3.426l-6.17 2.536c-4.065 1.674-5.188 1.474-9.002-.74-4.01-2.33-5.263-2.322-8.154-1.604-1.023.256-1.993.5-2.9.3a2.8 2.8 0 0 1-.751-.292l.666-.668q.005-.003.01-.004.003-.006.004-.01l3.57-3.57a.363.363 0 1 0-.515-.513l-1.05 1.05-2.498-2.498 1.26-1.26 1.9 1.902a.365.365 0 0 0 .515-.515l-1.902-1.9 1.087-1.086a24 24 0 0 0 1.537-.211l.928.928-.98.98a.364.364 0 1 0 .515.515l.98-.98.91.909c.142.14.372.142.516 0a.36.36 0 0 0 0-.514l-.91-.909 1.435-1.436a.34.34 0 0 0 .09-.295c.383-.11.76-.234 1.137-.353l1.013 1.012-.487.482a.363.363 0 1 0 .513.513l.486-.486.086.087a.365.365 0 0 0 .515-.514l-.088-.088 1.632-1.632 1.024 1.024a.365.365 0 0 0 .515-.515l-1.024-1.024.53-.53q.266-.098.53-.198.536-.202 1.073-.402l.842.84-.281.283a.36.36 0 0 0 0 .514.365.365 0 0 0 .515 0l.28-.28.33.33a.363.363 0 1 0 .514-.513l-.331-.33 2.086-2.085 1.457 1.456a.365.365 0 0 0 .515-.514l-1.3-1.3c1.11-.337 2.145-.6 3.122-.8l.437.436-.527.526a.364.364 0 1 0 .515.515l.527-.527.279.28a.365.365 0 0 0 .515-.515l-.28-.28.806-.805c.848-.093.022-.013.835-.072l.383.383-.03.032a.362.362 0 0 0 .257.62.36.36 0 0 0 .257-.107l.03-.032.954.953a.363.363 0 1 0 .513-.515l-.953-.952.434-.434c9.872.173 17.72 7.63 18.49 10.994M29.312 7.184 27.766 8.73l-.743-.745q1.155-.385 2.289-.801m3.994-1.496a98 98 0 0 1 1.891-.675l-1.283 1.283zm7.952-2.197-.096-.096q.114-.02.227-.035zM23.005 9.127c.333-.074.659-.17.99-.255l-.932.931-.577-.577c.174-.037.34-.06.52-.1m-4.016.541-.506.506-.532-.532c.333-.003.667.016 1.038.026m-1.908.13.889.89-1.26 1.26-.485-.485c-.093-.093-.218-.102-.337-.073.335-.746.745-1.35 1.193-1.591m-1.408 2.091c.016.03.011.064.036.087l.485.486-.073.073a.363.363 0 1 0 .513.515l.073-.073 2.497 2.498-1.755 1.755-2.136-2.136a.36.36 0 0 0-.27-.102c-.002-.063-.01-.127-.009-.19.026-.807.266-1.925.639-2.913M30.833 82.565c.71 3.14 10.733 16.716 29.845 10.32 4.244-1.42 8.331-3.324 12.632-4.278a24 24 0 0 1 3.189-.504c.992-.076 1.998.21 2.952-.216 1.967-.884 2.917-4.625 2.966-6.336.067-2.306-1.275-5.061-3.897-5.629-1.243-.267-2.42.03-3.56.313-2.786.698-3.654.53-7.07-1.449-4.44-2.58-5.99-2.593-10.286-.826l-6.169 2.534c-1.41.577-3.051 1.459-3.252 3.15-.161 1.352.81 2.73 2.262 3.21 1.691.564 3.406-.078 4.915-.696.69-.28 2.186-.975 2.775-.532.009.053-.084.277-.606.594-6 3.659-14.35 3.142-19.85-1.233-.839-.68-1.637-1.39-2.626-1.786-2.52-1.012-4.822.721-4.22 3.364m16.68 9.557-.779-.78.696-.695 1.19 1.19-.773.775c-.102.102-.105.241-.061.368q-1.125-.177-2.224-.469l.657-.657.78.78a.363.363 0 1 0 .515-.512m13.479-.89 2.574-2.575.42.417a.365.365 0 0 0 .514-.515l-.419-.417 1.44-1.44 2.034 2.033c.03.03.07.028.107.046-2.683.952-4.134 1.564-6.67 2.45m10.257-6.846c.018.048.02.1.058.14l.917.916-1.157 1.157-1.013-1.014zm-.697 2.725-.098.099a.363.363 0 0 0 0 .515c.05.05.119.062.186.077-.851.25-1.69.527-2.522.817.06-.134.06-.288-.048-.397l-.328-.327 1.797-1.797zm.514.514.044.044q-.06.016-.12.03zm1.927-.439c-.358.08-.71.182-1.064.274l-.348-.348 1.156-1.156 1.074 1.073c-.272.053-.537.093-.818.157m2.056-3.542 1.938 1.938-.775.775c-.09.09-.102.21-.078.325-.48.046-.963.103-1.46.181l-1.423-1.424zM34.507 80.55c.79.317 1.584 1.026 2.262 1.575 5.964 4.742 15.011 5.3 21.514 1.336 2.543-1.546 1.039-4.02-1.549-3.337-.675.176-1.309.436-1.924.686-1.22.498-2.653 1.081-3.908.662-.683-.225-1.365-.923-1.276-1.656.112-.94 1.32-1.55 2.362-1.977l6.169-2.534c4.058-1.671 5.174-1.484 9.005.737 3.734 2.17 5.036 2.38 8.151 1.605 1.023-.256 1.992-.499 2.902-.303 1.123.243 1.94 1.14 2.38 2.204a.36.36 0 0 0-.493.009l-.645.644-.666-.666a.364.364 0 1 0-.515.515l.666.666-.708.708a.36.36 0 0 0-.243.1.35.35 0 0 0-.1.244l-.328.327a.363.363 0 1 0 .514.515l.241-.242 1.237 1.237a.363.363 0 1 0 .513-.515l-1.236-1.236.622-.623.285.285a.365.365 0 0 0 .515-.515l-.285-.285.645-.644c.056-.057.074-.133.085-.207.18.538.278 1.104.262 1.645-.046 1.636-.974 4.543-2.107 5.053-.376.169-1.481.102-1.91.095l.798-.799c.006-.005.016-.003.022-.008.006-.006.003-.016.009-.022l1.73-1.73a.364.364 0 1 0-.516-.515L77.5 85.071l-1.938-1.937.695-.695a.363.363 0 1 0-.515-.515l-3.007 3.005-.916-.916c-.04-.04-.092-.041-.14-.059l.76-.759a.364.364 0 1 0-.514-.515l-2.388 2.388-.632-.63a.363.363 0 1 0-.514.514l.63.631-1.795 1.797-1.192-1.191 2.274-2.274a.363.363 0 1 0-.515-.515l-2.274 2.273-.027-.027a.364.364 0 1 0-.515.515l.027.028-1.44 1.44-.987-.987a.363.363 0 1 0-.515.515l.987.986-1.725 1.725-1.298-1.298 2.455-2.456a.363.363 0 1 0-.515-.515l-2.487 2.488c-.134-.063-.291-.064-.402.046-.11.11-.109.268-.046.402l-1.688 1.687-.596-.596a.364.364 0 1 0-.515.514l.596.597-.31.311a.364.364 0 1 0 .514.515l.311-.311.41.41a.365.365 0 0 0 .515-.515l-.41-.41 1.654-1.654 1.299 1.299-.383.382a.363.363 0 0 0 0 .515c.054.054.126.069.197.082-.137.046-.274.099-.41.145-4.085 1.368-7.614 2.095-11.798 1.565l.717-.717.28.281a.365.365 0 0 0 .516-.515l-.281-.28.801-.802 1.3 1.299-.206.205a.364.364 0 1 0 .515.515l1.875-1.877.734.735a.365.365 0 0 0 .515-.515l-.734-.735 2.992-2.993a.363.363 0 1 0-.515-.515l-2.992 2.994-.383-.383a.363.363 0 1 0-.515.515l.383.382-1.156 1.157-1.3-1.299 1.764-1.761a.364.364 0 1 0-.515-.515l-1.763 1.761-.028-.027a.363.363 0 1 0-.515.514l.028.028-.802.802-1.19-1.192.779-.78a.363.363 0 1 0-.515-.514l-1.988 1.988-.562-.561a.364.364 0 1 0-.515.514l.562.562-.917.916c-.01.01-.007.028-.016.04-7.563-2.296-12.103-8.21-12.522-10.053-.342-1.54.88-2.253 2.26-1.696"/></svg>