<svg xmlns="http://www.w3.org/2000/svg" width="48" height="48" fill="none" viewBox="0 0 48 48"><g fill="#000" clip-path="url(#a)"><path d="M44.979 1.88c-5 .096-3.731.09-5.2.023C39.27.227 37.821-.023 36.192.002c-8.907.04-10.62-.14-12.696.802-2.013.917-3.416 2.94-3.751 5.153C13.074 7.19 7.822 11.073 6.37 13.52c-1.711 2.877-.652 5.933 2.622 7.197 4.2 1.62 21.891.65 25.41 1.222 6.91 1.126 8.178 6.555 7.221 10.2-1.184 4.511-5.897 8.459-13.311 8.437-.462-6.82-7.362-7.06-12.915-7.083a60 60 0 0 1-2.622-.047c-2.096-.111-3.554.25-4.02 2.369l-5.233.118c-2.207.048-3.062.731-3.114 3.139l-.109 4.133v.001c-.05 2.346.802 2.97 2.72 2.913 5.07-.096 3.697-.091 5.2-.022.5 1.64 1.884 1.922 3.587 1.901 8.913-.04 10.622.14 12.696-.801 2.228-1.015 3.704-3.381 3.818-5.865 7.8 0 12.765-4.184 14.028-9.003 1.056-4.021-.43-9.926-7.826-11.13-3.665-.6-21.233.371-25.26-1.183-2.744-1.057-3.767-3.56-2.248-6.113 1.32-2.223 6.29-5.93 12.662-7.164-.016.475.01.954.099 1.43 1.356 7.42 10.122 6.124 15.448 6.385 2.09.11 3.551-.24 4.02-2.369l5.235-.118c2.214-.05 3.063-.74 3.113-3.138l.109-4.134v-.002c.047-2.316-.773-2.971-2.721-2.912M15.529 34.39l.128-.128c.004-.005.003-.012.007-.017q.588.003 1.184.011l-.726.727zm-2.014.118c.044-.072.047-.163-.016-.226-.062-.063-.154-.06-.226-.016l-.056-.056q.795.026 1.66.03c.008.015.007.034.02.048l.102.102-.801.8zm4.502-.225-.23.23-.247-.245zm-5.973-.109c.204 0 .414.01.626.02l.326.325-.827.828-.698-.698.322-.322a.18.18 0 0 0 .05-.145c.068-.002.132-.008.201-.008m-.67.043-.167.167-.05-.05a.188.188 0 1 0-.265.266l.05.05-.594.593-.367-.367c.363-.426.824-.589 1.393-.66m-1.607.974.316.317-.388.387a.188.188 0 0 0 .265.266l.388-.388.803.803q-.003 0-.005.002l-1.084 1.084-.727-.728c.02-.222.047-.453.092-.69.068-.427.184-.77.34-1.053m-.942 10.157c-.063-.5-.042-1.04-.003-1.52v-.01l.767.767zm.119-3.178.515.516-.597.597zm-.772-.634c-.009-.026-.01-.056-.032-.077l-.628-.629.247-.247.115.116a.187.187 0 1 0 .265-.266l-.115-.114.27-.27a.2.2 0 0 0 .047-.112l.016-.007-.093 1.26c-.11.082-.096.204-.025.275l.004.004-.007.093a.2.2 0 0 0-.064-.026m.257-2.578a.17.17 0 0 0-.01.147l-.036.482-.325-.325.377-.377zm.687.887.343.343-.398.399zm.036-.494.029-.389c.008 0 .015.01.023.01a.2.2 0 0 0 .133-.055l.725-.725.715.715c-.02.008-.045.008-.061.025l-.992.992zm.062-.841.08-1.087.504.504zm-4.643 6.153.412.412-.016.016c-.025.025-.03.06-.038.093l-.539-.539.133-.132a.18.18 0 0 0 .048.15m-.446.248.43.43-.926.017c.03-.008.06-.012.085-.035zm1.63.407-.241-.243.726-.726.33.33-.05.048a.187.187 0 0 0 0 .265.19.19 0 0 0 .266 0l.05-.05.355.356c-.285-.006-1.125.014-1.435.02m1.458-1.283-.379.379-.33-.33.379-.378zm.507 1.288c-.054-.09-.547-.57-.62-.644l.378-.379.23.23a.188.188 0 1 0 .266-.266l-.23-.23.26-.26a.188.188 0 0 0-.266-.265l-.26.261-.46-.458-.001-.005-.006-.003-.16-.16a.187.187 0 1 0-.266.265l.032.032-.4.4c-.066-.025-.14-.024-.194.029s-.054.127-.03.194l-.745.746-.413-.412a.18.18 0 0 0-.15-.048l.31-.31a.187.187 0 0 0-.265-.265l-1.283 1.283a.19.19 0 0 0 0 .265c.025.025.058.029.088.037l-.535.01c-1.515.049-1.993-.276-1.953-2.145l.109-4.136c.043-1.99.575-2.365 2.38-2.405l5.081-.114-.005.059c-.024.204-.042.401-.055.58l-.092 1.244c-.06-.014-.123-.008-.17.039l-.504.504-.115-.115a.187.187 0 1 0-.266.265l.137.136c-.025.067-.024.141.03.194.077.078.126.055.194.03l.271.271c-.004.004-.01.002-.014.006l-.27.27-.115-.115a.187.187 0 0 0-.265.266l.115.115-.345.346a.19.19 0 0 0 0 .265c.013.014.033.012.049.02a.18.18 0 0 0 .05.145l.61.61-.411.413-.165-.165a.187.187 0 1 0-.266.265l.193.193c-.013.06-.008.124.039.17.068.068.109.054.171.04l.401.401a.187.187 0 1 0 .265-.266l-.374-.373.504-.504-.14 1.89v.005q-.024.317-.035.659c-.008.287-.005.606.024.89v.02zm16.47 1.192c-1.894.86-3.498.695-12.389.734-1.41.02-2.524-.112-2.883-1.464l.936-.936.363.362a.187.187 0 1 0 .264-.266l-.362-.362 1.126-1.126a.188.188 0 1 0-.266-.265l-1.125 1.125-.75-.749.62-.618.324.324a.188.188 0 0 0 .265-.265l-.324-.325 1.22-1.221a.188.188 0 1 0-.265-.266l-1.22 1.221-.745-.744.038-.516.706-.706.574.574a.188.188 0 0 0 .265-.266l-.573-.573.992-.993a.2.2 0 0 0 .048-.115.187.187 0 0 0 .133-.32l-.836-.836 1.084-1.084.004-.01c.09.073.188.057.25-.007a.187.187 0 0 0 0-.265l-1.052-1.053.593-.593.697.698-.075.076a.188.188 0 1 0 .265.265l.076-.075.376.376a.188.188 0 0 0 .265-.266l-.375-.376.827-.827 1.07 1.071a.188.188 0 0 0 .266-.265l-.135-.135.802-.801 1.113 1.113a.187.187 0 1 0 .265-.266l-.255-.254.8-.801.334.333-.336.336a.187.187 0 1 0 .265.265l.336-.335.649.648a.187.187 0 1 0 .265-.265l-.65-.649.477-.476c4.194.197 8.127 1.116 8.958 5.664.484 2.612-.962 5.488-3.294 6.55M38.7 10.637l-.094-.093.107-.108zm.74.155.07-.922.514.516-.6.6.017-.194m.167-2.263.01.009-.01.01zm.178-2.406.068-.915.554.554c.005.004.012.003.017.007l-.496.496zm.14-1.893q.021-.277.033-.575l.406.407-.461.46zm.024-1.322c-.005-.078-.007-.156-.015-.234l-.001-.016.076.004.13.13a.18.18 0 0 0-.126.052zM20.512 8.033c-.483-2.61.963-5.484 3.294-6.547 1.895-.86 3.499-.695 12.39-.734 2.374-.03 3.208.566 2.98 3.422l-.434 5.892c-.07-.034-.151-.035-.21.022l-.19.191-.598-.598a.187.187 0 1 0-.266.265l.598.598-.695.695c-.053.052-.054.125-.031.191l-.326-.326.138-.139a.188.188 0 1 0-.265-.265l-.164.163c-.063-.018-.13-.015-.18.035s-.054.117-.036.181l-.977.977-.49-.49.064-.063a.187.187 0 1 0-.265-.266l-1.06 1.063-.233-.233a.188.188 0 1 0-.266.266l.233.232-.758.758-.66-.66 1.37-1.37a.187.187 0 1 0-.265-.265l-2.198 2.197-.428-.427a.187.187 0 1 0-.265.265l.432.432a.183.183 0 0 0 .005.246q-.595-.012-1.185-.037c.026-.067.025-.141-.029-.195l-.09-.091 1.73-1.731a.187.187 0 1 0-.265-.266l-1.731 1.73-.305-.304a.188.188 0 0 0-.266.264l.305.306-.235.235c-3.89-.28-7.393-1.355-8.173-5.619M36.76 11.37l.781.782-.952.952-.782-.782zm-2.738 2.208c-.053.052-.054.125-.031.19-.272-.004-.56-.005-.843-.007-.008-.034-.014-.07-.04-.096l-.076-.077.757-.757.49.49zm.522.008.205.205-.398-.012zm-3.141.029-.124-.124.563-.562.66.66-.086.087c-.022.022-.026.053-.034.081l-.924-.006a.2.2 0 0 0-.055-.136m2.651-1.05.733-.733.49.49-.733.734zm1.207 1.241h-.024c-.007-.035-.014-.071-.04-.098l-.389-.388.734-.733.782.782-.257.257c-.055.054-.055.13-.027.198-.254.004-.514-.005-.78-.018m1.328-.172.14.14a4 4 0 0 1-.314.035zm.57.04-.305-.305.953-.953.163.164a.188.188 0 0 0 .266-.266l-.182-.182c.028-.068.029-.145-.027-.2-.055-.056-.132-.056-.2-.027l-.37-.37c.066.024.114.047.19-.03l.696-.696.116.116c.082.082.146.058.215.02-.022.265-.05.538-.103.813-.151.957-.508 1.636-1.411 1.916m9.683-4.763c-.042 1.99-.575 2.365-2.38 2.406l-1.89.043.749-.75a.187.187 0 1 0-.265-.265l-1.028 1.028-1.163.026 1.361-1.362a.188.188 0 1 0-.265-.265l-1.581 1.581c-.016.016-.014.038-.023.056l-.846.02.777-.779.216.216a.188.188 0 0 0 .265-.266l-.215-.215.625-.626a.187.187 0 1 0-.265-.265l-.626.625-.68-.68c-.018-.019-.043-.019-.066-.028l.022-.292.317-.318.401.402a.19.19 0 0 0 .266 0 .186.186 0 0 0 0-.264l-.401-.402.491-.491a.187.187 0 1 0-.266-.266l-.49.491-.238-.238.077-1.032.207-.207.496.496a.188.188 0 0 0 .266-.265l-.497-.497.69-.69a.19.19 0 0 0 0-.265c-.052-.053-.125-.054-.191-.03-.008-.017-.007-.035-.02-.048l-.605-.605.564-.563.012.013a.19.19 0 0 0 .266 0 .186.186 0 0 0 0-.265l-.798-.798.169-.168a.18.18 0 0 0 .051-.126l.346.346a.187.187 0 1 0 .265-.265l-.37-.37c.477.024.183.017 4.426-.063 1.511-.048 1.992.273 1.953 2.146z"/><path d="M25.656 4.162h-.02a2.47 2.47 0 0 0-1.833.857c-.543.638-.795 1.625-.656 2.577.35 2.414 2.839 2.77 4.187 1.63 1.993-1.681.77-5.064-1.678-5.064m-.014.75h.014c.248 0 .496.07.729.182l-.39.39-.143-.142c.04-.072.043-.16-.018-.222-.06-.061-.149-.059-.22-.017l-.167-.167c.065-.009.13-.023.195-.024m-1.699 1.872-.05-.05a2.5 2.5 0 0 1 .3-.945l.354.355-.577.577c-.018.017-.018.041-.027.063m.464-1.31a1.7 1.7 0 0 1 .618-.428l.31.31-.524.522zm-.53 1.774.788.787-.405.404a2.1 2.1 0 0 1-.372-.95c-.011-.08-.006-.161-.01-.241m2.973 1.406c-.612.516-1.559.59-2.205.171-.048-.03-.087-.074-.13-.11l.415-.414.084.083c.174.175.441-.088.265-.264l-.084-.084.617-.617a.187.187 0 1 0-.265-.266l-.617.617-.759-.758c.021-.009.046-.009.063-.026l.578-.577.418.419a.188.188 0 0 0 .266-.266l-.419-.419.524-.523.129.128-.143.144a.186.186 0 0 0 0 .264.19.19 0 0 0 .265 0l.143-.143.367.367a.19.19 0 0 0 .266 0 .187.187 0 0 0 0-.265l-.367-.367.455-.455c1.239.927 1.018 2.614.133 3.36m18.218-4.726a.376.376 0 0 0-.35.398l.088 1.371a.375.375 0 0 0 .373.351h.025a.376.376 0 0 0 .35-.398l-.088-1.372a.37.37 0 0 0-.398-.35M45.006 8.2a.376.376 0 0 0-.353.395l.08 1.425c.011.2.176.354.374.354h.021a.376.376 0 0 0 .353-.396l-.08-1.425c-.01-.207-.153-.373-.395-.353M23.762 38.546c-.925-.604-2.23-.507-3.096.228-.824.695-1.186 1.886-.903 2.966.534 2.03 3.047 2.865 4.433 1.24 1.017-1.19.955-3.532-.434-4.434m-2.2.548.35.35c-.012.008-.028.007-.04.017l-.5.502-.42-.42q.093-.106.198-.196c.124-.105.265-.186.412-.253m-.838 1.653-.11-.111a.18.18 0 0 0-.154-.047c.048-.26.141-.511.272-.736l.375.375-.345.344c-.048.049-.053.113-.038.175m-.236.803a2.1 2.1 0 0 1-.066-.575l1.034 1.033-.408.408c-.016.017-.016.04-.025.06a2.1 2.1 0 0 1-.535-.926m3.137.945c-.583.683-1.551.81-2.352.203.013-.007.028-.005.04-.017l.408-.408c.19.19.456-.075.264-.266.202-.201.582-.468.393-.658-.189-.189-.456.192-.658.393l-.869-.868c.015.004.027.017.042.017a.2.2 0 0 0 .133-.055l.344-.344.505.505c.175.175.44-.09.265-.266l-.505-.504.328-.329c-.015.061-.01.127.038.175a.19.19 0 0 0 .265 0l.14-.14c.175.169.433-.085.263-.263l.31-.309a.188.188 0 1 0-.266-.265l-.309.308-.447-.448c.144-.032.29-.055.437-.055.342 0 .679.089.96.27.98.642 1.012 2.455.27 3.324m-20.832-.541a.376.376 0 0 0-.35.398l.088 1.372a.375.375 0 0 0 .374.35h.024a.376.376 0 0 0 .35-.398l-.087-1.372a.383.383 0 0 0-.399-.35m.075-4.327a.376.376 0 0 0-.353.395l.081 1.425c.011.2.176.354.374.354l.021-.001a.376.376 0 0 0 .354-.395l-.081-1.425c-.01-.206-.155-.365-.396-.353"/></g><defs><clipPath id="a"><path fill="#fff" d="M0 0h48v48H0z"/></clipPath></defs></svg>