<svg width="48" height="48" viewBox="0 0 48 48" fill="none" xmlns="http://www.w3.org/2000/svg">
<g clip-path="url(#clip0_3307_10617)">
<path d="M44.9787 1.8809C39.9786 1.97617 41.2476 1.97093 39.7792 1.90273C39.2685 0.227328 37.821 -0.0231357 36.1922 0.00157224C27.2855 0.0413418 25.5718 -0.137875 23.4959 0.804071C21.483 1.72131 20.0804 3.7433 19.7445 5.95719C13.074 7.18988 7.82275 11.0726 6.37006 13.5197C4.65862 16.3973 5.71835 19.4535 8.99198 20.7171C13.1927 22.3363 30.883 21.3666 34.4025 21.9388C41.3113 23.0652 42.5802 28.4943 41.6233 32.1391C40.439 36.6502 35.7263 40.598 28.312 40.5763C27.85 33.7561 20.9503 33.5153 15.3967 33.4928C14.4631 33.4891 13.5804 33.4853 12.7755 33.4456C10.6794 33.3346 9.22145 33.6954 8.75573 35.8147L3.52171 35.9331C1.31526 35.9812 0.459627 36.6644 0.407842 39.0717L0.299025 43.2049V43.2064C0.248086 45.5516 1.10068 46.1756 3.01909 46.1192C8.08963 46.0232 6.71563 46.0276 8.21943 46.0974C8.71968 47.7369 10.1026 48.0188 11.8058 47.9985C20.7193 47.9588 22.4277 48.1373 24.5021 47.1969C26.7295 46.1822 28.2063 43.8159 28.3202 41.3321C36.1199 41.3321 41.0847 37.148 42.3483 32.3286C43.4043 28.308 41.9186 22.4028 34.5223 21.1982C30.8573 20.599 13.2891 21.5702 9.26105 20.0163C6.51763 18.9588 5.49547 16.4562 7.01416 13.9025C8.33485 11.6796 13.3042 7.97393 19.6759 6.73871C19.6595 7.21425 19.6864 7.69334 19.7749 8.16821C21.1308 15.5892 29.8966 14.2926 35.223 14.5542C37.3132 14.6637 38.7741 14.3149 39.2427 12.1851L44.4776 12.0673C46.6923 12.0171 47.5412 11.3271 47.5908 8.92874L47.6996 4.7949C47.6996 4.79423 47.6996 4.79338 47.6996 4.79338C47.7475 2.4771 46.9271 1.82166 44.9787 1.8809ZM15.5294 34.3885L15.6568 34.2611C15.6614 34.2565 15.6599 34.2491 15.6636 34.2445C16.0559 34.246 16.4511 34.2498 16.8479 34.255L16.1219 34.9817L15.5294 34.3885ZM13.515 34.507C13.5592 34.4351 13.5616 34.3435 13.4993 34.2806C13.437 34.2183 13.3448 34.2205 13.2729 34.2648L13.2167 34.2086C13.7469 34.2266 14.3005 34.2357 14.8772 34.2386C14.8855 34.2543 14.884 34.2731 14.8967 34.2867L14.9994 34.3887L14.1977 35.1897L13.515 34.507ZM18.0171 34.2819L17.7861 34.5129L17.5401 34.2669C17.6991 34.2714 17.858 34.2767 18.0171 34.2819ZM12.0442 34.1733C12.2482 34.1733 12.4582 34.1822 12.6697 34.1921L12.996 34.5183L12.1688 35.3455L11.4714 34.6481L11.7931 34.3264C11.8336 34.286 11.8464 34.2333 11.8425 34.1809C11.9109 34.1792 11.9754 34.1733 12.0442 34.1733ZM11.3739 34.2159L11.2067 34.3831L11.1573 34.3337C11.0839 34.2603 10.9654 34.2603 10.8918 34.3337C10.8183 34.4072 10.8183 34.5258 10.8918 34.5992L10.9412 34.6486L10.348 35.2418L9.98131 34.8751C10.3441 34.4493 10.8046 34.2865 11.3739 34.2159ZM9.76672 35.1902L10.0832 35.5067L9.69547 35.8944C9.62203 35.9678 9.62203 36.0863 9.69547 36.1599C9.76824 36.2327 9.88671 36.2333 9.96015 36.1599L10.3479 35.7722L11.151 36.5747C11.1495 36.5762 11.1473 36.5754 11.1458 36.5769L10.062 37.6606L9.3345 36.9331C9.35549 36.7111 9.38172 36.4801 9.42673 36.2423C9.4951 35.8163 9.61069 35.473 9.76672 35.1902ZM8.82545 45.347C8.76165 44.8467 8.78348 44.3076 8.82173 43.8261L8.8224 43.8163L9.58886 44.5836L8.82545 45.347ZM8.94391 42.1695L9.45923 42.6848L8.86217 43.2819L8.94391 42.1695ZM8.17221 41.5349C8.16325 41.5086 8.16172 41.4794 8.13989 41.4577L7.51221 40.8292L7.75895 40.5824L7.87437 40.6978C7.94629 40.7698 8.0656 40.7721 8.13904 40.6978C8.21249 40.6244 8.21249 40.5059 8.13904 40.4323L8.02431 40.3176L8.29423 40.0483C8.32503 40.0175 8.3362 39.9764 8.34077 39.9358C8.34669 39.9343 8.35194 39.9305 8.35719 39.929L8.26411 41.189C8.15309 41.2714 8.16815 41.3929 8.2394 41.4641L8.24312 41.4679L8.23635 41.5609C8.21723 41.5469 8.19472 41.5416 8.17221 41.5349ZM8.42877 38.9566C8.40254 39.0047 8.39949 39.0534 8.41828 39.1037L8.38308 39.586L8.05764 39.2612L8.43486 38.884L8.42877 38.9566ZM9.11568 39.8437L9.45923 40.1873L9.06102 40.5855L9.11568 39.8437ZM9.15241 39.3503L9.18084 38.961C9.18913 38.9617 9.1959 38.9708 9.20402 38.9708C9.25208 38.9708 9.29998 38.9529 9.3367 38.916L10.0619 38.1908L10.7765 38.9055C10.7562 38.9145 10.7324 38.9138 10.7158 38.9311L9.72357 39.9233L9.15241 39.3503ZM9.21401 38.5088L9.29422 37.4222L9.79752 37.9255L9.21401 38.5088ZM4.57078 44.6616L4.9832 45.074L4.96746 45.0898C4.94191 45.1153 4.93666 45.1498 4.92854 45.1828L4.39004 44.6443L4.52272 44.5117C4.51765 44.5663 4.52966 44.6203 4.57078 44.6616ZM4.12537 44.9099L4.55505 45.3396L3.62884 45.3568C3.65879 45.3485 3.68959 45.3448 3.71362 45.3216L4.12537 44.9099ZM5.75575 45.317L5.51358 45.074L6.23958 44.348L6.56959 44.6772L6.52085 44.7259C6.4474 44.7994 6.4474 44.918 6.52085 44.9906C6.59362 45.0634 6.71208 45.064 6.78637 44.9906L6.83511 44.9419L7.19067 45.2974C6.90551 45.2908 6.06629 45.3111 5.75575 45.317ZM7.21301 44.0339L6.83426 44.4127L6.50426 44.0835L6.883 43.7048L7.21301 44.0339ZM7.72003 45.3223C7.66604 45.2323 7.17324 44.7523 7.09911 44.678L7.47786 44.2993L7.70733 44.5288C7.7801 44.6015 7.89857 44.6022 7.97286 44.5288C8.04631 44.4553 8.04631 44.3367 7.97286 44.2632L7.74338 44.0338L8.00434 43.7728C8.07778 43.6994 8.07778 43.5807 8.00434 43.5081C7.93089 43.4347 7.81243 43.4347 7.73881 43.5081L7.47786 43.7691L7.0189 43.3108C7.01737 43.3093 7.01822 43.3071 7.0167 43.3055C7.01517 43.304 7.01297 43.3049 7.01145 43.3033L6.85017 43.1421C6.77673 43.0686 6.65826 43.0686 6.58465 43.1421C6.5112 43.2155 6.5112 43.3341 6.58465 43.4076L6.61697 43.4399L6.21724 43.8396C6.15057 43.8149 6.07695 43.8156 6.02297 43.8689C5.96966 43.9222 5.96898 43.9964 5.99369 44.0632L5.24754 44.8093L4.83512 44.3969C4.79383 44.3556 4.73985 44.3436 4.68586 44.3489L4.99488 44.0398C5.06833 43.9664 5.06833 43.8479 4.99488 43.7743C4.92143 43.7016 4.80297 43.7 4.7302 43.7743L3.44691 45.0568C3.37347 45.1302 3.37347 45.2487 3.44691 45.3223C3.47162 45.347 3.50462 45.3507 3.53542 45.359L2.99997 45.3695C1.485 45.4176 1.00659 45.0928 1.04703 43.2238L1.15585 39.0884C1.19934 37.0979 1.73107 36.7231 3.53694 36.6833L8.6173 36.5686C8.6151 36.5896 8.61425 36.6075 8.61205 36.6278C8.58802 36.8317 8.57008 37.0291 8.55654 37.2076L8.46499 38.4518C8.40423 38.4383 8.34195 38.4444 8.29542 38.4907L7.79144 38.9954L7.67603 38.88C7.60258 38.8057 7.48412 38.8072 7.4105 38.88C7.33705 38.9534 7.33705 39.072 7.4105 39.1455L7.54707 39.2812C7.52236 39.3479 7.52304 39.4222 7.57635 39.4755C7.65352 39.5527 7.7031 39.5303 7.77063 39.5048L8.04208 39.7762C8.03751 39.7799 8.03158 39.7784 8.02786 39.7821L7.75793 40.0521L7.64252 39.9373C7.56822 39.863 7.44976 39.8645 7.37784 39.9373C7.30439 40.0108 7.30439 40.1294 7.37784 40.2028L7.49326 40.3176L7.14751 40.664C7.07407 40.7374 7.07407 40.8561 7.14751 40.9295C7.16105 40.9431 7.18051 40.9415 7.19693 40.9498C7.19321 41.0016 7.20742 41.0541 7.24719 41.0939L7.85761 41.7043L7.44587 42.1167L7.28087 41.9517C7.20742 41.8782 7.08896 41.8782 7.01534 41.9517C6.9419 42.0251 6.9419 42.1438 7.01534 42.2172L7.2081 42.41C7.19456 42.4707 7.19981 42.5337 7.24702 42.5809C7.31455 42.6484 7.35584 42.6342 7.41795 42.6198L7.8192 43.0211C7.89197 43.0938 8.01043 43.0945 8.08388 43.0211C8.15732 42.9476 8.15732 42.8292 8.08388 42.7555L7.71038 42.382L8.21368 41.8781L8.07423 43.7687V43.7725C8.05781 43.9825 8.0458 44.2052 8.03903 44.4316C8.03074 44.7188 8.03378 45.0376 8.06306 45.3226C8.06374 45.3294 8.06306 45.3353 8.06374 45.3421C8.01991 45.3395 7.77317 45.3253 7.72003 45.3223ZM24.1909 46.514C22.2957 47.3736 20.6922 47.2092 11.8014 47.2483C10.3907 47.2678 9.27696 47.1358 8.91768 45.7843L9.85438 44.8476L10.2165 45.2098C10.2908 45.284 10.4093 45.2817 10.4812 45.2098C10.5547 45.1363 10.5547 45.0178 10.4812 44.9442L10.1191 44.5819L11.2448 43.4562C11.3182 43.3827 11.3182 43.2643 11.2448 43.1906C11.1713 43.117 11.0529 43.1172 10.9793 43.1906L9.85354 44.3164L9.10435 43.5672L9.72306 42.9485L10.0478 43.2732C10.1206 43.346 10.239 43.3467 10.3133 43.2732C10.3868 43.1998 10.3868 43.0813 10.3133 43.0077L9.98858 42.6829L11.2096 41.4619C11.283 41.3885 11.283 41.27 11.2096 41.1964C11.1361 41.123 11.0177 41.123 10.9441 41.1964L9.72306 42.4174L8.97911 41.6735L9.01736 41.1568L9.72306 40.4511L10.2968 41.0248C10.3695 41.0976 10.488 41.0983 10.5623 41.0248C10.6357 40.9514 10.6357 40.8329 10.5623 40.7593L9.98858 40.1856L10.9808 39.1934C11.0123 39.1619 11.0243 39.1199 11.0289 39.078C11.0769 39.078 11.1248 39.06 11.1615 39.0231C11.235 38.9497 11.235 38.831 11.1615 38.7576L10.326 37.9221L11.4098 36.8383C11.4128 36.8353 11.412 36.83 11.4144 36.8272C11.5036 36.9015 11.6019 36.8849 11.6648 36.8212C11.7383 36.7478 11.7383 36.6293 11.6648 36.5557L10.6119 35.5034L11.205 34.9103L11.9024 35.6077L11.8266 35.6835C11.7532 35.7569 11.7532 35.8756 11.8266 35.949C11.8994 36.0218 12.0178 36.0225 12.0921 35.949L12.168 35.8741L12.5437 36.2497C12.6164 36.3225 12.7349 36.3232 12.8092 36.2497C12.8826 36.1763 12.8826 36.0578 12.8092 35.9842L12.4335 35.6085L13.2607 34.7813L14.3316 35.8522C14.4044 35.925 14.5228 35.9257 14.5971 35.8522C14.6706 35.7788 14.6706 35.6603 14.5971 35.5867L14.4621 35.4516L15.2637 34.6507L16.3768 35.7637C16.4495 35.8365 16.568 35.8372 16.6414 35.7637C16.7149 35.6903 16.7149 35.5718 16.6414 35.4982L16.3873 35.244L17.1876 34.443L17.5206 34.7761L17.1847 35.112C17.1112 35.1854 17.1112 35.3039 17.1847 35.3775C17.2574 35.4503 17.3759 35.451 17.4502 35.3775L17.7861 35.0416L18.4348 35.6903C18.5076 35.763 18.626 35.7637 18.6995 35.6903C18.7729 35.6168 18.7729 35.4984 18.6995 35.4247L18.0508 34.7761L18.527 34.2999C22.7209 34.4972 26.6537 35.4158 27.4855 39.9644C27.9692 42.576 26.5226 45.4521 24.1909 46.514ZM38.6992 10.6368L38.6061 10.5437L38.7134 10.4364L38.6992 10.6368ZM39.4409 10.792L39.5091 9.87035L40.0244 10.3857L39.4236 10.9864C39.428 10.9218 39.4357 10.8551 39.4409 10.792ZM39.6073 8.52867L39.6162 8.53764L39.6064 8.54746L39.6073 8.52867ZM39.7851 6.1227L39.8526 5.20766L40.4069 5.7619C40.4115 5.76647 40.4189 5.76494 40.4241 5.76867L39.9276 6.26519L39.7851 6.1227ZM39.9246 4.22984C39.9388 4.04605 39.9501 3.85262 39.9576 3.65529L40.3641 4.06179L39.9029 4.52295L39.9246 4.22984ZM39.9486 2.9083C39.944 2.83029 39.9418 2.75227 39.9335 2.67426C39.9329 2.66901 39.9335 2.66309 39.9329 2.65784C39.9584 2.65936 39.9831 2.66089 40.0087 2.66241L40.1385 2.79221C40.0935 2.79373 40.0478 2.80947 40.0133 2.844L39.9486 2.9083ZM20.5123 8.03299C20.0286 5.42377 21.4752 2.54852 23.8062 1.48642C25.7015 0.626885 27.3049 0.79121 36.1966 0.752117C38.5702 0.72284 39.4035 1.31752 39.1769 4.17416L38.742 10.066C38.6723 10.0323 38.5905 10.0308 38.532 10.0885L38.3414 10.279L37.7437 9.68131C37.6694 9.60702 37.5509 9.60854 37.4782 9.68131C37.4047 9.75476 37.4047 9.87322 37.4782 9.94599L38.0759 10.5437L37.3807 11.2389C37.3282 11.2914 37.3267 11.3642 37.3499 11.4302L37.0236 11.1039L37.1624 10.9651C37.2358 10.8917 37.2358 10.7732 37.1624 10.6996C37.0889 10.6261 36.9705 10.6261 36.8968 10.6996L36.7334 10.8631C36.6704 10.8451 36.6029 10.848 36.5526 10.8983C36.5024 10.9485 36.4993 11.0152 36.5174 11.079L35.5403 12.0561L35.0505 11.5664L35.1143 11.5026C35.1878 11.4291 35.1878 11.3107 35.1143 11.2371C35.0409 11.1636 34.9224 11.1636 34.8488 11.2371L33.7884 12.2998L33.5559 12.0673C33.4824 11.9939 33.3638 11.9939 33.2903 12.0673C33.2169 12.1408 33.2169 12.2592 33.2903 12.3328L33.5229 12.5654L32.7654 13.3229L32.1054 12.6628L33.4756 11.2934C33.5491 11.22 33.5491 11.1015 33.4756 11.0279C33.4022 10.9544 33.2837 10.9544 33.2101 11.0279L31.012 13.2254L30.5845 12.7979C30.511 12.7244 30.3926 12.7244 30.319 12.7979C30.2455 12.8713 30.2455 12.9898 30.319 13.0634L30.751 13.4955C30.6909 13.5674 30.6902 13.671 30.7556 13.7407C30.3596 13.7332 29.9644 13.7212 29.5713 13.704C29.5968 13.6373 29.596 13.563 29.542 13.509L29.4513 13.4175L31.1822 11.6865C31.2557 11.6131 31.2557 11.4946 31.1822 11.421C31.1088 11.3474 30.9903 11.3476 30.9167 11.421L29.1858 13.1519L28.8805 12.8466C28.807 12.7732 28.6884 12.7732 28.615 12.8466C28.5415 12.9201 28.5415 13.0385 28.615 13.1113L28.9202 13.4166L28.6847 13.6522C24.7954 13.3728 21.2923 12.2965 20.5123 8.03299ZM36.7589 11.3696L37.5404 12.1518L36.588 13.1042L35.8065 12.322L36.7589 11.3696ZM34.0207 13.5775C33.9683 13.63 33.9668 13.7028 33.9899 13.7681C33.7176 13.7644 33.4305 13.7629 33.147 13.7613C33.1395 13.7268 33.1335 13.6908 33.1065 13.6645L33.0307 13.588L33.7882 12.8306L34.278 13.3203L34.0207 13.5775ZM34.5428 13.5857L34.7483 13.7911C34.6163 13.7865 34.4851 13.7821 34.3501 13.7791L34.5428 13.5857ZM31.4019 13.6149L31.2782 13.4912L31.8414 12.9287L32.5014 13.5894L32.4151 13.6757C32.3926 13.6982 32.3895 13.729 32.3814 13.7574C32.0746 13.7559 31.7664 13.7537 31.4567 13.7507C31.4567 13.7013 31.4386 13.6525 31.4019 13.6149ZM34.0531 12.5657L34.7865 11.8323L35.2763 12.322L34.5428 13.0555L34.0531 12.5657ZM35.2597 13.8062C35.2522 13.8062 35.2433 13.8062 35.2357 13.8055C35.2289 13.771 35.2221 13.7349 35.1952 13.708L34.8075 13.3203L35.541 12.5869L36.3225 13.3691L36.0659 13.6256C36.0111 13.6804 36.0111 13.7569 36.0388 13.8243C35.7855 13.828 35.5245 13.8189 35.2597 13.8062ZM36.588 13.6344L36.7283 13.7747C36.6256 13.7904 36.5205 13.8009 36.414 13.8092L36.588 13.6344ZM37.1586 13.6742L36.8533 13.3689L37.8058 12.4164L37.9693 12.5799C38.042 12.6527 38.1605 12.6534 38.2348 12.5799C38.3082 12.5065 38.3082 12.388 38.2348 12.3144L38.0525 12.1321C38.081 12.0639 38.0818 11.9866 38.0263 11.9311C37.9708 11.8756 37.8936 11.8763 37.8252 11.9049L37.4555 11.5351C37.5222 11.5591 37.5702 11.5816 37.6467 11.5043L38.3419 10.8091L38.4582 10.9253C38.5399 11.0071 38.6037 10.983 38.6734 10.9456C38.6509 11.2103 38.6225 11.4833 38.5699 11.7578C38.4186 12.715 38.0617 13.3938 37.1586 13.6742ZM46.8408 8.91114C46.7988 10.9016 46.2655 11.2758 44.4603 11.3171L42.5703 11.3599L43.3195 10.6107C43.393 10.5373 43.393 10.4188 43.3195 10.3461C43.2461 10.2726 43.1275 10.2726 43.054 10.3461L42.0273 11.3728L40.8642 11.399L42.2253 10.037C42.2987 9.96359 42.2987 9.84513 42.2253 9.77151C42.1518 9.69807 42.0332 9.69807 41.9598 9.77151L40.3788 11.3532C40.3631 11.3689 40.3646 11.3907 40.3556 11.4093L39.5096 11.4281L40.2874 10.6503L40.5027 10.8656C40.5754 10.9384 40.6939 10.939 40.7682 10.8656C40.8416 10.7922 40.8416 10.6737 40.7682 10.6001L40.5529 10.3848L41.1784 9.75933C41.2519 9.68588 41.2519 9.56742 41.1784 9.4938C41.105 9.42036 40.9865 9.42036 40.9129 9.4938L40.2874 10.1193L39.6064 9.4383C39.5885 9.42036 39.5636 9.42036 39.5411 9.41122L39.5629 9.11879L39.8802 8.80148L40.2815 9.2034C40.3558 9.2777 40.4742 9.27533 40.547 9.2034C40.6205 9.12996 40.6205 9.01149 40.547 8.93872L40.1458 8.5368L40.637 8.04552C40.7105 7.97207 40.7105 7.85361 40.637 7.77999C40.5636 7.70654 40.4451 7.70654 40.3715 7.77999L39.8802 8.27127L39.6433 8.0335L39.7198 7.00085L39.9268 6.79387L40.4233 7.2904C40.4961 7.36317 40.6145 7.36385 40.6888 7.2904C40.7623 7.21696 40.7623 7.09849 40.6888 7.02488L40.1923 6.52835L40.8823 5.83839C40.9557 5.76494 40.9557 5.64648 40.8823 5.57286C40.8298 5.5204 40.757 5.51888 40.691 5.54206C40.6827 5.52633 40.6843 5.50754 40.6716 5.49485L40.0664 4.89035L40.6296 4.32715L40.6423 4.33984C40.7151 4.41261 40.8335 4.41329 40.9078 4.33984C40.9813 4.26639 40.9813 4.14793 40.9078 4.07516L40.1099 3.27723L40.2786 3.10851C40.3131 3.07398 40.3289 3.02829 40.3304 2.98327L40.6761 3.32902C40.7489 3.40179 40.8674 3.40246 40.9408 3.32902C41.0143 3.25557 41.0143 3.13711 40.9408 3.06434L40.5704 2.69389C41.0481 2.71792 40.7541 2.71115 44.9966 2.63093C46.5085 2.58287 46.9885 2.9039 46.9496 4.77663L46.8408 8.91114Z" fill="black"/>
<path d="M25.6556 4.16211C25.6488 4.16211 25.6414 4.16211 25.6353 4.16211C24.9392 4.16888 24.2545 4.48991 23.8032 5.01927C23.2603 5.65677 23.0081 6.64373 23.1469 7.59617C23.4964 10.0096 25.9856 10.3665 27.334 9.22655C29.3274 7.54455 28.1034 4.16211 25.6556 4.16211ZM25.6421 4.91215H25.6556C25.9045 4.91215 26.1521 4.98119 26.3847 5.09356L25.9947 5.48347L25.8522 5.34166C25.8927 5.27041 25.8951 5.1819 25.8343 5.12047C25.7736 5.05904 25.685 5.06124 25.6131 5.10253L25.4466 4.93601C25.5116 4.92704 25.5761 4.91282 25.6421 4.91215ZM23.9433 6.78402L23.8924 6.73308C23.9343 6.38514 24.0355 6.06191 24.1924 5.78894L24.5471 6.14365L23.9697 6.72107C23.9516 6.73833 23.9523 6.76219 23.9433 6.78402ZM24.4075 5.47383C24.5778 5.28564 24.7908 5.14162 25.0247 5.04567L25.3344 5.35537L24.811 5.87812L24.4075 5.47383ZM23.8773 7.24755L24.6647 8.03499L24.2604 8.43928C24.076 8.18357 23.9425 7.86474 23.8885 7.48837C23.8766 7.40866 23.8819 7.32777 23.8773 7.24755ZM26.8495 8.6537C26.2383 9.17037 25.2911 9.24466 24.6446 8.82547C24.5974 8.79467 24.5583 8.75118 24.5148 8.7153L24.9296 8.30051L25.0135 8.38445C25.1884 8.55927 25.4552 8.29594 25.2791 8.11977L25.1951 8.03583L25.8123 7.41864C25.8858 7.3452 25.8858 7.22673 25.8123 7.15312C25.7389 7.0795 25.6202 7.07967 25.5468 7.15312L24.9296 7.77031L24.1714 7.01215C24.1924 7.00318 24.2171 7.00318 24.2344 6.98592L24.8118 6.4085L25.2303 6.82769C25.3046 6.90198 25.4231 6.89961 25.4958 6.82769C25.5693 6.75424 25.5693 6.63578 25.4958 6.56216L25.0773 6.14297L25.6008 5.61954L25.7297 5.74849L25.5866 5.89166C25.5131 5.96511 25.5131 6.08357 25.5866 6.15634C25.6593 6.22911 25.7778 6.22979 25.8521 6.15634L25.9952 6.01317L26.362 6.3799C26.4347 6.45267 26.5532 6.45334 26.6275 6.3799C26.7009 6.30645 26.7009 6.18799 26.6275 6.11522L26.2608 5.74849L26.716 5.29326C27.955 6.21997 27.7344 7.90671 26.8495 8.6537Z" fill="black"/>
<path d="M45.0678 3.92661C44.8615 3.94015 44.7048 4.11852 44.7175 4.32482L44.806 5.69644C44.8187 5.89512 44.9837 6.04743 45.1795 6.04743C45.1885 6.04743 45.1959 6.04743 45.2042 6.04675C45.4105 6.03322 45.5672 5.85485 45.5545 5.64855L45.466 4.27692C45.4532 4.06995 45.2748 3.90563 45.0678 3.92661Z" fill="black"/>
<path d="M45.0061 8.1998C44.7998 8.21181 44.6416 8.38883 44.6529 8.59495L44.7331 10.0199C44.7443 10.2201 44.9093 10.3739 45.1073 10.3739C45.1141 10.3739 45.1215 10.3739 45.1283 10.3732C45.3346 10.3612 45.4928 10.1842 45.4815 9.97809L45.4013 8.55315C45.3908 8.34618 45.2476 8.18033 45.0061 8.1998Z" fill="black"/>
<path d="M23.7621 38.5461C22.8366 37.9416 21.5325 38.0391 20.6655 38.7741C19.8421 39.4686 19.4799 40.6603 19.7634 41.7402C20.2966 43.7696 22.8097 44.6051 24.1957 42.9807C25.2126 41.7891 25.151 39.4476 23.7621 38.5461ZM21.5618 39.0937L21.9128 39.4447C21.9001 39.4522 21.8835 39.4507 21.8723 39.4612L21.3714 39.9629L20.9522 39.5437C21.0136 39.4732 21.0796 39.4072 21.1502 39.3473C21.2738 39.2415 21.4147 39.1611 21.5618 39.0937ZM20.7241 40.7466L20.6131 40.6356C20.5711 40.5937 20.5147 40.5823 20.4601 40.5891C20.5081 40.3281 20.6011 40.0777 20.7324 39.8534L21.1066 40.2276L20.7623 40.5718C20.7136 40.6206 20.709 40.685 20.7241 40.7466ZM20.4885 41.5498C20.4391 41.3623 20.4188 41.168 20.4218 40.9746L21.456 42.0081L21.048 42.4161C21.0316 42.4325 21.0323 42.4559 21.0233 42.4762C20.775 42.2196 20.5816 41.9023 20.4885 41.5498ZM23.6249 42.4948C23.0422 43.178 22.0739 43.3048 21.2729 42.6981C21.2856 42.6906 21.3013 42.6928 21.3127 42.6815L21.7207 42.2728C21.9113 42.4633 22.1766 42.1985 21.9854 42.0072C22.1871 41.8055 22.5674 41.5385 22.3783 41.3494C22.1893 41.1604 21.9216 41.5407 21.7199 41.7424L20.8514 40.8739C20.8664 40.8776 20.8784 40.8912 20.8933 40.8912C20.9414 40.8912 20.9893 40.8732 21.026 40.8363L21.3702 40.4921L21.8749 40.9968C22.0504 41.1723 22.3144 40.9061 22.1395 40.7312L21.6349 40.2266L21.9634 39.8981C21.9476 39.9595 21.9522 40.0249 22.0009 40.0729C22.0737 40.1457 22.1922 40.1464 22.2665 40.0729L22.4059 39.9335C22.5814 40.1015 22.8386 39.848 22.6691 39.6702L22.9781 39.3611C23.0515 39.2877 23.0515 39.1692 22.9781 39.0956C22.9046 39.022 22.7862 39.0222 22.7126 39.0956L22.4044 39.4038L21.9566 38.956C22.1006 38.9237 22.2468 38.9012 22.3939 38.9012C22.7359 38.9012 23.0727 38.9897 23.3531 39.1719C24.3343 39.8128 24.366 41.6263 23.6249 42.4948Z" fill="black"/>
<path d="M2.79244 41.9539C2.58614 41.9674 2.42943 42.1458 2.44213 42.3521L2.52979 43.7237C2.54248 43.9224 2.70748 44.0747 2.90396 44.0747C2.91225 44.0747 2.9197 44.0747 2.92799 44.074C3.13429 44.0605 3.29099 43.8819 3.2783 43.6758L3.19064 42.3042C3.17795 42.0963 2.98519 41.9412 2.79244 41.9539Z" fill="black"/>
<path d="M2.86743 37.6265C2.66114 37.6385 2.50291 37.8156 2.51425 38.0217L2.59531 39.4466C2.60648 39.6468 2.77148 39.8007 2.96948 39.8007C2.97625 39.8007 2.9837 39.8007 2.99046 39.8C3.19676 39.788 3.35499 39.6109 3.34365 39.4048L3.26259 37.9799C3.25227 37.7736 3.10825 37.6154 2.86743 37.6265Z" fill="black"/>
</g>
<defs>
<clipPath id="clip0_3307_10617">
<rect width="48" height="48" fill="white"/>
</clipPath>
</defs>
</svg>
