<svg xmlns="http://www.w3.org/2000/svg" width="96" height="96" fill="none" viewBox="0 0 96 96"><path fill="#06c" d="M64.9 21.274c-3.444-2.977-8.206-3.757-13.073-2.128-5.674 1.898-10.242 6.68-11.366 11.897-1.13 5.236 1.196 11.08 5.658 14.215 2.42 1.7 5.394 2.566 8.383 2.566 2.398 0 4.808-.558 6.947-1.692 4.7-2.488 7.936-7.597 8.24-13.018.253-4.526-1.581-9.064-4.789-11.84m-4.432-.478-.6-.601q.466.13.919.302c-.009.008-.022.005-.03.014zm-1.913-.885.271.27-.95.95-.872-.872c.058-.134.06-.287-.05-.396a.36.36 0 0 0-.231-.096h.019c.618.002 1.223.054 1.814.144m-5.178.329.047-.046c.86-.216 1.708-.34 2.542-.39-.106.142-.11.339.02.468l.024.025-1.289 1.288zm3.145-.461q.072-.005.144-.006c-.038.005-.07.028-.106.044zm-4.61.899-.513.512-.217-.217c.242-.1.482-.205.73-.295m-1.461.592.446.446c-.106.143-.11.34.02.47.12.12.289.154.468.02l.117.117-1.683 1.683-1.506-1.507c.682-.455 1.39-.874 2.138-1.23m-8.773 13.309 1.039 1.038-.778.779q-.198-.903-.26-1.817m-.023-1.053c.003-.157-.009-.313 0-.469.154.222.396.198.538.057l.982-.982 1.514 1.515-1.456 1.457zm.066-.969c.042-.404.074-.81.16-1.207h.001c.03-.133.084-.26.118-.391l.66.66zm.698-2.21a.34.34 0 0 0-.21-.085c.21-.65.469-1.289.789-1.911l1.466 1.466-1.289 1.288zm2.49-4.818.175.174-1.267 1.267q.497-.745 1.092-1.441m15.859 19.318c-4.33 2.293-9.882 1.98-13.814-.78-2.352-1.652-4.017-4.153-4.804-6.879.013-.01.032-.005.043-.017l1.039-1.039 1.265 1.266a.365.365 0 0 0 .515 0 .36.36 0 0 0 0-.514l-1.265-1.265 1.658-1.658c.025-.015.057-.01.078-.032.022-.022.018-.054.033-.079l1.243-1.243a.364.364 0 1 0-.513-.515l-1.042 1.041-1.514-1.514 1.289-1.289.676.677a.365.365 0 0 0 .515-.515l-.676-.677.995-.995a.364.364 0 1 0-.515-.514l-.995.996-1.232-1.232 1.851-1.852 1.177 1.177a.363.363 0 1 0 .514-.515l-1.177-1.177 1.738-1.738a.363.363 0 1 0-.515-.513l-1.738 1.738-.215-.215a16.7 16.7 0 0 1 2.337-2.043l1.59 1.59-1.433 1.433a.363.363 0 1 0 .515.515l1.433-1.433 1.214 1.215a.365.365 0 0 0 .515-.515l-1.214-1.215 1.683-1.683.93.928c.14.141.37.143.514 0a.36.36 0 0 0 0-.513l-.928-.928.518-.518a.364.364 0 1 0-.515-.515l-.518.518-.105-.105.952-.95 1.38 1.38c-.055.133-.057.283.051.39.158.16.26.107.39.052l.918.917c.14.141.37.143.514 0a.36.36 0 0 0 0-.513l-.88-.882 1.288-1.288.838.837-.139.139a.36.36 0 0 0 0 .513c.144.144.374.14.515 0l.139-.137.373.374a.365.365 0 0 0 .515-.515l-.374-.373.95-.95.649.648c-.055.133-.055.283.052.39.159.159.26.106.39.053l.402.401c.144.144.373.14.514 0a.36.36 0 0 0 0-.513l-.365-.365.287-.287a.35.35 0 0 0 .093-.29c.93.417 1.8.96 2.586 1.641 2.874 2.488 4.517 6.572 4.288 10.66-.285 4.918-3.216 9.556-7.476 11.809"/><path fill="#06c" d="M82.305 38.35a.73.73 0 0 0 .461-.687c-.019-1.295-.093-2.692-.167-4.09-.076-1.392-.151-2.786-.167-4.08a.725.725 0 0 0-.51-.684l-1.015-.32c-1.365-.43-2.736-.861-4.1-1.297a23 23 0 0 0-1.699-5.177c.585-1.14 1.18-2.28 1.773-3.417l.456-.874a.72.72 0 0 0-.126-.844c-1.765-1.81-3.72-4.144-5.549-6.013a.725.725 0 0 0-.813-.155 49 49 0 0 0-4.276 2.147 18.4 18.4 0 0 0-5.353-1.817q-.591-1.88-1.188-3.76l-.166-.522a.73.73 0 0 0-.684-.508c-2.55-.035-5.563-.298-8.168-.336-.274.03-.576.18-.688.463-.726 1.857-1.375 3.943-1.983 6.363-1.036.44-2.045.941-3.01 1.495l-5.566-2.888a.73.73 0 0 0-.844.123c-1.827 1.784-4.15 3.726-6.011 5.54a.73.73 0 0 0-.157.812c.77 1.768 1.76 3.667 2.94 5.65a21.8 21.8 0 0 0-1.82 3.728l-5.072 1.606a.73.73 0 0 0-.508.682c-.036 2.561-.3 5.585-.336 8.17a.73.73 0 0 0 .46.688c1.524.6 3.174 1.136 5.031 1.633a22.7 22.7 0 0 0 1.684 4.142 48 48 0 0 0-2.38 4.682.73.73 0 0 0 .156.811c.931.908 1.977 1.848 3.024 2.787 1.035.928 2.069 1.856 2.988 2.754.225.218.567.27.845.123a683 683 0 0 1 4.35-2.256 22 22 0 0 0 4.43 1.653 52 52 0 0 0 1.776 5.58c.107.28.378.465.679.465h.01c2.607-.037 5.618-.3 8.169-.336a.73.73 0 0 0 .684-.506l1.81-5.715a22 22 0 0 0 3.189-1.385c2.167 1.308 4.13 2.339 5.987 3.148.273.12.597.056.81-.157.91-.93 1.849-1.974 2.785-3.02.931-1.036 1.86-2.073 2.764-2.993a.73.73 0 0 0 .125-.847l-2.985-5.737c.496-.909.93-1.841 1.29-2.778 2.57-.623 4.755-1.294 6.665-2.045m-1.213-5.78-.254-.252.23-.229q.01.24.024.482M51.315 58.716l1.297-1.3 1.727 1.726c-.965.05-1.923.097-2.838.12-.066-.174-.122-.369-.186-.546m7.885-2.803-1.328 1.328-.837-.837 1.618-1.617.988.987-.031.095c-.135-.067-.297-.07-.41.044m11.771-1.517a48 48 0 0 1-4.296-2.232l1.427-1.428.977.977-.099.1c-.343.343.18.847.515.514l.099-.099 1.671 1.672c.034.033.08.032.121.049-.137.148-.276.304-.415.447m-.737-5.79.977.978-1.617 1.617-.977-.977zm4.69-1.17-1.688-1.69.534-.533zm-.513-7.897a22 22 0 0 1-1.517 3.273.73.73 0 0 0-.013.693l.537 1.032-.714.714c-.141-.095-.328-.1-.453.026-.125.125-.12.311-.026.452l-.4.4a.364.364 0 1 0 .514.515l.382-.382 1.962 1.962a.365.365 0 0 0 .515 0c.041-.04.044-.096.06-.145l.545 1.047c-.8.835-1.618 1.748-2.439 2.66q-.775.865-1.543 1.699c-.095-.183-1.562-1.619-1.712-1.769l1.617-1.617.837.836-1.164 1.164a.363.363 0 1 0 .515.515l1.178-1.178c.063.045.131.085.207.085a.36.36 0 0 0 .257-.106c.128-.128.124-.321.02-.464l1.75-1.75a.363.363 0 1 0-.515-.515l-1.735 1.736-.836-.837.795-.795a.363.363 0 1 0-.514-.515l-.796.795-.978-.977.606-.605a.36.36 0 0 0 0-.514.36.36 0 0 0-.514 0l-2.737 2.738-.595-.595a.364.364 0 1 0-.515.515l.595.595-1.56 1.56c-.256-.152-.504-.296-.766-.456a.73.73 0 0 0-.736-.013c-1.194.644-2.245 1.134-3.657 1.591a.72.72 0 0 0-.47.471l-.513 1.618-.722-.72.185-.185a.363.363 0 1 0-.515-.515l-.184.185-.662-.67a.363.363 0 1 0-.515.514l.667.666-1.617 1.618-.809-.809a.363.363 0 1 0-.513.515l.808.809-1.093 1.092a.364.364 0 1 0 .515.515l1.093-1.094.837.837-.028.027a.363.363 0 1 0 .515.515l1.46-1.46-.669 2.11c-1.066.026-2.19.085-3.317.146l-2.191-2.19 3.42-3.42a.364.364 0 1 0-.515-.515l-3.42 3.42-.028-.027a.364.364 0 1 0-.515.515l.028.028-1.046 1.041a54 54 0 0 1-1.207-4.046.73.73 0 0 0-.54-.53 20.4 20.4 0 0 1-4.85-1.803.7.7 0 0 0-.34-.085.75.75 0 0 0-.332.08c-1.416.727-2.82 1.456-4.227 2.19a119 119 0 0 0-2.652-2.427c-.896-.806-1.794-1.61-2.617-2.394a49 49 0 0 1 2.304-4.425.73.73 0 0 0 .01-.717c-.801-1.454-1.428-3-1.866-4.593a.73.73 0 0 0-.518-.511 47 47 0 0 1-4.797-1.505c.054-2.243.26-4.793.317-7.14l4.917-1.556a.73.73 0 0 0 .465-.452 20.5 20.5 0 0 1 2.04-4.157.73.73 0 0 0 .008-.767c-1.144-1.895-2.112-3.709-2.878-5.402 1.662-1.585 3.632-3.26 5.27-4.823l5.457 2.833c.222.117.49.108.707-.02a27 27 0 0 1 3.511-1.747.73.73 0 0 0 .43-.499c.57-2.304 1.17-4.295 1.833-6.065 2.284.055 4.82.257 7.136.315l.01.026q.666 2.09 1.318 4.18c.083.266.31.46.584.503 2.053.317 3.965.963 5.677 1.92a.73.73 0 0 0 .715-.003 49 49 0 0 1 4.032-2.071c1.542 1.608 3.208 3.568 4.831 5.268l-.214.409a567 567 0 0 0-1.943 3.746.73.73 0 0 0-.006.652 21.2 21.2 0 0 1 1.815 5.56c.048.264.239.48.495.56 1.502.482 3.012.958 4.518 1.432l.516.163c.009.364.026.742.04 1.116-.031.017-.07.013-.098.04l-.607.605-.453-.453a.363.363 0 1 0-.513.515l.5.5c-.037.124-.031.255.066.352a.36.36 0 0 0 .258.106c.033 0 .06-.029.094-.04l.643.644a.35.35 0 0 0 .221.091l.008.133c.064 1.198.13 2.395.155 3.527a46 46 0 0 1-3.322 1.092l-1.05-1.05 1.901-1.9.694.693-1.165 1.164a.364.364 0 1 0 .515.514l1.42-1.416q.007-.003.01-.005c.004-.002.002-.007.005-.01l.361-.36a.364.364 0 1 0-.515-.515l-.11.11-.694-.694.817-.817a.363.363 0 1 0-.515-.513l-.819.817-.24-.24a.364.364 0 1 0-.515.513l.24.24-1.9 1.901-.526-.525a.363.363 0 1 0-.515.515l.525.525-.525.525a.36.36 0 0 0 0 .514c.141.14.371.142.515 0l.525-.525.763.762c-.72.198-1.462.394-2.254.583a.73.73 0 0 0-.512.46"/><path fill="#06c" d="M89.624 59.55c-1.217-1.588-3.44-1.778-5.1-1.263-3.502 1.088-6.565 5.646-16.31 7.86-1.272-4.316-6.853-2.1-8.312-1.671-5.294 1.574-10.74.752-16.484-3.254-2.233-1.556-6.637-5.023-14.133-2.634-2.522.806-5.044 2.244-7.665 4.305a10.4 10.4 0 0 0-1.964-2.373c-5.443-4.833-13.546-1.635-13.755 4.298-.594 16.79-.49 18.67.837 20.903 1.257 2.112 3.79 3.377 6.42 3.377 4.283 0 7.791-3.316 9.4-7.559 5.911 5.103 13.936 8.207 22.287 8.516 8.523.316 16.961-2.08 24.435-6.333 6.92-3.937 13.284-9.584 18.913-16.784 1.806-2.306 3.207-5.072 1.431-7.387M7.99 84.977c-1.012-1.699-1.243-2.904-.634-20.109.163-4.675 6.803-7.289 11.335-3.26.699.619 1.29 1.37 1.794 2.23a.709.709 0 0 0 .579 1.122c.79 1.795 1.235 4.007 1.335 6.618-.057.016-.116.022-.161.067l-1.99 1.99-.342-.342a.363.363 0 1 0-.515.515l.342.342-.582.581a.364.364 0 1 0 .515.515l.582-.582.985.985-1.285 1.285-1.242-1.243a.363.363 0 1 0-.513.515l1.242 1.243-1.824 1.824-.342-.342a.363.363 0 1 0-.515.515l2.321 2.321-1.883 1.884-.925-.925 1.363-1.363a.364.364 0 1 0-.515-.515L15.75 82.21l-.522-.522a.364.364 0 1 0-.514.515l.522.522-1.224 1.224-.806-.807 1.556-1.556a.364.364 0 1 0-.515-.515l-3.534 3.536-.883-.883a.363.363 0 1 0-.515.515l.883.883-1.11 1.111a5 5 0 0 1-1.1-1.257M20.762 74.15l1.646-1.647c.003.309.016.603.01.921a37 37 0 0 1-.116 2.266zm-4.088 10.012-1.224 1.224-.924-.925 1.225-1.224zm-5.57 3.163a6.1 6.1 0 0 1-1.414-.664l1.024-1.026.804.804-.401.403a.36.36 0 0 0-.014.483m.125-2.203 1.464-1.465.805.804-1.465 1.465zm3.765 2.261c-1.172.344-2.397.325-3.52.038.054-.017.114-.022.158-.065l.402-.403.104.103a.362.362 0 1 0 .515-.513l-.104-.104 1.465-1.464.925.925-.822.822a.363.363 0 1 0 .515.515l.822-.822.573.573a7.5 7.5 0 0 1-1.033.395m1.707-.746-.736-.737 1.224-1.225.544.544a.363.363 0 1 0 .515-.515l-.544-.544 1.94-1.94c.024.004.041.026.065.026a.36.36 0 0 0 .257-.106c.089-.089.102-.207.08-.322l.317-.317a.364.364 0 1 0-.513-.515l-.262.262-1.465-1.465 1.824-1.823 1.094 1.092a.362.362 0 0 0 .515 0 .363.363 0 0 0 0-.515l-1.094-1.094 1.286-1.284.46.46a21 21 0 0 1-.53 2.885.7.7 0 0 0-.179.127.72.72 0 0 0-.107.832q-.239.723-.537 1.392c-.947 2.09-2.435 3.777-4.154 4.782m25.338 1.734c-.559-.065-1.109-.163-1.661-.253.086-.14.09-.317-.032-.438l-.141-.14 1.59-1.592 1.194 1.193-.882.881c-.097.096-.103.227-.068.35m-2.745-.713c.013.07.028.141.082.195.053.054.125.069.194.082l.059.058a37 37 0 0 1-3.14-.721l1.21-1.21zm35.09-9.19c.034.033.08.031.12.049a58 58 0 0 1-2.294 1.643l-.018-.019 1.933-1.933zm-2.707 1.158-1.193-1.194 1.933-1.933 1.194 1.193zm-.514.514-1.393 1.393c-.01.01-.008.028-.016.04l-1.206-1.206 1.42-1.421zm9.372-6.797-2.765-2.765 1.934-1.935c-.019.112-.003.227.083.314l.995.995-1.223 1.224a.364.364 0 1 0 .515.514l1.222-1.223.944.944c.036.037.085.037.13.054a73 73 0 0 1-1.835 1.878m2.163-7.693c.017.04.016.087.05.119l1.108 1.11-2.56 2.56-.994-.995c-.087-.087-.2-.102-.313-.083zm.056 5.246-.944-.944 2.559-2.56.867.867a75 75 0 0 1-2.432 2.758c-.018-.04-.016-.087-.05-.12m2.944-3.203-.814-.816 1.347-1.347a.363.363 0 1 0-.515-.514L84.37 66.36c-.155-.156-1.041-1.078-1.229-1.16l1.14-1.138c.337-.338-.174-.855-.516-.515l-8.304 8.304a.363.363 0 1 0 .515.515l1.279-1.28L80 73.833a63 63 0 0 1-5.02 4.314c-.011-.071-.027-.144-.083-.2l-.26-.26 1.99-1.99.269.27a.363.363 0 1 0 .513-.515l-.269-.27.371-.37a.364.364 0 1 0-.515-.515l-.37.37-2.133-2.133a.365.365 0 0 0-.515.515l2.133 2.134-1.99 1.99-1.195-1.193 1.26-1.26a.363.363 0 1 0-.515-.513l-1.26 1.26-.653-.654a.363.363 0 1 0-.514.515l.653.653-1.933 1.933-1.279-1.28a.364.364 0 1 0-.515.515l1.279 1.28-1.421 1.421-2.078-2.077c-.01-.01-.027-.007-.039-.016l1.974-1.974a.363.363 0 1 0-.515-.514l-5.206 5.205-1.25-1.249 1.96-1.96a.364.364 0 1 0-.515-.516L60.4 78.71l-.028-.028a.363.363 0 1 0-.513.515l.027.028-2.332 2.332-1.079-1.08.364-.363a.363.363 0 1 0-.515-.515l-.4.4c-.133-.057-.284-.057-.391.05s-.108.26-.051.392l-2.31 2.311-.54-.54a.364.364 0 1 0-.515.516l.54.54-1.933 1.932-1.962-1.962a.363.363 0 1 0-.515.513l1.962 1.963-.938.938a.364.364 0 1 0 .515.515l.938-.938 1.08 1.079-.029.027a.363.363 0 1 0 .515.515l.11-.11a.35.35 0 0 0 .247-.102.36.36 0 0 0 .102-.246l2.017-2.016.975.975a.365.365 0 0 0 .514-.515l-.974-.975 2.275-2.275 1.25 1.251-2.702 2.703a.363.363 0 1 0 .514.515l2.702-2.703c.184.183 1.257 1.341 1.491 1.341a.364.364 0 0 0 .258-.621l-1.23-1.232 2.332-2.331 2.533 2.532a.365.365 0 0 0 .514-.515l-2.532-2.532 2.742-2.742c.009.011.006.028.016.04l2.077 2.076-2.418 2.418a.363.363 0 1 0 .515.515l2.418-2.418 1.18 1.18c-.22.13-.435.272-.655.397-7.876 4.48-16.826 6.844-25.83 5.97l.773-.773.267.268c.141.14.371.142.515 0a.36.36 0 0 0 0-.514l-.268-.267 1.365-1.365 2.372 2.373c.141.14.371.142.515 0a.36.36 0 0 0 0-.514l-2.372-2.372 4.832-4.832a.363.363 0 1 0-.515-.515l-4.834 4.829-.71-.71a.363.363 0 1 0-.514.515l.71.71-1.365 1.364-1.193-1.193 2.537-2.536a.363.363 0 1 0-.515-.515l-2.537 2.537-.766-.767a.363.363 0 1 0-.515.515l.767.766-1.592 1.592-1.478-1.478 3.52-3.52a.364.364 0 1 0-.515-.514l-3.52 3.52-.199-.197a.364.364 0 1 0-.515.514l.2.198-1.513 1.513c-4.767-1.441-9.116-3.852-12.633-7.02.51-1.854.78-3.973.835-6.586.079-3.734-.445-6.829-1.556-9.26 2.557-2.042 4.993-3.448 7.412-4.22 6.564-2.098 10.326.672 12.857 2.44 6.02 4.194 11.91 5.181 17.73 3.456 1.686-.5 4.696-1.803 6.146-.022 1.021 1.256.703 3.686-3.165 5.638-8.333 4.204-18.996 3.327-26.532-2.186a.727.727 0 0 0-.858 1.174c4.607 3.371 10.322 5.102 16.029 5.102 4.154 0 8.305-.917 12.019-2.79 2.24-1.13 4.224-2.67 4.405-5.179 9.897-2.193 13.594-6.998 16.597-7.929 1.139-.356 2.726-.269 3.515.76.514.672.627 1.73.294 2.763-.172.528-.435 1.026-.746 1.508-.015-.024-.01-.056-.032-.078l-1.337-1.337 1.49-1.49a.363.363 0 1 0-.514-.514L86.1 62.816c-.132-.056-.284-.058-.393.051-.109.11-.107.26-.05.393l-.519.518a.363.363 0 1 0 .514.515l.483-.483 1.337 1.336c.052.053.123.066.19.079a30 30 0 0 1-.615.82c-.442.563-.896 1.103-1.349 1.648m-24.04 13.3-2.332 2.332-1.25-1.25 2.33-2.332zm-9.334 5.804-1.08-1.079 1.934-1.933 1.079 1.08zm1.369-3.527 2.275-2.275 1.079 1.08-2.275 2.274z"/></svg>