<svg width="40" height="40" viewBox="0 0 40 40" fill="none" xmlns="http://www.w3.org/2000/svg">
<path d="M1.79595 36.8463C2.58868 37.3269 26.6226 36.8239 30.4263 36.7566C36.8469 36.6426 37.2341 36.7717 38.1554 36.2572C39.5857 35.4632 39.8923 33.0057 36.9608 32.9342C37.1172 26.5675 37.245 21.5832 37.5711 8.77598C37.5711 8.77537 37.5711 8.77476 37.5711 8.77416C37.6063 6.90022 36.9426 6.44385 35.5566 6.42325C29.945 6.36022 30.6875 6.38931 29.6808 6.28628C29.0972 6.22628 28.4511 6.16325 27.8596 6.16143L27.8566 5.79294C27.8566 3.31173 26.676 2.85901 24.1863 2.96143C13.6105 3.39295 14.3378 3.36264 13.7317 3.34931C12.2038 3.31537 10.702 3.4681 10.7717 5.03901C10.7923 5.43658 10.7772 5.84264 10.7699 6.24204C9.13595 6.38385 10.2899 6.34628 4.44202 6.40628C3.04323 6.42567 2.38747 6.84992 2.37414 8.59537L2.36808 33.5239C0.195954 33.822 0.522015 36.0675 1.79595 36.8463ZM29.619 6.88931C30.6657 6.99658 29.956 6.96628 35.5487 7.02931C36.5675 7.04385 36.9941 7.20688 36.965 8.76143C36.6329 21.8196 36.5141 26.4263 36.3541 32.9354C35.459 32.9499 28.8838 33.0548 28.1196 33.0669C28.1123 32.3202 27.8699 7.21537 27.865 6.76385C28.425 6.76688 29.0541 6.83173 29.619 6.88931ZM16.2402 27.8057C16.2644 27.7584 16.3038 27.7269 16.3372 27.6887L16.4796 27.8311L16.2863 28.0245C16.2269 28.0839 16.2269 28.1796 16.2863 28.239C16.316 28.2687 16.3547 28.2832 16.3935 28.2832C16.4323 28.2832 16.4711 28.2687 16.5008 28.239L16.6947 28.0457L17.1008 28.4517L16.4341 29.119L16.1069 28.7917L16.1105 28.6378C16.116 28.3523 16.1238 28.0293 16.2402 27.8057ZM16.582 27.5051C16.6772 27.4608 16.785 27.4257 16.9075 27.4026L16.6935 27.6166L16.582 27.5051ZM16.0802 29.8414C16.116 29.839 16.1517 29.8275 16.179 29.8002L16.4323 29.5469L16.999 30.1136L16.4923 30.6202L16.0717 30.1996L16.0802 29.8414ZM16.0893 29.462L16.0954 29.2099L16.2184 29.3329L16.0893 29.462ZM16.062 30.6178L16.2784 30.8342L16.0511 31.0614L16.062 30.6178ZM16.025 32.1626L16.5087 32.6463L16.0014 33.1536L16.025 32.1626ZM16.7226 32.8602L16.9657 33.1032C16.9953 33.1329 17.0341 33.1475 17.0729 33.1475C17.1117 33.1475 17.1505 33.1329 17.1802 33.1032C17.2396 33.0439 17.2396 32.9481 17.1802 32.8887L16.9372 32.6457L18.0535 31.5293C18.1129 31.4699 18.1129 31.3742 18.0535 31.3148C17.9941 31.2554 17.8984 31.2554 17.839 31.3148L16.7226 32.4311L16.0347 31.7432L16.0408 31.4996L16.4929 31.0475L16.9905 31.5451C17.0202 31.5748 17.059 31.5893 17.0978 31.5893C17.1366 31.5893 17.1754 31.5748 17.205 31.5451C17.2644 31.4857 17.2644 31.3899 17.205 31.3305L16.7075 30.8329L17.2141 30.3263L17.2675 30.3796C17.2972 30.4093 17.336 30.4239 17.3747 30.4239C17.4135 30.4239 17.4523 30.4093 17.482 30.3796C17.5414 30.3202 17.5414 30.2245 17.482 30.1651L17.4287 30.1117L17.819 29.7214C17.8784 29.662 17.8784 29.5663 17.819 29.5069C17.7596 29.4475 17.6638 29.4475 17.605 29.5069L17.2147 29.8972L16.6481 29.3305L17.3232 28.6554C17.3481 28.6717 17.3735 28.6881 17.402 28.6881C17.4408 28.6881 17.4796 28.6736 17.5093 28.6439C17.5657 28.5875 17.5644 28.499 17.5135 28.4396C17.5408 28.3832 17.542 28.3172 17.4947 28.2699C17.4493 28.2245 17.385 28.2251 17.3293 28.2499L16.9087 27.8293L17.3614 27.3766C17.3699 27.3681 17.3681 27.3554 17.3741 27.3457H17.3754L17.699 27.3281L18.2911 27.9202L18.1881 28.0232C18.1287 28.0826 18.1287 28.1784 18.1881 28.2378C18.2178 28.2675 18.2566 28.282 18.2953 28.282C18.3341 28.282 18.3729 28.2675 18.4026 28.2378L18.5057 28.1348L19.0402 28.6693C19.0699 28.699 19.1087 28.7136 19.1475 28.7136C19.1863 28.7136 19.225 28.699 19.2547 28.6693C19.3141 28.6099 19.3141 28.5142 19.2547 28.4548L18.7202 27.9202L19.405 27.2354L19.5226 27.2293L19.9535 27.6602L19.8105 27.8032C19.7511 27.8626 19.7511 27.9584 19.8105 28.0178C19.8402 28.0475 19.879 28.062 19.9178 28.062C19.9566 28.062 19.9953 28.0475 20.025 28.0178L20.1681 27.8748L20.4929 28.1996C20.5226 28.2293 20.5614 28.2439 20.6002 28.2439C20.639 28.2439 20.6778 28.2293 20.7075 28.1996C20.7669 28.1402 20.7669 28.0445 20.7075 27.9851L20.3826 27.6602L20.7863 27.256C20.9511 27.3026 21.0905 27.3772 21.1966 27.5069C21.4681 27.839 21.4687 28.4142 21.4475 28.9263L21.2747 33.1784C19.625 33.2045 17.9747 33.2317 16.3238 33.2596L16.7226 32.8602ZM18.1044 27.3069L18.9505 27.2608L18.5044 27.7069L18.1044 27.3069ZM19.9275 27.2081L20.0184 27.2032C20.162 27.1954 20.2929 27.1936 20.4147 27.1984L20.1663 27.4469L19.9275 27.2081ZM13.7184 3.95476C14.3244 3.9687 13.616 3.99901 24.2105 3.56688C26.5469 3.47113 27.2505 3.82991 27.2505 5.79294C27.2596 6.83052 27.3844 19.642 27.5141 33.0766C25.6353 33.1093 23.7578 33.1396 21.8802 33.1693L22.0511 28.9517C22.0766 28.3281 22.0699 27.6208 21.6638 27.1239C21.1814 26.5323 20.402 26.5742 19.9857 26.5972L17.342 26.7408C16.9305 26.7633 16.0747 26.8093 15.7026 27.5245C15.5214 27.8736 15.5111 28.2881 15.5032 28.622L15.3923 33.276C15.3505 33.2766 11.2178 33.3445 11.1657 33.3451C11.1632 26.462 11.1408 18.6439 11.3717 6.52567C11.3717 6.52567 11.4008 5.45355 11.3778 5.00931C11.3281 3.9081 12.6075 3.93173 13.7184 3.95476ZM2.9802 8.59779C2.99111 7.20567 3.3802 7.02688 4.44929 7.01234C10.3469 6.95173 9.17899 6.9887 10.759 6.84992C10.5153 19.6032 10.5438 24.8142 10.5408 33.3475L2.97414 33.4669L2.9802 8.59779ZM3.11656 34.0839C3.34808 34.0839 36.0438 33.5384 36.6499 33.5384C36.6499 33.5384 36.7044 33.5372 36.7541 33.5372C39.3366 33.5372 38.7329 35.2439 37.8602 35.7281C37.1057 36.1493 36.9111 36.0354 30.4154 36.1505C22.2317 36.2954 3.06808 36.6342 2.1105 36.3281C1.41717 35.9045 0.51353 34.1105 3.11656 34.0839Z" fill="#1A1A1A"/>
<path d="M13.3786 9.8299C13.3192 10.6972 13.7658 11.002 14.6228 10.9602L17.2277 10.8347C17.9168 10.802 18.2949 10.5366 18.2846 9.59474C18.2822 9.33777 18.2568 7.39777 18.2707 7.14141C18.2792 6.98565 18.2864 6.82929 18.2695 6.67777C18.2222 6.23656 17.9489 5.95171 17.4186 5.96929L16.0974 5.93171C15.7695 5.91959 15.4422 5.90747 15.1228 5.90747C15.1216 5.90747 15.1198 5.90747 15.118 5.90747C13.8464 5.87171 13.164 6.26626 13.2646 7.53656C13.3089 8.07777 13.4125 9.34262 13.3786 9.8299ZM13.8689 7.48808C13.8416 7.13899 13.8525 7.20868 13.8658 7.09899L14.0761 7.30929C14.0774 7.34626 14.0901 7.38323 14.1186 7.41111C14.1471 7.43959 14.1834 7.45232 14.2204 7.45353L14.6264 7.85959L14.1204 8.36565L13.9222 8.16747C13.9028 7.90808 13.8834 7.66808 13.8689 7.48808ZM14.1761 9.9602L13.9943 10.142C13.9786 10.0578 13.9774 9.95777 13.9834 9.87111C13.9852 9.84202 13.9852 9.80323 13.9871 9.7705L14.1761 9.9602ZM16.8561 6.5602L16.8216 6.59474L16.7846 6.55777L16.8561 6.5602ZM16.3434 6.54565L16.6064 6.80929L16.5186 6.89717C16.4592 6.95656 16.4592 7.05232 16.5186 7.11171C16.578 7.17111 16.6737 7.17111 16.7331 7.11171L16.821 7.02383C16.9464 7.14929 17.0628 7.30505 17.1895 7.17838C17.2489 7.11899 17.2489 7.02323 17.1895 6.96383L17.0349 6.80929L17.2725 6.57171L17.4222 6.57596C17.5913 6.56868 17.6483 6.56626 17.6671 6.74383C17.6798 6.86323 17.6719 6.98626 17.6652 7.10929C17.6495 7.40202 17.6749 9.29414 17.678 9.60141C17.684 10.199 17.5646 10.2123 17.198 10.2305L14.5925 10.3554C14.521 10.3584 14.3646 10.362 14.2277 10.3366L14.4028 10.1614C14.4598 10.1887 14.5077 10.2081 14.5725 10.1426C14.6192 10.096 14.6186 10.0293 14.5907 9.97293L15.221 9.34262C15.2804 9.28323 15.2804 9.18747 15.221 9.12868C15.1616 9.0699 15.0658 9.06929 15.0064 9.12868L14.3895 9.74565L13.9864 9.34262C13.9828 9.21656 13.9774 9.0808 13.9701 8.94262C13.9707 8.94202 13.9713 8.94262 13.9719 8.94202L14.1198 8.79414L14.4652 9.13959C14.5246 9.19899 14.6204 9.19899 14.6798 9.13959C14.7392 9.0802 14.7392 8.98444 14.6798 8.92505L14.3343 8.57959L15.0561 7.85777C15.1155 7.79838 15.1155 7.70262 15.0561 7.64323C14.9968 7.58384 14.901 7.58384 14.8416 7.64323L14.8398 7.64505L14.4689 7.27414L14.8101 6.93293L15.3331 7.45596C15.3925 7.51535 15.4883 7.51535 15.5477 7.45596C15.6071 7.39656 15.6071 7.3008 15.5477 7.24202L15.0246 6.71899L15.1513 6.59293C15.1725 6.57171 15.1768 6.54383 15.1828 6.51656C15.3071 6.51717 15.4313 6.52262 15.5561 6.52565C15.5464 6.57414 15.5513 6.62383 15.5889 6.66141L15.8271 6.89959L15.7089 7.01777C15.6495 7.07717 15.6495 7.17293 15.7089 7.23232C15.7683 7.29171 15.864 7.29171 15.9234 7.23232L16.0416 7.11414L16.2646 7.33717C16.324 7.39656 16.4198 7.39656 16.4792 7.33717C16.5386 7.27777 16.5386 7.18202 16.4792 7.12262L16.2561 6.89959L16.2992 6.85656C16.3586 6.79717 16.3586 6.70141 16.2992 6.64202C16.2398 6.58262 16.144 6.58262 16.0846 6.64202L16.0416 6.68505L15.8901 6.53414C15.9519 6.53656 16.0137 6.53656 16.0755 6.53838L16.3434 6.54565ZM14.4731 6.54565C14.478 6.57596 14.4852 6.60747 14.5089 6.63111L14.5968 6.71899L14.2555 7.0602L13.9907 6.79535C14.0828 6.68383 14.1864 6.59656 14.4731 6.54565Z" fill="#1A1A1A"/>
<path d="M21.3062 10.8351L23.911 10.9605C24.7686 11.0017 25.2153 10.7048 25.1553 9.83022C25.1183 9.29506 25.2456 7.83385 25.288 7.29931C25.342 6.50961 24.8504 5.869 23.4238 5.909C23.1395 5.909 21.3995 5.96234 21.1153 5.97022C20.5868 5.95506 20.3123 6.23325 20.2644 6.67809C20.2644 6.67809 20.271 7.42658 20.2492 9.59506C20.2389 10.5351 20.6195 10.8023 21.3062 10.8351ZM20.8686 7.1084C20.868 7.10052 20.8686 7.09264 20.8686 7.08416L21.0929 7.3084C21.0941 7.34537 21.1068 7.38234 21.1353 7.41082C21.1638 7.43931 21.2007 7.45203 21.2377 7.45325L21.6432 7.8587L21.1371 8.36476L20.8704 8.09809C20.8735 7.80234 20.8832 7.37809 20.8686 7.1084ZM20.9232 8.57931L20.865 8.63749L20.8662 8.52294L20.9232 8.57931ZM20.9904 10.1623C20.9892 10.1617 20.9862 10.1617 20.985 10.1605C20.8704 10.0775 20.8547 9.84476 20.8559 9.62234L21.1935 9.95991L20.9904 10.1623ZM23.7577 6.51446C23.808 6.51628 23.8553 6.52294 23.9044 6.52779L23.8377 6.59446L23.7577 6.51446ZM22.4589 6.53809C22.4953 6.53688 22.5323 6.53688 22.5686 6.53567C22.5626 6.58052 22.571 6.62658 22.6056 6.66112L22.8438 6.89931L22.7256 7.01749C22.6662 7.07688 22.6662 7.17264 22.7256 7.23203C22.785 7.29143 22.8807 7.29143 22.9395 7.23203L23.0577 7.11385L23.2807 7.33688C23.3401 7.39628 23.4359 7.39628 23.4953 7.33688C23.5547 7.27749 23.5547 7.18173 23.4953 7.12234L23.2723 6.8987L23.3153 6.85567C23.3747 6.79628 23.3747 6.70052 23.3153 6.64112C23.2559 6.58173 23.1601 6.58173 23.1007 6.64112L23.0577 6.68416L22.9007 6.52719C23.0486 6.52294 23.1959 6.51749 23.3456 6.51628C23.351 6.52415 23.3492 6.53385 23.3559 6.54052L23.6238 6.8084L23.5359 6.89628C23.4765 6.95567 23.4765 7.05143 23.5359 7.11082C23.5953 7.17022 23.691 7.17022 23.7504 7.11082L23.8383 7.02294L23.9929 7.17749C24.0523 7.23688 24.148 7.23688 24.2074 7.17749C24.2668 7.11809 24.2668 7.02234 24.2074 6.96294L24.0529 6.8084L24.2607 6.60052C24.5686 6.71385 24.7062 6.93264 24.6838 7.25688C24.6377 7.84416 24.511 9.28234 24.551 9.87022C24.5771 10.2417 24.5723 10.3817 23.9407 10.3539L21.351 10.2302L21.4201 10.1611C21.4765 10.1884 21.525 10.2072 21.5898 10.1423C21.6365 10.0957 21.6359 10.029 21.608 9.97264L22.2383 9.34234C22.2977 9.28294 22.2977 9.18719 22.2383 9.1284C22.1789 9.069 22.0832 9.069 22.0238 9.1284L21.4062 9.74537L20.8583 9.19749L20.8607 8.97749C20.868 8.9787 20.8741 8.98597 20.8814 8.98597C20.9201 8.98597 20.9589 8.97143 20.9886 8.94173L21.1365 8.79385L21.482 9.13931C21.5413 9.1987 21.6371 9.1987 21.6965 9.13931C21.7559 9.07991 21.7559 8.98416 21.6965 8.92476L21.351 8.57931L22.0729 7.85749C22.1323 7.79809 22.1323 7.70234 22.0729 7.64294C22.0135 7.58355 21.9177 7.58355 21.8583 7.64294L21.8571 7.64416L21.4862 7.27325L21.8268 6.93264L22.3498 7.45567C22.4092 7.51506 22.505 7.51506 22.5644 7.45567C22.6238 7.39628 22.6238 7.30052 22.5644 7.24173L22.0413 6.7187L22.168 6.59203C22.1807 6.57931 22.1801 6.56112 22.1874 6.54537L22.4589 6.53809ZM21.1117 6.57567L21.4977 6.56476C21.505 6.58779 21.5068 6.61264 21.525 6.63082L21.6129 6.7187L21.2723 7.05991C21.2074 6.99506 20.9583 6.73264 20.882 6.69749C20.905 6.60537 20.8886 6.5684 21.1117 6.57567Z" fill="#1A1A1A"/>
<path d="M13.378 16.814C13.3186 17.6819 13.7659 17.9855 14.6222 17.9443L17.2271 17.8188C17.9162 17.7861 18.2944 17.5207 18.2841 16.5788C18.2622 14.4122 18.2695 13.6619 18.2695 13.6619C18.2198 13.2007 17.9471 12.9576 17.4198 12.9534L16.0974 12.9164C15.7695 12.9043 15.4422 12.8922 15.1229 12.8922C15.1216 12.8922 15.1198 12.8922 15.118 12.8922C13.5629 12.854 13.1859 13.5291 13.2647 14.5219C13.3083 15.0625 13.4119 16.3273 13.378 16.814ZM13.8683 14.4734C13.855 14.3006 13.8277 14.1352 13.8756 13.977L14.0756 14.177C14.0768 14.214 14.0895 14.251 14.118 14.2788C14.1465 14.3067 14.1829 14.3194 14.2198 14.3213L14.6259 14.7273L14.1198 15.2334L13.9119 15.0255C13.8962 14.8152 13.8804 14.6237 13.8683 14.4734ZM14.5301 13.5213L14.5956 13.5867L14.2544 13.9279L14.0471 13.72C14.1689 13.6085 14.3374 13.5485 14.5301 13.5213ZM14.1756 16.8279L13.9774 17.0261C13.9768 16.9679 13.9792 16.9073 13.9829 16.8558C13.9871 16.794 13.9889 16.7207 13.9901 16.6419L14.1756 16.8279ZM17.6671 13.7279C17.6671 13.7279 17.6532 14.0625 17.678 16.5849C17.6841 17.1825 17.5647 17.1958 17.198 17.214L14.5926 17.3394C14.5041 17.3437 14.2798 17.354 14.1319 17.3L14.4022 17.0291C14.4586 17.0564 14.5071 17.0758 14.5719 17.011C14.6186 16.9643 14.618 16.8976 14.5901 16.8413L15.2204 16.211C15.2798 16.1516 15.2798 16.0558 15.2204 15.997C15.161 15.9376 15.0653 15.9376 15.0059 15.997L14.3889 16.6146L13.981 16.2073C13.9768 16.0806 13.9707 15.9497 13.9629 15.814C13.9653 15.8122 13.9683 15.8128 13.9707 15.811L14.1186 15.6631L14.4641 16.0085C14.5235 16.0679 14.6192 16.0679 14.6786 16.0085C14.738 15.9491 14.738 15.8534 14.6786 15.794L14.3332 15.4485L15.055 14.7267C15.1144 14.6673 15.1144 14.5716 15.055 14.5122C14.9956 14.4528 14.8998 14.4528 14.8404 14.5122L14.8386 14.514L14.4677 14.1431L14.8089 13.8019L15.3319 14.3249C15.3913 14.3843 15.4871 14.3843 15.5465 14.3249C15.6059 14.2655 15.6059 14.1697 15.5465 14.1103L15.0229 13.5867L15.1107 13.4988C15.2665 13.4988 15.4229 13.5061 15.5786 13.5103C15.5829 13.5158 15.581 13.5237 15.5865 13.5291L15.8247 13.7673L15.7065 13.8855C15.6471 13.9449 15.6471 14.0407 15.7065 14.1C15.7659 14.1594 15.8616 14.1594 15.921 14.1L16.0392 13.9819L16.2622 14.2049C16.3216 14.2643 16.4174 14.2643 16.4768 14.2049C16.5362 14.1455 16.5362 14.0497 16.4768 13.9903L16.2538 13.7673L16.2968 13.7243C16.3507 13.6703 16.3489 13.5885 16.3047 13.5291L16.4616 13.5334L16.6053 13.677L16.5174 13.7649C16.458 13.8243 16.458 13.92 16.5174 13.9794C16.5768 14.0388 16.6726 14.0388 16.7319 13.9794L16.8198 13.8916L16.9744 14.0461C17.0338 14.1055 17.1295 14.1055 17.1883 14.0461C17.2477 13.9867 17.2477 13.891 17.1883 13.8322L17.0338 13.6776L17.158 13.5534L17.4216 13.5607C17.5938 13.5607 17.6477 13.5485 17.6671 13.7279ZM16.0404 13.5528L16.0083 13.5207C16.0289 13.5213 16.0501 13.5213 16.0707 13.5225L16.0404 13.5528Z" fill="#1A1A1A"/>
<path d="M21.3062 17.8191L23.911 17.9446C24.7704 17.9858 25.2153 17.6876 25.1553 16.8143C25.1213 16.327 25.225 15.0622 25.2692 14.5228C25.3704 13.2452 24.6717 12.8555 23.4238 12.8931C23.1401 12.8931 21.4026 12.9464 21.1141 12.9543C20.0856 12.9761 20.2783 13.7609 20.2717 14.367L20.2492 16.5797C20.2389 17.5191 20.6195 17.7858 21.3062 17.8191ZM20.868 13.9519L21.0929 14.1767C21.0959 14.2603 21.1559 14.3185 21.2377 14.3215L21.6432 14.727L21.1371 15.2331L20.8717 14.9676L20.8777 14.3731C20.8777 14.3579 20.868 13.9519 20.868 13.9519ZM20.9232 15.447L20.8662 15.504L20.8674 15.3912L20.9232 15.447ZM20.9371 17.0828C20.8656 16.9712 20.8529 16.7749 20.8547 16.5846L20.8559 16.49L21.1929 16.827L20.9371 17.0828ZM23.0577 13.5525L23.0141 13.5088C23.045 13.5082 23.0765 13.507 23.1074 13.5064C23.1056 13.5082 23.1026 13.5076 23.1007 13.5088L23.0577 13.5525ZM22.6013 13.5185C22.6038 13.5216 22.6026 13.5258 22.6056 13.5288L22.8438 13.7664L22.7256 13.8846C22.6662 13.944 22.6662 14.0397 22.7256 14.0991C22.785 14.1585 22.8807 14.1585 22.9395 14.0991L23.0577 13.9809L23.2807 14.204C23.3401 14.2634 23.4359 14.2634 23.4953 14.204C23.5547 14.1446 23.5547 14.0488 23.4953 13.9894L23.2723 13.7664L23.3153 13.7234C23.3747 13.664 23.3747 13.5682 23.3153 13.5088C23.3104 13.504 23.3032 13.5058 23.2977 13.5016C23.3432 13.5009 23.3868 13.4985 23.4323 13.4985H23.4456L23.6238 13.6767L23.5359 13.7646C23.4765 13.824 23.4765 13.9197 23.5359 13.9791C23.5953 14.0385 23.691 14.0385 23.7504 13.9791L23.8383 13.8912L23.9929 14.0458C24.0523 14.1052 24.148 14.1052 24.2074 14.0458C24.2668 13.9864 24.2668 13.8906 24.2074 13.8319L24.0529 13.6773L24.1698 13.5603C24.705 13.704 24.7026 14.0022 24.6662 14.4737C24.6171 15.0743 24.5153 16.3234 24.5517 16.8561C24.5777 17.2258 24.571 17.37 23.9414 17.3391L21.3365 17.2137C21.3074 17.2125 21.2753 17.2082 21.2438 17.2064L21.4207 17.0294C21.4777 17.0567 21.5256 17.0755 21.5904 17.0106C21.6371 16.964 21.6365 16.8973 21.6086 16.8409L22.2389 16.2106C22.2983 16.1512 22.2983 16.0555 22.2389 15.9967C22.1795 15.9373 22.0838 15.9373 22.0244 15.9967L21.4068 16.6143L20.8601 16.0676L20.8626 15.847C20.8692 15.8482 20.8753 15.8549 20.882 15.8549C20.9207 15.8549 20.9595 15.8403 20.9892 15.8106L21.1371 15.6628L21.4826 16.0082C21.542 16.0676 21.6377 16.0676 21.6971 16.0082C21.7565 15.9488 21.7565 15.8531 21.6971 15.7937L21.3517 15.4482L22.0735 14.7264C22.1329 14.667 22.1329 14.5712 22.0735 14.5119C22.0141 14.4525 21.9183 14.4525 21.8589 14.5119L21.8571 14.5137L21.4862 14.1428L21.8268 13.8022L22.3498 14.3252C22.4092 14.3846 22.505 14.3846 22.5644 14.3252C22.6238 14.2658 22.6238 14.17 22.5644 14.1106L22.0413 13.5876L22.0959 13.5331C22.5844 13.5185 22.6013 13.5185 22.6013 13.5185ZM21.111 13.5597L21.5735 13.547L21.6135 13.587L21.2723 13.9276C21.2153 13.8706 20.9826 13.6367 20.9232 13.5822C20.9547 13.5555 21.068 13.5597 21.111 13.5597Z" fill="#1A1A1A"/>
<path d="M13.3896 23.587C13.3781 23.7773 13.3605 24.0652 13.5187 24.3119C13.743 24.661 14.1563 24.7143 14.4442 24.7143C14.5211 24.7143 14.5896 24.7107 14.643 24.7076L17.2466 24.5616C17.4387 24.5507 17.7017 24.5361 17.9236 24.3719C18.3078 24.0876 18.2987 23.564 18.2939 23.3125L18.2539 21.1004C18.2526 21.021 18.2563 20.9397 18.2599 20.8585C18.2672 20.7028 18.2733 20.5464 18.2551 20.3961C18.2345 20.2204 18.1751 20.0707 18.0787 19.9513C17.8745 19.6979 17.6102 19.6943 17.4211 19.6949C17.4163 19.6876 17.4181 19.6785 17.412 19.6725C17.3526 19.6131 17.2569 19.6131 17.1975 19.6725L17.1781 19.6919L16.0805 19.6676C15.7502 19.6579 15.4217 19.6482 15.0969 19.6519C14.5575 19.6428 13.9472 19.667 13.5484 20.1058C13.309 20.3682 13.2072 20.6797 13.2363 21.0573L13.2569 21.2955C13.306 21.8349 13.4193 23.0997 13.3896 23.587ZM13.8611 21.241L13.8411 21.0113C13.829 20.8494 13.866 20.7313 13.9333 20.621L14.0757 20.7634C14.0769 20.8004 14.0896 20.8373 14.1181 20.8658C14.1466 20.8943 14.1836 20.907 14.2205 20.9082L14.626 21.3137L14.1199 21.8197L13.892 21.5919C13.8805 21.4628 13.8696 21.341 13.8611 21.241ZM14.1442 20.4034C14.2405 20.3476 14.3533 20.3119 14.4781 20.2907L14.2545 20.5143L14.1442 20.4034ZM13.9951 23.5949C13.9999 23.4955 13.9999 23.3719 13.9969 23.2355L14.1757 23.4143L13.9951 23.5949ZM17.6072 20.3319C17.6302 20.3597 17.6466 20.4076 17.6533 20.4664C17.6672 20.5852 17.6599 20.7076 17.6545 20.8301C17.6502 20.9246 17.646 21.0185 17.6478 21.1107L17.6878 23.3228C17.692 23.5513 17.6805 23.7967 17.563 23.884C17.4866 23.9404 17.3345 23.9482 17.2126 23.9555L14.609 24.1016C14.4884 24.1076 14.1284 24.1282 14.032 23.9858L14.403 23.6143C14.4236 23.6246 14.443 23.6404 14.4654 23.6404C14.5042 23.6404 14.543 23.6258 14.5726 23.5961C14.6193 23.5494 14.6187 23.4828 14.5914 23.4264L15.2217 22.7961C15.2811 22.7367 15.2811 22.641 15.2217 22.5816C15.1623 22.5222 15.0666 22.5222 15.0072 22.5816L14.3902 23.1991L13.9805 22.7894C13.9739 22.6628 13.9654 22.5325 13.9563 22.4016C13.9611 22.3979 13.9678 22.3991 13.972 22.3949L14.1199 22.247L14.4654 22.5931C14.4951 22.6228 14.5339 22.6373 14.5726 22.6373C14.6114 22.6373 14.6502 22.6228 14.6799 22.5931C14.7393 22.5337 14.7393 22.4379 14.6799 22.3785L14.3339 22.0325L15.0557 21.3107C15.1151 21.2513 15.1151 21.1555 15.0557 21.0961C14.9963 21.0367 14.9005 21.0367 14.8411 21.0961L14.8393 21.0979L14.4684 20.727L14.8096 20.3858L15.3326 20.9088C15.3623 20.9385 15.4011 20.9531 15.4399 20.9531C15.4787 20.9531 15.5175 20.9385 15.5472 20.9088C15.6066 20.8494 15.6066 20.7537 15.5472 20.6943L15.1084 20.2555C15.3187 20.2537 15.5296 20.2604 15.7405 20.2658L15.826 20.3513L15.7084 20.4688C15.649 20.5282 15.649 20.624 15.7084 20.6834C15.7381 20.7131 15.7769 20.7276 15.8157 20.7276C15.8545 20.7276 15.8933 20.7131 15.923 20.6834L16.0411 20.5658L16.2642 20.7888C16.2939 20.8185 16.3326 20.8331 16.3714 20.8331C16.4102 20.8331 16.449 20.8185 16.4787 20.7888C16.5381 20.7294 16.5381 20.6337 16.4787 20.5743L16.2557 20.3513L16.2987 20.3082C16.3072 20.2997 16.3054 20.287 16.3114 20.2767L16.5854 20.2828L16.5187 20.3494C16.4593 20.4088 16.4593 20.5046 16.5187 20.564C16.5484 20.5937 16.5872 20.6082 16.626 20.6082C16.6648 20.6082 16.7036 20.5937 16.7333 20.564L16.8211 20.4761L16.9757 20.6307C17.0054 20.6604 17.0442 20.6749 17.083 20.6749C17.1217 20.6749 17.1605 20.6604 17.1902 20.6307C17.2496 20.5713 17.2496 20.4755 17.1902 20.4161L17.0678 20.2937L17.3023 20.2985H17.4084C17.563 20.2973 17.5854 20.3046 17.6072 20.3319Z" fill="#1A1A1A"/>
<path d="M20.2627 21.0834L20.2585 23.2961C20.2561 24.2264 20.6258 24.4985 21.3258 24.5276L23.9312 24.6313C24.7779 24.6652 25.2331 24.3676 25.1664 23.4913C25.1288 23.0016 25.2258 21.6852 25.2621 21.1901C25.3124 20.4767 25.144 19.9313 24.4361 19.6882C24.4324 19.6834 24.4337 19.6761 24.4294 19.6713C24.3882 19.6301 24.3318 19.6282 24.2797 19.6446C23.9937 19.5767 23.6876 19.5749 23.4028 19.584C23.1276 19.5864 21.3779 19.6537 21.0937 19.664C20.087 19.667 20.2627 20.4773 20.2627 21.0834ZM20.8537 20.524L21.0918 20.7622C21.0931 20.7991 21.1058 20.8367 21.1343 20.8646C21.1627 20.8931 21.1997 20.9058 21.2367 20.907L21.6421 21.3125L21.1361 21.8185L20.867 21.5494L20.8682 21.0834C20.8688 20.8185 20.8446 20.8252 20.8537 20.524ZM20.9221 22.0331L20.8664 22.0888V21.9773L20.9221 22.0331ZM20.907 23.6991C20.8731 23.5864 20.8634 23.4404 20.864 23.2967L20.8646 23.0852L21.1924 23.4131L20.907 23.6991ZM22.7027 20.2131L22.8428 20.3531L22.7246 20.4707C22.6652 20.5301 22.6652 20.6258 22.7246 20.6852C22.784 20.7446 22.8797 20.7446 22.9385 20.6852L23.0567 20.567L23.2797 20.7901C23.3391 20.8494 23.4349 20.8494 23.4943 20.7901C23.5537 20.7307 23.5537 20.6349 23.4943 20.5755L23.2718 20.3531L23.3149 20.3101C23.3476 20.2773 23.3579 20.2343 23.3549 20.1919C23.3755 20.1919 23.3955 20.1901 23.4161 20.1901C23.4591 20.1888 23.5034 20.1882 23.5476 20.1876L23.6234 20.2634L23.5355 20.3513C23.4761 20.4107 23.4761 20.5064 23.5355 20.5658C23.5949 20.6252 23.6906 20.6252 23.75 20.5658L23.8379 20.4779L23.9924 20.6325C24.0518 20.6919 24.1476 20.6919 24.207 20.6325C24.2664 20.5731 24.2664 20.4773 24.207 20.4179L24.0524 20.2634L24.0906 20.2252C24.6615 20.341 24.6937 20.6494 24.6579 21.1458C24.6137 21.7488 24.5209 23.0034 24.5621 23.5385C24.5906 23.9082 24.5864 24.0531 23.9561 24.027L21.3506 23.9234C21.2809 23.9204 21.2052 23.9143 21.1355 23.9016L21.4209 23.6161C21.4779 23.6434 21.5258 23.6622 21.5906 23.5973C21.6373 23.5507 21.6367 23.484 21.6094 23.4276L22.2397 22.7973C22.2991 22.7379 22.2991 22.6422 22.2397 22.5828C22.1803 22.5234 22.0846 22.5234 22.0252 22.5828L21.4076 23.2004L20.8664 22.6591L20.867 22.4343C20.8724 22.4349 20.8773 22.441 20.8827 22.441C20.9215 22.441 20.9603 22.4258 20.99 22.3967L21.1379 22.2488L21.4834 22.5949C21.5427 22.6543 21.6385 22.6543 21.6979 22.5949C21.7573 22.5355 21.7573 22.4397 21.6979 22.3804L21.3518 22.0343L22.0737 21.3125C22.1331 21.2531 22.1331 21.1573 22.0737 21.0979C22.0143 21.0385 21.9185 21.0385 21.8591 21.0979L21.8573 21.0997L21.4864 20.7288L21.8276 20.3876L22.3506 20.9107C22.41 20.9701 22.5058 20.9701 22.5652 20.9107C22.6246 20.8513 22.6246 20.7555 22.5652 20.6961L22.1027 20.2337C22.6155 20.2149 22.7027 20.2131 22.7027 20.2131ZM21.0955 20.2701L21.5318 20.2543L21.2718 20.5137L21.0294 20.2707C21.0488 20.2707 21.0676 20.2701 21.0955 20.2701Z" fill="#1A1A1A"/>
<path d="M29.9163 10.5024L29.9121 12.7145C29.9097 13.6593 30.2951 13.9187 30.9794 13.946L33.5854 14.0503C34.4539 14.0854 34.886 13.7733 34.8206 12.9103C34.78 12.3787 34.8951 10.9096 34.9327 10.3781C34.98 9.58904 34.4824 8.95086 33.0576 9.00298C32.7806 9.00541 31.026 9.07268 30.7485 9.08238C29.7521 9.08601 29.9163 9.89632 29.9163 10.5024ZM30.5109 10.2133L30.7382 10.4406C30.7394 10.4775 30.7521 10.5151 30.7806 10.543C30.8091 10.5715 30.846 10.5842 30.883 10.5854L31.2885 10.9909L30.7824 11.4969L30.5206 11.2351L30.5218 10.5036C30.5224 10.423 30.5163 10.2915 30.5109 10.2133ZM30.5691 11.7115L30.52 11.7606V11.663L30.5691 11.7115ZM30.6545 13.2757C30.5291 13.1896 30.5212 12.9242 30.5194 12.7721L30.8388 13.0915L30.6545 13.2757ZM33.3642 9.60722C33.4412 9.60844 33.5163 9.61268 33.5897 9.62056L33.4836 9.72662L33.3642 9.60722ZM32.2279 9.63631C32.2079 9.69025 32.2085 9.74965 32.2515 9.79268L32.4891 10.0303L32.3709 10.1478C32.3115 10.2072 32.3115 10.303 32.3709 10.3624C32.4303 10.4218 32.526 10.4218 32.5848 10.3624L32.703 10.2448L32.926 10.4678C32.9854 10.5272 33.0812 10.5272 33.1406 10.4678C33.2 10.4084 33.2 10.3127 33.1406 10.2533L32.9176 10.0303L32.9606 9.98722C33.02 9.92783 33.02 9.83207 32.9606 9.77328C32.9012 9.71389 32.8054 9.71389 32.746 9.77328L32.703 9.81632L32.5133 9.62662C32.6666 9.62056 32.82 9.61389 32.9757 9.61147C32.983 9.63268 32.9842 9.65571 33.0012 9.67207L33.2691 9.93995L33.1812 10.0278C33.1218 10.0872 33.1218 10.183 33.1812 10.2424C33.2406 10.3018 33.3363 10.3018 33.3957 10.2424L33.4836 10.1545L33.6382 10.309C33.6976 10.3684 33.7933 10.3684 33.8527 10.309C33.9121 10.2496 33.9121 10.1539 33.8527 10.0945L33.6982 9.93995L33.9357 9.70238C34.2224 9.82056 34.3454 10.0327 34.3273 10.3412C34.2848 10.9266 34.1709 12.3709 34.2157 12.9563C34.2442 13.3248 34.2388 13.4727 33.6097 13.4448L31.0176 13.3412L31.066 13.2927C31.0866 13.303 31.106 13.3187 31.1285 13.3187C31.1673 13.3187 31.206 13.3042 31.2357 13.2745C31.2824 13.2278 31.2818 13.1612 31.2539 13.1048L31.8842 12.4745C31.9436 12.4151 31.9436 12.3193 31.8842 12.26C31.8248 12.2006 31.7291 12.2006 31.6697 12.26L31.0521 12.8775L30.5182 12.343L30.5188 12.1145C30.5218 12.1145 30.5242 12.1181 30.5273 12.1181C30.566 12.1181 30.6048 12.1036 30.6345 12.0739L30.7824 11.926L31.1279 12.2715C31.1873 12.3309 31.283 12.3309 31.3424 12.2715C31.4018 12.2121 31.4018 12.1163 31.3424 12.0575L30.997 11.7115L31.7188 10.9896C31.7782 10.9303 31.7782 10.8345 31.7188 10.7751C31.6594 10.7157 31.5636 10.7157 31.5042 10.7751L31.5024 10.7769L31.1315 10.406L31.4727 10.0648L31.9957 10.5878C32.0551 10.6472 32.1509 10.6472 32.2103 10.5878C32.2697 10.5284 32.2697 10.4327 32.2103 10.3739L31.6873 9.85086L31.8139 9.72419C31.8345 9.70359 31.8388 9.67571 31.8448 9.64965C32.1957 9.63692 32.2279 9.63631 32.2279 9.63631ZM30.7497 9.68904L31.1345 9.6751C31.1388 9.70662 31.1466 9.73874 31.1709 9.76298L31.2588 9.85086L30.9176 10.1921L30.5745 9.84904C30.5588 9.83328 30.537 9.83268 30.517 9.82541C30.5424 9.69935 30.5485 9.68965 30.7497 9.68904Z" fill="#1A1A1A"/>
<path d="M29.9122 20.1677C29.9098 21.1125 30.2952 21.3713 30.9795 21.3992L33.5855 21.5034C34.437 21.538 34.8867 21.2362 34.8207 20.3634C34.7831 19.8731 34.8801 18.5568 34.9164 18.0604L34.9328 17.8313C34.9807 17.038 34.4837 16.4089 33.0577 16.4556C32.7819 16.458 31.0334 16.5253 30.7486 16.5356C30.217 16.5374 29.9492 16.7986 29.9043 17.2501C29.9037 17.2501 29.9164 18.0125 29.9122 20.1677ZM30.5092 17.5083L30.7389 17.738C30.7401 17.775 30.7528 17.8119 30.7813 17.8404C30.8098 17.8689 30.8467 17.8816 30.8837 17.8828L31.2892 18.2883L30.7831 18.7944L30.5213 18.5331C30.5231 17.9265 30.5261 18.0071 30.5092 17.5083ZM30.5692 19.0089L30.5207 19.0574V18.961L30.5692 19.0089ZM30.5855 20.6422C30.528 20.5271 30.5177 20.344 30.5183 20.1689V20.0683L30.8389 20.3889L30.5855 20.6422ZM32.7455 17.0719L32.7037 17.1137L32.6643 17.0744C32.6916 17.0737 32.7183 17.0725 32.7455 17.0719ZM32.251 17.0883C32.2516 17.0889 32.251 17.0895 32.2516 17.0901L32.4898 17.3283L32.3716 17.4465C32.3122 17.5059 32.3122 17.6016 32.3716 17.661C32.431 17.7204 32.5267 17.7204 32.5855 17.661L32.7037 17.5428L32.9267 17.7659C32.9861 17.8253 33.0819 17.8253 33.1413 17.7659C33.2007 17.7065 33.2007 17.6107 33.1413 17.5513L32.9183 17.3283L32.9613 17.2853C33.0207 17.2259 33.0207 17.1301 32.9613 17.0707C32.9577 17.0671 32.9522 17.0689 32.9486 17.0653C32.9898 17.0647 33.0292 17.0616 33.0698 17.061C33.077 17.061 33.0849 17.061 33.0922 17.0604L33.2692 17.2374L33.1813 17.3253C33.1219 17.3847 33.1219 17.4804 33.1813 17.5398C33.2407 17.5992 33.3364 17.5992 33.3958 17.5398L33.4837 17.4519L33.6383 17.6065C33.6977 17.6659 33.7934 17.6659 33.8528 17.6065C33.9122 17.5471 33.9122 17.4513 33.8528 17.3919L33.6983 17.2374L33.8225 17.1131C34.1667 17.2065 34.3492 17.4319 34.3273 17.7937C34.2855 18.3816 34.171 19.8228 34.2158 20.4083C34.2443 20.775 34.2419 20.9247 33.6098 20.8968L31.0037 20.7925C30.9619 20.7907 30.917 20.7865 30.8728 20.7828L31.0667 20.5889C31.1237 20.6162 31.1716 20.635 31.2364 20.5707C31.2831 20.524 31.2825 20.4574 31.2552 20.401L31.8855 19.7707C31.9449 19.7113 31.9449 19.6156 31.8855 19.5562C31.8261 19.4968 31.7304 19.4968 31.671 19.5562L31.0534 20.1737L30.5195 19.6398L30.5201 19.4107C30.6243 19.4174 30.7073 19.298 30.7837 19.2216L31.1292 19.5671C31.1886 19.6265 31.2843 19.6265 31.3437 19.5671C31.4031 19.5077 31.4031 19.4119 31.3437 19.3525L30.9983 19.0071L31.7201 18.2853C31.7795 18.2259 31.7795 18.1301 31.7201 18.0707C31.6607 18.0113 31.5649 18.0113 31.5055 18.0707L31.5043 18.0725L31.1334 17.7016L31.474 17.361L31.997 17.884C32.0564 17.9434 32.1522 17.9434 32.2116 17.884C32.271 17.8247 32.271 17.7289 32.2116 17.6695L31.6886 17.1465L31.7304 17.1047C32.2273 17.0883 32.251 17.0883 32.251 17.0883ZM30.7492 17.1416L31.2346 17.124L31.2583 17.1477L30.9177 17.4889L30.5831 17.1544C30.6086 17.1453 30.6516 17.1422 30.7492 17.1416Z" fill="#1A1A1A"/>
<path d="M29.9164 25.6078L29.9122 27.8181C29.9098 28.7526 30.2837 29.0217 30.9795 29.0496L33.5855 29.1538C34.454 29.189 34.8861 28.8768 34.8207 28.0138C34.7831 27.5241 34.8801 26.2071 34.9164 25.7114C34.9873 24.7096 34.5855 24.0532 33.0576 24.1065C32.774 24.109 31.0322 24.1762 30.7486 24.1865C29.7516 24.1896 29.9164 25.0017 29.9164 25.6078ZM30.5098 25.2193L30.7382 25.4478C30.7395 25.4847 30.7522 25.5223 30.7807 25.5502C30.8092 25.5787 30.8461 25.5914 30.8837 25.5926L31.2892 25.9974L30.7831 26.5035L30.5213 26.2417L30.5225 25.6059C30.5225 25.572 30.5098 25.2193 30.5098 25.2193ZM30.5692 26.7187L30.5207 26.7671V26.6702L30.5692 26.7187ZM30.6116 28.3259C30.5334 28.2174 30.5176 28.015 30.5182 27.8193V27.7781L30.8389 28.0987L30.6116 28.3259ZM33.4637 24.7132C33.4764 24.7138 33.4898 24.7138 33.5031 24.7144L33.4843 24.7332L33.4637 24.7132ZM32.2267 24.7399C32.234 24.7605 32.2352 24.7835 32.2516 24.8005L32.4898 25.0387L32.3716 25.1568C32.3122 25.2162 32.3122 25.312 32.3716 25.3714C32.431 25.4308 32.5267 25.4308 32.5855 25.3714L32.7037 25.2538L32.9267 25.4768C32.9861 25.5362 33.0819 25.5362 33.1413 25.4768C33.2007 25.4174 33.2007 25.3217 33.1413 25.2623L32.9182 25.0393L32.9613 24.9962C33.0207 24.9368 33.0207 24.8411 32.9613 24.7817C32.9019 24.7223 32.8061 24.7223 32.7467 24.7817L32.7037 24.8247L32.6073 24.7278C32.7498 24.7229 32.8904 24.7156 33.0352 24.7138L33.2698 24.9484L33.1819 25.0362C33.1225 25.0956 33.1225 25.1914 33.1819 25.2508C33.2413 25.3102 33.337 25.3102 33.3964 25.2508L33.4843 25.1629L33.6389 25.3174C33.6983 25.3768 33.794 25.3768 33.8534 25.3174C33.9128 25.2581 33.9128 25.1623 33.8534 25.1029L33.6989 24.9484L33.8667 24.7805C34.3461 24.9344 34.3437 25.2253 34.3128 25.6671C34.2449 26.5859 34.1807 27.589 34.217 28.0605C34.2455 28.4296 34.2431 28.5726 33.611 28.549L31.0049 28.4447C30.9807 28.4435 30.9546 28.4405 30.9292 28.4393L31.0679 28.3005C31.1249 28.3278 31.1728 28.3465 31.2376 28.2823C31.2843 28.2356 31.2837 28.169 31.2564 28.1126L31.8867 27.4823C31.9461 27.4229 31.9461 27.3271 31.8867 27.2678C31.8273 27.2084 31.7316 27.2084 31.6722 27.2678L31.0546 27.8847L30.5207 27.3508L30.5213 27.1217C30.5243 27.1217 30.5267 27.1253 30.5298 27.1253C30.5686 27.1253 30.6073 27.1102 30.637 27.0811L30.7849 26.9332L31.1304 27.2787C31.1898 27.3381 31.2855 27.3381 31.3449 27.2787C31.4043 27.2193 31.4043 27.1235 31.3449 27.0641L30.9995 26.7187L31.7213 25.9968C31.7807 25.9375 31.7807 25.8417 31.7213 25.7823C31.6619 25.7229 31.5661 25.7229 31.5067 25.7823L31.5055 25.7835L31.1346 25.4126L31.4752 25.072L31.9983 25.595C32.0576 25.6544 32.1534 25.6544 32.2128 25.595C32.2722 25.5356 32.2722 25.4399 32.2128 25.3805L31.6898 24.8574L31.7934 24.7538C32.1934 24.7405 32.2267 24.7399 32.2267 24.7399ZM30.7492 24.792L31.1776 24.7768L31.2589 24.8581L30.9176 25.1987C30.8558 25.1368 30.6146 24.8871 30.5443 24.8429C30.5467 24.8387 30.5467 24.8302 30.5498 24.8265C30.5716 24.7999 30.594 24.7926 30.7492 24.792Z" fill="#1A1A1A"/>
<path d="M7.54299 9.00329C7.21209 9.00572 6.87996 9.02087 6.54784 9.03542L5.2339 9.08269C4.22663 9.08572 4.40239 9.89663 4.40239 10.5027L4.39815 12.7148C4.39572 13.6597 4.78118 13.9191 5.46542 13.9463L8.07148 14.0506C8.93996 14.0857 9.37209 13.7736 9.30663 12.9106C9.26905 12.4203 9.36602 11.1039 9.40239 10.6081C9.48845 9.38936 8.8139 8.95723 7.54299 9.00329ZM8.0339 9.6142L8.02663 9.62148L8.01875 9.6136C8.0236 9.6142 8.02845 9.6136 8.0339 9.6142ZM5.23572 9.68936L5.72724 9.67178L5.80178 9.74572L5.46057 10.0869L5.11754 9.7439C5.09815 9.72451 5.07148 9.72087 5.04663 9.7142C5.06724 9.69542 5.10178 9.68936 5.23572 9.68936ZM5.11814 13.25C5.02057 13.1506 5.0036 12.9294 5.00421 12.7166V12.61L5.38118 12.9869L5.11814 13.25ZM5.00663 11.5015L5.11148 11.6063L5.00602 11.7118L5.00663 11.5015ZM5.00724 11.0742L5.00845 10.5039C5.00845 10.5033 4.99451 10.0506 4.99451 10.0506L5.28057 10.3366C5.28178 10.3736 5.29451 10.4106 5.32299 10.4384C5.35148 10.4669 5.38784 10.4797 5.42481 10.4809L5.83087 10.8869L5.32481 11.393L5.00724 11.0742ZM8.79754 10.5639C8.7533 11.1669 8.66118 12.4215 8.70178 12.9572C8.73027 13.3233 8.72724 13.4736 8.09512 13.4457L5.48905 13.3415C5.47875 13.3409 5.46724 13.3397 5.45693 13.3391L5.60784 13.1881C5.66421 13.2154 5.71269 13.2348 5.77754 13.17C5.82421 13.1233 5.8236 13.0566 5.79572 13.0003L6.42602 12.37C6.48542 12.3106 6.48542 12.2148 6.42602 12.1554C6.36663 12.096 6.27087 12.096 6.21148 12.1554L5.5939 12.773L5.00542 12.1821L5.00602 11.9863C5.06299 12.0148 5.11269 12.0342 5.17814 11.9687L5.32602 11.8209L5.67148 12.1663C5.73087 12.2257 5.82663 12.2257 5.88542 12.1663C5.94481 12.1069 5.94481 12.0112 5.88542 11.9518L5.53996 11.6063L6.26178 10.8845C6.32118 10.8251 6.32118 10.7294 6.26178 10.67C6.20239 10.6106 6.10663 10.6106 6.04784 10.67L6.04602 10.6718L5.67512 10.3009L6.01633 9.95966L6.53936 10.4827C6.59875 10.5421 6.69451 10.5421 6.7539 10.4827C6.8133 10.4233 6.8133 10.3275 6.7539 10.2681L6.23027 9.74572L6.32602 9.64996L6.57572 9.64087C6.64057 9.63784 6.70724 9.63723 6.77269 9.6342C6.77996 9.65239 6.77996 9.67239 6.79451 9.68754L7.03208 9.92511L6.9139 10.0433C6.85451 10.1027 6.85451 10.1984 6.9139 10.2578C6.9733 10.3172 7.06905 10.3172 7.12784 10.2578L7.24602 10.1397L7.46905 10.3627C7.52845 10.4221 7.62421 10.4221 7.68299 10.3627C7.74239 10.3033 7.74239 10.2075 7.68299 10.1481L7.45996 9.92511L7.50299 9.88208C7.56239 9.82269 7.56239 9.72693 7.50299 9.66754C7.4436 9.60814 7.34784 9.60814 7.28845 9.66754L7.24542 9.71057L7.15633 9.62148C7.28966 9.61723 7.42057 9.60996 7.55572 9.60875C7.56542 9.60814 7.57512 9.60814 7.58421 9.60814L7.81148 9.83542L7.7236 9.92329C7.66421 9.98269 7.66421 10.0784 7.7236 10.1378C7.78299 10.1972 7.87875 10.1972 7.93754 10.1378L8.02542 10.05L8.17996 10.2045C8.23936 10.2639 8.33512 10.2639 8.39451 10.2045C8.4539 10.1451 8.4539 10.0494 8.39451 9.98996L8.23996 9.83542L8.38542 9.68996C8.83815 9.8542 8.82784 10.1378 8.79754 10.5639Z" fill="#1A1A1A"/>
<path d="M7.54261 16.4556C7.26625 16.458 5.51897 16.5253 5.23352 16.5356C4.70079 16.5374 4.43352 16.7998 4.38867 17.2501C4.38867 17.2501 4.40079 18.2683 4.39716 20.1677C4.39473 21.1125 4.78019 21.3713 5.46443 21.3992L8.07049 21.5034C8.93716 21.5386 9.3711 21.2283 9.30564 20.3634C9.26504 19.8331 9.38019 18.3622 9.41776 17.8313C9.46564 17.0398 8.9711 16.4089 7.54261 16.4556ZM8.09049 17.0737L8.02564 17.1386L7.94988 17.0628C7.99837 17.0653 8.04443 17.0689 8.09049 17.0737ZM5.23473 17.1416L5.69231 17.1253C5.69958 17.1422 5.69897 17.161 5.71291 17.175L5.80079 17.2628L5.46019 17.6034C5.38928 17.5319 5.11594 17.2283 5.0214 17.2204C5.02685 17.2071 5.02867 17.1853 5.03594 17.1756C5.05716 17.1489 5.07958 17.1422 5.23473 17.1416ZM5.15231 20.7319C5.00322 20.641 5.00322 20.344 5.00382 20.1689V20.1265L5.38079 20.5034L5.15231 20.7319ZM5.00625 19.0186L5.1111 19.1234L5.00564 19.2283L5.00625 19.0186ZM5.00685 18.5907L5.00807 17.9556C5.00807 17.9216 4.99534 17.5671 4.99534 17.5671L5.28079 17.8525C5.28201 17.8895 5.29473 17.9265 5.32322 17.955C5.3517 17.9834 5.38867 17.9962 5.42564 17.9974L5.8311 18.4028L5.32504 18.9089L5.00685 18.5907ZM8.7014 20.4095C8.72988 20.7762 8.72685 20.9265 8.09473 20.898L5.51776 20.795L5.60807 20.7046C5.66504 20.7319 5.71291 20.7507 5.77776 20.6865C5.82443 20.6398 5.82382 20.5731 5.79594 20.5168L6.42625 19.8865C6.48564 19.8271 6.48564 19.7313 6.42625 19.6719C6.36685 19.6125 6.2711 19.6125 6.2117 19.6719L5.59473 20.2889L5.00443 19.6986L5.00504 19.5028C5.0614 19.5313 5.1117 19.5507 5.17716 19.4853L5.32504 19.3374L5.6711 19.6834C5.73049 19.7428 5.82625 19.7428 5.88504 19.6834C5.94443 19.624 5.94443 19.5283 5.88504 19.4689L5.53958 19.1228L6.2614 18.401C6.32079 18.3416 6.32079 18.2459 6.2614 18.1871C6.20201 18.1277 6.10625 18.1277 6.04746 18.1871L6.04564 18.1889L5.67473 17.818L6.01594 17.4768L6.53898 17.9998C6.59837 18.0592 6.69413 18.0592 6.75352 17.9998C6.81291 17.9404 6.81291 17.8446 6.75352 17.7859L6.23049 17.2628C6.2917 17.2016 6.33231 17.1695 6.3717 17.101C6.68746 17.0895 6.75413 17.0877 6.75413 17.0877C6.74625 17.1943 6.94928 17.3598 7.03231 17.4428L6.91413 17.5604C6.85473 17.6198 6.85473 17.7156 6.91413 17.775C6.97352 17.8343 7.06928 17.8343 7.12807 17.775L7.24625 17.6574L7.46928 17.8804C7.52867 17.9398 7.62443 17.9398 7.68322 17.8804C7.74261 17.821 7.74261 17.7253 7.68322 17.6659L7.46019 17.4428L7.50322 17.3998C7.56261 17.3404 7.56261 17.2446 7.50322 17.1853C7.44382 17.1259 7.34807 17.1259 7.28867 17.1853L7.24564 17.2283L7.09352 17.0762C7.24019 17.0707 7.38504 17.0634 7.53413 17.0616C7.53898 17.0689 7.53716 17.078 7.54382 17.084L7.8117 17.3519L7.72382 17.4398C7.66443 17.4992 7.66443 17.595 7.72382 17.6543C7.78322 17.7137 7.87897 17.7137 7.93776 17.6543L8.02564 17.5665L8.18019 17.721C8.23958 17.7804 8.33534 17.7804 8.39473 17.721C8.45413 17.6616 8.45413 17.5659 8.39473 17.5065L8.24019 17.3519L8.43352 17.1586C8.71837 17.2822 8.83049 17.4986 8.81291 17.7943C8.7711 18.3828 8.65655 19.824 8.7014 20.4095Z" fill="#1A1A1A"/>
<path d="M5.23331 24.1859C4.23694 24.1889 4.40179 24.9992 4.40179 25.6053L4.39755 27.8174C4.39513 28.7519 4.76906 29.021 5.46482 29.0489L8.07088 29.1532C8.92603 29.1877 9.3721 28.8816 9.30603 28.0132C9.26543 27.4816 9.38058 26.0101 9.41816 25.481C9.52179 23.7538 7.42603 24.1065 5.23331 24.1859ZM7.26967 24.7216L7.24603 24.7453L7.22361 24.7229C7.23876 24.7222 7.25391 24.7216 7.26967 24.7216ZM5.23452 24.7919L5.79331 24.7719L5.80058 24.7792L5.45997 25.1204L5.13391 24.795C5.15997 24.7932 5.19088 24.7926 5.23452 24.7919ZM5.08725 28.3138C5.01694 28.2016 5.003 28.0077 5.00361 27.8192L5.00422 27.6435L5.38119 28.0204L5.08725 28.3138ZM5.00603 26.5356L5.11028 26.6398L5.00543 26.7447L5.00603 26.5356ZM5.00725 26.1083L5.00846 25.6071C5.00846 25.5168 4.9927 25.3059 4.99391 25.0829L5.28119 25.3701C5.2824 25.4071 5.29513 25.4441 5.32361 25.4719C5.35209 25.4998 5.38846 25.5132 5.42543 25.5144L5.83149 25.9204L5.32543 26.4265L5.00725 26.1083ZM8.70119 28.0598C8.72967 28.4301 8.72664 28.5719 8.09452 28.5483C7.89452 28.5404 5.58906 28.4501 5.39209 28.4368L5.60785 28.221C5.75088 28.2907 5.85937 28.1629 5.79573 28.0332L6.42603 27.4029C6.48543 27.3435 6.48543 27.2477 6.42603 27.1883C6.36664 27.1289 6.27088 27.1289 6.21149 27.1883L5.59452 27.8053L5.00422 27.215L5.00482 27.0186C5.06179 27.0471 5.11149 27.0665 5.17634 27.001L5.32422 26.8532L5.66967 27.1986C5.72906 27.258 5.82482 27.258 5.88361 27.1986C5.943 27.1392 5.943 27.0435 5.88361 26.9847L5.53816 26.6392L6.25997 25.9174C6.31937 25.858 6.31937 25.7622 6.25997 25.7029C6.20058 25.6435 6.10482 25.6435 6.04603 25.7029L6.04422 25.7047L5.67331 25.3338L6.01452 24.9932L6.53755 25.5162C6.59694 25.5756 6.6927 25.5756 6.7521 25.5162C6.81149 25.4568 6.81149 25.361 6.7521 25.3016L6.22906 24.7786L6.25331 24.7544C6.69876 24.738 6.80785 24.735 6.80785 24.735L7.03088 24.958L6.9127 25.0762C6.85331 25.1356 6.85331 25.2313 6.9127 25.2907C6.9721 25.3501 7.06785 25.3501 7.12664 25.2907L7.24482 25.1726L7.46785 25.3956C7.52725 25.455 7.623 25.455 7.68179 25.3956C7.74119 25.3362 7.74119 25.2404 7.68179 25.181L7.45876 24.958L7.50179 24.915C7.55755 24.8592 7.55634 24.7719 7.50664 24.7126C7.5224 24.7126 7.53816 24.7113 7.55391 24.7107C7.58603 24.7095 7.61816 24.7095 7.65028 24.7089L7.80967 24.8683L7.72179 24.9562C7.6624 25.0156 7.6624 25.1113 7.72179 25.1707C7.78119 25.2301 7.87694 25.2301 7.93573 25.1707L8.02361 25.0829L8.17816 25.2374C8.31937 25.3786 8.53391 25.1647 8.3927 25.0229L8.23816 24.8683L8.33331 24.7732C9.24422 25.0489 8.53816 25.9332 8.70119 28.0598Z" fill="#1A1A1A"/>
</svg>
