<svg xmlns="http://www.w3.org/2000/svg" width="40" height="40" fill="none" viewBox="0 0 40 40"><path fill="#1a1a1a" d="M1.796 36.846c.793.48 24.827-.022 28.63-.09 6.42-.113 6.808.016 7.73-.499 1.43-.794 1.736-3.251-1.195-3.323.156-6.366.284-11.35.61-24.158v-.002c.035-1.874-.628-2.33-2.014-2.35-5.612-.064-4.87-.035-5.876-.138-.584-.06-1.23-.123-1.821-.125l-.003-.368c0-2.481-1.181-2.934-3.67-2.832-10.577.432-9.85.402-10.455.388-1.528-.034-3.03.12-2.96 1.69.02.398.005.804-.002 1.203-1.634.142-.48.104-6.328.164-1.399.02-2.055.444-2.068 2.19l-.006 24.928c-2.172.298-1.846 2.544-.572 3.322M29.619 6.89c1.047.108.337.077 5.93.14 1.019.015 1.445.178 1.416 1.732-.332 13.059-.45 17.665-.61 24.174l-8.235.132-.255-26.303c.56.003 1.19.068 1.754.125M16.24 27.806c.024-.048.064-.08.097-.117l.143.142-.194.194a.151.151 0 1 0 .215.214l.194-.193.406.406-.667.667-.327-.327.003-.154c.006-.286.014-.609.13-.832m.342-.3q.142-.068.325-.103l-.213.214zm-.502 2.335a.15.15 0 0 0 .099-.04l.253-.254.567.567-.507.506-.42-.42zm.01-.379.005-.252.123.123zm-.028 1.156.216.216-.227.227zm-.037 1.545.484.483-.508.508zm.698.697.243.243a.15.15 0 0 0 .215 0 .15.15 0 0 0 0-.214l-.244-.243 1.116-1.117a.151.151 0 1 0-.214-.214l-1.116 1.116-.688-.688.006-.243.452-.453.498.498a.15.15 0 0 0 .107.044.151.151 0 0 0 .107-.259l-.497-.497.506-.507.053.054a.15.15 0 0 0 .215 0 .15.15 0 0 0 0-.215l-.053-.053.39-.39a.151.151 0 1 0-.214-.215l-.39.39-.567-.566.675-.676c.025.017.05.033.079.033a.15.15 0 0 0 .107-.044.15.15 0 0 0 .005-.204c.027-.057.028-.123-.02-.17-.045-.046-.109-.045-.165-.02l-.42-.42.452-.453c.009-.009.007-.022.013-.031h.001l.324-.018.592.592-.103.103a.151.151 0 1 0 .215.215l.103-.103.534.534a.15.15 0 0 0 .215 0 .15.15 0 0 0 0-.214l-.535-.535.685-.685.118-.006.43.431-.142.143a.151.151 0 1 0 .214.215l.143-.143.325.325a.15.15 0 0 0 .215 0 .15.15 0 0 0 0-.215l-.325-.325.403-.404a.8.8 0 0 1 .41.25c.272.333.273.908.252 1.42l-.173 4.252-4.951.082zm1.381-5.553.847-.046-.447.446zm1.823-.099.091-.005a4 4 0 0 1 .397-.005l-.249.249zM13.718 3.955c.606.014-.102.044 10.493-.388 2.336-.096 3.04.263 3.04 2.226.009 1.038.133 13.849.263 27.284q-2.818.048-5.634.092l.171-4.217c.026-.624.019-1.331-.387-1.828-.483-.592-1.262-.55-1.678-.527l-2.644.144c-.412.022-1.267.068-1.64.784-.18.349-.19.763-.199 1.097l-.11 4.654c-.043 0-4.175.068-4.227.07-.003-6.884-.025-14.702.206-26.82 0 0 .029-1.072.006-1.517-.05-1.1 1.23-1.077 2.34-1.054M2.98 8.598c.011-1.392.4-1.571 1.47-1.586 5.897-.06 4.729-.023 6.309-.162-.244 12.753-.215 17.964-.218 26.497l-7.567.12zm.137 25.486c.231 0 32.927-.546 33.533-.546h.104c2.583 0 1.979 1.706 1.106 2.19-.754.421-.949.307-7.445.422-8.183.145-27.347.484-28.304.178-.694-.424-1.597-2.218 1.006-2.244"/><path fill="#1a1a1a" d="M13.379 9.83c-.06.867.387 1.172 1.244 1.13l2.605-.125c.689-.033 1.067-.298 1.057-1.24-.003-.257-.028-2.197-.014-2.454a3 3 0 0 0-.002-.463c-.047-.441-.32-.726-.85-.709l-1.322-.037c-.328-.012-.655-.025-.974-.025h-.005c-1.272-.035-1.954.36-1.853 1.63.044.54.147 1.806.114 2.293m.49-2.342c-.027-.349-.017-.28-.003-.389l.21.21a.15.15 0 0 0 .043.102.15.15 0 0 0 .101.043l.406.406-.506.506-.198-.199zm.307 2.472-.182.182a1 1 0 0 1-.01-.27c.001-.03.001-.069.003-.101zm2.68-3.4-.034.035-.037-.037zm-.513-.014.263.263-.087.088a.151.151 0 1 0 .214.215l.088-.088c.125.125.242.281.368.154a.15.15 0 0 0 0-.214l-.154-.155.238-.237.15.004c.168-.007.225-.01.244.168.013.12.005.242-.002.365-.015.293.01 2.185.013 2.492.006.598-.113.611-.48.63l-2.606.124a2 2 0 0 1-.364-.018l.175-.176c.057.028.105.047.17-.018.046-.047.046-.114.018-.17l.63-.63a.15.15 0 0 0 0-.214.15.15 0 0 0-.215 0l-.617.617-.403-.403a17 17 0 0 0-.016-.4l.002-.001.148-.148.345.346a.151.151 0 1 0 .215-.215l-.346-.345.722-.722a.151.151 0 1 0-.214-.215l-.002.002-.371-.37.341-.342.523.523a.152.152 0 1 0 .215-.214l-.523-.523.126-.126c.021-.021.026-.05.032-.076.124 0 .248.006.373.009-.01.048-.005.098.033.135l.238.239-.118.118a.151.151 0 1 0 .214.214l.119-.118.223.223a.152.152 0 1 0 .214-.214l-.223-.223.043-.043a.151.151 0 1 0-.214-.215l-.043.043-.152-.15.186.003zm-1.87 0c.005.03.012.061.036.085l.088.088-.341.341-.265-.265c.092-.111.195-.198.482-.25m6.833 4.29 2.605.125c.858.042 1.304-.255 1.244-1.13-.037-.535.09-1.996.133-2.53.054-.79-.438-1.431-1.864-1.391-.284 0-2.024.053-2.309.061-.528-.015-.803.263-.85.708 0 0 .006.749-.016 2.917-.01.94.37 1.207 1.057 1.24m-.437-3.727v-.024l.224.224a.15.15 0 0 0 .042.103.15.15 0 0 0 .103.042l.405.406-.506.506-.267-.267c.003-.296.013-.72-.001-.99m.054 1.471-.058.058.001-.114zm.067 1.583-.005-.002c-.115-.082-.13-.315-.13-.538l.338.338zm2.768-3.648q.074.005.146.014l-.066.066zm-1.3.024.11-.002a.14.14 0 0 0 .038.125l.238.238-.118.118a.151.151 0 1 0 .213.215l.119-.118.223.223a.151.151 0 1 0 .214-.215l-.223-.223.043-.043a.151.151 0 1 0-.214-.215l-.043.043-.157-.157q.221-.008.445-.01c.005.007.003.017.01.024l.268.267-.088.088a.151.151 0 1 0 .214.215l.088-.088.155.154a.151.151 0 1 0 .214-.214l-.154-.155.208-.207c.308.113.445.332.423.656-.046.587-.173 2.025-.133 2.613.026.372.021.512-.61.484l-2.59-.124.07-.069c.056.027.104.046.169-.019.047-.046.046-.113.018-.17l.63-.63a.151.151 0 1 0-.214-.214l-.618.617-.548-.548.003-.22c.007.002.013.009.02.009a.15.15 0 0 0 .108-.044l.148-.148.345.345a.151.151 0 1 0 .215-.214l-.346-.346.722-.722a.151.151 0 1 0-.215-.214v.001l-.372-.37.34-.341.524.523a.152.152 0 1 0 .214-.214l-.523-.523.127-.127c.013-.013.012-.03.02-.047zm-1.346.038.386-.011c.007.023.009.048.027.066l.088.088-.34.34c-.066-.064-.315-.326-.391-.362.023-.092.007-.129.23-.121m-7.734 10.238c-.06.868.388 1.171 1.244 1.13l2.605-.125c.69-.033 1.067-.298 1.057-1.24-.022-2.167-.014-2.917-.014-2.917-.05-.461-.323-.704-.85-.709l-1.323-.037c-.328-.012-.655-.024-.974-.024h-.005c-1.555-.038-1.932.637-1.853 1.63.043.54.147 1.805.113 2.292m.49-2.34c-.013-.173-.04-.339.008-.497l.2.2a.15.15 0 0 0 .042.102c.028.028.065.04.102.042l.406.406-.506.506-.208-.208zm.662-.953.066.066-.342.34-.207-.207c.122-.112.29-.171.483-.199m-.354 3.307-.199.198c0-.058.002-.119.006-.17q.006-.094.007-.214zm3.491-3.1s-.014.335.011 2.857c.006.598-.113.61-.48.629l-2.605.125c-.089.005-.313.015-.461-.039l.27-.27c.057.026.105.046.17-.019.047-.047.046-.113.018-.17l.63-.63a.151.151 0 1 0-.214-.214l-.617.618-.408-.408q-.006-.189-.018-.393l.008-.003.148-.148.345.346a.151.151 0 1 0 .215-.215l-.346-.346.722-.721a.151.151 0 1 0-.215-.215l-.001.002-.371-.37.34-.342.524.523a.151.151 0 1 0 .214-.215l-.523-.523.088-.088c.155 0 .312.007.468.011.004.006.002.014.007.02l.239.237-.118.119a.151.151 0 1 0 .214.214l.118-.118.223.223a.151.151 0 1 0 .215-.215l-.223-.223.043-.043c.054-.054.052-.136.008-.195l.157.004.143.144-.088.088a.151.151 0 1 0 .215.214l.088-.087.154.154c.06.06.155.06.214 0a.15.15 0 0 0 0-.214l-.154-.154.124-.125.264.008c.172 0 .226-.012.245.167m-1.627-.175-.032-.032.063.002zm5.266 4.267 2.605.125c.86.04 1.304-.257 1.244-1.13-.034-.488.07-1.753.114-2.292.101-1.278-.597-1.668-1.845-1.63-.284 0-2.021.053-2.31.061-1.028.022-.836.807-.842 1.413l-.023 2.213c-.01.94.37 1.206 1.057 1.24m-.438-3.868.225.225a.145.145 0 0 0 .145.145l.405.405-.506.506-.265-.265.006-.595zm.055 1.495-.057.057.001-.113zm.014 1.636c-.071-.112-.084-.308-.082-.498v-.095l.338.337zm2.12-3.53-.043-.044.093-.003-.006.003zm-.456-.035c.003.004.002.008.005.01l.238.238-.118.119a.151.151 0 1 0 .213.214l.119-.118.223.223a.151.151 0 1 0 .214-.215l-.223-.223.043-.043a.15.15 0 0 0 0-.214c-.005-.005-.012-.003-.017-.007l.134-.004h.014l.178.179-.088.088a.151.151 0 1 0 .214.214l.088-.088.155.155a.151.151 0 1 0 .214-.214l-.154-.155.117-.117c.535.144.533.442.496.914-.049.6-.15 1.85-.114 2.382.026.37.019.514-.61.483l-2.605-.125-.093-.008.177-.177c.057.028.105.047.17-.018.046-.047.046-.114.018-.17l.63-.63a.151.151 0 1 0-.215-.214l-.617.617-.547-.546.003-.221c.006.001.012.008.019.008a.15.15 0 0 0 .107-.044l.148-.148.346.345a.151.151 0 1 0 .214-.214l-.345-.346.721-.722a.151.151 0 1 0-.214-.214l-.002.002-.37-.371.34-.34.523.522a.151.151 0 1 0 .214-.214l-.523-.523.055-.055zm-1.49.042.462-.013.04.04-.34.34c-.058-.056-.29-.29-.35-.345.032-.027.145-.022.188-.022M13.39 23.587c-.012.19-.03.478.129.725.224.349.637.402.925.402.077 0 .146-.003.199-.006l2.604-.146c.192-.011.455-.026.677-.19.384-.284.375-.808.37-1.06l-.04-2.212q0-.119.006-.242a3 3 0 0 0-.005-.462.85.85 0 0 0-.176-.445c-.204-.253-.469-.257-.658-.256-.005-.007-.003-.017-.009-.023a.15.15 0 0 0-.214 0l-.02.02-1.098-.024c-.33-.01-.658-.02-.983-.016-.54-.01-1.15.015-1.549.454-.239.262-.34.574-.312.951l.02.239c.05.539.163 1.804.134 2.291m.471-2.346-.02-.23a.6.6 0 0 1 .092-.39l.143.142a.15.15 0 0 0 .042.103.15.15 0 0 0 .102.042l.406.406-.506.506-.228-.228zm.283-.838a1 1 0 0 1 .334-.112l-.223.223zm-.149 3.192c.005-.1.005-.223.002-.36l.179.18zm3.612-3.263a.26.26 0 0 1 .046.134c.014.12.007.242.002.364a4 4 0 0 0-.007.28l.04 2.213c.004.228-.008.474-.125.561-.076.056-.229.064-.35.072l-2.604.146c-.12.006-.48.026-.577-.116l.371-.372c.02.01.04.026.062.026a.15.15 0 0 0 .108-.044c.046-.047.046-.113.018-.17l.63-.63a.151.151 0 1 0-.214-.214l-.617.617-.41-.41-.024-.387c.005-.004.012-.003.016-.007l.148-.148.345.346a.15.15 0 0 0 .108.044.151.151 0 0 0 .107-.259l-.346-.346.722-.721a.151.151 0 1 0-.215-.215l-.002.002-.37-.371.34-.341.524.523a.15.15 0 0 0 .214 0 .15.15 0 0 0 0-.215l-.439-.438q.316-.001.633.01l.085.085-.118.118a.151.151 0 1 0 .215.214l.118-.117.223.223a.15.15 0 0 0 .215 0 .15.15 0 0 0 0-.215l-.223-.223.043-.043c.008-.008.006-.021.012-.031l.274.006-.066.066a.151.151 0 1 0 .214.215l.088-.088.155.155a.15.15 0 0 0 .107.044.151.151 0 0 0 .107-.259l-.122-.122.234.005h.106c.155-.002.177.006.2.033m2.655.751-.005 2.213c-.002.93.368 1.203 1.068 1.232l2.605.103c.847.034 1.302-.263 1.235-1.14-.037-.49.06-1.806.096-2.3.05-.714-.118-1.26-.826-1.503-.004-.005-.002-.012-.007-.017-.04-.04-.097-.043-.15-.026-.285-.068-.591-.07-.876-.061-.275.002-2.025.07-2.31.08-1.006.003-.83.813-.83 1.42m.59-.559.239.238a.15.15 0 0 0 .042.103.15.15 0 0 0 .103.042l.405.406-.506.506-.269-.27.001-.466c0-.264-.023-.258-.014-.559m.07 1.51-.057.055v-.112zm-.016 1.665a1.5 1.5 0 0 1-.043-.402v-.212l.328.328zm1.796-3.486.14.14-.118.118a.151.151 0 1 0 .213.214l.119-.118.223.223a.152.152 0 1 0 .214-.214l-.222-.223.043-.043a.15.15 0 0 0 .04-.118l.061-.002.132-.002.075.075-.088.088a.151.151 0 1 0 .215.215l.088-.088.154.154a.151.151 0 1 0 .215-.214l-.155-.155.039-.038c.57.116.603.424.567.92-.044.604-.137 1.858-.096 2.393.029.37.024.515-.606.489l-2.605-.104a2 2 0 0 1-.215-.021l.285-.286c.057.027.105.046.17-.019.046-.046.046-.113.018-.17l.63-.63a.151.151 0 1 0-.214-.214l-.617.617-.542-.54.001-.226c.005 0 .01.007.016.007a.15.15 0 0 0 .107-.044l.148-.148.345.346a.151.151 0 1 0 .215-.215l-.346-.346.722-.721a.151.151 0 1 0-.215-.215l-.002.002-.37-.371.34-.341.524.523a.151.151 0 1 0 .214-.215l-.462-.462c.512-.02.6-.02.6-.02m-1.607.057.436-.016-.26.26-.243-.243zm8.819-9.77-.004 2.212c-.002.945.383 1.205 1.067 1.232l2.606.104c.869.035 1.301-.277 1.236-1.14-.041-.531.074-2 .112-2.532.047-.789-.45-1.427-1.875-1.375-.277.002-2.032.07-2.31.08-.996.003-.832.813-.832 1.42m.595-.289.227.228a.15.15 0 0 0 .043.102.15.15 0 0 0 .102.042l.406.406-.507.506-.261-.262v-.731a5 5 0 0 0-.01-.29m.058 1.499-.049.049v-.098zm.085 1.564c-.125-.086-.133-.352-.135-.504l.32.32zm2.71-3.669q.115.002.226.014l-.106.106zm-1.136.03c-.02.053-.02.113.023.156l.238.237-.118.118a.151.151 0 1 0 .214.214l.118-.117.223.223a.151.151 0 1 0 .215-.215l-.223-.223.043-.043a.152.152 0 1 0-.215-.214l-.043.043-.19-.19q.23-.009.463-.015c.007.022.008.045.025.061l.268.268-.088.088a.151.151 0 1 0 .215.214l.088-.088.154.155a.151.151 0 1 0 .215-.214l-.155-.155.238-.238c.286.119.41.33.391.64-.042.585-.156 2.029-.111 2.614.028.369.023.517-.606.489l-2.592-.104.048-.048c.02.01.04.026.063.026a.15.15 0 0 0 .107-.045c.046-.046.046-.113.018-.17l.63-.63a.151.151 0 1 0-.214-.214l-.618.617-.534-.534v-.229q.005.002.01.004a.15.15 0 0 0 .107-.044l.147-.148.346.345a.151.151 0 1 0 .214-.214l-.345-.346.722-.721a.151.151 0 1 0-.215-.215l-.002.002-.37-.371.34-.341.524.523a.151.151 0 1 0 .214-.214l-.523-.523.127-.127c.02-.02.025-.048.03-.074zm-1.478.052.384-.014a.15.15 0 0 0 .037.088l.088.088-.341.341-.343-.343c-.016-.016-.038-.016-.058-.024.025-.126.032-.135.233-.136m-.838 10.477c-.002.945.383 1.203 1.068 1.231l2.606.104c.851.035 1.3-.267 1.235-1.14-.038-.49.06-1.806.095-2.303l.017-.229c.048-.793-.45-1.422-1.875-1.375-.276.002-2.025.07-2.31.08-.531.001-.799.263-.844.714 0 0 .012.762.008 2.918m.597-2.66.23.23a.15.15 0 0 0 .042.102.15.15 0 0 0 .103.043l.405.405-.506.506-.262-.26c.002-.607.005-.527-.012-1.026m.06 1.5-.048.05v-.097zm.017 1.634c-.058-.115-.068-.298-.068-.473v-.1l.32.32zm2.16-3.57-.042.042-.04-.04zm-.495.016v.002l.239.238-.118.119a.151.151 0 1 0 .214.214l.118-.118.223.223a.151.151 0 1 0 .214-.215l-.223-.223.043-.043a.15.15 0 0 0 0-.214c-.003-.004-.009-.002-.012-.006l.12-.004h.023l.177.176-.088.088a.151.151 0 1 0 .215.215l.088-.088.154.154a.151.151 0 1 0 .215-.214l-.155-.155.124-.124c.345.093.527.319.505.68-.041.589-.156 2.03-.111 2.615.028.367.026.517-.606.489l-2.606-.104q-.064-.003-.131-.01l.194-.194c.057.027.105.046.17-.018.046-.047.046-.114.018-.17l.63-.63a.151.151 0 1 0-.214-.215l-.618.618-.534-.534.001-.23c.104.007.187-.112.264-.188l.345.345a.151.151 0 1 0 .215-.215l-.346-.345.722-.722a.151.151 0 1 0-.214-.214l-.002.002-.37-.371.34-.341.523.523a.151.151 0 1 0 .215-.215l-.523-.523.041-.041zm-1.502.054.486-.018.023.024-.34.34-.335-.334a.6.6 0 0 1 .166-.012m-.833 8.466-.004 2.21c-.002.935.372 1.204 1.068 1.232l2.606.104c.868.035 1.3-.277 1.235-1.14-.038-.49.06-1.807.095-2.303.071-1.001-.33-1.658-1.858-1.604-.284.002-2.026.07-2.31.08-.996.003-.832.815-.832 1.42m.594-.389.228.229a.15.15 0 0 0 .043.102.15.15 0 0 0 .103.043l.405.404-.506.506-.262-.261.002-.636c0-.034-.013-.387-.013-.387m.06 1.5-.05.048v-.097zm.042 1.607c-.079-.109-.094-.311-.094-.507v-.04l.32.32zm2.852-3.613.04.001-.02.02zm-1.237.027c.007.02.008.044.025.06l.238.239-.118.118a.151.151 0 1 0 .214.214l.118-.117.223.223a.151.151 0 1 0 .214-.215l-.223-.223.043-.043a.151.151 0 1 0-.214-.214l-.043.043-.097-.097q.212-.01.428-.014l.235.234-.088.088a.151.151 0 1 0 .214.215l.088-.088.155.154a.151.151 0 1 0 .214-.214l-.154-.155.168-.168c.48.154.477.445.446.887-.068.919-.132 1.922-.096 2.393.029.37.026.513-.606.489l-2.606-.104q-.036-.004-.076-.006l.139-.139c.057.028.105.046.17-.018.046-.046.046-.113.018-.17l.63-.63a.151.151 0 1 0-.214-.214l-.617.617-.534-.534v-.23q.004.002.009.004a.15.15 0 0 0 .107-.044l.148-.148.345.346a.151.151 0 1 0 .215-.215L31 26.72l.721-.722a.151.151 0 1 0-.214-.215l-.002.002-.37-.371.34-.341.523.523a.151.151 0 1 0 .215-.214l-.523-.524.103-.103c.4-.014.434-.014.434-.014m-1.478.052.429-.015.08.081-.34.34c-.062-.061-.303-.31-.374-.355.003-.004.003-.013.006-.017.022-.026.044-.033.2-.034M7.543 9.003c-.33.003-.663.018-.995.032l-1.314.048c-1.007.003-.832.814-.832 1.42l-.004 2.212c-.002.945.383 1.204 1.067 1.231l2.606.105c.869.035 1.301-.277 1.236-1.14-.038-.49.059-1.807.095-2.303.086-1.219-.588-1.65-1.859-1.605m.49.611-.006.007-.008-.007zm-2.797.075.491-.017.075.074-.341.34-.343-.342c-.02-.02-.047-.023-.071-.03.02-.019.055-.025.189-.025m-.118 3.561c-.097-.1-.114-.32-.114-.533v-.107l.377.377zm-.111-1.748.104.104-.105.106zm0-.428.001-.57-.013-.453.286.286a.15.15 0 0 0 .042.101.15.15 0 0 0 .102.043l.406.406-.506.506zm3.79-.51c-.044.603-.136 1.858-.095 2.393.028.366.025.517-.607.489l-2.606-.104-.032-.003.15-.15c.057.026.106.046.17-.019.047-.047.047-.113.019-.17l.63-.63a.151.151 0 1 0-.215-.215l-.617.618-.589-.59.001-.197c.057.029.107.048.172-.017l.148-.148.345.345c.06.06.156.06.214 0a.15.15 0 0 0 0-.214l-.345-.346.722-.722a.151.151 0 1 0-.214-.214l-.002.002-.37-.371.34-.341.523.523a.151.151 0 1 0 .215-.215l-.524-.522.096-.096.25-.01.197-.006c.007.018.007.038.022.054l.237.237-.118.118a.151.151 0 1 0 .214.215l.118-.118.223.223c.06.06.155.06.214 0a.15.15 0 0 0 0-.215l-.223-.223.043-.043a.151.151 0 1 0-.215-.214l-.043.043-.089-.09c.134-.004.265-.011.4-.012h.028l.227.226-.087.088a.151.151 0 1 0 .214.215l.087-.088.155.154a.151.151 0 1 0 .215-.214l-.155-.155.145-.145c.453.164.443.448.413.874m-1.255 5.892c-.277.002-2.024.07-2.31.08-.532.001-.8.264-.844.714 0 0 .012 1.018.008 2.918-.002.945.383 1.203 1.067 1.231l2.606.104c.867.036 1.301-.275 1.236-1.14-.041-.53.074-2 .112-2.532.048-.791-.447-1.422-1.875-1.375m.547.618-.064.065-.076-.076q.071.003.14.01m-2.855.068.457-.017c.008.017.007.036.02.05l.089.088-.34.34c-.072-.071-.345-.375-.44-.383.006-.013.008-.035.015-.044.021-.027.044-.034.199-.034m-.083 3.59c-.149-.091-.149-.388-.148-.563v-.043l.377.377zm-.146-1.713.105.104-.105.105zm0-.428.002-.635c0-.034-.013-.389-.013-.389l.286.285a.15.15 0 0 0 .042.103.15.15 0 0 0 .103.042l.405.406-.506.506zm3.695 1.819c.029.366.026.517-.606.488l-2.577-.103.09-.09c.057.027.105.046.17-.018.046-.047.046-.114.018-.17l.63-.63a.152.152 0 1 0-.214-.215l-.617.617-.59-.59v-.196c.056.028.107.048.172-.018l.148-.148.346.346c.06.06.155.06.214 0a.15.15 0 0 0 0-.214l-.345-.346.721-.722a.15.15 0 0 0 0-.214.15.15 0 0 0-.214 0l-.001.002-.371-.371.34-.341.524.523a.151.151 0 1 0 .215-.214l-.524-.523c.062-.061.102-.094.142-.162l.382-.013c-.008.106.195.272.278.355l-.118.117a.151.151 0 1 0 .214.215l.118-.118.223.223c.06.06.155.06.214 0a.15.15 0 0 0 0-.214l-.223-.223.043-.043a.151.151 0 1 0-.214-.215l-.043.043-.152-.152c.146-.005.291-.013.44-.014.005.007.003.016.01.022l.268.268-.088.088a.151.151 0 1 0 .214.214l.088-.087.154.154a.151.151 0 1 0 .215-.215l-.155-.154.194-.193c.284.123.396.34.379.635-.042.589-.156 2.03-.112 2.616m-3.468 3.777c-.996.003-.831.813-.831 1.42l-.004 2.211c-.003.935.371 1.204 1.067 1.232l2.606.104c.855.035 1.301-.271 1.235-1.14-.04-.531.075-2.003.112-2.532.104-1.727-1.992-1.375-4.185-1.295m2.037.536-.024.023-.022-.022zm-2.035.07.558-.02.008.007-.341.341-.326-.325.1-.003m-.148 3.522c-.07-.112-.084-.306-.083-.495v-.175l.377.376zm-.081-1.778.104.104-.105.105zm.001-.428.001-.5c0-.091-.015-.302-.014-.525l.287.287a.15.15 0 0 0 .043.102.15.15 0 0 0 .101.042l.406.406-.506.506zM8.7 28.06c.029.37.026.512-.606.488-.2-.008-2.506-.098-2.703-.111l.216-.216c.143.07.251-.058.188-.188l.63-.63a.151.151 0 1 0-.215-.215l-.616.617-.59-.59v-.196c.057.028.106.048.171-.018l.148-.148.346.346c.06.059.155.059.214 0a.15.15 0 0 0 0-.214l-.346-.346.722-.722a.151.151 0 1 0-.214-.214l-.002.002-.37-.371.34-.34.524.522a.151.151 0 1 0 .214-.214l-.523-.523.024-.025.555-.019.223.223-.118.118a.151.151 0 1 0 .214.215l.118-.118.223.223a.151.151 0 1 0 .214-.215l-.223-.223.043-.043a.15.15 0 0 0 .005-.202l.047-.002.096-.002.16.16-.088.087a.151.151 0 1 0 .214.215l.088-.088.154.154c.141.142.356-.072.215-.214l-.155-.155.095-.095c.911.276.205 1.16.368 3.287"/></svg>