<svg xmlns="http://www.w3.org/2000/svg" width="120" height="120" fill="none" viewBox="0 0 120 120"><path fill="#000" d="M75.251 40.927c-1.873 2.654-1.745 4.236 2.037 4.654a54 54 0 0 0 6.836.328l-.346-13.91c-.018-.454-.218-1.836-.672-1.836 0 0-.218-.109-.837.764zM77.07 47.4c-4.618-.528-6.309-3.255-3.309-7.51l7.018-10c2.073-2.945 4.728-1.436 4.819 2.073l.345 13.873a49 49 0 0 0 6.691-.782.944.944 0 0 1 1.055.746.907.907 0 0 1-.728 1.054 53 53 0 0 1-6.963.8l.181 7.636a.91.91 0 0 1-.872.928h-.037a.92.92 0 0 1-.909-.891l-.181-7.6a58 58 0 0 1-7.11-.327M64.398 74.454c-2.709-3.054-7.509-1.418-7.963 1.055-.273 1.436-.055 2.818.563 3.709 1.237 1.745 3.382 1.145 5.255.272 2.636-1.2 4.09-2.854 2.145-5.036m1.364-1.218c2.145 2.418 2.054 5.71-2.746 7.91-1.29.6-2.618 1-3.854 1-1.4 0-2.691-.528-3.636-1.892-.91-1.273-1.237-3.163-.891-5.073.454-2.454 3.181-4.2 6.072-4.2 1.782 0 3.637.673 5.055 2.255m1.256-35.691c.11 2.582-.055 5.637-.454 7.982-1.437 8.746-11.982 10.055-12.546-.09-.236-4.274.382-11.274 3.473-14.292 2.49-2.436 9.073-3.818 9.527 6.4m-2.236 7.691c.363-2.236.527-5.145.418-7.6-.346-8.054-4.618-6.964-6.437-5.182-2.636 2.564-3.127 9.218-2.945 12.873.455 8.09 7.891 6.364 8.964-.09m-20.293-.819c.382-4.473.582-8.963.564-13.454-4.346 4.636-8.11 9.436-11.2 14.345 3.763-.255 7.563-.636 10.636-.89m-13.11 1.418c3.674-6.09 8.365-12.054 13.91-17.727a.91.91 0 0 1 .982-.218.89.89 0 0 1 .582.836 148 148 0 0 1-.528 15.528c1.528-.128 3.091-.219 4.673-.31.546-.054.927.364.964.855a.926.926 0 0 1-.855.964q-2.536.136-4.963.327a150 150 0 0 1-.946 7.545.916.916 0 0 1-.909.764h-.127c-1.31-.2-.582-1.182.145-8.145-4.327.381-8.073.745-12.09.963-.673.073-1.219-.727-.837-1.382m-1.362-29.473-2.073-2.073-2.673 2.69 2.073 2.073zm-14.091 5.309 2.363-2.382L17.2 18.2l-2.382 2.364zm-3.928 1.073a.44.44 0 0 1 0-.637l1.546-1.545-2.127-2.11a.46.46 0 0 1 0-.654.474.474 0 0 1 .636 0l2.127 2.127 2.382-2.381-.309-.31a.44.44 0 0 1 0-.636.44.44 0 0 1 .636 0l.31.31 6.272-6.274a.44.44 0 0 1 .636 0 .44.44 0 0 1 0 .637l-2.581 2.6-3.691 3.673 1.09 1.108.6-.6a.46.46 0 0 1 .655 0 .44.44 0 0 1 0 .637l-.6.6 1.055 1.055 3.345-3.364-2.454-2.455a.46.46 0 0 1 0-.654.5.5 0 0 1 .654 0l2.455 2.473 2.672-2.691-.345-.346a.44.44 0 0 1 0-.636.46.46 0 0 1 .655 0l.327.345.909-.909c.164-.164.454-.164.636 0a.46.46 0 0 1 0 .655l-.89.89 2.072 2.073 3.51-3.509a.44.44 0 0 1 .636 0 .44.44 0 0 1 0 .636l-3.51 3.51 2.019 2.018 2.854-2.837a.44.44 0 0 1 .637 0 .44.44 0 0 1 0 .637l-2.837 2.854 1.273 1.273a.474.474 0 0 1 0 .636.46.46 0 0 1-.655 0l-1.272-1.272-.91.927a.5.5 0 0 1-.654 0 .46.46 0 0 1 0-.655l.927-.909-2.018-2.018-2.69 2.673 2.781 2.782a.44.44 0 0 1 0 .636.44.44 0 0 1-.636 0l-2.782-2.782-.673.673a.44.44 0 0 1-.636 0 .44.44 0 0 1 0-.636l.672-.673-2.072-2.055-3.364 3.346 1.91 1.909.69-.691a.5.5 0 0 1 .655 0 .5.5 0 0 1 0 .655l-.728.709c.237.418-.145.836-.581.581l-1.982 1.982a.44.44 0 0 1-.637 0 .44.44 0 0 1 0-.636l1.946-1.945-1.91-1.91-1.126 1.11a.44.44 0 0 1-.637 0 .44.44 0 0 1 0-.637l1.11-1.127-1.037-1.037-2.382 2.364 3.218 3.218a.46.46 0 0 1 0 .655c-.182.164-.473.164-.636 0l-3.218-3.218-1.037 1.018c-.163.163-.454.163-.636 0a.46.46 0 0 1 0-.655l1.018-1.018-1.09-1.09-1.546 1.526a.44.44 0 0 1-.637 0"/><path fill="#000" d="m115.835 67.581-2.164 2.146 2.146 2.145c.072-1.109.09-2.254.109-3.418l.018-1.127c-.018.09-.037.182-.109.254m-2.182 8.255-2.109 2.109 1.745 1.745c.8-1 1.364-2.127 1.764-3.363.327-1.018.527-2.127.654-3.273l-1.472-1.473-1.764 1.782 1.2 1.2c.182-.163.436-.163.6 0a.47.47 0 0 1 .018.618l.637.618c.127.128.145.328.091.51a.33.33 0 0 1-.091.145.46.46 0 0 1-.655 0zm-4.327 4.327 1.363 1.364c.073.073.091.163.109.254a8.3 8.3 0 0 0 1.873-1.418l-1.764-1.763zm-.309-3.454-1.564 1.581 1.236 1.237 1.564-1.582zm-4.491 3.2 1.636-1.619-1.509-1.509-1.618 1.637zm0 1.29-2.037 2.055c-.036.036-.072.018-.127.036l.6.6c2.455-.254 4.964-.709 7.091-1.727l-1.364-1.345-1.2 1.181a.44.44 0 0 1-.636 0 .46.46 0 0 1 0-.654l1.182-1.182-1.237-1.236-1.618 1.636 1.873 1.873a.44.44 0 0 1 0 .636c-.182.182-.473.182-.636 0zm-2.146-2.145-2.127 2.127 1.545 1.546c.019-.037 0-.091.037-.127l2.054-2.037zM101.798 84l-2.181-2.163-1.873 1.854.49.491c.019.019.019.055.037.073 1.091-.09 2.182-.127 3.255-.218.091-.018.181-.018.272-.037m-5.945.31.618-.619-1.654-1.636-1.455 1.455.855.854c.054.037.054.11.072.164l1.51-.11c.018-.036.018-.072.054-.108m-3.127-.164-.528.527c.328-.018.655-.054.982-.072zm-4.4.71-.037-.037-.018.036zm2.527-2.583-1.91 1.91.528.527c.018.036.018.072.036.109.455-.037.928-.037 1.382-.055.019-.036.019-.073.037-.109l1.163-1.145zm-4.473.618-1.509 1.51.182.181q.136.165.109.382c.636-.036 1.273-.054 1.91-.073.017-.072.035-.163.09-.236l.49-.473zM58.29 113.8c-.073.072-.164.09-.255.109l-.237.236c1.382-.073 2.746-.145 4.11-.236a.45.45 0 0 1 0-.619l.363-.363-1.618-1.637-2.255 2.273c-.018.091-.036.182-.109.237m-3.764-27.4c-.019.09-.037.181-.11.254h-.018l1.219 1.218 1.363-1.363c-.818-.055-1.636-.073-2.454-.11m.581 27.581a.44.44 0 0 1-.636 0l-.036-.018-.346.346c.782-.019 1.582-.073 2.364-.109l.8-.782-1.127-1.146-1.037 1.037.019.036a.44.44 0 0 1 0 .636m-11.927.437-.563-.564-.6.6c.4-.018.781-.018 1.163-.036m-4.054.091-.055-.055-.054.055zM4.453 67.181c37.036.219 74.545-.6 111.509-2.4l.4-43.745c.091-9.764-2.055-13.764-15.345-14.018l-78.764-1.51c-14.164-.29-18.873 3.4-18.6 18.382zm45.927 46.855a.4.4 0 0 1 .11.345c.854 0 1.69-.018 2.527-.054 0-.127.018-.255.127-.346l.654-.672-1.527-1.528-2.073 2.073zm-.982-27.764 2.055 2.055 1.673-1.673-.146-.127c-.054-.055-.054-.127-.072-.182a228 228 0 0 0-3.51-.073m-3.927.346 1.018 1.018 1.382-1.382c-.8 0-1.582-.018-2.382-.018 0 .127-.018.254-.018.382m.637 27.091.527.527c.054.036.054.109.073.182h1.654l.564-.564-1.31-1.309c-.072-.055-.09-.145-.108-.236zm-1.146-21.073.71-.71-.6-.6zm.873-4.364-.473-.473c-.073.8-.127 1.619-.2 2.419.055.018.11.018.145.054l1 1 1.273-1.254-1.09-1.091-.146.145a.5.5 0 0 1-.655 0 .5.5 0 0 1 0-.654zm-.418 26.146h.109l-.055-.073zm-.673-17.419-.146-.127c0 .11-.018.2-.018.291zm1.563-4.436-1.472 1.473c-.037.545-.091 1.109-.127 1.654l.672.673 2.237-2.236c.054-.055.127-.055.2-.091-.019 0-.037 0-.055-.018zm-1.69 9.182-.382-.382c-.018.273-.018.527-.037.8zm-.619 10.727-.745.746.727.727c.128.127.128.291.073.455h.418c-.036-.146-.036-.31.091-.419l.273-.272-.764-.764c-.127-.127-.127-.309-.073-.473m37.328-28.018.363.346c.073.072.091.181.11.272.781-.018 1.581-.054 2.363-.073l-1.69-1.69zm-.655.655h.036l-.018-.019zm-2.4.018c.491 0 1 .018 1.491 0-.055-.164-.055-.328.073-.455l.218-.218-.927-.927-1.2 1.2.29.272c.037.037.037.091.055.128m-1.836 27.345c1.836-.236 3.763-.436 5.309-1.436v-.018c1-.618 1.854-1.746 1.927-2.928l-2.49 2.491a.44.44 0 0 1-.637 0 .44.44 0 0 1 0-.636l.764-.764-.782-.781-1.637 1.618.691.672a.46.46 0 0 1 0 .655.5.5 0 0 1-.654 0l-.673-.691zm-2.127-1.818 1.327 1.327 1.982-1.963-1.346-1.328zM72.87 85.127h.255L72.998 85zm-.49 27.454.345.346q1.172-.136 2.29-.273l-1.345-1.345zm-.383-2.963-1.29 1.272 1.036 1.037 1.273-1.273zM70.89 86.945c-.163 0-.327-.018-.49-.018l.236.254zm-.818 24.6-1.654 1.655c-.037.054-.037.127-.091.181.963-.091 1.909-.181 2.836-.291-.127-.145-.11-.327-.036-.49zm-2.763 1.473-1.928-1.928-2.745 2.764c2.527-.182 1.273-.054 4.254-.327.019-.055.019-.109.055-.146zm15.418-.473c-4.837 3.164-43.073 4.691-46.473 3.218-2.618-1.182-4.655-4.363-3.418-7.454 1.527-3.637 5.672-4.273 9.618-4.346-.2-1.909.909-14.2 1.218-17.727-9.4-.018-18.4.163-27.6-.418-12.073-.746-13.2-5.655-13.418-17.6 0-.037-.018-.073-.018-.128 0-.036.018-.054.018-.09l-.818-44.091C1.544 7.672 7.253 3.399 22.289 3.69l78.764 1.51c14.164.272 17.218 4.872 17.127 15.854l-.436 47.418c-.037 4.673-.346 9.528-3.455 12.873-3.163 3.418-8.163 4.11-12.6 4.49a314 314 0 0 1-25.527 1.146c.436 3.437.127 12.219-.782 15.982 2.4-.091 4.364-.254 6.237.327 1.872.582 3.29 1.91 3.745 3.528.636 2.4-.927 4.654-2.636 5.727m-18.51-3.891 1.164 1.164 1.164-1.182a.5.5 0 0 1 .654 0 .5.5 0 0 1 0 .654l-1.181 1.164 1.927 1.927 1.473-1.491-1.491-1.49a.46.46 0 0 1 0-.655.473.473 0 0 1 .636 0l1.51 1.509 1.272-1.273-.164-.181a.44.44 0 0 1 0-.637.44.44 0 0 1 .637 0l.327.327c.09 0 .163.037.236.091.073.073.091.164.11.237l1.181 1.2 1.964-1.982-.218-.218a.44.44 0 0 1 0-.637.44.44 0 0 1 .636 0l.218.219.127-.128a.46.46 0 0 1 .655 0 .44.44 0 0 1 0 .637l-.127.127 1.327 1.327 1.618-1.618-1.6-1.6c-.182-.182-.182-.473 0-.636a.46.46 0 0 1 .655 0l1.636 1.636c.164-.055.346-.055.473.073.127.127.145.309.073.472l.836.837 1.327-1.309c.055-.073.164-.091.255-.109-.364-.909-1.255-1.709-2.455-2.073-.836-.273-1.763-.346-2.709-.346-.51 0-3.71.128-4.254.146-34.873.927-38 .327-39.619 4.164-.818 2.072.655 4.272 2.491 5.109.255.109.564.181.873.254l.545-.563-.254-.273a.44.44 0 0 1 0-.637.44.44 0 0 1 .636 0l.273.273 1.673-1.673a.44.44 0 0 1 .636 0 .44.44 0 0 1 0 .637l-1.673 1.673.473.472c.073.055.09.164.11.255.126-.018.254 0 .38-.018l1.31-1.291-.073-.073a.457.457 0 0 1 .636-.655l.073.073 1.982-1.982a.46.46 0 0 1 .655 0 .44.44 0 0 1 0 .637l-1 1c.163-.055.327-.055.473.072l.745.764 3.309-3.291a.44.44 0 0 1 .636 0 .44.44 0 0 1 0 .637l-1.4 1.4c.091.018.182.036.255.109l1.29 1.309 3.583-3.582a.473.473 0 0 1 .636 0 .46.46 0 0 1 0 .654l-.855.855 1.528 1.527 1.036-1.036-.473-.473c-.181-.163-.181-.454 0-.636a.44.44 0 0 1 .637 0l.473.473 1.072-1.073a.46.46 0 0 1 .655 0c.163.163.163.454 0 .636l-1.073 1.073 1.127 1.127 2.11-2.109-.364-.364a.46.46 0 0 1 0-.654.44.44 0 0 1 .636 0l.382.364.618-.619a.44.44 0 0 1 .636 0 .44.44 0 0 1 0 .637l-.618.636 1.618 1.618 1.837-1.818-1.164-1.164c-.182-.163-.182-.454 0-.636a.44.44 0 0 1 .637 0m.673-19.89 1.364-1.346-.436-.437c-.037-.036-.037-.09-.055-.127a91 91 0 0 0-2.236-.09l.981.963a.5.5 0 0 1 0 .654.5.5 0 0 1-.654 0l-.6-.6-1.764 1.746a.44.44 0 0 1-.636 0 .44.44 0 0 1 0-.637l1.745-1.763-.418-.418c-1.254-.055-2.527-.091-3.8-.146 0-.018-.018-.018-.036-.018l1.545 1.545c.164.164.164.455 0 .637a.46.46 0 0 1-.654 0l-1.6-1.6-2.273 2.29c-.182.164-.473.164-.636 0a.46.46 0 0 1 0-.654l.254-.254-1.218-1.2-1.673 1.672.4.4a.44.44 0 0 1 0 .637.44.44 0 0 1-.636 0l-.4-.4-.255.254a.44.44 0 0 1-.636 0 .44.44 0 0 1 0-.636l.255-.273-2.2-2.182-1.491 1.491 1.109 1.11c.182-.146.436-.164.6.017.182.164.163.419.018.6l.618.619a.44.44 0 0 1 0 .636.46.46 0 0 1-.654 0l-.6-.6-1.255 1.273 1.455 1.454a.474.474 0 0 1 0 .637c-.055.054-.128.054-.2.072.018.019.036.019.054.037a.44.44 0 0 1 0 .636l-2.254 2.255.581.582a.44.44 0 0 1 0 .636c-.181.182-.454.163-.636 0l-.582-.582-.654.655c-.073.072-.164.09-.255.109-.036.581-.09 1.163-.145 1.745l.945.946 1.782-1.8a.46.46 0 0 1 .655 0 .46.46 0 0 1 0 .654l-1.873 1.873a.44.44 0 0 1-.11.382.53.53 0 0 1-.327.127c-.018 0-.036-.018-.054-.036l-1.127 1.127c.018.164.036.327.054.473 14.964-.455 21-.655 29.218-.873.764-2.364 1.4-11.491.91-15.546l-.182.182c0 .127-.019.255-.128.364-.09.09-.2.127-.309.127-.018 0-.036-.018-.036-.018l-.455.455a.46.46 0 0 1-.654 0 .44.44 0 0 1 0-.637l.382-.382-.637-.618h-.236l-.855.855.182.181a.44.44 0 0 1 0 .637.46.46 0 0 1-.654 0l-.164-.182-.491.491a.44.44 0 0 1-.636 0 .44.44 0 0 1 0-.636l.472-.491-.89-.91h-1.073l-.51.51 1.092 1.072a.455.455 0 1 1-.636.655l-1.092-1.09-1.345 1.363a.5.5 0 0 1-.655 0 .46.46 0 0 1 0-.655M115.944 66.6a1980 1980 0 0 1-55.291 1.927 2007 2007 0 0 1-56.164.49c.2 10.8 1.31 14.346 11.691 15 14.146.873 28.218-.036 42.291.728.2.018.382.018.582.018 4.29.236 8.6.327 12.909.364-.055-.164-.055-.328.073-.455l.309-.309-.746-.745a.46.46 0 0 1 0-.655.44.44 0 0 1 .637 0l.745.764 2.346-2.346a.44.44 0 0 1 .636 0 .46.46 0 0 1 0 .655l-2.327 2.327.127.127a.456.456 0 0 1 .018.637h2.618c0-.11.037-.2.11-.291l.127-.11-1.2-1.2a.5.5 0 0 1 0-.654.46.46 0 0 1 .654 0l1.2 1.2 1.273-1.273c-.018-.127 0-.272.11-.363.09-.11.236-.127.363-.11l.4-.4a.44.44 0 0 1 .636 0 .46.46 0 0 1 0 .655l-.309.31.927.908 1.255-1.236c0-.109.036-.236.127-.309a.36.36 0 0 1 .291-.127l.782-.782a.44.44 0 0 1 .636 0 .46.46 0 0 1 0 .654l-.672.655 1.109 1.11 1.545-1.546c-.073-.164-.09-.364.055-.51.145-.145.345-.127.509-.054l.854-.836a.44.44 0 0 1 .637 0 .44.44 0 0 1 0 .636l-.8.8 1.272 1.291 1.91-1.91-.528-.526a.46.46 0 0 1 0-.655.474.474 0 0 1 .636 0l.528.527.636-.618a.44.44 0 0 1 .636 0 .44.44 0 0 1 0 .636l-.618.637 1.237 1.236 1.454-1.454-.563-.582a.44.44 0 0 1 0-.636.44.44 0 0 1 .636 0l.564.563 1.872-1.873a.46.46 0 0 1 .655 0 .46.46 0 0 1 0 .655l-1.873 1.873 1.636 1.636 1.855-1.873-1.145-1.145a.46.46 0 0 1 0-.655.44.44 0 0 1 .636 0l1.164 1.164 2.127-2.127c-.164-.182-.164-.473 0-.637a.44.44 0 0 1 .636 0l2.237-2.236a.46.46 0 0 1 .654 0c.164.164.146.4.018.582l1.509 1.527 1.582-1.582-.8-.8a.44.44 0 0 1 0-.636.44.44 0 0 1 .637 0l.8.8.49-.491a.44.44 0 0 1 .637 0 .44.44 0 0 1 0 .636l-.491.491 1.236 1.237 2.128-2.11-1.2-1.2-.291.31a.46.46 0 0 1-.655 0 .44.44 0 0 1 0-.637l.309-.309-.654-.673a.44.44 0 0 1 0-.636c.163-.182.454-.182.636 0l.655.655 1.781-1.764-.636-.636c-.345.036-.527-.2-.491-.491l-.164-.164a.44.44 0 0 1 0-.636.44.44 0 0 1 .637 0l.091.072 2.163-2.163a.44.44 0 0 1 .637 0 .4.4 0 0 1 .109.236z"/></svg>