<svg width="120" height="120" viewBox="0 0 120 120" fill="none" xmlns="http://www.w3.org/2000/svg">
<path d="M75.2513 40.9269C73.3785 43.5814 73.5058 45.1632 77.2876 45.5814C79.5604 45.836 81.8513 45.9451 84.124 45.9087L83.7785 31.9996C83.7604 31.5451 83.5604 30.1632 83.1058 30.1632C83.1058 30.1632 82.8876 30.0542 82.2695 30.9269L75.2513 40.9269ZM77.0694 47.3996C72.4513 46.8723 70.7604 44.1451 73.7604 39.8905L80.7785 29.8905C82.8513 26.9451 85.5058 28.4542 85.5967 31.9632L85.9422 45.836C88.1785 45.7269 90.4149 45.4723 92.6331 45.0542C93.1058 44.9814 93.5967 45.3087 93.6876 45.7996C93.7785 46.2905 93.4513 46.7633 92.9604 46.8542C90.6513 47.2723 88.324 47.5451 85.9967 47.6542L86.1785 55.2905C86.1967 55.7814 85.7967 56.1996 85.3058 56.2178C85.2876 56.2178 85.2876 56.2178 85.2695 56.2178C84.7785 56.2178 84.3785 55.8178 84.3604 55.3269L84.1785 47.7269C81.8149 47.7632 79.4331 47.6542 77.0694 47.3996Z" fill="black"/>
<path d="M64.3983 74.4542C61.6892 71.3996 56.8892 73.036 56.4346 75.5087C56.1619 76.9451 56.3801 78.3269 56.9983 79.2178C58.2346 80.9633 60.3801 80.3633 62.2528 79.4905C64.8892 78.2905 66.3437 76.636 64.3983 74.4542ZM65.7619 73.236C67.9074 75.6542 67.8164 78.9451 63.0164 81.1451C61.7255 81.7451 60.3983 82.1451 59.1619 82.1451C57.7619 82.1451 56.471 81.6178 55.5255 80.2542C54.6164 78.9814 54.2892 77.0905 54.6346 75.1814C55.0892 72.7269 57.8164 70.9814 60.7074 70.9814C62.4892 70.9814 64.3437 71.6542 65.7619 73.236Z" fill="black"/>
<path d="M67.0181 37.5452C67.1272 40.127 66.9635 43.1816 66.5635 45.527C65.1272 54.2725 54.5817 55.5816 54.0181 45.4361C53.7817 41.1634 54.3999 34.1634 57.4908 31.1452C59.9817 28.7088 66.5635 27.327 67.0181 37.5452ZM64.7817 45.2361C65.1454 42.9997 65.309 40.0906 65.1999 37.6361C64.8544 29.5816 60.5817 30.6725 58.7635 32.4543C56.1272 35.0179 55.6363 41.6725 55.8181 45.327C56.2726 53.4179 63.709 51.6906 64.7817 45.2361Z" fill="black"/>
<path d="M44.489 44.4181C44.8708 39.9454 45.0709 35.4545 45.0527 30.9636C40.7072 35.5999 36.9436 40.3999 33.8527 45.309C37.6163 45.0545 41.4163 44.6726 44.489 44.4181ZM31.3799 45.8363C35.0527 39.7454 39.7436 33.7817 45.289 28.109C45.5436 27.8363 45.9436 27.7635 46.2709 27.8908C46.6163 28.0181 46.8527 28.3454 46.8527 28.7272C46.9436 33.8908 46.7799 39.0908 46.3254 44.2545C47.8527 44.1272 49.4163 44.0363 50.9981 43.9454C51.5436 43.8908 51.9254 44.309 51.9618 44.7999C51.9799 45.309 51.5981 45.7272 51.1072 45.7635C49.4163 45.8545 47.7618 45.9636 46.1436 46.0908C45.889 48.6181 45.5799 51.1272 45.1981 53.6363C45.1254 54.0908 44.7254 54.3999 44.289 54.3999C44.2527 54.3999 44.1981 54.3999 44.1618 54.3999C42.8527 54.1999 43.5799 53.2181 44.3072 46.2545C39.9799 46.6363 36.2345 46.9999 32.2163 47.2181C31.5436 47.2908 30.9981 46.4908 31.3799 45.8363Z" fill="black"/>
<path d="M30.0176 16.3636L27.9449 14.2909L25.2722 16.9818L27.3449 19.0545L30.0176 16.3636ZM15.9267 21.6727L18.2903 19.2909L17.1994 18.2L14.8176 20.5636L15.9267 21.6727ZM11.9994 22.7455C11.8176 22.5636 11.8176 22.2727 11.9994 22.1091L13.5449 20.5636L11.4176 18.4545C11.2358 18.2727 11.2358 17.9818 11.4176 17.8C11.5994 17.6364 11.8722 17.6364 12.054 17.8L14.1813 19.9273L16.5631 17.5455L16.254 17.2364C16.0722 17.0545 16.0722 16.7818 16.254 16.6C16.4176 16.4182 16.7085 16.4182 16.8903 16.6L17.1994 16.9091L23.4722 10.6364C23.654 10.4545 23.9267 10.4545 24.1085 10.6364C24.2903 10.8182 24.2903 11.1091 24.1085 11.2727L21.5267 13.8727L17.8358 17.5455L18.9267 18.6545L19.5267 18.0545C19.7085 17.8727 19.9994 17.8727 20.1813 18.0545C20.3631 18.2182 20.3631 18.5091 20.1813 18.6909L19.5813 19.2909L20.6358 20.3455L23.9812 16.9818L21.5267 14.5273C21.3449 14.3455 21.3449 14.0545 21.5267 13.8727C21.7085 13.7091 21.9994 13.7091 22.1812 13.8727L24.6358 16.3455L27.3085 13.6545L26.9631 13.3091C26.7812 13.1455 26.7812 12.8545 26.9631 12.6727C27.1449 12.4909 27.4358 12.4909 27.6176 12.6727L27.9449 13.0182L28.854 12.1091C29.0176 11.9455 29.3085 11.9455 29.4903 12.1091C29.6722 12.2909 29.6722 12.5818 29.4903 12.7636L28.5994 13.6545L30.6722 15.7273L34.1812 12.2182C34.3449 12.0364 34.6358 12.0364 34.8176 12.2182C34.9994 12.4 34.9994 12.6727 34.8176 12.8545L31.3085 16.3636L33.3267 18.3818L36.1812 15.5455C36.3631 15.3636 36.6358 15.3636 36.8176 15.5455C36.9994 15.7273 36.9994 16 36.8176 16.1818L33.9813 19.0364L35.254 20.3091C35.4176 20.4909 35.4176 20.7636 35.254 20.9455C35.0722 21.1273 34.7813 21.1273 34.5994 20.9455L33.3267 19.6727L32.4176 20.6C32.2358 20.7636 31.9449 20.7636 31.7631 20.6C31.5812 20.4182 31.5812 20.1273 31.7631 19.9455L32.6903 19.0364L30.6722 17.0182L27.9813 19.6909L30.7631 22.4727C30.9449 22.6364 30.9449 22.9273 30.7631 23.1091C30.5813 23.2909 30.2903 23.2909 30.1267 23.1091L27.3449 20.3273L26.6722 21C26.4903 21.1818 26.1994 21.1818 26.0358 21C25.854 20.8364 25.854 20.5455 26.0358 20.3636L26.7085 19.6909L24.6358 17.6364L21.2722 20.9818L23.1812 22.8909L23.8722 22.2C24.054 22.0364 24.3449 22.0364 24.5267 22.2C24.6903 22.3818 24.6903 22.6727 24.5267 22.8545L23.7994 23.5636C24.0358 23.9818 23.654 24.4 23.2176 24.1455L21.2358 26.1273C21.0722 26.3091 20.7812 26.3091 20.5994 26.1273C20.4176 25.9455 20.4176 25.6545 20.5994 25.4909L22.5449 23.5455L20.6358 21.6364L19.5085 22.7455C19.3267 22.9273 19.0358 22.9273 18.8722 22.7455C18.6903 22.5636 18.6903 22.2909 18.8722 22.1091L19.9812 20.9818L18.9449 19.9455L16.5631 22.3091L19.7812 25.5273C19.9631 25.7091 19.9631 26 19.7812 26.1818C19.5994 26.3455 19.3085 26.3455 19.1449 26.1818L15.9267 22.9636L14.8903 23.9818C14.7267 24.1455 14.4358 24.1455 14.254 23.9818C14.0722 23.8 14.0722 23.5091 14.254 23.3273L15.2722 22.3091L14.1813 21.2182L12.6358 22.7455C12.4722 22.9273 12.1812 22.9273 11.9994 22.7455Z" fill="black"/>
<path d="M115.835 67.5813L113.671 69.7268L115.817 71.8723C115.889 70.7632 115.907 69.6177 115.926 68.4541L115.944 67.3268C115.926 67.4177 115.907 67.5086 115.835 67.5813ZM113.653 75.8359L111.544 77.945L113.289 79.6904C114.089 78.6904 114.653 77.5632 115.053 76.3268C115.38 75.3086 115.58 74.1995 115.707 73.0541L114.235 71.5813L112.471 73.3632L113.671 74.5632C113.853 74.3995 114.107 74.3995 114.271 74.5632C114.435 74.745 114.435 74.9995 114.289 75.1813L114.926 75.7995C115.053 75.9268 115.071 76.1268 115.017 76.3086C114.998 76.3632 114.98 76.3995 114.926 76.4541C114.744 76.6359 114.453 76.6359 114.271 76.4541L113.653 75.8359ZM109.326 80.1632L110.689 81.5268C110.762 81.5995 110.78 81.6904 110.798 81.7813C111.489 81.3995 112.107 80.9268 112.671 80.3632L110.907 78.5995L109.326 80.1632ZM109.017 76.7086L107.453 78.2904L108.689 79.5268L110.253 77.945L109.017 76.7086ZM104.526 79.9086L106.162 78.2904L104.653 76.7813L103.035 78.4177L104.526 79.9086ZM104.526 81.1995L102.489 83.2541C102.453 83.2904 102.417 83.2723 102.362 83.2904L102.962 83.8904C105.417 83.6359 107.926 83.1813 110.053 82.1632L108.689 80.8177L107.489 81.9995C107.307 82.1813 107.035 82.1813 106.853 81.9995C106.671 81.8177 106.671 81.5268 106.853 81.345L108.035 80.1632L106.798 78.9268L105.18 80.5632L107.053 82.4359C107.235 82.6177 107.235 82.9086 107.053 83.0723C106.871 83.2541 106.58 83.2541 106.417 83.0723L104.526 81.1995ZM102.38 79.0541L100.253 81.1814L101.798 82.7268C101.817 82.6904 101.798 82.6359 101.835 82.5995L103.889 80.5632L102.38 79.0541ZM101.798 83.9995L99.6166 81.8359L97.7438 83.6904L98.2347 84.1814C98.2529 84.1995 98.2529 84.2359 98.2711 84.2541C99.362 84.1632 100.453 84.1268 101.526 84.0359C101.617 84.0177 101.707 84.0177 101.798 83.9995ZM95.8529 84.3086L96.4711 83.6904L94.8166 82.0541L93.362 83.5086L94.2166 84.3632C94.2711 84.3995 94.2711 84.4723 94.2893 84.5268C94.7984 84.4904 95.2893 84.4541 95.7984 84.4177C95.8166 84.3813 95.8166 84.345 95.8529 84.3086ZM92.7257 84.145L92.1984 84.6723C92.5257 84.6541 92.8529 84.6177 93.1802 84.5995L92.7257 84.145ZM88.3257 84.8541L88.2893 84.8177L88.2711 84.8541H88.3257ZM90.8529 82.2723L88.9438 84.1814L89.4711 84.7086C89.4893 84.745 89.4893 84.7813 89.5075 84.8177C89.962 84.7813 90.4348 84.7813 90.8893 84.7632C90.9075 84.7268 90.9075 84.6904 90.9257 84.6541L92.0893 83.5086L90.8529 82.2723ZM86.3802 82.8904L84.8711 84.3995L85.0529 84.5814C85.1438 84.6904 85.1802 84.8177 85.162 84.9632C85.7984 84.9268 86.4348 84.9086 87.0711 84.8904C87.0893 84.8177 87.1075 84.7268 87.162 84.6541L87.6529 84.1814L86.3802 82.8904ZM58.2893 113.8C58.2166 113.872 58.1257 113.89 58.0348 113.909L57.7984 114.145C59.1802 114.072 60.5438 114 61.9075 113.909C61.7438 113.727 61.7438 113.454 61.9075 113.29L62.2711 112.927L60.6529 111.29L58.3984 113.563C58.3802 113.654 58.362 113.745 58.2893 113.8ZM54.5257 86.3995C54.5075 86.4904 54.4893 86.5814 54.4166 86.6541H54.3984L55.6166 87.8723L56.9802 86.5086C56.162 86.4541 55.3438 86.4359 54.5257 86.3995ZM55.1075 113.981C54.9257 114.163 54.6529 114.163 54.4711 113.981L54.4348 113.963L54.0893 114.309C54.8711 114.29 55.6711 114.236 56.4529 114.2L57.2529 113.418L56.1257 112.272L55.0893 113.309L55.1075 113.345C55.2893 113.509 55.2893 113.8 55.1075 113.981ZM43.1802 114.418L42.6166 113.854L42.0166 114.454C42.4166 114.436 42.7984 114.436 43.1802 114.418ZM39.1257 114.509L39.0711 114.454L39.0166 114.509H39.1257ZM4.45293 67.1814C41.4893 67.3995 78.9984 66.5814 115.962 64.7813L116.362 21.0359C116.453 11.2723 114.307 7.27225 101.017 7.01771L22.2529 5.50862C8.0893 5.21771 3.3802 8.90862 3.65293 23.8904L4.45293 67.1814ZM50.3802 114.036C50.4711 114.127 50.5075 114.254 50.4893 114.381C51.3438 114.381 52.1802 114.363 53.0166 114.327C53.0166 114.2 53.0348 114.072 53.1438 113.981L53.7984 113.309L52.2711 111.781L50.1984 113.854L50.3802 114.036ZM49.3984 86.2723L51.4529 88.3268L53.1257 86.6541L52.9802 86.5268C52.9257 86.4723 52.9257 86.3995 52.9075 86.345C51.7438 86.3086 50.562 86.2904 49.3984 86.2723ZM45.4711 86.6177L46.4893 87.6359L47.8711 86.2541C47.0711 86.2541 46.2893 86.2359 45.4893 86.2359C45.4893 86.3632 45.4711 86.4904 45.4711 86.6177ZM46.1075 113.709L46.6348 114.236C46.6893 114.272 46.6893 114.345 46.7075 114.418H48.362L48.9257 113.854L47.6166 112.545C47.5438 112.49 47.5257 112.4 47.5075 112.309L46.1075 113.709ZM44.962 92.6359L45.6711 91.9268L45.0711 91.3268C45.0348 91.7632 44.9984 92.1995 44.962 92.6359ZM45.8348 88.2723L45.362 87.7995C45.2893 88.5995 45.2348 89.4177 45.162 90.2177C45.2166 90.2359 45.2711 90.2359 45.3075 90.2723L46.3075 91.2723L47.5802 90.0177L46.4893 88.9268L46.3438 89.0723C46.162 89.2359 45.8711 89.2359 45.6893 89.0723C45.5257 88.8904 45.5257 88.5995 45.6893 88.4177L45.8348 88.2723ZM45.4166 114.418H45.5257L45.4711 114.345L45.4166 114.418ZM44.7438 96.9995L44.5984 96.8723C44.5984 96.9813 44.5802 97.0723 44.5802 97.1632L44.7438 96.9995ZM46.3075 92.5632L44.8348 94.0359C44.7984 94.5814 44.7438 95.145 44.7075 95.6904L45.3802 96.3632L47.6166 94.1268C47.6711 94.0723 47.7438 94.0723 47.8166 94.0359C47.7984 94.0359 47.7802 94.0359 47.762 94.0177L46.3075 92.5632ZM44.6166 101.745L44.2348 101.363C44.2166 101.636 44.2166 101.89 44.1984 102.163L44.6166 101.745ZM43.9984 112.472L43.2529 113.218L43.9802 113.945C44.1075 114.072 44.1075 114.236 44.0529 114.4H44.4711C44.4347 114.254 44.4348 114.09 44.562 113.981L44.8348 113.709L44.0711 112.945C43.9438 112.818 43.9438 112.636 43.9984 112.472ZM81.3257 84.4541L81.6893 84.7995C81.762 84.8723 81.7802 84.9814 81.7984 85.0723C82.5802 85.0541 83.3802 85.0177 84.162 84.9995L82.4711 83.3086L81.3257 84.4541ZM80.6711 85.1086H80.7075L80.6893 85.0904L80.6711 85.1086ZM78.2711 85.1268C78.762 85.1268 79.2711 85.145 79.762 85.1268C79.7075 84.9632 79.7075 84.7995 79.8348 84.6723L80.0529 84.4541L79.1257 83.5268L77.9257 84.7268L78.2166 84.9995C78.2529 85.0359 78.2529 85.0904 78.2711 85.1268ZM76.4348 112.472C78.2711 112.236 80.1984 112.036 81.7438 111.036V111.018C82.7438 110.4 83.5984 109.272 83.6711 108.09L81.1802 110.581C81.0166 110.763 80.7257 110.763 80.5438 110.581C80.362 110.4 80.362 110.109 80.5438 109.945L81.3075 109.181L80.5257 108.4L78.8893 110.018L79.5802 110.69C79.762 110.872 79.762 111.163 79.5802 111.345C79.3984 111.509 79.1075 111.509 78.9257 111.345L78.2529 110.654L76.4348 112.472ZM74.3075 110.654L75.6348 111.981L77.6166 110.018L76.2711 108.69L74.3075 110.654ZM72.8711 85.1268H73.1257L72.9984 84.9995L72.8711 85.1268ZM72.3802 112.581L72.7257 112.927C73.5075 112.836 74.2711 112.745 75.0166 112.654L73.6711 111.309L72.3802 112.581ZM71.9984 109.618L70.7075 110.89L71.7438 111.927L73.0166 110.654L71.9984 109.618ZM70.8893 86.945C70.7257 86.945 70.562 86.9268 70.3984 86.9268L70.6348 87.1814L70.8893 86.945ZM70.0711 111.545L68.4166 113.2C68.3802 113.254 68.3802 113.327 68.3257 113.381C69.2893 113.29 70.2347 113.2 71.162 113.09C71.0348 112.945 71.0529 112.763 71.1257 112.6L70.0711 111.545ZM67.3075 113.018L65.3802 111.09L62.6348 113.854C65.162 113.672 63.9075 113.8 66.8893 113.527C66.9075 113.472 66.9075 113.418 66.9438 113.381L67.3075 113.018ZM82.7257 112.545C77.8893 115.709 39.6529 117.236 36.2529 115.763C33.6348 114.581 31.5984 111.4 32.8348 108.309C34.362 104.672 38.5075 104.036 42.4529 103.963C42.2529 102.054 43.362 89.7632 43.6711 86.2359C34.2711 86.2177 25.2711 86.3995 16.0711 85.8177C3.99839 85.0723 2.87111 80.1632 2.65293 68.2177C2.65293 68.1814 2.63475 68.145 2.63475 68.0904C2.63475 68.0541 2.65293 68.0359 2.65293 67.9995L1.83475 23.9086C1.54384 7.67225 7.25293 3.39953 22.2893 3.69044L101.053 5.19953C115.217 5.47225 118.271 10.0723 118.18 21.0541L117.744 68.4723C117.707 73.145 117.398 77.9995 114.289 81.345C111.126 84.7632 106.126 85.4541 101.689 85.8359C93.2348 86.5632 84.7075 86.945 76.162 86.9813C76.5984 90.4177 76.2893 99.1995 75.3802 102.963C77.7802 102.872 79.7438 102.709 81.6166 103.29C83.4893 103.872 84.9075 105.2 85.362 106.818C85.9984 109.218 84.4348 111.472 82.7257 112.545ZM64.2166 108.654L65.3802 109.818L66.5438 108.636C66.7257 108.472 67.0166 108.472 67.1984 108.636C67.362 108.818 67.362 109.109 67.1984 109.29L66.0166 110.454L67.9438 112.381L69.4166 110.89L67.9257 109.4C67.7438 109.218 67.7438 108.927 67.9257 108.745C68.1075 108.581 68.3802 108.581 68.562 108.745L70.0711 110.254L71.3438 108.981L71.1802 108.8C70.9984 108.636 70.9984 108.345 71.1802 108.163C71.362 107.981 71.6348 107.981 71.8166 108.163L72.1438 108.49C72.2348 108.49 72.3075 108.527 72.3802 108.581C72.4529 108.654 72.4711 108.745 72.4893 108.818L73.6711 110.018L75.6348 108.036L75.4166 107.818C75.2347 107.636 75.2347 107.363 75.4166 107.181C75.5984 107 75.8711 107 76.0529 107.181L76.2711 107.4L76.3984 107.272C76.5802 107.09 76.8711 107.09 77.0529 107.272C77.2348 107.454 77.2348 107.745 77.0529 107.909L76.9257 108.036L78.2529 109.363L79.8711 107.745L78.2711 106.145C78.0893 105.963 78.0893 105.672 78.2711 105.509C78.4529 105.327 78.7438 105.327 78.9257 105.509L80.562 107.145C80.7257 107.09 80.9075 107.09 81.0348 107.218C81.162 107.345 81.1802 107.527 81.1075 107.69L81.9438 108.527L83.2711 107.218C83.3257 107.145 83.4348 107.127 83.5257 107.109C83.162 106.2 82.2711 105.4 81.0711 105.036C80.2348 104.763 79.3075 104.69 78.362 104.69C77.8529 104.69 74.6529 104.818 74.1075 104.836C39.2347 105.763 36.1075 105.163 34.4893 109C33.6711 111.072 35.1438 113.272 36.9802 114.109C37.2348 114.218 37.5438 114.29 37.8529 114.363L38.3984 113.8L38.1438 113.527C37.962 113.363 37.962 113.072 38.1438 112.89C38.3075 112.709 38.5984 112.709 38.7802 112.89L39.0529 113.163L40.7257 111.49C40.9075 111.309 41.1802 111.309 41.362 111.49C41.5438 111.672 41.5438 111.945 41.362 112.127L39.6893 113.8L40.162 114.272C40.2348 114.327 40.2529 114.436 40.2711 114.527C40.3984 114.509 40.5257 114.527 40.6529 114.509L41.962 113.218L41.8893 113.145C41.7075 112.963 41.7075 112.672 41.8893 112.49C42.0529 112.327 42.3438 112.309 42.5257 112.49L42.5984 112.563L44.5802 110.581C44.762 110.4 45.0529 110.4 45.2347 110.581C45.4166 110.763 45.4166 111.054 45.2347 111.218L44.2348 112.218C44.3984 112.163 44.562 112.163 44.7075 112.29L45.4529 113.054L48.762 109.763C48.9438 109.581 49.2166 109.581 49.3984 109.763C49.5802 109.945 49.5802 110.236 49.3984 110.4L47.9984 111.8C48.0893 111.818 48.1802 111.836 48.2529 111.909L49.5438 113.218L53.1257 109.636C53.3075 109.472 53.5802 109.472 53.762 109.636C53.9438 109.818 53.9438 110.109 53.762 110.29L52.9075 111.145L54.4348 112.672L55.4711 111.636L54.9984 111.163C54.8166 111 54.8166 110.709 54.9984 110.527C55.1802 110.345 55.4711 110.345 55.6348 110.527L56.1075 111L57.1802 109.927C57.362 109.745 57.6529 109.745 57.8348 109.927C57.9984 110.09 57.9984 110.381 57.8348 110.563L56.762 111.636L57.8893 112.763L59.9984 110.654L59.6348 110.29C59.4529 110.109 59.4529 109.818 59.6348 109.636C59.8166 109.454 60.1075 109.454 60.2711 109.636L60.6529 110L61.2711 109.381C61.4529 109.2 61.7438 109.2 61.9075 109.381C62.0893 109.563 62.0893 109.854 61.9075 110.018L61.2893 110.654L62.9075 112.272L64.7438 110.454L63.5802 109.29C63.3984 109.127 63.3984 108.836 63.5802 108.654C63.762 108.472 64.0529 108.472 64.2166 108.654ZM64.8893 88.7632L66.2529 87.4177L65.8166 86.9813C65.7802 86.945 65.7802 86.8904 65.762 86.8541C65.0166 86.8177 64.2711 86.7813 63.5257 86.7632L64.5075 87.7268C64.6711 87.9086 64.6711 88.1995 64.5075 88.3813C64.3257 88.545 64.0348 88.545 63.8529 88.3813L63.2529 87.7813L61.4893 89.5268C61.3075 89.7086 61.0166 89.7086 60.8529 89.5268C60.6711 89.345 60.6711 89.0541 60.8529 88.8904L62.5984 87.1268L62.1802 86.7086C60.9257 86.6541 59.6529 86.6177 58.3802 86.5632C58.3802 86.545 58.362 86.545 58.3438 86.545L59.8893 88.0904C60.0529 88.2541 60.0529 88.545 59.8893 88.7268C59.7075 88.9086 59.4166 88.9086 59.2348 88.7268L57.6348 87.1268L55.362 89.4177C55.1802 89.5814 54.8893 89.5814 54.7257 89.4177C54.5438 89.2359 54.5438 88.945 54.7257 88.7632L54.9802 88.5086L53.762 87.3086L52.0893 88.9813L52.4893 89.3813C52.6711 89.545 52.6711 89.8359 52.4893 90.0177C52.3257 90.1995 52.0348 90.1995 51.8529 90.0177L51.4529 89.6177L51.1984 89.8723C51.0166 90.0541 50.7257 90.0541 50.562 89.8723C50.3802 89.6904 50.3802 89.3995 50.562 89.2359L50.8166 88.9632L48.6166 86.7813L47.1257 88.2723L48.2348 89.3813C48.4166 89.2359 48.6711 89.2177 48.8348 89.3995C49.0166 89.5632 48.9984 89.8177 48.8529 89.9995L49.4711 90.6177C49.6529 90.7995 49.6529 91.0904 49.4711 91.2541C49.2893 91.4359 48.9984 91.4359 48.8166 91.2541L48.2166 90.6541L46.962 91.9268L48.4166 93.3813C48.5802 93.5632 48.5802 93.8359 48.4166 94.0177C48.362 94.0723 48.2893 94.0723 48.2166 94.0904C48.2348 94.1086 48.2529 94.1086 48.2711 94.1268C48.4529 94.2904 48.4529 94.5813 48.2711 94.7632L46.0166 97.0177L46.5984 97.5995C46.7802 97.7632 46.7802 98.0541 46.5984 98.2359C46.4166 98.4177 46.1438 98.3995 45.962 98.2359L45.3802 97.6541L44.7257 98.3086C44.6529 98.3813 44.562 98.3995 44.4711 98.4177C44.4347 98.9995 44.3802 99.5814 44.3257 100.163L45.2711 101.109L47.0529 99.3086C47.2347 99.1268 47.5257 99.1268 47.7075 99.3086C47.8893 99.4904 47.8893 99.7813 47.7075 99.9632L45.8348 101.836C45.8529 101.963 45.8348 102.109 45.7257 102.218C45.6348 102.29 45.5257 102.345 45.3984 102.345C45.3802 102.345 45.362 102.327 45.3438 102.309L44.2166 103.436C44.2348 103.6 44.2529 103.763 44.2711 103.909C59.2348 103.454 65.2711 103.254 73.4893 103.036C74.2529 100.672 74.8893 91.545 74.3984 87.4904L74.2166 87.6723C74.2166 87.7995 74.1984 87.9268 74.0893 88.0359C73.9984 88.1268 73.8893 88.1632 73.7802 88.1632C73.762 88.1632 73.7438 88.145 73.7438 88.145L73.2893 88.5995C73.1075 88.7813 72.8166 88.7813 72.6348 88.5995C72.4529 88.4177 72.4529 88.145 72.6348 87.9632L73.0166 87.5813L72.3802 86.9632C72.3075 86.9632 72.2166 86.9632 72.1438 86.9632L71.2893 87.8177L71.4711 87.9995C71.6529 88.1632 71.6529 88.4541 71.4711 88.6359C71.2893 88.8177 70.9984 88.8177 70.8166 88.6359L70.6529 88.4541L70.162 88.945C69.9802 89.1268 69.6893 89.1268 69.5257 88.945C69.3438 88.7813 69.3438 88.4904 69.5257 88.3086L69.9984 87.8177L69.1075 86.9086C68.7438 86.9086 68.3984 86.9086 68.0348 86.9086L67.5257 87.4177L68.6166 88.4904C68.7984 88.6723 68.7984 88.9632 68.6166 89.145C68.4348 89.3268 68.1438 89.3086 67.9802 89.145L66.8893 88.0541L65.5438 89.4177C65.362 89.5814 65.0711 89.5814 64.8893 89.4177C64.7075 89.2359 64.7075 88.945 64.8893 88.7632ZM115.944 66.5995C97.362 67.5086 78.9075 68.145 60.6529 68.5268C41.7075 68.9632 22.962 69.1086 4.4893 69.0177C4.6893 79.8177 5.79839 83.3632 16.1802 84.0177C30.3257 84.8904 44.3984 83.9814 58.4711 84.745C58.6711 84.7632 58.8529 84.7632 59.0529 84.7632C63.3438 84.9995 67.6529 85.0904 71.962 85.1268C71.9075 84.9632 71.9075 84.7995 72.0348 84.6723L72.3438 84.3632L71.5984 83.6177C71.4166 83.4359 71.4166 83.145 71.5984 82.9632C71.762 82.7813 72.0529 82.7813 72.2347 82.9632L72.9802 83.7268L75.3257 81.3813C75.5075 81.1995 75.7802 81.1995 75.962 81.3813C76.1438 81.5632 76.1438 81.8541 75.962 82.0359L73.6348 84.3632L73.762 84.4904C73.9438 84.6723 73.9438 84.945 73.7802 85.1268H76.3984C76.3984 85.0177 76.4348 84.9268 76.5075 84.8359L76.6348 84.7268L75.4348 83.5268C75.2711 83.345 75.2711 83.0541 75.4348 82.8723C75.6166 82.6904 75.9075 82.6904 76.0893 82.8723L77.2893 84.0723L78.562 82.7995C78.5438 82.6723 78.562 82.5268 78.6711 82.4359C78.762 82.3268 78.9075 82.3086 79.0348 82.3268L79.4348 81.9268C79.5984 81.745 79.8893 81.745 80.0711 81.9268C80.2529 82.1086 80.2529 82.3995 80.0711 82.5813L79.762 82.8904L80.6893 83.7995L81.9438 82.5632C81.9438 82.4541 81.9802 82.3268 82.0711 82.2541C82.1438 82.1632 82.2529 82.1268 82.362 82.1268L83.1438 81.345C83.3257 81.1632 83.6166 81.1632 83.7802 81.345C83.962 81.5268 83.962 81.8177 83.7802 81.9995L83.1075 82.6541L84.2166 83.7632L85.762 82.2177C85.6893 82.0541 85.6711 81.8541 85.8166 81.7086C85.962 81.5632 86.162 81.5814 86.3257 81.6541L87.1802 80.8177C87.3438 80.6359 87.6348 80.6359 87.8166 80.8177C87.9984 80.9814 87.9984 81.2723 87.8166 81.4541L87.0166 82.2541L88.2893 83.545L90.1984 81.6359L89.6711 81.1086C89.4893 80.9268 89.4893 80.6359 89.6711 80.4541C89.8529 80.2904 90.1257 80.2904 90.3075 80.4541L90.8348 80.9814L91.4711 80.3632C91.6529 80.1814 91.9257 80.1814 92.1075 80.3632C92.2893 80.545 92.2893 80.8359 92.1075 80.9995L91.4893 81.6359L92.7257 82.8723L94.1802 81.4177L93.6166 80.8359C93.4348 80.6541 93.4348 80.3632 93.6166 80.1995C93.7802 80.0177 94.0711 80.0177 94.2529 80.1995L94.8166 80.7632L96.6893 78.8904C96.8711 78.7086 97.162 78.7086 97.3438 78.8904C97.5257 79.0723 97.5257 79.3632 97.3438 79.545L95.4711 81.4177L97.1075 83.0541L98.962 81.1814L97.8166 80.0359C97.6348 79.8541 97.6348 79.5632 97.8166 79.3813C97.9984 79.1995 98.2711 79.1995 98.4529 79.3813L99.6166 80.545L101.744 78.4177C101.58 78.2359 101.58 77.945 101.744 77.7813C101.926 77.5995 102.198 77.5995 102.38 77.7813L104.617 75.545C104.798 75.3632 105.089 75.3632 105.271 75.545C105.435 75.7086 105.417 75.945 105.289 76.1268L106.798 77.6541L108.38 76.0723L107.58 75.2723C107.398 75.0904 107.398 74.8177 107.58 74.6359C107.762 74.4541 108.035 74.4541 108.217 74.6359L109.017 75.4359L109.507 74.945C109.689 74.7632 109.962 74.7632 110.144 74.945C110.326 75.1268 110.326 75.4177 110.144 75.5813L109.653 76.0723L110.889 77.3086L113.017 75.1995L111.817 73.9995L111.526 74.3086C111.344 74.4904 111.053 74.4904 110.871 74.3086C110.689 74.1268 110.689 73.8359 110.871 73.6723L111.18 73.3632L110.526 72.6904C110.344 72.5268 110.344 72.2359 110.526 72.0541C110.689 71.8723 110.98 71.8723 111.162 72.0541L111.817 72.7086L113.598 70.945L112.962 70.3086C112.617 70.345 112.435 70.1086 112.471 69.8177L112.307 69.6541C112.126 69.4723 112.126 69.1813 112.307 69.0177C112.489 68.8359 112.78 68.8359 112.944 69.0177L113.035 69.0904L115.198 66.9268C115.362 66.745 115.653 66.745 115.835 66.9268C115.907 66.9995 115.926 67.0723 115.944 67.1632V66.5995Z" fill="black"/>
</svg>
