<svg xmlns="http://www.w3.org/2000/svg" width="48" height="48" fill="none" viewBox="0 0 48 48"><path fill="#000" d="m14.16 41.356 18.962.515c3.698.094 5.113-1.002 4.957-5.031l-.867-22.542a.37.37 0 0 0-.062-.19c-.79-1.16-4.858-6.923-6.016-7.707a.359.359 0 0 0-.67-.078 170 170 0 0 0-16.89.289c-2.574.173-3.222 1.057-3.272 3.257 0 0-.01 2.251-.392 27.227-.045 3.005.837 4.167 4.25 4.26M32.545 13.09l.441.442-.548.548-.568-.568.673-.673a.18.18 0 0 0 .002.252m-.365 1.248-.029.029c-.024.024-.027.055-.035.086a3.6 3.6 0 0 1-.946-.242l.442-.441zm.613.166a.18.18 0 0 0-.049-.117l-.05-.05.549-.548.502.502c-.04.069-.042.154.017.214.01.01.026.008.037.015q-.504.016-1.006-.016m.707-.972.45-.45.49.49-.45.45zm.902.966a.18.18 0 0 0-.045-.11l-.11-.11.45-.45.46.461a.182.182 0 1 0 .258-.257l-.46-.462.553-.553c.27.386.538.77.794 1.143-.62.165-1.256.284-1.9.338m.895-1.783-.6.6-.489-.49.007-.007a.182.182 0 1 0-.257-.258l-.007.008-.088-.088a.182.182 0 1 0-.257.258l.087.087-.45.45-.442-.441a.18.18 0 0 0-.251-.002l.404-.405a.182.182 0 1 0-.257-.257l-1.085 1.085-.344-.343c-.168-.17-.427.086-.257.257l.343.343-.512.512c-.89-.632-.72-1.822-.524-2.905L31 7.317c1.57 1.699 3.014 3.587 4.296 5.397m-24.66 24.392c.381-24.952.392-27.22.392-27.22.04-1.77.36-2.4 2.594-2.548a168 168 0 0 1 16.689-.296l-.708 3.947c-.549 3.049.345 4.276 3.864 4.276 1.025 0 2.052-.14 3.038-.403l.847 22.003c.13 3.386-.738 4.382-4.211 4.276l-18.962-.515c-3.008-.08-3.584-.915-3.543-3.52"/><path fill="#000" d="M16.193 23.136c.041.062.063.101.184.14 1.435 1.1 3.19 1.77 5.01 1.848 1.515.067 3.092-.286 4.36-1.117 1.048-.688 1.91-1.707 2.495-2.947 1.237-2.624.965-5.856-.696-8.235-2.3-3.297-7.014-4.654-10.879-2.4-4.95 2.888-4.327 8.006-2.005 11.133a8.7 8.7 0 0 0 1.53 1.578m5.014-5.578c1.112 1.21 2.349 2.5 3.713 3.686.005.008.003.017.01.023.008.008.02.006.03.012q.38.33.775.647l-.573.573-.396-.396.167-.167a.182.182 0 1 0-.257-.258l-.168.168-.42-.42a.182.182 0 1 0-.257.258l.42.42-.525.526-.68-.681a.182.182 0 1 0-.257.257l.68.681-.683.683-.891-.892.9-.9a.182.182 0 1 0-.256-.258l-.901.901-.367-.367a.182.182 0 1 0-.257.258l.367.366-.892.892-.734-.735 1.461-1.46a.182.182 0 1 0-.257-.257l-1.462 1.46-.367-.368a.182.182 0 1 0-.258.258l.368.367-.825.825a8.3 8.3 0 0 1-1.358-.776c1.598-1.512 2.991-3.299 4.15-5.326m6.339-3.264c.452.957.691 2.003.72 3.058-.006-.011-.004-.025-.014-.034a.18.18 0 0 0-.257 0l-.274.274-.237-.237a.182.182 0 1 0-.258.257l.237.237-.237.237a.182.182 0 1 0 .258.258l.237-.237.483.483a7.4 7.4 0 0 1-.3 1.339c-.004-.006-.003-.015-.008-.02l-.675-.676.2-.2c.17-.17-.086-.428-.257-.258l-.2.2-.159-.158a.18.18 0 0 0-.257 0 .18.18 0 0 0 0 .257l.159.159-.808.808c-.064-.024-.135-.022-.186.029-.052.051-.053.122-.03.186l-.362.363c-1.346-1.178-2.578-2.461-3.677-3.661l5.899-2.662zm.708 3.83-.275-.275.274-.274c.012-.011.01-.029.018-.043q.002.295-.017.592m-2.077 2.153.787-.787.5.5-.002.002-.786.785zm-1.797 3.006-.396-.396.526-.526.395.396zm-4.462.86c-.009.008-.007.021-.013.031a8 8 0 0 1-1.137-.352l.73-.73.735.735zm.572-.059.245.245a8 8 0 0 1-.422-.067zm.704.291a.18.18 0 0 0-.046-.148l-.401-.4.892-.892.891.892-.263.263a.18.18 0 0 0 0 .258c.017.016.04.016.061.025-.727.056-.795.027-1.134.002m1.593-.29.198.197c-.171.03-.337.07-.512.087.017-.01.037-.008.05-.021zm2.56-.686c-.581.381-1.26.65-1.986.817a.18.18 0 0 0-.051-.124l-.266-.265.683-.683.427.427a.17.17 0 0 0 .045.149c.05.049.088.052.15.045.04.041.078.068.143.068a.18.18 0 0 0 .13-.053c.064-.065.062-.163.009-.234l1.395-1.395q.2.156.404.308c-.331.358-.689.681-1.083.94m1.545-1.507c-.443-.33-.88-.67-1.3-1.029l.329-.33.51.51c-.046.071-.048.162.014.224.06.06.133.073.223.014l.22.219a.182.182 0 1 0 .257-.258l-.209-.209.785-.785c.012-.012.01-.03.019-.043.01.002.02.012.03.012s.018-.01.029-.011c-.069.182-.13.367-.212.544-.198.414-.436.789-.695 1.142m.057-8.65c.092.132.165.275.248.412l-5.774 2.605-.63-6.23c2.41.014 4.771 1.228 6.156 3.212m-9.916-2.188a7.5 7.5 0 0 1 3.032-.99l.667 6.587c-.02.035-.043.069-.05.109a.36.36 0 0 0 .032.218c-1.17 2.096-2.597 3.927-4.238 5.46a8 8 0 0 1-1.23-1.313c-2.03-2.732-2.818-7.385 1.787-10.07M26.065 29.259a.364.364 0 0 0 0-.728H13.938a.364.364 0 0 0 0 .728zM13.428 31.888c0 .2.163.364.363.364h19.426a.364.364 0 0 0 0-.728H13.79c-.2 0-.363.163-.363.364M14.23 35.83h18.842a.364.364 0 0 0 0-.727H14.231a.364.364 0 0 0 0 .727M33.098 37.95H14.303a.364.364 0 0 0 0 .727h18.795a.364.364 0 0 0 0-.727"/></svg>