<svg width="32" height="32" viewBox="0 0 32 32" fill="none" xmlns="http://www.w3.org/2000/svg">
<path d="M24.674 21.1224L26.7565 21.134C27.908 21.134 28.3657 20.783 28.3972 19.519L28.4675 16.654C28.5077 14.9842 27.5439 15.2751 26.3948 15.3085C23.8042 15.3813 23.3048 15.8205 23.3126 17.2285L23.3262 19.8307C23.3305 20.7282 23.6306 21.1161 24.674 21.1224ZM26.4079 15.7934C27.5788 15.7595 28.0108 15.4719 27.9822 16.6424L27.9119 19.5078C27.8886 20.479 27.6602 20.6506 26.7589 20.6492L24.6765 20.6375C23.9143 20.6336 23.8134 20.4605 23.81 19.8278L23.7965 17.1995C23.7921 16.2894 23.8367 15.8661 26.4079 15.7934Z" fill="#1A1A1A"/>
<path d="M24.6743 28.1069L26.7567 28.1185H26.8047C27.9684 28.1185 28.3679 27.6894 28.3974 26.5035L28.4677 23.6385C28.508 21.9667 27.5397 22.2601 26.395 22.293C25.2993 22.3236 23.7987 22.3663 23.4287 23.2947C23.3094 23.5934 23.3114 23.9086 23.3128 24.213L23.3264 26.8152C23.3308 27.7122 23.6309 28.1001 24.6743 28.1069ZM23.8782 23.4741C24.1303 22.8419 25.501 22.8031 26.4081 22.7774C27.5766 22.7435 28.011 22.455 27.9824 23.6264L27.9121 26.4918C27.8888 27.4693 27.6532 27.6356 26.7591 27.6332L24.6767 27.6215C23.9145 27.6177 23.8137 27.4441 23.8103 26.8118L23.7967 24.1835C23.7957 23.9386 23.7943 23.6855 23.8782 23.4741Z" fill="#1A1A1A"/>
<path d="M16.4572 13.6794L18.2303 13.7318C19.3023 13.758 19.8463 13.4035 19.7959 11.8792L19.7188 9.49857C19.6751 8.14294 19.0191 8.37567 17.9665 8.32718C17.0608 8.28694 15.3954 8.17688 15.3852 9.62076L15.3653 12.4586C15.3595 13.2935 15.6136 13.6547 16.4572 13.6794ZM15.8851 12.8789C15.855 12.7572 15.8492 12.6103 15.8502 12.462L15.8541 11.8714L16.3733 12.3907L15.8851 12.8789ZM15.8633 10.6457L16.0713 10.8537L15.8604 11.0646L15.8633 10.6457ZM19.2344 9.51458L19.3115 11.8947C19.3527 13.1534 19.0046 13.2736 18.2444 13.2469L16.4713 13.1946C16.2895 13.1892 16.1212 13.1732 16.0131 13.0937L16.545 12.5618L16.5561 12.573C16.6036 12.6205 16.6802 12.6205 16.7278 12.573C16.7753 12.5255 16.7753 12.4489 16.7278 12.4014L16.7166 12.3902L17.3401 11.7667C17.3876 11.7192 17.3876 11.6426 17.3401 11.5951C17.2926 11.5475 17.216 11.5475 17.1685 11.5951L16.545 12.2186L16.0015 11.6751C15.9612 11.6348 15.9025 11.6363 15.856 11.6644L15.8589 11.2435C15.9122 11.2925 15.9825 11.2848 16.0257 11.2416L16.2424 11.0249L16.7646 11.5471C16.8121 11.5946 16.8887 11.5946 16.9362 11.5471C16.9838 11.4995 16.9838 11.4229 16.9362 11.3754L16.4141 10.8532L16.8388 10.4285C16.8863 10.381 16.8863 10.3044 16.8388 10.2569C16.7913 10.2094 16.7147 10.2094 16.6676 10.2569L16.2429 10.6816L15.8657 10.3044L15.8705 9.62318C15.8715 9.48548 15.9011 9.37397 15.9462 9.27603L16.1076 9.43748L16.0965 9.44864C16.049 9.49615 16.049 9.57276 16.0965 9.62027C16.144 9.66779 16.2206 9.66779 16.2681 9.62027L16.2793 9.60912L16.9634 10.2932C17.0109 10.3408 17.0875 10.3408 17.135 10.2932C17.1825 10.2457 17.1825 10.1691 17.135 10.1216L16.4509 9.43748L16.8815 9.00694C16.9076 8.98076 16.9159 8.94633 16.9135 8.91239L17.5166 9.51554C17.4836 9.56257 17.4822 9.62609 17.5244 9.66876C17.5719 9.71627 17.6485 9.71627 17.6955 9.66876L17.7343 9.62997C17.7508 9.62415 17.7687 9.62318 17.7818 9.61009C17.7949 9.597 17.7959 9.57906 17.8017 9.56257L18.2992 9.06512L18.8044 9.57033C18.8519 9.61785 18.9285 9.61785 18.976 9.57033C19.0235 9.52282 19.0235 9.44621 18.976 9.3987L18.4708 8.89348L18.5411 8.82318C19.0259 8.81397 19.2092 8.749 19.2344 9.51458ZM16.0887 9.07676C16.2376 8.94536 16.4587 8.87409 16.7118 8.83579C16.7113 8.83627 16.7103 8.83627 16.7093 8.83676L16.2788 9.2673L16.0887 9.07676ZM17.9452 8.81154C17.9811 8.813 18.0136 8.81397 18.049 8.81542L18.1275 8.89445L17.6819 9.34003L17.1408 8.79894C17.3086 8.79361 17.3217 8.78342 17.9452 8.81154Z" fill="#1A1A1A"/>
<path d="M10.8951 13.6795L12.6682 13.7319C13.7431 13.7581 14.2842 13.4007 14.2337 11.8793L14.1566 9.49867C14.113 8.14352 13.457 8.37576 12.4044 8.32728C9.33144 8.19055 9.82744 9.03419 9.80319 12.4587C9.79738 13.2936 10.0514 13.6548 10.8951 13.6795ZM10.3433 12.9527C10.2924 12.8218 10.2871 12.641 10.2885 12.4621L10.2929 11.8255L10.8815 12.4141L10.3433 12.9527ZM13.6723 9.51467L13.7494 11.8948C13.7906 13.1539 13.442 13.2737 12.6822 13.247L10.9091 13.1947C10.7579 13.1903 10.6139 13.1801 10.5072 13.1312L11.0711 12.5673C11.1108 12.5755 11.1375 12.5842 11.1802 12.5416C11.2102 12.5115 11.2141 12.4713 11.2059 12.4325L11.936 11.7023C11.9836 11.6548 11.9836 11.5782 11.936 11.5307C11.8885 11.4832 11.8119 11.4832 11.7644 11.5307L11.0526 12.2424L10.3399 11.5297C10.3273 11.5171 10.3103 11.5166 10.2948 11.5108L10.3021 10.4795L10.7966 10.9741L10.5072 11.2635C10.4597 11.311 10.4597 11.3876 10.5072 11.4352C10.5547 11.4827 10.6313 11.4827 10.6788 11.4352L10.9683 11.1462L11.1952 11.3726C11.2427 11.4201 11.3193 11.4201 11.3663 11.3726C11.4139 11.3251 11.4139 11.2485 11.3663 11.201L11.1399 10.9741L11.6621 10.4519C11.7096 10.4044 11.7096 10.3278 11.6621 10.2802C11.6146 10.2327 11.538 10.2327 11.4905 10.2802L10.9683 10.8024L10.3889 10.223C10.3656 10.1998 10.3351 10.1886 10.3045 10.1881C10.306 9.95491 10.2866 9.50691 10.3642 9.30716L10.6764 9.6194L10.6531 9.64267C10.6056 9.69019 10.6056 9.76679 10.6531 9.81382C10.7006 9.86134 10.7773 9.86134 10.8243 9.81382L10.8476 9.79055L11.2456 10.1886C11.2931 10.2361 11.3697 10.2361 11.4168 10.1886C11.4643 10.1411 11.4643 10.0645 11.4168 10.017L11.0187 9.61843L11.5642 9.07249C11.5816 9.05503 11.586 9.03176 11.5903 9.00897L12.0383 9.45697C12.0442 9.47103 12.0442 9.48703 12.0558 9.49867C12.0674 9.51031 12.0834 9.50982 12.0975 9.51613L12.1208 9.54134C12.2051 9.6257 12.3622 9.55394 12.3113 9.41625L12.7583 8.96922L13.1351 9.34594C13.1826 9.39346 13.2592 9.39346 13.3067 9.34594C13.3542 9.29843 13.3542 9.22182 13.3067 9.17431L12.9562 8.82425C13.4478 8.81697 13.6466 8.72922 13.6723 9.51467ZM12.3831 8.81164C12.4466 8.81455 12.5053 8.816 12.5663 8.81843L12.1537 9.23103L11.7169 8.79419C11.9705 8.79322 12.1183 8.79952 12.3831 8.81164ZM11.3848 8.80534L11.456 8.87661C11.4337 8.88097 11.4105 8.88534 11.393 8.90279L10.8476 9.44873L10.4994 9.10061C10.5023 9.0977 10.5033 9.09285 10.5062 9.08994C10.6982 8.90716 11.0226 8.83152 11.3848 8.80534Z" fill="#1A1A1A"/>
<path d="M5.55487 13.6794L7.32796 13.7317C8.58857 13.7628 8.93669 13.1882 8.89354 11.8791L8.81645 9.49901C8.77426 8.14095 8.11051 8.37513 7.0642 8.32713C6.15851 8.28689 4.49305 8.17731 4.48287 9.62071L4.46299 12.4585C4.45717 13.2808 4.6996 13.6542 5.55487 13.6794ZM4.96772 9.62459C4.96917 9.43986 5.02154 9.30216 5.10251 9.18677L5.4739 9.55816L5.02493 10.0071L4.96723 9.94943C4.96675 9.94895 4.96578 9.94895 4.9653 9.94846L4.96772 9.62459ZM6.06881 8.81683L6.53184 9.27986L6.03487 9.77683L5.81136 9.55283C5.84433 9.5058 5.84578 9.44228 5.8036 9.4001C5.76142 9.35792 5.69839 9.35937 5.65087 9.39234L5.27705 9.01853C5.47584 8.89004 5.75172 8.82556 6.06348 8.80471C6.06687 8.8081 6.06542 8.81343 6.06881 8.81683ZM4.95754 11.1165L4.96239 10.41C4.96384 10.4086 4.96626 10.4091 4.96772 10.4076L5.02542 10.3499L5.42639 10.7509L5.00942 11.1679L4.95754 11.1165ZM4.96772 12.8163C4.94978 12.7077 4.94687 12.5846 4.94784 12.4619V12.4517L5.13984 12.6437L4.96772 12.8163ZM7.75123 8.82265C7.77499 8.82119 7.79342 8.82313 7.8162 8.82265L7.65766 8.98119L7.50154 8.82507C7.58833 8.82604 7.67511 8.82701 7.75123 8.82265ZM7.04287 8.8115C7.07972 8.81295 7.11317 8.81392 7.14954 8.81537L7.48651 9.15234L7.18251 9.45634C7.13499 9.50386 7.13499 9.58047 7.18251 9.62798C7.23002 9.6755 7.30663 9.6755 7.35414 9.62798L7.65814 9.32398L8.03729 9.70313C8.08481 9.75065 8.16142 9.75065 8.20893 9.70313C8.25645 9.65562 8.25645 9.57901 8.20893 9.5315L7.82978 9.15234L8.02517 8.95695C8.05669 8.92544 8.0596 8.88277 8.04893 8.84253C8.09014 8.85222 8.13475 8.85804 8.16433 8.88131C8.29814 8.98653 8.32481 9.25998 8.33305 9.51453L8.41014 11.8946C8.45136 13.1533 8.10372 13.2736 7.34299 13.2469L5.5699 13.1945C5.36287 13.1882 5.16942 13.1732 5.06711 13.0607L5.33184 12.796C5.37063 12.8028 5.39633 12.8091 5.43705 12.7683C5.46614 12.7393 5.47099 12.701 5.46469 12.6631L6.30445 11.8234C6.35196 11.7759 6.35196 11.6993 6.30445 11.6517C6.25693 11.6042 6.18033 11.6042 6.1333 11.6517L5.31293 12.4721L4.95172 12.1114L4.9556 11.5654L5.01039 11.5106L5.54372 12.044C5.59123 12.0915 5.66784 12.0915 5.71536 12.044C5.76287 11.9965 5.76287 11.9199 5.71536 11.8723L5.18202 11.339L5.59899 10.922L5.66445 10.9875C5.71196 11.035 5.78857 11.035 5.8356 10.9875C5.88263 10.94 5.88311 10.8634 5.8356 10.8159L5.76917 10.7509L5.9442 10.5759C5.99172 10.5283 5.99172 10.4517 5.9442 10.4042C5.89669 10.3567 5.82008 10.3567 5.77257 10.4042L5.59754 10.5793L5.19657 10.1783L5.64554 9.72931L6.06008 10.1439C6.1076 10.1914 6.1842 10.1914 6.23123 10.1439C6.27875 10.0963 6.27875 10.0197 6.23123 9.97222L6.20651 9.94701L6.70348 9.45004L6.90857 9.65513C6.95608 9.70265 7.03269 9.70265 7.0802 9.65513C7.12772 9.60762 7.12772 9.53101 7.0802 9.48398L6.87463 9.27986L6.94978 9.20471C6.9973 9.15719 6.9973 9.08059 6.94978 9.03307C6.90227 8.98556 6.82566 8.98556 6.77863 9.03307L6.70348 9.10822L6.38881 8.79356C6.39754 8.79356 6.40578 8.79259 6.41451 8.79259C6.62736 8.79307 6.84214 8.80228 7.04287 8.8115Z" fill="#1A1A1A"/>
<path d="M16.4572 20.3302L18.2303 20.3826C19.3101 20.4093 19.8458 20.0451 19.7959 18.529L19.7188 16.1489C19.6921 15.3198 19.4337 14.9455 18.6269 14.9896C18.4485 14.9998 18.2143 14.9887 17.9675 14.978C17.0589 14.9363 15.3954 14.8291 15.3852 16.2711L15.3653 19.1094C15.3595 19.9462 15.6131 20.3036 16.4572 20.3302ZM16.4305 17.4027L15.8584 17.9748L15.8657 16.947C15.8846 16.9576 15.9025 16.9707 15.9234 16.9707C15.9428 16.9707 15.9593 16.9576 15.9767 16.9484L16.4305 17.4027ZM15.9273 19.6408C15.8584 19.5079 15.8492 19.3106 15.8507 19.1128L15.855 18.4859L16.4684 19.0992L15.9273 19.6408ZM19.3115 18.545C19.3527 19.8032 19.0051 19.9235 18.2444 19.8978L16.4718 19.8454C16.3394 19.841 16.2153 19.8304 16.1139 19.7964L16.6395 19.2708L16.6807 19.3121C16.7282 19.3596 16.8048 19.3596 16.8524 19.3121C16.8999 19.2645 16.8999 19.1879 16.8524 19.1404L16.8112 19.0992L17.3358 18.5746C17.3833 18.5271 17.3833 18.4505 17.3358 18.403C17.2882 18.3555 17.2116 18.3555 17.1641 18.403L16.6395 18.9276L15.9438 18.2318L16.6017 17.5739L16.8257 17.7979C16.8732 17.8454 16.9498 17.8454 16.9973 17.7979C17.0448 17.7504 17.0448 17.6738 16.9973 17.6262L16.7733 17.4022L16.8897 17.2859C16.9372 17.2384 16.9372 17.1618 16.8897 17.1147C16.8422 17.0672 16.7656 17.0672 16.7181 17.1147L16.6017 17.2311L16.1571 16.7865L16.6768 16.2667L17.1985 16.7879C17.2461 16.8355 17.3227 16.8355 17.3702 16.7879C17.4177 16.7404 17.4177 16.6638 17.3702 16.6163L16.8485 16.0951L17.2058 15.7378C17.2533 15.6902 17.2533 15.6136 17.2058 15.5661C17.1583 15.5186 17.0817 15.5186 17.0342 15.5661L16.6768 15.9234L16.3331 15.5802C16.5687 15.4851 16.8732 15.4527 17.1922 15.4464C17.1937 15.4478 17.1932 15.4502 17.1947 15.4517L17.6242 15.8813L17.3455 16.1601C17.2979 16.2076 17.2979 16.2842 17.3455 16.3317C17.393 16.3792 17.4696 16.3792 17.5171 16.3317L17.7959 16.0529L17.9758 16.2328C18.0233 16.2803 18.0999 16.2803 18.1474 16.2328C18.1949 16.1853 18.1949 16.1087 18.1474 16.0611L17.9675 15.8813L18.303 15.5458C18.3224 15.5264 18.3287 15.5007 18.3321 15.4754C18.4184 15.4774 18.4965 15.4755 18.5736 15.473L18.7176 15.617L18.5018 15.8328C18.4543 15.8803 18.4543 15.9569 18.5018 16.0044C18.5493 16.0519 18.6259 16.0519 18.6735 16.0044L18.8892 15.7887L18.9871 15.8866C19.0347 15.9341 19.1113 15.9341 19.1588 15.8866C19.2063 15.8391 19.2063 15.7625 19.1588 15.715L19.0608 15.617L19.1011 15.5768C19.201 15.7004 19.2272 15.9365 19.2349 16.1635L19.3115 18.545ZM18.0412 15.4658L17.7964 15.7106L17.5355 15.4493C17.6742 15.4527 17.8153 15.4561 17.9467 15.4614C17.9787 15.4638 18.0087 15.4643 18.0412 15.4658ZM16.1178 15.7082L16.5057 16.0961L15.9859 16.6158L15.8686 16.4985L15.8701 16.275C15.8725 15.9695 15.967 15.8284 16.1178 15.7082Z" fill="#1A1A1A"/>
<path d="M10.8962 20.3299L12.6693 20.3823C13.7486 20.409 14.2848 20.0463 14.2349 18.5287L14.1578 16.1486C14.1311 15.3219 13.8741 14.9452 13.0659 14.9893C12.1927 15.0378 9.8368 14.5384 9.82468 16.2708L9.8048 19.1091C9.7985 19.9459 10.0521 20.3033 10.8962 20.3299ZM10.3095 16.2742C10.311 16.0667 10.3706 15.913 10.4729 15.7922L10.8041 16.1234L10.3478 16.5796L10.3081 16.5399L10.3095 16.2742ZM11.2346 15.4747L11.3437 15.5837L10.9752 15.9522L10.663 15.64C10.8186 15.5532 11.014 15.5013 11.2346 15.4747ZM10.3003 17.5469L10.3047 16.9292C10.3168 16.9268 10.328 16.9214 10.3391 16.9151L10.7929 17.369L10.4574 17.7045L10.3003 17.5469ZM10.4002 19.7001C10.2964 19.5736 10.2877 19.3413 10.2897 19.1125L10.2906 18.9588L10.7158 19.3845L10.4002 19.7001ZM13.7505 18.5447C13.7917 19.8014 13.4465 19.9231 12.6833 19.8974L10.9107 19.8451C10.8089 19.8417 10.7105 19.8364 10.6247 19.8184L10.887 19.5561L10.9243 19.5934C10.9718 19.641 11.0484 19.641 11.096 19.5934C11.1435 19.5459 11.1435 19.4693 11.096 19.4218L11.0586 19.3845L11.6206 18.8225C11.6681 18.775 11.6681 18.6984 11.6206 18.6509C11.573 18.6034 11.4964 18.6034 11.4489 18.6509L10.887 19.2128L10.2926 18.6184L10.2955 18.2082L10.4574 18.0463L11.0659 18.6548C11.1134 18.7023 11.19 18.7023 11.2375 18.6548C11.285 18.6073 11.285 18.5307 11.2375 18.4831L10.629 17.8747L10.9646 17.5391L11.0256 17.6002C11.0732 17.6477 11.1498 17.6477 11.1973 17.6002C11.2448 17.5527 11.2448 17.4761 11.1973 17.4286L11.1362 17.3675L11.2724 17.2313C11.32 17.1837 11.32 17.1071 11.2724 17.0596C11.2249 17.0121 11.1483 17.0121 11.1013 17.0596L10.965 17.1959L10.5195 16.7503L10.9757 16.294L11.3476 16.6659C11.3951 16.7134 11.4717 16.7134 11.5192 16.6659C11.5667 16.6184 11.5667 16.5418 11.5192 16.4943L11.1473 16.1224L11.5158 15.7539L11.8819 16.12C11.9343 16.1724 11.9745 16.1568 12.0201 16.134C12.0288 16.136 12.0361 16.1442 12.0448 16.1442C12.0758 16.1442 12.1069 16.1326 12.1306 16.1088L12.5408 15.6987L12.9844 16.1423C13.032 16.1898 13.1086 16.1898 13.1561 16.1423C13.2036 16.0948 13.2036 16.0182 13.1561 15.9707L13.1313 15.9459L13.5236 15.5532C13.64 15.6686 13.6671 15.9222 13.6749 16.1631L13.7505 18.5447ZM13.0926 15.4732C13.1537 15.4703 13.2099 15.4693 13.2637 15.4708L12.9587 15.7762L12.7115 15.529L12.7638 15.4766C12.8816 15.479 12.9922 15.479 13.0926 15.4732ZM12.2989 15.4591L12.3682 15.5285L11.9997 15.897L11.6865 15.5837C11.7326 15.5377 11.7767 15.5071 11.7772 15.4436C11.9536 15.4441 12.1292 15.4519 12.2989 15.4591Z" fill="#1A1A1A"/>
<path d="M8.89353 18.529L8.81644 16.1493C8.77329 14.7627 8.04796 15.0211 7.06517 14.9779C6.1459 14.9358 4.49305 14.8315 4.48287 16.271L4.46299 19.1093C4.45717 19.9462 4.71075 20.304 5.55487 20.3307L7.32796 20.383C8.40723 20.4092 8.94347 20.0465 8.89353 18.529ZM7.31681 15.4725L7.61159 15.7673L7.42105 15.9578C7.40844 15.9704 7.40747 15.9884 7.40165 16.0044L6.85378 15.4565C6.91632 15.4589 6.98226 15.4594 7.04287 15.4623C7.1379 15.4667 7.22759 15.4696 7.31681 15.4725ZM6.50129 15.4458L6.73062 15.6752C6.72432 15.6795 6.71559 15.6781 6.70978 15.6839L6.46687 15.9268L6.00093 15.4613C6.23075 15.441 6.32335 15.4439 6.50129 15.4458ZM6.05959 16.3772L5.80505 16.1227L5.81668 16.111C5.8642 16.0635 5.8642 15.9869 5.81668 15.9394C5.76917 15.8919 5.69256 15.8919 5.64505 15.9394L5.63341 15.951L5.32214 15.6398C5.43123 15.5792 5.55341 15.5297 5.6979 15.5006L6.29523 16.0979L6.09014 16.303C6.06978 16.3234 6.06202 16.3505 6.05959 16.3772ZM4.97547 19.4982C4.9522 19.3823 4.94735 19.248 4.94832 19.1127L4.94929 18.9421L5.2402 19.233L4.97547 19.4982ZM4.95802 17.681L4.96335 16.9348L5.41765 17.3896L5.0419 17.7653L4.95802 17.681ZM4.96578 16.5944L4.9682 16.2744C4.96965 16.0664 5.02929 15.9127 5.13208 15.792L5.46226 16.1222L4.9779 16.6065L4.96578 16.5944ZM7.34202 19.8977L5.56941 19.8453C5.3745 19.839 5.19365 19.8221 5.08796 19.728L5.4225 19.3939C5.46759 19.4153 5.50541 19.4308 5.55729 19.3789C5.59462 19.3416 5.59365 19.2887 5.57232 19.2441L5.99996 18.8165C6.04747 18.769 6.04747 18.6924 5.99996 18.6453C5.95244 18.5978 5.87584 18.5978 5.82832 18.6453L5.41135 19.0623L4.95123 18.6022L4.95414 18.1964L5.0419 18.1086L5.38178 18.4485C5.42929 18.496 5.5059 18.496 5.55341 18.4485C5.60093 18.401 5.60093 18.3244 5.55341 18.2773L5.21353 17.9375L5.58929 17.5617L5.68287 17.6553C5.73038 17.7028 5.80699 17.7028 5.8545 17.6553C5.90202 17.6078 5.90202 17.5312 5.8545 17.4836L5.7362 17.3653C5.7362 17.3343 5.72456 17.3028 5.70081 17.279C5.67705 17.2553 5.64602 17.2436 5.6145 17.2436L5.14953 16.7787L5.6339 16.2943L6.06105 16.7215C6.10856 16.769 6.18517 16.769 6.23268 16.7215C6.2802 16.6739 6.2802 16.5973 6.23268 16.5498L6.18808 16.5052C6.21475 16.5023 6.24141 16.495 6.26226 16.4747L6.46735 16.2696L6.53135 16.3336C6.57887 16.3811 6.65547 16.3811 6.70299 16.3336C6.7505 16.2861 6.7505 16.2095 6.70299 16.1619L6.63899 16.0979L6.8819 15.855C6.88771 15.8492 6.88626 15.841 6.89062 15.8342L7.29111 16.2347C7.33862 16.2822 7.41523 16.2822 7.46226 16.2347C7.48311 16.2138 7.49135 16.1862 7.49378 16.1585C7.49911 16.159 7.50299 16.1644 7.50784 16.1644C7.53887 16.1644 7.5699 16.1522 7.59365 16.129L7.7842 15.9384L7.81135 15.9656C7.85887 16.0131 7.93547 16.0131 7.98299 15.9656C8.0305 15.9181 8.0305 15.8415 7.98299 15.7939L7.95584 15.7668L7.99026 15.7324C8.03778 15.6848 8.03778 15.6082 7.99026 15.5607C7.94275 15.5132 7.86614 15.5132 7.81911 15.5607L7.78468 15.5952L7.66299 15.4735C8.14784 15.4599 8.31026 15.425 8.33402 16.1639L8.41111 18.544C8.45038 19.8017 8.10468 19.9234 7.34202 19.8977Z" fill="#1A1A1A"/>
<path d="M30.0291 29.9594C30.1576 29.9594 30.2638 29.8591 30.271 29.7306C30.2759 29.6438 30.2764 29.557 30.2764 29.4712L30.3539 15.2258C30.3675 12.5631 29.4114 11.9793 27.3047 12.0486C25.7096 12.1107 24.0272 12.1451 22.2681 12.2406L22.3932 6.10002C22.4669 2.60815 21.0642 1.27239 17.1918 2.46948C13.7178 3.55118 11.0744 4.65518 7.50206 5.33105C2.89697 6.19893 1.616 7.53469 1.64703 12.3027C1.74303 28.5398 1.53406 28.7352 2.38933 29.8634C2.4354 29.924 2.50667 29.9594 2.5823 29.9594H30.0291ZM8.34036 26.0879L9.01285 26.7604L8.27443 27.4988L8.12655 27.3509C8.15564 26.9655 8.21964 26.5335 8.34036 26.0879ZM8.09309 29.2491C8.09115 29.1987 8.08873 29.1483 8.08727 29.0978L8.16582 29.1764L8.09309 29.2491ZM8.21043 29.4746L8.33746 29.3475L8.35055 29.3606C8.39806 29.4081 8.47467 29.4081 8.52218 29.3606C8.5697 29.3131 8.5697 29.2365 8.52218 29.189L8.50909 29.1759L9.73576 27.9492C9.78327 27.9017 9.78327 27.8251 9.73576 27.7776C9.68824 27.7301 9.61164 27.7301 9.56412 27.7776L8.33746 29.0043L8.08291 28.7497C8.08243 28.4889 8.08679 28.2421 8.09455 28.0215L8.27491 27.8411L8.64146 28.2077C8.68897 28.2552 8.76558 28.2552 8.81309 28.2077C8.86061 28.1601 8.86061 28.0835 8.81309 28.036L8.44655 27.6695L9.69891 26.4171C9.74643 26.3696 9.74643 26.293 9.69891 26.2455C9.65139 26.198 9.57479 26.198 9.52727 26.2455L9.18497 26.5878L8.43927 25.8426C8.43297 25.8363 8.42424 25.8377 8.41746 25.8334C8.44558 25.7466 8.47224 25.6593 8.50521 25.5725C8.51103 25.5837 8.51006 25.5968 8.51879 25.606C8.5663 25.6535 8.64291 25.6535 8.69043 25.606L9.04388 25.2525L9.73624 25.9444C9.78376 25.9919 9.86036 25.9919 9.9074 25.9444C9.95491 25.8969 9.95491 25.8203 9.9074 25.7728L9.21503 25.0809L9.87491 24.421L10.3229 24.869C10.3704 24.9165 10.447 24.9165 10.4941 24.869C10.5416 24.8215 10.5416 24.7449 10.4941 24.6974L10.0461 24.2494L10.2662 24.0292C10.3137 23.9817 10.3137 23.9051 10.2662 23.8576C10.2187 23.8101 10.1421 23.8101 10.0945 23.8576L9.87442 24.0777L9.6543 23.8576C9.84388 23.6908 10.0446 23.5434 10.257 23.4232L10.832 23.9982L10.4315 24.3987C10.384 24.4462 10.384 24.5228 10.4315 24.5703C10.479 24.6178 10.5556 24.6178 10.6032 24.5703L11.0036 24.1698L11.0449 24.2111C11.0924 24.2586 11.169 24.2586 11.2165 24.2111C11.264 24.1635 11.264 24.0869 11.2165 24.0394L11.1753 23.9982L11.6941 23.4794L12.0606 23.8455C12.1081 23.893 12.1847 23.893 12.2318 23.8455C12.2793 23.798 12.2793 23.7214 12.2318 23.6738L12.0659 23.508C12.0693 23.5051 12.0742 23.5066 12.0776 23.5032L12.4829 23.0978C13.5559 23.3941 14.4858 24.4011 14.8776 25.7267C15.2238 26.8811 15.1893 28.0656 15.0885 29.4731H8.21043V29.4746ZM9.47782 24.0249L9.70327 24.2503L9.0434 24.9102L8.8994 24.7662C9.0017 24.5984 9.11273 24.4336 9.2417 24.2765C9.31588 24.1868 9.39685 24.1058 9.47782 24.0249ZM8.77527 24.9854L8.87176 25.0818L8.59636 25.3572C8.65018 25.2321 8.70934 25.108 8.77527 24.9854ZM11.9016 23.3451C11.8434 23.2869 11.6267 23.0702 11.569 23.0125C11.7823 22.9951 11.9947 23.0038 12.2036 23.0363L11.9069 23.333C11.9035 23.3369 11.9045 23.3417 11.9016 23.3451ZM11.2747 23.0547C11.2771 23.0581 11.2761 23.0625 11.279 23.0654L11.5229 23.3088L11.0041 23.8275L10.4873 23.3107C10.7423 23.1904 11.0065 23.1041 11.2747 23.0547ZM27.3222 12.534C29.1496 12.47 29.8812 12.8423 29.8691 15.2234L29.7915 29.4702V29.4751H21.7105C22.0194 28.662 21.9336 28.6576 22.2579 12.725C23.9224 12.6338 25.5927 12.5999 27.3222 12.534ZM2.13091 12.2998C2.10182 7.84063 3.16461 6.64112 7.59079 5.80718C11.2073 5.12402 13.8773 4.0079 17.3343 2.93202C20.9135 1.82512 21.9733 2.97227 21.9079 6.08936C21.4284 29.6307 21.5578 28.6974 21.1699 29.4741H15.5748C15.6606 28.2974 15.7333 26.8898 15.343 25.5895C14.3438 22.2081 10.8693 21.5488 8.8674 23.9672C7.63103 25.4688 7.50594 27.5337 7.61988 29.4736H2.70691C2.06885 28.516 2.22691 28.5034 2.13091 12.2998Z" fill="#1A1A1A"/>
<path d="M24.9299 18.9941L25.7876 18.1359L26.2817 18.63L25.7876 19.124L25.5176 18.854C25.4701 18.8064 25.3934 18.8064 25.3459 18.854C25.2984 18.9015 25.2984 18.9781 25.3459 19.0256L25.616 19.2957L25.2223 19.6894C25.1748 19.7369 25.1748 19.8135 25.2223 19.861C25.2698 19.9085 25.3464 19.9085 25.3934 19.861L25.7876 19.4673L26.1353 19.8149C26.2482 19.9279 26.4208 19.7577 26.3069 19.6433L25.9593 19.2957L26.4533 18.8016L26.6041 18.9524C26.6516 18.9999 26.7282 18.9999 26.7757 18.9524C26.8233 18.9049 26.8233 18.8283 26.7757 18.7812L26.625 18.6304L26.8373 18.4181C26.8848 18.3706 26.8848 18.294 26.8373 18.2464C26.7898 18.1989 26.7132 18.1989 26.6662 18.2464L26.4538 18.4588L25.9597 17.9648L26.6967 17.2278C26.7442 17.1803 26.7442 17.1037 26.6967 17.0561C26.6492 17.0086 26.5726 17.0086 26.5251 17.0561L25.7881 17.7931L25.487 17.492C25.4395 17.4445 25.3629 17.4445 25.3154 17.492C25.2679 17.5395 25.2679 17.6161 25.3154 17.6637L25.6165 17.9648L24.7583 18.8229C24.7108 18.8704 24.7108 18.9471 24.7583 18.9946C24.8058 19.0411 24.8829 19.0411 24.9299 18.9941Z" fill="#1A1A1A"/>
<path d="M24.7894 25.438C24.8205 25.438 24.8515 25.4264 24.8752 25.4026L25.9802 24.2977L26.3012 24.6186L25.8862 25.0342C25.8386 25.0817 25.8386 25.1583 25.8862 25.2053C25.9099 25.2291 25.9409 25.2407 25.972 25.2407C26.003 25.2407 26.034 25.2291 26.0578 25.2053L26.4728 24.7903L26.8234 25.1408C26.8471 25.1646 26.8782 25.1762 26.9092 25.1762C26.9402 25.1762 26.9712 25.1646 26.995 25.1408C27.0425 25.0933 27.0425 25.0167 26.995 24.9692L26.6445 24.6186L26.8272 24.4359C26.8748 24.3883 26.8748 24.3117 26.8272 24.2642C26.7797 24.2167 26.7031 24.2167 26.6556 24.2642L26.4728 24.447L26.1518 24.126L26.7982 23.4797C26.8457 23.4322 26.8457 23.3556 26.7982 23.3081C26.7506 23.2606 26.674 23.2606 26.6265 23.3081L25.9802 23.9544L25.586 23.5602C25.5385 23.5127 25.4619 23.5127 25.4144 23.5602C25.3669 23.6077 25.3669 23.6843 25.4144 23.7319L25.8086 24.126L24.7036 25.231C24.6561 25.2785 24.6561 25.3551 24.7036 25.4026C24.7274 25.4259 24.7584 25.438 24.7894 25.438Z" fill="#1A1A1A"/>
<path d="M25.551 25.3735C25.5035 25.326 25.4269 25.326 25.3794 25.3735C25.3319 25.421 25.3319 25.4976 25.3794 25.5452L26.271 26.4363C26.2948 26.4601 26.3258 26.4717 26.3568 26.4717C26.3879 26.4717 26.4189 26.4601 26.4427 26.4363C26.4902 26.3888 26.4902 26.3122 26.4427 26.2647L25.551 25.3735Z" fill="#1A1A1A"/>
<path d="M19.034 22.8237L19.2478 22.6099C19.2953 22.5624 19.2953 22.4858 19.2478 22.4382C19.2003 22.3907 19.1237 22.3907 19.0762 22.4382L18.8624 22.6521L17.9969 21.7866C17.9494 21.7391 17.8728 21.7391 17.8253 21.7866C17.7778 21.8341 17.7778 21.9107 17.8253 21.9582L18.025 22.158L17.388 22.7946L17.1882 22.5949C17.1407 22.5473 17.0641 22.5473 17.0166 22.5949C16.969 22.6424 16.969 22.719 17.0166 22.7665L17.2163 22.9662L16.4604 23.7221L15.6663 22.9279C15.6187 22.8804 15.5421 22.8804 15.4946 22.9279C15.4471 22.9755 15.4471 23.0521 15.4946 23.0996L16.2888 23.8938L15.9703 24.2123C15.9227 24.2598 15.9227 24.3364 15.9703 24.3839C16.0178 24.4315 16.0944 24.4315 16.1419 24.3839L16.4604 24.0654L16.955 24.5599L16.1608 25.3541C16.1133 25.4016 16.1133 25.4782 16.1608 25.5258C16.2083 25.5733 16.2849 25.5733 16.3324 25.5258L17.1266 24.7316L17.898 25.503C17.9455 25.5505 18.0221 25.5505 18.0697 25.503C18.1172 25.4555 18.1172 25.3789 18.0697 25.3313L17.2983 24.5599L18.0541 23.8041L18.6675 24.4174L18.3964 24.6884C18.3489 24.7359 18.3489 24.8126 18.3964 24.8601C18.444 24.9076 18.5206 24.9076 18.5681 24.8601L18.8391 24.589L18.9138 24.6642C18.9613 24.7117 19.0379 24.7117 19.0854 24.6642C19.1329 24.6167 19.1329 24.5401 19.0854 24.4926L19.0107 24.4179L19.6478 23.7808L20.2146 24.3476C20.2621 24.3951 20.3387 24.3951 20.3863 24.3476C20.4338 24.3001 20.4338 24.2235 20.3863 24.1764L19.8195 23.6096L20.3441 23.085C20.3916 23.0375 20.3916 22.9609 20.3441 22.9139C20.2966 22.8664 20.22 22.8664 20.1729 22.9139L19.6483 23.4385L19.034 22.8237ZM18.1972 22.3296L18.6912 22.8237L18.0541 23.4608L17.5601 22.9662L18.1972 22.3296ZM17.1271 24.3878L16.6326 23.8933L17.3884 23.1374L17.8825 23.6319L17.1271 24.3878ZM18.8391 24.2453L18.2258 23.6319L18.8629 22.9949L19.4762 23.6082L18.8391 24.2453Z" fill="#1A1A1A"/>
<path d="M6.47008 21.8392L5.97408 22.3352L5.38547 21.7466C5.33796 21.6991 5.26135 21.6991 5.21432 21.7466C5.16681 21.7941 5.16681 21.8707 5.21432 21.9182L5.80293 22.5068L4.95444 23.3553L4.45262 22.8535C4.40511 22.806 4.3285 22.806 4.28147 22.8535C4.23396 22.901 4.23396 22.9776 4.28147 23.0251L4.78329 23.5269L3.83202 24.4782C3.7845 24.5257 3.7845 24.6023 3.83202 24.6498C3.87953 24.6974 3.95614 24.6974 4.00365 24.6498L4.95493 23.6986L5.54402 24.2877L4.57384 25.2559L4.24462 24.9272C4.19711 24.8797 4.1205 24.8797 4.07347 24.9272C4.02596 24.9747 4.02596 25.0513 4.07347 25.0988L4.40268 25.4275L3.7622 26.068C3.71468 26.1155 3.71468 26.1921 3.7622 26.2397C3.80971 26.2872 3.88632 26.2872 3.93384 26.2397L4.57432 25.5992L5.14499 26.1698C5.1925 26.2174 5.26911 26.2174 5.31614 26.1698C5.36365 26.1223 5.36365 26.0457 5.31614 25.9982L4.74547 25.4275L5.71468 24.4583L6.12147 24.8651C6.16899 24.9126 6.24559 24.9126 6.29262 24.8651C6.34014 24.8176 6.34014 24.741 6.29262 24.6935L5.88584 24.2867L6.3925 23.78C6.44002 23.7325 6.44002 23.6559 6.3925 23.6084C6.34499 23.5609 6.26838 23.5609 6.22087 23.6084L5.7142 24.1151L5.12511 23.526L5.97359 22.6775L6.27177 22.9757C6.31929 23.0232 6.3959 23.0232 6.44293 22.9757C6.49044 22.9281 6.49044 22.8515 6.44293 22.804L6.14474 22.5058L6.64074 22.0098C6.68826 21.9623 6.68826 21.8857 6.64074 21.8382C6.5942 21.7917 6.51759 21.7917 6.47008 21.8392Z" fill="#1A1A1A"/>
</svg>
