<svg xmlns="http://www.w3.org/2000/svg" width="32" height="32" fill="none" viewBox="0 0 32 32"><path fill="#1a1a1a" d="m24.674 21.122 2.082.012c1.152 0 1.61-.351 1.641-1.615l.07-2.865c.04-1.67-.923-1.379-2.072-1.345-2.59.072-3.09.511-3.082 1.92l.013 2.602c.005.897.305 1.285 1.348 1.291m1.734-5.329c1.17-.034 1.603-.321 1.574.85l-.07 2.865c-.023.971-.252 1.143-1.153 1.141l-2.082-.012c-.763-.003-.864-.177-.867-.81l-.013-2.628c-.005-.91.04-1.333 2.61-1.406m-1.733 12.314 2.083.012h.048c1.163 0 1.563-.43 1.592-1.616l.07-2.864c.041-1.672-.927-1.379-2.072-1.346-1.096.03-2.596.073-2.966 1.002-.12.298-.118.614-.116.918l.013 2.602c.005.897.305 1.285 1.348 1.292m-.796-4.633c.252-.632 1.623-.67 2.53-.697 1.169-.034 1.603-.322 1.574.85l-.07 2.865c-.023.977-.259 1.144-1.153 1.141l-2.082-.011c-.762-.004-.863-.178-.867-.81l-.013-2.629c-.001-.244-.003-.497.081-.709m-7.421-9.794 1.773.052c1.072.026 1.616-.328 1.566-1.853l-.077-2.38c-.044-1.356-.7-1.123-1.753-1.172-.905-.04-2.57-.15-2.58 1.294l-.02 2.838c-.006.835.248 1.196 1.091 1.22m-.572-.801a1.8 1.8 0 0 1-.035-.417l.004-.59.52.519zm-.022-2.233.208.208-.21.21zm3.371-1.131.077 2.38c.042 1.258-.306 1.379-1.067 1.352l-1.773-.052c-.181-.006-.35-.022-.458-.101l.532-.532.011.011a.121.121 0 1 0 .172-.172l-.011-.01.623-.624a.121.121 0 1 0-.171-.172l-.624.624-.544-.544c-.04-.04-.099-.039-.145-.01l.003-.421a.12.12 0 0 0 .167-.002l.216-.217.523.522a.121.121 0 1 0 .171-.172l-.522-.522.425-.425a.121.121 0 1 0-.171-.171l-.425.425-.377-.378.005-.68a.8.8 0 0 1 .075-.348l.162.161-.012.012a.121.121 0 1 0 .172.171l.011-.01.684.683a.121.121 0 1 0 .172-.172l-.684-.684.43-.43a.12.12 0 0 0 .032-.095l.604.604c-.033.047-.035.11.007.153a.12.12 0 0 0 .171 0l.04-.039c.016-.006.034-.007.047-.02s.014-.03.02-.047l.497-.498.505.505a.121.121 0 1 0 .172-.171l-.505-.506.07-.07c.485-.009.668-.074.693.692m-3.145-.438c.149-.132.37-.203.623-.241h-.003l-.43.431zm1.856-.265.104.003.079.08-.446.445-.541-.541c.168-.005.18-.016.804.013m-7.05 4.869 1.773.052c1.075.026 1.616-.331 1.566-1.853l-.077-2.38c-.044-1.355-.7-1.123-1.753-1.172-3.073-.136-2.577.707-2.6 4.132-.007.835.247 1.196 1.091 1.22m-.552-.727c-.05-.131-.056-.312-.054-.49l.004-.637.589.588zm3.33-3.438.076 2.38c.042 1.259-.307 1.379-1.067 1.352l-1.773-.052c-.151-.005-.295-.015-.402-.064l.564-.564c.04.008.066.017.11-.025.03-.03.033-.07.025-.11l.73-.73a.121.121 0 1 0-.172-.172l-.711.712-.713-.712c-.013-.013-.03-.013-.045-.02l.007-1.03.495.494-.29.29a.121.121 0 1 0 .172.171l.29-.289.226.227a.121.121 0 1 0 .171-.172l-.226-.227.522-.522a.121.121 0 1 0-.171-.172l-.523.522-.58-.579a.12.12 0 0 0-.083-.035c.001-.233-.018-.681.06-.88l.311.311-.023.024a.12.12 0 0 0 0 .17.12.12 0 0 0 .171 0l.024-.022.398.398a.121.121 0 1 0 .171-.172l-.398-.399.545-.546c.018-.017.022-.04.026-.063l.448.448c.006.014.006.03.018.042.011.011.027.01.042.017l.023.025c.084.085.241.013.19-.125l.447-.447.377.377a.121.121 0 1 0 .172-.172l-.35-.35c.49-.007.69-.095.715.69m-1.29-.703.183.006-.412.413-.437-.437c.253 0 .401.006.666.018m-.998-.007.071.072c-.022.004-.045.008-.063.026l-.545.546-.349-.348.007-.011c.192-.183.517-.258.879-.285M5.555 13.68l1.773.052c1.26.03 1.609-.544 1.566-1.853L8.816 9.5c-.042-1.358-.705-1.124-1.752-1.172-.905-.04-2.571-.15-2.581 1.294l-.02 2.838c-.006.822.237 1.195 1.092 1.22m-.587-4.055a.74.74 0 0 1 .135-.438l.37.371-.448.45-.058-.059h-.002zm1.1-.808.464.463-.497.497-.224-.224c.033-.047.035-.11-.007-.153s-.106-.04-.153-.008l-.374-.373c.199-.129.475-.193.786-.214.004.003.002.008.006.012m-1.11 2.3.004-.707.006-.002.057-.058.401.4-.417.418zm.01 1.7a2 2 0 0 1-.02-.355v-.01l.192.192zM7.75 8.822c.024-.002.042 0 .065 0l-.158.158-.156-.156c.086.001.173.002.25-.002m-.708-.011.107.003.337.337-.304.304a.121.121 0 1 0 .171.172l.304-.304.38.38a.121.121 0 1 0 .17-.173l-.378-.379.195-.195c.032-.032.035-.074.024-.114.041.01.086.015.115.038.134.106.16.379.17.634l.076 2.38c.041 1.258-.306 1.379-1.067 1.352l-1.773-.053c-.207-.006-.4-.02-.503-.133l.265-.265c.039.007.064.013.105-.028.03-.029.034-.067.028-.105l.84-.84a.121.121 0 0 0-.172-.171l-.82.82-.361-.36.004-.547.054-.054.534.533a.121.121 0 1 0 .171-.172l-.533-.533.417-.417.065.066a.12.12 0 0 0 .172 0 .12.12 0 0 0 0-.172l-.067-.065.175-.175a.121.121 0 1 0-.171-.172l-.175.175-.401-.4.449-.45.414.415a.121.121 0 1 0 .171-.172l-.024-.025.496-.497.206.205a.121.121 0 1 0 .171-.171l-.205-.204.075-.075a.121.121 0 1 0-.171-.172l-.076.075-.314-.314.026-.001c.212 0 .427.01.628.019m9.414 11.519 1.773.053c1.08.026 1.616-.338 1.566-1.854l-.077-2.38c-.027-.83-.285-1.204-1.092-1.16-.178.01-.413 0-.66-.011-.908-.042-2.572-.149-2.582 1.293l-.02 2.838c-.005.837.248 1.195 1.092 1.221m-.027-2.927-.572.572.008-1.028c.019.01.037.024.057.024s.036-.013.054-.023zm-.503 2.238c-.069-.133-.078-.33-.076-.528l.004-.627.613.613zm3.384-1.096c.042 1.258-.306 1.378-1.067 1.353l-1.772-.053a1.3 1.3 0 0 1-.358-.049l.526-.525.04.041a.121.121 0 1 0 .172-.172l-.04-.04.524-.525a.121.121 0 1 0-.172-.172l-.524.525-.696-.696.658-.658.224.224a.121.121 0 1 0 .171-.172l-.224-.224.117-.116a.121.121 0 1 0-.172-.171l-.116.116-.445-.445.52-.52.521.522a.121.121 0 1 0 .172-.172l-.521-.52.357-.358a.121.121 0 1 0-.172-.172l-.357.357-.344-.343c.236-.095.54-.127.86-.134l.002.006.43.43-.28.278a.121.121 0 1 0 .172.172l.279-.28.18.18a.121.121 0 1 0 .171-.17l-.18-.18.336-.336a.12.12 0 0 0 .03-.07q.127.002.24-.003l.145.144-.216.216a.121.121 0 1 0 .172.171l.215-.215.098.098a.121.121 0 1 0 .172-.172l-.098-.098.04-.04c.1.123.126.36.134.586zm-1.27-3.08-.245.246-.26-.262c.138.004.28.007.41.012l.095.005m-1.923.243.388.388-.52.52-.117-.117.001-.224c.003-.305.097-.447.248-.567m-5.222 4.621 1.773.052c1.08.027 1.616-.336 1.566-1.853l-.077-2.38c-.027-.827-.284-1.204-1.092-1.16-.873.049-3.23-.45-3.241 1.282l-.02 2.838c-.006.837.247 1.194 1.091 1.22m-.587-4.056a.72.72 0 0 1 .164-.482l.331.331-.456.457-.04-.04zm.926-.8.109.11-.369.368-.312-.312c.156-.087.351-.139.572-.165m-.935 2.073.005-.618a.1.1 0 0 0 .034-.014l.454.454-.336.335zm.1 2.153c-.104-.126-.112-.359-.11-.587v-.154l.426.425zm3.35-1.155c.042 1.256-.303 1.378-1.067 1.352l-1.772-.052a2 2 0 0 1-.286-.027l.262-.262.037.037a.121.121 0 1 0 .172-.171l-.037-.038.562-.561a.121.121 0 1 0-.172-.172l-.562.562-.594-.595.003-.41.161-.162.609.609a.121.121 0 1 0 .172-.172l-.609-.608.336-.336.06.061a.121.121 0 1 0 .172-.171l-.06-.061.135-.137a.121.121 0 1 0-.17-.171l-.137.136-.445-.446.456-.456.372.372a.121.121 0 1 0 .171-.172l-.372-.372.369-.368.366.366c.052.052.093.037.138.014.009.002.016.01.025.01a.12.12 0 0 0 .086-.035l.41-.41.443.443a.121.121 0 1 0 .172-.171l-.025-.025.393-.393c.116.116.143.37.15.61zm-.657-3.072a2 2 0 0 1 .17-.002l-.304.305-.248-.247.053-.052q.177.004.329-.004m-.794-.014.07.07-.37.368-.312-.313c.046-.046.09-.077.09-.14.177 0 .352.008.522.015m-3.405 3.07-.078-2.38c-.043-1.386-.768-1.128-1.75-1.171-.92-.042-2.573-.146-2.583 1.293l-.02 2.838c-.006.837.248 1.195 1.092 1.222l1.773.052c1.08.026 1.615-.336 1.566-1.854m-1.577-3.056.295.294-.19.19c-.014.013-.015.031-.02.047l-.548-.548c.062.003.128.003.189.006q.141.007.274.01m-.816-.027.23.23c-.007.004-.015.002-.021.008l-.243.243L6 15.46c.23-.02.322-.017.5-.015m-.441.931-.255-.254.012-.012a.121.121 0 1 0-.172-.172l-.012.012-.31-.311c.108-.06.23-.11.375-.14l.597.598-.205.205a.12.12 0 0 0-.03.074m-1.085 3.121a2 2 0 0 1-.027-.385l.001-.17.291.29zm-.017-1.817.005-.746.455.455-.376.375zm.008-1.087.002-.32a.72.72 0 0 1 .164-.482l.33.33-.484.485zm2.376 3.304-1.773-.053c-.194-.006-.375-.023-.481-.117l.335-.334c.045.021.082.037.134-.015.038-.037.037-.09.015-.135L6 18.817a.121.121 0 1 0-.172-.171l-.417.416-.46-.46.003-.406.088-.087.34.34a.121.121 0 1 0 .171-.172l-.34-.34.376-.375.094.093a.121.121 0 1 0 .172-.171l-.119-.119a.12.12 0 0 0-.122-.122l-.464-.464.484-.485.427.427a.121.121 0 1 0 .172-.171l-.045-.045a.12.12 0 0 0 .074-.03l.205-.205.064.064a.121.121 0 1 0 .172-.172l-.064-.064.243-.243c.006-.006.004-.014.009-.02l.4.4a.12.12 0 0 0 .171 0 .12.12 0 0 0 .032-.076c.005 0 .009.005.014.005a.12.12 0 0 0 .086-.035l.19-.19.027.027a.121.121 0 1 0 .172-.172l-.027-.027.034-.035a.121.121 0 0 0-.17-.171l-.035.034-.122-.122c.485-.013.647-.048.671.69l.077 2.381c.04 1.258-.306 1.38-1.069 1.354"/><path fill="#1a1a1a" d="M30.03 29.96c.128 0 .234-.1.241-.23a5 5 0 0 0 .005-.259l.078-14.245c.014-2.663-.943-3.247-3.05-3.177-1.594.062-3.277.096-5.036.192l.125-6.141c.074-3.492-1.329-4.828-5.201-3.63-3.474 1.081-6.118 2.185-9.69 2.861-4.605.868-5.886 2.204-5.855 6.972.096 16.237-.113 16.432.742 17.56a.24.24 0 0 0 .193.096zM8.34 26.087l.673.672-.739.739-.147-.148c.029-.386.093-.817.213-1.263m-.247 3.161-.006-.151.079.078zm.117.226.127-.128.014.014a.121.121 0 1 0 .171-.172l-.013-.013 1.227-1.227a.121.121 0 1 0-.172-.171l-1.227 1.226-.254-.254c0-.261.004-.508.012-.729l.18-.18.366.367a.121.121 0 1 0 .172-.172l-.366-.367 1.252-1.252a.121.121 0 1 0-.172-.172l-.342.343-.746-.745c-.006-.007-.015-.005-.022-.01.029-.086.055-.174.088-.26.006.01.005.024.014.033a.12.12 0 0 0 .171 0l.354-.354.692.692a.121.121 0 1 0 .171-.172l-.692-.691.66-.66.448.448a.121.121 0 1 0 .171-.172l-.448-.448.22-.22a.121.121 0 1 0-.171-.171l-.22.22-.22-.22c.189-.167.39-.315.602-.435l.575.575-.4.4a.121.121 0 1 0 .171.172l.4-.4.042.041a.121.121 0 1 0 .172-.172l-.042-.04.52-.52.366.367a.121.121 0 0 0 .171-.172l-.166-.166c.003-.003.008-.001.012-.005l.405-.405c1.073.296 2.003 1.303 2.395 2.629.346 1.154.311 2.339.21 3.746H8.21zm1.268-5.45.225.225-.66.66-.144-.144c.103-.168.214-.332.343-.49.074-.09.155-.17.236-.251m-.703.96.097.097-.276.275q.08-.187.18-.372m3.127-1.64-.333-.332q.32-.027.635.023l-.297.297c-.004.004-.002.009-.005.012m-.627-.29q.001.006.004.01l.244.244-.519.518-.517-.516q.384-.181.788-.256m16.047-10.521c1.828-.064 2.56.308 2.547 2.69l-.078 14.246v.005h-8.08c.308-.813.223-.817.547-16.75 1.664-.091 3.335-.125 5.064-.191M2.131 12.3C2.1 7.84 3.165 6.64 7.59 5.807c3.616-.683 6.286-1.8 9.743-2.875 3.58-1.107 4.64.04 4.574 3.157-.48 23.542-.35 22.608-.738 23.385h-5.595c.086-1.177.158-2.584-.232-3.884-1-3.382-4.474-4.041-6.476-1.623-1.236 1.502-1.361 3.567-1.247 5.507H2.707c-.638-.958-.48-.97-.576-17.174"/><path fill="#1a1a1a" d="m24.93 18.994.858-.858.494.494-.494.494-.27-.27a.121.121 0 1 0-.172.172l.27.27-.394.393a.121.121 0 1 0 .171.172l.395-.394.347.348c.113.113.286-.057.172-.172l-.348-.347.494-.494.151.15a.121.121 0 1 0 .172-.17l-.151-.152.212-.212a.121.121 0 0 0-.17-.172l-.213.213-.494-.494.737-.737a.121.121 0 1 0-.172-.172l-.737.737-.301-.301a.121.121 0 1 0-.172.172l.301.3-.858.859a.121.121 0 1 0 .172.171m-.14 6.444a.12.12 0 0 0 .085-.035l1.105-1.105.321.32-.415.416a.12.12 0 0 0 .086.207.12.12 0 0 0 .086-.036l.415-.415.35.35a.12.12 0 0 0 .086.036.121.121 0 0 0 .086-.207l-.35-.35.182-.183a.121.121 0 1 0-.171-.172l-.183.183-.321-.321.646-.646a.121.121 0 1 0-.171-.172l-.647.646-.394-.394a.121.121 0 1 0-.172.172l.395.394-1.105 1.105a.121.121 0 0 0 .085.207"/><path fill="#1a1a1a" d="M25.551 25.374a.121.121 0 1 0-.172.171l.892.891a.12.12 0 0 0 .086.036.121.121 0 0 0 .086-.207zm-6.517-2.55.214-.214a.121.121 0 1 0-.172-.172l-.214.214-.865-.865a.121.121 0 1 0-.172.171l.2.2-.637.637-.2-.2a.12.12 0 0 0-.171 0 .12.12 0 0 0 0 .172l.2.2-.757.755-.794-.794a.121.121 0 1 0-.171.172l.794.794-.319.318a.12.12 0 0 0 0 .172.12.12 0 0 0 .172 0l.318-.319.495.495-.794.794a.121.121 0 1 0 .171.172l.795-.794.771.771a.121.121 0 1 0 .172-.172l-.772-.771.756-.756.614.613-.272.271a.121.121 0 1 0 .172.172l.271-.271.075.075a.121.121 0 1 0 .171-.171l-.074-.075.637-.637.567.567a.121.121 0 0 0 .171-.172l-.566-.566.524-.525a.12.12 0 0 0 0-.171.12.12 0 0 0-.171 0l-.525.524zm-.837-.494.494.494-.637.637-.494-.495zm-1.07 2.058-.494-.495.755-.756.494.495zm1.712-.143-.613-.613.637-.637.613.613zM6.47 21.84l-.496.495-.589-.588a.121.121 0 1 0-.171.172l.589.588-.849.848-.501-.502a.121.121 0 1 0-.171.172l.501.502-.951.951a.121.121 0 1 0 .172.172l.95-.951.59.589-.97.968-.33-.329a.121.121 0 1 0-.171.172l.33.328-.64.641a.121.121 0 1 0 .17.172l.641-.64.571.57a.121.121 0 1 0 .171-.172l-.57-.57.969-.97.406.407a.121.121 0 1 0 .171-.172l-.406-.406.506-.507a.121.121 0 1 0-.171-.172l-.507.507-.589-.589.849-.849.298.299a.121.121 0 0 0 .171-.172l-.298-.298.496-.496a.12.12 0 1 0-.17-.17"/></svg>