<svg xmlns="http://www.w3.org/2000/svg" width="48" height="48" fill="none" viewBox="0 0 48 48"><path fill="#000" d="M5.892 32.647c-.048 1.592-.123 3.85 2.98 4.636-2.619 6.928 3.084 4.939 5.729.55 3.139.177 6.352.227 9.556.148 3.613-.099 5.726-.923 6.495-5.864.412-2.67.459-5.134.252-7.68l1.567.048c.529.755 1.078 1.496 1.628 2.239.968 1.307 1.292 2.015 2.15 2.015 1.719 0 1.95-2.34 2.041-4.158.863-.105 1.505-.365 2.001-.806 1.018-.883 1.198-2.3 1.296-3.675l.487-7.025c.393-5.707-1.648-6.629-6.569-6.713-12.74-.215-13.024-.282-14.517.042-2.862.605-4.243 2.614-4.099 4.417.041.6.096 4.573.107 7.173a82 82 0 0 0-3.428.163c-5.029.35-7.512 1.847-7.437 6.886.045 2.498-.157 5.048-.24 7.604M21.14 7.116c1.398-.304 1.799-.238 14.35-.026 7.127.122 6.122 2.098 5.369 12.96-.09 1.273-.237 2.474-1.05 3.179-.434.385-1.038.595-1.9.659a.363.363 0 0 0-.337.358c-.008.686-.195 2.77-.584 3.333-.205.298-.626.534-.949.39-.265-.118-1.181-1.442-1.357-1.678a100 100 0 0 1-1.721-2.372.36.36 0 0 0-.288-.155c-4.632-.14-.957-.035-10.37-.334-1.507-.05-3.184-.198-4-1.346-.683-.958-.553-2.347-.58-3.745-.007-2.581-.066-6.927-.11-7.572-.115-1.447 1.026-3.124 3.527-3.651M6.619 32.669c.079-2.493.285-5.099.24-7.639-.068-4.482 1.936-5.813 6.76-6.148a81 81 0 0 1 3.384-.165l.002.623c0 3.621 1.457 4.69 5.276 4.815 2.628.083 5.263.168 7.892.259a31.6 31.6 0 0 1-.24 7.591c-.733 4.716-2.696 5.164-5.794 5.248-3.259.08-6.527.027-9.715-.16-.142-.011-.293.116-.364.228-.02.032-.04.065-.044.076-1.859 3.177-7.206 6.537-4.312-.233a.365.365 0 0 0-.266-.5c-2.886-.558-2.871-2.26-2.819-3.995"/><path fill="#000" d="M22.684 13.062c-.873.371-1.543 1.112-1.746 1.936-.255 1.023.158 2.144 1.003 2.725.89.614 2.137.527 2.9-.173.63-.576 1.034-1.843.92-2.883-.193-1.77-1.819-2.14-3.077-1.605m.028.813.11.11-.593.593-.17-.17c.18-.21.402-.389.653-.533m-.629 3.007a1.8 1.8 0 0 1-.343-.546l.444.444zm2.267.132c-.518.475-1.393.523-1.995.112l.087-.088.02.021a.182.182 0 0 0 .258-.257l-.021-.022.685-.686a.182.182 0 1 0-.257-.257l-.686.686-.846-.845c-.006-.17.007-.34.048-.506.04-.16.11-.316.199-.467l.22.22c.008.018.007.04.022.055s.036.015.055.023l.681.68a.182.182 0 0 0 .257-.257l-.59-.591.593-.594.742.742a.182.182 0 0 0 .258-.257l-.857-.856c-.005-.006-.003-.015-.009-.02-.006-.007-.014-.004-.02-.009l-.14-.139c.87-.334 1.855-.144 1.985 1.043.096.891-.279 1.892-.689 2.269M31.067 13.133c-.637-.368-1.438-.394-2.2-.071-.872.37-1.542 1.112-1.746 1.935-.254 1.023.159 2.144 1.003 2.726.4.276.875.411 1.346.411.57 0 1.134-.197 1.556-.584.628-.576 1.033-1.843.92-2.883-.08-.717-.383-1.247-.88-1.534m-.532.561-.147.148-.259-.259q.2.024.406.111m-1.08-.064-.358.358-.084-.083c-.027-.027-.063-.035-.099-.04.08-.045.154-.098.238-.134.08-.035.188-.07.303-.101m1.079 3.383c-.446.409-1.154.5-1.727.256.017-.008.038-.007.053-.022a.18.18 0 0 0 0-.257l-.128-.127 1.204-1.204a.182.182 0 1 0-.258-.257l-1.203 1.203-.667-.667a1.8 1.8 0 0 1 .019-.766c.02-.082.063-.16.097-.239l.881.882a.182.182 0 1 0 .257-.258l-.959-.958c.162-.24.372-.459.626-.632-.027.066-.028.14.026.195l.084.083-.281.281a.18.18 0 0 0 0 .257c.072.072.187.07.257 0l.28-.281.558.557a.182.182 0 0 0 .258-.257l-.557-.557.383-.384a.18.18 0 0 0 .047-.111l.348.348-.264.264a.182.182 0 1 0 .257.257l.263-.264.038.038a.181.181 0 1 0 .257-.258l-.037-.037.178-.179c.012-.011.01-.028.017-.042.25.231.35.583.382.866.096.893-.28 1.894-.69 2.27M33.455 14.997c-.254 1.023.159 2.144 1.003 2.726.882.608 2.13.534 2.902-.173.628-.576 1.032-1.842.92-2.883-.078-.716-.382-1.247-.879-1.534-.635-.369-1.438-.394-2.199-.07-.874.37-1.542 1.11-1.747 1.934m.659.665.644.644-.339.338a1.93 1.93 0 0 1-.305-.981m1.33-1.907.016.017-.544.544-.123-.124c.19-.175.407-.328.65-.437m-.902.701.15.15a.174.174 0 0 0 .175.198c.006 0 .01-.006.017-.007l.48.481a.182.182 0 0 0 .258-.257l-.448-.449.544-.544.266.266-.166.166a.182.182 0 1 0 .258.258l.165-.166.201.2a.182.182 0 0 0 .258-.257l-.201-.2.29-.29a.182.182 0 1 0-.258-.257l-.29.29-.294-.296a.17.17 0 0 0-.033-.144c.324-.065.73-.065 1.124.162.363.21.483.65.519.983.097.892-.277 1.892-.687 2.269-.518.476-1.396.525-1.999.11a1.5 1.5 0 0 1-.225-.191l.37-.37.151.152a.182.182 0 0 0 .258-.258l-.153-.149.646-.646a.182.182 0 1 0-.258-.257l-.646.646-.856-.857q0-.01.003-.02c.063-.253.203-.494.381-.716M11.252 31.266c.767.252 1.683-.036 2.234-.682.485-.57.697-1.398.567-2.217-.114-.714-.471-1.328-.983-1.686a2.09 2.09 0 0 0-2.453.08c-.673.539-.999 1.602-.81 2.646.167.922.707 1.616 1.445 1.86m-.125-2.966.025-.026.646.645c.028.029.066.037.103.043l-.364.364-.872-.873a.18.18 0 0 0-.134-.05q.052-.313.177-.573l.188.188-.026.025c-.172.172.09.424.257.257m.64.075-.358-.358.308-.308.23.23-.178.18a.183.183 0 0 0-.001.256m-1.276.418.79.79-.462.46a2.2 2.2 0 0 1-.296-.766 2.6 2.6 0 0 1-.032-.484m2.843-.312c.098.611-.053 1.222-.403 1.632-.458.539-1.304.734-1.88.212l.486-.486.337.337a.182.182 0 0 0 .257-.257l-.336-.337.584-.584a.182.182 0 1 0-.258-.258l-.024.024c-.006-.037-.014-.075-.043-.103l-.285-.285a.18.18 0 0 0 .256 0l.18-.18.18.18a.182.182 0 1 0 .256-.257l-.18-.18.231-.231a.182.182 0 1 0-.257-.258l-.232.232-.23-.231.18-.18c.05-.051.052-.121.03-.184.167.035.33.09.47.188.351.247.6.686.681 1.206m-1.472-1.43-.145.145-.102-.102c.083-.018.163-.042.247-.044m-.62.184.217.218-.307.308-.242-.242c.053-.065.1-.14.162-.19.051-.042.114-.062.17-.094M19.718 30.584c.485-.57.698-1.4.567-2.217-.113-.714-.471-1.328-.982-1.686a2.09 2.09 0 0 0-2.453.08c-.674.539-1 1.602-.81 2.646.395 2.184 2.58 2.466 3.678 1.177m-2.416-3.253.148.148-.397.397-.094-.093c.094-.18.203-.34.343-.452m.535-.236.002.003c-.005.003-.01.002-.014.005l-.118.118-.074-.074c.066-.025.134-.036.204-.052m.251.252.12.12-.128.127-.115-.115.117-.117c.004-.005.003-.011.006-.015m-.342 1.735-.461.461-.548-.547c-.02-.297-.005-.59.07-.853zm-.719.719-.073.073a2 2 0 0 1-.108-.255zm2.54-1.32c.097.61-.053 1.22-.403 1.632-.503.592-1.44.76-2.009.074l.129-.129.294.294a.182.182 0 0 0 .257-.257l-.294-.294.808-.808a.182.182 0 1 0-.257-.258l-.09.09-.692-.693.397-.397.115.115-.012.013a.182.182 0 1 0 .256.258l.014-.013.065.065a.182.182 0 1 0 .257-.257l-.066-.066.128-.128.029.029a.182.182 0 0 0 .257-.258l-.415-.415c.196.029.388.084.551.198.35.246.598.686.68 1.205M26.326 30.584c.485-.57.697-1.4.567-2.217-.114-.714-.471-1.328-.983-1.686a2.09 2.09 0 0 0-2.453.08c-.673.54-1 1.603-.81 2.646.392 2.163 2.566 2.484 3.679 1.177m-2.663-2.414c.07.07.185.071.257 0l.024-.023.472.472a.18.18 0 0 0 .128.053c.023 0 .041-.017.063-.026l-.52.518-.722-.722a2.1 2.1 0 0 1 .206-.668l.116.116-.023.023a.183.183 0 0 0-.001.257m.167 1.252-.328.328a2.3 2.3 0 0 1-.139-.473c-.02-.116-.018-.23-.023-.345zm2.344-.941c.098.61-.053 1.22-.403 1.632-.54.634-1.544.755-2.087-.03l.404-.404.084.085a.182.182 0 0 0 .258-.258l-.085-.084.6-.6c.163-.163-.071-.42-.248-.261.03-.067.031-.145-.024-.2l-.472-.472.341-.341.214.214-.023.023a.182.182 0 1 0 .257.257l.024-.023.19.19a.182.182 0 1 0 .257-.258l-.19-.19.308-.308c.02-.02.022-.048.03-.073.286.256.492.643.565 1.1m-1.283-1.28a.18.18 0 0 0 .05-.122q.2.03.38.117l-.308.309-.214-.214zm-.715-.018.109.108-.341.341-.158-.157c.043-.047.077-.108.126-.147.079-.063.172-.103.264-.145M19.271 11.395a.18.18 0 0 0 .233.109.18.18 0 0 0 .108-.234c-.137-.374-.028-.782.191-1.114.074.102.145.208.228.304a.18.18 0 0 0 .256.017.18.18 0 0 0 .018-.257 4 4 0 0 1-.265-.353q.102-.102.214-.183c.305-.215.659-.342 1.033-.435.03.092.072.18.088.275a.182.182 0 1 0 .359-.057 2 2 0 0 0-.071-.302q.233-.043.473-.078c.2-.03.4-.052.6-.08.049.094.09.191.15.277a.182.182 0 1 0 .298-.21c-.025-.037-.04-.079-.064-.117q.66-.082 1.32-.147l.04.22a.181.181 0 1 0 .358-.065l-.035-.19q.572-.05 1.145-.086c.056.183.133.36.238.521a.182.182 0 0 0 .304-.199 1.7 1.7 0 0 1-.168-.347q.605-.033 1.21-.05l.118.459a.182.182 0 1 0 .353-.09l-.098-.381q.633-.013 1.265-.009l.05.59a.18.18 0 0 0 .182.166l.016-.001a.18.18 0 0 0 .165-.197l-.048-.56c.305.004.611.017.917.027l-.006.515c-.002.1.08.184.18.184h.002c.1 0 .18-.08.182-.18l.005-.508q.513.021 1.026.056.059.357.193.692a.182.182 0 1 0 .337-.137c-.07-.17-.116-.35-.151-.532q.44.032.881.073l.009.196a.18.18 0 0 0 .182.174h.008a.18.18 0 0 0 .174-.19l-.007-.146c.19.019.38.033.569.054a.183.183 0 0 0 .2-.161.18.18 0 0 0-.161-.2c-.208-.024-.417-.04-.625-.06l-.016-.344a.182.182 0 0 0-.364.016l.013.293a47 47 0 0 0-.903-.072c-.008-.11-.026-.219-.02-.328a.183.183 0 0 0-.174-.19c-.099-.011-.185.073-.19.172-.005.108.014.215.02.323q-.499-.031-.998-.054l.003-.313a.18.18 0 0 0-.18-.184h-.002c-.1 0-.18.08-.181.18l-.004.306c-.317-.01-.635-.022-.952-.026l-.02-.237c-.01-.1-.098-.168-.197-.166a.18.18 0 0 0-.166.197l.018.207q-.664-.005-1.327.012l-.058-.224a.182.182 0 0 0-.353.09l.038.146q-.603.018-1.206.052a1.7 1.7 0 0 1-.013-.342.18.18 0 0 0-.168-.195.183.183 0 0 0-.195.168c-.01.131-.003.263.013.394q-.567.036-1.133.087l-.065-.362a.182.182 0 1 0-.358.065l.06.333a47 47 0 0 0-1.432.163 2 2 0 0 1-.12-.423.176.176 0 0 0-.208-.151.18.18 0 0 0-.15.209c.023.142.069.278.116.413q-.248.031-.497.065-.287.043-.566.095a2 2 0 0 0-.324-.463.183.183 0 0 0-.266.25c.085.09.146.197.209.302-.39.101-.76.241-1.091.474a2 2 0 0 0-.198.162c-.051-.093-.108-.183-.152-.28-.041-.092-.148-.135-.24-.092a.18.18 0 0 0-.092.24c.065.145.144.281.225.416-.334.44-.515 1.016-.315 1.563"/></svg>