<svg width="48" height="48" viewBox="0 0 48 48" fill="none" xmlns="http://www.w3.org/2000/svg">
<path d="M5.89195 32.6471C5.84395 34.2391 5.76904 36.4973 8.87159 37.2835C6.25341 44.2108 11.956 42.2217 14.601 37.8333C17.74 38.01 20.953 38.0595 24.1574 37.981C27.7705 37.882 29.8832 37.058 30.652 32.117C31.0636 29.4479 31.1109 26.9831 30.9036 24.4377L32.4709 24.485C32.9996 25.2399 33.5487 25.981 34.0992 26.7235C35.0672 28.0311 35.3909 28.7395 36.249 28.7395C37.9676 28.7395 38.1989 26.3984 38.2905 24.581C39.153 24.4755 39.7945 24.2159 40.2912 23.7751C41.3094 22.8915 41.489 21.4755 41.5865 20.1002L42.0738 13.0748C42.4665 7.36786 40.4265 6.44641 35.505 6.36204C22.7647 6.14677 22.481 6.07986 20.988 6.40422C18.1261 7.00859 16.745 9.01804 16.889 10.821C16.9305 11.4217 16.985 15.394 16.996 17.994C15.852 18.0253 14.7007 18.0784 13.5683 18.157C8.53922 18.5068 6.05559 20.0042 6.13122 25.0428C6.17559 27.541 5.97413 30.0908 5.89195 32.6471ZM21.1407 7.1155C22.5392 6.8115 22.94 6.87768 35.4912 7.09004C42.6185 7.2115 41.6134 9.1875 40.86 20.05C40.7705 21.3228 40.6229 22.5242 39.8105 23.229C39.3763 23.6144 38.772 23.8239 37.9094 23.8879C37.721 23.9017 37.5749 24.0573 37.5727 24.2464C37.5647 24.9315 37.3778 27.0151 36.9887 27.5788C36.7843 27.877 36.3625 28.1126 36.0403 27.9693C35.7749 27.8508 34.8585 26.5271 34.6832 26.2908C34.1007 25.5046 33.5196 24.7199 32.9618 23.9191C32.8963 23.8246 32.7901 23.7664 32.6745 23.7635C28.0418 23.6231 31.7174 23.7286 22.3036 23.4297C20.7967 23.3802 19.1196 23.2319 18.3043 22.0835C17.6207 21.1257 17.7509 19.7373 17.7247 18.3388C17.7167 15.7577 17.6585 11.4115 17.6141 10.7671C17.4992 9.31986 18.6403 7.64277 21.1407 7.1155ZM6.61922 32.669C6.69777 30.1759 6.90359 27.57 6.85922 25.0304C6.79086 20.5482 8.79522 19.2166 13.6192 18.882C14.737 18.8042 15.873 18.7482 17.0025 18.717C17.004 18.9242 17.0054 19.0319 17.0054 19.3402C17.0054 22.9613 18.4621 24.0304 22.281 24.1548C24.9094 24.2384 27.5436 24.3228 30.1734 24.4137C30.3952 26.8013 30.329 29.4319 29.9334 32.005C29.1996 36.7206 27.2367 37.1693 24.1385 37.253C20.8803 37.333 17.612 37.2799 14.4236 37.0937C14.2818 37.082 14.1312 37.2093 14.06 37.3213C14.0403 37.3533 14.02 37.386 14.0156 37.397C12.1574 40.5737 6.80977 43.9344 9.70359 37.1635C9.7945 36.9504 9.66432 36.7068 9.43813 36.6631C6.55159 36.106 6.56686 34.4042 6.61922 32.669Z" fill="black"/>
<path d="M22.684 13.0623C21.8105 13.4332 21.1414 14.1743 20.9378 14.9976C20.6832 16.0208 21.0963 17.1416 21.9407 17.7234C22.8316 18.3372 24.0782 18.2499 24.8418 17.5503C25.4702 16.9743 25.8745 15.7074 25.7618 14.6666C25.5683 12.8965 23.9422 12.5263 22.684 13.0623ZM22.7116 13.8746L22.8214 13.9845L22.2287 14.5779L22.0592 14.4085C22.2382 14.1976 22.4607 14.0194 22.7116 13.8746ZM22.0832 16.8819C21.9385 16.7241 21.8229 16.5386 21.74 16.3357L22.1843 16.7801L22.0832 16.8819ZM24.3502 17.0136C23.8316 17.4892 22.9567 17.5372 22.3545 17.1256L22.4418 17.0383L22.4629 17.0594C22.5334 17.1299 22.6483 17.1306 22.7203 17.0594C22.7916 16.9881 22.7916 16.8732 22.7203 16.8019L22.6985 16.7801L23.3843 16.0943C23.4556 16.023 23.4556 15.9081 23.3843 15.8375C23.3131 15.7663 23.1982 15.7663 23.1269 15.8375L22.4411 16.5234L21.5952 15.6776C21.5887 15.5081 21.6018 15.3372 21.6432 15.1721C21.6832 15.0121 21.7531 14.8557 21.8418 14.7052L22.0614 14.9248C22.0702 14.943 22.0687 14.9648 22.084 14.9801C22.0992 14.9954 22.1203 14.9946 22.1392 15.0026L22.82 15.6834C22.8905 15.7539 23.0054 15.7546 23.0774 15.6834C23.1487 15.6121 23.1487 15.4972 23.0774 15.4259L22.4862 14.8346L23.0796 14.2412L23.8222 14.983C23.892 15.0528 24.0069 15.055 24.0796 14.983C24.1509 14.9117 24.1509 14.7968 24.0796 14.7256L23.2229 13.8696C23.2178 13.8637 23.22 13.855 23.2142 13.8492C23.2083 13.8434 23.2003 13.8456 23.1938 13.8412L23.0549 13.7023C23.9232 13.3685 24.9094 13.5576 25.0389 14.7445C25.1349 15.6361 24.7603 16.6368 24.3502 17.0136Z" fill="black"/>
<path d="M31.0668 13.1325C30.4305 12.7645 29.629 12.7391 28.8676 13.062C27.9948 13.4329 27.325 14.174 27.1214 14.9973C26.8668 16.0205 27.2799 17.1413 28.1243 17.7231C28.5243 17.9987 28.9985 18.134 29.4698 18.134C30.0392 18.134 30.6043 17.9369 31.0261 17.55C31.6545 16.974 32.0588 15.7071 31.9461 14.6671C31.8668 13.95 31.5628 13.4198 31.0668 13.1325ZM30.5352 13.694L30.3876 13.8416L30.1294 13.5834C30.2632 13.5987 30.3978 13.6358 30.5352 13.694ZM29.4552 13.63L29.0967 13.9885L29.013 13.9049C28.9861 13.878 28.9498 13.87 28.9141 13.8642C28.9934 13.8198 29.0676 13.7674 29.1519 13.7311C29.2327 13.6962 29.3403 13.6613 29.4552 13.63ZM30.5338 17.0133C30.0879 17.422 29.3796 17.5129 28.8065 17.2693C28.8239 17.2605 28.845 17.262 28.8596 17.2474C28.9308 17.1762 28.9308 17.0613 28.8596 16.99L28.7323 16.8627L29.9359 15.6591C30.0072 15.5878 30.0072 15.4729 29.9359 15.4016C29.8647 15.3303 29.7498 15.3303 29.6785 15.4016L28.4748 16.6053L27.8079 15.9383C27.7628 15.6853 27.7643 15.4234 27.8268 15.1718C27.8472 15.0903 27.8901 15.0125 27.9236 14.9333L28.805 15.8147C28.8756 15.8853 28.9905 15.886 29.0618 15.8147C29.133 15.7434 29.133 15.6285 29.0618 15.5573L28.1032 14.5987C28.2654 14.3594 28.4748 14.1405 28.7294 13.9667C28.7018 14.0329 28.701 14.1078 28.7548 14.1616L28.8385 14.2453L28.5578 14.526C28.4865 14.5973 28.4865 14.7122 28.5578 14.7827C28.6298 14.8547 28.7447 14.8525 28.8152 14.7827L29.0959 14.502L29.653 15.0591C29.725 15.1311 29.8399 15.1289 29.9105 15.0591C29.9818 14.9878 29.9818 14.8729 29.9105 14.8016L29.3541 14.2445L29.7374 13.8613C29.7679 13.8307 29.7796 13.79 29.7839 13.75L30.1316 14.0976L29.8676 14.3616C29.7963 14.4329 29.7963 14.5478 29.8676 14.6191C29.9381 14.6896 30.053 14.6903 30.125 14.6191L30.3883 14.3551L30.4261 14.3929C30.4981 14.4649 30.613 14.4627 30.6828 14.3929C30.7541 14.3216 30.7541 14.2067 30.6828 14.1354L30.6458 14.0976L30.8239 13.9194C30.8356 13.9078 30.8334 13.8911 30.8414 13.8773C31.0916 14.1085 31.1919 14.4605 31.2232 14.7427C31.3185 15.6358 30.9439 16.6365 30.5338 17.0133Z" fill="black"/>
<path d="M33.4551 14.9971C33.2013 16.0203 33.6136 17.1411 34.458 17.7229C35.3402 18.3309 36.5889 18.2567 37.3598 17.5498C37.9882 16.9738 38.3925 15.7076 38.2791 14.6669C38.202 13.9505 37.898 13.4203 37.4013 13.1331C36.7656 12.7643 35.9627 12.7389 35.202 13.0625C34.3278 13.4327 33.6595 14.1738 33.4551 14.9971ZM34.114 15.6625L34.7576 16.3062L34.4195 16.6443C34.2333 16.3556 34.1249 16.0123 34.114 15.6625ZM35.4435 13.7549L35.4602 13.7716L34.9162 14.3156L34.7925 14.192C34.9838 14.0174 35.1998 13.864 35.4435 13.7549ZM34.5424 14.456L34.6922 14.6058C34.6871 14.6582 34.6987 14.7105 34.7387 14.7505C34.7744 14.7862 34.8209 14.8036 34.8675 14.8036C34.8733 14.8036 34.8776 14.7978 34.8835 14.7971L35.3649 15.2785C35.4355 15.3491 35.5504 15.3498 35.6224 15.2785C35.6936 15.2073 35.6936 15.0923 35.6224 15.0211L35.1736 14.5723L35.7176 14.0283L35.9838 14.2945L35.818 14.4603C35.7467 14.5316 35.7467 14.6465 35.818 14.7178C35.8886 14.7883 36.0035 14.7891 36.0755 14.7178L36.2413 14.552L36.442 14.7527C36.5126 14.8233 36.6275 14.824 36.6995 14.7527C36.7707 14.6814 36.7707 14.5665 36.6995 14.4953L36.4987 14.2945L36.7882 14.0051C36.8595 13.9338 36.8595 13.8189 36.7882 13.7476C36.7169 13.6763 36.602 13.6763 36.5307 13.7476L36.2413 14.0371L35.9467 13.7425C35.9569 13.6916 35.9482 13.6414 35.914 13.5985C36.2384 13.5331 36.6449 13.5331 37.0376 13.76C37.4013 13.9709 37.5205 14.4109 37.5569 14.7433C37.6544 15.6349 37.2798 16.6349 36.8696 17.0116C36.3518 17.488 35.474 17.5367 34.8711 17.1222C34.7896 17.0662 34.7155 17.0014 34.6464 16.9309L35.0158 16.5614L35.1671 16.7127C35.2376 16.7833 35.3525 16.784 35.4245 16.7127C35.4958 16.6414 35.4958 16.5265 35.4245 16.4553L35.2718 16.3062L35.9176 15.6603C35.9889 15.5891 35.9889 15.4742 35.9176 15.4029C35.8464 15.3316 35.7315 15.3316 35.6602 15.4029L35.0144 16.0487L34.1576 15.192C34.1591 15.1854 34.1591 15.1782 34.1613 15.1716C34.2238 14.9193 34.3642 14.6778 34.5424 14.456Z" fill="black"/>
<path d="M11.2522 31.2663C12.0194 31.5179 12.9351 31.2299 13.4856 30.5841C13.9707 30.0146 14.1831 29.1855 14.0529 28.3666C13.9394 27.6532 13.5816 27.0386 13.0703 26.6808C12.3416 26.1717 11.3111 26.2052 10.6173 26.7601C9.9438 27.2997 9.61798 28.363 9.80707 29.4066C9.97434 30.3288 10.514 31.0233 11.2522 31.2663ZM11.1271 28.2997L11.1525 28.2742L11.7976 28.9193C11.826 28.9477 11.8638 28.9564 11.9009 28.9623L11.5373 29.3259L10.6653 28.4532C10.6282 28.4161 10.5802 28.4008 10.5314 28.4023C10.5663 28.1943 10.6238 28.0022 10.7082 27.8299L10.8958 28.0175L10.8703 28.043C10.698 28.2146 10.9605 28.467 11.1271 28.2997ZM11.7678 28.3753L11.4093 28.0168L11.7169 27.7092L11.9474 27.9397L11.7685 28.1186C11.698 28.1906 11.698 28.3048 11.7678 28.3753ZM10.4914 28.7928L11.2805 29.5826L10.8194 30.0437C10.6376 29.7623 10.5554 29.4524 10.5234 29.2772C10.4943 29.115 10.49 28.9535 10.4914 28.7928ZM13.3343 28.4808C13.4318 29.0924 13.2813 29.7026 12.9314 30.1128C12.4725 30.6517 11.6274 30.8473 11.0514 30.3252L11.5373 29.8393L11.874 30.1761C11.946 30.2481 12.0609 30.2459 12.1314 30.1761C12.2027 30.1048 12.2027 29.9899 12.1314 29.9186L11.7947 29.5819L12.3787 28.9979C12.45 28.9266 12.45 28.8117 12.3787 28.7404C12.3074 28.6699 12.1925 28.6684 12.1213 28.7404L12.0973 28.7644C12.0914 28.7273 12.0827 28.6895 12.0543 28.6612L11.7693 28.3761C11.842 28.4473 11.9554 28.4459 12.0253 28.3753L12.2042 28.1964L12.3845 28.3768C12.4551 28.4473 12.57 28.4481 12.6413 28.3768C12.7125 28.3055 12.7125 28.1906 12.6413 28.1193L12.4609 27.939L12.6922 27.7077C12.7634 27.6364 12.7634 27.5215 12.6922 27.4502C12.6209 27.379 12.506 27.379 12.4347 27.4502L12.2034 27.6815L11.9729 27.451L12.1525 27.2706C12.2034 27.2197 12.2049 27.1499 12.1831 27.0866C12.3503 27.1215 12.5125 27.1768 12.6529 27.275C13.0042 27.5222 13.2522 27.9608 13.3343 28.4808ZM11.8623 27.0503L11.7169 27.1957L11.6151 27.0939C11.698 27.0764 11.778 27.0524 11.8623 27.0503ZM11.242 27.235L11.4594 27.4532L11.1518 27.7608L10.9096 27.5186C10.9627 27.4539 11.0093 27.379 11.0718 27.3288C11.1234 27.2873 11.186 27.267 11.242 27.235Z" fill="black"/>
<path d="M19.718 30.5841C20.2031 30.0139 20.4155 29.1848 20.2853 28.3666C20.1719 27.6532 19.814 27.0393 19.3028 26.6808C18.5748 26.1717 17.5435 26.2052 16.8497 26.7601C16.1762 27.2997 15.8504 28.363 16.0395 29.4066C16.4351 31.5906 18.6206 31.8728 19.718 30.5841ZM17.302 27.331L17.4497 27.4786L17.0526 27.8757L16.9595 27.7826C17.0526 27.6037 17.1624 27.4437 17.302 27.331ZM17.8366 27.0953L17.8388 27.0975C17.8344 27.1012 17.8286 27.0997 17.8249 27.1033L17.7071 27.2212L17.6329 27.147C17.6991 27.1223 17.7675 27.1106 17.8366 27.0953ZM18.0882 27.347L18.2075 27.4662L18.0795 27.5943L17.9646 27.4793L18.0824 27.3615C18.086 27.3572 18.0846 27.3506 18.0882 27.347ZM17.7457 29.0822L17.2846 29.5433L16.7369 28.9957C16.7166 28.699 16.7319 28.4059 16.8068 28.1433L17.7457 29.0822ZM17.0271 29.8008L16.9537 29.8742C16.91 29.787 16.8737 29.7012 16.846 29.619L17.0271 29.8008ZM19.5668 28.4808C19.6642 29.0917 19.5137 29.7019 19.1639 30.1128C18.6613 30.7048 17.7239 30.8721 17.1551 30.187L17.2839 30.0583L17.5777 30.3521C17.6482 30.4226 17.7631 30.4233 17.8351 30.3521C17.9064 30.2808 17.9064 30.1659 17.8351 30.0946L17.5413 29.8008L18.3493 28.9928C18.4206 28.9215 18.4206 28.8066 18.3493 28.7353C18.278 28.6641 18.1631 28.6641 18.0919 28.7353L18.0024 28.8248L17.31 28.1324L17.7071 27.7353L17.822 27.8502L17.8097 27.8633C17.7384 27.9346 17.7384 28.0495 17.8097 28.1208C17.8802 28.1913 17.9951 28.1921 18.0664 28.1208L18.0795 28.1077L18.1449 28.1732C18.2155 28.2437 18.3304 28.2444 18.4017 28.1732C18.4729 28.1019 18.4729 27.987 18.4017 27.9157L18.3362 27.8502L18.4642 27.7223L18.4926 27.7506C18.5624 27.8204 18.678 27.8226 18.75 27.7506C18.8213 27.6793 18.8213 27.5644 18.75 27.4932L18.3348 27.0779C18.5311 27.107 18.7231 27.1623 18.886 27.2764C19.2366 27.5223 19.4839 27.9615 19.5668 28.4808Z" fill="black"/>
<path d="M26.3255 30.5841C26.8106 30.0139 27.0229 29.1848 26.8927 28.3666C26.7793 27.6532 26.4215 27.0393 25.9102 26.6808C25.1815 26.1717 24.1509 26.2052 23.4571 26.7601C22.7836 27.3004 22.4578 28.3637 22.6469 29.4073C23.0389 31.5695 25.2127 31.891 26.3255 30.5841ZM23.6629 28.1703C23.7335 28.2408 23.8484 28.2415 23.9204 28.1703L23.9436 28.147L24.4156 28.619C24.4513 28.6546 24.4971 28.6721 24.5444 28.6721C24.5669 28.6721 24.5851 28.6546 24.6069 28.6459L24.0876 29.1644L23.3647 28.4423C23.4018 28.1979 23.468 27.9702 23.5713 27.7739L23.6869 27.8895L23.6636 27.9128C23.5924 27.9841 23.5924 28.099 23.6629 28.1703ZM23.8302 29.4219L23.5022 29.7499C23.4258 29.5652 23.3836 29.3921 23.3633 29.2772C23.3422 29.1615 23.3451 29.0466 23.34 28.9317L23.8302 29.4219ZM26.1742 28.4808C26.2716 29.0917 26.1211 29.7019 25.7713 30.1128C25.2316 30.747 24.2266 30.8684 23.684 30.0822L24.0876 29.6793L24.172 29.7637C24.2426 29.8342 24.3575 29.835 24.4295 29.7637C24.5007 29.6924 24.5007 29.5775 24.4295 29.5062L24.3451 29.4219L24.9451 28.8219C25.108 28.659 24.8738 28.4015 24.6971 28.5608C24.7276 28.4939 24.7284 28.4161 24.6731 28.3608L24.2011 27.8888L24.5422 27.5477L24.756 27.7615L24.7327 27.7848C24.6615 27.8561 24.6615 27.971 24.7327 28.0422C24.8026 28.1128 24.9182 28.1142 24.9902 28.0422L25.0135 28.019L25.2033 28.2088C25.2731 28.2793 25.3887 28.2808 25.4607 28.2088C25.532 28.1375 25.532 28.0226 25.4607 27.9513L25.2709 27.7615L25.5793 27.4532C25.5996 27.4328 25.6011 27.4052 25.6098 27.3804C25.8949 27.6364 26.1015 28.0233 26.1742 28.4808ZM24.8906 27.2001C24.924 27.1666 24.9393 27.123 24.9407 27.0786C25.0746 27.0983 25.2004 27.1375 25.3211 27.1964L25.0127 27.5048L24.7989 27.291L24.8906 27.2001ZM24.1764 27.1826L24.2847 27.291L23.9436 27.6321L23.7858 27.475C23.8287 27.4277 23.8629 27.3666 23.9116 27.3281C23.9909 27.2648 24.084 27.2248 24.1764 27.1826Z" fill="black"/>
<path d="M19.2714 11.3952C19.2983 11.4694 19.3681 11.5145 19.4416 11.5145C19.4619 11.5145 19.4838 11.5109 19.5041 11.5036C19.5987 11.4687 19.6467 11.3647 19.6125 11.2701C19.475 10.8956 19.5841 10.4883 19.803 10.1559C19.8772 10.2585 19.9478 10.3639 20.0314 10.4599C20.0678 10.5014 20.1179 10.5218 20.1681 10.5218C20.211 10.5218 20.2532 10.5065 20.2874 10.4767C20.363 10.4105 20.371 10.2956 20.3048 10.2199C20.2081 10.1087 20.1238 9.98794 20.0401 9.86721C20.1085 9.79958 20.179 9.73631 20.2539 9.68394C20.5594 9.4694 20.9128 9.34212 21.2874 9.24903C21.3179 9.34067 21.3594 9.42867 21.3747 9.52394C21.3892 9.61412 21.4663 9.6774 21.5543 9.6774C21.5638 9.6774 21.5725 9.67667 21.5827 9.67522C21.6816 9.65921 21.7499 9.56685 21.7339 9.46721C21.7179 9.36467 21.6939 9.26358 21.6627 9.16467C21.8183 9.13631 21.9761 9.11012 22.1361 9.08685C22.3354 9.05703 22.5354 9.03521 22.7354 9.00758C22.7848 9.10067 22.8263 9.19812 22.8867 9.28394C22.9223 9.33412 22.9783 9.36103 23.035 9.36103C23.0714 9.36103 23.1085 9.35012 23.1405 9.32758C23.2219 9.2694 23.2423 9.15594 23.1841 9.07376C23.1587 9.0374 23.1434 8.99521 23.1201 8.9574C23.5594 8.90212 23.9994 8.8534 24.4401 8.81049L24.4801 9.03012C24.4961 9.11812 24.5725 9.17921 24.659 9.17921C24.6699 9.17921 24.6801 9.17849 24.6918 9.17631C24.7907 9.15812 24.8561 9.06358 24.8379 8.96467L24.803 8.77485C25.1841 8.74067 25.5659 8.71376 25.9478 8.68903C26.0045 8.87231 26.0808 9.04976 26.1863 9.21049C26.2212 9.26358 26.2794 9.29267 26.3383 9.29267C26.3725 9.29267 26.4074 9.28321 26.4387 9.26285C26.5223 9.20758 26.5456 9.09485 26.4903 9.01121C26.419 8.90285 26.3667 8.78503 26.3223 8.66431C26.7252 8.64176 27.1288 8.62649 27.5325 8.61412L27.6503 9.07303C27.6714 9.15521 27.7456 9.20976 27.8263 9.20976C27.8416 9.20976 27.8568 9.20831 27.8721 9.20394C27.9696 9.17849 28.0278 9.07958 28.003 8.98212L27.9048 8.60176C28.3267 8.59231 28.7485 8.59085 29.1703 8.59303L29.2205 9.18212C29.2285 9.27667 29.3078 9.34867 29.4016 9.34867C29.4067 9.34867 29.4125 9.34867 29.4176 9.34794C29.5179 9.33921 29.5914 9.25121 29.5827 9.15085L29.5347 8.59158C29.8401 8.59521 30.1463 8.60758 30.4518 8.61776L30.4459 9.1334C30.4445 9.23376 30.5252 9.31667 30.6256 9.3174H30.6278C30.7274 9.3174 30.8081 9.2374 30.8096 9.13776L30.8154 8.62867C31.1572 8.64249 31.499 8.66285 31.8408 8.68467C31.8801 8.92176 31.9441 9.15521 32.0343 9.37703C32.0627 9.44758 32.131 9.49049 32.2023 9.49049C32.2248 9.49049 32.2481 9.48612 32.2714 9.47667C32.3645 9.43885 32.4081 9.33267 32.371 9.23958C32.3019 9.0694 32.2554 8.88976 32.2198 8.70794C32.5136 8.72903 32.8074 8.75449 33.1012 8.78067L33.1099 8.97703C33.1143 9.07449 33.195 9.15085 33.2918 9.15085C33.2947 9.15085 33.2976 9.15085 33.2998 9.15012C33.4008 9.14576 33.4779 9.06067 33.4736 8.96031L33.467 8.81485C33.6568 8.83376 33.8467 8.84758 34.0358 8.86867C34.131 8.88031 34.2256 8.80758 34.2358 8.70794C34.2474 8.60758 34.1754 8.51812 34.075 8.50721C33.867 8.48394 33.6583 8.46794 33.4496 8.44758L33.4336 8.10358C33.4292 8.00612 33.3485 7.92976 33.2518 7.92976C33.2488 7.92976 33.2459 7.92976 33.2438 7.93049C33.1427 7.93485 33.0656 8.01994 33.0699 8.12031L33.083 8.4134C32.7819 8.38649 32.4816 8.36176 32.1798 8.34067C32.1725 8.23085 32.1543 8.12249 32.1594 8.0134C32.1638 7.91303 32.0867 7.82794 31.9863 7.82285C31.8874 7.81194 31.8008 7.89558 31.7958 7.99521C31.7907 8.10285 31.8103 8.20976 31.8161 8.31812C31.483 8.29776 31.1507 8.2774 30.8176 8.26431L30.8212 7.95085C30.8227 7.85049 30.7419 7.76831 30.6416 7.76685C30.6408 7.76685 30.6401 7.76685 30.6394 7.76685C30.5398 7.76685 30.459 7.84685 30.4576 7.94649L30.4539 8.2534C30.1368 8.24321 29.819 8.23085 29.5019 8.22721L29.4816 7.99012C29.4728 7.89049 29.3841 7.82212 29.2845 7.82431C29.1841 7.83303 29.1107 7.92103 29.1194 8.0214L29.1368 8.22794C28.6947 8.22576 28.2518 8.22867 27.8096 8.23958L27.7521 8.01558C27.7267 7.91885 27.627 7.85994 27.531 7.88467C27.4336 7.9094 27.3747 8.00831 27.3994 8.10576L27.4372 8.25194C27.035 8.26503 26.6328 8.28103 26.2314 8.30431C26.2168 8.19085 26.2088 8.07667 26.2176 7.96176C26.2256 7.8614 26.1499 7.77485 26.0503 7.76685C25.9492 7.76176 25.8627 7.83521 25.8554 7.93485C25.8452 8.06649 25.8525 8.19812 25.8678 8.32903C25.4903 8.35376 25.1128 8.3814 24.7354 8.41558L24.6699 8.05412C24.6518 7.95521 24.5616 7.89121 24.4583 7.90794C24.3594 7.92612 24.2939 8.02067 24.3121 8.11958L24.3725 8.45194C23.8939 8.49921 23.4168 8.55303 22.9398 8.61485C22.8867 8.47812 22.8438 8.33631 22.8205 8.19158C22.8045 8.09267 22.7194 8.02285 22.6118 8.04103C22.5121 8.05703 22.4459 8.15012 22.4612 8.24976C22.4845 8.39158 22.531 8.52758 22.5783 8.66285C22.4125 8.6854 22.2459 8.70431 22.0808 8.72831C21.8896 8.75667 21.7012 8.78721 21.515 8.82285C21.427 8.65558 21.3208 8.49776 21.1914 8.36031C21.1216 8.28685 21.0067 8.28394 20.9339 8.35231C20.8605 8.4214 20.8576 8.53631 20.9252 8.60976C21.0096 8.69921 21.0707 8.80685 21.1339 8.91231C20.7448 9.0134 20.3747 9.15303 20.043 9.38649C19.9747 9.43449 19.9085 9.48976 19.8445 9.54794C19.7936 9.45485 19.7368 9.3654 19.6932 9.26794C19.6518 9.17631 19.5448 9.1334 19.4525 9.17631C19.3608 9.21703 19.3201 9.32467 19.3608 9.41631C19.4256 9.56103 19.5048 9.69703 19.5856 9.83231C19.2518 10.2716 19.0707 10.8476 19.2714 11.3952Z" fill="black"/>
</svg>
