<svg xmlns="http://www.w3.org/2000/svg" width="96" height="96" fill="none" viewBox="0 0 96 96"><path fill="#036" d="m7.779 53.91-1.911-1.912a.363.363 0 1 1 .515-.515l1.91 1.911a.363.363 0 1 1-.514.515M86.2 57.158c-.91 0-1.791-.207-2.623-.613-1.862-.896-3.322-2.705-4.001-4.96-1.315-4.37.865-8.554 4.85-10.22 4.194-1.745 9.103.575 9.634 5.742.534 5.168-3.331 10.05-7.86 10.05m-1.214-14.45c-3.25 1.359-5.131 4.76-4.017 8.459.553 1.837 1.766 3.36 3.242 4.07 4.057 1.985 8.947-2.684 8.402-7.98-.415-4.053-4.178-5.978-7.627-4.549m-37.33-25.314c-4.092 0-7.238-4.084-7.61-7.9-.462-4.756 3.298-8.039 7.247-8.039 2.632 0 5.13 1.296 6.521 3.38.882 1.352 1.308 2.95 1.236 4.636-.157 4.6-3.906 7.923-7.394 7.923m-.363-14.484c-3.155 0-6.173 2.583-5.799 6.445.342 3.507 3.222 6.585 6.162 6.585 4.407 0 7.712-6.07 4.944-10.303-1.103-1.654-3.189-2.727-5.307-2.727"/><path fill="#036" d="M7.279 54.94C2.59 53.33 1.066 48.516 2.3 45.084c.82-2.234 2.82-4.046 5.226-4.733 4.36-1.334 10.058 1.535 9.605 7.512-.345 4.557-4.392 8.987-9.852 7.077m.66-13.194c-1.98.565-3.61 2.034-4.272 3.834-1.441 4.01 1.794 8.361 6.175 8.361 3.36 0 5.607-3.146 5.838-6.189.377-4.954-4.356-7.041-7.74-6.006m39.169 52.799c-2.336 0-4.732-1.107-6.41-2.958-1.51-1.667-2.233-3.685-2.036-5.68.07-.895.357-1.804.852-2.687 1.28-2.285 3.82-3.65 6.794-3.65 3.807 0 7.076 2.206 7.952 5.368l.1.418c.7 3.37-1.098 7.012-4.176 8.497-.96.46-1.994.692-3.076.692m-.801-13.521c-2.441 0-4.507 1.086-5.525 2.906-.392.697-.618 1.407-.673 2.103-.156 1.599.435 3.218 1.667 4.576 4.942 5.46 12.608 1.048 11.078-5.296-.815-2.944-3.966-4.29-6.547-4.29"/><path fill="#036" d="m40.05 86.817-.777-.122C23.69 84.224 9.666 71.988 6.605 53.165c1.152.403 2.018.775 3.238.775 3.36 0 5.608-3.146 5.839-6.19.377-4.947-4.362-7.048-7.741-6.005l-1.162.357.235-1.192c3.22-16.285 16.735-29.224 33.63-32.202l.773-.137.077.781c.342 3.509 3.222 6.587 6.162 6.587 2.672 0 5.799-2.368 5.968-7.365l.827.149C71.003 11.7 83.32 26.008 85.43 41.94l.072.551-.511.214c-3.247 1.357-5.138 4.754-4.02 8.46.553 1.837 1.765 3.36 3.241 4.071l.531.256c-4.174 16.95-16.266 27.609-31.626 30.896l-.263-1.076c-.815-2.944-3.967-4.29-6.547-4.29-2.44 0-4.506 1.087-5.524 2.906-.393.697-.619 1.407-.674 2.104zM8.438 55.257c2.825 14.415 14.668 27.085 30.338 29.88a6.9 6.9 0 0 1 .739-1.917c1.28-2.285 3.82-3.65 6.794-3.65 3.696 0 6.887 2.082 7.87 5.099 15.007-3.494 25.4-14.96 28.876-28.406-1.613-.967-2.866-2.639-3.48-4.678-1.253-4.166.65-8.144 4.337-9.984-2.204-14.953-13.69-28.196-28.934-31.296-.573 4.32-4.2 7.088-7.324 7.088-3.81 0-6.804-3.546-7.495-7.118C24.574 13.318 12.1 25.15 8.672 40.099c4.479-.604 8.854 2.576 8.46 7.764-.329 4.334-3.924 8.339-8.694 7.393"/><path fill="#036" d="M44.381 73.057c-1.11 0-2.285-.01-3.54-.03-2.663-.039-5.458-.2-7.763-1.655-2.07-1.303-3.609-3.614-4.338-6.51-.836-3.328-.99-12.057.408-16.12.765-2.225 2.064-4.07 3.565-5.063 1.165-.77 2.254-.875 3.166-.875 12.348 0-1.585.193 18.667-.306 2.468-.058 5.396-.116 7.778 1.362 1.84 1.14 3.235 3.173 3.925 5.722.496 1.828 2.487 15.08-3.14 20.055-2.507 2.218-6.233 3.42-18.728 3.42M35.88 44.26c-.997 0-1.684.183-2.363.634-1.24.819-2.33 2.394-2.994 4.324-1.299 3.773-1.149 12.2-.37 15.292.635 2.53 1.95 4.532 3.701 5.635 1.987 1.252 4.553 1.393 7.01 1.43 14.773.212 18.893-.915 21.283-3.026 4.609-4.077 3.42-15.926 2.698-18.585-.595-2.192-1.763-3.92-3.289-4.867-2.017-1.25-4.673-1.197-6.975-1.141-28.666.705-9.319.304-18.7.304"/><path fill="#036" d="M35.445 43.358c-.117-4.458-.248-9.514 1.587-14.02 1.687-4.148 5.896-8.51 11.204-8.195 4.898.265 8.588 4.425 10.071 8.432 1.584 4.28 1.427 9.017 1.29 13.197l-1.454-.048c.134-4.046.285-8.632-1.199-12.643-1.319-3.56-4.547-7.256-8.787-7.486-4.597-.249-8.277 3.607-9.778 7.291-1.72 4.224-1.592 9.119-1.48 13.435z"/><path fill="#036" d="M39.889 43.357c-.072-3.161-.152-6.742.974-9.948 1.056-3.012 3.733-6.176 7.119-5.95 3.123.196 5.459 3.215 6.388 6.122.97 3.041.877 6.4.793 9.362l-1.455-.039c.082-2.848.172-6.074-.724-8.878-.777-2.437-2.653-4.96-5.092-5.113-2.655-.162-4.774 2.467-5.656 4.979-1.038 2.957-.96 6.398-.891 9.431zm19.998 25.17-7.696-7.694a.363.363 0 1 1 .515-.515l7.696 7.694a.364.364 0 1 1-.515.515m2.791-1.734L55.884 60a.363.363 0 1 1 .515-.515l6.794 6.794a.363.363 0 1 1-.515.514m.95-4.054-4.763-4.766a.364.364 0 1 1 .515-.514l4.763 4.765a.364.364 0 1 1-.515.515m.537-4.586-3.395-3.395a.363.363 0 1 1 .515-.515l3.395 3.395a.363.363 0 1 1-.515.515m.714-3.812-3.039-3.038a.364.364 0 1 1 .515-.515l3.039 3.038a.364.364 0 1 1-.515.515m-9.367 14.696-6.775-6.776a.363.363 0 1 1 .515-.514l6.775 6.775a.36.36 0 0 1 0 .513.36.36 0 0 1-.515.002m-3.499 1.265-6.731-6.73a.364.364 0 1 1 .515-.515l6.731 6.73a.364.364 0 1 1-.515.515m-3.795.136L43.14 65.36a.364.364 0 1 1 .515-.515l5.08 5.08a.363.363 0 1 1-.516.514m-3.754.176-4.304-4.303a.364.364 0 1 1 .514-.515L44.98 70.1a.363.363 0 1 1-.515.515m-3.757.535-3.527-3.527a.364.364 0 1 1 .515-.515l3.527 3.527a.363.363 0 1 1-.515.515m-3.487.443-2.897-2.898a.364.364 0 1 1 .513-.515l2.898 2.898a.363.363 0 1 1-.514.514"/><path fill="#036" d="M34.443 71.435a.364.364 0 0 1 0-.515l6.457-6.457a.363.363 0 1 1 .514.515l-6.458 6.457a.363.363 0 0 1-.513 0m3.929-.278 8.626-8.625a.364.364 0 1 1 .515.515l-8.626 8.625c-.342.34-.852-.176-.515-.515m4.528-.198a.363.363 0 0 1 0-.515l10.03-10.027a.36.36 0 0 1 .513 0 .36.36 0 0 1 0 .514L43.416 70.959a.365.365 0 0 1-.515 0m4.527-.515 10.465-10.466a.364.364 0 1 1 .515.514L47.943 70.957c-.342.342-.854-.175-.515-.513m7.266-.201a.364.364 0 0 1 0-.515l7.505-7.506a.363.363 0 1 1 .513.515l-7.505 7.506a.36.36 0 0 1-.513 0m1.904-5.717a.364.364 0 0 1 0-.515l4.885-4.885a.364.364 0 1 1 .514.515l-4.884 4.885a.365.365 0 0 1-.515 0m3.117-6.089a.363.363 0 0 1-.258-.621l4.233-4.233a.36.36 0 0 1 .514 0 .36.36 0 0 1 0 .514L59.97 58.33a.35.35 0 0 1-.256.107m1.89-6.219 2.104-2.106a.38.38 0 0 1 .291-.105l.873.082a.363.363 0 1 1-.067.723l-.701-.066-1.984 1.985c-.34.34-.857-.173-.516-.513m-21.256 1.436-3.748-3.75a.363.363 0 1 1 .515-.515l3.748 3.75a.363.363 0 1 1-.515.515m1.528-1.216-3.695-3.695a.364.364 0 1 1 .515-.515l3.695 3.694a.364.364 0 1 1-.515.516m2.665-2.082-3.09-3.09a.363.363 0 1 1 .515-.513l3.09 3.09a.364.364 0 1 1-.515.513"/><path fill="#036" d="M36.494 54.019a.364.364 0 0 1 0-.515l5.018-5.018a.364.364 0 1 1 .515.515l-5.019 5.018a.365.365 0 0 1-.514 0m1.371-4.735 2.837-2.836a.364.364 0 1 1 .514.515l-2.836 2.836c-.342.34-.854-.176-.515-.515m50.753 6.394-3.485-3.485a.363.363 0 1 1 .515-.515l3.485 3.485a.364.364 0 1 1-.515.515m2.495-2.048-3.229-3.23a.363.363 0 1 1 .515-.516l3.23 3.23a.364.364 0 0 1-.515.515m1.323-3.458-2.76-2.76a.364.364 0 1 1 .514-.514l2.76 2.76a.364.364 0 1 1-.514.514m-7.241 5.549-1.614-1.614a.364.364 0 1 1 .514-.515l1.615 1.613a.364.364 0 1 1-.515.515"/><path fill="#036" d="M83.359 56.363a.364.364 0 0 1-.258-.621l4.886-4.884a.363.363 0 1 1 .515.513l-4.886 4.885a.37.37 0 0 1-.257.107m4.525-2.019a.363.363 0 0 1 0-.514l3.705-3.707c.337-.337.855.173.515.515l-3.705 3.706a.365.365 0 0 1-.515 0m1.196-5.739a.363.363 0 0 1 0-.515l2.61-2.611a.363.363 0 1 1 .515.515l-2.61 2.61a.36.36 0 0 1-.515 0M49.132 16.385l-3.468-3.466a.364.364 0 1 1 .515-.515l3.468 3.466a.364.364 0 1 1-.515.515m2.248-1.401-3.489-3.49a.363.363 0 1 1 .515-.514l3.49 3.49a.364.364 0 1 1-.516.514m1.228-3.134-2.135-2.137a.364.364 0 1 1 .515-.515l2.137 2.137a.365.365 0 0 1-.516.515m.046-2.982-2.36-2.36a.364.364 0 1 1 .514-.515l2.361 2.36a.363.363 0 0 1-.515.515m-6.767 6.975c-.241 0-2.102-1.95-2.273-2.123a.364.364 0 1 1 .515-.514l2.016 2.016a.36.36 0 0 1 0 .513.36.36 0 0 1-.258.108"/><path fill="#036" d="M44.506 16.124a.364.364 0 0 1 0-.515l4.498-4.496a.363.363 0 1 1 .515.513l-4.498 4.498a.36.36 0 0 1-.515 0m4.274-1.315 3.571-3.571a.363.363 0 1 1 .515.513l-3.57 3.571c-.341.342-.853-.174-.516-.513m1.593-4.899a.362.362 0 0 1-.257-.62l2.05-2.05a.363.363 0 1 1 .514.516c-.17.168-2.065 2.154-2.307 2.154M11.001 54.756l-3.607-3.608a.363.363 0 1 1 .513-.515l3.608 3.607a.363.363 0 1 1-.514.515m1.666-.943c-.244 0-2.726-2.573-2.899-2.748a.363.363 0 1 1 .515-.515l2.641 2.64a.363.363 0 0 1-.257.623m1.175-3.255-2.038-2.038a.363.363 0 1 1 .515-.515l2.038 2.038a.364.364 0 1 1-.515.515m1.187-2.205-2.461-2.463a.364.364 0 1 1 .515-.515l2.46 2.462a.363.363 0 0 1 0 .514.363.363 0 0 1-.514.002"/><path fill="#036" d="M6.291 54.033a.363.363 0 0 1 0-.515l4.81-4.809a.364.364 0 0 1 .514.515l-4.81 4.81a.363.363 0 0 1-.514 0m4.242-.257a.363.363 0 0 1 0-.515l3.312-3.31a.363.363 0 1 1 .515.515l-3.312 3.31a.363.363 0 0 1-.515 0m1.441-3.307a.364.364 0 0 1 0-.514l2.615-2.616a.364.364 0 1 1 .515.514l-2.615 2.615a.363.363 0 0 1-.515.002m36.95 42.922-3.798-3.8a.364.364 0 1 1 .514-.514l3.798 3.799a.363.363 0 1 1-.514.515m3.261-2.327-3.583-3.583a.364.364 0 1 1 .515-.515l3.583 3.583a.364.364 0 1 1-.515.515m.64-4.08-2.98-2.98a.364.364 0 1 1 .514-.515l2.98 2.98a.364.364 0 1 1-.514.515m-2.605 4.97-2.983-2.984a.363.363 0 1 1 .515-.514l2.983 2.983a.364.364 0 1 1-.515.515m-4.598.619-1.986-1.987a.364.364 0 1 1 .515-.515l1.986 1.987a.364.364 0 1 1-.515.514"/><path fill="#036" d="M43.51 92.699a.364.364 0 0 1 0-.515l6.697-6.698a.364.364 0 1 1 .515.515l-6.698 6.698a.363.363 0 0 1-.514 0m6.458-.373a.364.364 0 0 1 0-.515l4.166-4.165c.337-.338.855.174.515.515l-4.166 4.165a.365.365 0 0 1-.515 0"/></svg>