<svg width="96" height="96" viewBox="0 0 96 96" fill="none" xmlns="http://www.w3.org/2000/svg">
<path d="M7.77892 53.9091L5.86765 51.9978C5.72511 51.8552 5.72511 51.6254 5.86765 51.4829C6.0102 51.3403 6.24002 51.3403 6.38256 51.4829L8.29383 53.3942C8.43638 53.5367 8.43638 53.7665 8.29383 53.9091C8.15129 54.0502 7.92147 54.0516 7.77892 53.9091Z" fill="#003366"/>
<path d="M86.1995 57.1577C85.2904 57.1577 84.4089 56.9512 83.5769 56.5454C81.7151 55.6494 80.2547 53.8399 79.5755 51.5854C78.2606 47.2159 80.4409 43.0312 84.4264 41.3657C88.6198 39.6203 93.5289 41.9403 94.0598 47.1068C94.5937 52.2748 90.7289 57.1577 86.1995 57.1577ZM84.9864 42.7083C81.7355 44.0668 79.8547 47.4676 80.9689 51.1665C81.5217 53.0036 82.7347 54.5265 84.2111 55.2377C88.2678 57.2217 93.158 52.5526 92.6126 47.2566C92.198 43.2043 88.4351 41.2785 84.9864 42.7083Z" fill="#003366"/>
<path d="M47.6555 17.393C43.5638 17.393 40.4177 13.3086 40.0453 9.49337C39.5842 4.73701 43.3442 1.4541 47.2933 1.4541C49.9246 1.4541 52.4235 2.7501 53.814 4.83447C54.6955 6.18574 55.1217 7.78428 55.0504 9.4701C54.8933 14.0694 51.1435 17.393 47.6555 17.393ZM47.2933 2.90865C44.1384 2.90865 41.1202 5.49192 41.494 9.35374C41.8358 12.8606 44.7158 15.9385 47.6555 15.9385C52.0628 15.9385 55.3675 9.86865 52.5995 5.63592C51.4969 3.9821 49.4111 2.90865 47.2933 2.90865Z" fill="#003366"/>
<path d="M7.27886 54.9404C2.59086 53.3288 1.06649 48.5157 2.29995 45.0844C3.12031 42.8502 5.12031 41.0379 7.52613 40.3513C11.8854 39.0175 17.5843 41.8859 17.1305 47.8626C16.7858 52.4197 12.7392 56.8502 7.27886 54.9404ZM7.93922 41.7462C5.95958 42.3106 4.32904 43.7797 3.66722 45.5804C2.22577 49.5892 5.46067 53.9412 9.84177 53.9412C13.2018 53.9412 15.449 50.795 15.6803 47.7521C16.057 42.7979 11.3239 40.7106 7.93922 41.7462Z" fill="#003366"/>
<path d="M47.109 94.5453C44.773 94.5453 42.3774 93.4384 40.6988 91.5868C39.189 89.9199 38.4661 87.9024 38.6625 85.9068C38.7338 85.0122 39.0203 84.1032 39.5148 83.2202C40.7948 80.9352 43.3345 79.5693 46.309 79.5693C50.1156 79.5693 53.3854 81.7759 54.261 84.9381L54.3614 85.3555C55.061 88.7257 53.2632 92.3679 50.1854 93.853C49.2254 94.3126 48.1912 94.5453 47.109 94.5453ZM46.3076 81.0239C43.8668 81.0239 41.8014 82.1104 40.7832 83.9301C40.3905 84.6268 40.165 85.3366 40.1098 86.0333C39.9541 87.6319 40.5447 89.2508 41.7767 90.6093C46.7192 96.0682 54.3847 91.6566 52.8545 85.3133C52.0399 82.3693 48.8894 81.0239 46.3076 81.0239Z" fill="#003366"/>
<path d="M40.0498 86.8171L39.2731 86.6949C23.6891 84.2237 9.66583 71.988 6.60547 53.1647C7.75747 53.5677 8.62292 53.94 9.84329 53.94C13.2033 53.94 15.4506 50.7938 15.6818 47.7509C16.0586 42.8026 11.3197 40.7022 7.94074 41.7451L6.77856 42.1015L7.0142 40.9102C10.2331 24.6251 23.7487 11.6855 40.6433 8.70802L41.4171 8.57129L41.4942 9.35238C41.836 12.8607 44.716 15.9386 47.6557 15.9386C50.3277 15.9386 53.4549 13.5706 53.6237 8.5742L54.4513 8.72256C71.0026 11.7 83.3196 26.0084 85.4287 41.94L85.5015 42.4913L84.9895 42.7051C81.7429 44.0622 79.852 47.4586 80.9691 51.1647C81.5233 53.0018 82.7349 54.5247 84.2113 55.236L84.7422 55.492C80.5676 72.4418 68.476 83.1007 53.116 86.388L52.8527 85.3117C52.0382 82.3677 48.8862 81.0222 46.3058 81.0222C43.8651 81.0222 41.7997 82.1087 40.7815 83.9284C40.3887 84.6251 40.1633 85.3349 40.108 86.0317L40.0498 86.8171ZM8.4382 55.2564C11.2629 69.6724 23.1058 82.3415 38.7757 85.1371C38.9153 84.4913 39.1626 83.8469 39.5146 83.22C40.7946 80.9349 43.3342 79.5691 46.3087 79.5691C50.0047 79.5691 53.196 81.652 54.1793 84.6687C69.1858 81.1749 79.5786 69.7087 83.0549 56.2629C81.4418 55.2957 80.1895 53.6244 79.5757 51.5851C78.3218 47.4193 80.2244 43.4411 83.9117 41.6011C81.708 26.6484 70.2215 13.4047 54.9778 10.3051C54.4047 14.6251 50.7771 17.3931 47.6542 17.3931C43.8433 17.3931 40.8498 13.8469 40.1589 10.2746C24.5735 13.3175 12.1007 25.1502 8.67238 40.0986C13.1509 39.4949 17.5262 42.6746 17.132 47.8629C16.8033 52.1975 13.2077 56.2018 8.4382 55.2564Z" fill="#003366"/>
<path d="M44.3811 73.0568C43.2713 73.0568 42.096 73.0466 40.8408 73.0277C38.1775 72.9884 35.3833 72.827 33.0779 71.3724C31.008 70.0691 29.4691 67.7579 28.7404 64.8619C27.904 61.5339 27.7499 52.8051 29.1477 48.7411C29.9128 46.5171 31.2117 44.6713 32.7128 43.6793C33.8779 42.9084 34.9673 42.8037 35.8793 42.8037C48.227 42.8037 34.2939 42.9971 54.5455 42.4982C57.0139 42.4401 59.9419 42.3819 62.3244 43.8597C64.1644 45.0001 65.5593 47.0335 66.2488 49.5819C66.7448 51.4102 68.736 64.6611 63.1099 69.6371C60.6022 71.8553 56.8757 73.0568 44.3811 73.0568ZM35.8793 44.2597C34.8815 44.2597 34.195 44.443 33.5157 44.8939C32.2764 45.7128 31.1855 47.2881 30.5222 49.2182C29.2233 52.9913 29.3731 61.4175 30.1513 64.5099C30.787 67.0408 32.1019 69.0422 33.8531 70.1448C35.84 71.3971 38.4059 71.5382 40.8626 71.5746C55.6364 71.787 59.7557 70.6597 62.1455 68.5491C66.7549 64.472 65.5651 52.6233 64.8437 49.9644C64.2488 47.7724 63.0808 46.0444 61.555 45.0975C59.5375 43.8466 56.8815 43.9004 54.5804 43.9557C25.9142 44.6611 45.2611 44.2597 35.8793 44.2597Z" fill="#003366"/>
<path d="M35.4448 43.3584C35.3284 38.9002 35.1975 33.8442 37.0317 29.338C38.719 25.1897 42.9284 20.8275 48.2361 21.1431C53.1335 21.4078 56.8237 25.5678 58.3074 29.5751C59.8914 33.8544 59.7343 38.5918 59.5975 42.7722L58.143 42.7242C58.2768 38.6777 58.4281 34.0915 56.9444 30.0813C55.6252 26.5206 52.3975 22.8246 48.1575 22.5948C43.5597 22.346 39.8797 26.202 38.3786 29.8864C36.6594 34.1104 36.7874 39.0049 36.8994 43.3206L35.4448 43.3584Z" fill="#003366"/>
<path d="M39.8887 43.3565C39.8174 40.1958 39.7374 36.6147 40.8632 33.4089C41.9192 30.3965 44.5956 27.2329 47.9817 27.4598C51.1047 27.6547 53.4407 30.6743 54.3701 33.5805C55.3403 36.622 55.2472 39.9805 55.1628 42.9434L53.7083 42.9041C53.7897 40.0561 53.8799 36.83 52.9839 34.0256C52.2072 31.5892 50.3308 29.0656 47.8916 28.9129C45.237 28.7514 43.1177 31.3798 42.2363 33.8918C41.1977 36.8489 41.2763 40.2903 41.3447 43.323L39.8887 43.3565Z" fill="#003366"/>
<path d="M59.8869 68.5273L52.1909 60.8328C52.0483 60.6902 52.0483 60.4604 52.1909 60.3178C52.3334 60.1753 52.5633 60.1753 52.7058 60.3178L60.4018 68.0124C60.5443 68.1549 60.5443 68.3848 60.4018 68.5273C60.2607 68.6684 60.0294 68.6698 59.8869 68.5273Z" fill="#003366"/>
<path d="M62.6784 66.7925L55.8843 59.9997C55.7417 59.8572 55.7417 59.6274 55.8843 59.4848C56.0268 59.3423 56.2566 59.3423 56.3992 59.4848L63.1933 66.279C63.3359 66.4216 63.3359 66.6514 63.1933 66.7939C63.0523 66.9336 62.821 66.9365 62.6784 66.7925Z" fill="#003366"/>
<path d="M63.6284 62.7385L58.8647 57.9734C58.7222 57.8308 58.7222 57.601 58.8647 57.4585C59.0087 57.3145 59.2385 57.3174 59.3796 57.4585L64.1433 62.2236C64.2858 62.3661 64.2858 62.5959 64.1433 62.7385C64.0022 62.8796 63.7709 62.8825 63.6284 62.7385Z" fill="#003366"/>
<path d="M64.1649 58.1525L60.77 54.7576C60.6274 54.615 60.6274 54.3852 60.77 54.2427C60.9125 54.1001 61.1424 54.1001 61.2849 54.2427L64.6798 57.6376C64.8224 57.7801 64.8224 58.0099 64.6798 58.1525C64.5373 58.2936 64.3074 58.295 64.1649 58.1525Z" fill="#003366"/>
<path d="M64.8789 54.341L61.8403 51.3025C61.6978 51.1599 61.6978 50.9301 61.8403 50.7876C61.9829 50.645 62.2127 50.645 62.3552 50.7876L65.3938 53.8261C65.5363 53.9687 65.5363 54.1985 65.3938 54.341C65.2512 54.4821 65.0214 54.4836 64.8789 54.341Z" fill="#003366"/>
<path d="M55.5121 69.0367L48.7368 62.2615C48.5942 62.1189 48.5942 61.8891 48.7368 61.7466C48.8793 61.604 49.1092 61.604 49.2517 61.7466L56.027 68.5218C56.1695 68.6644 56.1695 68.8942 56.027 69.0353C55.8859 69.1778 55.6561 69.1807 55.5121 69.0367Z" fill="#003366"/>
<path d="M52.0133 70.3022L45.2817 63.572C45.1392 63.4295 45.1392 63.1996 45.2817 63.0571C45.4243 62.9146 45.6541 62.9146 45.7966 63.0571L52.5283 69.7873C52.6708 69.9298 52.6708 70.1596 52.5283 70.3022C52.3872 70.4447 52.1559 70.4462 52.0133 70.3022Z" fill="#003366"/>
<path d="M48.2184 70.4384L43.1391 65.3591C42.9966 65.2166 42.9966 64.9868 43.1391 64.8442C43.2817 64.7017 43.5115 64.7017 43.654 64.8442L48.7333 69.9235C48.8759 70.066 48.8759 70.2958 48.7333 70.4384C48.5908 70.5795 48.361 70.5809 48.2184 70.4384Z" fill="#003366"/>
<path d="M44.4646 70.6148L40.1606 66.3122C40.0181 66.1697 40.0181 65.9399 40.1606 65.7973C40.3032 65.6548 40.533 65.6548 40.6755 65.7973L44.9795 70.0999C45.1221 70.2424 45.1221 70.4722 44.9795 70.6148C44.837 70.7559 44.6072 70.7588 44.4646 70.6148Z" fill="#003366"/>
<path d="M40.7084 71.1501L37.1811 67.6228C37.0386 67.4802 37.0386 67.2504 37.1811 67.1079C37.3237 66.9653 37.5535 66.9653 37.696 67.1079L41.2233 70.6352C41.3659 70.7777 41.3659 71.0075 41.2233 71.1501C41.0808 71.2912 40.8509 71.2926 40.7084 71.1501Z" fill="#003366"/>
<path d="M37.2212 71.5925L34.3237 68.6951C34.1812 68.5525 34.1812 68.3227 34.3237 68.1802C34.4663 68.0376 34.6961 68.0376 34.8372 68.1802L37.7346 71.0776C37.8772 71.2202 37.8772 71.45 37.7346 71.5925C37.595 71.7336 37.3637 71.7351 37.2212 71.5925Z" fill="#003366"/>
<path d="M34.4428 71.435C34.3003 71.2924 34.3003 71.0626 34.4428 70.9201L40.8996 64.4634C41.0421 64.3208 41.2719 64.3208 41.4145 64.4634C41.557 64.6059 41.557 64.8357 41.4145 64.9783L34.9563 71.435C34.8167 71.5761 34.5854 71.5775 34.4428 71.435Z" fill="#003366"/>
<path d="M38.3724 71.1572L46.9978 62.5317C47.1404 62.3892 47.3702 62.3892 47.5127 62.5317C47.6553 62.6743 47.6553 62.9041 47.5127 63.0466L38.8873 71.6721C38.5454 72.0124 38.0349 71.4961 38.3724 71.1572Z" fill="#003366"/>
<path d="M42.9009 70.9585C42.7583 70.816 42.7583 70.5862 42.9009 70.4436L52.9285 60.4175C53.071 60.2749 53.3009 60.2749 53.4419 60.4175C53.5845 60.56 53.5845 60.7898 53.4419 60.9309L43.4158 70.9585C43.2732 71.0996 43.0434 71.1011 42.9009 70.9585Z" fill="#003366"/>
<path d="M47.4276 70.4435L57.8931 59.978C58.0356 59.8355 58.2655 59.8355 58.408 59.978C58.5505 60.1205 58.5505 60.3504 58.408 60.4915L47.9425 70.9569C47.6007 71.2987 47.0887 70.7824 47.4276 70.4435Z" fill="#003366"/>
<path d="M54.6938 70.2425C54.5513 70.1 54.5513 69.8701 54.6938 69.7276L62.1993 62.2221C62.3418 62.0796 62.5716 62.0796 62.7127 62.2221C62.8553 62.3647 62.8553 62.5945 62.7127 62.7371L55.2073 70.2425C55.0662 70.3851 54.8364 70.3865 54.6938 70.2425Z" fill="#003366"/>
<path d="M56.5981 64.5257C56.4556 64.3832 56.4556 64.1533 56.5981 64.0108L61.4825 59.1264C61.625 58.9839 61.8548 58.9839 61.9974 59.1264C62.1399 59.269 62.1399 59.4988 61.9974 59.6413L57.113 64.5257C56.9719 64.6668 56.7421 64.6683 56.5981 64.5257Z" fill="#003366"/>
<path d="M59.715 58.4373C59.6204 58.4373 59.5288 58.4024 59.4575 58.3311C59.3149 58.1886 59.3149 57.9587 59.4575 57.8162L63.6902 53.5835C63.8328 53.4409 64.0626 53.4409 64.2037 53.5835C64.3462 53.726 64.3462 53.9558 64.2037 54.0969L59.971 58.3297C59.9011 58.4024 59.8095 58.4373 59.715 58.4373Z" fill="#003366"/>
<path d="M61.6036 52.218L63.7084 50.1118C63.7855 50.0362 63.8989 49.9984 63.9993 50.0071L64.872 50.0885C65.0713 50.1075 65.2182 50.2849 65.2007 50.4842C65.1818 50.6835 64.9986 50.8362 64.8051 50.8115L64.104 50.746L62.12 52.7315C61.7796 53.0704 61.2633 52.5584 61.6036 52.218Z" fill="#003366"/>
<path d="M40.3484 53.6539L36.6001 49.904C36.4575 49.7615 36.4575 49.5317 36.6001 49.3891C36.7441 49.2451 36.9739 49.248 37.115 49.3891L40.8633 53.139C41.0059 53.2815 41.0059 53.5113 40.8633 53.6539C40.7223 53.795 40.4924 53.7979 40.3484 53.6539Z" fill="#003366"/>
<path d="M41.8757 52.4375L38.1811 48.7429C38.0386 48.6004 38.0386 48.3705 38.1811 48.228C38.3237 48.0855 38.5535 48.0855 38.696 48.228L42.3906 51.9225C42.5331 52.0651 42.5331 52.2949 42.3906 52.4375C42.2495 52.5785 42.0197 52.5815 41.8757 52.4375Z" fill="#003366"/>
<path d="M44.5411 50.3563L41.4516 47.2668C41.3091 47.1243 41.3091 46.8945 41.4516 46.7534C41.5942 46.6108 41.824 46.6108 41.9665 46.7534L45.056 49.8428C45.1985 49.9854 45.1985 50.2152 45.056 50.3578C44.9149 50.4974 44.6851 50.4988 44.5411 50.3563Z" fill="#003366"/>
<path d="M36.4936 54.0189C36.3511 53.8764 36.3511 53.6465 36.4936 53.504L41.5118 48.4858C41.6544 48.3433 41.8842 48.3433 42.0267 48.4858C42.1693 48.6284 42.1693 48.8582 42.0267 49.0007L37.0085 54.0189C36.8674 54.16 36.6362 54.1615 36.4936 54.0189Z" fill="#003366"/>
<path d="M37.8651 49.2841L40.7015 46.4477C40.8441 46.3052 41.0739 46.3052 41.2164 46.4477C41.359 46.5903 41.359 46.8201 41.2164 46.9626L38.38 49.799C38.0382 50.1394 37.5262 49.623 37.8651 49.2841Z" fill="#003366"/>
<path d="M88.6184 55.6782L85.1333 52.1931C84.9907 52.0506 84.9907 51.8207 85.1333 51.6782C85.2773 51.5342 85.5071 51.5371 85.6482 51.6782L89.1333 55.1633C89.2758 55.3058 89.2758 55.5357 89.1333 55.6782C88.9922 55.8178 88.7624 55.8222 88.6184 55.6782Z" fill="#003366"/>
<path d="M91.1133 53.6297L87.8843 50.3992C87.7417 50.2566 87.7417 50.0268 87.8843 49.8843C88.0283 49.7417 88.2581 49.7417 88.3992 49.8843L91.6283 53.1148C91.7708 53.2573 91.7708 53.4872 91.6283 53.6282C91.4872 53.7693 91.2573 53.7737 91.1133 53.6297Z" fill="#003366"/>
<path d="M92.437 50.1711L89.6762 47.4119C89.5337 47.2693 89.5337 47.0395 89.6762 46.8969C89.8188 46.7544 90.0486 46.7544 90.1912 46.8969L92.9519 49.6562C93.0944 49.7988 93.0944 50.0286 92.9519 50.1711C92.8108 50.3122 92.5795 50.3137 92.437 50.1711Z" fill="#003366"/>
<path d="M85.1961 55.7193L83.5815 54.1062C83.439 53.9636 83.439 53.7338 83.5815 53.5913C83.7241 53.4487 83.9539 53.4487 84.0964 53.5913L85.711 55.2044C85.8535 55.3469 85.8535 55.5767 85.711 55.7193C85.5655 55.8633 85.3357 55.8604 85.1961 55.7193Z" fill="#003366"/>
<path d="M83.3585 56.3633C83.264 56.3633 83.1723 56.3284 83.101 56.2572C82.9585 56.1146 82.9585 55.8848 83.101 55.7423L87.9869 50.8579C88.1294 50.7153 88.3592 50.7153 88.5018 50.8579C88.6443 51.0004 88.6443 51.2303 88.5018 51.3713L83.616 56.2557C83.5447 56.327 83.4501 56.3633 83.3585 56.3633Z" fill="#003366"/>
<path d="M87.8843 54.3444C87.7417 54.2019 87.7417 53.9721 87.8843 53.8295L91.589 50.1233C91.9264 49.7859 92.4443 50.2964 92.1039 50.6382L88.3992 54.3444C88.2581 54.4855 88.0283 54.487 87.8843 54.3444Z" fill="#003366"/>
<path d="M89.0796 48.6048C88.937 48.4623 88.937 48.2324 89.0796 48.0899L91.6905 45.479C91.833 45.3364 92.0628 45.3364 92.2054 45.479C92.3479 45.6215 92.3479 45.8513 92.2054 45.9939L89.5945 48.6048C89.4519 48.7473 89.2221 48.7488 89.0796 48.6048Z" fill="#003366"/>
<path d="M49.1322 16.3849L45.6645 12.9187C45.522 12.7761 45.522 12.5463 45.6645 12.4038C45.8071 12.2612 46.0369 12.2612 46.1794 12.4038L49.6471 15.87C49.7896 16.0125 49.7896 16.2423 49.6471 16.3849C49.5016 16.5289 49.2718 16.526 49.1322 16.3849Z" fill="#003366"/>
<path d="M51.3805 14.9843L47.8911 11.4949C47.7485 11.3523 47.7485 11.1225 47.8911 10.98C48.0336 10.8374 48.2635 10.8374 48.406 10.98L51.8955 14.4694C52.038 14.612 52.038 14.8418 51.8955 14.9843C51.7529 15.1254 51.5231 15.1269 51.3805 14.9843Z" fill="#003366"/>
<path d="M52.6084 11.8494L50.4731 9.71264C50.3306 9.57009 50.3306 9.34027 50.4731 9.19773C50.6157 9.05518 50.8455 9.05518 50.988 9.19773L53.1248 11.3345C53.2673 11.477 53.2673 11.7068 53.1248 11.8479C52.9822 11.9905 52.7524 11.9919 52.6084 11.8494Z" fill="#003366"/>
<path d="M52.6551 8.86829L50.2944 6.50756C50.1519 6.36502 50.1519 6.1352 50.2944 5.99265C50.437 5.85011 50.6668 5.85011 50.8093 5.99265L53.17 8.35338C53.3126 8.49592 53.3126 8.72574 53.17 8.86683C53.0275 9.00938 52.7977 9.01083 52.6551 8.86829Z" fill="#003366"/>
<path d="M45.8882 15.8426C45.6467 15.8426 43.7864 13.8921 43.6147 13.7204C43.4722 13.5779 43.4722 13.3481 43.6147 13.2055C43.7573 13.063 43.9871 13.063 44.1296 13.2055L46.1456 15.2215C46.2882 15.3641 46.2882 15.5939 46.1456 15.735C46.0744 15.8077 45.9827 15.8426 45.8882 15.8426Z" fill="#003366"/>
<path d="M44.5063 16.1237C44.3638 15.9811 44.3638 15.7513 44.5063 15.6088L49.0038 11.1128C49.1463 10.9702 49.3761 10.9702 49.5187 11.1128C49.6612 11.2553 49.6612 11.4851 49.5187 11.6262L45.0212 16.1237C44.8787 16.2662 44.6489 16.2677 44.5063 16.1237Z" fill="#003366"/>
<path d="M48.7804 14.8087L52.3513 11.2378C52.4938 11.0952 52.7237 11.0952 52.8662 11.2378C53.0087 11.3803 53.0087 11.6101 52.8662 11.7512L49.2953 15.3221C48.9549 15.664 48.4429 15.1476 48.7804 14.8087Z" fill="#003366"/>
<path d="M50.3732 9.90979C50.2801 9.90979 50.187 9.87488 50.1157 9.80361C49.9732 9.66106 49.9732 9.43124 50.1157 9.29015L52.1652 7.2407C52.3077 7.09815 52.5375 7.09815 52.6801 7.2407C52.8226 7.38324 52.8226 7.61306 52.6801 7.75561C52.5099 7.92433 50.6146 9.90979 50.3732 9.90979Z" fill="#003366"/>
<path d="M11.0013 54.7555L7.39402 51.1482C7.25147 51.0056 7.25147 50.7758 7.39402 50.6333C7.53656 50.4907 7.76638 50.4907 7.90747 50.6333L11.5147 54.2405C11.6573 54.3831 11.6573 54.6129 11.5147 54.7555C11.3737 54.8965 11.1438 54.898 11.0013 54.7555Z" fill="#003366"/>
<path d="M12.667 53.8118C12.4226 53.8118 9.94113 51.2387 9.76804 51.0642C9.6255 50.9217 9.6255 50.6918 9.76804 50.5493C9.91059 50.4067 10.1404 50.4067 10.283 50.5493L12.9244 53.1893C13.067 53.3318 13.067 53.5617 12.9244 53.7042C12.8531 53.7755 12.7615 53.8118 12.667 53.8118Z" fill="#003366"/>
<path d="M13.842 50.5571L11.8042 48.5193C11.6616 48.3767 11.6616 48.1469 11.8042 48.0044C11.9467 47.8618 12.1765 47.8618 12.3191 48.0044L14.3569 50.0422C14.4994 50.1847 14.4994 50.4146 14.3569 50.5571C14.2144 50.6982 13.9845 50.7011 13.842 50.5571Z" fill="#003366"/>
<path d="M15.0289 48.3519L12.5678 45.8894C12.4253 45.7469 12.4253 45.517 12.5678 45.3745C12.7104 45.2319 12.9402 45.2319 13.0828 45.3745L15.5438 47.8356C15.6864 47.9781 15.6864 48.2079 15.5438 48.3505C15.4028 48.493 15.1729 48.4945 15.0289 48.3519Z" fill="#003366"/>
<path d="M6.29148 54.0331C6.14893 53.8905 6.14893 53.6607 6.29148 53.5182L11.1002 48.7094C11.2428 48.5669 11.4726 48.5669 11.6137 48.7094C11.7562 48.852 11.7562 49.0818 11.6137 49.2244L6.80493 54.0331C6.66384 54.1742 6.43402 54.1756 6.29148 54.0331Z" fill="#003366"/>
<path d="M10.5327 53.7771C10.3901 53.6345 10.3901 53.4047 10.5327 53.2622L13.8447 49.9516C13.9887 49.8076 14.2185 49.8105 14.3596 49.9516C14.5021 50.0942 14.5021 50.324 14.3596 50.4665L11.0476 53.7771C10.9065 53.9182 10.6752 53.9211 10.5327 53.7771Z" fill="#003366"/>
<path d="M11.9741 50.4705C11.8316 50.3279 11.8316 50.0981 11.9741 49.9556L14.5894 47.3403C14.7319 47.1978 14.9617 47.1978 15.1043 47.3403C15.2468 47.4829 15.2468 47.7127 15.1043 47.8538L12.489 50.469C12.3465 50.6116 12.1166 50.613 11.9741 50.4705Z" fill="#003366"/>
<path d="M48.9243 93.3928L45.1264 89.5935C44.9839 89.451 44.9839 89.2211 45.1264 89.0786C45.2704 88.9346 45.5003 88.9375 45.6399 89.0786L49.4377 92.8779C49.5803 93.0204 49.5803 93.2502 49.4377 93.3928C49.2981 93.5339 49.0683 93.5368 48.9243 93.3928Z" fill="#003366"/>
<path d="M52.1846 91.0657L48.602 87.4831C48.4595 87.3406 48.4595 87.1108 48.602 86.9682C48.7446 86.8257 48.9744 86.8257 49.1169 86.9682L52.6995 90.5508C52.842 90.6933 52.842 90.9231 52.6995 91.0657C52.5584 91.2068 52.3286 91.2082 52.1846 91.0657Z" fill="#003366"/>
<path d="M52.8246 86.986L49.8442 84.0056C49.7017 83.8631 49.7017 83.6332 49.8442 83.4907C49.9868 83.3482 50.2166 83.3482 50.3591 83.4907L53.3395 86.4711C53.482 86.6136 53.482 86.8434 53.3395 86.986C53.1969 87.1271 52.9671 87.1285 52.8246 86.986Z" fill="#003366"/>
<path d="M50.2201 91.9557L47.2368 88.9724C47.0942 88.8299 47.0942 88.6 47.2368 88.4575C47.3793 88.3149 47.6092 88.3149 47.7517 88.4575L50.735 91.4408C50.8775 91.5833 50.8775 91.8131 50.735 91.9557C50.5924 92.0968 50.3626 92.0982 50.2201 91.9557Z" fill="#003366"/>
<path d="M45.6217 92.5745L43.6362 90.5876C43.4937 90.4451 43.4937 90.2153 43.6362 90.0727C43.7802 89.9302 44.01 89.9302 44.1511 90.0727L46.1366 92.0596C46.2791 92.2022 46.2791 92.432 46.1366 92.5745C45.9955 92.7142 45.7657 92.7185 45.6217 92.5745Z" fill="#003366"/>
<path d="M43.5102 92.6989C43.3677 92.5564 43.3677 92.3265 43.5102 92.184L50.207 85.4858C50.3495 85.3433 50.5793 85.3433 50.7219 85.4858C50.8644 85.6284 50.8644 85.8582 50.7219 86.0007L44.0237 92.6989C43.884 92.84 43.6542 92.8415 43.5102 92.6989Z" fill="#003366"/>
<path d="M49.9682 92.3257C49.8257 92.1831 49.8257 91.9533 49.9682 91.8108L54.1341 87.6464C54.4715 87.3075 54.9893 87.8195 54.649 88.1613L50.4831 92.3257C50.3406 92.4668 50.1108 92.4682 49.9682 92.3257Z" fill="#003366"/>
</svg>
