<svg xmlns="http://www.w3.org/2000/svg" width="96" height="96" fill="none" viewBox="0 0 96 96"><path fill="#06c" d="M14.536 37.206c5.219 2.59 10.887 3.618 16.85 3.618h.002c14.956 0 28.514-8.09 33.225-20.154 1.565.29 2.784.276 3.667-.335 3.888-2.735-.835-13.888-.882-13.999-3.226-7.522-8.02-5.034-14.338-2.02-4.26 2.034-6.008 2.579-7.302 4.2-2.838 3.604.615 5.976 4.814 7.784-6.068 12.243-21.941 21.887-35.603 19.821-.357-.054-.695.016-.803.358-.107.342.05.566.37.727m15.967 1.74.522.52-.441.44c-.246-.006-.49-.02-.736-.03l-.36-.36.964-.963c-.057.135-.057.285.05.393m5.486-.249c.018.032.013.071.04.1l.766.764c-.335.047-.677.07-1.013.108.022-.114.008-.231-.08-.32l-.181-.182zm3.114-.2.541.542c-.44.096-.888.172-1.335.253zm2.064-2.063c.018.032.013.071.041.099l.674.673-.623.623a.364.364 0 1 0 .515.515l.622-.623.457.455q-1.175.367-2.384.66l-.85-.852zm3.315-.8 1.12 1.118-.12.121c-.108.108-.108.26-.051.391q-.888.353-1.801.66l-.72-.72zm5.429-.527-.818-.817.969-.969.817.818zm-.636.393q-1.277.686-2.624 1.274l-.02-.02 1.949-1.95zM35.07 39.743l-.141.014.078-.078zm17.518-6.285 1.142-1.142.182.182q-.648.494-1.324.96m8.285-9.53a.365.365 0 0 0 .515-.515l-1.11-1.111 1.772-1.772.806.806a26.7 26.7 0 0 1-3.44 5.735l-1.073-1.074 2.3-2.3zm-1.908 3.72a30 30 0 0 1-1.459 1.635l-1.274-1.275c.06-.016.122-.024.169-.07l1.427-1.427zm5.361-8.244a.72.72 0 0 0-.856.457c-.092.254-.211.497-.311.747l-.594-.594.12-.121a.363.363 0 1 0-.514-.515l-.12.12-.341-.34 2.3-2.3 1.246 1.244-.723.723a.363.363 0 1 0 .515.515l.723-.723.941.941c-.614.127-1.405.085-2.386-.154m3.852-5.084-.538-.538.384-.384q.089.47.154.922m-15.962 1.918a.73.73 0 0 0-.372-.974l-.38-.162c-3.699-1.586-6.59-3.103-4.567-5.676 1.1-1.38 3.08-2.012 6.787-3.778 6.942-3.312 9.843-4.578 12.378 1.337.724 1.67 1.4 3.759 1.827 5.753-.112-.019-.227-.005-.314.083l-.45.45-1.878-1.882a.364.364 0 1 0-.515.515l1.88 1.88-.672.672a.364.364 0 1 0 .514.515l.672-.672L68.23 15.4c.02.02.051.016.076.03.148 1.816-.059 3.284-.848 3.848l-1.171-1.172.867-.867.254.254a.36.36 0 0 0 .258.106.364.364 0 0 0 .258-.621l-.39-.388c-.015-.061-.024-.127-.072-.175s-.113-.056-.174-.072l-1.637-1.637a.364.364 0 1 0-.515.515l1.503 1.503-.867.867-1.245-1.245.125-.126a.363.363 0 1 0-.515-.514l-2.941 2.94c-.374-.376-.865.162-.534.494l.032.032c-.107.142-.112.34.018.471a.36.36 0 0 0 .257.106c.077 0 .148-.039.214-.088l.353.353-1.773 1.772-.195-.195a.363.363 0 1 0-.515.515l.195.195-.094.094a.364.364 0 1 0 .515.515l.094-.095.365.367-2.3 2.301-.121-.12a.363.363 0 1 0-.516.514l.121.121-1.427 1.427a.35.35 0 0 0-.09.297.363.363 0 0 0-.26.62l1.473 1.476c-.79.785-1.64 1.521-2.522 2.228l-.241-.241 1.398-1.398a.364.364 0 1 0-.516-.515L53.73 31.29l-.496-.496a.364.364 0 1 0-.515.514l.496.496-1.823 1.823-.817-.817.345-.345a.363.363 0 1 0-.515-.515l-.345.345-.045-.045a.364.364 0 1 0-.515.515l.045.045-.969.968-.874-.874a.363.363 0 1 0-.515.515l.874.874-1.949 1.95-1.12-1.12.88-.88a.364.364 0 1 0-.515-.514l-2.965 2.966-.674-.674c-.027-.027-.065-.023-.099-.04l.611-.611a.364.364 0 1 0-.515-.515l-2.62 2.62a.36.36 0 0 0-.506.002.36.36 0 0 0-.002.506l-1.003 1.003a.36.36 0 0 0-.099.24l-.944-.944c-.027-.028-.066-.025-.099-.041l1.135-1.135a.364.364 0 1 0-.515-.515l-2.06 2.059-.772-.774a.364.364 0 1 0-.515.515l.773.773-.686.69c-.442.028-.89.035-1.336.047-.009-.012-.006-.028-.016-.04l-.397-.397 1.77-1.77a.363.363 0 1 0-.515-.515l-1.77 1.77-.522-.52c-.108-.108-.258-.108-.392-.051l.611-.611a.364.364 0 1 0-.515-.515L28.971 39l-.32-.32a.363.363 0 1 0-.515.515l.32.32-.287.287a36 36 0 0 1-9.05-1.944c13.035-.135 27.523-9.584 33.097-21.621M62.546 36.776c-.135 1.607.292 10.713.746 20.352.333 7.07.646 13.75.695 16.666.117 7.232 3.67 8.745 10.627 9.122q.517.029.978.029c4.417 0 5.402-1.945 5.521-4.863.29-7.221.559-13.281.784-18.385 1.12-25.271 1.21-27.337-2.256-30.434-4.077-3.645-16.169-3.565-17.095 7.513m12.147 44.688c-2.91-.157-4.956-.53-6.38-1.287l.402-.402.282.283a.36.36 0 0 0 .257.106.363.363 0 0 0 .257-.621l-.281-.283 1.498-1.498 1.153 1.154-.676.676a.364.364 0 1 0 .515.515l.676-.676.637.637a.36.36 0 0 0 .258.106.364.364 0 0 0 .258-.621l-.638-.637 1.742-1.743L76.2 78.72l-1.755 1.755a.364.364 0 1 0 .516.514l1.754-1.754 1.72 1.721c-.597.343-1.49.534-2.843.534q-.426 0-.9-.025M71.24 77.25l1.743-1.743 1.153 1.154-1.742 1.742zm6.772-.343-1.301 1.3-1.547-1.546 1.3-1.3zm2.466-18.12-.038.845c-.014.347-.03.709-.046 1.064l-.912-.912zm.243-5.515-.895-.895.974-.974zm-7.699-24.674c2.24 0 4.457.688 5.648 1.752 2.528 2.257 2.825 4.072 2.172 20.023-.022.014-.051.01-.07.029l-1.46 1.46-.235-.234a.363.363 0 1 0-.515.515l.234.234-.625.626a.363.363 0 1 0 .515.514l.626-.625 1.365 1.366-.168 3.836a.33.33 0 0 0-.302 0c-.011-.018-.007-.041-.023-.057l-1.587-1.587 1.731-1.73a.364.364 0 1 0-.515-.514l-1.73 1.729-.38-.38a.363.363 0 1 0-.515.515l.38.38-.184.183a.363.363 0 1 0 .515.515l.183-.183 1.587 1.587c.003.003.009.001.012.004l-.722.721a.36.36 0 0 0-.497.008.36.36 0 0 0-.007.497l-1.661 1.661a.364.364 0 1 0 .514.515l1.656-1.655 1.168 1.168a.35.35 0 0 0 .22.092c-.207 4.686-.446 10.128-.7 16.464-.04 1.02-.147 1.866-.66 2.468l-1.77-1.77 1.301-1.302.1.1a.36.36 0 0 0 .258.106.364.364 0 0 0 .257-.621l-.1-.1.53-.53a.363.363 0 1 0-.514-.516l-.53.531-1.588-1.587c.048-.13.047-.272-.058-.375s-.246-.105-.375-.058l-2.237-2.237a.364.364 0 1 0-.515.515l2.196 2.196-1.3 1.3-1.154-1.153.93-.93a.363.363 0 1 0-.515-.514l-.93.929-.87-.871a.364.364 0 1 0-.516.515l.871.87-1.742 1.743-1.165-1.165a.363.363 0 1 0-.515.515l1.165 1.165-1.498 1.499-1.312-1.312a.363.363 0 1 0-.515.514l1.312 1.312-.522.523c-1.599-1.157-2.19-3.02-2.237-6.012-.048-2.94-.362-9.63-.697-16.711-.41-8.742-.877-18.65-.75-20.162.651-7.706 7.079-8.304 9.035-8.304M56.013 45.761c-4.074-2.488-16.038-2.407-16.987 5.34-.13 1.055.21 6.207.743 13.946.333 4.85.647 9.429.695 11.421.146 6.07 5.722 6.275 10.64 6.457q.507.019.959.019c3.825 0 5.374-.99 5.524-3.532l1.516-25.691c.12-2.05.346-5.862-3.09-7.96M41.917 76.433c-.048-2.024-.363-6.62-.698-11.485-.407-5.941-.871-12.675-.75-13.67.776-6.352 11.495-6.285 14.785-4.273 1.591.972 2.183 2.387 2.368 3.942l-.943.942-.234-.234a.363.363 0 1 0-.515.515l.234.234-.625.626a.364.364 0 1 0 .515.515l.625-.626.957.957-.018.325c-.139-.082-.313-.088-.435.033l-1.73 1.73-.38-.381a.364.364 0 1 0-.516.514l.381.381-.184.185a.363.363 0 1 0 .515.515l.184-.185 1.589 1.589c.002.003.007.001.01.004l-.72.72a.36.36 0 0 0-.498.007.36.36 0 0 0-.007.498l-1.661 1.661a.364.364 0 1 0 .515.515l1.655-1.657.869.87-.15 2.54c-.03.016-.066.013-.09.037l-1.315 1.315-.97-.97a.363.363 0 1 0-.514.515l.969.969-1.558 1.558a.364.364 0 1 0 .515.514l1.558-1.557.96.961a.36.36 0 0 0 .242.1l-.097 1.64c-.11-.018-.224 0-.31.084l-.797.797-1.95-1.95a.364.364 0 1 0-.515.515l1.95 1.95-1.95 1.95a.363.363 0 1 0 .515.516l1.95-1.95.938.937-.254 4.316-.438.438-1.587-1.587c.047-.13.045-.27-.058-.375s-.246-.105-.375-.059l-2.238-2.237a.363.363 0 1 0-.514.515l2.196 2.197-1.302 1.3-1.153-1.154.93-.929a.363.363 0 1 0-.516-.515l-.93.93-.87-.872a.363.363 0 1 0-.515.515l.87.871-1.742 1.743-1.165-1.165a.364.364 0 1 0-.515.515l1.165 1.165-1.498 1.497-1.313-1.312a.364.364 0 1 0-.515.514l1.313 1.313-.823.823a.364.364 0 0 0 0 .515c.032.032.079.03.118.05-1.837-.663-2.883-1.876-2.94-4.25M57.683 52.89l-.489-.489.495-.494q.013.487-.006.983m-3.09 25.856 1.3-1.302.103.102a.36.36 0 0 0 .238.1l-.099 1.68c-.016.281-.039.563-.133.83zm.787-1.815-1.3 1.302-1.546-1.547 1.302-1.3zm1.264-6.24-.481-.482.541-.54zm.258-4.355-.738-.739.831-.83zm.497-8.432-1.43-1.431 1.61-1.61zm-.085 1.441-.051.876-.412-.412zm-5.808 17.341-1.743 1.743-1.153-1.153 1.742-1.743zm-.348 4.783c-2.52-.093-4.6-.234-6.147-.743a.36.36 0 0 0 .25-.103l.823-.824.284.284a.36.36 0 0 0 .515 0 .363.363 0 0 0 0-.515l-.284-.284 1.497-1.496 1.154 1.153-.675.675a.363.363 0 1 0 .515.515l.674-.675.638.637a.36.36 0 0 0 .257.106.364.364 0 0 0 .258-.621l-.638-.637 1.743-1.743 1.546 1.547-1.754 1.754a.364.364 0 1 0 .515.515l1.754-1.754 1.5 1.5c-.585.495-1.805.81-4.425.71M24.107 58.304c-5.03.397-7.823 1.85-8.304 4.316-.136.7.135 3.37.739 8.878 1.063 9.734-.674 11.184 11.342 11.465.396.009.781.044 1.15.044h.012c1.784 0 5.08-.035 5.31-2.478.29-3.079.556-5.681.78-7.861C36.249 61.89 36.39 60.5 32.664 59.07c-2.445-.938-5.957-.977-8.557-.766m4.926 23.188q-.537 0-1.115-.014c-3.304-.076-6.01-.214-7.62-.898l.494-.493.096.096a.36.36 0 0 0 .257.106.363.363 0 0 0 .257-.621l-.095-.096.867-.867 1.747 1.747a.36.36 0 0 0 .257.106.363.363 0 0 0 .257-.621l-.15-.15 1.557-1.556 1.73 1.73-.735.734a.364.364 0 1 0 .515.515l.734-.734.159.158a.36.36 0 0 0 .257.106.363.363 0 0 0 .257-.621l-.158-.158 1.212-1.212 2.08 2.08a.36.36 0 0 0 .257.106.363.363 0 0 0 .257-.621l-2.08-2.08 1.791-1.79c.127-.127.122-.318.024-.459l.797.797a.36.36 0 0 0 .257.107c.02 0 .035-.02.054-.022a634 634 0 0 0-.339 3.497c-.077.79-1.236 1.128-3.878 1.128m4.287-5.355-2.346-2.347 2.075-2.075.218.218a.36.36 0 0 0 .258.106c.081 0 .158-.039.224-.093l-.057.557c-.115 1.103-.24 2.311-.372 3.634m.81-8.088c-.089.985-.2 2.117-.333 3.41-.01-.012-.006-.03-.018-.04l-1.9-1.902 1.858-1.859zm.22-4.944c-.066.015-.134.027-.185.078l-.428.427-.778-.778a.363.363 0 1 0-.515.515l.778.778-1.124 1.124a.363.363 0 1 0 .515.515l1.124-1.124.013.013a.36.36 0 0 0 .515 0 .364.364 0 0 0 0-.515l-.013-.013.128-.128c-.001.61-.035 1.347-.099 2.239a.36.36 0 0 0-.25.103l-.294.294-.26-.26a.364.364 0 1 0-.515.514l.26.26-2.072 2.073a.364.364 0 0 0 0 .515c.004.005.013.003.017.008.016.058.023.12.068.165l1.296 1.296-2.11 2.11c-.134-.057-.285-.059-.394.05-.11.11-.108.262-.05.394l-.641.642a.364.364 0 1 0 .515.515l.606-.607 1.603 1.603c-.142-.099-.332-.103-.458.023l-1.79 1.791-.822-.822a.363.363 0 1 0-.515.515l.822.822-1.212 1.212-1.73-1.73 2.121-2.12a.364.364 0 1 0-.515-.516l-2.12 2.121-.478-.477a.363.363 0 1 0-.514.515l.477.477-1.557 1.556-1.082-1.082 2.54-2.54a.363.363 0 1 0-.515-.514l-2.54 2.54-1.037-1.042a.363.363 0 1 0-.515.515l1.037 1.037-.867.867-.865-.866a.364.364 0 0 0-.515 0c-.378.379.458.972.865 1.38l-.642.642c-1.214-.835-.768-.883-1.648-8.878-.361-3.302-.857-7.824-.755-8.441.334-1.722 2.752-2.809 6.99-3.145 2.381-.189 5.712-.177 7.922.67 1.4.538 2.066.808 2.208 2.684M86.25 85.38c-.337-.135-1.127-.45-13.982-.45-20.43 0-56.044.778-59.075 1.012-1.534.116-3.145.304-4.499 1.155-1.395.877-2.525 2.844-1.876 4.625 1.26 3.452 4.974 2.963 29.358 2.757 10.623-.089 25.171-.246 45.36-.246 9.682-.036 9.305-7.021 4.715-8.854m-.491 6.81c-1.927.811.419.421-49.596.836-20.912.177-27.07.69-27.98-1.8-.373-1.028.36-2.28 1.286-2.862 1.072-.675 2.427-.845 3.835-.954 3.018-.232 38.56-1.017 58.964-1.017 11.2 0 13.137.24 13.443.342 2.907 1.16 2.916 4.244.048 5.454"/><path fill="#06c" d="M75.817 72.65a.36.36 0 0 0 .257.105.36.36 0 0 0 .258-.106l1.95-1.95.95.95a.365.365 0 0 0 .515-.515l-.95-.95.797-.797a.363.363 0 1 0-.515-.515l-.797.797-1.95-1.95a.363.363 0 1 0-.515.514l1.95 1.95-1.95 1.951a.363.363 0 0 0 0 .515"/><path fill="#06c" d="M76.466 67.751a.36.36 0 0 0 .257-.106l1.56-1.558.96.96a.365.365 0 0 0 .515-.515l-.96-.96 1.314-1.314a.364.364 0 1 0-.514-.515l-1.315 1.315-.97-.97a.363.363 0 1 0-.514.514l.969.97-1.56 1.56a.363.363 0 0 0 .258.62M67.066 52.342c.013.192.172.12.362.12h.025c.2 0 .352.033.337-.166l-.83-12.438c-.211-3.178.2-5.039 1.328-6.156 1.183-1.17 3.32-1.566 6.7-1.303.238.036.375-.12.39-.32a.357.357 0 0 0-.332-.384c-3.666-.282-5.909.196-7.269 1.542-1.291 1.278-1.767 3.26-1.541 6.666z"/></svg>