<svg xmlns="http://www.w3.org/2000/svg" width="96" height="96" fill="none" viewBox="0 0 96 96"><path fill="#036" d="M32.749 73.15c-2.186 0-4.196-1.98-6.324-4.076a.72.72 0 0 1-.203-.665.72.72 0 0 1 .448-.53c.815-.318 1.563-.827 2.287-1.32 1.166-.794 2.374-1.614 3.88-1.654.209.01.415.07.556.208.142.14.25.329.248.524-.015 2.367.02 4.635.102 6.745a.73.73 0 0 1-.66.753q-.168.014-.334.015m-4.56-4.383c1.444 1.4 2.819 2.612 4.071 2.874a152 152 0 0 1-.077-5.175c-.817.214-1.568.724-2.407 1.297-.508.344-1.026.696-1.587 1.004"/><path fill="#036" d="M32.742 80.012c-.211-2.407-.362-4.954-.453-7.577a150 150 0 0 1-.104-5.969c-.812.212-1.558.72-2.396 1.289-1.414.957-3.014 2.042-5.372 2.083h-.004c-1.82 0-3.414-.723-4.374-1.933-1.29-1.63-1.767-4.783-1.134-7.5.493-2.12 1.606-3.687 3.137-4.416 3.132-1.514 6.092.45 8.62 2.284.668.482 1.3.94 1.76 1.154.321-4.005.996-10.856.817-12.46-.235-2.025-.728-6.242 2.49-8.262 1.489-.946 3.333-1 4.816-1.042 4.963-.14 9.507-.22 13.894-.247.205-.03.38.075.517.212a.72.72 0 0 1 .213.515c0 1.615-.842 2.729-1.78 4.023-1.488 2.056-3.342 4.614-2.145 7.126.448.93 1.363 1.696 2.509 2.099.87.295 1.915.44 3 .44 1.8 0 3.366-.388 4.193-1.038 1.537-1.217 2.266-3.873-.405-7.736-.81-1.177-1.648-2.393-1.69-3.919-.016-.4.017-.777.103-1.178a.73.73 0 0 1 .71-.575l3.777-.004c2.207 0 5.212.025 7.314.048 2.497.032 5.09.205 6.976 1.869 2.413 2.125 2.631 5.606 2.646 8.703.029 3.662.055 7.325.07 10.965 2.403-.154 4.282-3.431 8.344-3.473h.003c5.478 0 6.394 5.755 5.472 9.609-.986 4.126-4.308 5.518-7.629 4.343-2.57-.867-4.206-2.807-5.873-3.556q-.132-.061-.265-.111l.067 11.194c.011 1.613.03 4.615-1.88 6.272-1.35 1.138-3.146 1.264-4.87 1.299l-15.022.364c-.21-.025-.392-.073-.532-.214a.74.74 0 0 1-.212-.532 4.9 4.9 0 0 1 .458-1.9c.275-.607.76-1.28 1.322-2.058 1.485-2.059 3.332-4.62 2.144-7.117-.452-.949-1.41-1.728-2.631-2.14-.732-.25-1.77-.393-2.846-.393-1.816 0-3.396.387-4.228 1.033-.86.692-1.39 1.933-1.376 3.229.02 1.882.937 3.242 1.823 4.559.794 1.176 1.613 2.392 1.654 3.882.016.384-.028.746-.096 1.17a.726.726 0 0 1-.7.61l-15.331.364c-3.478.102-5.101-1.014-5.501-5.388m.113-15.107c.192 0 .402.074.539.208.14.14.248.329.247.524-.015 2.366.02 4.635.102 6.745.088 2.599.24 5.121.448 7.5.344 3.788 1.514 4.136 4.013 4.063l14.707-.347a3 3 0 0 0 .002-.291c-.029-1.075-.666-2.024-1.405-3.119-.96-1.424-2.048-3.038-2.07-5.357-.021-1.757.7-3.398 1.928-4.385 1.562-1.216 4.109-1.347 5.13-1.347 1.248 0 2.425.165 3.312.468 1.59.535 2.857 1.591 3.476 2.892 1.56 3.274-.657 6.347-2.274 8.592-.496.686-.963 1.335-1.182 1.81a4 4 0 0 0-.208.566l14.162-.341c1.527-.031 2.974-.124 3.955-.95 1.29-1.117 1.383-3.247 1.37-5.154l-.073-12.13c-.007-1.074 1.359-.74 2.329-.287 1.884.842 3.41 2.717 5.744 3.504 2.61.92 4.976-.106 5.74-3.306.705-2.95.253-7.817-3.95-7.817-4.053.044-5.677 3.942-9.278 3.441a.73.73 0 0 1-.63-.717c-.014-3.867-.042-7.766-.073-11.662-.014-2.783-.192-5.894-2.152-7.62-1.514-1.337-3.718-1.477-6.03-1.506a741 741 0 0 0-7.298-.048l-3.138.004q-.005.122.002.248c.029 1.107.711 2.094 1.432 3.141.18.262.36.521.53.784 2.458 3.686 1.65 7.28-.42 8.921-1.548 1.222-4.079 1.353-5.096 1.353-1.252 0-2.44-.169-3.344-.476l-.138-.046c-1.507-.531-2.724-1.568-3.337-2.844-1.57-3.296.655-6.365 2.278-8.608.495-.682.96-1.325 1.177-1.798q.145-.325.227-.637c-4.12.03-8.391.11-13.03.242-1.303.036-2.927.084-4.08.816-2.15 1.348-2.146 4.096-1.821 6.867.218 1.956-.579 9.514-.883 13.665a.73.73 0 0 1-.855.662 4.6 4.6 0 0 1-1.09-.36c-.596-.267-1.268-.754-2.046-1.317-2.211-1.602-4.688-3.328-7.14-2.152-1.125.537-1.959 1.756-2.348 3.435-.522 2.245-.146 4.999.858 6.267.678.854 1.875 1.383 3.124 1.383 2.015-.031 3.363-.948 4.67-1.834 1.164-.788 2.367-1.605 3.864-1.643q.015-.002.023-.002"/><path fill="#036" d="M19.532 61.675a.73.73 0 0 1-.526-.225C18.27 60.673 6.473 48.145 5.64 47.483c-2.722-2.153-4.057-4.052-4.203-5.98-.17-2.273 1.408-4.273 2.802-5.762 3.69-3.891 6.758-7.07 9.658-10.008a.72.72 0 0 1 .515-.215h.003c.193 0 .378.077.513.212 2.072 2.072 1.195 5.323 2.642 8.281 1.223 2.415 3.508 3.212 5.825 2.04.966-.47 1.887-1.234 2.908-2.402 2.106-2.43 2.22-4.496.346-6.317-2.631-2.52-6.174-1.382-8.428-3.497a5 5 0 0 1-.753-.905.73.73 0 0 1 .095-.909 673 673 0 0 1 7.877-7.803c1.862-1.813 3.743-3.452 6.252-3.608 3.172-.228 5.81 2.075 8.033 4.267 3.958 3.91 5.385 5.319 7.795 7.712.685-.797.89-1.874 1.125-3.115.32-1.675.682-3.576 2.326-5.243 1.188-1.24 2.896-1.907 4.468-1.74 2.67.326 5.591 3.364 6.59 5.34.755 1.549.895 3.15.399 4.518-.468 1.346-1.574 2.514-3.108 3.282-2.451 1.196-4.956.982-6.69 1.631q-.135.051-.26.108l7.965 7.872c.714.698 1.456 1.466 2.038 2.328a.728.728 0 0 1-.484 1.27q-.01.002-.03 0h-1.558q-.004.122.002.247c.029 1.107.711 2.095 1.433 3.142q.272.391.53.784a.73.73 0 0 1-.029.828c-.542.732-4.305 4.675-7.522 8.03l-.68.707a.74.74 0 0 1-.768.185c-1.507-.53-2.724-1.568-3.336-2.843-1.57-3.295.659-6.374 2.286-8.622.514-.708.954-1.319 1.168-1.786q.145-.326.227-.637c-4.12.03-8.391.11-13.03.242-1.303.036-2.926.084-4.08.816-2.15 1.348-2.145 4.096-1.82 6.867.217 1.956-.58 9.517-.884 13.665a.73.73 0 0 1-.855.662 4.6 4.6 0 0 1-1.09-.36c-.581-.261-1.243-.741-2.011-1.298-2.192-1.592-4.713-3.356-7.175-2.17-1.678.8-2.238 2.706-2.42 3.774a.73.73 0 0 1-.715.602m-5.185-34.329a711 711 0 0 0-9.052 9.391c-1.764 1.886-2.51 3.324-2.409 4.657.112 1.491 1.274 3.065 3.657 4.947.941.752 11.775 12.267 12.607 13.145.554-1.642 1.553-2.862 2.891-3.5 3.082-1.486 6.018.39 8.658 2.304.683.498 1.277.928 1.722 1.135.321-4.007.996-10.857.817-12.461-.235-2.025-.728-6.242 2.49-8.262 1.488-.945 3.333-1 4.816-1.041 4.963-.14 9.507-.22 13.894-.248.205-.03.38.076.517.213a.72.72 0 0 1 .213.515c0 1.61-.832 2.71-1.77 4.008-1.492 2.063-3.351 4.629-2.154 7.14.391.812 1.136 1.497 2.083 1.928l.34-.355c1.513-1.578 5.792-6.04 7.082-7.504-.919-1.351-1.854-2.585-1.9-4.222-.017-.4.017-.777.103-1.179a.73.73 0 0 1 .71-.574h.72c-.34-.386-.707-.755-1.068-1.109l-8.629-8.526a.729.729 0 0 1 .06-1.087c.39-.31.851-.567 1.372-.765 1.97-.736 4.358-.499 6.557-1.572 1.187-.594 2.035-1.47 2.384-2.467.358-.988.236-2.217-.332-3.383-.944-1.865-3.593-4.315-5.457-4.541-1.074-.121-2.368.382-3.255 1.307-2.57 2.608-1.347 6.127-3.516 8.432a4 4 0 0 1-.559.506.73.73 0 0 1-.948-.067c-2.48-2.465-4.004-3.965-8.29-8.202-1.975-1.949-4.318-4.065-6.913-3.848-2.019.125-3.674 1.585-5.334 3.198a650 650 0 0 0-7.414 7.338c.824.908 2.124 1.132 3.342 1.37 1.682.33 3.59.703 5.275 2.318 2.436 2.366 2.342 5.319-.259 8.318-.727.834-1.864 2.023-3.358 2.752-3.062 1.55-6.17.477-7.776-2.697-.73-1.492-.944-2.989-1.133-4.308-.168-1.167-.318-2.207-.784-3.004"/><path fill="#036" d="m52.546 49.568-2.424-2.427a.363.363 0 1 1 .513-.515l2.425 2.427a.363.363 0 1 1-.514.515M53.512 46.903l-2.29-2.29a.363.363 0 1 1 .514-.516l2.291 2.291a.363.363 0 0 1-.515.515M54.364 44.289l-1.713-1.712a.363.363 0 1 1 .513-.515l1.714 1.712a.364.364 0 1 1-.514.515M55.423 41.955c-.235 0-1.436-1.285-1.618-1.468a.363.363 0 1 1 .515-.515l1.361 1.36a.363.363 0 0 1-.258.623M55.512 39.939l-1.101-1.101a.364.364 0 1 1 .514-.515l1.102 1.1a.363.363 0 1 1-.515.516"/><path fill="#036" d="M50.817 50.273a.363.363 0 0 1-.257-.621l2.75-2.751a.363.363 0 1 1 .514.515l-2.75 2.75a.36.36 0 0 1-.258.107M50.984 47.247a.363.363 0 0 1-.258-.62l2.977-2.978a.364.364 0 1 1 .515.515l-2.977 2.977a.36.36 0 0 1-.258.106M53.641 42.614l2.35-2.35a.363.363 0 1 1 .515.514l-2.35 2.35c-.339.338-.858-.172-.515-.514M30.072 69.585 28.9 68.414a.363.363 0 1 1 .515-.515l1.17 1.17a.364.364 0 1 1-.514.516"/><path fill="#036" d="M28.517 70.298a.364.364 0 0 1 .085-.508l2.423-1.732-1.021-1.021a.363.363 0 1 1 .513-.515l1.325 1.325a.363.363 0 0 1-.045.553l-2.772 1.98a.36.36 0 0 1-.508-.082M52.272 78.359l-2.077-2.076a.364.364 0 0 1 .513-.515l2.077 2.076a.363.363 0 1 1-.513.515M53.05 76.173l-2.705-2.706a.363.363 0 1 1 .515-.513l2.706 2.705a.364.364 0 1 1-.515.513M54.687 73.733l-2.49-2.49a.364.364 0 1 1 .516-.515l2.488 2.49a.364.364 0 1 1-.514.515M57.682 72.506l-2.299-2.298a.363.363 0 1 1 .515-.515l2.298 2.298a.364.364 0 1 1-.514.515M60.836 72.622l-2.416-2.414a.363.363 0 1 1 .515-.515l2.416 2.414a.364.364 0 1 1-.515.515"/><path fill="#036" d="m51.308 77.473 2.641-2.641a.364.364 0 1 1 .515.514l-2.641 2.643c-.34.338-.853-.179-.515-.516M51.714 74.388a.364.364 0 0 1-.258-.621l3.096-3.096a.363.363 0 1 1 .515.515l-3.096 3.095a.36.36 0 0 1-.257.107M55.605 73.319a.363.363 0 0 1 0-.515l2.422-2.422a.364.364 0 1 1 .515.515L56.12 73.32a.365.365 0 0 1-.515 0M58.792 73.172a.363.363 0 0 1 0-.515l1.594-1.594a.363.363 0 1 1 .515.515l-1.595 1.594a.365.365 0 0 1-.514 0M38.473 61.938a.364.364 0 0 1 0-.515l8.016-8.017a.364.364 0 1 1 .515.513l-8.016 8.018a.363.363 0 0 1-.515.001"/><path fill="#036" d="m41.858 61.723-3.066-3.065a.363.363 0 1 1 .514-.515l3.065 3.065a.363.363 0 1 1-.513.515M42.831 60.38l-2.439-2.44a.363.363 0 1 1 .515-.515l2.44 2.44a.363.363 0 1 1-.516.514M44.471 58.422l-2-2.002a.363.363 0 1 1 .515-.514l2 2.002a.364.364 0 1 1-.515.514M45.724 56.474 44.23 54.98a.363.363 0 1 1 .515-.515l1.492 1.493a.363.363 0 1 1-.513.515M67.952 59.03l-3.97-3.97a.363.363 0 1 1 .516-.515l3.97 3.97a.363.363 0 1 1-.516.515M70.149 57.468l-3.527-3.527a.363.363 0 1 1 .514-.515l3.528 3.527a.363.363 0 1 1-.515.515M71 54.96l-1.979-1.979a.363.363 0 1 1 .515-.515l1.978 1.98a.364.364 0 1 1-.515.515M73.073 53.436l-2.853-2.854a.363.363 0 1 1 .515-.515l2.853 2.854a.364.364 0 1 1-.515.515"/><path fill="#036" d="M65.421 58.819a.363.363 0 0 1 0-.515l8.317-8.317a.363.363 0 1 1 .515.515l-8.317 8.317a.363.363 0 0 1-.515 0M32.387 29.428a.363.363 0 0 1 0-.515l6.45-6.45a.363.363 0 1 1 .514.515l-6.449 6.45a.363.363 0 0 1-.515 0"/><path fill="#036" d="m35.148 28.86-2.506-2.507a.363.363 0 1 1 .515-.515l2.506 2.506a.364.364 0 1 1-.515.515M37.017 26.372l-1.812-1.813a.363.363 0 1 1 .514-.515l1.813 1.813a.363.363 0 0 1-.515.515M37.844 24.635l-1.612-1.613a.364.364 0 1 1 .513-.515l1.612 1.613a.364.364 0 1 1-.514.515"/></svg>