<svg width="96" height="96" viewBox="0 0 96 96" fill="none" xmlns="http://www.w3.org/2000/svg">
<path d="M32.749 73.1496C30.5628 73.1496 28.5526 71.17 26.4246 69.074C26.2486 68.9009 26.1715 68.6507 26.2225 68.4093C26.2719 68.1678 26.4392 67.9671 26.6705 67.8784C27.485 67.5613 28.2326 67.0522 28.957 66.5591C30.1235 65.7649 31.3308 64.9445 32.8363 64.9053C33.0457 64.9155 33.2523 64.9751 33.3934 65.1133C33.5345 65.2529 33.6421 65.442 33.6406 65.6369C33.6261 68.0035 33.661 70.2725 33.7425 72.3816C33.757 72.7685 33.4661 73.0987 33.0821 73.1351C32.9715 73.1438 32.8595 73.1496 32.749 73.1496ZM28.189 68.7671C29.6334 70.1678 31.0079 71.3795 32.2603 71.6413C32.2065 69.9947 32.1803 68.2595 32.1832 66.466C31.3657 66.6798 30.6152 67.1904 29.7759 67.7635C29.2683 68.1067 28.7505 68.4587 28.189 68.7671Z" fill="#003366"/>
<path d="M32.7419 80.0121C32.531 77.6049 32.3797 75.058 32.2895 72.4354C32.2168 70.5576 32.1819 68.5518 32.1848 66.466C31.3732 66.6783 30.627 67.186 29.7892 67.7547C28.3753 68.7118 26.7753 69.7969 24.4175 69.8376C24.4161 69.8376 24.4146 69.8376 24.4132 69.8376C22.5921 69.8376 20.9993 69.1147 20.0393 67.9045C18.7492 66.2754 18.2721 63.122 18.9048 60.4049C19.3979 58.2856 20.5106 56.7176 22.0423 55.9889C25.1739 54.4747 28.1339 56.4383 30.6619 58.2725C31.3295 58.7554 31.9623 59.2121 32.4219 59.4274C32.7433 55.4216 33.4183 48.5707 33.2393 46.9663C33.0037 44.9416 32.5106 40.7249 35.7295 38.7045C37.2175 37.759 39.0619 37.7052 40.5455 37.663C45.5084 37.5234 50.0524 37.4434 54.4393 37.4158C54.6444 37.3852 54.819 37.4914 54.9557 37.6281C55.0939 37.7649 55.1695 37.951 55.1695 38.143C55.1695 39.7576 54.3273 40.8718 53.3892 42.1663C51.9012 44.2216 50.0466 46.7801 51.2437 49.2921C51.6917 50.2216 52.6066 50.9881 53.7528 51.391C54.6226 51.6863 55.6684 51.8318 56.7521 51.8318C58.5528 51.8318 60.1193 51.4434 60.9455 50.7932C62.483 49.5758 63.2117 46.9198 60.5412 43.0565C59.731 41.8798 58.8932 40.6638 58.851 39.138C58.835 38.738 58.8684 38.3612 58.9543 37.9598C59.0255 37.6252 59.3223 37.3852 59.6641 37.3852L63.4415 37.3809C65.6481 37.3809 68.6532 37.4056 70.755 37.4289C73.2524 37.4609 75.8459 37.6339 77.731 39.2979C80.1441 41.423 80.3623 44.9038 80.3768 48.0005C80.4059 51.663 80.4321 55.3256 80.4466 58.9663C82.8495 58.8121 84.7288 55.535 88.7913 55.4929H88.7943C94.2721 55.4929 95.1884 61.2485 94.2663 65.1016C93.2801 69.2281 89.9579 70.6201 86.6372 69.4449C84.067 68.578 82.4306 66.6376 80.7637 65.8885C80.675 65.8492 80.5877 65.81 80.499 65.778L80.5659 76.9721C80.5775 78.5852 80.5964 81.5874 78.6852 83.2441C77.3353 84.3816 75.5404 84.5081 73.8168 84.543L58.7943 84.9067C58.5833 84.882 58.4015 84.834 58.2619 84.6929C58.1223 84.5503 58.0466 84.3598 58.0495 84.1605C58.0655 83.5365 58.2241 82.8805 58.5077 82.2609C58.7826 81.6543 59.2684 80.9809 59.8299 80.2027C61.315 78.1445 63.1623 75.583 61.9739 73.0856C61.5215 72.1372 60.5644 71.3576 59.3426 70.946C58.611 70.6958 57.5739 70.5532 56.4975 70.5532C54.6808 70.5532 53.1012 70.9401 52.2692 71.586C51.4095 72.2783 50.8786 73.519 50.8932 74.815C50.9121 76.6972 51.8299 78.0572 52.7157 79.3736C53.5099 80.5503 54.3288 81.7663 54.3695 83.2558C54.3855 83.6398 54.3419 84.002 54.2735 84.4252C54.2183 84.7714 53.923 85.0274 53.5739 85.0361L38.243 85.3998C34.7652 85.5016 33.1419 84.386 32.7419 80.0121ZM32.8553 64.9052C33.0473 64.9052 33.2568 64.9794 33.3935 65.1132C33.5346 65.2529 33.6423 65.442 33.6408 65.6369C33.6263 68.0034 33.6612 70.2725 33.7426 72.3816C33.8313 74.9809 33.9826 77.503 34.1906 79.8812C34.5353 83.6703 35.7048 84.018 38.2037 83.9452L52.9106 83.5976C52.9164 83.4987 52.9179 83.4012 52.9135 83.3067C52.8844 82.2318 52.2473 81.2834 51.5084 80.1881C50.5484 78.7641 49.4604 77.1496 49.4372 74.831C49.4168 73.074 50.1383 71.4332 51.3659 70.4456C52.9281 69.2296 55.475 69.0987 56.4961 69.0987C57.7441 69.0987 58.9208 69.2645 59.8081 69.567C61.3979 70.1023 62.6648 71.1583 63.2844 72.4587C64.8437 75.7329 62.627 78.8063 61.0095 81.0507C60.5135 81.7372 60.0466 82.386 59.8284 82.8616C59.7426 83.0492 59.6743 83.2383 59.6204 83.4274L73.7819 83.0856C75.3092 83.055 76.7564 82.962 77.7368 82.1358C79.027 81.0187 79.1201 78.8892 79.107 76.9823L79.0343 64.8514C79.027 63.778 80.3928 64.1125 81.363 64.5649C83.2466 65.407 84.7724 67.282 87.107 68.0689C89.7164 68.9896 92.083 67.9627 92.8466 64.7627C93.5521 61.8129 93.0997 56.946 88.8975 56.946C84.8437 56.9896 83.2204 60.8878 79.619 60.3874C79.2597 60.3394 78.9906 60.0325 78.9892 59.6703C78.9746 55.8027 78.947 51.9045 78.9164 48.0078C78.9019 45.2252 78.7244 42.114 76.7637 40.3874C75.2495 39.0507 73.0459 38.911 70.7332 38.8819C68.6619 38.8587 65.6204 38.8339 63.4357 38.8339L60.2983 38.8383C60.2953 38.9198 60.2953 39.0012 60.2997 39.0856C60.3288 40.1925 61.011 41.1801 61.7324 42.2274C61.9128 42.4892 62.0917 42.7481 62.2619 43.0114C64.7201 46.6972 63.9128 50.2914 61.8415 51.9321C60.2939 53.1539 57.763 53.2849 56.7463 53.2849C55.4939 53.2849 54.3055 53.1161 53.4023 52.8092C53.3993 52.8078 53.267 52.7627 53.2641 52.7627C51.7572 52.2318 50.5397 51.1947 49.9273 49.919C48.3579 46.623 50.5819 43.554 52.2052 41.311C52.6997 40.6289 53.1652 39.9859 53.3819 39.5132C53.4779 39.2965 53.555 39.0827 53.6088 38.8761C49.4895 38.9067 45.2175 38.9867 40.579 39.1176C39.2757 39.1539 37.6524 39.2019 36.499 39.9336C34.3492 41.2819 34.3535 44.0296 34.6779 46.8005C34.8961 48.7569 34.099 56.3147 33.795 60.466C33.763 60.8863 33.3833 61.199 32.9397 61.1278C32.6008 61.0667 32.2546 60.9518 31.8503 60.7685C31.2539 60.5009 30.5819 60.0136 29.8037 59.4507C27.5928 57.8492 25.1157 56.1227 22.6648 57.2994C21.539 57.8361 20.7055 59.055 20.3157 60.7336C19.7935 62.9794 20.1703 65.7329 21.1739 67.0012C21.8517 67.855 23.0488 68.3845 24.2983 68.3845C26.3128 68.3525 27.6612 67.4361 28.9688 66.5503C30.1324 65.762 31.3353 64.9445 32.8321 64.9067C32.8423 64.9052 32.8495 64.9052 32.8553 64.9052Z" fill="#003366"/>
<path d="M19.532 61.6752C19.3356 61.6752 19.1436 61.5952 19.0055 61.4497C18.2709 60.673 6.4731 48.145 5.63964 47.4832C2.91819 45.3304 1.58292 43.4308 1.43746 41.5035C1.26728 39.2301 2.84546 37.2301 4.23892 35.7406C7.9291 31.8497 10.9967 28.6715 13.8971 25.7333C14.0324 25.5952 14.2186 25.5181 14.412 25.5181H14.4149C14.6084 25.5181 14.7931 25.5952 14.9284 25.7304C16.9996 27.8017 16.1226 31.0526 17.5698 34.0112C18.7931 36.4257 21.0782 37.2228 23.3953 36.0519C24.3611 35.5806 25.2818 34.817 26.3029 33.649C28.4091 31.2199 28.5226 29.153 26.6491 27.3319C24.0178 24.8112 20.4746 25.9501 18.2215 23.8352C17.932 23.5602 17.6935 23.2737 17.468 22.9304C17.2818 22.6424 17.3211 22.2643 17.5626 22.0213C20.1836 19.3872 22.8047 16.7806 25.4404 14.2177C27.3022 12.4053 29.1829 10.7661 31.692 10.6104C34.8644 10.3821 37.5015 12.6846 39.7255 14.8766C43.6833 18.7879 45.1102 20.1959 47.5204 22.5886C48.2055 21.7915 48.4091 20.7152 48.6447 19.4744C48.9647 17.7988 49.3269 15.8977 50.9706 14.2308C52.1589 12.9915 53.8666 12.3239 55.4389 12.4912C58.1095 12.817 61.0302 15.8555 62.0295 17.8308C62.7844 19.3799 62.924 20.9813 62.428 22.3486C61.9596 23.6955 60.8542 24.8635 59.3197 25.6315C56.8687 26.8272 54.364 26.6133 52.6302 27.2621C52.54 27.2955 52.4542 27.3319 52.3698 27.3697L60.3349 35.2417C61.0491 35.9399 61.7909 36.7079 62.3727 37.5704C62.5226 37.7028 62.6157 37.8977 62.6157 38.113C62.6157 38.5144 62.2898 38.8403 61.8884 38.8403C61.8826 38.8417 61.8709 38.8403 61.8593 38.8403H60.3015C60.2986 38.9217 60.2986 39.0032 60.3029 39.0875C60.332 40.1944 61.0142 41.1821 61.7357 42.2293C61.916 42.4912 62.0949 42.7501 62.2651 43.0133C62.4295 43.2679 62.4178 43.5981 62.2375 43.841C61.6949 44.5726 57.932 48.5159 54.7146 51.8701L54.0353 52.5784C53.836 52.785 53.532 52.8533 53.2673 52.7632C51.7604 52.2323 50.5429 51.1952 49.9306 49.9195C48.3611 46.625 50.5895 43.5457 52.2171 41.2984C52.7306 40.5901 53.1713 39.9792 53.3851 39.5123C53.4811 39.2955 53.5582 39.0817 53.612 38.8752C49.4927 38.9057 45.2207 38.9857 40.5822 39.1166C39.2789 39.153 37.6556 39.201 36.5022 39.9326C34.3524 41.281 34.3567 44.0286 34.6811 46.7995C34.8993 48.7559 34.1022 56.3166 33.7982 60.465C33.7662 60.8853 33.3866 61.1981 32.9429 61.1268C32.604 61.0657 32.2578 60.9508 31.8535 60.7675C31.2716 60.5057 30.6098 60.0257 29.8418 59.4686C27.6498 57.8773 25.1291 56.113 22.6666 57.2984C20.9895 58.0984 20.4295 60.0053 20.2462 61.073C20.1996 61.345 20.0033 61.5661 19.7386 61.6461C19.6731 61.665 19.6033 61.6752 19.532 61.6752ZM14.3466 27.3464C11.6251 30.1115 8.73055 33.1166 5.29492 36.737C3.53055 38.6235 2.78582 40.0606 2.88619 41.3944C2.99819 42.8853 4.16037 44.4592 6.54292 46.3413C7.48401 47.0933 18.3175 58.6075 19.1495 59.4861C19.7036 57.8439 20.7029 56.6235 22.0411 55.9864C25.1233 54.4999 28.0586 56.3763 30.6986 58.2904C31.3822 58.7879 31.9756 59.2184 32.4207 59.425C32.7422 55.4177 33.4171 48.5682 33.2382 46.9639C33.0026 44.9392 32.5095 40.7224 35.7284 38.7021C37.2164 37.7566 39.0607 37.7028 40.5444 37.6606C45.5073 37.521 50.0513 37.441 54.4382 37.4133C54.6433 37.3828 54.8178 37.489 54.9546 37.6257C55.0927 37.7624 55.1684 37.9486 55.1684 38.1406C55.1684 39.7508 54.3364 40.8519 53.3982 42.1493C51.9058 44.2119 50.0469 46.7777 51.244 49.2897C51.6353 50.1013 52.38 50.7864 53.3269 51.217L53.6673 50.8621C55.18 49.2839 59.4593 44.8228 60.7495 43.3581C59.8302 42.0068 58.8949 40.7733 58.8484 39.1355C58.8324 38.7355 58.8658 38.3588 58.9516 37.9573C59.0229 37.6228 59.3196 37.3828 59.6615 37.3828H60.3815C60.0411 36.9973 59.6746 36.6279 59.3138 36.2744L50.6855 27.7479C50.5371 27.601 50.46 27.3988 50.4717 27.1908C50.4833 26.9828 50.5822 26.7922 50.7451 26.6613C51.1349 26.3515 51.596 26.0941 52.1167 25.8963C54.0877 25.1603 56.4746 25.3973 58.6738 24.3239C59.8607 23.7304 60.7087 22.8533 61.0578 21.857C61.4157 20.8693 61.2935 19.6403 60.7262 18.4737C59.7822 16.609 57.1335 14.1595 55.2687 13.9326C54.1953 13.8119 52.9007 14.3152 52.0135 15.2402C49.4433 17.8482 50.6666 21.3668 48.4978 23.6722C48.3466 23.8381 48.1531 24.017 47.9393 24.1784C47.6498 24.3922 47.2455 24.3675 46.9909 24.1115C44.5109 21.6461 42.9866 20.1464 38.7015 15.9093C36.7262 13.9602 34.3829 11.8439 31.788 12.0606C29.7691 12.1857 28.1138 13.6461 26.4542 15.2592C23.9756 17.6693 21.5073 20.1203 19.0404 22.5973C19.8636 23.505 21.164 23.729 22.3815 23.9661C24.0644 24.2977 25.9727 24.6701 27.6571 26.2846C30.0935 28.6512 29.9989 31.6039 27.3982 34.6032C26.6709 35.4366 25.5335 36.6264 24.0396 37.3552C20.9778 38.9042 17.8709 37.8322 16.2636 34.6584C15.5349 33.1661 15.3196 31.6693 15.1306 30.3501C14.9633 29.1835 14.8135 28.1435 14.3466 27.3464Z" fill="#003366"/>
<path d="M52.5463 49.5675L50.1216 47.1413C49.979 46.9988 49.979 46.769 50.1216 46.6264C50.2656 46.4839 50.4954 46.4839 50.635 46.6264L53.0597 49.0526C53.2023 49.1952 53.2023 49.425 53.0597 49.5675C52.9201 49.7072 52.6903 49.7115 52.5463 49.5675Z" fill="#003366"/>
<path d="M53.5121 46.903L51.2212 44.6121C51.0786 44.4695 51.0786 44.2397 51.2212 44.0971C51.3637 43.9546 51.5935 43.9546 51.7361 44.0971L54.027 46.3881C54.1695 46.5306 54.1695 46.7604 54.027 46.9015C53.8844 47.0441 53.6546 47.0455 53.5121 46.903Z" fill="#003366"/>
<path d="M54.3643 44.2889L52.6509 42.5769C52.5083 42.4344 52.5083 42.2045 52.6509 42.062C52.7934 41.9209 53.0232 41.918 53.1643 42.062L54.8778 43.774C55.0203 43.9165 55.0203 44.1464 54.8778 44.2889C54.7352 44.4329 54.5039 44.43 54.3643 44.2889Z" fill="#003366"/>
<path d="M55.4226 41.9547C55.1884 41.9547 53.987 40.6703 53.8052 40.487C53.6626 40.3445 53.6626 40.1147 53.8052 39.9721C53.9477 39.8296 54.1775 39.8296 54.3201 39.9721L55.6815 41.3321C55.8241 41.4747 55.8241 41.7045 55.6815 41.8471C55.6088 41.9183 55.5172 41.9547 55.4226 41.9547Z" fill="#003366"/>
<path d="M55.5117 39.9387L54.4106 38.8376C54.2681 38.6951 54.2681 38.4653 54.4106 38.3227C54.5532 38.1802 54.783 38.1802 54.9255 38.3227L56.0266 39.4238C56.1692 39.5664 56.1692 39.7962 56.0266 39.9387C55.8841 40.0798 55.6543 40.0813 55.5117 39.9387Z" fill="#003366"/>
<path d="M50.8165 50.2725C50.7234 50.2725 50.6303 50.2376 50.5591 50.1663C50.4165 50.0238 50.4165 49.7939 50.5591 49.6514L53.3096 46.9009C53.4522 46.7583 53.682 46.7583 53.8245 46.9009C53.9671 47.0434 53.9671 47.2732 53.8245 47.4158L51.074 50.1663C51.0027 50.2376 50.9111 50.2725 50.8165 50.2725Z" fill="#003366"/>
<path d="M50.9835 47.2474C50.8904 47.2474 50.7973 47.2125 50.726 47.1413C50.5835 46.9987 50.5835 46.7689 50.726 46.6264L53.7035 43.6489C53.8461 43.5064 54.0759 43.5064 54.2184 43.6489C54.361 43.7914 54.361 44.0213 54.2184 44.1638L51.241 47.1413C51.1697 47.2125 51.0766 47.2474 50.9835 47.2474Z" fill="#003366"/>
<path d="M53.641 42.6137L55.9915 40.2632C56.1341 40.1206 56.3639 40.1206 56.5064 40.2632C56.649 40.4057 56.649 40.6355 56.5064 40.7781L54.1559 43.1286C53.817 43.4661 53.2977 42.9555 53.641 42.6137Z" fill="#003366"/>
<path d="M30.0718 69.5847L28.9009 68.4138C28.7583 68.2713 28.7583 68.0414 28.9009 67.8989C29.0434 67.7564 29.2732 67.7564 29.4158 67.8989L30.5867 69.0698C30.7292 69.2124 30.7292 69.4422 30.5867 69.5847C30.4441 69.7258 30.2143 69.7273 30.0718 69.5847Z" fill="#003366"/>
<path d="M28.5171 70.2979C28.4008 70.135 28.4371 69.9081 28.6015 69.7903L31.0248 68.0579L30.0037 67.0369C29.8611 66.8943 29.8611 66.6645 30.0037 66.5219C30.1462 66.3794 30.3761 66.3794 30.5171 66.5219L31.8422 67.847C31.9179 67.9227 31.9557 68.0274 31.947 68.1336C31.9382 68.2398 31.883 68.3387 31.7971 68.3998L29.0248 70.3809C28.8691 70.4958 28.6379 70.4667 28.5171 70.2979Z" fill="#003366"/>
<path d="M52.2719 78.3586L50.1948 76.283C50.0523 76.1404 50.0523 75.9106 50.1948 75.768C50.3359 75.627 50.5657 75.624 50.7083 75.768L52.7853 77.8437C52.9279 77.9862 52.9279 78.216 52.7853 78.3586C52.6428 78.5026 52.413 78.4982 52.2719 78.3586Z" fill="#003366"/>
<path d="M53.0506 76.1725L50.3452 73.467C50.2026 73.3245 50.2026 73.0947 50.3452 72.9536C50.4877 72.811 50.7176 72.811 50.8601 72.9536L53.5656 75.659C53.7081 75.8016 53.7081 76.0314 53.5656 76.174C53.423 76.3136 53.1932 76.315 53.0506 76.1725Z" fill="#003366"/>
<path d="M54.6865 73.7331L52.1977 71.2429C52.0552 71.1004 52.0552 70.8706 52.1977 70.728C52.3417 70.584 52.5715 70.5869 52.7126 70.728L55.2014 73.2182C55.3439 73.3607 55.3439 73.5906 55.2014 73.7331C55.0603 73.8742 54.8305 73.8771 54.6865 73.7331Z" fill="#003366"/>
<path d="M57.6815 72.5059L55.3833 70.2078C55.2407 70.0652 55.2407 69.8354 55.3833 69.6928C55.5258 69.5503 55.7556 69.5503 55.8982 69.6928L58.1964 71.991C58.3389 72.1336 58.3389 72.3634 58.1964 72.5059C58.0553 72.647 57.824 72.6485 57.6815 72.5059Z" fill="#003366"/>
<path d="M60.8364 72.6223L58.4204 70.2078C58.2778 70.0652 58.2778 69.8354 58.4204 69.6928C58.5629 69.5503 58.7927 69.5503 58.9353 69.6928L61.3513 72.1074C61.4938 72.2499 61.4938 72.4798 61.3513 72.6223C61.2073 72.7663 60.9775 72.7619 60.8364 72.6223Z" fill="#003366"/>
<path d="M51.3077 77.473L53.9492 74.8315C54.0917 74.689 54.3215 74.689 54.4641 74.8315C54.6066 74.9741 54.6066 75.2039 54.4641 75.3464L51.8226 77.9893C51.4823 78.3268 50.9703 77.8104 51.3077 77.473Z" fill="#003366"/>
<path d="M51.714 74.3877C51.6209 74.3877 51.5278 74.3528 51.4565 74.2815C51.314 74.139 51.314 73.9092 51.4565 73.7666L54.5518 70.6714C54.6943 70.5288 54.9242 70.5288 55.0667 70.6714C55.2092 70.8139 55.2092 71.0437 55.0667 71.1863L51.9714 74.2815C51.9002 74.3528 51.8071 74.3877 51.714 74.3877Z" fill="#003366"/>
<path d="M55.605 73.319C55.4624 73.1765 55.4624 72.9467 55.605 72.8041L58.0268 70.3823C58.1693 70.2398 58.3991 70.2398 58.5417 70.3823C58.6842 70.5248 58.6842 70.7547 58.5417 70.8972L56.1199 73.319C55.9788 73.4601 55.749 73.4616 55.605 73.319Z" fill="#003366"/>
<path d="M58.7915 73.1721C58.6489 73.0295 58.6489 72.7997 58.7915 72.6571L60.3857 71.063C60.5282 70.9204 60.758 70.9204 60.9006 71.063C61.0431 71.2055 61.0431 71.4353 60.9006 71.5779L59.3064 73.1721C59.1638 73.3131 58.934 73.3146 58.7915 73.1721Z" fill="#003366"/>
<path d="M38.4731 61.9381C38.3306 61.7956 38.3306 61.5657 38.4731 61.4232L46.4891 53.4057C46.6317 53.2632 46.8615 53.2632 47.004 53.4057C47.1466 53.5483 47.1466 53.7781 47.004 53.9192L38.988 61.9366C38.8469 62.0792 38.6157 62.0806 38.4731 61.9381Z" fill="#003366"/>
<path d="M41.8577 61.7227L38.7915 58.658C38.6489 58.5154 38.6489 58.2856 38.7915 58.143C38.9326 58.002 39.1624 57.999 39.3064 58.143L42.3711 61.2078C42.5137 61.3503 42.5137 61.5801 42.3711 61.7227C42.2286 61.8667 41.9988 61.8638 41.8577 61.7227Z" fill="#003366"/>
<path d="M42.8313 60.3795L40.3921 57.9402C40.2495 57.7976 40.2495 57.5678 40.3921 57.4253C40.5346 57.2827 40.7644 57.2827 40.907 57.4253L43.3462 59.8645C43.4888 60.0071 43.4888 60.2369 43.3462 60.3795C43.2052 60.5205 42.9753 60.522 42.8313 60.3795Z" fill="#003366"/>
<path d="M44.4712 58.4216L42.4712 56.4202C42.3286 56.2776 42.3286 56.0478 42.4712 55.9067C42.6152 55.7627 42.845 55.7656 42.9861 55.9067L44.9861 57.9082C45.1286 58.0507 45.1286 58.2805 44.9861 58.4231C44.845 58.5613 44.6152 58.5656 44.4712 58.4216Z" fill="#003366"/>
<path d="M45.7238 56.4736L44.23 54.9812C44.0874 54.8386 44.0874 54.6088 44.23 54.4663C44.3725 54.3237 44.6023 54.3237 44.7449 54.4663L46.2372 55.9586C46.3798 56.1012 46.3798 56.331 46.2372 56.4736C46.0961 56.6146 45.8663 56.6161 45.7238 56.4736Z" fill="#003366"/>
<path d="M67.9523 59.0297L63.9829 55.0603C63.8403 54.9177 63.8403 54.6879 63.9829 54.5454C64.1254 54.4028 64.3552 54.4028 64.4978 54.5454L68.4672 58.5148C68.6098 58.6574 68.6098 58.8872 68.4672 59.0297C68.3247 59.1708 68.0949 59.1723 67.9523 59.0297Z" fill="#003366"/>
<path d="M70.1488 57.4684L66.6216 53.9412C66.479 53.7986 66.479 53.5688 66.6216 53.4262C66.7641 53.2837 66.9939 53.2837 67.1365 53.4262L70.6637 56.9535C70.8063 57.0961 70.8063 57.3259 70.6637 57.4684C70.5227 57.6095 70.2928 57.611 70.1488 57.4684Z" fill="#003366"/>
<path d="M70.9992 54.9608L69.021 52.9812C68.8784 52.8387 68.8784 52.6088 69.021 52.4663C69.1635 52.3223 69.3933 52.3252 69.5359 52.4663L71.5141 54.4459C71.6566 54.5885 71.6566 54.8183 71.5141 54.9608C71.3744 55.1005 71.1432 55.1048 70.9992 54.9608Z" fill="#003366"/>
<path d="M73.0726 53.4356L70.2202 50.5818C70.0776 50.4392 70.0776 50.2094 70.2202 50.0669C70.3642 49.9229 70.594 49.9258 70.7351 50.0669L73.5875 52.9207C73.73 53.0632 73.73 53.2931 73.5875 53.4356C73.4464 53.5767 73.2166 53.5796 73.0726 53.4356Z" fill="#003366"/>
<path d="M65.4214 58.8188C65.2788 58.6762 65.2788 58.4464 65.4214 58.3039L73.7385 49.9868C73.881 49.8442 74.1108 49.8442 74.2534 49.9868C74.3959 50.1293 74.3959 50.3592 74.2534 50.5017L65.9363 58.8188C65.7952 58.9599 65.5654 58.9628 65.4214 58.8188Z" fill="#003366"/>
<path d="M32.3872 29.4277C32.2446 29.2852 32.2446 29.0554 32.3872 28.9128L38.8366 22.4634C38.9792 22.3208 39.209 22.3208 39.3515 22.4634C39.4941 22.6059 39.4941 22.8357 39.3515 22.9783L32.9021 29.4277C32.7595 29.5688 32.5297 29.5717 32.3872 29.4277Z" fill="#003366"/>
<path d="M35.1482 28.8594L32.6421 26.3533C32.4995 26.2107 32.4995 25.9809 32.6421 25.8384C32.7846 25.6958 33.0144 25.6958 33.157 25.8384L35.6632 28.3445C35.8057 28.4871 35.8057 28.7169 35.6632 28.8594C35.5206 29.0005 35.2908 29.002 35.1482 28.8594Z" fill="#003366"/>
<path d="M37.0169 26.3717L35.2046 24.5593C35.062 24.4168 35.062 24.187 35.2046 24.0444C35.3471 23.9019 35.5769 23.9019 35.7195 24.0444L37.5318 25.8568C37.6744 25.9993 37.6744 26.2291 37.5318 26.3702C37.3907 26.5128 37.1595 26.5142 37.0169 26.3717Z" fill="#003366"/>
<path d="M37.8435 24.6353L36.2319 23.0222C36.0894 22.8797 36.0894 22.6498 36.2319 22.5073C36.3759 22.3633 36.6057 22.3662 36.7454 22.5073L38.357 24.1204C38.4995 24.2629 38.4995 24.4928 38.357 24.6353C38.2174 24.7764 37.9861 24.7793 37.8435 24.6353Z" fill="#003366"/>
</svg>
