<svg xmlns="http://www.w3.org/2000/svg" width="247" height="1222" fill="none" viewBox="0 0 247 1222"><path fill="url(#a)" d="M172.447 1222h344.899v86.083H172.447z" style="mix-blend-mode:overlay" transform="rotate(-120 172.447 1222)"/><path fill="url(#b)" d="M172.447 1096.27h344.899v86.083H172.447z" style="mix-blend-mode:overlay" transform="rotate(-120 172.447 1096.27)"/><path fill="url(#c)" d="M172.447 970.535h344.899v86.083H172.447z" style="mix-blend-mode:overlay" transform="rotate(-120 172.447 970.535)"/><path fill="url(#d)" d="M172.447 844.802h344.899v86.083H172.447z" style="mix-blend-mode:overlay" transform="rotate(-120 172.447 844.802)"/><path fill="url(#e)" d="M172.447 719.069h344.899v86.083H172.447z" style="mix-blend-mode:overlay" transform="rotate(-120 172.447 719.069)"/><path fill="url(#f)" d="M172.447 593.336h344.899v86.083H172.447z" style="mix-blend-mode:overlay" transform="rotate(-120 172.447 593.336)"/><path fill="url(#g)" d="M172.447 467.604h344.899v86.083H172.447z" style="mix-blend-mode:overlay" transform="rotate(-120 172.447 467.604)"/><path fill="url(#h)" d="M172.447 341.871h344.899v86.083H172.447z" style="mix-blend-mode:overlay" transform="rotate(-120 172.447 341.871)"/><defs><linearGradient id="a" x1="169.852" x2="517.822" y1="1284.49" y2="1284.49" gradientUnits="userSpaceOnUse"><stop stop-color="#207ad5" stop-opacity="0"/><stop offset="1" stop-color="#004d99"/></linearGradient><linearGradient id="b" x1="169.852" x2="517.822" y1="1158.76" y2="1158.76" gradientUnits="userSpaceOnUse"><stop stop-color="#207ad5" stop-opacity="0"/><stop offset="1" stop-color="#004d99"/></linearGradient><linearGradient id="c" x1="169.852" x2="517.822" y1="1033.03" y2="1033.03" gradientUnits="userSpaceOnUse"><stop stop-color="#207ad5" stop-opacity="0"/><stop offset="1" stop-color="#004d99"/></linearGradient><linearGradient id="d" x1="169.852" x2="517.822" y1="907.295" y2="907.295" gradientUnits="userSpaceOnUse"><stop stop-color="#207ad5" stop-opacity="0"/><stop offset="1" stop-color="#004d99"/></linearGradient><linearGradient id="e" x1="169.852" x2="517.822" y1="781.562" y2="781.562" gradientUnits="userSpaceOnUse"><stop stop-color="#207ad5" stop-opacity="0"/><stop offset="1" stop-color="#004d99"/></linearGradient><linearGradient id="f" x1="169.852" x2="517.822" y1="655.829" y2="655.829" gradientUnits="userSpaceOnUse"><stop stop-color="#207ad5" stop-opacity="0"/><stop offset="1" stop-color="#004d99"/></linearGradient><linearGradient id="g" x1="169.852" x2="517.822" y1="530.096" y2="530.096" gradientUnits="userSpaceOnUse"><stop stop-color="#207ad5" stop-opacity="0"/><stop offset="1" stop-color="#004d99"/></linearGradient><linearGradient id="h" x1="169.852" x2="517.822" y1="404.364" y2="404.364" gradientUnits="userSpaceOnUse"><stop stop-color="#207ad5" stop-opacity="0"/><stop offset="1" stop-color="#004d99"/></linearGradient></defs></svg>