<svg xmlns="http://www.w3.org/2000/svg" width="247" height="1222" fill="none" viewBox="0 0 247 1222"><path fill="url(#a)" d="M74.547 0h344.899v86.083H74.547z" style="mix-blend-mode:overlay" transform="rotate(60 74.547 0)"/><path fill="url(#b)" d="M74.547 125.733h344.899v86.083H74.547z" style="mix-blend-mode:overlay" transform="rotate(60 74.547 125.733)"/><path fill="url(#c)" d="M74.547 251.465h344.899v86.083H74.547z" style="mix-blend-mode:overlay" transform="rotate(60 74.547 251.465)"/><path fill="url(#d)" d="M74.547 377.198h344.899v86.083H74.547z" style="mix-blend-mode:overlay" transform="rotate(60 74.547 377.198)"/><path fill="url(#e)" d="M74.547 502.931h344.899v86.083H74.547z" style="mix-blend-mode:overlay" transform="rotate(60 74.547 502.931)"/><path fill="url(#f)" d="M74.547 628.664h344.899v86.083H74.547z" style="mix-blend-mode:overlay" transform="rotate(60 74.547 628.664)"/><path fill="url(#g)" d="M74.547 754.396h344.899v86.083H74.547z" style="mix-blend-mode:overlay" transform="rotate(60 74.547 754.396)"/><path fill="url(#h)" d="M74.547 880.129h344.899v86.083H74.547z" style="mix-blend-mode:overlay" transform="rotate(60 74.547 880.129)"/><defs><linearGradient id="a" x1="71.952" x2="419.921" y1="62.493" y2="62.493" gradientUnits="userSpaceOnUse"><stop stop-color="#3b89d6" stop-opacity="0"/><stop offset="1" stop-color="#004d99"/></linearGradient><linearGradient id="b" x1="71.952" x2="419.921" y1="188.226" y2="188.226" gradientUnits="userSpaceOnUse"><stop stop-color="#3b89d6" stop-opacity="0"/><stop offset="1" stop-color="#004d99"/></linearGradient><linearGradient id="c" x1="71.952" x2="419.921" y1="313.958" y2="313.958" gradientUnits="userSpaceOnUse"><stop stop-color="#3b89d6" stop-opacity="0"/><stop offset="1" stop-color="#004d99"/></linearGradient><linearGradient id="d" x1="71.952" x2="419.921" y1="439.691" y2="439.691" gradientUnits="userSpaceOnUse"><stop stop-color="#3b89d6" stop-opacity="0"/><stop offset="1" stop-color="#004d99"/></linearGradient><linearGradient id="e" x1="71.952" x2="419.921" y1="565.424" y2="565.424" gradientUnits="userSpaceOnUse"><stop stop-color="#3b89d6" stop-opacity="0"/><stop offset="1" stop-color="#004d99"/></linearGradient><linearGradient id="f" x1="71.952" x2="419.921" y1="691.156" y2="691.156" gradientUnits="userSpaceOnUse"><stop stop-color="#3b89d6" stop-opacity="0"/><stop offset="1" stop-color="#004d99"/></linearGradient><linearGradient id="g" x1="71.952" x2="419.921" y1="816.889" y2="816.889" gradientUnits="userSpaceOnUse"><stop stop-color="#3b89d6" stop-opacity="0"/><stop offset="1" stop-color="#004d99"/></linearGradient><linearGradient id="h" x1="71.952" x2="419.921" y1="942.622" y2="942.622" gradientUnits="userSpaceOnUse"><stop stop-color="#3b89d6" stop-opacity="0"/><stop offset="1" stop-color="#004d99"/></linearGradient></defs></svg>