<svg xmlns="http://www.w3.org/2000/svg" width="247" height="1348" fill="none" viewBox="0 0 247 1348"><path fill="url(#a)" d="M172.447 1348h344.899v86.083H172.447z" style="mix-blend-mode:overlay" transform="rotate(-120 172.447 1348)"/><path fill="url(#b)" d="M172.447 1222.27h344.899v86.083H172.447z" style="mix-blend-mode:overlay" transform="rotate(-120 172.447 1222.27)"/><path fill="url(#c)" d="M172.447 1096.53h344.899v86.083H172.447z" style="mix-blend-mode:overlay" transform="rotate(-120 172.447 1096.53)"/><path fill="url(#d)" d="M172.447 970.802h344.899v86.083H172.447z" style="mix-blend-mode:overlay" transform="rotate(-120 172.447 970.802)"/><path fill="url(#e)" d="M172.447 845.069h344.899v86.083H172.447z" style="mix-blend-mode:overlay" transform="rotate(-120 172.447 845.069)"/><path fill="url(#f)" d="M172.447 719.336h344.899v86.083H172.447z" style="mix-blend-mode:overlay" transform="rotate(-120 172.447 719.336)"/><path fill="url(#g)" d="M172.447 593.604h344.899v86.083H172.447z" style="mix-blend-mode:overlay" transform="rotate(-120 172.447 593.604)"/><path fill="url(#h)" d="M172.447 467.871h344.899v86.083H172.447z" style="mix-blend-mode:overlay" transform="rotate(-120 172.447 467.871)"/><path fill="url(#i)" d="M172.447 342.138h344.899v86.083H172.447z" style="mix-blend-mode:overlay" transform="rotate(-120 172.447 342.138)"/><defs><linearGradient id="a" x1="169.852" x2="517.822" y1="1410.49" y2="1410.49" gradientUnits="userSpaceOnUse"><stop stop-color="#207ad5" stop-opacity="0"/><stop offset="1" stop-color="#004d99"/></linearGradient><linearGradient id="b" x1="169.852" x2="517.822" y1="1284.76" y2="1284.76" gradientUnits="userSpaceOnUse"><stop stop-color="#207ad5" stop-opacity="0"/><stop offset="1" stop-color="#004d99"/></linearGradient><linearGradient id="c" x1="169.852" x2="517.822" y1="1159.03" y2="1159.03" gradientUnits="userSpaceOnUse"><stop stop-color="#207ad5" stop-opacity="0"/><stop offset="1" stop-color="#004d99"/></linearGradient><linearGradient id="d" x1="169.852" x2="517.822" y1="1033.29" y2="1033.29" gradientUnits="userSpaceOnUse"><stop stop-color="#207ad5" stop-opacity="0"/><stop offset="1" stop-color="#004d99"/></linearGradient><linearGradient id="e" x1="169.852" x2="517.822" y1="907.562" y2="907.562" gradientUnits="userSpaceOnUse"><stop stop-color="#207ad5" stop-opacity="0"/><stop offset="1" stop-color="#004d99"/></linearGradient><linearGradient id="f" x1="169.852" x2="517.822" y1="781.829" y2="781.829" gradientUnits="userSpaceOnUse"><stop stop-color="#207ad5" stop-opacity="0"/><stop offset="1" stop-color="#004d99"/></linearGradient><linearGradient id="g" x1="169.852" x2="517.822" y1="656.096" y2="656.096" gradientUnits="userSpaceOnUse"><stop stop-color="#207ad5" stop-opacity="0"/><stop offset="1" stop-color="#004d99"/></linearGradient><linearGradient id="h" x1="169.852" x2="517.822" y1="530.364" y2="530.364" gradientUnits="userSpaceOnUse"><stop stop-color="#207ad5" stop-opacity="0"/><stop offset="1" stop-color="#004d99"/></linearGradient><linearGradient id="i" x1="169.852" x2="517.822" y1="404.631" y2="404.631" gradientUnits="userSpaceOnUse"><stop stop-color="#207ad5" stop-opacity="0"/><stop offset="1" stop-color="#004d99"/></linearGradient></defs></svg>