<svg width="40" height="40" viewBox="0 0 40 40" fill="none" xmlns="http://www.w3.org/2000/svg">
<path d="M9.38011 15.3743C9.48617 15.381 9.59102 15.3834 9.69284 15.3834C9.90738 15.3834 11.8971 15.3495 12.1128 15.3452C28.1044 15.0767 29.8983 15.0428 30.7831 15.0428C32.7322 15.0319 33.0922 13.5967 31.611 12.6755L22.4498 6.95068C20.2122 5.54584 18.9522 5.22402 15.7928 7.50038L8.92314 12.4464C8.61162 12.6707 8.28981 12.9034 8.05405 13.2422C7.51223 14.0228 7.64556 15.2652 9.38011 15.3743ZM20.5225 6.62281L20.2365 6.90887L19.7965 6.46887C19.8268 6.47129 19.8565 6.47068 19.8868 6.47432C20.1031 6.49917 20.3147 6.5525 20.5225 6.62281ZM19.3686 6.46947L19.3722 6.47311C19.3686 6.47614 19.3631 6.47493 19.3595 6.47856L18.8662 6.9719L18.5304 6.63614C18.8062 6.54523 19.0856 6.48826 19.3686 6.46947ZM17.1359 7.31917L17.334 7.51735L16.9837 7.86765L16.7122 7.59614C16.8528 7.50038 16.994 7.40826 17.1359 7.31917ZM16.1462 7.9919C16.2504 7.91674 16.354 7.84402 16.4577 7.77068L16.7686 8.0822L16.6607 8.19008C16.6013 8.24947 16.6013 8.34523 16.6607 8.40462C16.7201 8.46402 16.8159 8.46402 16.8753 8.40462L16.9831 8.29674L16.9892 8.30281C17.0486 8.3622 17.1444 8.3622 17.2037 8.30281C17.2631 8.24341 17.2631 8.14765 17.2037 8.08887L17.1977 8.08281L17.548 7.7325L17.8601 8.04462C17.9195 8.10402 18.0153 8.10402 18.0747 8.04462C18.1341 7.98523 18.1341 7.88947 18.0747 7.83008L17.7625 7.51796L17.934 7.34644C17.9934 7.28705 17.9934 7.19129 17.934 7.1319C17.8747 7.0725 17.7789 7.0725 17.7195 7.1319L17.5486 7.30341L17.4013 7.15614C17.671 6.99856 17.9419 6.86038 18.2147 6.74887L18.6522 7.18644L18.4904 7.34826C18.431 7.40765 18.431 7.50341 18.4904 7.5622C18.5498 7.62159 18.6456 7.62159 18.705 7.5622L18.8668 7.40099L18.9698 7.50402C19.0292 7.56341 19.125 7.56341 19.1844 7.50402C19.2437 7.44462 19.2437 7.34887 19.1844 7.28947L19.0813 7.18644L19.5747 6.69311C19.5783 6.68947 19.5771 6.68402 19.5801 6.67978L20.0237 7.12341L19.9965 7.15068C19.9371 7.21008 19.9371 7.30584 19.9965 7.36462C20.0559 7.42402 20.1516 7.42402 20.2104 7.36462L20.2377 7.33735C20.3571 7.45675 20.4656 7.59735 20.5886 7.47432C20.648 7.41493 20.648 7.31917 20.5886 7.25978L20.4522 7.12341L20.7868 6.78887C20.8025 6.77311 20.8025 6.7519 20.8098 6.7325C21.2777 6.93068 21.7201 7.20765 22.1286 7.46402L31.291 13.1895C32.2547 13.7877 32.1256 14.4367 30.7025 14.4367C29.9177 14.4367 27.3886 14.4828 12.1037 14.7392C11.014 14.7586 10.1904 14.7707 9.77526 14.7767C9.45344 14.787 9.02011 14.7586 8.73041 14.6155L9.12435 14.2216C9.1995 14.2719 9.26193 14.2616 9.31223 14.2107C9.36435 14.1586 9.36253 14.0816 9.32314 14.0228L9.74375 13.6022L9.9692 13.8277C10.0286 13.887 10.1244 13.887 10.1837 13.8277C10.2431 13.7683 10.2431 13.6725 10.1837 13.6137L9.95829 13.3877L10.5419 12.804L10.9444 13.2064C11.0037 13.2658 11.0995 13.2658 11.1589 13.2064C11.2183 13.147 11.2183 13.0513 11.1589 12.9919L10.3401 12.1731L11.0395 11.6695L11.4989 12.1289C11.5025 12.1622 11.5116 12.1955 11.5371 12.221C11.5625 12.2464 11.5959 12.2555 11.6292 12.2592L11.7334 12.364C11.7928 12.4234 11.8886 12.4234 11.948 12.364C12.0074 12.3046 12.0074 12.2089 11.948 12.1495L11.8856 12.087L12.5498 11.4234L12.7995 11.6731C12.8589 11.7325 12.9547 11.7325 13.014 11.6731C13.0734 11.6137 13.0734 11.518 13.014 11.4586L12.7644 11.2089L13.2856 10.6877C13.345 10.6283 13.345 10.5325 13.2856 10.4731C13.2262 10.4137 13.1304 10.4137 13.071 10.4731L12.5498 10.9943L12.3098 10.7543L13.134 10.161L13.765 10.7919C13.8244 10.8513 13.9201 10.8513 13.9789 10.7919C14.0383 10.7325 14.0383 10.6367 13.9789 10.5774L13.3831 9.98159L14.4159 9.23796L14.7819 9.60402L14.5668 9.81977C14.5074 9.87917 14.5074 9.97493 14.5668 10.0343C14.6262 10.0937 14.7219 10.0937 14.7813 10.0343L14.9965 9.81856L15.2492 10.0713C15.3086 10.1307 15.4044 10.1307 15.4637 10.0713C15.5231 10.0119 15.5231 9.91614 15.4637 9.85674L15.211 9.60402L15.9377 8.87735L16.1001 9.03978C16.1595 9.09917 16.2553 9.09917 16.314 9.03978C16.3734 8.98038 16.3734 8.88462 16.314 8.82523L16.1516 8.66281L16.431 8.38341C16.4904 8.32402 16.4904 8.22826 16.431 8.16887C16.3716 8.10947 16.2759 8.10947 16.2165 8.16887L15.9371 8.44826L15.7589 8.27008L16.1462 7.9919ZM10.1013 12.3652L10.3262 12.5901L9.74253 13.1737L9.41102 12.8416L10.0947 12.3495C10.0983 12.3537 10.0965 12.3604 10.1013 12.3652ZM12.0583 10.9349L12.3328 11.2095L11.6686 11.8731L11.2862 11.4907L12.0583 10.9349ZM15.5074 8.4519L15.7201 8.66462L14.9934 9.39129L14.6619 9.05978L15.5074 8.4519ZM9.16435 13.0234L9.52799 13.3877L9.11526 13.8004L8.72132 13.4064C8.85163 13.2713 8.9989 13.144 9.16435 13.0234ZM8.52375 13.638L8.90072 14.0149L8.49284 14.4228C8.30799 14.1792 8.37041 13.8864 8.52375 13.638Z" fill="#1A1A1A"/>
<path d="M39.3592 34.6716C39.2434 34.1831 38.8713 33.8116 38.2592 33.5589C38.5549 33.1413 38.6343 32.634 38.4422 32.2098C38.0998 31.4522 37.158 31.3201 36.4798 31.2873C36.2537 31.2764 36.0271 31.2692 35.801 31.2589V19.1031C36.6246 18.7195 36.5659 17.4516 36.3683 16.6237C36.704 16.6055 37.0446 16.5589 37.3671 16.4255C37.978 16.171 38.381 15.6449 38.3943 15.0837C38.4131 14.3176 37.7513 13.7825 37.1107 13.3837L23.4646 4.85643C20.1677 2.78674 18.358 2.32734 13.7162 5.67037L3.48283 13.0376C0.726466 15.0286 1.75071 16.8504 3.77556 17.0976C3.72586 17.7037 3.57798 18.5516 4.28707 19.0055C4.32768 19.031 4.37071 19.0461 4.41253 19.0655V31.4958C4.34768 31.5001 4.28222 31.5025 4.21737 31.5067C3.75253 31.5364 3.17495 31.5734 2.67374 31.8364C2.06586 32.1582 1.57616 32.9031 1.93737 33.6473C1.3501 33.8492 0.516769 34.2879 0.613132 35.2873C0.665859 35.8304 1.08889 36.3316 1.68768 36.5625C2.39131 36.8382 0.29495 36.7613 36.4956 36.7419C37.0616 36.7419 37.7659 36.7419 38.3756 36.4461C38.9883 36.1504 39.5404 35.4273 39.3592 34.6716ZM35.1943 31.2328C34.4489 31.1995 33.7034 31.1655 32.9568 31.1376V19.2061C33.0416 19.2116 33.124 19.2134 33.2016 19.2152L34.8707 19.2413C35.0356 19.2431 35.0295 19.2455 35.1949 19.237L35.1943 31.2328ZM9.95253 17.0564C10.2259 17.0516 10.4986 17.0473 10.7853 17.0425C10.7756 17.0486 10.7628 17.0467 10.7537 17.0552L10.3525 17.4564L9.95253 17.0564ZM9.53071 17.0637L9.62586 17.1595L9.18647 17.5989L8.66586 17.0783C8.94646 17.0728 9.23071 17.0686 9.53071 17.0637ZM8.36343 18.5892L8.6998 18.9255L8.1295 19.4958L7.86283 19.2292V19.0928C8.07737 18.9879 8.24222 18.8376 8.36343 18.5892ZM7.86222 30.2746L7.9198 30.3322L7.86222 30.3898V30.2746ZM7.86222 25.5673L7.96465 25.6698L7.86222 25.7722V25.5673ZM7.86222 23.8419L7.92222 23.9013L7.86222 23.9607V23.8419ZM7.86222 21.697L8.14162 21.9764L7.86222 22.2558V21.697ZM7.86222 19.6576L7.91677 19.7116C7.86222 19.771 7.86162 19.8625 7.91919 19.9201C7.97313 19.974 8.06162 19.9837 8.12768 19.9225L8.60707 20.4019C8.61859 20.4134 8.63495 20.4122 8.64889 20.4189L7.86222 21.2055V19.6576ZM7.86222 30.8183L8.13434 30.5461L8.34162 30.754C8.40101 30.8134 8.49677 30.8134 8.55616 30.754C8.61556 30.6946 8.61556 30.5989 8.55616 30.5395L8.34828 30.3316L9.52222 29.1576C9.58162 29.0983 9.58162 29.0025 9.52222 28.9431C9.46283 28.8837 9.36707 28.8837 9.30828 28.9431L8.13434 30.117L7.86222 29.8449V29.0334L7.98768 28.9079L8.38162 29.3019C8.44101 29.3613 8.53677 29.3613 8.59556 29.3019C8.65495 29.2425 8.65495 29.1467 8.59556 29.0873L8.20162 28.6934L8.94768 27.9467C9.00707 27.8873 9.00707 27.7916 8.94768 27.7328C8.88828 27.6734 8.79253 27.6734 8.73374 27.7328L7.98707 28.4795L7.86162 28.3546V27.5898L8.02344 27.4279L8.39071 27.7952C8.4501 27.8546 8.54586 27.8546 8.60525 27.7952C8.66465 27.7358 8.66465 27.6401 8.60525 27.5807L8.23798 27.214L8.97677 26.4752C9.03616 26.4158 9.03616 26.3201 8.97677 26.2607C8.91737 26.2013 8.82162 26.2013 8.76222 26.2607L8.02344 26.9995L7.86162 26.8376V26.1995L8.17798 25.8831L8.42283 26.1279C8.48222 26.1873 8.57798 26.1873 8.63737 26.1279C8.69677 26.0686 8.69677 25.9728 8.63737 25.9134L8.39253 25.6686L9.09919 24.9619C9.15859 24.9025 9.15859 24.8067 9.09919 24.7473C9.0398 24.6879 8.94404 24.6879 8.88465 24.7473L8.17798 25.454L7.86162 25.1376V24.3879L8.13556 24.114L8.6598 24.6383C8.71919 24.6976 8.81495 24.6976 8.87434 24.6383C8.93374 24.5789 8.93374 24.4831 8.87434 24.4237L8.3501 23.8995L9.23798 23.0116C9.29737 22.9522 9.29737 22.8564 9.23798 22.797C9.17859 22.7376 9.08283 22.7376 9.02343 22.797L8.13556 23.6849L7.86162 23.411V22.6843L8.35495 22.191L8.75253 22.5886C8.81192 22.6479 8.90768 22.6479 8.96707 22.5886C9.02646 22.5292 9.02646 22.4334 8.96707 22.374L8.5695 21.9764L9.14162 21.4043C9.20101 21.3449 9.20101 21.2492 9.14162 21.1898C9.08222 21.1304 8.98646 21.1304 8.92707 21.1898L8.35495 21.7619L8.04465 21.4516L9.25313 20.2431C9.31253 20.1837 9.31253 20.0879 9.25313 20.0286C9.19374 19.9692 9.09798 19.9692 9.03919 20.0286L8.83859 20.2292C8.83131 20.2158 8.83313 20.1995 8.82162 20.188L8.34343 19.7104L8.91374 19.1401L9.25253 19.4789C9.31192 19.5383 9.40768 19.5383 9.46707 19.4789C9.52647 19.4195 9.52647 19.3237 9.46707 19.2643L9.12828 18.9255L9.30101 18.7528C9.3604 18.6934 9.3604 18.5976 9.30101 18.5383C9.1695 18.4067 9.04586 18.5789 8.91374 18.711L8.49859 18.2958C8.4901 18.2873 8.47737 18.2892 8.46768 18.2831C8.53919 17.9801 8.52768 17.6752 8.51919 17.4849C8.51798 17.4455 8.51313 17.3946 8.51071 17.351L8.97192 17.8122L8.83677 17.9473C8.77737 18.0067 8.77737 18.1025 8.83677 18.1613C8.89616 18.2207 8.99192 18.2207 9.05131 18.1613L9.18647 18.0261L9.45374 18.2934C9.51313 18.3528 9.60889 18.3528 9.66828 18.2934C9.72768 18.234 9.72768 18.1383 9.66828 18.0795L9.40101 17.8122L9.8404 17.3728L10.2034 17.7358C10.2107 17.7558 10.2113 17.7783 10.2277 17.7946C10.244 17.811 10.2659 17.8116 10.2865 17.8189L10.4265 17.9589C10.4859 18.0183 10.5816 18.0183 10.641 17.9589C10.7004 17.8995 10.7004 17.8037 10.641 17.7443L10.5665 17.6698L10.9677 17.2686C11.0271 17.2092 11.0271 17.1134 10.9677 17.054C10.9574 17.0437 10.9422 17.0455 10.9301 17.0383C10.9689 17.0376 11.0089 17.037 11.0471 17.0364L11.3022 17.2916L11.2246 17.3692C11.1653 17.4286 11.1653 17.5243 11.2246 17.5837C11.284 17.6431 11.3798 17.6431 11.4386 17.5837L11.5162 17.5061L11.8271 17.817C11.8865 17.8764 11.9822 17.8764 12.0416 17.817C12.101 17.7576 12.101 17.6619 12.0416 17.6031L11.7307 17.2922L11.8768 17.1461C11.9113 17.1116 11.9198 17.0667 11.9143 17.0219C12.0004 17.0201 12.0913 17.0189 12.1786 17.017L12.2192 17.0576L12.0907 17.1861C12.0313 17.2455 12.0313 17.3413 12.0907 17.4001C12.1501 17.4595 12.2459 17.4595 12.3046 17.4001L12.4331 17.2716L12.6986 17.537C12.758 17.5964 12.8537 17.5964 12.9131 17.537C12.9725 17.4776 12.9725 17.3819 12.9131 17.3225L12.6477 17.057L12.6974 17.0073C12.8149 17.0055 12.9307 17.0031 13.0495 17.0013C13.0471 17.031 13.0156 17.3504 13.0059 17.4231C12.9168 18.0861 13.064 18.7667 13.661 19.057V31.0734C11.7259 31.1316 9.79192 31.2049 7.86222 31.3019V30.8183ZM11.4689 17.0304C11.5022 17.0298 11.5343 17.0292 11.5671 17.0286L11.5168 17.0789L11.4689 17.0304ZM18.7362 16.9049C18.7404 16.937 18.7483 16.9698 18.7731 16.9946L18.938 17.1595L18.4986 17.5989L17.8204 16.9207C18.124 16.9152 18.4307 16.9098 18.7362 16.9049ZM17.1113 30.2122L17.2319 30.3328L17.1113 30.4534V30.2122ZM17.1113 27.2043L17.1216 27.2146L17.1113 27.2255V27.2043ZM17.1113 25.5049L17.2768 25.6704L17.1113 25.8358V25.5049ZM17.1113 23.7789L17.2337 23.9013L17.1113 24.0237V23.7789ZM17.1113 21.6346L17.4531 21.9764L17.1113 22.3183V21.6346ZM17.1307 21.2255C17.1253 21.2201 17.1174 21.2219 17.1113 21.2176V19.5952L17.2283 19.7122C17.1737 19.7716 17.1731 19.8631 17.2307 19.9207C17.2846 19.9746 17.3731 19.9843 17.4392 19.9231L17.9186 20.4025C17.9301 20.414 17.9465 20.4128 17.9604 20.4195L17.1428 21.2376L17.1307 21.2255ZM17.1113 19.1776V19.1025C17.3495 18.991 17.5222 18.8207 17.6416 18.5552L18.0119 18.9255L17.4416 19.4958C17.3834 19.4383 17.1768 19.2261 17.1113 19.1776ZM16.958 18.491C16.958 18.491 16.9574 18.491 16.9574 18.4916C16.7871 18.6328 16.5107 18.6401 16.1913 18.6346L14.5234 18.6086C13.4762 18.5892 13.5446 18.1316 13.6574 16.9916L17.1259 16.931C17.1919 17.3401 17.2768 18.2267 16.958 18.491ZM14.2677 19.2061C14.3525 19.2116 14.4349 19.2134 14.5125 19.2152L16.1816 19.2413C16.3471 19.2431 16.3398 19.2455 16.5059 19.237V30.9989C15.7598 31.014 15.0137 31.0376 14.2683 31.0583L14.2677 19.2061ZM17.1113 30.8813L17.4459 30.5461L17.6537 30.754C17.7131 30.8134 17.8089 30.8134 17.8677 30.754C17.9271 30.6946 17.9271 30.5989 17.8677 30.5395L17.6604 30.3316L18.8343 29.1576C18.8937 29.0983 18.8937 29.0025 18.8343 28.9431C18.7749 28.8837 18.6792 28.8837 18.6198 28.9431L17.4459 30.117L17.1113 29.7819V29.0849C17.1168 29.0807 17.1246 29.0825 17.1301 29.077L17.2998 28.9073L17.6937 29.3013C17.7531 29.3607 17.8489 29.3607 17.9083 29.3013C17.9677 29.2419 17.9677 29.1461 17.9083 29.0867L17.5143 28.6928L18.261 27.9461C18.3204 27.8867 18.3204 27.791 18.261 27.7322C18.2016 27.6728 18.1059 27.6728 18.0465 27.7322L17.2998 28.4789L17.1119 28.291V27.6261C17.1271 27.6189 17.1446 27.6201 17.1568 27.6073L17.3368 27.4273L17.7034 27.794C17.7628 27.8534 17.8586 27.8534 17.918 27.794C17.9774 27.7346 17.9774 27.6389 17.918 27.5795L17.5507 27.2128L18.2895 26.474C18.3489 26.4146 18.3489 26.3189 18.2895 26.2595C18.2301 26.2001 18.1343 26.2001 18.0749 26.2595L17.3362 26.9983L17.1113 26.7734V26.2607L17.4907 25.8813L17.7356 26.1261C17.7949 26.1855 17.8907 26.1855 17.9495 26.1261C18.0089 26.0667 18.0089 25.971 17.9495 25.9116L17.7046 25.6667L18.4119 24.9601C18.4713 24.9007 18.4713 24.8049 18.4119 24.7455C18.3525 24.6861 18.2568 24.6861 18.1974 24.7455L17.4907 25.4522L17.1113 25.0728V24.4492L17.4483 24.1122L17.9725 24.6364C18.0319 24.6958 18.1277 24.6958 18.1871 24.6364C18.2465 24.577 18.2465 24.4813 18.1871 24.4219L17.6628 23.8976L18.5507 23.0098C18.6101 22.9504 18.6101 22.8546 18.5507 22.7952C18.4913 22.7358 18.3956 22.7358 18.3362 22.7952L17.4483 23.6831L17.1113 23.3461V22.7425L17.6677 22.1861L18.0653 22.5837C18.1246 22.6431 18.2204 22.6431 18.2798 22.5837C18.3392 22.5243 18.3392 22.4286 18.2798 22.3692L17.8822 21.9716L18.4543 21.3995C18.5137 21.3401 18.5137 21.2443 18.4543 21.1849C18.3949 21.1255 18.2992 21.1255 18.2398 21.1849L17.6677 21.757L17.3574 21.4467L18.5653 20.2383C18.6246 20.1789 18.6246 20.0831 18.5653 20.0237C18.5059 19.9643 18.4101 19.9643 18.3513 20.0237L18.1507 20.2243C18.1434 20.2104 18.1446 20.194 18.1337 20.1825L17.6556 19.7049L18.2259 19.1346L18.5646 19.4734C18.624 19.5328 18.7198 19.5328 18.7792 19.4734C18.8386 19.414 18.8386 19.3183 18.7792 19.2589L18.4404 18.9201L18.6131 18.7473C18.6725 18.6879 18.6725 18.5922 18.6131 18.5328C18.5537 18.4734 18.458 18.4734 18.3992 18.5328L18.2265 18.7055L17.8113 18.291C17.7907 18.2704 17.7634 18.2661 17.7368 18.2601C17.8125 17.9189 17.7913 17.6249 17.7695 17.2922L18.2846 17.8073L18.1495 17.9425C18.0901 18.0019 18.0901 18.0976 18.1495 18.1564C18.2089 18.2158 18.3046 18.2158 18.3634 18.1564L18.4986 18.0213L18.7659 18.2886C18.8253 18.3479 18.921 18.3479 18.9804 18.2886C19.0398 18.2292 19.0398 18.1334 18.9804 18.0746L18.7131 17.8073L19.1525 17.3679L19.5162 17.7316C19.5234 17.7516 19.524 17.7734 19.5404 17.7898C19.5562 17.8055 19.5786 17.8067 19.5986 17.814L19.7392 17.9546C19.7986 18.014 19.8943 18.014 19.9537 17.9546C20.0131 17.8952 20.0131 17.7995 19.9537 17.7401L19.8786 17.671L20.2798 17.2698C20.3392 17.2104 20.3392 17.1146 20.2798 17.0552C20.2204 16.9958 20.1246 16.9958 20.0653 17.0552L19.664 17.4564L19.1059 16.8983C19.4968 16.8916 19.884 16.8855 20.2749 16.8789C20.2725 16.9207 20.284 16.9625 20.3162 16.9946L20.6149 17.2934L20.5374 17.371C20.478 17.4304 20.478 17.5261 20.5374 17.5855C20.5968 17.6449 20.6925 17.6449 20.7519 17.5855L20.8301 17.5079L21.141 17.8189C21.2004 17.8783 21.2962 17.8783 21.3556 17.8189C21.4149 17.7595 21.4149 17.6637 21.3556 17.6049L21.0446 17.294L21.1907 17.1479C21.2501 17.0886 21.2501 16.9928 21.1907 16.9334C21.1313 16.874 21.0356 16.874 20.9762 16.9334L20.8301 17.0795L20.624 16.8734C20.8774 16.8692 21.1289 16.8649 21.3816 16.8601C21.3871 16.8892 21.3931 16.9195 21.4156 16.9419L21.5325 17.0589L21.404 17.1873C21.3446 17.2467 21.3446 17.3425 21.404 17.4013C21.4634 17.4607 21.5592 17.4607 21.6186 17.4013L21.7471 17.2728L22.0125 17.5383C22.0719 17.5976 22.1677 17.5976 22.2271 17.5383C22.2865 17.4789 22.2865 17.3831 22.2271 17.3237L21.9616 17.0583L22.0137 17.0061C22.0574 16.9625 22.058 16.9019 22.0368 16.8479C22.1683 16.8455 22.3004 16.8437 22.4313 16.8413C22.3337 17.6716 22.2119 18.5546 22.9186 19.0061C22.9537 19.0286 22.9913 19.0407 23.0277 19.0583V30.9455C21.0562 30.9407 19.0846 30.954 17.1125 30.9898V30.8813H17.1113ZM28.1319 16.994L28.2968 17.1589L27.8574 17.5983L27.0907 16.8322C27.0895 16.831 27.0871 16.8316 27.0859 16.8304C27.0822 16.8086 27.078 16.7867 27.0737 16.7649L27.7653 16.7534C27.918 16.751 28.0634 16.7486 28.2137 16.7461C28.184 16.7516 28.1543 16.7576 28.1313 16.7801C28.0725 16.8395 28.0725 16.9352 28.1319 16.994ZM23.2422 18.4952C22.8156 18.2225 22.9671 17.3413 23.0404 16.831L26.461 16.7746C26.5137 17.0055 26.5319 17.2613 26.5428 17.511C26.5889 18.4952 26.3677 18.6486 25.5562 18.6346L23.8877 18.6086C23.6628 18.6049 23.4083 18.6001 23.2422 18.4952ZM26.4762 30.2183L26.5901 30.3322L26.4762 30.4461V30.2183ZM26.4762 27.211L26.4804 27.2152L26.4762 27.2195V27.211ZM26.4762 25.511L26.635 25.6698L26.4762 25.8286V25.511ZM26.4762 23.7849L26.5925 23.9013L26.4762 24.0176V23.7849ZM26.4762 21.6407L26.8119 21.9764L26.4762 22.3122V21.6407ZM26.4895 21.2255C26.4859 21.2219 26.4804 21.2231 26.4762 21.2201V19.6013L26.5871 19.7122C26.5325 19.7716 26.5319 19.8631 26.5895 19.9207C26.6434 19.9746 26.7319 19.9843 26.798 19.9231L27.2774 20.4025C27.2889 20.414 27.3053 20.4128 27.3192 20.4195L26.5016 21.237L26.4895 21.2255ZM26.4895 19.1861C26.4859 19.1825 26.4804 19.1837 26.4762 19.1807V19.1025C26.7101 18.9934 26.8859 18.8237 27.0059 18.5619L27.3695 18.9255L26.7992 19.4958L26.4895 19.1861ZM23.6325 19.2061C23.7174 19.2116 23.7998 19.2134 23.8768 19.2152L25.5459 19.2413C25.7119 19.2431 25.704 19.2455 25.8701 19.237V30.9673C25.124 30.9583 24.3786 30.9498 23.6325 30.9461V19.2061ZM26.4762 30.8752L26.8046 30.5467L27.0119 30.7546C27.0713 30.814 27.1671 30.814 27.2265 30.7546C27.2859 30.6952 27.2859 30.5995 27.2265 30.5401L27.0192 30.3322L28.1931 29.1583C28.2525 29.0989 28.2525 29.0031 28.1931 28.9437C28.1337 28.8843 28.038 28.8843 27.9786 28.9437L26.8046 30.1176L26.4762 29.7892V29.0837C26.4798 29.0807 26.4853 29.0819 26.4883 29.0783L26.6574 28.9092L27.0513 29.3031C27.1107 29.3625 27.2065 29.3625 27.2659 29.3031C27.3253 29.2437 27.3253 29.1479 27.2659 29.0886L26.8719 28.6946L27.618 27.9479C27.6774 27.8886 27.6774 27.7928 27.618 27.734C27.5586 27.6746 27.4628 27.6746 27.4034 27.734L26.6574 28.4807L26.4756 28.2989V27.6249C26.4883 27.6183 26.5034 27.6195 26.5137 27.6092L26.6937 27.4292L27.061 27.7964C27.1204 27.8558 27.2162 27.8558 27.2756 27.7964C27.3349 27.737 27.3349 27.6413 27.2756 27.5819L26.9089 27.2152L27.6477 26.4764C27.7071 26.417 27.7071 26.3213 27.6477 26.2619C27.5883 26.2025 27.4925 26.2025 27.4331 26.2619L26.6943 27.0007L26.4756 26.7819V26.257L26.8483 25.8837L27.0931 26.1286C27.1525 26.1879 27.2483 26.1879 27.3077 26.1286C27.3671 26.0692 27.3671 25.9734 27.3077 25.914L27.0628 25.6692L27.7695 24.9625C27.8289 24.9031 27.8289 24.8073 27.7695 24.7479C27.7101 24.6886 27.6143 24.6886 27.5549 24.7479L26.8483 25.4546L26.4756 25.0819V24.4455L26.8059 24.1152L27.3301 24.6395C27.3895 24.6989 27.4853 24.6989 27.5446 24.6395C27.604 24.5801 27.604 24.4843 27.5446 24.4249L27.0204 23.9007L27.9083 23.0128C27.9677 22.9534 27.9677 22.8576 27.9083 22.7983C27.8489 22.7389 27.7531 22.7389 27.6937 22.7983L26.8059 23.6861L26.4756 23.3558V22.7395L27.0253 22.1898L27.4234 22.5873C27.4828 22.6467 27.5786 22.6467 27.6374 22.5873C27.6968 22.5279 27.6968 22.4322 27.6374 22.3728L27.2398 21.9752L27.8119 21.4031C27.8713 21.3437 27.8713 21.2479 27.8119 21.1886C27.7525 21.1292 27.6568 21.1292 27.5974 21.1886L27.0253 21.7607L26.715 21.4504L27.9234 20.2419C27.9828 20.1825 27.9828 20.0867 27.9234 20.0273C27.864 19.9679 27.7683 19.9679 27.7095 20.0273L27.5089 20.2279C27.5016 20.2146 27.5034 20.1982 27.4919 20.1867L27.0137 19.7092L27.584 19.1389L27.9222 19.4776C27.9816 19.537 28.0774 19.537 28.1368 19.4776C28.1962 19.4183 28.1962 19.3225 28.1368 19.2631L27.798 18.9243L27.9707 18.7516C28.0301 18.6922 28.0301 18.5964 27.9707 18.537C27.9113 18.4776 27.8156 18.4776 27.7562 18.537L27.5834 18.7098L27.1695 18.2964C27.1513 18.2783 27.1265 18.2764 27.1034 18.2692C27.1683 17.9783 27.1574 17.6843 27.1477 17.4837C27.1453 17.4255 27.141 17.3667 27.1374 17.3073L27.6422 17.8122L27.5071 17.9473C27.4477 18.0067 27.4477 18.1025 27.5071 18.1613C27.5665 18.2207 27.6622 18.2207 27.721 18.1613L27.8562 18.0261L28.1234 18.2934C28.1828 18.3528 28.2786 18.3528 28.338 18.2934C28.3974 18.234 28.3974 18.1383 28.338 18.0795L28.0707 17.8122L28.5101 17.3728L28.8731 17.7358C28.8804 17.7558 28.881 17.7783 28.8974 17.7946C28.9137 17.811 28.9356 17.8116 28.9562 17.8189L29.0962 17.9589C29.1556 18.0183 29.2513 18.0183 29.3107 17.9589C29.3701 17.8995 29.3701 17.8037 29.3107 17.7443L29.2362 17.6698L29.6374 17.2686C29.6968 17.2092 29.6968 17.1134 29.6374 17.054C29.578 16.9946 29.4822 16.9946 29.4228 17.054L29.0216 17.4552L28.3453 16.7789C28.3222 16.7558 28.2913 16.7492 28.261 16.7437C29.1731 16.7286 30.035 16.714 30.8313 16.7013C30.8107 16.7086 30.7883 16.7098 30.7725 16.7255C30.7131 16.7849 30.7131 16.8807 30.7725 16.9401L30.8895 17.057L30.761 17.1855C30.7016 17.2449 30.7016 17.3407 30.761 17.3995C30.8204 17.4589 30.9162 17.4589 30.9756 17.3995L31.104 17.271L31.3695 17.5364C31.4289 17.5958 31.5246 17.5958 31.584 17.5364C31.6434 17.477 31.6434 17.3813 31.584 17.3219L31.3186 17.0564L31.3701 17.0043C31.4295 16.9449 31.4295 16.8492 31.3701 16.7898C31.3107 16.7304 31.2149 16.7304 31.1556 16.7898L31.104 16.8413L30.9871 16.7243C30.9695 16.7073 30.9459 16.7055 30.924 16.6983C31.2186 16.6934 31.4998 16.6892 31.7743 16.6849C31.7295 16.9498 31.7283 17.1692 31.6943 17.4207C31.6059 18.077 31.7483 18.7637 32.3495 19.0552V31.111C30.3949 31.0425 28.4362 31.0007 26.4756 30.9728L26.4762 30.8752ZM34.8798 18.6346L33.2119 18.6086C32.6059 18.5976 32.1622 18.4873 32.2962 17.5049C32.3277 17.2692 32.3434 16.8886 32.3943 16.6783C33.1186 16.6673 35.018 16.6383 35.7471 16.6358C35.8325 16.9043 35.8562 17.2219 35.8671 17.5104C35.9119 18.4983 35.6943 18.6437 34.8798 18.6346ZM2.51313 15.7649C2.12344 14.8631 3.07919 14.0758 3.83919 13.5286L14.0707 6.1625C18.2725 3.13643 19.8125 3.27886 23.1434 5.37037L36.7895 13.8976C38.2713 14.8189 37.8356 15.5734 37.1337 15.8649C36.5919 16.0892 36.3034 16.0116 32.1756 16.0758C30.9131 16.0946 29.4059 16.1201 27.7556 16.1473L22.7901 16.2292C20.9968 16.2607 19.1568 16.2922 17.3628 16.3213L13.3846 16.3904C4.17253 16.5534 2.96707 16.8086 2.51313 15.7649ZM4.3798 17.1407C4.61434 17.1449 5.21374 17.1334 5.46162 17.1298C5.84828 17.1237 6.31919 17.117 6.85859 17.1079C7.21677 17.1019 7.70586 17.094 7.88404 17.0904C8.05677 18.5655 7.69919 18.6473 6.92404 18.6346C6.6004 18.6298 4.87313 18.6601 4.61313 18.4952C4.1998 18.2304 4.35071 17.6067 4.3798 17.1407ZM5.01859 19.2073C5.16162 19.2152 7.0095 19.2498 7.25616 19.2358V31.337C6.5095 31.3764 5.76343 31.4176 5.01859 31.4625V19.2073ZM2.95616 32.3728C3.34222 32.1704 3.82768 32.1389 4.25616 32.1116C10.2537 31.7334 16.2949 31.5443 22.3277 31.5443C27.0489 31.5443 31.7646 31.6601 36.4495 31.8916C36.9689 31.917 37.684 32.0043 37.8901 32.4601C38.0459 32.8025 37.8271 33.2201 37.5301 33.4552C37.5301 33.4552 37.4634 33.5122 37.3683 33.5619C36.4671 34.0528 11.0816 33.6637 4.1695 33.9425C1.95677 34.0146 2.19192 32.7776 2.95616 32.3728ZM38.1113 35.9013C37.6271 36.137 37.0259 36.137 36.4956 36.137C1.39253 36.1552 1.34465 36.5413 1.21616 35.2292C1.18344 34.8892 1.28707 34.4655 2.34647 34.1552C2.88586 34.5758 3.55192 34.5698 4.21616 34.5473C6.52343 34.4546 27.4198 34.3813 35.7598 34.4201C36.4434 34.4189 37.1907 34.4092 37.7756 34.0249C38.3537 34.2043 38.6871 34.4686 38.7683 34.8128C38.8731 35.2449 38.5162 35.7049 38.1113 35.9013Z" fill="#1A1A1A"/>
<path d="M18.8499 13.3846C19.022 13.4258 19.2086 13.4452 19.402 13.4452C20.202 13.4452 21.1171 13.113 21.5753 12.6106C22.1783 11.9488 22.3486 10.9324 21.999 10.0827C21.5729 9.0476 20.3759 8.38396 19.2699 8.5676C18.1656 8.75366 17.2505 9.77487 17.1868 10.8931C17.1311 11.8688 17.8008 13.1318 18.8499 13.3846ZM17.9068 11.6318L18.3299 12.0549L18.1929 12.1918C18.0717 12.0203 17.9753 11.83 17.9068 11.6318ZM19.9359 9.3076L19.7802 9.15184C19.8747 9.1585 19.9686 9.17184 20.0614 9.19305C20.0559 9.19729 20.048 9.19547 20.0426 9.20093L19.9359 9.3076ZM19.3662 9.16638L19.7214 9.52153L19.5583 9.68456C19.4989 9.74396 19.4989 9.83972 19.5583 9.89911C19.6177 9.9585 19.7135 9.9585 19.7723 9.89911L19.9353 9.73547L20.1844 9.98456C20.2438 10.044 20.3396 10.044 20.399 9.98456C20.4583 9.92517 20.4583 9.82941 20.399 9.77002L20.1493 9.52093L20.2559 9.41366C20.3002 9.36941 20.3002 9.3076 20.2783 9.25305C20.7886 9.43123 21.2323 9.81366 21.4377 10.313C21.6959 10.9403 21.568 11.7173 21.1262 12.2015C20.7008 12.6682 19.662 12.9555 18.9905 12.7943C18.7644 12.7397 18.562 12.6021 18.3874 12.424L18.5432 12.2682L18.6389 12.364C18.6983 12.4234 18.7941 12.4234 18.8535 12.364C18.9129 12.3046 18.9129 12.2088 18.8535 12.1494L18.7577 12.0537L19.1474 11.664C19.2068 11.6046 19.2068 11.5088 19.1474 11.4494C19.088 11.39 18.9923 11.39 18.9329 11.4494L18.5432 11.8391L17.7965 11.0924C17.7935 11.0361 17.7874 10.9791 17.7905 10.9258C17.805 10.6718 17.8826 10.4276 17.9996 10.2021L18.3183 10.5209L17.9947 10.8446C17.9353 10.904 17.9353 10.9997 17.9947 11.0591C18.0541 11.1185 18.1499 11.1185 18.2093 11.0591L18.5329 10.7355L18.7632 10.9658C18.8226 11.0252 18.9183 11.0252 18.9777 10.9658C19.0371 10.9064 19.0371 10.8106 18.9777 10.7518L18.7474 10.5215L19.1341 10.1349L19.3583 10.3591C19.4177 10.4185 19.5135 10.4185 19.5729 10.3591C19.6323 10.2997 19.6323 10.204 19.5729 10.1446L19.3293 9.90093C19.345 9.84881 19.3432 9.79366 19.302 9.75244C19.2608 9.71123 19.2056 9.70941 19.1535 9.72517L18.7977 9.36941C18.9753 9.27244 19.1662 9.20093 19.3662 9.16638ZM18.542 9.54335L18.9208 9.92214L18.5341 10.3088L18.165 9.93972C18.2735 9.79184 18.3983 9.65669 18.542 9.54335Z" fill="#1A1A1A"/>
<path d="M30.4013 17.2932L30.5474 17.1472C30.6068 17.0878 30.6068 16.992 30.5474 16.9326C30.488 16.8732 30.3922 16.8732 30.3328 16.9326L30.1868 17.0787L29.888 16.7799C29.8286 16.7205 29.7328 16.7205 29.6735 16.7799C29.6141 16.8393 29.6141 16.935 29.6735 16.9944L29.9722 17.2932L29.8947 17.3708C29.8353 17.4302 29.8353 17.526 29.8947 17.5854C29.9541 17.6447 30.0498 17.6447 30.1092 17.5854L30.1868 17.5078L30.4977 17.8187C30.5571 17.8781 30.6528 17.8781 30.7122 17.8187C30.7716 17.7593 30.7716 17.6635 30.7122 17.6047L30.4013 17.2932Z" fill="#1A1A1A"/>
</svg>
