<svg xmlns="http://www.w3.org/2000/svg" width="40" height="40" fill="none" viewBox="0 0 40 40"><path fill="#1a1a1a" d="M9.38 15.374q.16.01.313.01c.214 0 2.204-.034 2.42-.039 15.991-.268 17.785-.302 18.67-.302 1.95-.011 2.31-1.446.828-2.367L22.45 6.95c-2.238-1.405-3.498-1.727-6.657.55l-6.87 4.945c-.311.225-.633.457-.869.796-.542.78-.408 2.023 1.326 2.132m11.143-8.751-.287.286-.44-.44.09.005c.217.025.429.079.637.149m-1.154-.154.003.004c-.003.003-.009.002-.012.006l-.494.493-.336-.336q.414-.137.839-.167m-2.233.85.198.198-.35.35-.272-.27q.21-.145.424-.278m-.99.673q.156-.112.312-.221l.31.311-.107.108a.151.151 0 1 0 .214.215l.108-.108.006.006a.151.151 0 1 0 .215-.214l-.006-.006.35-.35.312.312a.151.151 0 1 0 .215-.215l-.312-.312.171-.172a.151.151 0 1 0-.215-.214l-.17.171-.148-.147c.27-.157.54-.296.814-.407l.437.437-.162.162a.152.152 0 1 0 .215.214l.162-.161.103.103a.152.152 0 1 0 .214-.215l-.103-.103.494-.493q.002-.006.005-.013l.444.443-.027.028a.15.15 0 0 0 0 .214.15.15 0 0 0 .213 0l.028-.028c.12.12.228.26.35.137a.15.15 0 0 0 0-.214l-.136-.137.335-.334c.015-.016.015-.037.023-.056.468.198.91.475 1.319.731l9.162 5.726c.964.598.835 1.247-.588 1.247-.785 0-3.314.046-18.6.302-1.089.02-1.913.032-2.328.038-.322.01-.755-.018-1.045-.161l.394-.394c.075.05.138.04.188-.011.052-.052.05-.13.011-.188l.42-.42.226.225a.152.152 0 0 0 .215-.214l-.226-.226.584-.584.402.402a.151.151 0 1 0 .215-.214l-.819-.819.7-.504.459.46a.15.15 0 0 0 .038.092.15.15 0 0 0 .092.038l.104.105a.151.151 0 1 0 .215-.215l-.062-.062.664-.664.25.25a.151.151 0 1 0 .214-.214l-.25-.25.522-.521a.151.151 0 1 0-.215-.215l-.521.521-.24-.24.824-.593.631.63c.06.06.155.06.214 0a.15.15 0 0 0 0-.214l-.596-.595 1.033-.744.366.366-.215.216a.151.151 0 1 0 .214.214l.215-.215.253.252a.151.151 0 1 0 .215-.214l-.253-.253.727-.727.162.163c.06.06.155.06.214 0a.15.15 0 0 0 0-.215l-.162-.162.279-.28a.151.151 0 1 0-.215-.214l-.279.28-.178-.179zm-6.045 4.373.225.225-.583.584-.332-.332.684-.492c.003.004.002.01.006.015m1.957-1.43.275.274-.664.664-.383-.382zm3.45-2.483.212.213-.727.726-.331-.331zm-6.344 4.571.364.365-.413.412-.394-.394q.195-.202.443-.383m-.64.615.377.377-.408.408c-.185-.244-.123-.537.03-.785"/><path fill="#1a1a1a" d="M39.36 34.672c-.117-.489-.489-.86-1.1-1.113.295-.418.374-.925.182-1.35-.342-.757-1.284-.889-1.962-.922l-.679-.028V19.103c.824-.384.765-1.651.567-2.48.336-.018.677-.064 1-.198.61-.254 1.013-.78 1.026-1.341.02-.766-.643-1.301-1.283-1.7L23.465 4.856c-3.297-2.07-5.107-2.529-9.749.814L3.483 13.038c-2.757 1.99-1.732 3.812.293 4.06-.05.606-.198 1.454.511 1.908.04.025.084.04.126.06v12.43l-.196.01c-.464.03-1.042.067-1.543.33-.608.322-1.098 1.067-.737 1.811-.587.202-1.42.64-1.324 1.64.053.543.476 1.045 1.075 1.276.703.275-1.393.198 34.808.179.566 0 1.27 0 1.88-.296.612-.296 1.164-1.019.983-1.774m-4.166-3.44q-1.117-.05-2.237-.094V19.206q.128.007.245.01l1.669.025c.165.002.158.005.324-.004zM9.953 17.057l.832-.014c-.01.007-.022.005-.031.013l-.402.401zm-.422.008.095.096-.44.439-.52-.52c.28-.006.565-.01.865-.015M8.363 18.59l.337.337-.57.57-.267-.267v-.136a1.03 1.03 0 0 0 .5-.504m-.5 11.686.057.057-.058.058zm0-4.708.102.103-.103.102zm0-1.725.06.06-.06.059zm0-2.145.279.28-.28.279zm0-2.04.054.055a.15.15 0 0 0 .002.208.147.147 0 0 0 .209.002l.48.48c.01.011.027.01.04.017l-.786.787zm0 11.161.271-.272.208.208a.151.151 0 1 0 .214-.215l-.208-.207 1.174-1.174a.151.151 0 1 0-.214-.215l-1.174 1.174-.272-.272v-.812l.126-.125.394.394a.15.15 0 0 0 .214 0 .15.15 0 0 0 0-.215l-.394-.394.746-.746a.15.15 0 0 0 0-.214.15.15 0 0 0-.214 0l-.747.747-.125-.125v-.765l.161-.162.368.367a.151.151 0 1 0 .214-.214l-.367-.367.739-.739a.151.151 0 1 0-.215-.214L8.023 27l-.161-.162v-.639l.316-.316.245.245a.151.151 0 1 0 .214-.215l-.244-.244.706-.707a.151.151 0 1 0-.214-.215l-.707.707-.316-.316v-.75l.274-.274.524.524a.152.152 0 1 0 .214-.214L8.35 23.9l.888-.888a.152.152 0 1 0-.215-.215l-.887.888-.274-.274v-.727l.493-.493.398.398a.152.152 0 1 0 .214-.215l-.398-.398.573-.572a.151.151 0 1 0-.215-.214l-.572.572-.31-.31 1.208-1.209a.151.151 0 1 0-.214-.214l-.2.2c-.008-.013-.006-.03-.017-.041l-.479-.478.57-.57.34.339a.151.151 0 1 0 .214-.215l-.339-.338.173-.173a.15.15 0 0 0 0-.215c-.132-.131-.255.04-.387.173l-.415-.415c-.009-.009-.022-.007-.031-.013.071-.303.06-.608.051-.798-.001-.04-.006-.09-.008-.134l.46.461-.134.135a.151.151 0 1 0 .215.214l.134-.135.268.267a.151.151 0 1 0 .214-.213l-.267-.268.44-.44.362.364c.008.02.008.042.025.059.016.016.038.017.059.024l.14.14a.151.151 0 1 0 .214-.215l-.075-.074.402-.401a.15.15 0 0 0 0-.215c-.01-.01-.026-.008-.038-.016l.117-.002.255.256-.077.077a.152.152 0 0 0 .214.215l.077-.078.311.311a.151.151 0 1 0 .215-.214l-.311-.31.146-.147a.14.14 0 0 0 .037-.124l.265-.005.04.04-.128.13a.15.15 0 0 0 0 .213c.06.06.155.06.214 0l.128-.128.266.265a.151.151 0 1 0 .214-.214l-.265-.266.05-.05.351-.006c-.002.03-.033.35-.043.422-.09.663.058 1.344.655 1.634v12.016c-1.935.059-3.87.132-5.799.229zm3.606-13.788.098-.001-.05.05zm7.267-.125a.15.15 0 0 0 .037.09l.165.165-.44.439-.678-.678zm-1.625 13.307.12.12-.12.121zm0-3.008.01.01-.01.012zm0-1.7.166.166-.166.166zm0-1.725.123.122-.123.123zm0-2.144.342.341-.342.342zm.02-.41c-.006-.005-.014-.003-.02-.007v-1.623l.117.117a.15.15 0 0 0 .003.209.147.147 0 0 0 .208.002l.48.48c.011.011.027.01.041.017l-.817.818zm-.02-2.047v-.076c.238-.111.411-.281.53-.547l.37.37-.57.57c-.058-.057-.264-.269-.33-.317m-.153-.687c-.17.142-.447.15-.767.144l-1.668-.026c-1.047-.02-.978-.477-.866-1.617l3.469-.061c.066.41.15 1.296-.168 1.56m-2.69.715q.127.007.244.01l1.67.025c.165.002.158.005.324-.004V31c-.746.015-1.492.039-2.238.06zm2.843 11.675.335-.335.208.208c.06.06.155.06.214 0a.15.15 0 0 0 0-.215l-.208-.207 1.174-1.174a.151.151 0 1 0-.214-.215l-1.174 1.174-.335-.335v-.697c.006-.004.014-.003.02-.008l.169-.17.394.394a.151.151 0 1 0 .214-.214l-.394-.394.747-.747a.151.151 0 1 0-.214-.214l-.747.747-.188-.188v-.665c.015-.007.033-.006.045-.019l.18-.18.366.367a.151.151 0 1 0 .215-.215l-.367-.366.739-.739a.151.151 0 1 0-.215-.215l-.739.74-.225-.226v-.512l.38-.38.245.245c.059.06.155.06.213 0a.15.15 0 0 0 0-.214l-.244-.245.707-.707a.151.151 0 1 0-.215-.215l-.706.707-.38-.38v-.623l.337-.337.524.524a.151.151 0 1 0 .215-.214l-.524-.524.888-.888a.151.151 0 1 0-.215-.215l-.888.888-.337-.337v-.604l.557-.556.397.398a.151.151 0 1 0 .215-.215l-.398-.397.572-.573a.151.151 0 1 0-.214-.214l-.572.572-.31-.31 1.207-1.209a.152.152 0 0 0-.214-.214l-.2.2c-.008-.014-.006-.03-.017-.041l-.478-.478.57-.57.339.338a.151.151 0 1 0 .214-.214l-.339-.339.173-.173a.151.151 0 1 0-.214-.214l-.172.172-.416-.414c-.02-.02-.048-.025-.074-.03.076-.342.054-.636.033-.969l.515.515-.136.136a.15.15 0 0 0 0 .213c.06.06.156.06.214 0l.136-.135.267.268a.152.152 0 0 0 .214-.214l-.267-.268.44-.44.363.365c.007.02.008.041.024.058.016.015.039.017.059.024l.14.14a.151.151 0 1 0 .215-.214l-.075-.069.4-.401a.151.151 0 1 0-.214-.215l-.401.401-.558-.558 1.169-.02a.15.15 0 0 0 .041.117l.299.298-.078.078a.151.151 0 1 0 .215.215l.078-.078.311.31a.151.151 0 1 0 .215-.213l-.311-.311.146-.146a.151.151 0 1 0-.215-.215l-.146.146-.206-.206.758-.013c.005.03.011.06.034.082l.116.117-.128.128a.151.151 0 1 0 .215.214l.128-.128.265.265a.152.152 0 1 0 .215-.214l-.265-.266.052-.052c.043-.044.044-.104.023-.158l.394-.007c-.097.83-.22 1.714.488 2.165.035.023.072.035.109.052v11.888q-2.958-.009-5.915.044v-.109zm11.02-13.887.166.165-.44.44-.766-.767q-.003 0-.005-.002l-.012-.065.691-.012.449-.007c-.03.006-.06.012-.083.034a.15.15 0 0 0 0 .214m-4.889 1.501c-.426-.273-.275-1.154-.202-1.664l3.421-.056c.053.23.07.486.082.736.046.984-.175 1.138-.987 1.124l-1.668-.026c-.225-.004-.48-.009-.646-.114m3.234 11.723.114.114-.114.114zm0-3.007.004.004-.004.005zm0-1.7.159.159-.159.159zm0-1.726.117.116-.117.117zm0-2.144.336.335-.336.336zm.014-.415c-.004-.004-.01-.003-.014-.006v-1.619l.111.111a.15.15 0 0 0 .003.209.147.147 0 0 0 .208.002l.48.48c.01.011.027.01.041.017l-.817.817zm0-2.04-.014-.005v-.079c.234-.109.41-.278.53-.54l.363.363-.57.57zm-2.857.02q.127.007.244.01l1.669.025c.166.002.158.005.324-.004v11.73a315 315 0 0 0-2.238-.02zm2.843 11.67.329-.33.207.209a.151.151 0 1 0 .215-.215l-.208-.208 1.174-1.174a.151.151 0 1 0-.214-.214l-1.174 1.174-.329-.329v-.705c.004-.003.01-.002.012-.006l.17-.169.393.394a.151.151 0 1 0 .215-.214l-.394-.394.746-.747a.151.151 0 1 0-.215-.214l-.746.747-.181-.182v-.674c.012-.007.027-.006.038-.016l.18-.18.367.367a.151.151 0 1 0 .215-.214l-.367-.367.739-.739a.151.151 0 1 0-.215-.214l-.739.739-.218-.22v-.524l.372-.373.245.245a.152.152 0 1 0 .215-.215l-.245-.245.707-.707a.151.151 0 1 0-.215-.214l-.707.707-.372-.373v-.637l.33-.33.524.525a.151.151 0 1 0 .215-.215l-.525-.524.888-.888a.151.151 0 1 0-.214-.215l-.888.888-.33-.33v-.617l.55-.55.397.398c.06.06.156.06.214 0a.15.15 0 0 0 0-.214l-.397-.398.572-.572a.151.151 0 1 0-.215-.214l-.572.572-.31-.31 1.208-1.21a.151.151 0 1 0-.213-.214l-.201.2c-.007-.012-.006-.029-.017-.04l-.478-.478.57-.57.338.339a.151.151 0 1 0 .215-.215l-.339-.339.173-.172a.151.151 0 1 0-.215-.215l-.173.173-.413-.414c-.019-.018-.044-.02-.067-.027.065-.29.054-.585.045-.785l-.01-.177.504.505-.135.135a.15.15 0 0 0 0 .214c.06.06.155.06.214 0l.135-.135.267.267a.151.151 0 1 0 .215-.213l-.267-.268.44-.44.362.364c.007.02.008.042.024.059.017.016.039.017.06.024l.14.14a.151.151 0 1 0 .214-.215l-.075-.074.401-.401a.151.151 0 1 0-.214-.215l-.401.401-.677-.676c-.023-.023-.054-.03-.084-.035l2.57-.043c-.02.008-.043.009-.058.024a.15.15 0 0 0 0 .215l.117.117-.129.129a.151.151 0 1 0 .215.214l.128-.129.265.265a.151.151 0 1 0 .215-.214l-.265-.266.051-.052a.151.151 0 1 0-.214-.214l-.052.051-.117-.117c-.017-.017-.041-.018-.063-.026l.85-.013c-.044.265-.046.484-.08.736-.088.656.054 1.343.656 1.634v12.056c-1.955-.069-3.914-.11-5.874-.138zm8.404-12.241-1.668-.026c-.606-.011-1.05-.122-.916-1.104.032-.236.047-.616.098-.827.725-.01 2.624-.04 3.353-.042.086.268.11.586.12.874.045.988-.173 1.134-.987 1.125m-32.367-2.87c-.39-.902.566-1.69 1.326-2.236l10.232-7.366c4.202-3.027 5.742-2.884 9.072-.793l13.646 8.528c1.482.92 1.047 1.675.345 1.967-.542.224-.83.147-4.958.21l-4.42.072-4.966.082c-1.793.032-3.633.063-5.427.092l-3.978.07c-9.212.162-10.418.418-10.872-.626M4.38 17.14c.234.004.834-.008 1.082-.011l1.397-.022 1.025-.018c.173 1.476-.185 1.557-.96 1.545-.324-.005-2.05.025-2.31-.14-.414-.265-.263-.888-.234-1.354m.639 2.066c.143.008 1.99.043 2.237.029v12.101q-1.12.059-2.237.125zM2.956 32.373c.386-.203.872-.234 1.3-.261a288 288 0 0 1 32.194-.22c.519.025 1.234.112 1.44.568.156.343-.063.76-.36.995 0 0-.067.057-.162.107-.9.49-26.286.102-33.198.38-2.213.073-1.978-1.164-1.214-1.57M38.111 35.9c-.484.236-1.085.236-1.615.236-35.103.018-35.151.404-35.28-.908-.033-.34.071-.764 1.13-1.074.54.42 1.206.415 1.87.392 2.307-.092 23.204-.166 31.544-.127.683-.001 1.43-.01 2.016-.395q.869.271.992.788c.105.432-.252.892-.657 1.088"/><path fill="#1a1a1a" d="M18.85 13.385c.172.04.359.06.552.06.8 0 1.715-.332 2.173-.834.603-.662.774-1.679.424-2.528-.426-1.035-1.623-1.699-2.73-1.515-1.103.186-2.018 1.207-2.082 2.325-.056.976.614 2.239 1.663 2.492m-.943-1.753.423.423-.137.137a2.2 2.2 0 0 1-.286-.56m2.029-2.324-.156-.156q.143.01.281.041c-.005.004-.013.002-.018.008zm-.57-.142.355.356-.163.163a.151.151 0 1 0 .214.214l.163-.164.25.25a.151.151 0 1 0 .214-.215l-.25-.25.107-.106c.044-.045.044-.106.022-.16.51.177.954.56 1.16 1.059.258.627.13 1.404-.312 1.888-.425.467-1.464.755-2.136.593a1.3 1.3 0 0 1-.603-.37l.156-.156.096.096a.151.151 0 1 0 .215-.215l-.096-.095.39-.39a.151.151 0 1 0-.215-.215l-.39.39-.746-.747c-.003-.056-.01-.113-.006-.166.014-.254.092-.498.209-.724l.318.319-.323.324a.151.151 0 1 0 .214.214l.324-.323.23.23a.151.151 0 1 0 .215-.214l-.23-.23.386-.387.224.224a.151.151 0 1 0 .215-.214l-.244-.244c.016-.052.014-.107-.027-.149-.041-.04-.096-.043-.148-.027l-.356-.356c.177-.097.368-.168.568-.203m-.824.377.379.38-.387.386-.369-.37a2 2 0 0 1 .377-.396m11.859 7.75.146-.146a.151.151 0 1 0-.214-.214l-.146.146-.299-.3a.151.151 0 1 0-.215.215l.3.3-.078.077a.151.151 0 1 0 .214.214l.078-.077.31.31a.151.151 0 1 0 .215-.213z"/></svg>