<svg xmlns="http://www.w3.org/2000/svg" width="307" height="48" fill="none" viewBox="0 0 307 48"><path fill="#fff" d="M43.289 22.527q.194-1.317-.267-1.658-.485-.34-1.189.219-.412-.219-1.114.414a.76.76 0 0 0 .024-.565q.631-.293.812-.647.18-.354.181-1.109.075-.462.845-1.656.533-1.194-.752-.83.705-.633.704-1.097.048-.439-.365-1.12-.168-.392-.508-.142a1.4 1.4 0 0 0 .133-.584q.012-.34-.448-1.439-.07-1.438-.675-1.197a3.9 3.9 0 0 0-.486-1.438q-.582-.879-.92-.464-.946-1.415-1.77-1.17c-.016-.4-.16-.786-.413-1.096q-.22-.927-.534-1.292-.436-.173-.606.487a4 4 0 0 0-.34-1.12.94.94 0 0 0-.844-.61.7.7 0 0 0-.41.072 1.3 1.3 0 0 0-.656-.243q-.824-.876-1.503-.142l-.074-.512q-.247-.903-.972-.393-1.188-1.244-2.038-1.633-.704-.244-.92.122a1.64 1.64 0 0 0-.777-.464A8 8 0 0 1 26.63 1q-.557-.023-.485.61c-.581.033-.985.142-1.2.306-.216.164-.275.41-.17.719.13.336.388.608.716.755a.74.74 0 0 0-.122.536q.024.366.776.61c.357.097.732.106 1.092.024q-.123.566.387.707.704.733 1.747.365l-.074.464.946.39a1.11 1.11 0 0 0 .63.975l.372.162c-.166.082-.313.2-.432.343a.55.55 0 0 0-.107.294l-.794.74q-.75-.438-1.548-.785l.16-1.414-.12-.053c-.282-.121-1.453-.498-1.77-.578l-.132-.033-.696 1.25a13 13 0 0 0-1.702-.278l-.281-1.402-.134-.008a23 23 0 0 0-1.722 0l-.266.018-.282 1.402q-.862.076-1.706.273l-.717-1.25-.13.033a27 27 0 0 0-1.756.579l-.124.05.16 1.423q-.79.344-1.533.785L14.55 8.04l-.114.075-.141.096q.165-.323.272-.672l.205-.066.243-.098c.808-.325 1.495-.672 2.127-.965l.977-.522a8.1 8.1 0 0 0 1.94-1.195q.968-.85 1.043-1.78c-.114-.141-.445-.226-.995-.243.27-.278.433-.644.459-1.031q-.317-.438-1.892-.142a8.5 8.5 0 0 0-2.886 1.292 10.5 10.5 0 0 0-2.267 1.962 11 11 0 0 0-1.613 2.405l.486-1.122q.363-.805.775-1.877.122-.51.013-.732-.109-.22-.473-.121c-.242.065-.728.406-1.407 1.024a11.6 11.6 0 0 0-1.97 2.83 19 19 0 0 0-1.177 2.656c.117-.622.1-1.262-.048-1.877q-.123-.317-.533-.17a3.4 3.4 0 0 0-.777.803l-.752 1.037q-.476.685-.861 1.426c-.364.7-.657 1.435-.873 2.194q-.375 1.273-.57 3.364a9.8 9.8 0 0 0 .189 2.872q.388 1.536.775 2.263.387.728.728.849c.14.356.34.95.583 1.778.11.283.168.585.169.89a.43.43 0 0 0 .157.424.9.9 0 0 1 .304.488c.198.753.482 1.48.845 2.169a6 6 0 0 0-.098 1.073q-1.164-3.395-1.891-5.12-1.407-3.144-2.207-2.876-.388.141-.485.707-.024.22 0 1.122.03.955.17 1.9.726 3.243 2.498 5.412l1.77 2.096c.298.314.641.58 1.018.792a1.17 1.17 0 0 0 .898.142q.686 1.082 1.527 2.048.582.903 1.213.849.266.585.8.584l.364-.048q.638.632 1.358 1.17l-.46 1.315q-1.109.166-2.228.201-.946-.682-2.674-1.852l-.073-1.462a2.1 2.1 0 0 1 .267-1.273q.072-.417-.461-.756-.801-.39-1.14-.317a.28.28 0 0 0-.17.268v.805l-2.303.048a.65.65 0 0 0-.522.245q-.204.241-.011.974.024.234-.026.463-.168.78-.896 1.9-.098.171.084.513.18.344.91 1.072.448.428.958.781.641.462 2.267 1.415 1.769 1.07 3.659 1.9.365.027 4.851-.657l.024.269q-1.286.975-1.65.803-.51.05-.315.756a.82.82 0 0 0 .534.44l.315.365.898.536c.316.097.654.097.97 0q.435-.17.582-.756l.096-.096.97-.976.704-.536q.825-.141 1.067-.586.048-.391.218-.486l.845-.586q.049-.122 1.043.415c.278.083.577.065.844-.05l.63-.365q.845.195 2.984 2.122c-.017.141.072.317.266.512.114.142.422.269.922.365l.339.634.339.123a2.03 2.03 0 0 0 1.407-.536l.534-.172c.274-.21.395-.424.363-.633l-.218-.22-.46-.121a9.4 9.4 0 0 1-1.77-1.122l-.39-.293q3.269.534 6.573.732.486.097 1.297-.5.813-.597 4.912-3.522a5.3 5.3 0 0 0 .97-1.51 2.9 2.9 0 0 1-.644-.977 4.7 4.7 0 0 1-.351-1.072 1.7 1.7 0 0 1-.024-.744.65.65 0 0 0-.218-.621q-.12-.17-.563-.22a9 9 0 0 0-1.747.025q-.46-.048-.533-.22l.024-.584q.073-.39-.218-.342-1.065.269-1.285.536-.317.342.024.731a.74.74 0 0 1 .266.566q-.078 1.09-.266 2.169-1.77 1.415-2.401 1.731-.508.17-2.28-.141-.39-.34-.563-1.17.665-.406 1.285-.877.395-.06.777-.183.315-.11.315-.597a.82.82 0 0 0 .46-.537l1.407-1.706a2.75 2.75 0 0 1 1.48-.682q.97-.075 2.523-1.098.242-.267 0-.755.46-.267 1.503-1.511a1.42 1.42 0 0 0 .194-1.293q.969-1.168 1.09-1.852a4 4 0 0 0-.023-1.317q.354-.207.643-.499a.84.84 0 0 0 .181-.566.8.8 0 0 0-.267-.61q.733-1.018.198-1.821m-5.99-13.382q.14-.275.242-.566c.05-.142.194-.161.436-.048q.363.17 1.164 1.291.39-.437.753.317c.298.489.418 1.066.34 1.634q.897-.488.63.658c.208.397.367.82.473 1.256.06.288.009.588-.141.84a1.2 1.2 0 0 0-.22.597c.009.141.065.134.17-.011q.158-.22.644-.367.315.683.266.903 0 .267-.327.584a1.2 1.2 0 0 0-.376.755.194.194 0 0 0 .219.221l.436-.123c.226-.032.233.142.024.536a8 8 0 0 0-.497 1.074 2.2 2.2 0 0 0-.158.707q-.025.566-.194.66.048-.74-.036-1.476a15 15 0 0 0-.303-1.719q.194-.17.533-1.146.17-.486-.073-.121-.267.731-.533.902a50 50 0 0 1-.583-2.194 3.7 3.7 0 0 0 .462-1.536q.023-.779-.097-.122-.141.928-.534 1.439a25 25 0 0 0-.68-1.925 4.4 4.4 0 0 0 .098-1.196q-.025-.681-.121-.048a2.8 2.8 0 0 1-.121.877l-.534-1.365-.342-.776q-.171-.39-.122 0l.315 1.022a3.2 3.2 0 0 0-.678-.608q-.315-.196-.121.024.517.447.922.999.315.78.63 1.61-.923-.78-1.286-.879-.46-.17 0 .171.654.414 1.548 1.463.291.85.563 1.658-.46-.268-1.115-1.074-.291-.29-.024.098a7 7 0 0 0 1.236 1.415l.364 1.486a9 9 0 0 0-1.455-1.146q-.389-.244-.048.098a8.3 8.3 0 0 1 1.621 1.658q.245.68.219 2.51-.024.465-.679.683l-.097 1.17-.606.023q-.486-.681-.74-1.059-.255-.378-.728-1.158-.383-.616-.691-1.274a1.4 1.4 0 0 1-.107-.848q.012-.079.035-.155l.024-.083a17 17 0 0 1 .217-.697l.02-.058q.054-.165-.022-.07l-.022.03q-.051.091-.097.181a4.3 4.3 0 0 0-.287.723q-.016.047-.029.096l-.023-.066-.06-.17-.402-1.153q.026-.252.097-.494a3 3 0 0 1 .058-.184l.069-.186a8 8 0 0 1 .648-1.257q.244-.438-.047-.073a5.6 5.6 0 0 0-.824 1.535 3 3 0 0 0-.057.185 3 3 0 0 0-.065.255l-.104-.235-.076-.168-.076-.17-.496-1.11q-.025-.465.582-1.755.316-.683-.141.048-.359.651-.563 1.365l-.162-.64c-.018-.068-.035-.142-.053-.203-.019-.06-.036-.141-.054-.202l-.087-.318a22 22 0 0 0-.3-1l-.169-.05.07.194.027.075.058.34q.093.51.215.961c.019.068.037.142.057.201s.038.132.059.197l.14.424a4 4 0 0 0-.305-.246l-.14-.102c-.046-.032-.102-.065-.153-.096a4 4 0 0 0-.44-.238q-.316-.17 0 .072c.14.08.257.159.374.238l.141.103.14.108q.22.173.407.38.292.683.534 1.244a4 4 0 0 0-.455-.273 9 9 0 0 0-.256-.127l-.25-.115a17 17 0 0 0-.518-.217q-.39-.072 0 .098.325.133.588.265.14.069.262.141c.081.048.184.11.266.166a2 2 0 0 1 .353.288q.074.075.134.162.012.015.02.03l.486 1.29q-.266 0-.703-.803a1.7 1.7 0 0 0-.365-.45 2 2 0 0 0-.14-.117 6 6 0 0 0-1.318-.75q-.29-.121-.267-.512.048-.268.563-.22a2.3 2.3 0 0 0-.34-.657l-.187-.294q-.388-.804.46-.805-.294-.457-.226-.72l.008-.035a1.6 1.6 0 0 1 .024-.371q.053-.28.193-.53a3 3 0 0 0 .218-.586q.461.27.838.451a.72.72 0 0 1 .4.67l-.122.756q.072.218.389-.142.316-.44.508-.511c.203.101.378.252.51.438q.24.462-.17 1.706l-.267.683q.825-1.098 1.334-1.048.17.121.108.5a2.7 2.7 0 0 0 0 .791.75.75 0 0 1-.281.708c-.215.204-.363.47-.422.76q-.025.092-.042.19.042-.033.083-.06.684-.48.547.282l-.22.795-.047.166-.024.088q-.121.755.242.707.364-.049.449.096a.87.87 0 0 1 .036.512q-.216.514-.194.67a.48.48 0 0 0 .134.27q.109.108.473-.05.363-.159.363.22c0 .251 0 .496.012.73.012.25.092.49.231.695.1.15.25.26.422.31l.238-.26a.37.37 0 0 1-.402-.236.8.8 0 0 1-.047-.244 1 1 0 0 1 0-.154c0-.055 0-.109.009-.16.008-.05 0-.102 0-.151v-.512c0-.072-.011-.142-.019-.201-.007-.06-.049-.11-.073-.159a2 2 0 0 0-.073-.13.56.56 0 0 0-.194-.205l-.048-.018a.12.12 0 0 1-.056-.048l-.036-.053a2 2 0 0 1-.125-.264l-.05-.126q-.078-.2-.175-.484a37 37 0 0 1-.456-1.463l.51.024c.07.256.14.491.2.708.061.216.128.402.188.566a6 6 0 0 0 .224.551 1.6 1.6 0 0 0 .186.303.3.3 0 0 0 .1.082q.074.034.14.082a.5.5 0 0 1 .102.088.24.24 0 0 1 .067.195 1 1 0 0 0 0 .222c0 .065.017.142.03.224a7 7 0 0 0 .086.445q.435-.122.509-.803.121-.636-.365-.976-.51-.293-.58-.537-.148-.413.314-.511.267-.142-1.284-1.17-.803-.566-.486-1c.08-.14.23-.14.449.012q.327.23.422.11.17-.341-.266-.475c-.29-.089-.422-.19-.412-.305a6 6 0 0 1 .024-1.023c.03-.212.013-.429-.05-.634q-.265-.39-1.017.048c.11-.253.14-.534.084-.805a1.84 1.84 0 0 0-.375-.755l-.242-.755q-.098-.39.436-.537-.157-.76.014-1.077m-.462 17.77.04-.12q.118-.393-.095-.01l-.01.033-.068.142-.187.376a4 4 0 0 1-.255.439 9 9 0 0 0-.185-.88l-.046-.184-.047-.183c-.015-.063-.025-.093-.038-.141q-.219-.684-.12.024c0 .035.01.07.015.103l.028.181.03.181q.133.9.193 1.753a6.4 6.4 0 0 0-.836-.755l-.057-.044-.14-.11-.141-.12a4 4 0 0 1-.407-.41q-.266-.17-.097.05.201.261.432.497.061.065.13.131l.132.129.167.157q.372.32.691.694a.8.8 0 0 1 .141.293 7 7 0 0 1-.291.362 8 8 0 0 1-.217.248.4.4 0 0 1-.094-.103.44.44 0 0 1-.093-.24.5.5 0 0 0-.158-.342l-.794-.655-.02-.015q-.606-.537-.386-.975a2.6 2.6 0 0 1-.304-.512.55.55 0 0 1 .06-.573q.195-.283.898.256c.08-.254.08-.527 0-.78a7 7 0 0 0-.291-.732 10 10 0 0 0-.607-.999l-.059-.131a1.5 1.5 0 0 1-.107-.328q-.018-.129.035-.166s0-.007.01-.008a.21.21 0 0 1 .173 0q.16.07.289.188.606-.659.8-.378c.165.289.272.607.314.938.082.45.09.912.026 1.365l-.097.098.097.097q.05.142-.123 1.096.002.09.026.174a.8.8 0 0 0 .094.213v-.009a2 2 0 0 1-.031-.35v-.08q.025-.123.158-.573a4 4 0 0 0 .133-.512c0-.041 0-.07-.124-.085a.3.3 0 0 0 .209-.208.4.4 0 0 0 .025-.267 4.6 4.6 0 0 1-.05-.768 3.5 3.5 0 0 0-.12-.964 3 3 0 0 1-.141-.512q-.024-.182-.291-.206c-.179-.016-.422.163-.752.536q.22-1.048.45-1.402.228-.354.472-.206c.136.07.246.18.315.316q.074.171.218-.06.147-.232.244-.159.133.124.205.292a1.9 1.9 0 0 1 .183.62q.033.258.06.733v.115q.011.505-.141.707-.013.02-.027.037a.83.83 0 0 0-.194.536q.047 1.273.194 1.255a.7.7 0 0 0 .352-.195.4.4 0 0 1 .364-.135.2.2 0 0 1 .099.12q.057.175.067.358c.007.07.013.142.016.23.003.087.008.175.014.234q.03.306.107-.1.097-.524.364-.525.268 0 .096 1.415-.745.642-1.358 1.414-.141-.61-.011-.849.141-.263.242-.547c.066-.184.12-.346.166-.496.025.001.032-.019.036-.034m-3.213 4.417a2.8 2.8 0 0 0-.449.555l.098.902q.096.567-.594 1.255-.69.69-.91 1.28-.122.44-.945.95a1.5 1.5 0 0 0-.389-.463q-.048-.098-.194-.072-.823.218-3.321 1.463-.438.219-1.237 1.291h-.946a4.8 4.8 0 0 1-.824-.61q-.318-.244-1.116.171a1.9 1.9 0 0 0-1.506.317c-.308.113-.534.142-.68.074l-1.188-1.293q-3.686-1.555-4.026-1.39c-.242.148-.43.37-.534.635q-.363-.17-1.09-.927l-.752-.849q-.825-.925-.68-1.755l.122-.756a.35.35 0 0 0-.048-.267 1.35 1.35 0 0 0-.655-.345c-.035-.016-.14-.053-.259.389.02.066-.306-.395-.546-.743l1.244-.566q.582.641 1.225 1.218l-.593 1.32.106.085c.236.195 1.233.918 1.492 1.088l.115.075 1.053-.973q.75.439 1.548.786l-.16 1.437.127.048c.306.114 1.46.49 1.758.575l.14.038.704-1.256q.845.182 1.703.266l.29 1.414h.141c.158 0 .542.009.926.009s.766 0 .918-.009h.14l.282-1.414q.848-.089 1.68-.272l.71 1.255.134-.038a42 42 0 0 0 1.76-.575l.126-.05-.156-1.43q.79-.355 1.534-.796l1.061.97.114-.07c.262-.164 1.253-.9 1.492-1.085l.11-.086-.603-1.312q.653-.573 1.225-1.229l1.297.589a8 8 0 0 0-.188.308c-.04.023-.594-.296-.785-.132m.717.459c-.072.174-.154.47-.317.488s-.478-.211-.478-.425a.36.36 0 0 1 .232-.33.4.4 0 0 1 .14-.02c.206.007.496.113.423.287m-5.845 6.365q-.122-.416.29-.659c.24-.188.542-.275.845-.243.128.017.14.252.023.707q-.14.342-1.43.83l-.802-.098.845-.489.218.341h.121zm1.09-1.317a1.9 1.9 0 0 0-.843.208q-.535.232-.583.645a.56.56 0 0 1-.266.367q-.535.292-.97.512l-.753-.05.389-.536c.215-.244.469-.45.751-.61q2.062-1.022 2.742-1.193a.176.176 0 0 1 .218.073l.193.243-.266.172a.84.84 0 0 1-.604.165zm-13.288-.512c-.26-.141-.47-.195-.63-.141q-.17.048-.364.488l-.05-.05q.099-.414.303-.512a.61.61 0 0 1 .527.043l1.163.566 1.989.755q.495.497.898 1.072-.608.075-1.31.098l-1.052-.739q-.63-.755-.921-1.096a2.1 2.1 0 0 0-.553-.488zm.388.83a.72.72 0 0 1-.68 0l-.387-.295c.128-.324.299-.424.508-.317l.389.343zm-7.058-7.8-.533-.683.388-.976a7.3 7.3 0 0 0 .145 1.654zm.116-2.688v-.436a18 18 0 0 1 .437-2.998q.508-2.024.97-2.146.266.708.436 2.622a17.6 17.6 0 0 1 0 3.448q-.216 1.95-.654 2.633l-.24.516-.075.167v-.273q0-.724.012-1.308v-.27c0-.196.01-.38.016-.55v-.062c0-.089 0-.184.01-.283q.03-.89.061-2.24.039-1.574.207-3.572.098-.486-.049-.22-.388 2.025-.46 5.194v1.385l-.01.352-.007.27-.007.27-.017.668-.007.293v.048l-.315-.367-.031-.168-.05-.27c-.015-.09-.022-.15-.033-.225a16 16 0 0 1-.182-2.306q-.006-.083-.005-.174zm-1.016.116q-.044.093-.086.188a17 17 0 0 0-.687 1.795q-.164.662-.242 1.34-.075-.997.328-2.79a7.4 7.4 0 0 1 .312-1.034 10.6 10.6 0 0 1 1.025-1.976q.228-.351.494-.708-.198.732-.268 1.487-.435.759-.79 1.51l-.086.186zm-1.475-2.063q-.244-.243-.632-2.194.025-.51.412-1.536c.082-.212.182-.446.296-.693a56 56 0 0 0 0 1.822v.141l1.407.293q.086.863.266 1.712l-1.253.715.04.135c.05.164.201.648.342 1.076a8 8 0 0 0-.282 1.019c-.14-.228-.228-.558-.357-.99q-.195-.648-.121-.866.197-.343-.118-.635zm1.397-6.588a.7.7 0 0 0 .199-.097l.159.089q-.183.847-.265 1.711l-1.328.275c.236-.495.532-1.047.876-1.641q.154-.196.36-.338zm4.18-7.313v-.016zc.022 0 .187-.258.408-.64l.187.415a14 14 0 0 0-.571.54q0-.16-.024-.316m-.025.871q.462-.489.95-.915l.1-.086-.402-.887c.162-.29.335-.611.497-.921.214-.157.422-.307.563-.405l1.056.964.11-.068q.83-.504 1.723-.882l.123-.05-.16-1.415c.35-.129 1.103-.375 1.459-.48l.716 1.245.128-.032a12 12 0 0 1 1.904-.31l.14-.011.282-1.395a31 31 0 0 1 1.541 0l.282 1.395.132.01q.967.08 1.911.308l.13.031.694-1.243c.36.103 1.125.35 1.467.478l-.16 1.414.122.051a14 14 0 0 1 1.734.882l.113.067.941-.877q.064.03.133.043l.175.018a37 37 0 0 1 1.038.768l-.59 1.303.1.086q.734.644 1.373 1.383l.088.1.529-.248a.8.8 0 0 0 .157.425c-.054-.026-.28.141-.368.266-.303.47.352 1.141.456 1.373a.9.9 0 0 0-.328.156c-.224.16-.148.967.491 1.106.457.24.883.535 1.267.881.071.074.281.463.571.85.153.203.317.54.685.565l-.582.332.032.132q.23.946.307 1.918l.01.133 1.399.283c.012.373.012 1.174 0 1.548l-1.245.257a6 6 0 0 0-.115-.424.62.62 0 0 0-.371-.41c-.057-.022-.423 0-.487.282-.02-.158-.275-.253-.463-.298-.53-.126-1.098.898-1.035 1.849a.8.8 0 0 0-.198-.118c.174-1.032.205-2.083.093-3.123l-.024-.224-5.966 2.14 5.08-3.938.37-.282-.466-.01-6.318-.142 6.052-1.697-.109-.195a11.4 11.4 0 0 0-3.179-3.626 11.3 11.3 0 0 0-4.39-1.972l-.218-.045.18 6.365-2.134-6.082-.155-.443-.155.443-2.091 5.996.273-6.3-.22.045a11.3 11.3 0 0 0-4.405 1.918 11.4 11.4 0 0 0-3.218 3.58l-.111.194 6.08 1.8-6.408.158-.467.011.371.283 5.03 3.85-5.891-2.205-.027.224q-.08.67-.077 1.345a4 4 0 0 0-.152-.416c-.036-.075-.141 0-.141.007-.678.415-.985 1.319-1.222 2.44l-.194.18c-.14.18-.281.362-.41.55a15 15 0 0 1-.225-1.556l-.01-.131-1.394-.283a57 57 0 0 1 0-1.556l1.395-.283.01-.132q.083-.972.296-1.925l.029-.127-.262-.142c1.117-1.025 3.301-4.058 3.655-6.122zm21.046-.502q-.074.206-.099.425l-.443.209a14 14 0 0 0-1.223-1.228l.522-1.154q.123.154.313.36c.263.283.758.566 1.176.749a7 7 0 0 0-.246.638zm-1.97-2.512c.12 0 .242.007.361 0q.027.181.107.346l-.47-.348zm4.495 15.92.955.55a8 8 0 0 1-.105.352.4.4 0 0 0-.422-.048s-.221.157-.355.259c-.045.034-.084-.224-.099-.416a2.7 2.7 0 0 1 .026-.698m.395-4.752a13 13 0 0 0-.281-1.713l.307-.175q.39 1.09.973 2.089zm-3.085 7.538c-.153.777.736 1.346 1.464 2.077a.5.5 0 0 0 .055.31c-.23.325-.53.74-.704.96l-1.3-.588-.086.1q-.634.743-1.374 1.38l-.1.087.597 1.294c-.298.225-.937.7-1.241.907l-1.057-.965-.111.07q-.834.503-1.725.892l-.12.053.16 1.414c-.35.123-1.106.368-1.47.48l-.704-1.24-.128.029q-.947.218-1.915.308l-.13.013-.281 1.39h-1.541l-.282-1.401-.132-.012a14.5 14.5 0 0 1-1.914-.297l-.127-.028-.69 1.24a58 58 0 0 1-1.471-.482l.16-1.423-.122-.05a14 14 0 0 1-1.736-.89l-.112-.066-1.043.964a45 45 0 0 1-1.244-.906l.585-1.305-.097-.087q-.729-.645-1.376-1.373l-.087-.098-1.285.587-.127-.172c.293-.47.515-.981.659-1.517a10 10 0 0 0 .354-2.307.4.4 0 0 1 .093-.141c.121-.094.252-.44.372-.887a11.5 11.5 0 0 0 1.995 3.129l.15.167 3.587-5.261-1.83 6.183-.132.45.384-.267 5.206-3.61-3.912 4.95.202.094a11.3 11.3 0 0 0 9.397.044l.203-.092-3.864-5.039 5.27 3.658.385.266-.14-.448-1.813-6.091 3.476 5.266.152-.166a11.4 11.4 0 0 0 2.555-4.533c.36.665.877 1.4.9 1.805-.334-.3-1.09-.309-1.092.424.001.215.18.591.254.751M12.733 22.94q-.075-.39-.182-.401a.28.28 0 0 0-.207.06l.141-.292q.12-.317 0-.415c-.04-.042-.356-.045-.681.071a11 11 0 0 1 .021-1.855l6.557 2.455.043.032-.01.041-3.953 5.8a11.1 11.1 0 0 1-1.97-3.32c.183-.857.298-1.822.24-2.177zm-1.043-.355a5 5 0 0 0-.048-.23l.021-.014q.085-.059.168-.11.131-.078.271-.14.315-.075.121.292l-.318.473-.14.212a5 5 0 0 0-.075-.484zm8.395-5.092h-.04L13.349 15.5a11 11 0 0 1 3.005-3.277 10.95 10.95 0 0 1 4.049-1.816l-.3 7.02zm.12.327h.115l.038-.108.098-.283 2.294-6.58 2.32 6.608.095.268.038.107h.412l6.934.163-5.532 4.255-.225.173-.09.069.032.109.086.283 1.989 6.682-5.731-3.976-.24-.157-.092-.065-.093.065-.236.171-5.707 3.961 1.987-6.71.082-.271.032-.109-.09-.07-.238-.182L12.963 18l6.961-.168zm5.232-.316-.013-.04-.193-7.023c1.457.338 2.83.971 4.035 1.862a11 11 0 0 1 2.97 3.317l-6.737 1.883zM22.75 25.77l.034.024 4.261 5.55a10.96 10.96 0 0 1-8.694-.04l4.354-5.51zm-10.888-1.455.104-.282.108-.303c.01-.135 0-.185-.04-.154a.5.5 0 0 0-.082.13l-.048.09-.097.179-.024-.489.04-.052.141-.185.176-.225q.365-.367.316.389-.043.597-.15 1.187-.03.175-.066.355a23 23 0 0 1-.268 1.188 12 12 0 0 0-.122-1.803zm21.423-.778q.03.193.104.372a11.06 11.06 0 0 1-2.43 4.62l-3.866-5.86-.015-.052.032-.026 6.576-2.357c.082.94.044 1.888-.112 2.818-.18.04-.321.2-.286.485zm-25.11 1.606.592-.338q-.233.42-.422.863zm29.604.583c.012-.016-.14-.041-.253 0 .084-.266.156-.505.181-.623l.028-.125-1.17-.675a2 2 0 0 0 .11-.173c.116-.21.117-.675.051-1.185q.024-.198.042-.39l1.408-.292.01-.133c.015-.22.02-.897.012-1.388l.116.181c0 .033.632.708.86 1.324q-.07.376-.07.759c-.073.73-.214 1.453-.422 2.157-.69-.34-.802.116-.903.563m1.777-3.606q.263-.026.527 0c-.227 1.235-.489 2.589-.704 3.433l-.34-.195a22.6 22.6 0 0 0 .517-3.238M34.341 5.073q.023-.34.447-.206.425.134.788 1.815l.389.141q.195-.463.315-.464.194 0 .389.805.485.439.46 1.439a1.76 1.76 0 0 0-.34 1.023l-.194-.439a6 6 0 0 1-.14-1.535q-.025-.342-.074 0-.075.598-.032 1.201a11.7 11.7 0 0 0-1.407-1.536c-.1-.398-.134-.81-.097-1.218q-.072-.585-.121-.269-.05.686.049 1.365a13 13 0 0 1-1.31-1.632c-.13-.228-.186-.283-.17-.142a7.6 7.6 0 0 0 .975 1.452q.51.586.824.926A7 7 0 0 0 34 7.543a2.7 2.7 0 0 1-.844-.256q-.363-.071.024.171c.14.098.44.187.885.268.434.078.855.217 1.25.414q.315.196.844 1l.291.658a5 5 0 0 0-1.508-.508q-.824-.141-.97-.267-.632-.27-.14.048.14.141 1.03.33a5.3 5.3 0 0 1 1.71.694l.047.142a.64.64 0 0 0-.12.536l.17.488c-.141-.178-.348-.098-.607.243a.52.52 0 0 0-.073-.584q-.344-.51-1.648-1.094l-.14.27q-1.066-.343-1.335-1.274-.025-.293.51-.33.533-.036.17-.304a2.5 2.5 0 0 1-1.164-.829q-.316-.413 0-.585l.363-.098.17-.22-.218-.848q-.097-.657.363-.926.65-.097 1.28.391m-3.93.951-.817-.267.05-.566-.462.097q-.655.221-1.31-.39-.437.075-.364-.34.171-.366-.097-.39l-.704.072q-.678-.098-.896-.39-.145-.242.194-.608-.654-.27-.813-.586-.159-.317.194-.512.354-.195 1.298-.072a.57.57 0 0 1-.122-.566q.026-.293 1.267.317l.486.293q.194-.366.654-.22.557.267 1.043.647.598.487 1.09 1.083.511-.338.728.142l.073.584q-.532-.51-1.308-.072l-.341-.142q-.704-.848-.844-1.291-.141-.566-.141-.098.023.488.581 1.244-1.065-.343-1.564-.877a11 11 0 0 1-.764-.903q-.266-.44-.218 0c.209.376.48.714.801.999a15 15 0 0 1-.728-.341 4.2 4.2 0 0 0-1.407-.39q-.266 0-.024.097.706.164 1.37.451c.212.09.406.218.57.378a3.25 3.25 0 0 1-1.406.269q-.46-.025-.413.024a.7.7 0 0 0 .291.097 4.2 4.2 0 0 0 1.77-.195q.743.38 1.53.658a2.9 2.9 0 0 0-1.044.488q-.194.243.193.024.39-.293 1.166-.365l.41.17a2.44 2.44 0 0 0 .317 1.34zm1.067 1.804.165-.276c-.526-.242-1.012-.53-1.037-1.187l.436-.17q.29-.342.013-.512c-.187-.114-.282-.414-.304-.902q.267-.583 1.31 0 .46-.902 1.114-.537-.703 0-.823.61c-.05.315-.05.636 0 .95a2.5 2.5 0 0 0-.582-.585q-.655-.34-.242.074a7 7 0 0 1 .727.848 1.6 1.6 0 0 1-1.165.39c-.14.066-.121.107.073.123.227.047.462.03.68-.049-.016.326.04.65.165.951.165.23.368.432.599.597a.36.36 0 0 0-.255.207q-.466.024-.931-.022c-.141-.022-.185-.06-.209-.124V8.19c-.034-.095-.028-.186.266-.362M20.663 3.075q.001.462-.563 1.024a9.7 9.7 0 0 1-2.12 1.437q-1.275.661-3.312 1.556v-.141a41 41 0 0 1 4.584-3.023q.562-.343-.098-.196a23 23 0 0 0-1.6.903q-1.454.951-2.837 1.877l.024-.293q2.766-2.437 4.536-3.144.876-.195 1.386 0m-5.469.585a9.7 9.7 0 0 1 3.165-1.707 5.4 5.4 0 0 1 1.548-.22q.314.075.17.367l-.534.707q-.704.095-1.928.804a19.3 19.3 0 0 0-2.632 1.877l-.339.22q-.265-.196-.97.17 2.23-1.877 3.88-2.851 1.07-.537 1.237-.757a8 8 0 0 0-1.503.67q-.97.524-3.201 2.183l-1.432 1.291a15.3 15.3 0 0 1 2.54-2.754m-1.492 2.705q.098-.054.18-.092.072-.035.148-.06a.34.34 0 0 1 .206-.018c.07.216.086.446.05.67a5.7 5.7 0 0 1-.374 1.168q-.112.282-.257.624l-.093.182-.087.173-.186.36-.011.024-.103.201-.103.2-.311.608q-.118.015-.235.04a3.2 3.2 0 0 0-1.126.499 4 4 0 0 0-.408.32l-.023.018.014-.023q.433-.75 1.042-1.707.154-.245.352-.549l.439-.67a272 272 0 0 1 1.137-1.706.8.8 0 0 0 .113-.237q0-.004-.002-.007c-.008 0-.025 0-.05.023l-.046.038a3 3 0 0 0-.312.358l-.14.175-.078.1q-.16.208-.362.48l-.104.142-.11.148-.114.157q-.118.164-.243.347a23 23 0 0 0-.262.389c-.09.137-.184.283-.281.424q-.22.338-.458.725a79 79 0 0 0-1.05 1.741q-.021.035-.048.075l-.48.738-1.508 2.332q-.123.124-.728.141l-.8 2.364q.097.142.606-.098a.89.89 0 0 1-.727.512l-.195-.141-.097-.367.024-.219.194.024.845-2.168-.51-.634.123-.366q.241.512.46.566.339-.66.985-1.793.685-1.2 1.516-2.303l-.024-.195q0-.172.169-.024l1.213-1.756-.995 1.73q.244.27-.218.367a18.3 18.3 0 0 0-2.376 4.12l.242.073c.141.065.282 0 .413-.196l1.479-2.632 1.407-2.633q.993-1.783 2.279-2.782M7.64 16.823l-.194-.024.509-1.584.462-.098q-.453.823-.777 1.706m-.316.95L6.84 19.09l-.34 1.146.12-.975.171-.707.14-.707zm-.799-1.17q.15-1.017.46-1.998l.195.243zm3.565-8.75q.514-1.02 1.209-1.927.241-.566-.266.024-1.188 1.489-2.766 4.705l.462-1.17q.343-.902.778-1.763c.35-.772.78-1.504 1.285-2.183q.63-.804.874-1.048.873-.755 1.018-.708a.29.29 0 0 1 .073.317l-1.188 3.071a31.4 31.4 0 0 1-3.055 4.73q-.803.878-.995 1.121-.177.218-.316.463l.098-.415.46-.731q.97-1.586 2.329-4.486M6.815 25.647q0-.488-.108-.61a1.3 1.3 0 0 1-.218-.45l-.328-.975a9 9 0 0 1-.316-1.159l-.077-.04a1.8 1.8 0 0 1-.867-.946 11.4 11.4 0 0 1-.546-1.816 9 9 0 0 1-.2-1.573q-.016-.351-.012-.726-.002-.189.007-.383a22 22 0 0 1 .533-3.608 10 10 0 0 1 .771-2.086c.353-.705.773-1.374 1.254-1.997.072-.092.14-.186.218-.283.078-.098.15-.184.23-.275a3 3 0 0 1 .164-.168 1 1 0 0 1 .118-.092.4.4 0 0 1 .102-.045.115.115 0 0 1 .124.086 8.7 8.7 0 0 1-.012 1.888 9 9 0 0 1-.188 1.037c-.047.2-.099.39-.158.593-.04.142-.081.273-.126.413a107 107 0 0 0-.684 2.377q-.077.282-.141.533-.1.376-.17.678c-.031.14-.06.258-.083.372a8 8 0 0 0-.061.306q-.141.484-.281 1.078-.1.397-.2.85-.155.665-.318 1.443-.157-.811.093-3.08.038-.35.087-.733.023-.192.05-.392a42 42 0 0 1 .168-1.137l.044-.265q.045-.259.091-.504l.048-.239q.32-1.572.729-2.426.102-.193.15-.407-.001-.021-.026 0a.5.5 0 0 0-.073.085 2 2 0 0 0-.075.103q-1.48 2.536-1.723 7.483c0 .142-.007.283-.007.425 0 .267 0 .516.012.744q.015.342.049.625.03.254.084.504c.017.075.037.141.057.207.02.067.04.125.062.182q.056.155.129.302.06.12.14.224a.6.6 0 0 0 .168.153l.058.03a.3.3 0 0 0 .176.042.4.4 0 0 0 .188-.068q.141-.925.195-1.498.053-.574.132-1.341c.04-.44.141-.87.304-1.28l.097.097q-.187.768-.255 1.556-.012.439-.06.877c-.033.293-.065.849-.097 1.682a27 27 0 0 1 .463-1.444q.08-.231.167-.457l.752-2.194.195-.468.467-1.115.307-.733.009-.015.088-.169q.52-.981 1.281-2.134l.101-.152.1-.151q.308-.456.653-.938a6 6 0 0 1 .301-.328q.068-.069.134-.141c.044-.05.096-.088.14-.13.336-.282.644-.449.925-.48q.047.071.064.154.023.105.02.212a2 2 0 0 1-.019.287 3 3 0 0 1-.027.166c-.01.058-.02.109-.033.165v.016q-.03.123-.065.249a7.3 7.3 0 0 1-.533 1.365l-.106.191-.082.15-.114.2-.081.142-.114.197-.08.141-.116.19-.079.13-.112.18-.08.128-.11.169-.083.127-.109.161-.083.123-.108.152-.083.119-.106.141-.084.113-.104.142-.086.11-.103.127-.086.105q-.053.064-.105.125l-.082.096-.108.12-.079.088-.107.113-.08.082q-.052.054-.106.105l-.08.079-.008.008-.141.126-.04.035.027-.043.093-.15 1.039-1.698.103-.167.047-.079.365-.594.642-1.173.159-.283q.176-.279.281-.592v-.04q-.018-.026-.11.048l-.471.716-.1.153-.01.014-.253.389c-.05.073-.097.141-.141.219l-.122.19-.46.707-.078.123-.106.165-.105.166-.108.171a35 35 0 0 0-.852 1.408l-.084.154q-.02.041-.041.078l-.04.079a50 50 0 0 1-.906 1.697q-.364.617-.605 1.292l-.093.283c-.036.113-.082.23-.132.369l-.08.218-.141.37-.079.206-.089.209q0 .219.292 1.273.291 1.054.497 1.23a.265.265 0 0 1 .036.404q-.075.194.097.73a9 9 0 0 0 .563 1.61l-.073.243a18 18 0 0 1-.829-2.248m-.8-7.24q-.24 1.95-.412 3.047l-.097-.195q-.145-.22.51-2.852m7.688 18.314-.316-.425a.33.33 0 0 0-.4-.073q-.255.098-.4-.292-.655.39-1.333-.293l-.8-.971-.751-1.293-.268-.196a.7.7 0 0 1-.509.107c-.317-.043-.678-.254-1.041-.643l-.047-.046-.05-.061a4 4 0 0 1-.263-.393c-.049-.084-.109-.18-.171-.283a38 38 0 0 1-.92-1.726l-.188-.344a68 68 0 0 1-1.3-2.642l-.107-.24-.124-.284a17 17 0 0 1-.302-.75l-.178-.543-.076-.229a51 51 0 0 0-.22-.646l-.034-.094q-.017-.039-.028-.069l-.024-.05c-.007-.012-.026-.04-.034-.042-.009-.001-.007 0-.01.009a.2.2 0 0 0 0 .075v.066c0 .025 0 .055.01.088s.013.07.021.111q.025.123.072.295.045.171.11.387.064.218.15.484.084.265.207.591c.082.218.173.457.281.716s.223.54.352.839q.195.45.422.962a51 51 0 0 0 1.577 3.023 32 32 0 0 1-.434-.484q-.422-.48-.772-.945a12.3 12.3 0 0 1-1.39-2.228 15 15 0 0 1-.665-1.62 8 8 0 0 1-.234-.766 9 9 0 0 1-.167-.734 4 4 0 0 1-.078-.462 12 12 0 0 1-.067-1.11q-.026-1.061.024-1.183.12-.365.339-.317.022.001.042.012.164.105.282.26.142.163.337.425.365.534.615 1.131.09.195.185.418.141.333.297.727l.157.408c.054.142.109.283.165.44l.11.297.104.283.191.528q.091.252.17.477.12.337.216.615l.117.345q.131.4.195.637.116.424.233.788.038.12.077.235.051.152.103.292c.069.187.14.377.228.566q.06.144.13.283c.044.092.09.194.14.291q.054.11.11.211.054.103.11.193.1.173.218.333.121.171.271.317l.083.075a1 1 0 0 0 .082.065l.036.026q.054.037.103.066.47.287.704.054l-.888-1.598a.4.4 0 0 0-.282-.01h-.046a.4.4 0 0 1-.103-.007.2.2 0 0 1-.04-.01.3.3 0 0 1-.09-.034.3.3 0 0 1-.06-.04l-.011-.013a.3.3 0 0 1-.05-.059v-.014a.4.4 0 0 1-.028-.09v-.02a1 1 0 0 1-.018-.091v-.133c0-.048 0-.099.013-.154s.01-.077.015-.119l.023-.141a13 13 0 0 1 .108-.538l.037-.161.05-.218c.017-.076.027-.108.04-.164l.042-.171.097-.31.097-.297a19 19 0 0 1 .272-.743q.141-.36.301-.707l.083-.187.09-.188q.27-.566.588-1.144-.06.39-.091.718a10 10 0 0 0-.024.372v.225l-.06.142a50 50 0 0 0-.872 2.086q-.223.575-.378 1.041-.217.903.025.879l.193-.098-.14-.342.096-.268.292.512.169-.121.14.22-.14.218 1.092 1.585.266-.22.194.22q-.485.487-.389.633.356.674.801 1.292.729 1.074 1.188.61.147-.122.364.048t.486.731l-.025-.566-.897-.849-.533-1.035q-.63-.9-.898-1.39-.267-.486-.667-1.169a25 25 0 0 0-.985-1.536l.071-.268.777.951a25 25 0 0 1 1.471 2.04q.423.694.498.328l.14-.463.219.122-.14.95-.05.294c-.015.227.028.36.14.401s.2.191.282.452q.074.243.764 1.01c.433.488.921.922 1.456 1.292q.764.524 1.266.85.503.325.473.646l.46.097-.12-.585.29-.072c.174.136.3.324.364.536q.63.488 1.092.78l-1.067.194-1.831-1.092zM9.24 31.017l.141-.142.678 1.146-.071.142zm1.139 2.292.267-.343.63.903.365.657.121.367a1.6 1.6 0 0 1-.582-.512l-.389-.512zm5.602 5.873-1.455.245.34-.975zm3.468 4.56a18 18 0 0 1-2.304 1.89l-.291-.097q.75-.463 2.135-1.511l.412-.464-.222-.021q-.506.448-1.056.84-.653.464-1.37.818l-.704.34.12.142.534.074q.46.292.389.585-.242.365-.777.098l-.581-.317a1.9 1.9 0 0 0-.63-.44l-.239-.188.097-.245.728.293h.218l-.12-.439.872-.536q.339-.122.291-.414l.073-.439c.414.075.84.01 1.213-.183.389-.19.807-.31 1.236-.354q.366.243-.024.56zm-.581-1.012q-1.268.282-2.28.499a82 82 0 0 1-5.02.755q-.63-.17-3.638-1.877-2.133-1.291-2.982-2.096-.97-1.048-.777-1.273a7.5 7.5 0 0 0 .844-1.852c.061-.172.078-.356.05-.536q-.27-.831.387-.849a19 19 0 0 1 2.187-.054q.243.023.315-.141l.364-.731-.218-.098-.32.481-.026-.566c0-.08.05-.106.14-.073q1.019.268.947.683a2.2 2.2 0 0 0-.292 1.218l.024 1.273a19 19 0 0 0-2.764-1.51q.169-.025.389-.038a.31.31 0 0 0 .29-.158q.074-.141-.266-.17-.752 0-.971.122-.17.194.073.414 1.591.788 3.08 1.754 2.112 1.341 3.274 2.194a29 29 0 0 0 3.201-.316l2.086-.39a41 41 0 0 1 2.674-.414q.64-.084 1.285-.098.72-.02 1.431-.121c.369.652.63 1.36.775 2.095q.074.465-.12.512-2.882 1.074-4.142 1.354zm6.207-.792-.12-.39-.655.828-.535.341a.87.87 0 0 1-.751.243l-.845-.414.437-.22.12.098q-.12.368.292-.097l.751-.732q.075-.657-.315-1.697t-.581-1.305q-.05-.219-1.116-.097.63-.316 1.479-.048l.583.243.316-.141-.045-.044-.549-.256.292.024.247.235.068.032-.023.011.17.16q1.235 1.34 1.393 1.828c.105.306.117.637.036.95-.301.408-.52.554-.649.44zm2.643 3.461c-.14-.115-.185-.228-.12-.342l.485.414c-.097.058-.218.034-.365-.08zm3.153.048.267.05-.097.121-.63.195c-.276.245-.61.412-.97.487l-.412-.073-.098-.292a.83.83 0 0 1 .376-.317q.289-.114.594-.17l.583.097zm-.897-.267q-.655 0-.824.141h-.34a8 8 0 0 1-1.116-.902l-1.14-.901q.314-.171 1.359.121zm3.468-4.961c.356.048.718.028 1.067-.061q.654-.27 2.692-1.999 1.963-1.487 3.323-2.072.412-.245.036-.354a4.3 4.3 0 0 0-1.126-.109c-.162.13-.14.235.05.317a1 1 0 0 1 .484.048 18 18 0 0 0-2.717 1.706q.135-.957.17-1.925a1.35 1.35 0 0 0-.29-.78q-.17-.245.461-.44l.34-.097v.537l-.462-.123.049.245a.8.8 0 0 0 .533.365l1.31.074.582-.024q1.019.023.995.499a3.1 3.1 0 0 0 .072.89c.123.717.406 1.398.826 1.992a3.4 3.4 0 0 1-.63 1.024l-1.267.829q-1.622 1.17-4.412 3.047a32 32 0 0 1-4.778-.317 33 33 0 0 1-4.632-1.024l-.388-.098.17-.171q.41-.536.449-.719c.027-.121-.017-.399-.122-.829q-.159-.645-.91-1.523v-.142l.365-.05c.901.051 1.796.182 2.674.391a31 31 0 0 0 2.8.536q1.584.29 2.286.35zm-1.818-.647q-.632-.097-2.038-.365l.844-.292q.68.14.777-.293c.068.341.21.664.417.943zm5.066-7.19q-.486.538-.315 1.12a4.9 4.9 0 0 0-1.31 1.074q-.518.566-.957 1.194-.327.487-.691.586c-.282.128-.591.065-.946-.196l-.097.61-1.626.999-.799.34c.08-.268.121-.547.121-.828l.29-.244q1.674-.875 1.94-1.608c.199-.367.443-.707.728-1.011.267-.279.46-.619.563-.99l.025-.586-.073-.61q.389.44.704.195.489-.919 1.09-1.767a15 15 0 0 1 1.238-1.523q.654-.708 1.116-1.194l-.026.608q-1.459 1.804-1.822 2.459-1.238 1.875-1.674 2.97a2.3 2.3 0 0 1-.776.975 2 2 0 0 0-.582.415q-.172.318.195.17c.152-.155.333-.28.533-.366q.534-.267 2.28-2.535l-.025-.848.267-.463q-.026.708.121.78.146.072.4-.402.255-.475 1.25-2.621-.219.66-.025 1.145-.582.417-.315 1.415zm5.446-5.422a2.3 2.3 0 0 1-.4 1.048q-.995 1.146-.825 1.365.267.466-.097 1.048-.652.783-1.408 1.463.242.488-.363.829-.744.408-1.548.683 1.574-1.194 1.94-2.56c.26-.256.564-.463.897-.61.227-.141.266-.21.121-.194a4 4 0 0 0-.922.537 7.5 7.5 0 0 0 .655-2q.946-.927 1.189-1.462.34-.513.024-.22a6 6 0 0 1-1.116 1.292q.368-1.153.606-2.34.123-.756-.073-.268l-.242.848a2.5 2.5 0 0 0-.388-.779l.315 1.024a12.5 12.5 0 0 1-.46 1.73 6.9 6.9 0 0 0-.898-1.755q-.508-.633-.169-.024c.422.65.734 1.368.922 2.122a9.7 9.7 0 0 1-.68 1.95 1.8 1.8 0 0 0-.606-.61q-.244-.12 0 .142.29.286.509.634a4.4 4.4 0 0 1-.764 1.243 7.5 7.5 0 0 1-.933.903 2.7 2.7 0 0 0 .388-2q0-.195.303-.316t.207-.269c-.15-.26-.241-.55-.268-.848a.87.87 0 0 1 .583 0c.21-.142.19-.354-.062-.621q-.377-.403-.473-1.159 0-.439.583-.317.266-.024.049-.634l-.412-.565q-.438-.976.363-.708l.63.39q.633.245.607-.848 0-.245.376-.11.375.134.69-.573.316-.341.486.633-.073 1.293.63 1.22.119.079.034.686m.728-2.097a.47.47 0 0 1-.11.404c-.161.14-.355.237-.563.282l-.267-.488a1.68 1.68 0 0 0-.389-1.12q.245-.187.534-.293c.178-.082.14-.106-.096-.073a2 2 0 0 0-.606.195h-.05a5 5 0 0 1 .704-1.487q.12-.318-.14.024-.417.591-.728 1.244a1.03 1.03 0 0 1-.219-.536c-.064-.31-.114-.317-.14-.026.021.28.095.553.218.805-.355.553-.639.772-.844.658q.194-1.17.509-2.462.562-.565.97-.364.582-.465.995-.172c.137.214.204.465.194.719a2.1 2.1 0 0 1-.244.792q.461 0 .486.366-.194.828-.776 1.194.523.1.562.341zM27.187 39.692c.164 0 .325.057.489.057l-.055.053c-.06 0-.218 0-.27.11-.052.111-.058.329-.11.442l-.111 1.043q-.06.216-.052.441c0 .164.11.164.215.164v.112c-.163-.06-.273-.06-.433-.112q-.222.014-.434-.056v-.054c.106 0 .213 0 .269-.11a1 1 0 0 0 .11-.439l.161-1.045c0-.11.054-.329 0-.442 0-.107-.107-.164-.213-.164v-.109q.21.084.434.11m6.005 3.395c-.544-.112-1.034-.165-1.576-.283v-.055a.4.4 0 0 0 .324-.109q.026-.227.111-.44l.16-.99c0-.112.057-.386.057-.494a.31.31 0 0 0-.273-.168l.056-.05c.107 0 .27.05.38.05q.24.072.49.058l-.054.11c-.053 0-.22-.053-.273.054-.053.108-.053.386-.11.494l-.163 1.048c-.053.437 0 .547.327.604.166 0 .326.054.435 0 .222-.112.222-.224.273-.441h.11l-.161.66c0-.048-.113-.048-.113-.048m.835-2.21v-.111h.435c.107 0 .271-.055.436-.055v.113c-.107 0-.22 0-.272.112v.493l.107.99q-.014.252.058.494c.054.11.162.11.269.11v.064h-.434a1.2 1.2 0 0 1-.436.054v-.054c.056 0 .22 0 .22-.164.052-.112 0-.33 0-.44l-.056-1.045c0-.11-.055-.382-.055-.44-.053-.174-.165-.115-.272-.115zm-4.684-.76c-.163 0-.329-.053-.329.056l-.269 1.698c0 .283 0 .33.27.441v.054a1.5 1.5 0 0 1-.486-.11q-.251.014-.493-.054v-.054c.326 0 .384-.055.436-.331l.217-1.7c.056-.053-.11-.11-.217-.11-.329-.05-.436-.05-.488.385l-.11-.053.11-.552 1.85.33-.11.551-.055-.052c.056-.338-.054-.45-.326-.5m7.224-.407-.055-.114c.109-.052.162-.052.218-.161a.4.4 0 0 0 .219-.11l2.123.715-.6-.827c-.108-.108-.216-.33-.327-.437-.16-.112-.218-.057-.379 0l-.055-.057q.162-.084.328-.166a.42.42 0 0 1 .217-.222l.055.058c-.055.112-.166.112-.108.275.053.112.27.385.38.549l.87 1.212-.054.054a.75.75 0 0 1-.327-.11l-1.96-.659.703.99q.141.213.326.387a.35.35 0 0 0 .328-.058v.058a.53.53 0 0 1-.27.22 1 1 0 0 0-.282.22l-.05-.055c.109-.112.162-.166.109-.33a1.8 1.8 0 0 0-.274-.387l-.763-1.1c-.152-.066-.265-.066-.372.048zm-.675 2.639a.31.31 0 0 1-.111.383l.056.054q.125-.1.273-.161c.108-.058.159-.112.27-.169l-.055-.053c-.056.053-.215.11-.27 0a2.4 2.4 0 0 1-.107-.55l-.056-.11.653-.33.271.221c.109.053.163.163.217.22.056.109-.053.219-.163.219l.055.11q.172-.145.381-.227.172-.142.381-.22l-.053-.056c-.056 0-.166.056-.273 0a1.7 1.7 0 0 1-.328-.275l-1.407-1.263h-.121l.271 1.485q.1.35.116.715zm.544-1.046-.544.283-.165-.936zm-5.685-1.05-.107-.053-.653 1.318-.327.66c-.112.165-.166.222-.328.222l-.053.052c.107 0 .215.057.328.057.112 0 .214.053.323.053v-.053c-.053-.057-.216-.057-.216-.22.055-.111.163-.386.216-.495l.057-.111.76.111.055.384v.33c0 .11-.162.054-.217.054l-.054.114c.147-.012.295.006.435.052.166 0 .325.056.434.056v-.056c-.109-.052-.163-.052-.216-.166-.052-.113-.052-.33-.11-.44zm-.653 1.322.437-.881.164.99zm9.629-1.777c0 .169 0 .222-.107.33l.053.112a.7.7 0 0 1 .22-.22q.147-.064.271-.167l-.056-.11c-.052.055-.16.166-.269.055a1.6 1.6 0 0 1-.166-.55l-.053-.055.6-.439.324.22c.056.056.165.11.218.164.054.11-.053.222-.107.276l.054.056c.107-.11.218-.167.326-.283q.145-.138.327-.22v-.11a.36.36 0 0 1-.327.057 1.1 1.1 0 0 1-.323-.212l-1.58-1.103-.054.058.436 1.428q.08.365.213.713m.381-1.154-.488.386-.327-.936zm-26.36 3.094a1 1 0 0 0-.43-.047.5.5 0 0 0 .309-.597c-.068-.482-.503-.525-.769-.464a.8.8 0 0 1-.376.062.9.9 0 0 1-.374.067v.107c.105-.058.214-.06.27.045 0 .107.063.375.066.48l.189.97c0 .107.065.374.068.48-.053.107-.162.112-.268.168v.057c.217 0 .32-.065.54-.07a.8.8 0 0 1 .375-.066.75.75 0 0 0 .48-.172c.159-.167.259-.329.2-.545a.56.56 0 0 0-.28-.475m-1.042-.773v-.107a.26.26 0 0 1 .16-.06c.267-.06.382.098.442.367a.46.46 0 0 1-.097.38c-.053.108-.16.11-.266.113l-.107.054zm.643 1.812c-.107.057-.214.06-.273-.045a1.4 1.4 0 0 1-.117-.424l-.067-.432h.056a.62.62 0 0 1 .422-.011c.162.05.221.21.282.37.066.312-.037.528-.304.535zm-3.659-3.15c-.112-.049-.23-.155-.342-.203-.115-.102-.281-.149-.4-.253l-.052.059c.113.048.226.098.18.263q-.147.189-.254.4l-.504.85a1.15 1.15 0 0 1-.311.404c-.052.113-.166.008-.281-.043v.112c.112.05.226.151.339.198q.212.11.4.258l.053-.057c-.117-.103-.227-.156-.177-.267 0-.11.14-.338.194-.453l.257-.342s.114.104.17.102c.282.202.731.29.986-.163.261-.408.022-.723-.258-.872zm-.072.72c-.153.282-.371.349-.596.197-.06-.05-.116-.048-.119-.104l.406-.682c.101-.172.101-.172.22-.065.222.14.293.362.09.646zm2.415.616v.052c-.228-.15-.433.135-.646.311l-1.355 1.28-.111-.052.388-2.001c.043-.224.088-.39-.083-.546l.052-.06c.11.051.23.154.341.204q.19.117.397.196l-.054.057c-.054-.05-.222-.095-.273.016-.05.11-.185.67-.235.848l-.166.944.687-.586c.101-.114.522-.526.563-.636.103-.173-.011-.22-.069-.275v-.107c.115.102.227.153.282.204q.15.053.282.144zm10.384.141c-.058-.103-.17-.264-.226-.369l-.852-1.646h-.107l-.234 1.45c-.046.222-.04.437-.086.708a.36.36 0 0 1-.262.283v.053c.11.005.22-.016.32-.061l.325-.01v-.11c-.11 0-.27.065-.275-.1-.056-.104.044-.377.04-.539v-.107l.697-.13.227.375c0 .052.057.16.058.213.06.159-.103.164-.153.22v.053c.108 0 .267-.06.422-.065a.9.9 0 0 1 .374-.065v-.106a.4.4 0 0 1-.268-.06zm-1.26-.598.14-.92.454.85zm-13.309.07-.303.506-1.37-.92.049-.058a.24.24 0 0 0 .281.041c.05-.058.205-.283.309-.399l.51-.797q.105-.215.254-.402c.046-.166-.066-.215-.18-.265l.107-.065 1.199.766-.309.456-.056-.05c.203-.34.085-.446-.198-.651l-.173-.1c-.055-.054-.055-.054-.16.062l-.458.74c.343.258.502.086.656-.091h.055c-.099.174-.203.283-.255.402q-.108.21-.254.399l-.059-.056c.203-.338.088-.441-.195-.594l-.306.514c-.049.11-.152.227-.14.335a.36.36 0 0 0 .225.304c.281.151.45.197.71-.088zm-1.85-.885V38.59c.282.154.557.142.813-.208.256-.397.02-.659-.265-.865a1.2 1.2 0 0 0-.281-.204c-.172-.102-.282-.205-.459-.307v.11c.058.051.172.102.124.214q-.111.21-.258.399l-.563.858a1.14 1.14 0 0 1-.31.4c-.106.059-.164.01-.282-.04l-.05.058c.151.05.288.137.4.25.111.052.227.156.34.205l.052-.058c-.113-.05-.17-.102-.176-.212.049-.113.2-.34.252-.451l.256-.347c.115.106.115.106.124.269l-.009.881-.04.283c.057.051.168.045.227.096.06.051.114.106.176.157l.05-.056c-.109-.106-.112-.162-.12-.33m-.295-1.414.46-.685c.055 0 .053-.058.109-.062q.09.04.169.1c.171.103.185.376.032.604-.31.406-.48.25-.77.043m11.863 3.253.067.647h-.157c-.486.068-1.022.188-1.505.256v-.056c.108-.055.215-.058.211-.165.052-.109-.01-.378-.012-.485l-.186-.964c0-.107-.065-.374-.068-.483a.19.19 0 0 0-.27-.047l-.058-.105a1.1 1.1 0 0 0 .43-.063 1 1 0 0 0 .431-.068l.054.106c-.107 0-.214 0-.265.114 0 .108.064.374.067.486l.133 1.017c.068.424.178.534.553.47.106-.056.27-.06.373-.173s.103-.269.099-.433zm2.799-.707.13.805-.113-.157c-.157.218-.37.283-.584.336-.589.125-1.087-.292-1.212-.99-.073-.699.235-1.3.823-1.368a.88.88 0 0 1 .65.09v-.162h.055l.13.697h-.057c-.12-.374-.395-.635-.715-.574-.539.068-.574.708-.508 1.25.126.537.352 1.069.89 1 .374-.117.474-.44.463-.872zM18.7 41.889V42l-.429.012c-.135.05-.279.07-.422.064v-.053c.11 0 .215 0 .21-.168.052-.109-.009-.321-.01-.424l-.196-1.032c0-.109-.06-.32-.063-.424a.35.35 0 0 0-.273-.1l-.057-.051q.211-.07.433-.067c.159 0 .319-.063.422-.066v.055a.29.29 0 0 0-.211.164q-.007.222.063.431l.14 1.022q.016.224.117.424c.06.108.17.105.276.102m-3.237-.411a.6.6 0 0 0-.436-.096c.211-.118.422-.283.362-.603-.066-.424-.444-.477-.764-.41-.111 0-.217.06-.321.062a1.2 1.2 0 0 0-.434.067v.052c.11 0 .217 0 .273.099.072.13.113.275.12.424l.13 1.023c0 .106.063.323.066.424 0 .162-.155.166-.209.167v.106q.233-.098.483-.118c.106 0 .267-.008.32-.064a.7.7 0 0 0 .536-.177.73.73 0 0 0 .2-.545.85.85 0 0 0-.33-.413zm-.941-.784v-.161a.27.27 0 0 0 .163-.058c.213 0 .324.099.386.365a.58.58 0 0 1-.096.431c-.055.055-.16.058-.265.12h-.054zm.588 1.816c-.107 0-.212 0-.271-.1s-.06-.27-.116-.376l-.067-.483h.105a.9.9 0 0 1 .376-.01.55.55 0 0 1 .23.425c.056.271-.046.48-.261.543z"/><path stroke="#fff" stroke-miterlimit="10" stroke-width=".216" d="M43.289 22.527q.194-1.317-.267-1.658-.485-.34-1.189.219-.412-.219-1.114.414a.76.76 0 0 0 .024-.565q.631-.293.812-.647.18-.354.181-1.109.075-.462.845-1.656.533-1.194-.752-.83.705-.633.704-1.097.048-.439-.365-1.12-.168-.392-.508-.142a1.4 1.4 0 0 0 .133-.584q.012-.34-.448-1.439-.07-1.438-.675-1.197a3.9 3.9 0 0 0-.486-1.438q-.582-.879-.92-.464-.946-1.415-1.77-1.17c-.016-.4-.16-.786-.413-1.096q-.22-.927-.534-1.292-.436-.173-.606.487a4 4 0 0 0-.34-1.12.94.94 0 0 0-.844-.61.7.7 0 0 0-.41.072 1.3 1.3 0 0 0-.656-.243q-.824-.876-1.503-.142l-.074-.512q-.247-.903-.972-.393-1.188-1.244-2.038-1.633-.704-.244-.92.122a1.64 1.64 0 0 0-.777-.464A8 8 0 0 1 26.63 1q-.557-.023-.485.61c-.581.033-.985.142-1.2.306-.216.164-.275.41-.17.719.13.336.388.608.716.755a.74.74 0 0 0-.122.536q.024.366.776.61c.357.097.732.106 1.092.024q-.123.566.387.707.704.733 1.747.365l-.074.464.946.39a1.11 1.11 0 0 0 .63.975l.372.162c-.166.082-.313.2-.432.343a.55.55 0 0 0-.107.294l-.794.74q-.75-.438-1.548-.785l.16-1.414-.12-.053c-.282-.121-1.453-.498-1.77-.578l-.132-.033-.696 1.25a13 13 0 0 0-1.702-.278l-.281-1.402-.134-.008a23 23 0 0 0-1.722 0l-.266.018-.282 1.402q-.862.076-1.706.273l-.717-1.25-.13.033a27 27 0 0 0-1.756.579l-.124.05.16 1.423q-.79.344-1.533.785L14.55 8.04l-.114.075-.141.096q.165-.323.272-.672l.205-.066.243-.098c.808-.325 1.495-.672 2.127-.965l.977-.522a8.1 8.1 0 0 0 1.94-1.195q.968-.85 1.043-1.78c-.114-.141-.445-.226-.995-.243.27-.278.433-.644.459-1.031q-.317-.438-1.892-.142a8.5 8.5 0 0 0-2.886 1.292 10.5 10.5 0 0 0-2.267 1.962 11 11 0 0 0-1.613 2.405l.486-1.122q.363-.805.775-1.877.122-.51.013-.732-.109-.22-.473-.121c-.242.065-.728.406-1.407 1.024a11.6 11.6 0 0 0-1.97 2.83 19 19 0 0 0-1.177 2.656c.117-.622.1-1.262-.048-1.877q-.123-.317-.533-.17a3.4 3.4 0 0 0-.777.803l-.752 1.037q-.476.685-.861 1.426c-.364.7-.657 1.435-.873 2.194q-.375 1.273-.57 3.364a9.8 9.8 0 0 0 .189 2.872q.388 1.536.775 2.263.387.728.728.849c.14.356.34.95.583 1.778.11.283.168.585.169.89a.43.43 0 0 0 .157.424.9.9 0 0 1 .304.488c.198.753.482 1.48.845 2.169a6 6 0 0 0-.098 1.073q-1.164-3.395-1.891-5.12-1.407-3.144-2.207-2.876-.388.141-.485.707-.024.22 0 1.122.03.955.17 1.9.726 3.243 2.498 5.412l1.77 2.096c.298.314.641.58 1.018.792a1.17 1.17 0 0 0 .898.142q.686 1.082 1.527 2.048.582.903 1.213.849.266.585.8.584l.364-.048q.638.632 1.358 1.17l-.46 1.315q-1.109.166-2.228.201-.946-.682-2.674-1.852l-.073-1.462a2.1 2.1 0 0 1 .267-1.273q.072-.417-.461-.756-.801-.39-1.14-.317a.28.28 0 0 0-.17.268v.805l-2.303.048a.65.65 0 0 0-.522.245q-.204.241-.011.974.024.234-.026.463-.168.78-.896 1.9-.098.171.084.513.18.344.91 1.072.448.428.958.781.641.462 2.267 1.415 1.769 1.07 3.659 1.9.365.027 4.851-.657l.024.269q-1.286.975-1.65.803-.51.05-.315.756a.82.82 0 0 0 .534.44l.315.365.898.536c.316.097.654.097.97 0q.435-.17.582-.756l.096-.096.97-.976.704-.536q.825-.141 1.067-.586.048-.391.218-.486l.845-.586q.049-.122 1.043.415c.278.083.577.065.844-.05l.63-.365q.845.195 2.984 2.122c-.017.141.072.317.266.512.114.142.422.269.922.365l.339.634.339.123a2.03 2.03 0 0 0 1.407-.536l.534-.172c.274-.21.395-.424.363-.633l-.218-.22-.46-.121a9.4 9.4 0 0 1-1.77-1.122l-.39-.293q3.269.534 6.573.732.486.097 1.297-.5.813-.597 4.912-3.522a5.3 5.3 0 0 0 .97-1.51 2.9 2.9 0 0 1-.644-.977 4.7 4.7 0 0 1-.351-1.072 1.7 1.7 0 0 1-.024-.744.65.65 0 0 0-.218-.621q-.12-.17-.563-.22a9 9 0 0 0-1.747.025q-.46-.048-.533-.22l.024-.584q.073-.39-.218-.342-1.065.269-1.285.536-.317.342.024.731a.74.74 0 0 1 .266.566q-.078 1.09-.266 2.169-1.77 1.415-2.401 1.731-.508.17-2.28-.141-.39-.34-.563-1.17.665-.406 1.285-.877.395-.06.777-.183.315-.11.315-.597a.82.82 0 0 0 .46-.537l1.407-1.706a2.75 2.75 0 0 1 1.48-.682q.97-.075 2.523-1.098.242-.267 0-.755.46-.267 1.503-1.511a1.42 1.42 0 0 0 .194-1.293q.969-1.168 1.09-1.852a4 4 0 0 0-.023-1.317q.354-.207.643-.499a.84.84 0 0 0 .181-.566.8.8 0 0 0-.267-.61q.733-1.018.198-1.821Zm-5.99-13.382q.14-.275.242-.566c.05-.142.194-.161.436-.048q.363.17 1.164 1.291.39-.437.753.317c.298.489.418 1.066.34 1.634q.897-.488.63.658c.208.397.367.82.473 1.256.06.288.009.588-.141.84a1.2 1.2 0 0 0-.22.597c.009.141.065.134.17-.011q.158-.22.644-.367.315.683.266.903 0 .267-.327.584a1.2 1.2 0 0 0-.376.755.194.194 0 0 0 .219.221l.436-.123c.226-.032.233.142.024.536a8 8 0 0 0-.497 1.074 2.2 2.2 0 0 0-.158.707q-.025.566-.194.66.048-.74-.036-1.476a15 15 0 0 0-.303-1.719q.194-.17.533-1.146.17-.486-.073-.121-.267.731-.533.902a50 50 0 0 1-.583-2.194 3.7 3.7 0 0 0 .462-1.536q.023-.779-.097-.122-.141.928-.534 1.439a25 25 0 0 0-.68-1.925 4.4 4.4 0 0 0 .098-1.196q-.025-.681-.121-.048a2.8 2.8 0 0 1-.121.877l-.534-1.365-.342-.776q-.171-.39-.122 0l.315 1.022a3.2 3.2 0 0 0-.678-.608q-.315-.196-.121.024.517.447.922.999.315.78.63 1.61-.923-.78-1.286-.879-.46-.17 0 .171.654.414 1.548 1.463.291.85.563 1.658-.46-.268-1.115-1.074-.291-.29-.024.098a7 7 0 0 0 1.236 1.415l.364 1.486a9 9 0 0 0-1.455-1.146q-.389-.244-.048.098a8.3 8.3 0 0 1 1.621 1.658q.245.68.219 2.51-.024.465-.679.683l-.097 1.17-.606.023q-.486-.681-.74-1.059-.255-.378-.728-1.158-.383-.616-.691-1.274a1.4 1.4 0 0 1-.107-.848q.012-.079.035-.155l.024-.083a17 17 0 0 1 .217-.697l.02-.058q.054-.165-.022-.07l-.022.03q-.051.091-.097.181a4.3 4.3 0 0 0-.287.723q-.016.047-.029.096l-.023-.066-.06-.17-.402-1.153q.026-.252.097-.494a3 3 0 0 1 .058-.184l.069-.186a8 8 0 0 1 .648-1.257q.244-.438-.047-.073a5.6 5.6 0 0 0-.824 1.535 3 3 0 0 0-.057.185 3 3 0 0 0-.065.255l-.104-.235-.076-.168-.076-.17-.496-1.11q-.025-.465.582-1.755.316-.683-.141.048-.359.651-.563 1.365l-.162-.64c-.018-.068-.035-.142-.053-.203-.019-.06-.036-.141-.054-.202l-.087-.318a22 22 0 0 0-.3-1l-.169-.05.07.194.027.075.058.34q.093.51.215.961c.019.068.037.142.057.201s.038.132.059.197l.14.424a4 4 0 0 0-.305-.246l-.14-.102c-.046-.032-.102-.065-.153-.096a4 4 0 0 0-.44-.238q-.316-.17 0 .072c.14.08.257.159.374.238l.141.103.14.108q.22.173.407.38.292.683.534 1.244a4 4 0 0 0-.455-.273 9 9 0 0 0-.256-.127l-.25-.115a17 17 0 0 0-.518-.217q-.39-.072 0 .098.325.133.588.265.14.069.262.141c.081.048.184.11.266.166a2 2 0 0 1 .353.288q.074.075.134.162.012.015.02.03l.486 1.29q-.266 0-.703-.803a1.7 1.7 0 0 0-.365-.45 2 2 0 0 0-.14-.117 6 6 0 0 0-1.318-.75q-.29-.121-.267-.512.048-.268.563-.22a2.3 2.3 0 0 0-.34-.657l-.187-.294q-.388-.804.46-.805-.294-.457-.226-.72l.008-.035a1.6 1.6 0 0 1 .024-.371q.053-.28.193-.53a3 3 0 0 0 .218-.586q.461.27.838.451a.72.72 0 0 1 .4.67l-.122.756q.072.218.389-.142.316-.44.508-.511c.203.101.378.252.51.438q.24.462-.17 1.706l-.267.683q.825-1.098 1.334-1.048.17.121.108.5a2.7 2.7 0 0 0 0 .791.75.75 0 0 1-.281.708c-.215.204-.363.47-.422.76q-.025.092-.042.19.042-.033.083-.06.684-.48.547.282l-.22.795-.047.166-.024.088q-.121.755.242.707.364-.049.449.096a.87.87 0 0 1 .036.512q-.216.514-.194.67a.48.48 0 0 0 .134.27q.109.108.473-.05.363-.159.363.22c0 .251 0 .496.012.73.012.25.092.49.231.695.1.15.25.26.422.31l.238-.26a.37.37 0 0 1-.402-.236.8.8 0 0 1-.047-.244 1 1 0 0 1 0-.154c0-.055 0-.109.009-.16.008-.05 0-.102 0-.151v-.512c0-.072-.011-.142-.019-.201-.007-.06-.049-.11-.073-.159a2 2 0 0 0-.073-.13.56.56 0 0 0-.194-.205.3.3 0 0 0-.048-.018.12.12 0 0 1-.056-.048l-.036-.053a2 2 0 0 1-.125-.264l-.05-.126q-.078-.2-.175-.484a37 37 0 0 1-.456-1.463l.51.024c.07.256.14.491.2.708.061.216.128.402.188.566a6 6 0 0 0 .224.551 1.6 1.6 0 0 0 .186.303.3.3 0 0 0 .1.082q.074.034.14.082a.5.5 0 0 1 .102.088.24.24 0 0 1 .067.195 1 1 0 0 0 0 .222c0 .065.017.142.03.224a7 7 0 0 0 .086.445q.435-.122.509-.803.121-.636-.365-.976-.51-.293-.58-.537-.148-.413.314-.511.267-.142-1.284-1.17-.803-.566-.486-1c.08-.14.23-.14.449.012q.327.23.422.11.17-.341-.266-.475c-.29-.089-.422-.19-.412-.305a6 6 0 0 1 .024-1.023c.03-.212.013-.429-.05-.634q-.265-.39-1.017.048c.11-.253.14-.534.084-.805a1.84 1.84 0 0 0-.375-.755l-.242-.755q-.098-.39.436-.537-.157-.76.014-1.077Zm-.462 17.77.04-.12q.118-.393-.095-.01l-.01.033-.068.142-.187.376a4 4 0 0 1-.255.439 9 9 0 0 0-.185-.88l-.046-.184-.047-.183c-.015-.063-.025-.093-.038-.141q-.219-.684-.12.024c0 .035.01.07.015.103l.028.181.03.181q.133.9.193 1.753a6.4 6.4 0 0 0-.836-.755l-.057-.044-.14-.11-.141-.12a4 4 0 0 1-.407-.41q-.266-.17-.097.05.201.261.432.497.061.065.13.131l.132.129.167.157q.372.32.691.694a.8.8 0 0 1 .141.293 7 7 0 0 1-.291.362 8 8 0 0 1-.217.248.4.4 0 0 1-.094-.103.44.44 0 0 1-.093-.24.5.5 0 0 0-.158-.342l-.794-.655-.02-.015q-.606-.537-.386-.975a2.6 2.6 0 0 1-.304-.512.55.55 0 0 1 .06-.573q.195-.283.898.256c.08-.254.08-.527 0-.78a7 7 0 0 0-.291-.732 10 10 0 0 0-.607-.999l-.059-.131a1.5 1.5 0 0 1-.107-.328q-.018-.129.035-.166s0-.007.01-.008a.21.21 0 0 1 .173 0q.16.07.289.188.606-.659.8-.378c.165.289.272.607.314.938.082.45.09.912.026 1.365l-.097.098.097.097q.05.142-.123 1.096.002.09.026.174a.8.8 0 0 0 .094.213v-.009a2 2 0 0 1-.031-.35v-.08q.025-.123.158-.573a4 4 0 0 0 .133-.512c0-.041 0-.07-.124-.085a.3.3 0 0 0 .209-.208.4.4 0 0 0 .025-.267 4.6 4.6 0 0 1-.05-.768 3.5 3.5 0 0 0-.12-.964 3 3 0 0 1-.141-.512q-.024-.182-.291-.206c-.179-.016-.422.163-.752.536q.22-1.048.45-1.402.228-.354.472-.206c.136.07.246.18.315.316q.074.171.218-.06.147-.232.244-.159.133.124.205.292a1.9 1.9 0 0 1 .183.62q.033.258.06.733v.115q.011.505-.141.707-.013.02-.027.037a.83.83 0 0 0-.194.536q.047 1.273.194 1.255a.7.7 0 0 0 .352-.195.4.4 0 0 1 .364-.135.2.2 0 0 1 .099.12q.057.175.067.358c.007.07.013.142.016.23.003.087.008.175.014.234q.03.306.107-.1.097-.524.364-.525.268 0 .096 1.415-.745.642-1.358 1.414-.141-.61-.011-.849.141-.263.242-.547c.066-.184.12-.346.166-.496.025.001.032-.019.036-.034Zm-3.213 4.417a2.8 2.8 0 0 0-.449.555l.098.902q.096.567-.594 1.255-.69.69-.91 1.28-.122.44-.945.95a1.5 1.5 0 0 0-.389-.463q-.048-.098-.194-.072-.823.218-3.321 1.463-.438.219-1.237 1.291h-.946a4.8 4.8 0 0 1-.824-.61q-.318-.244-1.116.171a1.9 1.9 0 0 0-1.506.317c-.308.113-.534.142-.68.074l-1.188-1.293q-3.686-1.555-4.026-1.39c-.242.148-.43.37-.534.635q-.363-.17-1.09-.927l-.752-.849q-.825-.925-.68-1.755l.122-.756a.35.35 0 0 0-.048-.267 1.35 1.35 0 0 0-.655-.345c-.035-.016-.14-.053-.259.389.02.066-.306-.395-.546-.743l1.244-.566q.582.641 1.225 1.218l-.593 1.32.106.085c.236.195 1.233.918 1.492 1.088l.115.075 1.053-.973q.75.439 1.548.786l-.16 1.437.127.048c.306.114 1.46.49 1.758.575l.14.038.704-1.256q.845.182 1.703.266l.29 1.414h.141c.158 0 .542.009.926.009s.766 0 .918-.009h.14l.282-1.414q.848-.089 1.68-.272l.71 1.255.134-.038a42 42 0 0 0 1.76-.575l.126-.05-.156-1.43q.79-.355 1.534-.796l1.061.97.114-.07c.262-.164 1.253-.9 1.492-1.085l.11-.086-.603-1.312q.653-.573 1.225-1.229l1.297.589a8 8 0 0 0-.188.308c-.04.023-.594-.296-.785-.132Zm.717.459c-.072.174-.154.47-.317.488s-.478-.211-.478-.425a.36.36 0 0 1 .232-.33.4.4 0 0 1 .14-.02c.206.007.496.113.423.287Zm-5.845 6.365q-.122-.416.29-.659c.24-.188.542-.275.845-.243.128.017.14.252.023.707q-.14.342-1.43.83l-.802-.098.845-.489.218.341h.121zm1.09-1.317a1.9 1.9 0 0 0-.843.208q-.535.232-.583.645a.57.57 0 0 1-.266.367q-.535.292-.97.512l-.753-.05.389-.536c.215-.244.469-.45.751-.61q2.062-1.022 2.742-1.193a.176.176 0 0 1 .218.073l.193.243-.266.172a.84.84 0 0 1-.604.165zm-13.288-.512c-.26-.141-.47-.195-.63-.141q-.17.048-.364.488l-.05-.05q.099-.414.303-.512a.61.61 0 0 1 .527.043l1.163.566 1.989.755c.33.33.63.69.898 1.072q-.608.075-1.31.098l-1.052-.739q-.63-.755-.921-1.096a2.1 2.1 0 0 0-.553-.488zm.388.83a.72.72 0 0 1-.68 0l-.387-.295c.128-.324.299-.424.508-.317l.389.343zm-7.058-7.8-.533-.683.388-.976a7.3 7.3 0 0 0 .145 1.654zm.116-2.688v-.436a18 18 0 0 1 .437-2.998q.508-2.024.97-2.146.266.708.436 2.622a17.6 17.6 0 0 1 0 3.448q-.216 1.95-.654 2.633l-.24.516-.075.167v-.273q0-.724.012-1.308v-.27c0-.196.01-.38.016-.55v-.062c0-.089 0-.184.01-.283q.03-.89.061-2.24.039-1.574.207-3.572.098-.486-.049-.22-.388 2.025-.46 5.194v1.385l-.01.352-.007.27-.007.27-.017.668-.007.293v.048l-.315-.367-.031-.168-.05-.27c-.015-.09-.022-.15-.033-.225a16 16 0 0 1-.182-2.306q-.006-.083-.005-.174zm-1.016.116q-.044.093-.086.188a17 17 0 0 0-.687 1.795q-.164.662-.242 1.34-.075-.997.328-2.79a7.4 7.4 0 0 1 .312-1.034 10.6 10.6 0 0 1 1.025-1.976q.228-.351.494-.708-.198.732-.268 1.487-.435.759-.79 1.51l-.086.186zm-1.475-2.063q-.244-.243-.632-2.194.025-.51.412-1.536c.082-.212.182-.446.296-.693a56 56 0 0 0 0 1.822v.141l1.407.293q.086.863.266 1.712l-1.253.715.04.135c.05.164.201.648.342 1.076a8 8 0 0 0-.282 1.019c-.14-.228-.228-.558-.357-.99q-.195-.648-.121-.866.197-.343-.118-.635zm1.397-6.588a.7.7 0 0 0 .199-.097l.159.089q-.183.847-.265 1.711l-1.328.275c.236-.495.532-1.047.876-1.641q.154-.196.36-.338zm4.18-7.313v-.016.016c.022 0 .187-.258.408-.64l.187.415a14 14 0 0 0-.571.54q0-.16-.024-.316Zm-.025.871q.462-.489.95-.915l.1-.086-.402-.887a39 39 0 0 0 .497-.921c.214-.157.422-.307.563-.405l1.056.964.11-.068q.83-.504 1.723-.882l.123-.05-.16-1.415c.35-.129 1.103-.375 1.459-.48l.716 1.245.128-.032a12 12 0 0 1 1.904-.31l.14-.011.282-1.395a31 31 0 0 1 1.541 0l.282 1.395.132.01q.967.08 1.911.308l.13.031.694-1.243c.36.103 1.125.35 1.467.478l-.16 1.414.122.051a14 14 0 0 1 1.734.882l.113.067.941-.877q.064.03.133.043l.175.018a37 37 0 0 1 1.038.768l-.59 1.303.1.086q.734.644 1.373 1.383l.088.1.529-.248a.8.8 0 0 0 .157.425c-.054-.026-.28.141-.368.266-.303.47.352 1.141.456 1.373a.9.9 0 0 0-.328.156c-.224.16-.148.967.491 1.106.457.24.883.535 1.267.881.071.074.281.463.571.85.153.203.317.54.685.565l-.582.332.032.132q.23.946.307 1.918l.01.133 1.399.283c.012.373.012 1.174 0 1.548l-1.245.257a6 6 0 0 0-.115-.424.62.62 0 0 0-.371-.41c-.057-.022-.423 0-.487.282-.02-.158-.275-.253-.463-.298-.53-.126-1.098.898-1.035 1.849a.8.8 0 0 0-.198-.118c.174-1.032.205-2.083.093-3.123l-.024-.224-5.966 2.14 5.08-3.938.37-.282-.466-.01-6.318-.142 6.052-1.697-.109-.195a11.4 11.4 0 0 0-3.179-3.626 11.3 11.3 0 0 0-4.39-1.972l-.218-.045.18 6.365-2.134-6.082-.155-.443-.155.443-2.091 5.996.273-6.3-.22.045a11.3 11.3 0 0 0-4.405 1.918 11.4 11.4 0 0 0-3.218 3.58l-.111.194 6.08 1.8-6.408.158-.467.011.371.283 5.03 3.85-5.891-2.205-.027.224q-.08.67-.077 1.345a4 4 0 0 0-.152-.416c-.036-.075-.141 0-.141.007-.678.415-.985 1.319-1.222 2.44l-.194.18c-.14.18-.281.362-.41.55a15 15 0 0 1-.225-1.556l-.01-.131-1.394-.283a57 57 0 0 1 0-1.556l1.395-.283.01-.132q.083-.972.296-1.925l.029-.127-.262-.142c1.117-1.025 3.301-4.058 3.655-6.122zm21.046-.502q-.074.206-.099.425l-.443.209a14 14 0 0 0-1.223-1.228l.522-1.154q.123.154.313.36c.263.283.758.566 1.176.749a7 7 0 0 0-.246.638zm-1.97-2.512c.12 0 .242.007.361 0q.027.181.107.346l-.47-.348zm4.495 15.92.955.55a8 8 0 0 1-.105.352.4.4 0 0 0-.422-.048s-.221.157-.355.259c-.045.034-.084-.224-.099-.416a2.7 2.7 0 0 1 .026-.698Zm.395-4.752a13 13 0 0 0-.281-1.713l.307-.175q.39 1.09.973 2.089zm-3.085 7.538c-.153.777.736 1.346 1.464 2.077a.5.5 0 0 0 .055.31c-.23.325-.53.74-.704.96l-1.3-.588-.086.1q-.634.743-1.374 1.38l-.1.087.597 1.294c-.298.225-.937.7-1.241.907l-1.057-.965-.111.07q-.834.503-1.725.892l-.12.053.16 1.414c-.35.123-1.106.368-1.47.48l-.704-1.24-.128.029q-.947.218-1.915.308l-.13.013-.281 1.39h-1.541l-.282-1.401-.132-.012a14.5 14.5 0 0 1-1.914-.297l-.127-.028-.69 1.24a58 58 0 0 1-1.471-.482l.16-1.423-.122-.05a14 14 0 0 1-1.736-.89l-.112-.066-1.043.964a45 45 0 0 1-1.244-.906l.585-1.305-.097-.087q-.729-.645-1.376-1.373l-.087-.098-1.285.587-.127-.172c.293-.47.515-.981.659-1.517a10 10 0 0 0 .354-2.307.4.4 0 0 1 .093-.141c.121-.094.252-.44.372-.887a11.5 11.5 0 0 0 1.995 3.129l.15.167 3.587-5.261-1.83 6.183-.132.45.384-.267 5.206-3.61-3.912 4.95.202.094a11.3 11.3 0 0 0 9.397.044l.203-.092-3.864-5.039 5.27 3.658.385.266-.14-.448-1.813-6.091 3.476 5.266.152-.166a11.4 11.4 0 0 0 2.555-4.533c.36.665.877 1.4.9 1.805-.334-.3-1.09-.309-1.092.424.001.215.18.591.254.751Zm-20.953-4.442q-.075-.39-.182-.401a.28.28 0 0 0-.207.06l.141-.292q.12-.317 0-.415c-.04-.042-.356-.045-.681.071a11 11 0 0 1 .021-1.855l6.557 2.455.043.032-.01.041-3.953 5.8a11.1 11.1 0 0 1-1.97-3.32c.183-.857.298-1.822.24-2.177zm-1.043-.355a5 5 0 0 0-.048-.23l.021-.014q.085-.059.168-.11.131-.078.271-.14.315-.075.121.292l-.318.473-.14.212a5 5 0 0 0-.075-.484zm8.395-5.092h-.04l-6.696-1.993a11 11 0 0 1 3.005-3.277 10.95 10.95 0 0 1 4.049-1.816l-.3 7.02zm.12.327h.115l.038-.108.098-.283 2.294-6.58 2.32 6.608.095.268.038.107h.412l6.934.163-5.532 4.255-.225.173-.09.069.032.109.086.283 1.989 6.682-5.731-3.976-.24-.157-.092-.065-.093.065-.236.171-5.707 3.961 1.987-6.71.082-.271.032-.109-.09-.07-.238-.182L12.963 18l6.961-.168zm5.232-.316-.013-.04-.193-7.023c1.457.338 2.83.971 4.035 1.862a11 11 0 0 1 2.97 3.317l-6.737 1.883zm-2.687 8.266.034.024 4.261 5.55a10.96 10.96 0 0 1-8.694-.04l4.354-5.51zm-10.888-1.455.104-.282.108-.303c.01-.135 0-.185-.04-.154a.5.5 0 0 0-.082.13l-.048.09-.097.179-.024-.489.04-.052.141-.185.176-.225q.365-.367.316.389-.043.597-.15 1.187-.03.175-.066.355a23 23 0 0 1-.268 1.188 12 12 0 0 0-.122-1.803zm21.423-.778q.03.193.104.372a11.06 11.06 0 0 1-2.43 4.62l-3.866-5.86-.015-.052.032-.026 6.576-2.357c.082.94.044 1.888-.112 2.818-.18.04-.321.2-.286.485zm-25.11 1.606.592-.338q-.233.42-.422.863zm29.604.583c.012-.016-.14-.041-.253 0 .084-.266.156-.505.181-.623l.028-.125-1.17-.675a2 2 0 0 0 .11-.173c.116-.21.117-.675.051-1.185q.024-.198.042-.39l1.408-.292.01-.133c.015-.22.02-.897.012-1.388l.116.181c0 .033.632.708.86 1.324q-.07.376-.07.759c-.073.73-.214 1.453-.422 2.157-.69-.34-.802.116-.903.563Zm1.777-3.606q.263-.026.527 0c-.227 1.235-.489 2.589-.704 3.433l-.34-.195a22.6 22.6 0 0 0 .517-3.238ZM34.341 5.073q.023-.34.447-.206.425.134.788 1.815l.389.141q.195-.463.315-.464.194 0 .389.805.485.439.46 1.439a1.76 1.76 0 0 0-.34 1.023l-.194-.439a6 6 0 0 1-.14-1.535q-.025-.342-.074 0-.075.598-.032 1.201a11.7 11.7 0 0 0-1.407-1.536c-.1-.398-.134-.81-.097-1.218q-.072-.585-.121-.269-.05.686.049 1.365a13 13 0 0 1-1.31-1.632c-.13-.228-.186-.283-.17-.142a7.6 7.6 0 0 0 .975 1.452q.51.586.824.926A7 7 0 0 0 34 7.543a2.7 2.7 0 0 1-.844-.256q-.363-.071.024.171c.14.098.44.187.885.268.434.078.855.217 1.25.414q.315.196.844 1l.291.658a5 5 0 0 0-1.508-.508q-.824-.141-.97-.267-.632-.27-.14.048.14.141 1.03.33a5.3 5.3 0 0 1 1.71.694l.047.142a.64.64 0 0 0-.12.536l.17.488c-.141-.178-.348-.098-.607.243a.52.52 0 0 0-.073-.584q-.344-.51-1.648-1.094l-.14.27q-1.066-.343-1.335-1.274-.025-.293.51-.33.533-.036.17-.304a2.5 2.5 0 0 1-1.164-.829q-.316-.413 0-.585l.363-.098.17-.22-.218-.848q-.097-.657.363-.926.65-.097 1.28.391Zm-3.93.951-.817-.267.05-.566-.462.097q-.655.221-1.31-.39-.437.075-.364-.34.171-.366-.097-.39l-.704.072q-.678-.098-.896-.39-.145-.242.194-.608-.654-.27-.813-.586-.159-.317.194-.512.354-.195 1.298-.072a.57.57 0 0 1-.122-.566q.026-.293 1.267.317l.486.293q.194-.366.654-.22.557.267 1.043.647.598.487 1.09 1.083.511-.338.728.142l.073.584q-.532-.51-1.308-.072l-.341-.142q-.704-.848-.844-1.291-.141-.566-.141-.098.023.488.581 1.244-1.065-.343-1.564-.877a11 11 0 0 1-.764-.903q-.266-.44-.218 0c.209.376.48.714.801.999a15 15 0 0 1-.728-.341 4.2 4.2 0 0 0-1.407-.39q-.266 0-.024.097.706.164 1.37.451c.212.09.406.218.57.378a3.25 3.25 0 0 1-1.406.269q-.46-.025-.413.024a.7.7 0 0 0 .291.097 4.2 4.2 0 0 0 1.77-.195q.743.38 1.53.658a2.9 2.9 0 0 0-1.044.488q-.194.243.193.024.39-.293 1.166-.365l.41.17a2.44 2.44 0 0 0 .317 1.34zm1.067 1.804.165-.276c-.526-.242-1.012-.53-1.037-1.187l.436-.17q.29-.342.013-.512c-.187-.114-.282-.414-.304-.902q.267-.583 1.31 0 .46-.902 1.114-.537-.703 0-.823.61c-.05.315-.05.636 0 .95a2.5 2.5 0 0 0-.582-.585q-.655-.34-.242.074a7 7 0 0 1 .727.848 1.6 1.6 0 0 1-1.165.39c-.14.066-.121.107.073.123.227.047.462.03.68-.049-.016.326.04.65.165.951.165.23.368.432.599.597a.36.36 0 0 0-.255.207q-.466.024-.931-.022c-.141-.022-.185-.06-.209-.124V8.19c-.034-.095-.028-.186.266-.362ZM20.663 3.075q.001.462-.563 1.024a9.7 9.7 0 0 1-2.12 1.437q-1.275.661-3.312 1.556v-.141a41 41 0 0 1 4.584-3.023q.562-.343-.098-.196a23 23 0 0 0-1.6.903q-1.454.951-2.837 1.877l.024-.293q2.766-2.437 4.536-3.144.876-.195 1.386 0Zm-5.469.585a9.7 9.7 0 0 1 3.165-1.707 5.4 5.4 0 0 1 1.548-.22q.314.075.17.367l-.534.707q-.704.095-1.928.804a19.3 19.3 0 0 0-2.632 1.877l-.339.22q-.265-.196-.97.17 2.23-1.877 3.88-2.851 1.07-.537 1.237-.757a8 8 0 0 0-1.503.67q-.97.524-3.201 2.183l-1.432 1.291a15.3 15.3 0 0 1 2.54-2.754Zm-1.492 2.705q.098-.054.18-.092.072-.035.148-.06a.34.34 0 0 1 .206-.018c.07.216.086.446.05.67a5.7 5.7 0 0 1-.374 1.168q-.112.282-.257.624l-.093.182-.087.173-.186.36-.011.024-.103.201-.103.2-.311.608q-.118.015-.235.04a3.2 3.2 0 0 0-1.126.499 4 4 0 0 0-.408.32l-.023.018.014-.023q.433-.75 1.042-1.707.154-.245.352-.549l.439-.67a272 272 0 0 1 1.137-1.706.8.8 0 0 0 .113-.237q0-.004-.002-.007c-.008 0-.025 0-.05.023l-.046.038a3 3 0 0 0-.312.358l-.14.175-.078.1q-.16.208-.362.48l-.104.142-.11.148-.114.157q-.118.164-.243.347a23 23 0 0 0-.262.389c-.09.137-.184.283-.281.424q-.22.338-.458.725a79 79 0 0 0-1.05 1.741q-.021.035-.048.075l-.48.738-1.508 2.332q-.123.124-.728.141l-.8 2.364q.097.142.606-.098a.89.89 0 0 1-.727.512l-.195-.141-.097-.367.024-.219.194.024.845-2.168-.51-.634.123-.366q.241.512.46.566.339-.66.985-1.793.685-1.2 1.516-2.303l-.024-.195q0-.172.169-.024l1.213-1.756-.995 1.73q.244.27-.218.367a18.3 18.3 0 0 0-2.376 4.12l.242.073c.141.065.282 0 .413-.196l1.479-2.632 1.407-2.633q.993-1.783 2.279-2.782ZM7.64 16.823l-.194-.024.509-1.584.462-.098q-.453.823-.777 1.706Zm-.316.95L6.84 19.09l-.34 1.146.12-.975.171-.707.14-.707zm-.799-1.17q.15-1.017.46-1.998l.195.243zm3.565-8.75q.514-1.02 1.209-1.927.241-.566-.266.024-1.188 1.489-2.766 4.705l.462-1.17q.343-.902.778-1.763c.35-.772.78-1.504 1.285-2.183q.63-.804.874-1.048.873-.755 1.018-.708a.29.29 0 0 1 .073.317l-1.188 3.071a31.4 31.4 0 0 1-3.055 4.73q-.803.878-.995 1.121-.177.218-.316.463l.098-.415.46-.731q.97-1.586 2.329-4.486ZM6.815 25.647q0-.488-.108-.61a1.3 1.3 0 0 1-.218-.45l-.328-.975a9 9 0 0 1-.316-1.159l-.077-.04a1.8 1.8 0 0 1-.867-.946 11.4 11.4 0 0 1-.546-1.816 9 9 0 0 1-.2-1.573q-.016-.351-.012-.726-.002-.189.007-.383a22 22 0 0 1 .533-3.608 10 10 0 0 1 .771-2.086c.353-.705.773-1.374 1.254-1.997.072-.092.14-.186.218-.283.078-.098.15-.184.23-.275a3 3 0 0 1 .164-.168 1 1 0 0 1 .118-.092.4.4 0 0 1 .102-.045.115.115 0 0 1 .124.086 8.7 8.7 0 0 1-.012 1.888 9 9 0 0 1-.188 1.037c-.047.2-.099.39-.158.593-.04.142-.081.273-.126.413a107 107 0 0 0-.684 2.377q-.077.282-.141.533-.1.376-.17.678c-.031.14-.06.258-.083.372a8 8 0 0 0-.061.306q-.141.484-.281 1.078-.1.397-.2.85-.155.665-.318 1.443-.157-.811.093-3.08.038-.35.087-.733.023-.192.05-.392a42 42 0 0 1 .168-1.137l.044-.265q.045-.259.091-.504l.048-.239q.32-1.572.729-2.426.102-.193.15-.407-.001-.021-.026 0a.5.5 0 0 0-.073.085 2 2 0 0 0-.075.103q-1.48 2.536-1.723 7.483c0 .142-.007.283-.007.425 0 .267 0 .516.012.744q.015.342.049.625.03.254.084.504c.017.075.037.141.057.207.02.067.04.125.062.182q.056.155.129.302.06.12.14.224a.6.6 0 0 0 .168.153l.058.03a.3.3 0 0 0 .176.042.4.4 0 0 0 .188-.068q.141-.925.195-1.498.053-.574.132-1.341c.04-.44.141-.87.304-1.28l.097.097q-.187.768-.255 1.556-.012.439-.06.877c-.033.293-.065.849-.097 1.682a27 27 0 0 1 .463-1.444q.08-.231.167-.457l.752-2.194.195-.468.467-1.115.307-.733.009-.015.088-.169q.52-.981 1.281-2.134l.101-.152.1-.151q.308-.456.653-.938a6 6 0 0 1 .301-.328q.068-.069.134-.141c.044-.05.096-.088.14-.13.336-.282.644-.449.925-.48q.047.071.064.154.023.105.02.212a2 2 0 0 1-.019.287 3 3 0 0 1-.027.166c-.01.058-.02.109-.033.165v.016q-.03.123-.065.249a7.3 7.3 0 0 1-.533 1.365l-.106.191-.082.15-.114.2-.081.142-.114.197-.08.141-.116.19-.079.13-.112.18-.08.128-.11.169-.083.127-.109.161-.083.123-.108.152-.083.119-.106.141-.084.113-.104.142-.086.11-.103.127-.086.105q-.053.064-.105.125l-.082.096-.108.12-.079.088-.107.113-.08.082q-.052.054-.106.105l-.08.079-.008.008-.141.126-.04.035.027-.043.093-.15 1.039-1.698.103-.167.047-.079.365-.594.642-1.173.159-.283q.176-.279.281-.592v-.04q-.018-.026-.11.048l-.471.716-.1.153-.01.014-.253.389c-.05.073-.097.141-.141.219l-.122.19-.46.707-.078.123-.106.165-.105.166-.108.171a35 35 0 0 0-.852 1.408l-.084.154q-.02.041-.041.078l-.04.079a50 50 0 0 1-.906 1.697q-.364.617-.605 1.292l-.093.283c-.036.113-.082.23-.132.369l-.08.218-.141.37-.079.206-.089.209q0 .219.292 1.273.291 1.054.497 1.23a.265.265 0 0 1 .036.404q-.075.194.097.73a9 9 0 0 0 .563 1.61l-.073.243a18 18 0 0 1-.829-2.248Zm-.8-7.24q-.24 1.95-.412 3.047l-.097-.195q-.145-.22.51-2.852Zm7.688 18.314-.316-.425a.33.33 0 0 0-.4-.073q-.255.098-.4-.292-.655.39-1.333-.293l-.8-.971-.751-1.293-.268-.196a.7.7 0 0 1-.509.107c-.317-.043-.678-.254-1.041-.643l-.047-.046-.05-.061a4 4 0 0 1-.263-.393c-.049-.084-.109-.18-.171-.283a38 38 0 0 1-.92-1.726l-.188-.344a68 68 0 0 1-1.3-2.642l-.107-.24-.124-.284a17 17 0 0 1-.302-.75l-.178-.543-.076-.229a51 51 0 0 0-.22-.646l-.034-.094q-.017-.039-.028-.069l-.024-.05c-.007-.012-.026-.04-.034-.042-.009-.001-.007 0-.01.009a.2.2 0 0 0 0 .075v.066c0 .025 0 .055.01.088s.013.07.021.111q.025.123.072.295.045.171.11.387.064.218.15.484.084.265.207.591c.082.218.173.457.281.716s.223.54.352.839q.195.45.422.962a51 51 0 0 0 1.577 3.023 32 32 0 0 1-.434-.484q-.422-.48-.772-.945a12.3 12.3 0 0 1-1.39-2.228 15 15 0 0 1-.665-1.62 8 8 0 0 1-.234-.766 9 9 0 0 1-.167-.734 4 4 0 0 1-.078-.462 12 12 0 0 1-.067-1.11q-.026-1.061.024-1.183.12-.365.339-.317.022.001.042.012.164.105.282.26.142.163.337.425.365.534.615 1.131.09.195.185.418.141.333.297.727l.157.408c.054.142.109.283.165.44l.11.297.104.283.191.528q.091.252.17.477.12.337.216.615l.117.345q.131.4.195.637.116.424.233.788.038.12.077.235.051.152.103.292c.069.187.14.377.228.566q.06.144.13.283c.044.092.09.194.14.291q.054.11.11.211.054.103.11.193.1.173.218.333.121.171.271.317l.083.075a1 1 0 0 0 .082.065l.036.026q.054.037.103.066.47.287.704.054l-.888-1.598a.4.4 0 0 0-.282-.01h-.046a.4.4 0 0 1-.103-.007.2.2 0 0 1-.04-.01.3.3 0 0 1-.09-.034.3.3 0 0 1-.06-.04l-.011-.013a.3.3 0 0 1-.05-.059v-.014a.4.4 0 0 1-.028-.09v-.02a1 1 0 0 1-.018-.091v-.133c0-.048 0-.099.013-.154s.01-.077.015-.119l.023-.141a13 13 0 0 1 .108-.538l.037-.161.05-.218c.017-.076.027-.108.04-.164l.042-.171.097-.31.097-.297a19 19 0 0 1 .272-.743q.141-.36.301-.707l.083-.187.09-.188q.27-.566.588-1.144-.06.39-.091.718a10 10 0 0 0-.024.372v.225l-.06.142a50 50 0 0 0-.872 2.086q-.223.575-.378 1.041-.217.903.025.879l.193-.098-.14-.342.096-.268.292.512.169-.121.14.22-.14.218 1.092 1.585.266-.22.194.22q-.485.487-.389.633.356.674.801 1.292.729 1.074 1.188.61.147-.122.364.048t.486.731l-.025-.566-.897-.849-.533-1.035q-.63-.9-.898-1.39-.267-.486-.667-1.169a25 25 0 0 0-.985-1.536l.071-.268.777.951a25 25 0 0 1 1.471 2.04q.423.694.498.328l.14-.463.219.122-.14.95-.05.294c-.015.227.028.36.14.401s.2.191.282.452q.074.243.764 1.01c.433.488.921.922 1.456 1.292q.764.524 1.266.85.503.325.473.646l.46.097-.12-.585.29-.072c.174.136.3.324.364.536q.63.488 1.092.78l-1.067.194-1.831-1.092zM9.24 31.017l.141-.142.678 1.146-.071.142zm1.139 2.292.267-.343.63.903.365.657.121.367a1.6 1.6 0 0 1-.582-.512l-.389-.512zm5.602 5.873-1.455.245.34-.975zm3.468 4.56a18 18 0 0 1-2.304 1.89l-.291-.097q.75-.463 2.135-1.511l.412-.464-.222-.021q-.506.448-1.056.84-.653.464-1.37.818l-.704.34.12.142.534.074q.46.292.389.585-.242.365-.777.098l-.581-.317a1.9 1.9 0 0 0-.63-.44l-.239-.188.097-.245.728.293h.218l-.12-.439.872-.536q.339-.122.291-.414l.073-.439c.414.075.84.01 1.213-.183.389-.19.807-.31 1.236-.354q.366.243-.024.56zm-.581-1.012q-1.268.282-2.28.499a82 82 0 0 1-5.02.755q-.63-.17-3.638-1.877-2.133-1.291-2.982-2.096-.97-1.048-.777-1.273a7.5 7.5 0 0 0 .844-1.852c.061-.172.078-.356.05-.536q-.27-.831.387-.849a19 19 0 0 1 2.187-.054q.243.023.315-.141l.364-.731-.218-.098-.32.481-.026-.566c0-.08.05-.106.14-.073q1.019.268.947.683a2.2 2.2 0 0 0-.292 1.218l.024 1.273a19 19 0 0 0-2.764-1.51q.169-.025.389-.038a.31.31 0 0 0 .29-.158q.074-.141-.266-.17-.752 0-.971.122-.17.194.073.414 1.591.788 3.08 1.754 2.112 1.341 3.274 2.194a29 29 0 0 0 3.201-.316l2.086-.39a41 41 0 0 1 2.674-.414q.64-.084 1.285-.098.72-.02 1.431-.121c.369.652.63 1.36.775 2.095q.074.465-.12.512-2.882 1.074-4.142 1.354zm6.207-.792-.12-.39-.655.828-.535.341a.87.87 0 0 1-.751.243l-.845-.414.437-.22.12.098q-.12.368.292-.097l.751-.732q.075-.657-.315-1.697t-.581-1.305q-.05-.219-1.116-.097.63-.316 1.479-.048l.583.243.316-.141-.045-.044-.549-.256.292.024.247.235.068.032-.023.011.17.16q1.235 1.34 1.393 1.828c.105.306.117.637.036.95-.301.408-.52.554-.649.44zm2.643 3.461c-.14-.115-.185-.228-.12-.342l.485.414c-.097.058-.218.034-.365-.08zm3.153.048.267.05-.097.121-.63.195c-.276.245-.61.412-.97.487l-.412-.073-.098-.292a.83.83 0 0 1 .376-.317q.289-.114.594-.17l.583.097zm-.897-.267q-.655 0-.824.141h-.34a8 8 0 0 1-1.116-.902l-1.14-.901q.314-.171 1.359.121zm3.468-4.961c.356.048.718.028 1.067-.061q.654-.27 2.692-1.999 1.963-1.487 3.323-2.072.412-.245.036-.354a4.3 4.3 0 0 0-1.126-.109c-.162.13-.14.235.05.317a1 1 0 0 1 .484.048 18 18 0 0 0-2.717 1.706q.135-.957.17-1.925a1.35 1.35 0 0 0-.29-.78q-.17-.245.461-.44l.34-.097v.537l-.462-.123.049.245a.8.8 0 0 0 .533.365l1.31.074.582-.024q1.019.023.995.499a3.1 3.1 0 0 0 .072.89c.123.717.406 1.398.826 1.992a3.4 3.4 0 0 1-.63 1.024l-1.267.829q-1.622 1.17-4.412 3.047a32 32 0 0 1-4.778-.317 33 33 0 0 1-4.632-1.024l-.388-.098.17-.171q.41-.536.449-.719c.027-.121-.017-.399-.122-.829q-.159-.645-.91-1.523v-.142l.365-.05c.901.051 1.796.182 2.674.391a31 31 0 0 0 2.8.536q1.584.29 2.286.35zm-1.818-.647q-.632-.097-2.038-.365l.844-.292q.68.14.777-.293c.068.341.21.664.417.943zm5.066-7.19q-.486.538-.315 1.12a4.9 4.9 0 0 0-1.31 1.074q-.518.566-.957 1.194-.327.487-.691.586c-.282.128-.591.065-.946-.196l-.097.61-1.626.999-.799.34c.08-.268.121-.547.121-.828l.29-.244q1.674-.875 1.94-1.608c.199-.367.443-.707.728-1.011.267-.279.46-.619.563-.99l.025-.586-.073-.61q.389.44.704.195.489-.919 1.09-1.767a15 15 0 0 1 1.238-1.523q.654-.708 1.116-1.194l-.026.608q-1.459 1.804-1.822 2.459-1.238 1.875-1.674 2.97a2.3 2.3 0 0 1-.776.975 2 2 0 0 0-.582.415q-.172.318.195.17c.152-.155.333-.28.533-.366q.534-.267 2.28-2.535l-.025-.848.267-.463q-.026.708.121.78.146.072.4-.402.255-.475 1.25-2.621-.219.66-.025 1.145-.582.417-.315 1.415zm5.446-5.422a2.3 2.3 0 0 1-.4 1.048q-.995 1.146-.825 1.365.267.466-.097 1.048-.652.783-1.408 1.463.242.488-.363.829-.744.408-1.548.683 1.574-1.194 1.94-2.56c.26-.256.564-.463.897-.61.227-.141.266-.21.121-.194a4 4 0 0 0-.922.537 7.5 7.5 0 0 0 .655-2q.946-.927 1.189-1.462.34-.513.024-.22a6 6 0 0 1-1.116 1.292q.368-1.153.606-2.34.123-.756-.073-.268l-.242.848a2.5 2.5 0 0 0-.388-.779l.315 1.024a12.5 12.5 0 0 1-.46 1.73 6.9 6.9 0 0 0-.898-1.755q-.508-.633-.169-.024c.422.65.734 1.368.922 2.122a9.7 9.7 0 0 1-.68 1.95 1.8 1.8 0 0 0-.606-.61q-.244-.12 0 .142.29.286.509.634a4.4 4.4 0 0 1-.764 1.243 7.5 7.5 0 0 1-.933.903 2.7 2.7 0 0 0 .388-2q0-.195.303-.316t.207-.269c-.15-.26-.241-.55-.268-.848a.87.87 0 0 1 .583 0c.21-.142.19-.354-.062-.621q-.377-.403-.473-1.159 0-.439.583-.317.266-.024.049-.634l-.412-.565q-.438-.976.363-.708l.63.39q.633.245.607-.848 0-.245.376-.11.375.134.69-.573.316-.341.486.633-.073 1.293.63 1.22.119.079.034.686Zm.728-2.097a.47.47 0 0 1-.11.404c-.161.14-.355.237-.563.282l-.267-.488a1.68 1.68 0 0 0-.389-1.12q.245-.187.534-.293c.178-.082.14-.106-.096-.073a2 2 0 0 0-.606.195h-.05a5 5 0 0 1 .704-1.487q.12-.318-.14.024-.417.591-.728 1.244a1.03 1.03 0 0 1-.219-.536c-.064-.31-.114-.317-.14-.026.021.28.095.553.218.805-.355.553-.639.772-.844.658q.194-1.17.509-2.462.562-.565.97-.364.582-.465.995-.172c.137.214.204.465.194.719a2.1 2.1 0 0 1-.244.792q.461 0 .486.366-.194.828-.776 1.194.523.1.562.341zM27.187 39.692c.164 0 .325.057.489.057l-.055.053c-.06 0-.218 0-.27.11-.052.111-.058.329-.11.442l-.111 1.043a1.5 1.5 0 0 0-.052.441c0 .164.11.164.215.164v.112c-.163-.06-.273-.06-.433-.112q-.222.014-.434-.056v-.054c.106 0 .213 0 .269-.11a1 1 0 0 0 .11-.439l.161-1.045c0-.11.054-.329 0-.442 0-.107-.107-.164-.213-.164v-.109q.21.084.434.11Zm6.005 3.395c-.544-.112-1.034-.165-1.576-.283v-.055a.4.4 0 0 0 .324-.109q.026-.227.111-.44l.16-.99c0-.112.057-.386.057-.494a.31.31 0 0 0-.273-.168l.056-.05c.107 0 .27.05.38.05q.24.072.49.058l-.054.11c-.053 0-.22-.053-.273.054-.053.108-.053.386-.11.494l-.163 1.048c-.053.437 0 .547.327.604.166 0 .326.054.435 0 .222-.112.222-.224.273-.441h.11l-.161.66c0-.048-.113-.048-.113-.048Zm.835-2.21v-.111h.435c.107 0 .271-.055.436-.055v.113c-.107 0-.22 0-.272.112v.493l.107.99q-.014.252.058.494c.054.11.162.11.269.11v.064h-.434a1.2 1.2 0 0 1-.436.054v-.054c.056 0 .22 0 .22-.164.052-.112 0-.33 0-.44l-.056-1.045c0-.11-.055-.382-.055-.44-.053-.174-.165-.115-.272-.115zm-4.684-.76c-.163 0-.329-.053-.329.056l-.269 1.698c0 .283 0 .33.27.441v.054a1.5 1.5 0 0 1-.486-.11q-.251.014-.493-.054v-.054c.326 0 .384-.055.436-.331l.217-1.7c.056-.053-.11-.11-.217-.11-.329-.05-.436-.05-.488.385l-.11-.053.11-.552 1.85.33-.11.551-.055-.052c.056-.338-.054-.45-.326-.5Zm7.224-.406-.055-.115c.109-.052.162-.052.218-.161a.4.4 0 0 0 .219-.11l2.123.715-.6-.827c-.108-.108-.216-.33-.327-.437-.16-.112-.218-.057-.379 0l-.055-.057q.162-.084.328-.166a.42.42 0 0 1 .217-.222l.055.058c-.055.112-.166.112-.108.275.053.112.27.385.38.549l.87 1.212-.054.054a.75.75 0 0 1-.327-.11l-1.96-.658.703.99q.141.211.326.386a.35.35 0 0 0 .328-.058v.058a.53.53 0 0 1-.27.22 1 1 0 0 0-.282.22l-.05-.055c.109-.112.162-.166.109-.33a1.8 1.8 0 0 0-.274-.387l-.763-1.1c-.152-.066-.265-.066-.372.048zm-.675 2.638a.31.31 0 0 1-.111.383l.056.054q.125-.1.273-.161c.108-.058.159-.112.27-.169l-.055-.053c-.056.053-.215.11-.27 0a2.4 2.4 0 0 1-.107-.55l-.056-.11.653-.33.271.221c.109.053.163.163.217.22.056.109-.053.219-.163.219l.055.11q.172-.145.381-.227.172-.142.381-.22l-.053-.056c-.056 0-.166.056-.273 0q-.18-.116-.328-.275l-1.407-1.263h-.121l.271 1.485q.1.35.116.715zm.544-1.046-.544.283-.165-.936zm-5.685-1.05-.107-.053-.653 1.318-.327.66c-.112.165-.166.222-.328.222l-.053.052c.107 0 .215.057.328.057.112 0 .214.053.323.053v-.053c-.053-.057-.216-.057-.216-.22.055-.111.163-.386.216-.495l.057-.111.76.111.055.384v.33c0 .11-.162.054-.217.054l-.054.114c.147-.012.295.006.435.052.166 0 .325.056.434.056v-.056c-.109-.052-.163-.052-.216-.166-.052-.113-.052-.33-.11-.44zm-.653 1.322.437-.881.164.99zm9.629-1.777c0 .169 0 .222-.107.33l.053.112a.7.7 0 0 1 .22-.22q.147-.064.271-.167l-.056-.11c-.052.055-.16.166-.269.055a1.6 1.6 0 0 1-.166-.55l-.053-.055.6-.439.324.22c.056.056.165.11.218.164.054.11-.053.222-.107.276l.054.056c.107-.11.218-.167.326-.283q.145-.138.327-.22v-.11a.36.36 0 0 1-.327.057 1.1 1.1 0 0 1-.323-.212l-1.58-1.103-.054.058.436 1.428q.08.365.213.713Zm.381-1.154-.488.386-.327-.936zm-26.36 3.094a1 1 0 0 0-.43-.047.5.5 0 0 0 .309-.597c-.068-.482-.503-.525-.769-.464a.8.8 0 0 1-.376.062.9.9 0 0 1-.374.067v.107c.105-.058.214-.06.27.045 0 .107.063.375.066.48l.189.97c0 .107.065.374.068.48-.053.107-.162.112-.268.168v.057c.217 0 .32-.065.54-.07a.8.8 0 0 1 .375-.066.75.75 0 0 0 .48-.172c.159-.167.259-.329.2-.545a.56.56 0 0 0-.28-.475Zm-1.042-.773v-.107a.26.26 0 0 1 .16-.06c.267-.06.382.098.442.367a.46.46 0 0 1-.097.38c-.053.108-.16.11-.266.113l-.107.054zm.643 1.812c-.107.057-.214.06-.273-.045a1.4 1.4 0 0 1-.117-.424l-.067-.432h.056a.62.62 0 0 1 .422-.011c.162.05.221.21.282.37.066.312-.037.528-.304.535zm-3.659-3.15c-.112-.049-.23-.155-.342-.203-.115-.102-.281-.149-.4-.253l-.052.059c.113.048.226.098.18.263q-.147.189-.254.4l-.504.85a1.15 1.15 0 0 1-.311.404c-.052.113-.166.008-.281-.043v.112c.112.05.226.151.339.198q.212.11.4.258l.053-.057c-.117-.103-.227-.156-.177-.267 0-.11.14-.338.194-.453l.257-.342s.114.104.17.102c.282.202.731.29.986-.163.261-.408.022-.723-.258-.872zm-.072.72c-.153.282-.371.349-.596.197-.06-.05-.116-.048-.119-.104l.406-.682c.101-.172.101-.172.22-.065.222.14.293.362.09.646zm2.415.616v.052c-.228-.15-.433.135-.646.311l-1.355 1.28-.111-.052.388-2.001c.043-.224.088-.39-.083-.546l.052-.06c.11.051.23.154.341.204q.19.117.397.196l-.054.057c-.054-.05-.222-.095-.273.016-.05.11-.185.67-.235.848l-.166.944.687-.586c.101-.114.522-.526.563-.636.103-.173-.011-.22-.069-.275v-.107c.115.102.227.153.282.204q.15.053.282.144zm10.384.141c-.058-.103-.17-.264-.226-.369l-.852-1.646h-.107l-.234 1.45c-.046.222-.04.437-.086.708a.36.36 0 0 1-.262.283v.053c.11.005.22-.016.32-.061l.325-.01v-.11c-.11 0-.27.065-.275-.1-.056-.104.044-.377.04-.539v-.107l.697-.13.227.375c0 .052.057.16.058.213.06.159-.103.164-.153.22v.053c.108 0 .267-.06.422-.065a.9.9 0 0 1 .374-.065v-.106a.4.4 0 0 1-.268-.06zm-1.26-.598.14-.92.454.85zm-13.309.07-.303.506-1.37-.92.049-.058a.24.24 0 0 0 .281.041c.05-.058.205-.283.309-.399l.51-.797q.105-.215.254-.402c.046-.166-.066-.215-.18-.265l.107-.065 1.199.766-.309.456-.056-.05c.203-.34.085-.446-.198-.651l-.173-.1c-.055-.054-.055-.054-.16.062l-.458.74c.343.258.502.086.656-.091h.055c-.099.174-.203.283-.255.402q-.108.21-.254.399l-.059-.056c.203-.338.088-.441-.195-.594l-.306.514c-.049.11-.152.227-.14.335a.36.36 0 0 0 .225.304c.281.151.45.197.71-.088zm-1.85-.885V38.59c.282.154.557.142.813-.208.256-.397.02-.659-.265-.865a1.2 1.2 0 0 0-.281-.204c-.172-.102-.282-.205-.459-.307v.11c.058.051.172.102.124.214q-.111.21-.258.399l-.563.858a1.14 1.14 0 0 1-.31.4c-.106.059-.164.01-.282-.04l-.05.058c.151.05.288.137.4.25.111.052.227.156.34.205l.052-.058c-.113-.05-.17-.102-.176-.212.049-.113.2-.34.252-.451l.256-.347c.115.106.115.106.124.269l-.009.881-.04.283c.057.051.168.045.227.096.06.051.114.106.176.157l.05-.056c-.109-.106-.112-.162-.12-.33Zm-.295-1.414.46-.685c.055 0 .053-.058.109-.062q.09.04.169.1c.171.103.185.376.032.604-.31.406-.48.25-.77.043Zm11.863 3.253.067.647h-.157c-.486.068-1.022.188-1.505.256v-.056c.108-.055.215-.058.211-.165.052-.109-.01-.378-.012-.485l-.186-.964c0-.107-.065-.374-.068-.483a.19.19 0 0 0-.27-.047l-.058-.105a1.1 1.1 0 0 0 .43-.063 1 1 0 0 0 .431-.068l.054.106c-.107 0-.214 0-.265.114 0 .108.064.374.067.486l.133 1.017c.068.424.178.534.553.47.106-.056.27-.06.373-.173s.103-.269.099-.433zm2.799-.707.13.805-.113-.157c-.157.218-.37.283-.584.336-.589.125-1.087-.292-1.212-.99-.073-.699.235-1.3.823-1.368a.88.88 0 0 1 .65.09v-.162h.055l.13.697h-.057c-.12-.374-.395-.635-.715-.574-.539.068-.574.708-.508 1.25.126.537.352 1.069.89 1 .374-.117.474-.44.463-.872zM18.7 41.889V42l-.429.012c-.135.05-.279.07-.422.064v-.053c.11 0 .215 0 .21-.168.052-.109-.009-.321-.01-.424l-.196-1.032c0-.109-.06-.32-.063-.424a.35.35 0 0 0-.273-.1l-.057-.051q.211-.07.433-.067c.159 0 .319-.063.422-.066v.055a.29.29 0 0 0-.211.164q-.007.222.063.431l.14 1.022q.016.224.117.424c.06.108.17.105.276.102zm-3.237-.411a.6.6 0 0 0-.436-.096c.211-.118.422-.283.362-.603-.066-.424-.444-.477-.764-.41-.111 0-.217.06-.321.062a1.2 1.2 0 0 0-.434.067v.052c.11 0 .217 0 .273.099.072.13.113.275.12.424l.13 1.023c0 .106.063.323.066.424 0 .162-.155.166-.209.167v.106q.233-.098.483-.118c.106 0 .267-.008.32-.064a.7.7 0 0 0 .536-.177.73.73 0 0 0 .2-.545.85.85 0 0 0-.33-.413zm-.941-.784v-.161a.27.27 0 0 0 .163-.058c.213 0 .324.099.386.365a.58.58 0 0 1-.096.431c-.055.055-.16.058-.265.12h-.054zm.588 1.816c-.107 0-.212 0-.271-.1s-.06-.27-.116-.376l-.067-.483h.105a.9.9 0 0 1 .376-.01.55.55 0 0 1 .23.425c.056.271-.046.48-.261.543z"/><path fill="#fff" fill-rule="evenodd" d="M223.215 12.985q2.657 0 3.737-1.43 1.097-1.447 1.097-4.511t-1.088-4.554Q225.871 1 223.215 1t-3.745 1.49q-1.088 1.489-1.088 4.554 0 3.064 1.088 4.503 1.089 1.438 3.745 1.438m-106.29-.204q1.543 0 2.537-.366t1.517-1.175q.524-.809.711-1.838.189-1.03.189-2.597t-.206-2.545a4.3 4.3 0 0 0-.745-1.702q-.54-.724-1.517-1.039-.978-.315-2.486-.315H113v11.577zm0-2.043h-1.56v-7.49h1.56q.858 0 1.363.178.505.18.763.655.257.477.325 1.056.069.58.069 1.54 0 .963-.034 1.507-.12 1.38-.617 1.907-.583.647-1.869.647m9.376-9.534v11.577h-2.365V1.204zm4.902 11.577V9.41h1.92q2.04 0 3.094-1.082 1.054-1.08 1.054-3.107 0-4.017-4.148-4.018h-4.285V12.78zm0-5.38h1.903q1.766 0 1.766-2.179 0-1.073-.429-1.54-.428-.47-1.337-.469h-1.903zm9.119 5.38.463-2.094h4.08l.463 2.094h2.365L145.07 1.204h-4.49l-2.623 11.577zm.909-4.137h3.188l-1.183-5.499h-.822zm10.387 4.137V8.899h2.28l1.354 3.882h2.589l-1.663-4.426q1.714-1.073 1.714-3.337 0-3.814-4.114-3.814h-4.525v11.577zm0-5.89h2.194q.84 0 1.252-.511.411-.511.411-1.345t-.437-1.328-1.26-.494h-2.16zm12.702 5.89v-9.5h3.085V1.204h-8.571v2.077h3.121v9.5zm6.942-11.577v11.577h-2.366V1.204zm4.902 11.577V3.826h.257l2.28 8.444h2.365l2.28-8.444h.257v8.955h2.365V1.204h-4.028l-2.056 8.444-2.058-8.444h-4.027v11.577zm19.883-2.043v2.043h-7.542V1.204h7.542v2.043h-5.176v2.707h4.148v2.009h-4.148v2.775zm4.32 2.043V3.247h.171l2.914 9.534h3.891V1.204h-2.365v9.534h-.172l-2.81-9.534h-3.994v11.577zm13.952-9.5v9.5h-2.365v-9.5h-3.12V1.204h8.571v2.077zm6.994 6.776q.514.885 1.902.885 1.39 0 1.894-.893.506-.894.506-2.997t-.514-3.056-1.886-.953q-1.37 0-1.885.953-.514.954-.514 3.056t.497 3.005M114.285 29.805v-4.12h3.292q3.702 0 3.702-3.966 0-1.907-.9-2.826-.9-.92-2.802-.92h-4.354v11.832zm0-5.056h3.292q2.605 0 2.605-3.03 0-1.447-.617-2.128t-1.988-.681h-3.292zm16.25 5.056v-.936h-6.085v-4.614h5.057v-.936h-5.057v-4.392h6.085v-.954h-7.148v11.832zm3.377-4.664v4.664h-1.063V17.973h4.371q1.869 0 2.785.843t.917 2.664q0 2.844-2.297 3.456l2.452 4.87h-1.183l-2.348-4.665zm3.308-.937h-3.308V18.91h3.308q1.336 0 1.971.63.634.63.634 1.957 0 2.707-2.605 2.707m16.455 4.648v.953h-6.513V17.973h1.062v10.879zm1.714.953.943-3.268h5.314l.96 3.268h1.045l-3.411-11.832h-2.485l-3.428 11.832zm1.2-4.205h4.8l-1.938-6.707h-.925zm16.318 4.205V18.927h3.736v-.954h-8.569v.954h3.77v10.878zm6.514-4.664v4.664h-1.064V17.973h4.372q1.868 0 2.785.843t.917 2.664q0 2.844-2.297 3.456l2.451 4.87h-1.182l-2.348-4.665zm3.308-.937h-3.308V18.91h3.308q1.336 0 1.971.63.634.63.634 1.957 0 2.707-2.605 2.707m7.113 2.333-.942 3.268h-1.063l3.428-11.832h2.486l3.41 11.832h-1.045l-.96-3.268zm5.057-.937h-4.8l1.938-6.707h.925zm10.156 3.499q-.952.843-2.786.843-1.337 0-3.102-.239l-.617-.085.12-.902q2.347.29 3.634.29 1.285 0 1.954-.622.668-.621.668-1.822 0-1.2-.592-1.634-.59-.435-1.885-.673t-1.894-.434q-.6-.195-1.123-.562a2 2 0 0 1-.745-.936q-.222-.57-.223-1.439 0-3.098 3.771-3.098 1.131 0 2.949.238l.565.085-.086.903q-2.365-.29-3.359-.29-2.76 0-2.76 2.094 0 1.227.625 1.652.626.425 2.451.783 1.827.357 2.606.987.78.63.78 2.111 0 1.907-.951 2.75m4.362.706V24.75h5.074v-.936h-5.074v-4.886h5.965v-.954h-7.028v11.832zm15.778-1.242q-1.003 1.413-3.651 1.413t-3.65-1.447q-1.004-1.448-1.004-4.572t1.012-4.639q1.011-1.515 3.633-1.515 2.623 0 3.643 1.507t1.019 4.673q0 3.166-1.002 4.58m-3.651.46q-2.116 0-2.837-1.184-.72-1.183-.72-3.89 0-1.328.146-2.23a4.8 4.8 0 0 1 .54-1.6q.737-1.363 2.862-1.363 2.058 0 2.812 1.26t.754 3.976q0 2.714-.72 3.872t-2.837 1.158m8.219-3.882v4.664h-1.062V17.973h4.371q1.867 0 2.785.843.917.843.917 2.664 0 2.844-2.297 3.456l2.451 4.87h-1.183l-2.348-4.665zm3.309-.937h-3.309V18.91h3.309q1.336 0 1.97.63.635.63.635 1.957 0 2.707-2.605 2.707m7.233-5.141v10.742h-1.063V17.973h1.989l3.685 10.351 3.668-10.35h1.989v11.831h-1.063V19.063h-.24l-3.737 10.35h-1.251l-3.737-10.35zm13.25 10.742.943-3.268h5.313l.959 3.268h1.046l-3.41-11.832h-2.486l-3.428 11.832zm1.199-4.205h4.8l-1.937-6.707h-.925zm15.942 4.222v-.953h-6.531v-.357l6.531-9.126v-1.413h-7.714v.954h6.531v.374l-6.531 9.125v1.396zm3.308-11.849v11.832h-1.063V17.973zm7.173 12.003q2.648 0 3.651-1.413t1.002-4.58-1.019-4.673q-1.02-1.507-3.643-1.507t-3.633 1.515q-1.012 1.515-1.012 4.64t1.003 4.57 3.651 1.448m-2.837-2.137q.721 1.183 2.837 1.183t2.837-1.157.72-3.873-.754-3.976-2.812-1.26q-2.125 0-2.862 1.362a4.8 4.8 0 0 0-.54 1.6q-.146.903-.146 2.23 0 2.707.72 3.891m11.056 1.966V18.927h.377l5.022 10.878h2.057V17.973h-1.045V28.87h-.395l-4.987-10.896h-2.091v11.832zM307 28.87v.936h-7.148V17.973H307v.954h-6.085v4.392h5.056v.936h-5.056v4.614zM117.559 46.83q4.234 0 4.234-6.077 0-5.754-4.234-5.754h-4.336V46.83zm-3.274-.936h3.274q3.137 0 3.137-5.141 0-4.8-3.137-4.8h-3.274zm11.073.937V34.998h-1.062V46.83zm9.154.008q-1.252.162-2.074.162-2.571 0-3.566-1.498t-.994-4.546q0-1.515.206-2.587t.72-1.907q.977-1.635 3.616-1.635 1.612 0 3.274.324l.566.12-.051.901q-2.143-.39-3.703-.391-2.075 0-2.802 1.234-.729 1.235-.729 3.924t.729 3.899q.728 1.209 2.785 1.209 1.217 0 2.725-.273v-3.983h-2.194v-.937h3.24v5.72q-.497.102-1.748.264m5.468-.008V34.998h-1.063V46.83zm6.547-10.879V46.83h-1.062V35.95h-3.771v-.953h8.57v.953zm5.451 10.879.943-3.269h5.313l.96 3.269h1.046l-3.411-11.832h-2.486l-3.428 11.832zm1.2-4.205h4.799l-1.936-6.708h-.926zm15.495 4.205v-.954h-5.45V34.998h-1.063V46.83zm8.862-.937v.937h-7.148V34.998h7.148v.953h-6.085v4.392h5.057v.937h-5.057v4.613zM100 47V1H54v46zM73.558 13.04h8.016q2.856.022 4.728.63 1.942.63 3.016 2.078 1.073 1.449 1.482 3.408t.409 5.094-.375 5.196-1.414 3.68-3.016 2.351q-1.976.733-5.042.733h-7.803zm7.804 4.088q1.703 0 2.708.358t1.517 1.312.647 2.113.136 3.083a51 51 0 0 1-.068 3.016q-.239 2.76-1.226 3.816-1.159 1.295-3.714 1.295H78.26V17.128zm-18.04 2.565q.805-.805 2.057-.804 1.251-.001 2.036.826.781.823.782 2.034-.002 1.21-.782 2.015-.784.803-2.029.804-1.248 0-2.056-.82-.81-.819-.811-2.035 0-1.213.804-2.02" clip-rule="evenodd"/></svg>