<svg width="48" height="46" viewBox="0 0 48 46" fill="none" xmlns="http://www.w3.org/2000/svg">
<path d="M30.1017 15.3704C29.3526 16.4322 29.4035 17.0649 30.9162 17.2322C31.8253 17.334 32.7417 17.3776 33.6508 17.3631L33.5126 11.7995C33.5053 11.6176 33.4253 11.0649 33.2435 11.0649C33.2435 11.0649 33.1562 11.0213 32.909 11.3704L30.1017 15.3704ZM30.829 17.9595C28.9817 17.7485 28.3053 16.6576 29.5053 14.9558L32.3126 10.9558C33.1417 9.77764 34.2035 10.3813 34.2399 11.7849L34.378 17.334C35.2726 17.2904 36.1671 17.1885 37.0544 17.0213C37.2435 16.9922 37.4399 17.1231 37.4762 17.3195C37.5126 17.5158 37.3817 17.7049 37.1853 17.7413C36.2617 17.9085 35.3308 18.0176 34.3999 18.0613L34.4726 21.1158C34.4799 21.3122 34.3199 21.4795 34.1235 21.4867C34.1162 21.4867 34.1162 21.4867 34.109 21.4867C33.9126 21.4867 33.7526 21.3267 33.7453 21.1304L33.6726 18.0904C32.7271 18.1049 31.7744 18.0613 30.829 17.9595Z" fill="black"/>
<path d="M25.7601 28.7817C24.6764 27.5599 22.7565 28.2144 22.5746 29.2035C22.4655 29.778 22.5528 30.3308 22.8001 30.6871C23.2946 31.3853 24.1528 31.1453 24.9019 30.7962C25.9565 30.3162 26.5383 29.6544 25.7601 28.7817ZM26.3055 28.2944C27.1637 29.2617 27.1274 30.578 25.2074 31.458C24.691 31.698 24.1601 31.858 23.6655 31.858C23.1055 31.858 22.5892 31.6471 22.211 31.1017C21.8474 30.5926 21.7165 29.8362 21.8546 29.0726C22.0364 28.0908 23.1274 27.3926 24.2837 27.3926C24.9964 27.3926 25.7383 27.6617 26.3055 28.2944Z" fill="black"/>
<path d="M26.807 14.0173C26.8507 15.05 26.7852 16.2718 26.6252 17.21C26.0507 20.7082 21.8325 21.2318 21.607 17.1737C21.5125 15.4646 21.7598 12.6646 22.9961 11.4573C23.9925 10.4827 26.6252 9.93002 26.807 14.0173ZM25.9125 17.0937C26.0579 16.1991 26.1234 15.0355 26.0798 14.0537C25.9416 10.8318 24.2325 11.2682 23.5052 11.9809C22.4507 13.0064 22.2543 15.6682 22.327 17.13C22.5089 20.3664 25.4834 19.6755 25.9125 17.0937Z" fill="black"/>
<path d="M17.797 16.768C17.9497 14.9789 18.0297 13.1826 18.0224 11.3862C16.2843 13.2407 14.7788 15.1607 13.5424 17.1244C15.0479 17.0226 16.5679 16.8698 17.797 16.768ZM12.5533 17.3353C14.0224 14.8989 15.8988 12.5135 18.117 10.2444C18.2188 10.1353 18.3788 10.1062 18.5097 10.1571C18.6479 10.208 18.7424 10.3389 18.7424 10.4917C18.7788 12.5571 18.7133 14.6371 18.5315 16.7026C19.1424 16.6517 19.7679 16.6153 20.4006 16.5789C20.6188 16.5571 20.7715 16.7244 20.7861 16.9207C20.7933 17.1244 20.6406 17.2917 20.4443 17.3062C19.7679 17.3426 19.1061 17.3862 18.4588 17.4371C18.357 18.448 18.2333 19.4517 18.0806 20.4553C18.0515 20.6371 17.8915 20.7607 17.717 20.7607C17.7024 20.7607 17.6806 20.7607 17.6661 20.7607C17.1424 20.6807 17.4333 20.288 17.7243 17.5026C15.9933 17.6553 14.4952 17.8007 12.8879 17.888C12.6188 17.9171 12.4006 17.5971 12.5533 17.3353Z" fill="black"/>
<path d="M12.0072 5.54467L11.1781 4.71558L10.1091 5.79195L10.9381 6.62104L12.0072 5.54467ZM6.37088 7.66831L7.31633 6.71558L6.87997 6.27922L5.92724 7.22467L6.37088 7.66831ZM4.79997 8.0974C4.72724 8.02467 4.72724 7.90831 4.79997 7.84286L5.41815 7.22467L4.56724 6.38104C4.49451 6.30831 4.49451 6.19195 4.56724 6.11922C4.63997 6.05376 4.74906 6.05376 4.82179 6.11922L5.6727 6.97013L6.62542 6.0174L6.50179 5.89376C6.42906 5.82104 6.42906 5.71195 6.50179 5.63922C6.56724 5.56649 6.6836 5.56649 6.75633 5.63922L6.87997 5.76286L9.38906 3.25376C9.46179 3.18104 9.57088 3.18104 9.6436 3.25376C9.71633 3.32649 9.71633 3.44286 9.6436 3.50831L8.61088 4.54831L7.13451 6.0174L7.57088 6.46104L7.81088 6.22104C7.8836 6.14831 7.99997 6.14831 8.0727 6.22104C8.14542 6.28649 8.14542 6.40286 8.0727 6.47558L7.8327 6.71558L8.25451 7.1374L9.59269 5.79195L8.61088 4.81013C8.53815 4.7374 8.53815 4.62104 8.61088 4.54831C8.6836 4.48286 8.79997 4.48286 8.87269 4.54831L9.85451 5.5374L10.9236 4.46104L10.7854 4.32286C10.7127 4.2574 10.7127 4.14104 10.7854 4.06831C10.8581 3.99558 10.9745 3.99558 11.0472 4.06831L11.1781 4.20649L11.5418 3.84286C11.6072 3.7774 11.7236 3.7774 11.7963 3.84286C11.8691 3.91558 11.8691 4.03195 11.7963 4.10467L11.44 4.46104L12.2691 5.29013L13.6727 3.88649C13.7381 3.81376 13.8545 3.81376 13.9272 3.88649C14 3.95922 14 4.06831 13.9272 4.14104L12.5236 5.54467L13.3309 6.35195L14.4727 5.2174C14.5454 5.14467 14.6545 5.14467 14.7272 5.2174C14.8 5.29013 14.8 5.39922 14.7272 5.47195L13.5927 6.61376L14.1018 7.12286C14.1672 7.19558 14.1672 7.30467 14.1018 7.3774C14.0291 7.45013 13.9127 7.45013 13.84 7.3774L13.3309 6.86831L12.9672 7.23922C12.8945 7.30467 12.7781 7.30467 12.7054 7.23922C12.6327 7.16649 12.6327 7.05013 12.7054 6.9774L13.0763 6.61376L12.2691 5.80649L11.1927 6.87558L12.3054 7.98831C12.3781 8.05376 12.3781 8.17013 12.3054 8.24286C12.2327 8.31558 12.1163 8.31558 12.0509 8.24286L10.9381 7.13013L10.6691 7.39922C10.5963 7.47195 10.48 7.47195 10.4145 7.39922C10.3418 7.33376 10.3418 7.2174 10.4145 7.14467L10.6836 6.87558L9.85451 6.05376L8.50906 7.39195L9.27269 8.15558L9.54906 7.87922C9.62179 7.81376 9.73815 7.81376 9.81088 7.87922C9.87633 7.95195 9.87633 8.06831 9.81088 8.14104L9.51997 8.42467C9.61451 8.59195 9.46179 8.75922 9.28724 8.6574L8.49451 9.45013C8.42906 9.52286 8.31269 9.52286 8.23997 9.45013C8.16724 9.3774 8.16724 9.26104 8.23997 9.19558L9.01815 8.4174L8.25451 7.65376L7.8036 8.0974C7.73088 8.17013 7.61451 8.17013 7.54906 8.0974C7.47633 8.02467 7.47633 7.91558 7.54906 7.84286L7.99269 7.39195L7.57815 6.9774L6.62542 7.92286L7.91269 9.21013C7.98542 9.28286 7.98542 9.39922 7.91269 9.47195C7.83997 9.5374 7.7236 9.5374 7.65815 9.47195L6.37088 8.18467L5.95633 8.59195C5.89088 8.6574 5.77451 8.6574 5.70179 8.59195C5.62906 8.51922 5.62906 8.40286 5.70179 8.33013L6.10906 7.92286L5.6727 7.48649L5.05451 8.0974C4.98906 8.17013 4.8727 8.17013 4.79997 8.0974Z" fill="black"/>
<path d="M46.3347 26.0325L45.4692 26.8907L46.3274 27.7489C46.3565 27.3053 46.3638 26.8471 46.371 26.3816L46.3783 25.9307C46.371 25.9671 46.3638 26.0034 46.3347 26.0325ZM45.462 29.3344L44.6183 30.178L45.3165 30.8762C45.6365 30.4762 45.862 30.0253 46.022 29.5307C46.1529 29.1234 46.2329 28.6798 46.2838 28.2216L45.6947 27.6325L44.9892 28.3453L45.4692 28.8253C45.542 28.7598 45.6438 28.7598 45.7092 28.8253C45.7747 28.898 45.7747 28.9998 45.7165 29.0725L45.971 29.3198C46.022 29.3707 46.0292 29.4507 46.0074 29.5234C46.0001 29.5453 45.9929 29.5598 45.971 29.5816C45.8983 29.6544 45.782 29.6544 45.7092 29.5816L45.462 29.3344ZM43.731 31.0653L44.2765 31.6107C44.3056 31.6398 44.3129 31.6762 44.3201 31.7125C44.5965 31.5598 44.8438 31.3707 45.0692 31.1453L44.3638 30.4398L43.731 31.0653ZM43.6074 29.6834L42.982 30.3162L43.4765 30.8107L44.102 30.178L43.6074 29.6834ZM41.811 30.9634L42.4656 30.3162L41.862 29.7125L41.2147 30.3671L41.811 30.9634ZM41.811 31.4798L40.9965 32.3016C40.982 32.3162 40.9674 32.3089 40.9456 32.3162L41.1856 32.5562C42.1674 32.4544 43.171 32.2725 44.022 31.8653L43.4765 31.3271L42.9965 31.7998C42.9238 31.8725 42.8147 31.8725 42.742 31.7998C42.6692 31.7271 42.6692 31.6107 42.742 31.538L43.2147 31.0653L42.7201 30.5707L42.0729 31.2253L42.822 31.9744C42.8947 32.0471 42.8947 32.1634 42.822 32.2289C42.7492 32.3016 42.6329 32.3016 42.5674 32.2289L41.811 31.4798ZM40.9529 30.6216L40.102 31.4725L40.7201 32.0907C40.7274 32.0762 40.7201 32.0544 40.7347 32.0398L41.5565 31.2253L40.9529 30.6216ZM40.7201 32.5998L39.8474 31.7344L39.0983 32.4762L39.2947 32.6725C39.302 32.6798 39.302 32.6944 39.3092 32.7016C39.7456 32.6653 40.182 32.6507 40.611 32.6144C40.6474 32.6071 40.6838 32.6071 40.7201 32.5998ZM38.342 32.7234L38.5892 32.4762L37.9274 31.8216L37.3456 32.4034L37.6874 32.7453C37.7092 32.7598 37.7092 32.7889 37.7165 32.8107C37.9201 32.7962 38.1165 32.7816 38.3201 32.7671C38.3274 32.7525 38.3274 32.738 38.342 32.7234ZM37.091 32.658L36.8801 32.8689C37.011 32.8616 37.142 32.8471 37.2729 32.8398L37.091 32.658ZM35.331 32.9416L35.3165 32.9271L35.3092 32.9416H35.331ZM36.342 31.9089L35.5783 32.6725L35.7892 32.8834C35.7965 32.898 35.7965 32.9125 35.8038 32.9271C35.9856 32.9125 36.1747 32.9125 36.3565 32.9053C36.3638 32.8907 36.3638 32.8762 36.371 32.8616L36.8365 32.4034L36.342 31.9089ZM34.5529 32.1562L33.9492 32.7598L34.022 32.8325C34.0583 32.8762 34.0729 32.9271 34.0656 32.9853C34.3201 32.9707 34.5747 32.9634 34.8292 32.9562C34.8365 32.9271 34.8438 32.8907 34.8656 32.8616L35.062 32.6725L34.5529 32.1562ZM23.3165 44.5198C23.2874 44.5489 23.251 44.5562 23.2147 44.5634L23.1201 44.658C23.6729 44.6289 24.2183 44.5998 24.7638 44.5634C24.6983 44.4907 24.6983 44.3816 24.7638 44.3162L24.9092 44.1707L24.262 43.5162L23.3601 44.4253C23.3529 44.4616 23.3456 44.498 23.3165 44.5198ZM21.811 33.5598C21.8038 33.5962 21.7965 33.6325 21.7674 33.6616H21.7601L22.2474 34.1489L22.7929 33.6035C22.4656 33.5816 22.1383 33.5744 21.811 33.5598ZM22.0438 44.5925C21.971 44.6653 21.862 44.6653 21.7892 44.5925L21.7747 44.5853L21.6365 44.7234C21.9492 44.7162 22.2692 44.6944 22.582 44.6798L22.902 44.3671L22.451 43.9089L22.0365 44.3234L22.0438 44.338C22.1165 44.4035 22.1165 44.5198 22.0438 44.5925ZM17.2729 44.7671L17.0474 44.5416L16.8074 44.7816C16.9674 44.7744 17.1201 44.7744 17.2729 44.7671ZM15.651 44.8034L15.6292 44.7816L15.6074 44.8034H15.651ZM1.78195 25.8725C16.5965 25.9598 31.6001 25.6325 46.3856 24.9125L46.5456 7.41436C46.582 3.5089 45.7238 1.9089 40.4074 1.80708L8.90195 1.20345C3.2365 1.08708 1.35286 2.56345 1.46195 8.55618L1.78195 25.8725ZM20.1529 44.6144C20.1892 44.6507 20.2038 44.7016 20.1965 44.7525C20.5383 44.7525 20.8729 44.7453 21.2074 44.7307C21.2074 44.6798 21.2147 44.6289 21.2583 44.5925L21.5201 44.3234L20.9092 43.7125L20.0801 44.5416L20.1529 44.6144ZM19.7601 33.5089L20.582 34.3307L21.251 33.6616L21.1929 33.6107C21.171 33.5889 21.171 33.5598 21.1638 33.538C20.6983 33.5234 20.2256 33.5162 19.7601 33.5089ZM18.1892 33.6471L18.5965 34.0544L19.1492 33.5016C18.8292 33.5016 18.5165 33.4944 18.1965 33.4944C18.1965 33.5453 18.1892 33.5962 18.1892 33.6471ZM18.4438 44.4834L18.6547 44.6944C18.6765 44.7089 18.6765 44.738 18.6838 44.7671H19.3456L19.571 44.5416L19.0474 44.018C19.0183 43.9962 19.011 43.9598 19.0038 43.9235L18.4438 44.4834ZM17.9856 36.0544L18.2692 35.7707L18.0292 35.5307C18.0147 35.7053 18.0001 35.8798 17.9856 36.0544ZM18.3347 34.3089L18.1456 34.1198C18.1165 34.4398 18.0947 34.7671 18.0656 35.0871C18.0874 35.0944 18.1092 35.0944 18.1238 35.1089L18.5238 35.5089L19.0329 35.0071L18.5965 34.5707L18.5383 34.6289C18.4656 34.6944 18.3492 34.6944 18.2765 34.6289C18.211 34.5562 18.211 34.4398 18.2765 34.3671L18.3347 34.3089ZM18.1674 44.7671H18.211L18.1892 44.738L18.1674 44.7671ZM17.8983 37.7998L17.8401 37.7489C17.8401 37.7925 17.8329 37.8289 17.8329 37.8653L17.8983 37.7998ZM18.5238 36.0253L17.9347 36.6144C17.9201 36.8325 17.8983 37.058 17.8838 37.2762L18.1529 37.5453L19.0474 36.6507C19.0692 36.6289 19.0983 36.6289 19.1274 36.6144C19.1201 36.6144 19.1129 36.6144 19.1056 36.6071L18.5238 36.0253ZM17.8474 39.698L17.6947 39.5453C17.6874 39.6544 17.6874 39.7562 17.6801 39.8653L17.8474 39.698ZM17.6001 43.9889L17.302 44.2871L17.5929 44.578C17.6438 44.6289 17.6438 44.6944 17.622 44.7598H17.7892C17.7747 44.7016 17.7747 44.6362 17.8256 44.5925L17.9347 44.4834L17.6292 44.178C17.5783 44.1271 17.5783 44.0544 17.6001 43.9889ZM32.531 32.7816L32.6765 32.9198C32.7056 32.9489 32.7129 32.9925 32.7201 33.0289C33.0329 33.0216 33.3529 33.0071 33.6656 32.9998L32.9892 32.3234L32.531 32.7816ZM32.2692 33.0434H32.2838L32.2765 33.0362L32.2692 33.0434ZM31.3092 33.0507C31.5056 33.0507 31.7092 33.058 31.9056 33.0507C31.8838 32.9853 31.8838 32.9198 31.9347 32.8689L32.022 32.7816L31.651 32.4107L31.171 32.8907L31.2874 32.9998C31.302 33.0144 31.302 33.0362 31.3092 33.0507ZM30.5747 43.9889C31.3092 43.8944 32.0801 43.8144 32.6983 43.4144V43.4071C33.0983 43.1598 33.4401 42.7089 33.4692 42.2362L32.4729 43.2325C32.4074 43.3053 32.291 43.3053 32.2183 43.2325C32.1456 43.1598 32.1456 43.0434 32.2183 42.978L32.5238 42.6725L32.211 42.3598L31.5565 43.0071L31.8329 43.2762C31.9056 43.3489 31.9056 43.4653 31.8329 43.538C31.7601 43.6035 31.6438 43.6035 31.571 43.538L31.302 43.2616L30.5747 43.9889ZM29.7238 43.2616L30.2547 43.7925L31.0474 43.0071L30.5092 42.4762L29.7238 43.2616ZM29.1492 33.0507H29.251L29.2001 32.9998L29.1492 33.0507ZM28.9529 44.0325L29.091 44.1707C29.4038 44.1344 29.7092 44.098 30.0074 44.0616L29.4692 43.5234L28.9529 44.0325ZM28.8001 42.8471L28.2838 43.3562L28.6983 43.7707L29.2074 43.2616L28.8001 42.8471ZM28.3565 33.778C28.291 33.778 28.2256 33.7707 28.1601 33.7707L28.2547 33.8725L28.3565 33.778ZM28.0292 43.618L27.3674 44.2798C27.3529 44.3016 27.3529 44.3307 27.331 44.3525C27.7165 44.3162 28.0947 44.2798 28.4656 44.2362C28.4147 44.178 28.422 44.1053 28.451 44.0398L28.0292 43.618ZM26.9238 44.2071L26.1529 43.4362L25.0547 44.5416C26.0656 44.4689 25.5638 44.5198 26.7565 44.4107C26.7638 44.3889 26.7638 44.3671 26.7783 44.3525L26.9238 44.2071ZM33.091 44.018C31.1565 45.2835 15.862 45.8944 14.502 45.3053C13.4547 44.8325 12.6401 43.5598 13.1347 42.3234C13.7456 40.8689 15.4038 40.6144 16.982 40.5853C16.902 39.8216 17.3456 34.9053 17.4692 33.4944C13.7092 33.4871 10.1092 33.5598 6.42923 33.3271C1.60014 33.0289 1.14923 31.0653 1.06195 26.2871C1.06195 26.2725 1.05468 26.258 1.05468 26.2362C1.05468 26.2216 1.06195 26.2144 1.06195 26.1998L0.734681 8.56345C0.618318 2.0689 2.90195 0.35981 8.9165 0.476174L40.422 1.07981C46.0874 1.1889 47.3092 3.0289 47.2729 7.42163L47.0983 26.3889C47.0838 28.258 46.9601 30.1998 45.7165 31.538C44.451 32.9053 42.451 33.1816 40.6765 33.3344C37.2947 33.6253 33.8838 33.778 30.4656 33.7925C30.6401 35.1671 30.5165 38.6798 30.1529 40.1853C31.1129 40.1489 31.8983 40.0835 32.6474 40.3162C33.3965 40.5489 33.9638 41.0798 34.1456 41.7271C34.4001 42.6871 33.7747 43.5889 33.091 44.018ZM25.6874 42.4616L26.1529 42.9271L26.6183 42.4544C26.691 42.3889 26.8074 42.3889 26.8801 42.4544C26.9456 42.5271 26.9456 42.6434 26.8801 42.7162L26.4074 43.1816L27.1783 43.9525L27.7674 43.3562L27.171 42.7598C27.0983 42.6871 27.0983 42.5707 27.171 42.498C27.2438 42.4325 27.3529 42.4325 27.4256 42.498L28.0292 43.1016L28.5383 42.5925L28.4729 42.5198C28.4001 42.4544 28.4001 42.338 28.4729 42.2653C28.5456 42.1925 28.6547 42.1925 28.7274 42.2653L28.8583 42.3962C28.8947 42.3962 28.9238 42.4107 28.9529 42.4325C28.982 42.4616 28.9892 42.498 28.9965 42.5271L29.4692 43.0071L30.2547 42.2144L30.1674 42.1271C30.0947 42.0544 30.0947 41.9453 30.1674 41.8725C30.2401 41.7998 30.3492 41.7998 30.422 41.8725L30.5092 41.9598L30.5601 41.9089C30.6329 41.8362 30.7492 41.8362 30.822 41.9089C30.8947 41.9816 30.8947 42.098 30.822 42.1634L30.771 42.2144L31.302 42.7453L31.9492 42.098L31.3092 41.458C31.2365 41.3853 31.2365 41.2689 31.3092 41.2034C31.382 41.1307 31.4983 41.1307 31.571 41.2034L32.2256 41.858C32.291 41.8362 32.3638 41.8362 32.4147 41.8871C32.4656 41.938 32.4729 42.0107 32.4438 42.0762L32.7783 42.4107L33.3092 41.8871C33.331 41.858 33.3747 41.8507 33.411 41.8434C33.2656 41.4798 32.9092 41.1598 32.4292 41.0144C32.0947 40.9053 31.7238 40.8762 31.3456 40.8762C31.142 40.8762 29.862 40.9271 29.6438 40.9344C15.6947 41.3053 14.4438 41.0653 13.7965 42.5998C13.4692 43.4289 14.0583 44.3089 14.7929 44.6434C14.8947 44.6871 15.0183 44.7162 15.142 44.7453L15.3601 44.5198L15.2583 44.4107C15.1856 44.3453 15.1856 44.2289 15.2583 44.1562C15.3238 44.0835 15.4401 44.0835 15.5129 44.1562L15.622 44.2653L16.291 43.5962C16.3638 43.5234 16.4729 43.5234 16.5456 43.5962C16.6183 43.6689 16.6183 43.778 16.5456 43.8507L15.8765 44.5198L16.0656 44.7089C16.0947 44.7307 16.102 44.7744 16.1092 44.8107C16.1601 44.8035 16.211 44.8107 16.262 44.8034L16.7856 44.2871L16.7565 44.258C16.6838 44.1853 16.6838 44.0689 16.7565 43.9962C16.822 43.9307 16.9383 43.9234 17.011 43.9962L17.0401 44.0253L17.8329 43.2325C17.9056 43.1598 18.022 43.1598 18.0947 43.2325C18.1674 43.3053 18.1674 43.4216 18.0947 43.4871L17.6947 43.8871C17.7601 43.8653 17.8256 43.8653 17.8838 43.9162L18.182 44.2216L19.5056 42.9053C19.5783 42.8325 19.6874 42.8325 19.7601 42.9053C19.8329 42.978 19.8329 43.0944 19.7601 43.1598L19.2001 43.7198C19.2365 43.7271 19.2729 43.7344 19.302 43.7634L19.8183 44.2871L21.251 42.8544C21.3238 42.7889 21.4329 42.7889 21.5056 42.8544C21.5783 42.9271 21.5783 43.0434 21.5056 43.1162L21.1638 43.458L21.7747 44.0689L22.1892 43.6544L22.0001 43.4653C21.9274 43.3998 21.9274 43.2835 22.0001 43.2107C22.0729 43.138 22.1892 43.138 22.2547 43.2107L22.4438 43.3998L22.8729 42.9707C22.9456 42.898 23.062 42.898 23.1347 42.9707C23.2001 43.0362 23.2001 43.1525 23.1347 43.2253L22.7056 43.6544L23.1565 44.1053L24.0001 43.2616L23.8547 43.1162C23.782 43.0434 23.782 42.9271 23.8547 42.8544C23.9274 42.7816 24.0438 42.7816 24.1092 42.8544L24.262 42.9998L24.5092 42.7525C24.582 42.6798 24.6983 42.6798 24.7638 42.7525C24.8365 42.8253 24.8365 42.9416 24.7638 43.0071L24.5165 43.2616L25.1638 43.9089L25.8983 43.1816L25.4329 42.7162C25.3601 42.6507 25.3601 42.5344 25.4329 42.4616C25.5056 42.3889 25.622 42.3889 25.6874 42.4616ZM25.9565 34.5053L26.502 33.9671L26.3274 33.7925C26.3129 33.778 26.3129 33.7562 26.3056 33.7416C26.0074 33.7271 25.7092 33.7125 25.411 33.7053L25.8038 34.0907C25.8692 34.1634 25.8692 34.2798 25.8038 34.3525C25.731 34.418 25.6147 34.418 25.542 34.3525L25.302 34.1125L24.5965 34.8107C24.5238 34.8834 24.4074 34.8834 24.342 34.8107C24.2692 34.738 24.2692 34.6216 24.342 34.5562L25.0401 33.8507L24.8729 33.6834C24.371 33.6616 23.862 33.6471 23.3529 33.6253C23.3529 33.618 23.3456 33.618 23.3383 33.618L23.9565 34.2362C24.022 34.3016 24.022 34.418 23.9565 34.4907C23.8838 34.5634 23.7674 34.5634 23.6947 34.4907L23.0547 33.8507L22.1456 34.7671C22.0729 34.8325 21.9565 34.8325 21.891 34.7671C21.8183 34.6944 21.8183 34.578 21.891 34.5053L21.9929 34.4035L21.5056 33.9235L20.8365 34.5925L20.9965 34.7525C21.0692 34.818 21.0692 34.9344 20.9965 35.0071C20.931 35.0798 20.8147 35.0798 20.742 35.0071L20.582 34.8471L20.4801 34.9489C20.4074 35.0216 20.291 35.0216 20.2256 34.9489C20.1529 34.8762 20.1529 34.7598 20.2256 34.6944L20.3274 34.5853L19.4474 33.7125L18.851 34.3089L19.2947 34.7525C19.3674 34.6944 19.4692 34.6871 19.5347 34.7598C19.6074 34.8253 19.6001 34.9271 19.542 34.9998L19.7892 35.2471C19.862 35.3198 19.862 35.4362 19.7892 35.5016C19.7165 35.5744 19.6001 35.5744 19.5274 35.5016L19.2874 35.2616L18.7856 35.7707L19.3674 36.3525C19.4329 36.4253 19.4329 36.5344 19.3674 36.6071C19.3456 36.6289 19.3165 36.6289 19.2874 36.6362C19.2947 36.6434 19.302 36.6434 19.3092 36.6507C19.382 36.7162 19.382 36.8325 19.3092 36.9053L18.4074 37.8071L18.6401 38.0398C18.7129 38.1053 18.7129 38.2216 18.6401 38.2944C18.5674 38.3671 18.4583 38.3598 18.3856 38.2944L18.1529 38.0616L17.891 38.3234C17.862 38.3525 17.8256 38.3598 17.7892 38.3671C17.7747 38.5998 17.7529 38.8325 17.731 39.0653L18.1092 39.4435L18.822 38.7234C18.8947 38.6507 19.011 38.6507 19.0838 38.7234C19.1565 38.7962 19.1565 38.9125 19.0838 38.9853L18.3347 39.7344C18.342 39.7853 18.3347 39.8434 18.291 39.8871C18.2547 39.9162 18.211 39.938 18.1601 39.938C18.1529 39.938 18.1456 39.9307 18.1383 39.9235L17.6874 40.3744C17.6947 40.4398 17.702 40.5053 17.7092 40.5634C23.6947 40.3816 26.1092 40.3016 29.3965 40.2144C29.702 39.2689 29.9565 35.618 29.7601 33.9962L29.6874 34.0689C29.6874 34.1198 29.6801 34.1707 29.6365 34.2144C29.6001 34.2507 29.5565 34.2653 29.5129 34.2653C29.5056 34.2653 29.4983 34.258 29.4983 34.258L29.3165 34.4398C29.2438 34.5125 29.1274 34.5125 29.0547 34.4398C28.982 34.3671 28.982 34.258 29.0547 34.1853L29.2074 34.0325L28.9529 33.7853C28.9238 33.7853 28.8874 33.7853 28.8583 33.7853L28.5165 34.1271L28.5892 34.1998C28.662 34.2653 28.662 34.3816 28.5892 34.4544C28.5165 34.5271 28.4001 34.5271 28.3274 34.4544L28.262 34.3816L28.0656 34.578C27.9929 34.6507 27.8765 34.6507 27.811 34.578C27.7383 34.5125 27.7383 34.3962 27.811 34.3234L28.0001 34.1271L27.6438 33.7634C27.4983 33.7634 27.3601 33.7634 27.2147 33.7634L27.011 33.9671L27.4474 34.3962C27.5201 34.4689 27.5201 34.5853 27.4474 34.658C27.3747 34.7307 27.2583 34.7234 27.1929 34.658L26.7565 34.2216L26.2183 34.7671C26.1456 34.8325 26.0292 34.8325 25.9565 34.7671C25.8838 34.6944 25.8838 34.578 25.9565 34.5053ZM46.3783 25.6398C38.9456 26.0034 31.5638 26.258 24.262 26.4107C16.6838 26.5853 9.18559 26.6434 1.7965 26.6071C1.8765 30.9271 2.32014 32.3453 6.47286 32.6071C12.131 32.9562 17.7601 32.5925 23.3892 32.898C23.4692 32.9053 23.542 32.9053 23.622 32.9053C25.3383 32.9998 27.062 33.0362 28.7856 33.0507C28.7638 32.9853 28.7638 32.9198 28.8147 32.8689L28.9383 32.7453L28.6401 32.4471C28.5674 32.3744 28.5674 32.258 28.6401 32.1853C28.7056 32.1125 28.822 32.1125 28.8947 32.1853L29.1929 32.4907L30.131 31.5525C30.2038 31.4798 30.3129 31.4798 30.3856 31.5525C30.4583 31.6253 30.4583 31.7416 30.3856 31.8144L29.4547 32.7453L29.5056 32.7962C29.5783 32.8689 29.5783 32.978 29.5129 33.0507H30.5601C30.5601 33.0071 30.5747 32.9707 30.6038 32.9344L30.6547 32.8907L30.1747 32.4107C30.1092 32.338 30.1092 32.2216 30.1747 32.1489C30.2474 32.0762 30.3638 32.0762 30.4365 32.1489L30.9165 32.6289L31.4256 32.1198C31.4183 32.0689 31.4256 32.0107 31.4692 31.9744C31.5056 31.9307 31.5638 31.9234 31.6147 31.9307L31.7747 31.7707C31.8401 31.698 31.9565 31.698 32.0292 31.7707C32.102 31.8435 32.102 31.9598 32.0292 32.0325L31.9056 32.1562L32.2765 32.5198L32.7783 32.0253C32.7783 31.9816 32.7929 31.9307 32.8292 31.9016C32.8583 31.8653 32.902 31.8507 32.9456 31.8507L33.2583 31.538C33.331 31.4653 33.4474 31.4653 33.5129 31.538C33.5856 31.6107 33.5856 31.7271 33.5129 31.7998L33.2438 32.0616L33.6874 32.5053L34.3056 31.8871C34.2765 31.8216 34.2692 31.7416 34.3274 31.6834C34.3856 31.6253 34.4656 31.6325 34.531 31.6616L34.8729 31.3271C34.9383 31.2544 35.0547 31.2544 35.1274 31.3271C35.2001 31.3925 35.2001 31.5089 35.1274 31.5816L34.8074 31.9016L35.3165 32.418L36.0801 31.6544L35.8692 31.4434C35.7965 31.3707 35.7965 31.2544 35.8692 31.1816C35.942 31.1162 36.051 31.1162 36.1238 31.1816L36.3347 31.3925L36.5892 31.1453C36.662 31.0725 36.771 31.0725 36.8438 31.1453C36.9165 31.218 36.9165 31.3344 36.8438 31.3998L36.5965 31.6544L37.091 32.1489L37.6729 31.5671L37.4474 31.3344C37.3747 31.2616 37.3747 31.1453 37.4474 31.0798C37.5129 31.0071 37.6292 31.0071 37.702 31.0798L37.9274 31.3053L38.6765 30.5562C38.7492 30.4834 38.8656 30.4834 38.9383 30.5562C39.011 30.6289 39.011 30.7453 38.9383 30.818L38.1892 31.5671L38.8438 32.2216L39.5856 31.4725L39.1274 31.0144C39.0547 30.9416 39.0547 30.8253 39.1274 30.7525C39.2001 30.6798 39.3092 30.6798 39.382 30.7525L39.8474 31.218L40.6983 30.3671C40.6329 30.2944 40.6329 30.178 40.6983 30.1125C40.771 30.0398 40.8801 30.0398 40.9529 30.1125L41.8474 29.218C41.9201 29.1453 42.0365 29.1453 42.1092 29.218C42.1747 29.2834 42.1674 29.378 42.1165 29.4507L42.7201 30.0616L43.3529 29.4289L43.0329 29.1089C42.9601 29.0362 42.9601 28.9271 43.0329 28.8544C43.1056 28.7816 43.2147 28.7816 43.2874 28.8544L43.6074 29.1744L43.8038 28.978C43.8765 28.9053 43.9856 28.9053 44.0583 28.978C44.131 29.0507 44.131 29.1671 44.0583 29.2325L43.862 29.4289L44.3565 29.9234L45.2074 29.0798L44.7274 28.5998L44.611 28.7234C44.5383 28.7962 44.422 28.7962 44.3492 28.7234C44.2765 28.6507 44.2765 28.5344 44.3492 28.4689L44.4729 28.3453L44.211 28.0762C44.1383 28.0107 44.1383 27.8944 44.211 27.8216C44.2765 27.7489 44.3929 27.7489 44.4656 27.8216L44.7274 28.0835L45.4401 27.378L45.1856 27.1234C45.0474 27.138 44.9747 27.0434 44.9892 26.9271L44.9238 26.8616C44.851 26.7889 44.851 26.6725 44.9238 26.6071C44.9965 26.5344 45.1129 26.5344 45.1783 26.6071L45.2147 26.6362L46.0801 25.7707C46.1456 25.698 46.262 25.698 46.3347 25.7707C46.3638 25.7998 46.371 25.8289 46.3783 25.8653V25.6398Z" fill="black"/>
</svg>
