<svg xmlns="http://www.w3.org/2000/svg" width="32" height="32" fill="none" viewBox="0 0 32 32"><path fill="#1a1a1a" d="M2.458 29.63c.36.926 25.697.64 26.923.054.83.033-.277-9.476-.057-14.973.058-1.473-.408-2.172-2.295-2.087l-4.479.202v-1.38c1.274.502 2.104-.627 1.68-1.74-.434-1.136-3.814-3.809-6.155-6.327-1.834-1.97-3.263-2.453-5.985.425a97 97 0 0 0-4.517 5.128c-.521.636-.948 1.418-.408 2.062.355.424 1.025.596 2.106-.074q.089-.057.176-.115v2.02l-4.478-.201c-1.894-.09-2.353.625-2.294 2.087.184 4.599-.717 14.53-.217 14.92m10.25-21.413.075.075-.686.685-.096-.096q.361-.323.707-.664m-.892.822.11.11-.636.636v-.25c0-.015-.011-.025-.016-.038q.275-.225.542-.457m-.682 1.416-.094.094-.494-.493q.254-.187.501-.382v.674c0 .053.039.09.087.107m-.778-.264c.006.01.004.021.012.03l.5.5-.585.585-.352-.351v-.464c.144-.097.284-.2.425-.3m-.245 1.286-.18.18v-.36zm-.18.42c.043.016.073.03.123-.02l1.689-1.69a.121.121 0 1 0-.172-.171l-.282.283v-.293c.045.022.084.037.136-.015l.672-.671.215.215a.121.121 0 1 0 .171-.172l-.215-.215.686-.685.343.343a.121.121 0 1 0 .172-.172l-.364-.363c.005-.037-.001-.074-.03-.101a.12.12 0 0 0-.1-.03l-.097-.097q.411-.416.8-.858l.333.335-.614.614a.121.121 0 1 0 .172.172l.614-.615.053.053a.121.121 0 1 0 .171-.172l-.053-.053.529-.528a.121.121 0 1 0-.172-.172l-.528.528-.344-.343q.283-.33.55-.673l.04-.05.449.447a.12.12 0 0 0 .119.126l.005-.002.172.172a.12.12 0 0 0 .172 0 .12.12 0 0 0 0-.17l-.15-.15.486-.485.157.157a.121.121 0 1 0 .172-.172l-.157-.155.243-.243a.121.121 0 1 0-.171-.172l-.243.243-.431-.43c.711-.457 1.26 0 1.85.617l4.314 4.512c.192.202.404.419.65.601V29.66q-1.473.058-2.947.092l-.244-5.167c-.044-.922-.054-3.424-2.407-3.983a2.9 2.9 0 0 0-2.304.434c-1.239.866-1.543 2.489-1.67 3.806a27.5 27.5 0 0 0-.025 4.922q-1.269-.025-2.538-.069zm5.124-6.305.456.457-.486.486-.443-.443c.144-.178.301-.355.473-.5m.171 17.04-.595-.595.447-.447a.121.121 0 1 0-.172-.171l-.446.446-.24-.24c.072-.065.14-.134.222-.19.217-.153.464-.253.72-.324l.79.79-.724.724q0 .003-.002.007m.214-1.586c.53-.082.879-.004 1.246.145-.012.006-.028.005-.038.016l-.523.523zm-2.565 7.36.559.559-.5.5a27 27 0 0 1-.06-1.06m-.003-1.713.292.292-.307.307c.001-.2.009-.4.015-.6m.149-2.19.12.12-.15.152q.012-.134.03-.273m.042-.3c.062-.408.149-.823.287-1.216l.713.713-.75.75zm-.093 5.568.635-.635.397.397a.121.121 0 0 0 .171-.172l-.397-.397.954-.954a.121.121 0 1 0-.171-.172l-.955.955-.738-.738c-.003-.17-.01-.341-.01-.512.041.011.069.023.115-.023l.364-.364.749.75a.121.121 0 1 0 .172-.172l-.75-.75.894-.894a.12.12 0 0 0 0-.171.12.12 0 0 0-.17 0l-.895.894-.455-.455q.025-.606.078-1.21l.355-.354 1.074 1.074a.121.121 0 1 0 .172-.171l-1.075-1.075.75-.751.355.354a.121.121 0 1 0 .172-.17l-.355-.355.162-.162a.121.121 0 1 0-.172-.172l-.161.162-.784-.784a3.2 3.2 0 0 1 .591-.955l.247.246-.635.634a.121.121 0 1 0 .172.171l.634-.634 1.163 1.164a.121.121 0 1 0 .172-.172l-.4-.4q.002-.002.006-.003l.724-.724.268.268a.121.121 0 1 0 .171-.172l-.268-.267.523-.523c.037-.037.036-.088.016-.133 1.427.69 1.499 2.152 1.556 3.362l.243 5.151q-2.832.056-5.664.014m14.08-16.663c1.614-.071 1.835.42 1.789 1.584-.194 4.84.486 9.673.315 14.54q-3.294.272-6.605.412V13.31zm-18.035-2.6c-.468.29-1.12.604-1.479.175-.357-.426.064-1.019.412-1.443a96 96 0 0 1 4.494-5.102c2.553-2.7 3.673-2.153 5.278-.428 2.106 2.265 5.696 5.221 6.056 6.168.34.892-.444 2.003-2.01.363l-4.313-4.513c-1.355-1.417-2.262-1.207-3.445.305a19 19 0 0 1-4.993 4.475M3.16 14.692c-.046-1.148.158-1.657 1.788-1.584l4.5.203v16.371q-3.31-.12-6.602-.37c-.18-4.88.509-9.75.314-14.62"/><path fill="#1a1a1a" d="M18.548 14.108c.102-1.283-.782-2.568-2.013-2.926-2.065-.598-4.33 1.624-3.5 3.718 1.11 2.797 5.275 2.173 5.513-.792m-5.134.384.611.61-.193.194a2.2 2.2 0 0 1-.346-.575 2 2 0 0 1-.072-.23m.027-1.1 1.113 1.113c.013.014.032.015.049.02l-.405.406-.825-.824c-.006-.006-.014-.004-.021-.009a2 2 0 0 1 .089-.706m4.624.677c-.145 1.803-2.462 3.029-4.07 1.407l.255-.255c.016-.005.034-.006.046-.02.013-.012.014-.03.02-.046l.854-.853a.121.121 0 1 0-.172-.172l-.253.253c-.006-.017-.007-.035-.02-.049l-.728-.728.499-.499.464.464a.121.121 0 1 0 .171-.171l-.464-.464.358-.359a.121.121 0 1 0-.172-.171l-.358.359-.42-.42c.189-.19.4-.349.623-.472l.752.752a.121.121 0 1 0 .172-.171l-.127-.126c.01-.006.023-.005.031-.013l.382-.381.531.531a.12.12 0 0 0 .172 0 .12.12 0 0 0 0-.17l-.532-.533.084-.083a.12.12 0 0 0 .03-.075c.07.012.138.024.206.044 1.02.296 1.751 1.359 1.666 2.42m-2.175-2.497q.017 0 .035.003l-.016.016zm-.319.025.166.165-.38.381c-.01.01-.008.021-.014.031l-.413-.413q.312-.133.637-.175c.003.003.002.008.005.01m-1.657.928.411.41-.499.5-.286-.286q-.004-.003-.01-.004.14-.325.384-.62M24.302 18.488c.21 0 3.083-.135 3.083-.135a.243.243 0 0 0 .242-.259c-.088-1.297-.072-2.39.048-3.34a.243.243 0 0 0-.237-.273l-3.084-.05h-.004a.24.24 0 0 0-.242.222c-.106 1.206-.094 2.53-.085 3.595.002.145.133.239.279.24m.343-.492q-.07.002-.14.005l-.001-.373.242.242c.005.005.012.004.018.008zm2.482-.126c-.718.013-1.243.071-2.126.113l.914-.914a.121.121 0 1 0-.172-.171l-.818.818c-.004-.005-.003-.013-.008-.018l-.415-.415q0-.37.005-.755a.12.12 0 0 0 .084-.035l.056-.055.626.625a.121.121 0 1 0 .172-.171l-.626-.626.465-.465.248.249a.121.121 0 1 0 .172-.172l-.249-.249.037-.037a.121.121 0 1 0-.172-.171l-.037.037-.161-.162.265-.266c.002.003 0 .006.003.008l.46.46-.077.075a.121.121 0 1 0 .172.172l.621-.621.178.177a.121.121 0 1 0 .172-.171l-.177-.176.424.007c-.088.851-.1 1.809-.036 2.91m-.736-2.921.004.004-.374.374-.39-.39zm-1.643-.026.398.006-.196.196zm.364.707-.465.465-.126-.125q.014-.449.043-.888zM24.302 23.482c.312 0 3.083-.134 3.083-.134a.243.243 0 0 0 .242-.26c-.087-1.297-.072-2.39.048-3.34a.243.243 0 0 0-.236-.273l-3.085-.05h-.004a.24.24 0 0 0-.242.222c-.106 1.207-.094 2.53-.085 3.595.002.145.134.24.28.24m.64-2.947-.417.418-.003.006q.013-.406.038-.807zm-.436 2.436.023.023-.023.001zm.463.007.548-.548a.121.121 0 1 0-.171-.171l-.605.604-.237-.236a55 55 0 0 1 .005-1.2l.567.566a.121.121 0 1 0 .171-.172l-.679-.679c.014.006.027.018.042.018a.12.12 0 0 0 .086-.036l.418-.418.322.322a.121.121 0 1 0 .171-.171l-.322-.322.169-.169a.121.121 0 1 0-.172-.171l-.168.168-.447-.447 1.358.022.252.252-.073.073a.121.121 0 1 0 .172.171l.073-.073.045.046a.121.121 0 1 0 .171-.172l-.045-.045.216-.216c.005-.006.004-.013.008-.02l.296.297c-.064.778-.07 1.636-.013 2.614-.714.011-1.273.073-2.158.113m1.404-3.035.148.002-.073.073zM27.438 24.375l-3.084-.05h-.004a.24.24 0 0 0-.242.221c-.106 1.207-.094 2.531-.085 3.595.002.145.133.24.28.24.037 0 3.057-.153 3.082-.134a.243.243 0 0 0 .242-.26c-.087-1.297-.072-2.39.048-3.34a.242.242 0 0 0-.237-.272m-1.168.466-.112.112-.115-.115zm-1.084-.017-.138.138-.142-.143zm-.682 2.709c-.003-.436-.001-.895.01-1.364l.68.68c.007.008.018.006.027.011l-.695.695zm2.623.23c-.774.015-1.344.082-2.274.119l-.156-.156 1.064-1.063a.121.121 0 0 0-.172-.171l-.213.213c-.005-.009-.004-.02-.011-.027l-.843-.843q.014-.509.05-1.007l.304.305-.26.26a.121.121 0 0 0 .172.172l.26-.26.344.344a.121.121 0 1 0 .172-.171l-.345-.345.147-.147a.12.12 0 0 0 .005-.16l.326.006q0 .002.002.005l.287.287-.194.194a.121.121 0 1 0 .172.172l.194-.194.103.104a.121.121 0 0 0 .172-.171l-.104-.104.23-.23.348.348a.121.121 0 1 0 .172-.172l-.22-.22.304.005c-.088.85-.1 1.807-.036 2.908M4.583 18.488c1.04 0 2.035-.136 3.083-.135.088.03.253-.092.242-.258-.088-1.3-.072-2.392.048-3.341a.243.243 0 0 0-.236-.273l-3.085-.05c-.146-.012-.235.095-.246.222-.105 1.202-.094 2.528-.084 3.594 0 .146.134.24.278.241m.21-2.198.715.714c.042.041.105.052.163.004l-.56.559-.328-.329q0-.465.01-.948m.148 1.448-.155.154-.001-.31zm.22.22c.017.018.041.022.065.027l-.197.007.083-.083zm.109.025c.022-.005.044-.009.061-.025a.12.12 0 0 0 0-.172l-.048-.048.975-.975a.121.121 0 1 0-.172-.171l-.403.403a.12.12 0 0 0-.004-.163l-.877-.876c.01-.33.025-.66.048-.982l.415.416-.424.425a.121.121 0 0 0 .17.171l.425-.425.122.123a.121.121 0 1 0 .171-.172l-.122-.122.082-.082a.121.121 0 0 0-.171-.171l-.082.081-.294-.294 1.046.017.343.343-.249.248a.121.121 0 1 0 .172.172l.53-.53.24.24a.12.12 0 0 0 .171 0c.01-.01.01-.025.015-.037a19 19 0 0 0-.003 2.493c-.723.013-1.249.072-2.137.113M6.76 14.95l.053.053-.11.11-.166-.166zm.657.346c-.006-.019-.008-.039-.022-.053l-.287-.287.335.006c-.011.107-.018.222-.026.334M4.583 23.482c1.04 0 2.002-.133 3.083-.134.121.009.252-.108.242-.259-.088-1.3-.072-2.392.048-3.34a.243.243 0 0 0-.236-.274l-3.085-.05c-.146.009-.235.095-.246.222-.105 1.201-.094 2.528-.084 3.594 0 .146.134.242.278.241m2.825-.618c-.735.013-1.298.077-2.213.116l.72-.72a.121.121 0 1 0-.17-.172l-.903.901q0 .002-.002.004l-.053.002a78 78 0 0 1-.001-1.12l.457.456a.121.121 0 1 0 .171-.172l-.626-.625c.008-.532.026-1.075.064-1.598l.546.546-.434.433a.121.121 0 1 0 .172.171l.434-.433.274.276a.121.121 0 1 0 .172-.172l-.837-.837.684.01q0 .047.034.083l.521.52a.12.12 0 0 0 .172 0c.014-.013.015-.032.02-.05a.12.12 0 0 0 .075-.03l.196-.196.142.142a.121.121 0 1 0 .172-.171l-.143-.143.134-.134.259.004c-.09.85-.101 1.808-.037 2.91m-.844-2.922.144.144-.196.196-.001.003-.35-.35zM4.583 28.38c.034 0 3.061-.153 3.083-.134.14 0 .251-.118.242-.258-.088-1.3-.072-2.392.048-3.341a.243.243 0 0 0-.236-.273l-3.085-.05H4.63a.24.24 0 0 0-.242.221c-.105 1.202-.094 2.529-.084 3.595 0 .146.134.24.278.24m1.984-3.54-.291.291-.3-.3zm-.881.044.418.42-.2.2h-.32c-.003-.004-.002-.01-.006-.014l-.675-.676.759.012c.005.02.008.042.024.058m-.436.62h-.435q.01-.207.023-.412zm-.465 1.654h-.001q0-.415.007-.847l.59.59-.427.426zm.002.736v-.057l.167-.167.06.06a.121.121 0 1 0 .172-.171l-.06-.061.812-.814a.121.121 0 0 0-.17-.171l-.216.216-.732-.732c-.006-.006-.014-.005-.02-.01l.006-.241h1.148a.12.12 0 0 0 .086-.036l.236-.236.1.1a.121.121 0 0 0 .171-.172l-.1-.099.348-.348c.056.057.523.546.597.557-.038.68-.032 1.424.016 2.25-.898.017-1.746.118-2.621.132m2.627-2.661-.384-.385.414.007c-.013.122-.02.25-.03.378M12.552 5.833a.12.12 0 0 0 .027-.158.12.12 0 0 0-.036-.088l-.073-.072.242-.242a.121.121 0 1 0-.17-.172l-.243.242-.117-.117a.121.121 0 1 0-.172.171l.118.118-.115.115-.141-.142a.121.121 0 0 0-.172.172l.141.14-.544.546-.141-.141a.121.121 0 1 0-.172.171l.141.141-.497.497-.236-.236a.12.12 0 0 0-.171 0 .12.12 0 0 0 0 .171l.236.237-.45.45a.121.121 0 1 0 .171.172l.451-.45.225.224a.121.121 0 1 0 .172-.172l-.225-.225.496-.496.184.184a.121.121 0 1 0 .172-.172l-.184-.184.545-.544.08.08a.121.121 0 1 0 .171-.172l-.08-.08.115-.115.005.005a.2.2 0 0 0 .005.07c.033.107.165.134.242.072M20.049 17.026h.671v1.067h-.499a.121.121 0 0 0 0 .242h.499v.86h-.499a.121.121 0 0 0 0 .242h.499v.998h-.568a.121.121 0 0 0 0 .243h.568v1.946a.121.121 0 0 0 .242 0v-1.946h.017a.121.121 0 0 0 0-.243h-.017v-.998h.293a.121.121 0 1 0 0-.242h-.293v-.86h.37a.121.121 0 0 0 0-.242h-.37v-1.067h.503a.121.121 0 0 0 0-.242h-.503V15.63a.121.121 0 0 0-.242 0v1.153h-.671a.121.121 0 0 0 0 .243M11.725 19.126h-.443v-.878a.121.121 0 0 0-.242 0v.878h-.085a.121.121 0 0 0 0 .243h.085v1.1h-.327a.121.121 0 0 0 0 .243h.327v.965l-.07-.069a.121.121 0 1 0-.171.172l.24.24v.724h-.222a.121.121 0 0 0 0 .242h.223v.54a.121.121 0 0 0 .243 0v-.54h.286a.121.121 0 0 0 0-.242h-.287V22.1q.004-.002.007-.003a.12.12 0 0 0 0-.172l-.007-.006v-1.207h.19a.121.121 0 0 0 0-.242h-.19v-1.101h.443a.121.121 0 0 0 0-.243"/></svg>