<svg width="32" height="32" viewBox="0 0 32 32" fill="none" xmlns="http://www.w3.org/2000/svg">
<path d="M2.4577 29.6305C2.81843 30.5556 28.1547 30.2696 29.3813 29.6839C30.2114 29.7173 29.1035 20.208 29.3236 14.7113C29.3823 13.2378 28.9164 12.5387 27.0293 12.6245L22.5503 12.8262V11.4468C23.8245 11.9481 24.6541 10.8194 24.2293 9.7052C23.7964 8.56968 20.416 5.8972 18.0752 3.3789C16.2415 1.40896 14.8121 0.926047 12.0897 3.80411C10.528 5.4555 9.00849 7.18108 7.57334 8.93187C7.05164 9.56799 6.62546 10.3496 7.16509 10.9939C7.51952 11.4177 8.18958 11.5903 9.27079 10.9197C9.33043 10.8829 9.38764 10.8431 9.44679 10.8053V12.8257L4.96921 12.624C3.0754 12.5343 2.61624 13.2494 2.67491 14.7113C2.85867 19.31 1.95782 29.2407 2.4577 29.6305ZM12.7079 8.2172L12.7825 8.29187L12.097 8.97744L12.001 8.88144C12.2419 8.66568 12.4776 8.44411 12.7079 8.2172ZM11.8162 9.0395L11.9258 9.14908L11.2897 9.7852V9.53502C11.2897 9.51999 11.279 9.50981 11.2737 9.49672C11.4579 9.34787 11.6378 9.19465 11.8162 9.0395ZM11.1341 10.4548L11.04 10.5488L10.5464 10.0557C10.7156 9.93162 10.8819 9.80362 11.0473 9.67417V10.3476C11.0473 10.401 11.0856 10.4383 11.1341 10.4548ZM10.3564 10.1915C10.3617 10.2007 10.3602 10.2124 10.3685 10.2206L10.8684 10.7205L10.2827 11.3062L9.93115 10.9547V10.4907C10.0752 10.3937 10.2153 10.2919 10.3564 10.1915ZM10.1115 11.4773L9.93164 11.6572V11.2974L10.1115 11.4773ZM9.93115 11.8977C9.97382 11.9127 10.0044 11.9273 10.0538 11.8773L11.743 10.1876C11.7905 10.1401 11.7905 10.0635 11.743 10.016C11.6955 9.96847 11.6189 9.96847 11.5714 10.016L11.2887 10.2987V10.0058C11.3343 10.0281 11.3731 10.0431 11.425 9.99126L12.0965 9.31975L12.3118 9.53502C12.3593 9.58253 12.4359 9.58253 12.4834 9.53502C12.5309 9.4875 12.5309 9.4109 12.4834 9.36338L12.2681 9.14811L12.9537 8.46253L13.297 8.80581C13.3445 8.85332 13.4211 8.85332 13.4686 8.80581C13.5161 8.75829 13.5161 8.68168 13.4686 8.63417L13.105 8.27053C13.1098 8.23417 13.104 8.19732 13.0759 8.16968C13.0478 8.14205 13.0109 8.13574 12.975 8.14059L12.8776 8.04314C13.152 7.76532 13.4192 7.47974 13.6771 7.18544L14.0112 7.5195L13.3969 8.13381C13.3493 8.18132 13.3493 8.25793 13.3969 8.30544C13.4444 8.35296 13.521 8.35296 13.5685 8.30544L14.1828 7.69114L14.2356 7.74399C14.2832 7.7915 14.3598 7.7915 14.4073 7.74399C14.4548 7.69647 14.4548 7.61987 14.4073 7.57235L14.3544 7.5195L14.8829 6.99053C14.9304 6.94302 14.9304 6.86641 14.8829 6.8189C14.8354 6.77138 14.7588 6.77138 14.7113 6.8189L14.1828 7.34738L13.839 7.00362C14.0272 6.7835 14.2109 6.5595 14.3898 6.33065C14.4029 6.31417 14.4165 6.2972 14.4296 6.28023L14.8776 6.72823C14.8761 6.76071 14.8863 6.79368 14.911 6.81841C14.9348 6.84217 14.9658 6.85381 14.9969 6.85381C14.9988 6.85381 14.9998 6.85187 15.0017 6.85187L15.1743 7.02447C15.2218 7.07199 15.2984 7.07199 15.3455 7.02447C15.393 6.97696 15.393 6.90035 15.3455 6.85332L15.1966 6.70447L15.6824 6.21865L15.8395 6.37574C15.887 6.42326 15.9636 6.42326 16.0112 6.37574C16.0587 6.32823 16.0587 6.25162 16.0112 6.20411L15.8541 6.04896L16.097 5.80605C16.1445 5.75853 16.1445 5.68193 16.097 5.63441C16.0495 5.5869 15.9729 5.5869 15.9258 5.63441L15.6829 5.87732L15.2519 5.44629C15.9632 4.98956 16.5125 5.44629 17.1025 6.06399L21.4158 10.5765C21.6078 10.7777 21.8196 10.9949 22.0655 11.1772V29.6596C21.0841 29.6984 20.1018 29.7309 19.1195 29.7522L18.8747 24.5847C18.831 23.663 18.8213 21.1607 16.4684 20.6017C15.6829 20.4145 14.8218 20.577 14.1644 21.0361C12.9251 21.9025 12.6211 23.5248 12.4945 24.8417C12.337 26.4742 12.3321 28.1285 12.4689 29.7639C11.6228 29.7484 10.7767 29.7236 9.93115 29.6955V11.8977ZM15.0545 5.59223L15.5113 6.04896L15.0255 6.53478L14.5818 6.09162C14.7263 5.91368 14.8834 5.7372 15.0545 5.59223ZM15.2262 22.6317L14.6313 22.0368L15.0778 21.5903C15.1253 21.5428 15.1253 21.4662 15.0778 21.4187C15.0303 21.3711 14.9537 21.3711 14.9062 21.4187L14.4596 21.8652L14.2196 21.6252C14.2924 21.5602 14.3607 21.4914 14.4422 21.4342C14.6589 21.2824 14.9062 21.1816 15.1622 21.1108L15.9525 21.9016L15.2281 22.6254C15.2272 22.6274 15.2281 22.6298 15.2262 22.6317ZM15.44 21.0458C15.9709 20.9639 16.319 21.0424 16.6865 21.1908C16.6735 21.1966 16.6584 21.1961 16.6478 21.2068L16.1246 21.7299L15.44 21.0458ZM12.8747 28.4058L13.4337 28.9648L12.9343 29.4642C12.9081 29.1117 12.8868 28.7593 12.8747 28.4058ZM12.8718 26.6928L13.1636 26.9847L12.8567 27.2916C12.8582 27.0924 12.8659 26.8926 12.8718 26.6928ZM13.0206 24.5023L13.1418 24.6235L12.9901 24.7753C12.9988 24.6851 13.009 24.5944 13.0206 24.5023ZM13.0633 24.2022C13.1253 23.7954 13.2116 23.3804 13.3498 22.9871L14.063 23.7004L13.3125 24.4509L13.0633 24.2022ZM12.9697 29.7711L13.6049 29.136L14.0024 29.5331C14.0499 29.5806 14.1265 29.5806 14.1736 29.5331C14.2211 29.4856 14.2211 29.409 14.1736 29.3614L13.776 28.9644L14.7302 28.0102C14.7777 27.9627 14.7777 27.886 14.7302 27.8385C14.6827 27.791 14.6061 27.791 14.5585 27.8385L13.6044 28.7927L12.8664 28.0548C12.8625 27.8841 12.8558 27.7139 12.8553 27.5433C12.897 27.5544 12.9246 27.566 12.9707 27.52L13.3348 27.1559L14.0839 27.9054C14.1314 27.953 14.208 27.953 14.2555 27.9054C14.303 27.8579 14.303 27.7813 14.2555 27.7338L13.5064 26.9842L14.4005 26.0902C14.448 26.0427 14.448 25.966 14.4005 25.919C14.353 25.8715 14.2764 25.8715 14.2293 25.919L13.3353 26.8131L12.88 26.3578C12.8965 25.9539 12.9232 25.551 12.9581 25.1486L13.313 24.7937L14.3869 25.8681C14.4344 25.9156 14.511 25.9156 14.5585 25.8681C14.6061 25.8206 14.6061 25.744 14.5585 25.6965L13.4841 24.622L14.2347 23.871L14.5891 24.2254C14.6366 24.273 14.7132 24.273 14.7607 24.2254C14.8082 24.1779 14.8082 24.1013 14.7607 24.0543L14.4063 23.6999L14.5682 23.5379C14.6158 23.4904 14.6158 23.4138 14.5682 23.3663C14.5207 23.3188 14.4441 23.3188 14.3966 23.3663L14.2347 23.5282L13.4507 22.7437C13.5981 22.3913 13.7876 22.064 14.0422 21.7886L14.2885 22.0349L13.6543 22.6686C13.6068 22.7161 13.6068 22.7927 13.6543 22.8402C13.7018 22.8877 13.7784 22.8877 13.8259 22.8402L14.4601 22.2065L15.6233 23.3697C15.6708 23.4172 15.7474 23.4172 15.7949 23.3697C15.8424 23.3222 15.8424 23.2456 15.7949 23.198L15.3944 22.7976C15.3964 22.7961 15.3988 22.7966 15.4007 22.7951L16.1251 22.0713L16.3927 22.3389C16.4402 22.3864 16.5169 22.3864 16.5639 22.3389C16.6114 22.2914 16.6114 22.2148 16.5639 22.1673L16.2962 21.8996L16.8194 21.3765C16.8558 21.3401 16.8553 21.2887 16.8354 21.2441C18.2618 21.9336 18.3336 23.3964 18.3908 24.6061L18.6342 29.7571C16.7462 29.7939 14.8577 29.7997 12.9697 29.7711ZM27.0507 13.1084C28.6638 13.0366 28.8853 13.5282 28.8388 14.6919C28.6449 19.5316 29.3251 24.3646 29.1539 29.2325C26.959 29.4133 24.7564 29.5505 22.5493 29.6436V13.311L27.0507 13.1084ZM9.01527 10.5081C8.5474 10.7976 7.89576 11.1122 7.53649 10.6827C7.17915 10.257 7.6 9.66399 7.94812 9.23975C9.376 7.4972 10.8878 5.78084 12.4417 4.13768C14.9954 1.43756 16.1149 1.98496 17.7202 3.70956C19.8259 5.97477 23.4158 8.93138 23.776 9.87781C24.1154 10.7699 23.3319 11.8812 21.7663 10.2414L17.4526 5.72847C16.0975 4.31126 15.1908 4.52071 14.0078 6.03344C12.6153 7.81332 10.9358 9.31878 9.01527 10.5081ZM3.15879 14.6924C3.11321 13.5442 3.31685 13.0347 4.94691 13.1084L9.4463 13.311V29.6824C7.24073 29.6024 5.03903 29.4788 2.84461 29.3115C2.66424 24.4325 3.3537 19.5617 3.15879 14.6924Z" fill="#1A1A1A"/>
<path d="M18.548 14.1076C18.6503 12.8247 17.7664 11.5399 16.5354 11.182C14.47 10.5837 12.2052 12.8058 13.0353 14.9004C14.1441 17.6974 18.3104 17.0734 18.548 14.1076ZM13.4144 14.4916L14.0254 15.1025L13.8324 15.2955C13.6908 15.1205 13.5686 14.9304 13.4857 14.721C13.4561 14.6458 13.4348 14.5687 13.4144 14.4916ZM13.4406 13.392L14.5538 14.5052C14.5674 14.5188 14.5858 14.5197 14.6028 14.5256L14.1975 14.9309L13.3732 14.1071C13.3674 14.1013 13.3587 14.1028 13.3519 14.0984C13.3388 13.8623 13.3708 13.6252 13.4406 13.392ZM18.0646 14.0688C17.9201 15.8725 15.6035 17.0977 13.9948 15.4763L14.2498 15.2213C14.2658 15.2155 14.2838 15.215 14.2964 15.2019C14.309 15.1888 14.31 15.1714 14.3158 15.1554L15.1696 14.3016C15.2171 14.254 15.2171 14.1774 15.1696 14.1299C15.1221 14.0824 15.0455 14.0824 14.998 14.1299L14.7449 14.383C14.739 14.366 14.7381 14.3476 14.7245 14.334L13.9967 13.6063L14.4957 13.1074L14.9597 13.5714C15.0072 13.6189 15.0838 13.6189 15.1313 13.5714C15.1788 13.5239 15.1788 13.4473 15.1313 13.3997L14.6668 12.9357L15.0251 12.5774C15.0726 12.5299 15.0726 12.4533 15.0251 12.4063C14.9776 12.3588 14.901 12.3588 14.8535 12.4063L14.4952 12.7646L14.0753 12.3447C14.2639 12.1542 14.4743 11.9961 14.6978 11.8734L15.4498 12.6254C15.4974 12.673 15.574 12.673 15.6215 12.6254C15.669 12.5779 15.669 12.5013 15.6215 12.4538L15.4954 12.3277C15.5056 12.3224 15.5182 12.3234 15.5264 12.3147L15.9075 11.9336L16.4394 12.4654C16.4869 12.513 16.5635 12.513 16.611 12.4654C16.6586 12.4179 16.6586 12.3413 16.611 12.2943L16.0792 11.7624L16.1626 11.679C16.1834 11.6582 16.1912 11.631 16.1936 11.6039C16.2624 11.616 16.3313 11.6281 16.3987 11.6475C17.4183 11.9437 18.15 13.007 18.0646 14.0688ZM15.8901 11.5724C15.9017 11.5728 15.9134 11.5743 15.925 11.5748L15.909 11.5913L15.8901 11.5724ZM15.5715 11.5966L15.7374 11.7624L15.3563 12.1435C15.3475 12.1522 15.349 12.1643 15.3432 12.1745L14.9296 11.761C15.1371 11.6732 15.3514 11.6126 15.5672 11.5859C15.5701 11.5893 15.5686 11.5937 15.5715 11.5966ZM13.9143 12.5251L14.325 12.9357L13.8261 13.4347L13.5405 13.1491C13.5376 13.1462 13.5332 13.1471 13.5303 13.1447C13.6229 12.929 13.7514 12.721 13.9143 12.5251Z" fill="#1A1A1A"/>
<path d="M24.3017 18.4879C24.5116 18.4879 27.3848 18.3531 27.3848 18.3531C27.5235 18.3531 27.6365 18.2358 27.6268 18.0942C27.539 16.7967 27.5545 15.7044 27.6748 14.7536C27.6927 14.611 27.5831 14.483 27.4382 14.4806L24.3536 14.4316C24.3521 14.4316 24.3507 14.4316 24.3497 14.4316C24.2241 14.4316 24.1189 14.5272 24.1082 14.6527C24.002 15.859 24.0142 17.1836 24.0234 18.2479C24.0248 18.3929 24.1562 18.4869 24.3017 18.4879ZM24.645 17.9958C24.5984 17.9967 24.5524 18.0001 24.5058 18.0011C24.5048 17.8813 24.5048 17.7524 24.5039 17.6278L24.7463 17.8702C24.7511 17.875 24.7584 17.8736 24.7637 17.8775L24.645 17.9958ZM27.1269 17.8702C26.4088 17.8833 25.8842 17.941 25.0013 17.9827L25.9148 17.0692C25.9623 17.0217 25.9623 16.9451 25.9148 16.8976C25.8673 16.8501 25.7907 16.8501 25.7431 16.8976L24.9247 17.716C24.9208 17.7107 24.9223 17.7034 24.9174 17.6985L24.5019 17.283C24.5019 17.0367 24.5034 16.7841 24.5068 16.5281C24.5373 16.5276 24.5679 16.5165 24.5911 16.4932L24.6469 16.4375L25.2728 17.0634C25.3204 17.1109 25.397 17.1109 25.4445 17.0634C25.492 17.0159 25.492 16.9393 25.4445 16.8918L24.8185 16.2658L25.2835 15.8009L25.5322 16.0496C25.5797 16.0971 25.6564 16.0971 25.7039 16.0496C25.7514 16.0021 25.7514 15.9255 25.7039 15.8779L25.4551 15.6292L25.492 15.5924C25.5395 15.5449 25.5395 15.4682 25.492 15.4207C25.4445 15.3732 25.3679 15.3732 25.3204 15.4207L25.2835 15.4576L25.1216 15.2956L25.3868 15.0304C25.3887 15.0329 25.3877 15.0358 25.3897 15.0377L25.8493 15.4973L25.7732 15.5735C25.7257 15.621 25.7257 15.6976 25.7732 15.7451C25.8207 15.7926 25.8973 15.7926 25.9448 15.7451L26.5664 15.1235L26.7439 15.301C26.7914 15.3485 26.868 15.3485 26.9155 15.301C26.963 15.2535 26.963 15.1769 26.9155 15.1298L26.7395 14.9538L27.1633 14.9606C27.0745 15.8125 27.0624 16.7696 27.1269 17.8702ZM26.3909 14.949L26.3948 14.9529L26.021 15.3267L25.6307 14.9369L26.3909 14.949ZM24.7477 14.9228L25.1458 14.9291L24.9499 15.125L24.7477 14.9228ZM25.1119 15.6302L24.6469 16.0952L24.5213 15.9696C24.5305 15.6714 24.5441 15.3752 24.5635 15.0818L25.1119 15.6302Z" fill="#1A1A1A"/>
<path d="M24.3022 23.482C24.6144 23.482 27.3853 23.3477 27.3853 23.3477C27.524 23.3477 27.637 23.2304 27.6273 23.0888C27.5395 21.7909 27.555 20.6985 27.6753 19.7482C27.6932 19.6037 27.5812 19.4772 27.4387 19.4752L24.3536 19.4258C24.3521 19.4258 24.3507 19.4258 24.3497 19.4258C24.2241 19.4258 24.1189 19.5213 24.1082 19.6469C24.002 20.8537 24.0142 22.1778 24.0234 23.2415C24.0253 23.387 24.1567 23.4825 24.3022 23.482ZM24.9427 20.5351L24.5247 20.9531C24.5228 20.955 24.5237 20.9574 24.5223 20.9594C24.5305 20.6883 24.5431 20.4197 24.5601 20.1521L24.9427 20.5351ZM24.5063 22.9715L24.5291 22.9943C24.5213 22.9943 24.514 22.9948 24.5063 22.9952C24.5063 22.9875 24.5063 22.9792 24.5063 22.9715ZM24.9693 22.9778L25.5172 22.4304C25.5647 22.3829 25.5647 22.3063 25.5172 22.2588C25.4697 22.2112 25.3931 22.2112 25.3456 22.2588L24.741 22.8634L24.5044 22.6268C24.5024 22.2413 24.5024 21.8398 24.5092 21.4263L25.0755 21.9926C25.123 22.0401 25.1996 22.0401 25.2471 21.9926C25.2947 21.9451 25.2947 21.8684 25.2471 21.8209L24.5684 21.1421C24.5824 21.148 24.595 21.1596 24.61 21.1596C24.6411 21.1596 24.6721 21.148 24.6959 21.1242L25.1138 20.7063L25.4357 21.0282C25.4833 21.0757 25.5599 21.0757 25.6074 21.0282C25.6549 20.9807 25.6549 20.9041 25.6074 20.8566L25.2854 20.5346L25.4537 20.3664C25.5012 20.3189 25.5012 20.2423 25.4537 20.1948C25.4062 20.1472 25.3296 20.1472 25.282 20.1948L25.1143 20.3635L24.6668 19.916L26.0248 19.9378L26.277 20.1899L26.2042 20.2626C26.1567 20.3101 26.1567 20.3868 26.2042 20.4343C26.2517 20.4818 26.3284 20.4818 26.3759 20.4343L26.4486 20.3615L26.4937 20.4066C26.5412 20.4541 26.6178 20.4541 26.6648 20.4066C26.7124 20.3591 26.7124 20.2825 26.6648 20.235L26.6197 20.1899L26.836 19.9737C26.8413 19.9683 26.8399 19.9606 26.8437 19.9548L27.14 20.2515C27.0765 21.0287 27.0702 21.8874 27.1274 22.8648C26.4132 22.8764 25.8537 22.9375 24.9693 22.9778ZM26.373 19.9431L26.5208 19.9455L26.4481 20.0183L26.373 19.9431Z" fill="#1A1A1A"/>
<path d="M27.4382 24.3747L24.3536 24.3252C24.3521 24.3252 24.3507 24.3252 24.3497 24.3252C24.2241 24.3252 24.1189 24.4207 24.1082 24.5463C24.002 25.7526 24.0142 27.0772 24.0234 28.1414C24.0248 28.2864 24.1562 28.3805 24.3022 28.3814C24.34 28.3814 27.3596 28.2277 27.3853 28.2467C27.524 28.2467 27.637 28.1293 27.6273 27.9877C27.5395 26.6903 27.555 25.5979 27.6753 24.6471C27.6927 24.5046 27.5836 24.3766 27.4382 24.3747ZM26.2702 24.8411L26.1582 24.9531L26.0428 24.8377L26.2702 24.8411ZM25.1865 24.8236L25.0484 24.9618L24.9058 24.8193L25.1865 24.8236ZM24.5039 27.533C24.5014 27.0966 24.5029 26.6384 24.5131 26.1686L25.1938 26.8493C25.2011 26.8566 25.2117 26.8551 25.2205 26.8605L24.5262 27.5548L24.5039 27.533ZM27.1269 27.7637C26.3526 27.7778 25.7829 27.8452 24.853 27.882L24.6973 27.7264L25.7611 26.6627C25.8086 26.6151 25.8086 26.5385 25.7611 26.4915C25.7136 26.444 25.637 26.444 25.5894 26.4915L25.3761 26.7048C25.3708 26.6961 25.3722 26.6854 25.365 26.6782L24.5218 25.835C24.5325 25.4971 24.547 25.1591 24.5713 24.8285L24.8762 25.1334L24.6168 25.3933C24.5693 25.4408 24.5693 25.5174 24.6168 25.565C24.6644 25.6125 24.741 25.6125 24.788 25.565L25.0474 25.3051L25.3921 25.6493C25.4396 25.6968 25.5162 25.6968 25.5637 25.6493C25.6113 25.6018 25.6113 25.5252 25.5637 25.4777L25.219 25.133L25.3664 24.9856C25.4105 24.9414 25.4091 24.874 25.3713 24.8265L25.6966 24.8319C25.698 24.8333 25.6971 24.8353 25.6985 24.8367L25.986 25.1242L25.7921 25.3182C25.7446 25.3657 25.7446 25.4423 25.7921 25.4898C25.8396 25.5373 25.9162 25.5373 25.9637 25.4898L26.1577 25.2959L26.2614 25.3996C26.309 25.4471 26.3856 25.4471 26.4331 25.3996C26.4806 25.3521 26.4806 25.2755 26.4331 25.2285L26.3293 25.1247L26.5591 24.8949L26.9073 25.243C26.9548 25.2905 27.0314 25.2905 27.0789 25.243C27.1264 25.1955 27.1264 25.1189 27.0789 25.0714L26.8583 24.8508L27.1633 24.8556C27.0745 25.7065 27.0624 26.6631 27.1269 27.7637Z" fill="#1A1A1A"/>
<path d="M4.58284 18.488C5.62236 18.488 6.61775 18.3522 7.66551 18.3532C7.75375 18.3837 7.91909 18.2606 7.90793 18.0948C7.82018 16.7954 7.83618 15.7025 7.95642 14.7537C7.97436 14.6087 7.86236 14.4831 7.71981 14.4807L4.63472 14.4317C4.48878 14.4187 4.40006 14.5258 4.38939 14.6528C4.28369 15.8548 4.29533 17.1813 4.30454 18.2475C4.30551 18.393 4.43884 18.487 4.58284 18.488ZM4.79375 16.2897L5.50842 17.0039C5.54963 17.0451 5.61315 17.0562 5.67084 17.0077L5.11181 17.5668L4.78309 17.2381C4.78357 16.9292 4.78745 16.6107 4.79375 16.2897ZM4.94066 17.7379L4.78648 17.8921C4.78551 17.7913 4.78551 17.6861 4.78503 17.5818L4.94066 17.7379ZM5.1603 17.9576C5.17824 17.9755 5.20248 17.9804 5.22624 17.9847C5.16078 17.9876 5.09533 17.9901 5.02939 17.992L5.1123 17.9091L5.1603 17.9576ZM5.26987 17.9833C5.29169 17.9784 5.31448 17.9745 5.33145 17.9576C5.37896 17.9101 5.37896 17.8334 5.33145 17.7859L5.28296 17.7379L6.25751 16.7634C6.30503 16.7159 6.30503 16.6393 6.25751 16.5918C6.21 16.5442 6.13339 16.5442 6.08587 16.5918L5.68296 16.9947C5.72321 16.9471 5.72418 16.8773 5.67909 16.8322L4.80199 15.9556C4.81218 15.6254 4.82672 15.2967 4.84951 14.9743L5.26503 15.3898L4.84078 15.8145C4.79327 15.8621 4.79327 15.9387 4.84078 15.9862C4.8883 16.0337 4.9649 16.0337 5.01193 15.9862L5.43618 15.5614L5.55836 15.6836C5.60587 15.7311 5.68248 15.7311 5.72951 15.6836C5.77703 15.6361 5.77703 15.5595 5.72951 15.512L5.60733 15.3898L5.68878 15.3084C5.7363 15.2608 5.7363 15.1842 5.68878 15.1367C5.64127 15.0892 5.56466 15.0892 5.51763 15.1367L5.43618 15.2182L5.14236 14.9244L6.18769 14.9408L6.53096 15.2841L6.28224 15.5324C6.23472 15.5799 6.23472 15.6565 6.28224 15.704C6.32975 15.7515 6.40636 15.7515 6.45387 15.704L6.98381 15.1745L7.22333 15.4141C7.27084 15.4616 7.34745 15.4616 7.39497 15.4141C7.40515 15.4039 7.40466 15.3893 7.41048 15.3767C7.35618 16.1219 7.35278 16.9418 7.40709 17.8698C6.68369 17.8829 6.15812 17.9421 5.26987 17.9833ZM6.76127 14.9505L6.81412 15.0034L6.70406 15.1134L6.53775 14.9471L6.76127 14.9505ZM7.41775 15.2957C7.41193 15.2773 7.41048 15.2574 7.39593 15.2429L7.10939 14.9564L7.44393 14.9617C7.43278 15.0693 7.42648 15.1842 7.41775 15.2957Z" fill="#1A1A1A"/>
<path d="M4.58284 23.482C5.62381 23.482 6.58478 23.3487 7.66551 23.3477C7.78721 23.3569 7.91812 23.2396 7.90793 23.0893C7.82018 21.7894 7.83618 20.6966 7.95642 19.7482C7.97436 19.6037 7.86236 19.4772 7.71981 19.4752L4.63472 19.4258C4.48878 19.434 4.40006 19.5203 4.38939 19.6469C4.28369 20.8483 4.29533 22.1754 4.30454 23.2411C4.30551 23.387 4.43884 23.4825 4.58284 23.482ZM7.40806 22.8643C6.67254 22.8769 6.11012 22.9409 5.19472 22.9797L5.91569 22.2592C5.96321 22.2117 5.96321 22.1351 5.91569 22.0876C5.86818 22.0401 5.79157 22.0401 5.74406 22.0876L4.84175 22.9894C4.84078 22.9904 4.84127 22.9918 4.8403 22.9928C4.82236 22.9933 4.8049 22.9943 4.78697 22.9948C4.78406 22.6418 4.78357 22.2617 4.786 21.8743L5.24272 22.331C5.29024 22.3785 5.36684 22.3785 5.41436 22.331C5.46187 22.2835 5.46187 22.2069 5.41436 22.1594L4.78842 21.5339C4.79569 21.002 4.81412 20.459 4.85242 19.9358L5.39787 20.4818L4.96442 20.9148C4.9169 20.9623 4.9169 21.0389 4.96442 21.0864C5.01193 21.1339 5.08854 21.1339 5.13606 21.0864L5.56951 20.6534L5.84442 20.9288C5.89193 20.9763 5.96854 20.9763 6.01606 20.9288C6.06357 20.8813 6.06357 20.8047 6.01606 20.7572L5.17921 19.9198L5.86284 19.9305C5.86381 19.9606 5.87448 19.9906 5.89727 20.0134L6.418 20.5337C6.46551 20.5812 6.54212 20.5812 6.58963 20.5337C6.60369 20.5196 6.60466 20.5007 6.61048 20.4832C6.63715 20.4803 6.6643 20.4731 6.68466 20.4527L6.88054 20.2568L7.02309 20.3994C7.0706 20.4469 7.14721 20.4469 7.19472 20.3994C7.24224 20.3518 7.24224 20.2752 7.19472 20.2277L7.05169 20.0852L7.186 19.9509L7.4449 19.9552C7.35569 20.8057 7.34357 21.7628 7.40806 22.8643ZM6.56394 19.9417L6.70793 20.0857L6.51206 20.2815C6.51109 20.2825 6.51157 20.284 6.5106 20.2849L6.16103 19.9358L6.56394 19.9417Z" fill="#1A1A1A"/>
<path d="M4.58284 28.3809C4.61727 28.3809 7.64418 28.2272 7.666 28.2462C7.80515 28.2462 7.91715 28.1279 7.90793 27.9877C7.82018 26.6883 7.83618 25.5955 7.95642 24.6466C7.97436 24.5017 7.86236 24.3756 7.71981 24.3737L4.63472 24.3242C4.63327 24.3242 4.63181 24.3242 4.63084 24.3242C4.50527 24.3242 4.40006 24.4197 4.38939 24.5453C4.28369 25.7472 4.29533 27.0738 4.30454 28.14C4.30551 28.2859 4.43884 28.38 4.58284 28.3809ZM6.56684 24.8406L6.27593 25.1315L5.97533 24.8309L6.56684 24.8406ZM5.68587 24.8842L6.1043 25.3031L5.90309 25.5043H5.58406C5.58066 25.5 5.58212 25.4942 5.57824 25.4903L4.90284 24.8144L5.66163 24.8265C5.66697 24.8469 5.66987 24.8682 5.68587 24.8842ZM5.25 25.5043H4.8146C4.82042 25.3657 4.82963 25.2289 4.83787 25.0922L5.25 25.5043ZM4.78454 27.1582C4.78406 27.1577 4.78357 27.1582 4.78357 27.1577C4.78357 26.8818 4.786 26.5977 4.79084 26.3111L5.38042 26.9007L4.95424 27.3274L4.78454 27.1582ZM4.78697 27.8942C4.78697 27.8757 4.78696 27.8554 4.78648 27.8369L4.95375 27.6697L5.01436 27.7303C5.06187 27.7778 5.13848 27.7778 5.186 27.7303C5.23351 27.6828 5.23351 27.6062 5.186 27.5586L5.12539 27.498L5.93848 26.6845C5.986 26.6369 5.986 26.5603 5.93848 26.5128C5.89097 26.4653 5.81436 26.4653 5.76733 26.5128L5.55206 26.7286L4.81993 25.9965C4.81412 25.9906 4.80587 25.9921 4.79957 25.9877C4.80151 25.9068 4.80345 25.8268 4.80587 25.7458H5.954C5.986 25.7458 6.01703 25.7332 6.03981 25.7104L6.27642 25.4738L6.3763 25.5737C6.42381 25.6212 6.50042 25.6212 6.54745 25.5737C6.59497 25.5262 6.59497 25.4496 6.54745 25.402L6.44709 25.3031L6.79472 24.9555C6.85145 25.0122 7.31787 25.5014 7.39206 25.5116C7.35424 26.1914 7.35957 26.9361 7.40806 27.7628C6.50963 27.7792 5.66212 27.8801 4.78697 27.8942ZM7.41436 25.2328L7.02987 24.8483L7.44442 24.8551C7.43133 24.9768 7.42357 25.1058 7.41436 25.2328Z" fill="#1A1A1A"/>
<path d="M12.5518 5.8327C12.5998 5.79391 12.61 5.72555 12.5785 5.67464C12.5789 5.64264 12.5668 5.61113 12.5431 5.58737L12.4703 5.51464L12.7123 5.2727C12.7598 5.22519 12.7598 5.14858 12.7123 5.10107C12.6648 5.05355 12.5882 5.05355 12.5411 5.10107L12.2992 5.34301L12.1819 5.22567C12.1343 5.17816 12.0577 5.17816 12.0102 5.22567C11.9627 5.27319 11.9627 5.34979 12.0102 5.39731L12.1276 5.51464L12.0126 5.62955L11.8716 5.48846C11.824 5.44094 11.7474 5.44094 11.6999 5.48846C11.6524 5.53598 11.6524 5.61258 11.6999 5.65961L11.841 5.8007L11.297 6.34567L11.1559 6.20458C11.1084 6.15707 11.0318 6.15707 10.9843 6.20458C10.9368 6.2521 10.9368 6.3287 10.9843 6.37622L11.1254 6.51731L10.6284 7.01428L10.3918 6.77816C10.3443 6.73064 10.2677 6.73064 10.2206 6.77816C10.1731 6.82567 10.1731 6.90228 10.2206 6.94931L10.4572 7.18591L10.0063 7.63682C9.95882 7.68434 9.95882 7.76095 10.0063 7.80846C10.0539 7.85598 10.1305 7.85598 10.178 7.80846L10.6294 7.35707L10.8539 7.58155C10.9014 7.62907 10.978 7.62907 11.0255 7.58155C11.073 7.53404 11.073 7.45743 11.0255 7.40991L10.801 7.18543L11.2975 6.68894L11.4812 6.8727C11.5288 6.92022 11.6054 6.92022 11.6529 6.8727C11.7004 6.82519 11.7004 6.74858 11.6529 6.70107L11.4691 6.51731L12.0136 5.97282L12.0936 6.05282C12.1411 6.10034 12.2177 6.10034 12.2652 6.05282C12.3128 6.00531 12.3128 5.9287 12.2652 5.88119L12.1852 5.80119L12.3002 5.68628L12.3045 5.69064C12.3011 5.7144 12.3026 5.73864 12.3099 5.76094C12.3428 5.86761 12.4747 5.89525 12.5518 5.8327Z" fill="#1A1A1A"/>
<path d="M20.0489 17.0259H20.72V18.0925H20.2211C20.1542 18.0925 20.0999 18.1468 20.0999 18.2138C20.0999 18.2807 20.1542 18.335 20.2211 18.335H20.72V19.1946H20.2211C20.1542 19.1946 20.0999 19.2489 20.0999 19.3158C20.0999 19.3827 20.1542 19.437 20.2211 19.437H20.72V20.4353H20.1522C20.0853 20.4353 20.031 20.4896 20.031 20.5565C20.031 20.6235 20.0853 20.6778 20.1522 20.6778H20.72V22.6244C20.72 22.6913 20.7743 22.7456 20.8412 22.7456C20.9081 22.7456 20.9624 22.6913 20.9624 22.6244V20.6778H20.9789C21.0458 20.6778 21.1001 20.6235 21.1001 20.5565C21.1001 20.4896 21.0458 20.4353 20.9789 20.4353H20.9624V19.437H21.2552C21.3222 19.437 21.3765 19.3827 21.3765 19.3158C21.3765 19.2489 21.3222 19.1946 21.2552 19.1946H20.9624V18.335H21.3319C21.3988 18.335 21.4531 18.2807 21.4531 18.2138C21.4531 18.1468 21.3988 18.0925 21.3319 18.0925H20.9624V17.0259H21.4652C21.5321 17.0259 21.5864 16.9716 21.5864 16.9047C21.5864 16.8378 21.5321 16.7835 21.4652 16.7835H20.9624V15.63C20.9624 15.5631 20.9081 15.5088 20.8412 15.5088C20.7743 15.5088 20.72 15.5631 20.72 15.63V16.7835H20.0489C19.982 16.7835 19.9277 16.8378 19.9277 16.9047C19.9277 16.9716 19.982 17.0259 20.0489 17.0259Z" fill="#1A1A1A"/>
<path d="M11.7249 19.1262H11.2822V18.2482C11.2822 18.1813 11.2279 18.127 11.161 18.127C11.0941 18.127 11.0398 18.1813 11.0398 18.2482V19.1262H10.9545C10.8876 19.1262 10.8333 19.1805 10.8333 19.2474C10.8333 19.3143 10.8876 19.3686 10.9545 19.3686H11.0398V20.4697H10.713C10.6461 20.4697 10.5918 20.524 10.5918 20.591C10.5918 20.6579 10.6461 20.7122 10.713 20.7122H11.0398V21.6765L10.9709 21.6082C10.9234 21.5607 10.8468 21.5607 10.7998 21.6082C10.7523 21.6557 10.7523 21.7323 10.7998 21.7798L11.0398 22.0193V22.7437H10.8168C10.7499 22.7437 10.6956 22.798 10.6956 22.8649C10.6956 22.9318 10.7499 22.9861 10.8168 22.9861H11.0403V23.5267C11.0403 23.5936 11.0946 23.6479 11.1615 23.6479C11.2284 23.6479 11.2827 23.5936 11.2827 23.5267V22.9861H11.5693C11.6362 22.9861 11.6905 22.9318 11.6905 22.8649C11.6905 22.798 11.6362 22.7437 11.5693 22.7437H11.2822V22.0998C11.2842 22.0979 11.2871 22.0988 11.289 22.0969C11.3365 22.0494 11.3365 21.9728 11.289 21.9253L11.2822 21.9185V20.7122H11.4718C11.5387 20.7122 11.593 20.6579 11.593 20.591C11.593 20.524 11.5387 20.4697 11.4718 20.4697H11.2822V19.3686H11.7249C11.7918 19.3686 11.8461 19.3143 11.8461 19.2474C11.8461 19.181 11.7918 19.1262 11.7249 19.1262Z" fill="#1A1A1A"/>
</svg>
