<svg xmlns="http://www.w3.org/2000/svg" width="206" height="48" fill="none" viewBox="0 0 206 48"><g fill="#fff" clip-path="url(#a)"><path d="M67.678 46.06H1.327V1.243h66.351zM0-.06v47.475h69.005V-.059z"/><path d="m33.089 11.008 1.4-1.035 1.4 1.035-.533-1.674 1.422-1.036h-1.753l-.536-1.694-.537 1.696-1.752-.002 1.421 1.036zm-7.246 1.972 1.4-1.035 1.4 1.035-.532-1.674 1.421-1.035h-1.753l-.536-1.696-.537 1.698-1.752-.002 1.421 1.035zm-3.901.978-.537 1.698-1.752-.002 1.422 1.035-.533 1.674 1.4-1.035 1.4 1.035-.533-1.674 1.421-1.035h-1.752zM19.997 24.66l1.4 1.035-.532-1.673 1.42-1.036h-1.751l-.537-1.696-.536 1.7-1.753-.004 1.422 1.036-.533 1.673zm2.481 5.68-.536-1.697-.537 1.698-1.752-.002 1.422 1.035-.533 1.675 1.4-1.037 1.4 1.037-.533-1.675 1.421-1.034zm5.312 5.381-.537-1.694-.535 1.696-1.753-.002 1.421 1.035-.532 1.675 1.4-1.035 1.4 1.035-.532-1.675 1.42-1.035zm7.236 1.949-.537-1.696-.535 1.698-1.753-.002 1.421 1.036-.531 1.674 1.4-1.036 1.399 1.036-.533-1.674 1.422-1.036zm7.236-1.949-.535-1.694-.538 1.696-1.75-.002 1.42 1.035-.532 1.675 1.4-1.035 1.4 1.035-.534-1.675 1.422-1.035zm5.314-5.381-.538-1.697-.537 1.698-1.751-.002 1.422 1.035-.534 1.675 1.4-1.037 1.4 1.037-.534-1.675 1.422-1.034zm3.675-7.374H49.5l-.538-1.697-.535 1.699-1.753-.002L48.095 24l-.532 1.674 1.398-1.037 1.4 1.037L49.829 24zm-5.613-4.626 1.4-1.034 1.4 1.035-.533-1.674 1.422-1.034h-1.751l-.538-1.696-.537 1.699-1.751-.003 1.422 1.034zm-3.891-9.763-.535 1.698-1.753-.004 1.42 1.037-.532 1.674 1.402-1.037 1.398 1.037-.532-1.674 1.422-1.037h-1.754zm34.146 2.675V1.242h6.773v1.693h-4.778v2.37h4.124v1.693h-4.124v4.254zm8.404 0V4h1.894v7.252zm0-8.236V1.241h1.894v1.775zm10.347 8.236h-1.895V7.551q0-1.175-.121-1.52a1.06 1.06 0 0 0-.394-.536 1.1 1.1 0 0 0-.657-.19q-.493 0-.883.272-.391.274-.536.724t-.145 1.666v3.285h-1.894V4h1.76v1.065q.936-1.23 2.358-1.229.627 0 1.146.229.52.228.785.584.266.354.37.805.105.45.106 1.29zm5.87-3.484q-.364.123-1.153.294-.79.171-1.03.335-.372.266-.372.676 0 .402.297.696.296.294.755.294.512 0 .977-.341.344-.26.452-.636.074-.245.074-.935zm-2.535-1.556-1.718-.314q.29-1.052.997-1.558.708-.505 2.103-.505 1.268 0 1.887.304.621.304.873.772.253.468.253 1.717l-.02 2.24q0 .955.091 1.41.09.454.34.973h-1.874a7 7 0 0 1-.182-.566 3 3 0 0 0-.067-.226q-.486.479-1.038.717-.553.24-1.18.239-1.105 0-1.742-.608-.636-.607-.637-1.536 0-.615.29-1.096t.812-.738 1.507-.447q1.327-.252 1.84-.471v-.191q0-.554-.27-.79-.27-.234-1.018-.234-.506 0-.788.201t-.459.707m12.773 5.04h-1.894V7.551q0-1.175-.122-1.52a1.07 1.07 0 0 0-.394-.536 1.1 1.1 0 0 0-.657-.19q-.492 0-.883.272a1.38 1.38 0 0 0-.536.724q-.145.45-.145 1.666v3.285h-1.893V4h1.758v1.065q.937-1.23 2.359-1.229.627 0 1.146.229.519.228.786.584.265.354.37.805.105.45.105 1.29zm1.159 0V9.756l2.683-3.12q.66-.765.977-1.086-.33.021-.869.027l-2.528.014V4h5.918v1.359l-2.737 3.195-.963 1.06q.788-.05.977-.049h2.932v1.687zm7.663 0V4h1.894v7.252zm0-8.236V1.241h1.894v1.775zm7.786 4.752q-.364.123-1.153.294-.788.171-1.031.335-.37.266-.371.676 0 .402.296.696.297.294.755.294.513 0 .978-.341.343-.26.451-.636.075-.245.075-.935zm-2.535-1.556-1.719-.314q.29-1.052.998-1.558.708-.505 2.103-.505 1.267 0 1.887.304t.873.772.253 1.717l-.021 2.24q0 .955.091 1.41.092.454.341.973h-1.874a7 7 0 0 1-.182-.566 3 3 0 0 0-.068-.226 3.4 3.4 0 0 1-1.037.717q-.553.24-1.18.239-1.105 0-1.742-.608-.637-.607-.637-1.536 0-.615.29-1.096t.812-.738 1.506-.447q1.328-.252 1.841-.471v-.191q0-.554-.27-.79-.27-.234-1.018-.234-.506 0-.788.201t-.459.707M134.369 4v1.529h-1.294V8.45q0 .888.037 1.035a.43.43 0 0 0 .168.243.53.53 0 0 0 .32.095q.264 0 .762-.184l.162 1.488a3.7 3.7 0 0 1-1.497.287q-.512 0-.923-.174t-.603-.45-.266-.748q-.061-.335-.061-1.352V5.529h-.869v-1.53h.869V2.56l1.901-1.12V4zm2.817 3.625q0 1.08.506 1.653.505.573 1.247.573.74 0 1.243-.573.502-.574.502-1.666 0-1.065-.502-1.64a1.59 1.59 0 0 0-1.243-.573q-.742 0-1.247.574-.507.573-.506 1.652m-1.941-.102q0-.956.465-1.85a3.2 3.2 0 0 1 1.318-1.367 3.87 3.87 0 0 1 1.904-.47q1.624 0 2.662 1.068t1.038 2.7q0 1.647-1.048 2.729t-2.639 1.082q-.983 0-1.877-.45a3.07 3.07 0 0 1-1.358-1.322q-.465-.87-.465-2.12M77.375 24.25q0 1.161.317 1.68.458.75 1.28.751.654 0 1.112-.563t.459-1.683q0-1.25-.445-1.8a1.4 1.4 0 0 0-1.14-.55q-.673 0-1.128.544-.456.542-.455 1.621m5.055 3.784h-1.76v-1.066a2.86 2.86 0 0 1-1.034.925 2.6 2.6 0 0 1-1.203.304q-1.233 0-2.113-1.007t-.88-2.81q0-1.844.856-2.803.855-.96 2.164-.96 1.2 0 2.076 1.011v-3.605h1.894zm5.816-3.484q-.364.124-1.152.294-.79.171-1.031.335-.371.267-.371.676 0 .402.296.697.297.293.755.293.513 0 .977-.341a1.2 1.2 0 0 0 .452-.635q.074-.246.074-.936zm-2.534-1.556-1.719-.314q.29-1.052.998-1.557.708-.506 2.103-.506 1.266 0 1.887.304.62.304.873.772.252.468.252 1.717l-.02 2.24q0 .957.091 1.41.091.454.34.974h-1.873a7 7 0 0 1-.182-.567 3 3 0 0 0-.068-.226q-.486.48-1.037.717-.553.24-1.18.24-1.106 0-1.742-.608-.637-.609-.637-1.537 0-.615.29-1.096.289-.48.812-.738.522-.256 1.506-.447 1.328-.252 1.84-.471v-.191q0-.553-.27-.789t-1.017-.236q-.505 0-.789.202-.282.201-.458.707m6.262 5.04v-10.01h1.894v10.01zm3.835 0v-10.01h1.894v10.01zm3.821-6.453-.357-1.864v-1.694h2.063v1.694l-.31 1.864zm3.296-3.558h1.995v5.422q0 1.29.074 1.673.128.614.61.986.481.373 1.318.373.85 0 1.28-.352.432-.351.519-.864.088-.512.088-1.7v-5.538h1.995v5.258q0 1.802-.162 2.547a2.8 2.8 0 0 1-.596 1.256q-.435.513-1.163.817t-1.9.303q-1.416 0-2.147-.33-.732-.332-1.156-.861a2.8 2.8 0 0 1-.56-1.11q-.195-.86-.195-2.54zm16.48 10.011h-1.894v-3.701q0-1.175-.121-1.52a1.07 1.07 0 0 0-.395-.535 1.1 1.1 0 0 0-.657-.192q-.492 0-.883.274-.39.273-.535.723t-.145 1.667v3.284h-1.894v-7.252h1.759v1.065q.936-1.23 2.359-1.229.626 0 1.146.229.518.228.785.584.266.355.37.805.105.451.105 1.291zm1.92 0v-7.252h1.894v7.252zm0-8.235v-1.776h1.894V19.8zm5.339 4.608q0 1.08.505 1.653.506.573 1.247.573t1.244-.573.502-1.666q0-1.065-.502-1.64a1.59 1.59 0 0 0-1.244-.573q-.741 0-1.247.574-.505.573-.505 1.652m-1.941-.102q0-.956.465-1.85a3.2 3.2 0 0 1 1.317-1.366 3.9 3.9 0 0 1 1.905-.472q1.624 0 2.662 1.07 1.038 1.068 1.038 2.7 0 1.645-1.048 2.728-1.049 1.082-2.639 1.082-.984 0-1.877-.45a3.07 3.07 0 0 1-1.358-1.322q-.465-.87-.465-2.12m15.38 3.729h-1.894v-3.701q0-1.175-.121-1.52a1.07 1.07 0 0 0-.394-.535 1.1 1.1 0 0 0-.657-.192q-.493 0-.883.274a1.37 1.37 0 0 0-.536.723q-.145.45-.145 1.667v3.284h-1.894v-7.252h1.759v1.065q.937-1.23 2.359-1.229.627 0 1.146.229.52.228.785.584.266.355.371.805t.104 1.291zm6.174-4.248q-.02-.833-.425-1.267a1.3 1.3 0 0 0-.984-.433q-.62 0-1.024.457-.404.458-.398 1.243zm-.108 1.94 1.887.32q-.363 1.052-1.149 1.602-.785.55-1.964.55-1.867 0-2.764-1.237-.707-.99-.707-2.499 0-1.803.929-2.824.931-1.02 2.353-1.02 1.597 0 2.521 1.068.923 1.07.883 3.274h-4.745q.02.854.458 1.329.438.474 1.092.474.445 0 .748-.246.303-.245.458-.792m11.62-1.939q-.02-.833-.425-1.267a1.3 1.3 0 0 0-.984-.433q-.62 0-1.024.457-.405.458-.398 1.243zm-.108 1.94 1.887.32q-.363 1.052-1.149 1.602-.785.55-1.965.55-1.867 0-2.763-1.237-.708-.99-.708-2.499 0-1.803.93-2.824t2.353-1.02q1.597 0 2.52 1.068.924 1.07.883 3.274h-4.744q.02.854.458 1.329.438.474 1.091.474.446 0 .749-.246.303-.245.458-.792m8.243 2.309v-1.086q-.39.58-1.027.915a2.85 2.85 0 0 1-1.345.334q-.721 0-1.294-.32a1.9 1.9 0 0 1-.829-.902q-.256-.58-.256-1.605v-4.589h1.894v3.333q0 1.53.104 1.874.105.345.381.547.276.2.701.2.485 0 .869-.269.384-.27.526-.669.142-.4.142-1.957v-3.059h1.893v7.253zm5.534 0h-1.895v-7.252h1.76v1.031q.451-.73.812-.963.36-.232.819-.232.647 0 1.246.362l-.586 1.673q-.478-.315-.889-.314-.399 0-.674.222-.278.222-.435.802-.158.581-.158 2.431zm5.061-3.627q0 1.08.506 1.653.504.573 1.247.573.74 0 1.243-.573.502-.574.502-1.666 0-1.065-.502-1.64a1.59 1.59 0 0 0-1.243-.573q-.743 0-1.247.574-.506.573-.506 1.652m-1.941-.102q0-.956.465-1.85a3.2 3.2 0 0 1 1.318-1.366 3.87 3.87 0 0 1 1.904-.472q1.624 0 2.662 1.07 1.038 1.068 1.038 2.7 0 1.645-1.048 2.728-1.048 1.082-2.639 1.082-.984 0-1.877-.45a3.07 3.07 0 0 1-1.358-1.322q-.465-.87-.465-2.12m10.691-.02q0 1.222.478 1.806.479.585 1.166.584.66 0 1.099-.536t.438-1.758q0-1.14-.452-1.694-.452-.552-1.119-.553-.695 0-1.152.543-.459.543-.458 1.608m-1.874-3.503h1.766v1.065q.343-.546.93-.887a2.54 2.54 0 0 1 1.3-.342q1.248 0 2.117.99.87.99.869 2.76 0 1.815-.876 2.823t-2.123 1.007q-.594 0-1.075-.24-.481-.237-1.014-.818v3.653h-1.894zm12.738 3.004q-.02-.833-.425-1.267a1.3 1.3 0 0 0-.984-.433q-.62 0-1.024.457-.405.458-.398 1.243zm-.108 1.94 1.887.32q-.365 1.052-1.149 1.602-.785.55-1.965.55-1.867 0-2.763-1.237-.708-.99-.708-2.499 0-1.803.93-2.824t2.353-1.02q1.597 0 2.52 1.068.924 1.07.883 3.274h-4.745q.02.854.459 1.329.438.474 1.091.474.445 0 .749-.246.303-.245.458-.792m7.481-1.175q-.364.124-1.153.294-.788.171-1.031.335-.37.267-.371.676 0 .402.297.697.297.293.755.293.512 0 .977-.341.344-.26.452-.635.074-.246.074-.936zm-2.534-1.556-1.719-.314q.29-1.052.998-1.557.707-.506 2.102-.506 1.267 0 1.888.304.62.304.872.772.253.468.253 1.717l-.02 2.24q0 .957.091 1.41.091.454.34.974h-1.873a7 7 0 0 1-.182-.567 3 3 0 0 0-.068-.226 3.4 3.4 0 0 1-1.038.717q-.552.24-1.179.24-1.106 0-1.743-.608-.636-.609-.636-1.537 0-.615.289-1.096a1.9 1.9 0 0 1 .813-.738q.522-.256 1.506-.447 1.328-.252 1.84-.471v-.191q0-.553-.269-.789-.27-.236-1.018-.236-.506 0-.789.202-.283.201-.458.707M75.88 45.156v-8.654h1.16l4.486 6.794v-6.794h1.084v8.654h-1.16l-4.486-6.8v6.8zm12.737-2.019 1.083.136q-.255.962-.95 1.493-.693.531-1.77.531-1.358 0-2.156-.844-.792-.85-.792-2.379 0-1.581.804-2.455.803-.874 2.085-.874 1.241 0 2.028.856.786.855.786 2.408 0 .095-.005.284h-4.615q.059 1.033.577 1.582.519.549 1.293.549.577 0 .985-.307.407-.308.647-.98m-3.443-1.718h3.454q-.069-.791-.396-1.186a1.6 1.6 0 0 0-1.299-.614q-.723 0-1.218.49-.49.49-.541 1.31m5.15 3.737 2.26-3.259-2.091-3.01h1.31l.95 1.47q.269.419.431.702.257-.39.472-.69l1.043-1.482h1.253l-2.138 2.951 2.3 3.318h-1.287l-1.27-1.948-.338-.526-1.625 2.474zm8.955-.951.151.939a4 4 0 0 1-.792.094q-.571 0-.886-.183a1.02 1.02 0 0 1-.443-.478q-.128-.3-.128-1.257v-3.607h-.769v-.826h.77v-1.553l1.042-.637v2.19h1.054v.826h-1.054v3.666q0 .455.052.584a.46.46 0 0 0 .181.207.7.7 0 0 0 .361.076q.175 0 .46-.04m5.162-2.445v-1.015l3.618-.006v3.211a6.4 6.4 0 0 1-1.718 1.016 5.1 5.1 0 0 1-1.818.336q-1.258 0-2.29-.543a3.6 3.6 0 0 1-1.549-1.582q-.525-1.033-.525-2.308 0-1.263.519-2.355.523-1.098 1.503-1.63.978-.53 2.255-.53.926 0 1.672.306.751.302 1.177.844.425.544.646 1.417l-1.019.284q-.193-.662-.478-1.04-.285-.377-.816-.601a2.9 2.9 0 0 0-1.177-.23q-.774 0-1.34.241a2.5 2.5 0 0 0-.914.626q-.344.39-.536.856a4.6 4.6 0 0 0-.327 1.741q0 1.158.391 1.936.395.78 1.148 1.157a3.5 3.5 0 0 0 1.596.378q.734 0 1.433-.283.7-.29 1.06-.614V41.76zm9.392 1.376 1.084.136q-.257.962-.95 1.493t-1.771.531q-1.358 0-2.156-.844-.792-.85-.792-2.379 0-1.581.804-2.455t2.086-.874q1.24 0 2.027.856.787.855.787 2.408 0 .095-.006.284h-4.614q.058 1.033.576 1.582.519.549 1.294.549.577 0 .984-.307.408-.308.647-.98m-3.443-1.718h3.455q-.07-.791-.396-1.186a1.6 1.6 0 0 0-1.3-.614q-.722 0-1.217.49-.49.49-.542 1.31m5.849 3.737v-6.27h.944v.892q.682-1.033 1.969-1.033.56 0 1.026.207.471.2.705.531.233.33.326.785.058.295.058 1.033v3.855h-1.049v-3.814q0-.648-.122-.968a1 1 0 0 0-.437-.513 1.34 1.34 0 0 0-.728-.195q-.67 0-1.159.43-.484.432-.484 1.636v3.424zm10.878-2.019 1.083.136q-.256.962-.949 1.493-.694.531-1.772.531-1.357 0-2.155-.844-.792-.85-.793-2.379 0-1.581.804-2.455t2.086-.874q1.241 0 2.028.856.786.855.786 2.408 0 .095-.006.284h-4.614q.058 1.033.577 1.582t1.293.549q.577 0 .985-.307.407-.308.647-.98m-3.444-1.718h3.455q-.069-.791-.396-1.186a1.6 1.6 0 0 0-1.299-.614q-.723 0-1.218.49-.49.49-.542 1.31m5.838 3.737v-6.27h.944v.951q.361-.667.664-.88.309-.212.676-.212.53 0 1.078.343l-.361.985a1.5 1.5 0 0 0-.769-.23q-.344 0-.618.212-.275.207-.39.579a4.2 4.2 0 0 0-.175 1.24v3.282zm8.023-.774q-.584.502-1.125.709a3.2 3.2 0 0 1-1.153.206q-1.02 0-1.568-.502-.547-.507-.547-1.292 0-.461.204-.838.21-.384.542-.614.337-.23.757-.349.309-.082.932-.159 1.27-.153 1.87-.366l.006-.277q0-.65-.297-.915-.402-.36-1.194-.36-.74 0-1.096.265-.35.26-.518.927l-1.026-.142q.14-.666.461-1.074.32-.413.926-.632.606-.224 1.404-.224.792 0 1.288.189.495.189.728.478.233.284.326.72.053.272.053.98v1.417q0 1.48.064 1.877.07.39.268.75h-1.096a2.3 2.3 0 0 1-.209-.774m-.088-2.373q-.57.237-1.713.402-.647.094-.914.212a.9.9 0 0 0-.414.349.9.9 0 0 0-.146.501q0 .426.315.709.32.282.932.283a2.16 2.16 0 0 0 1.078-.266q.472-.27.693-.738.17-.36.169-1.062zm4.982 2.196.151.939a4 4 0 0 1-.792.094q-.571 0-.886-.183a1.02 1.02 0 0 1-.443-.478q-.128-.3-.128-1.257v-3.607h-.769v-.826h.769v-1.553l1.043-.637v2.19h1.055v.826h-1.055v3.666q0 .455.052.584.059.13.181.207a.7.7 0 0 0 .361.076q.175 0 .461-.04m1.037-6.482v-1.222h1.048v1.222zm0 7.432v-6.27h1.048v6.27zm2.26-3.135q0-1.74.956-2.58.798-.696 1.946-.696 1.275 0 2.085.85.81.844.81 2.338 0 1.21-.361 1.906-.356.69-1.043 1.075a3 3 0 0 1-1.491.383q-1.3 0-2.104-.844-.798-.844-.798-2.432m1.078 0q0 1.205.519 1.806.518.597 1.305.597.78 0 1.299-.602.518-.603.518-1.836 0-1.163-.524-1.76a1.64 1.64 0 0 0-1.293-.601q-.787 0-1.305.596-.519.596-.519 1.8m5.954 3.135v-6.27h.944v.892q.682-1.033 1.969-1.033.56 0 1.026.207.471.2.705.531.233.33.326.785.058.295.058 1.033v3.855h-1.049v-3.814q0-.648-.122-.968a1 1 0 0 0-.437-.513 1.34 1.34 0 0 0-.728-.195q-.67 0-1.159.43-.484.432-.484 1.636v3.424zm6.799 0v-8.654h6.176v1.021h-5.045v2.65h4.725v1.016h-4.725v2.945h5.243v1.022zm13.54-8.654h1.13v5q0 1.304-.291 2.072-.291.767-1.054 1.251-.757.478-1.993.478-1.2 0-1.963-.419a2.4 2.4 0 0 1-1.09-1.21q-.326-.797-.326-2.172v-5h1.13v4.994q0 1.127.204 1.664.21.532.711.82.507.29 1.235.29 1.247 0 1.777-.573.53-.572.53-2.201z"/></g><defs><clipPath id="a"><path fill="#fff" d="M0 0h206v48H0z"/></clipPath></defs></svg>