<svg xmlns="http://www.w3.org/2000/svg" width="164" height="46" fill="none" viewBox="0 0 164 46"><g fill="#fff" clip-path="url(#a)"><path d="M164 3.24v31.746h-5.165v-4.14a15.73 15.73 0 0 1-10.653 4.14c-5.538 0-10.411-2.855-13.237-7.178a15.83 15.83 0 0 0 2.583-8.695c0-3.21-.949-6.198-2.582-8.696 2.825-4.323 7.698-7.178 13.236-7.178 4.103 0 7.842 1.568 10.653 4.14v-4.14zm-15.818 5.182c-5.884 0-10.654 4.787-10.654 10.69 0 5.905 4.77 10.69 10.654 10.69 5.883 0 10.653-4.785 10.653-10.69 0-5.903-4.77-10.69-10.653-10.69M5.165 3.24v4.139a15.73 15.73 0 0 1 10.654-4.14c5.537 0 10.41 2.855 13.236 7.178a15.83 15.83 0 0 0-2.583 8.696c0 3.21.95 6.197 2.582 8.695-2.825 4.323-7.698 7.178-13.235 7.178a15.73 15.73 0 0 1-10.654-4.14v13.21H0V3.24zM15.82 8.421c-5.884 0-10.654 4.787-10.654 10.69 0 5.905 4.77 10.69 10.654 10.69 5.883 0 10.653-4.785 10.653-10.69 0-5.903-4.77-10.69-10.653-10.69" opacity=".4"/><path d="M58.11 3.24v4.154a15.9 15.9 0 0 0-5.165 11.757c0 4.659 1.991 8.849 5.165 11.758v4.077h-5.165v-4.14a15.73 15.73 0 0 1-10.654 4.14c-8.736 0-15.818-7.107-15.818-15.873 0-8.767 7.082-15.874 15.818-15.874a15.73 15.73 0 0 1 10.654 4.14v-4.14zM42.29 8.421c-5.883 0-10.653 4.787-10.653 10.69 0 5.905 4.77 10.69 10.653 10.69s10.654-4.785 10.654-10.69c0-5.903-4.77-10.69-10.654-10.69m68.765-5.181.001 4.138a15.73 15.73 0 0 1 10.653-4.139c8.736 0 15.818 7.107 15.818 15.874s-7.082 15.873-15.818 15.873a15.73 15.73 0 0 1-10.653-4.14l-.001 13.21h-5.165v-13.21a15.86 15.86 0 0 0 5.165-11.733c0-4.65-1.992-8.831-5.165-11.734v-4.14zm10.654 5.182c-5.884 0-10.654 4.787-10.654 10.69 0 5.905 4.77 10.69 10.654 10.69 5.883 0 10.653-4.785 10.653-10.69 0-5.903-4.77-10.69-10.653-10.69" opacity=".7"/><path d="M84.583 0v7.378l.218-.194a15.73 15.73 0 0 1 10.436-3.945c8.736 0 15.819 7.107 15.819 15.874s-7.083 15.873-15.82 15.873a15.73 15.73 0 0 1-10.653-4.14v4.21c0 4.044-1.611 7.843-4.44 10.734l-.209.21-3.616-3.709c1.922-1.894 3.027-4.352 3.096-6.972l.004-.262v-4.148a15.7 15.7 0 0 1-10.654 4.148c-8.736 0-15.819-7.121-15.819-15.906s7.083-15.905 15.82-15.905c4.103 0 7.842 1.571 10.653 4.148V0zM68.764 8.44c-5.884 0-10.653 4.796-10.653 10.711 0 5.916 4.77 10.712 10.653 10.712s10.654-4.796 10.654-10.712S74.648 8.44 68.764 8.44m26.473-.017c-5.884 0-10.654 4.786-10.654 10.69s4.77 10.69 10.654 10.69c5.883 0 10.653-4.786 10.653-10.69s-4.77-10.69-10.653-10.69"/></g><defs><clipPath id="a"><path fill="#fff" d="M0 0h164v46H0z"/></clipPath></defs></svg>