<svg width="40" height="40" viewBox="0 0 40 40" fill="none" xmlns="http://www.w3.org/2000/svg">
<path d="M26.2974 4.01446C26.3228 1.97022 25.6555 1.32113 23.6567 1.25022C5.92099 0.605977 7.60644 0.668402 6.99069 0.641735C5.25069 0.561735 2.33917 0.41022 2.2525 2.84961C2.23069 3.45628 1.42099 38.2199 1.69069 39.1726C1.72826 39.303 1.84705 39.3933 1.98281 39.3933H38.0622C38.2349 39.3933 38.3689 39.2508 38.3652 39.0836C38.2822 35.2611 38.2022 28.1866 38.1216 24.4999C38.0725 22.7036 37.4943 22.0733 35.681 22.1369L35.3192 22.1478C35.3325 21.7708 35.3361 21.4429 35.3398 21.1163C35.344 20.709 35.3483 20.3011 35.3725 19.7896C35.381 19.6145 35.241 19.472 35.0701 19.472C35.0695 19.472 35.0683 19.472 35.0683 19.472C35.007 19.4726 29.2071 19.5205 26.081 19.4611C26.1519 14.312 26.224 9.16174 26.2974 4.01446ZM25.001 38.7872H2.22159C2.06826 37.9987 2.89978 1.69204 2.85856 2.87143C2.92159 1.09204 5.10523 1.15931 6.9622 1.24719L23.6355 1.85507C25.3392 1.91689 25.7125 2.3387 25.6919 4.00598C25.1858 39.4175 25.3077 37.6023 25.001 38.7872ZM35.7004 22.7429C37.1186 22.6926 37.4755 23.0187 37.5149 24.5145C37.5919 28.0454 37.6731 34.9405 37.7525 38.7872H25.6337C25.881 37.7054 25.8204 37.8854 26.0313 23.0308L35.7004 22.7429ZM31.0513 22.2751L31.2767 22.0496L31.4889 22.2617L31.0513 22.2751ZM33.9986 22.1872L34.7295 21.4563C34.7264 21.6787 34.721 21.9114 34.7119 22.166L33.9986 22.1872ZM34.7537 20.0811V20.0872C34.7428 20.0939 34.7295 20.092 34.7204 20.1011L34.1034 20.7175C34.044 20.7769 34.044 20.8726 34.1034 20.932C34.1622 20.9908 34.258 20.9914 34.318 20.932L34.7434 20.5066C34.7392 20.7139 34.7361 20.9139 34.7343 21.1096C34.7337 21.1508 34.7331 21.192 34.7331 21.2333C34.6737 21.1775 34.581 21.1769 34.5234 21.2351L33.718 22.0405C33.7131 22.0096 33.7058 21.9787 33.6822 21.9551L33.1683 21.4411L33.7604 20.849C33.8198 20.7896 33.8198 20.6939 33.7604 20.6345C33.701 20.5751 33.6052 20.5751 33.5458 20.6345L32.9537 21.2266L32.6907 20.9636C32.6313 20.9042 32.5355 20.9042 32.4761 20.9636C32.4167 21.0229 32.4167 21.1187 32.4761 21.1781L32.7392 21.4411L32.2301 21.9502C32.1707 22.0096 32.1707 22.1054 32.2301 22.1648C32.2889 22.2236 32.3846 22.2242 32.4446 22.1648L32.9537 21.6557L33.4677 22.1696C33.4889 22.1908 33.5167 22.1951 33.5434 22.2011L31.861 22.2514C31.8555 22.2236 31.8501 22.1945 31.8289 22.1733L31.4919 21.8363L32.3198 21.0084C32.3792 20.949 32.3792 20.8533 32.3198 20.7939C32.2604 20.7345 32.1646 20.7345 32.1058 20.7939L31.2774 21.6217L31.1137 21.4581C31.0549 21.3993 30.9592 21.3981 30.8998 21.4581C30.8404 21.5175 30.8404 21.6133 30.8998 21.6726L31.0634 21.8363C31.0034 21.8963 30.6743 22.2126 30.6355 22.2884L30.3943 22.2957C30.4083 22.2884 30.4252 22.2896 30.4374 22.2781C30.4967 22.2187 30.4967 22.1229 30.4374 22.0636L30.0786 21.7048C30.0192 21.6454 29.9234 21.6454 29.8646 21.7048C29.8052 21.7642 29.8052 21.8599 29.8646 21.9193L30.2234 22.2781C30.2374 22.2926 30.2574 22.292 30.2749 22.2993L29.2234 22.3308L30.4355 21.1187C30.4949 21.0593 30.4949 20.9636 30.4355 20.9042C30.3761 20.8448 30.2804 20.8448 30.221 20.9042L28.9361 22.189L28.6986 21.9514C28.6392 21.892 28.5434 21.892 28.484 21.9514C28.4246 22.0108 28.4246 22.1066 28.484 22.166L28.6652 22.3472L26.0392 22.4242C26.0501 21.6381 26.0616 20.8533 26.0725 20.0672C28.7834 20.1193 33.4907 20.0908 34.7537 20.0811Z" fill="#1A1A1A"/>
<path d="M4.90316 9.24803C5.96135 9.25894 6.9868 9.36985 8.0668 9.38136H8.06983C8.20316 9.38136 8.32074 9.29409 8.36013 9.16621C8.65771 8.18803 8.75286 7.23288 8.65832 6.15954C8.64741 6.03773 8.56498 5.93409 8.44862 5.89712C7.24135 5.51166 5.97832 5.61106 4.90195 5.76015C4.75286 5.78076 4.64135 5.90621 4.63953 6.05651L4.60256 8.94136C4.60074 9.10621 4.73347 9.24621 4.90316 9.24803ZM8.06983 6.41773C8.12438 7.25833 8.05347 8.00015 7.84256 8.77106C6.96377 8.75106 6.10862 8.67106 5.21225 8.64742L5.22801 7.40015C5.23529 7.3947 5.24498 7.39651 5.25165 7.39045L5.71165 6.93106L5.97468 7.19409L5.75407 7.4153C5.69468 7.47469 5.69468 7.57045 5.75407 7.62924C5.81286 7.68803 5.90862 7.68863 5.96862 7.62924L6.18983 7.40803L6.27953 7.49773C6.33832 7.55651 6.43407 7.55712 6.49407 7.49773C6.55347 7.43833 6.55347 7.34257 6.49407 7.28379L6.40438 7.19409L6.82195 6.77651C6.88135 6.71712 6.88135 6.62136 6.82195 6.56197C6.76256 6.50257 6.6668 6.50257 6.60801 6.56197L6.19044 6.98015L5.92741 6.71712L6.34983 6.2953C6.36377 6.28136 6.36316 6.26197 6.37104 6.245C6.93286 6.23045 7.50922 6.26621 8.06983 6.41773ZM5.55044 6.34076C5.52619 6.31651 5.49407 6.30924 5.46316 6.30439C5.62619 6.28621 5.78862 6.26863 5.9565 6.25712L5.71165 6.50197L5.55044 6.34076ZM5.41104 6.30985C5.38438 6.31591 5.3565 6.32015 5.33589 6.34076C5.2765 6.40015 5.2765 6.49591 5.33589 6.5553L5.4971 6.71651L5.23347 6.98015L5.24195 6.32682C5.2971 6.31954 5.35529 6.31591 5.41104 6.30985Z" fill="#1A1A1A"/>
<path d="M9.94652 9.24803C11.0041 9.25894 12.0308 9.36985 13.1108 9.38136H13.1138C13.2471 9.38136 13.3647 9.29409 13.4041 9.16621C13.7011 8.18985 13.7956 7.23409 13.7023 6.15954C13.6914 6.03773 13.6089 5.93409 13.4926 5.89712C12.2841 5.51166 11.0217 5.61106 9.9453 5.76015C9.79682 5.78076 9.6853 5.90621 9.68349 6.05651L9.64652 8.94136C9.64409 9.10621 9.77682 9.24621 9.94652 9.24803ZM10.5283 6.34076C10.5077 6.32015 10.4805 6.31591 10.4538 6.30985C10.6102 6.29227 10.7677 6.2747 10.9295 6.26257L10.6895 6.50257L10.5283 6.34076ZM13.1138 6.41773C13.1689 7.25954 13.0974 8.00136 12.8871 8.77166C12.0077 8.75166 11.1532 8.67166 10.2568 8.64803L10.2732 7.34742L10.6895 6.93106L10.952 7.19409L10.7308 7.4153C10.6714 7.47469 10.6714 7.57045 10.7308 7.62924C10.7908 7.68924 10.8865 7.68742 10.9453 7.62924L11.1665 7.40803L11.2562 7.49773C11.315 7.55651 11.4108 7.55712 11.4708 7.49773C11.5302 7.43833 11.5302 7.34257 11.4708 7.28379L11.3811 7.19409L11.7992 6.77591C11.8586 6.71651 11.8586 6.62076 11.7992 6.56136C11.7405 6.50257 11.6447 6.50197 11.5847 6.56136L11.1665 6.97954L10.9035 6.71651L11.3259 6.29409C11.3392 6.28076 11.3386 6.26197 11.3459 6.2456C11.9308 6.22742 12.5314 6.26015 13.1138 6.41773ZM10.2786 6.91288L10.2841 6.48318C10.3053 6.56439 10.4065 6.64742 10.475 6.71651L10.2786 6.91288ZM10.3677 6.31833C10.3102 6.34136 10.3095 6.31954 10.2847 6.41045L10.2859 6.32682C10.3126 6.32318 10.3411 6.32197 10.3677 6.31833Z" fill="#1A1A1A"/>
<path d="M14.9891 9.24803C16.0485 9.25894 17.0727 9.36985 18.1533 9.38136H18.1564C18.2897 9.38136 18.4073 9.29409 18.4467 9.16621C18.7436 8.18985 18.8382 7.23409 18.7449 6.15954C18.734 6.03773 18.6515 5.93409 18.5352 5.89712C17.3267 5.51166 16.0643 5.61106 14.9879 5.76015C14.8394 5.78076 14.7279 5.90621 14.7261 6.05651L14.6885 8.94136C14.6867 9.10621 14.82 9.24621 14.9891 9.24803ZM15.3243 6.69591L15.3449 6.71651L15.3236 6.73773L15.3243 6.69591ZM15.3976 6.34076C15.3861 6.32924 15.3703 6.33106 15.3564 6.32379C15.4939 6.30682 15.637 6.2947 15.7794 6.28136L15.5588 6.50197L15.3976 6.34076ZM18.1564 6.41773C18.2115 7.25954 18.14 8.00136 17.9297 8.77166C17.0509 8.75166 16.197 8.67166 15.2994 8.64803L15.3182 7.17166L15.5594 6.93106L15.8224 7.19409L15.6018 7.4153C15.5424 7.47469 15.5424 7.57045 15.6018 7.62924C15.6606 7.68803 15.7564 7.68863 15.8164 7.62924L16.0376 7.40803L16.1273 7.49773C16.1861 7.55651 16.2818 7.55712 16.3418 7.49773C16.4012 7.43833 16.4012 7.34257 16.3418 7.28379L16.2521 7.19409L16.6697 6.77651C16.7291 6.71712 16.7291 6.62136 16.6697 6.56197C16.6103 6.50257 16.5146 6.50257 16.4552 6.56197L16.0376 6.98015L15.7746 6.71712L16.197 6.2953C16.2085 6.28379 16.2073 6.26682 16.2146 6.25288C16.8521 6.21894 17.5158 6.24439 18.1564 6.41773Z" fill="#1A1A1A"/>
<path d="M20.033 9.24803C21.0918 9.25894 22.1167 9.36985 23.1967 9.38136H23.1997C23.333 9.38136 23.4506 9.29409 23.49 9.16621C23.7876 8.18803 23.8821 7.23288 23.7882 6.15954C23.7779 6.03773 23.6949 5.93409 23.5785 5.89712C22.3718 5.51166 21.1082 5.61106 20.0312 5.76015C19.8827 5.78076 19.7712 5.90621 19.7694 6.05651L19.7324 8.94136C19.7306 9.10621 19.864 9.24621 20.033 9.24803ZM20.3676 6.6953L20.3888 6.71651L20.367 6.73833L20.3676 6.6953ZM20.4415 6.34076C20.43 6.32924 20.4143 6.33045 20.4003 6.32379C20.5379 6.30682 20.6815 6.2947 20.8234 6.28136L20.6027 6.50197L20.4415 6.34076ZM23.2003 6.41773C23.2549 7.25833 23.184 8.00015 22.973 8.77106C22.0943 8.75106 21.2397 8.67106 20.3427 8.64742L20.3615 7.17166L20.6027 6.93045L20.8652 7.19348L20.644 7.4147C20.5846 7.47409 20.5846 7.56985 20.644 7.62863C20.704 7.68863 20.7997 7.68682 20.8585 7.62863L21.0797 7.40742L21.1694 7.49712C21.2282 7.55591 21.324 7.55651 21.384 7.49712C21.4434 7.43773 21.4434 7.34197 21.384 7.28318L21.2943 7.19348L21.7124 6.7753C21.7718 6.71591 21.7718 6.62015 21.7124 6.56076C21.6537 6.50197 21.5579 6.50136 21.4979 6.56076L21.0797 6.97894L20.8167 6.71591L21.2391 6.29348C21.2506 6.28197 21.2494 6.265 21.2567 6.25106C21.8961 6.21894 22.5591 6.24439 23.2003 6.41773Z" fill="#1A1A1A"/>
<path d="M23.5231 11.2027C22.4631 11.1918 21.4455 11.0802 20.3589 11.0693C20.2104 11.0918 20.1055 11.1554 20.0661 11.2839C19.7692 12.2602 19.6746 13.216 19.768 14.2912C19.7789 14.413 19.8613 14.5166 19.9777 14.5536C21.1267 14.9196 22.3286 14.8554 23.5249 14.6905C23.6734 14.6699 23.7849 14.5445 23.7867 14.3942L23.8243 11.5093C23.8255 11.3439 23.6928 11.2045 23.5231 11.2027ZM20.5952 11.6796C20.6001 11.6796 20.6049 11.6802 20.6098 11.6802L20.6025 11.6875L20.5952 11.6796ZM21.0189 11.699C21.197 11.7069 21.3746 11.7142 21.5516 11.7239C21.5334 11.7312 21.5128 11.7312 21.4977 11.7463L21.0795 12.1645L20.8164 11.9015L21.0189 11.699ZM23.1837 14.1239C22.2952 14.2348 21.2989 14.2869 20.3564 14.033C20.3158 13.4075 20.3455 12.8378 20.4492 12.2699L20.6031 12.116L20.8661 12.379L20.6449 12.6002C20.5855 12.6596 20.5855 12.7554 20.6449 12.8148C20.7049 12.8748 20.8007 12.873 20.8595 12.8148L21.0807 12.5936L21.1704 12.6833C21.2292 12.7421 21.3249 12.7427 21.3849 12.6833C21.4443 12.6239 21.4443 12.5281 21.3849 12.4687L21.2952 12.379L21.7134 11.9609C21.7728 11.9015 21.7728 11.8057 21.7134 11.7463C21.7025 11.7354 21.6867 11.7366 21.6734 11.7299C22.0898 11.7542 22.8092 11.7924 23.214 11.8033L23.1837 14.1239Z" fill="#1A1A1A"/>
<path d="M18.4801 11.2027C17.4195 11.1924 16.4013 11.0802 15.3159 11.0693C15.1729 11.0918 15.0626 11.1554 15.0232 11.2839C14.7262 12.2602 14.6317 13.216 14.725 14.2912C14.7359 14.413 14.8183 14.5166 14.9347 14.5536C16.0838 14.9196 17.2856 14.8554 18.4813 14.6905C18.6298 14.6699 18.7413 14.5445 18.7432 14.3942L18.7807 11.5093C18.7826 11.3439 18.6492 11.2045 18.4801 11.2027ZM15.551 11.6796C15.5559 11.6796 15.5607 11.6802 15.5656 11.6802L15.5583 11.6875L15.551 11.6796ZM15.9753 11.699C16.1535 11.7063 16.331 11.7142 16.508 11.7239C16.4898 11.7312 16.4692 11.7312 16.4541 11.7463L16.0365 12.1645L15.7735 11.9015L15.9753 11.699ZM18.1401 14.1239C17.2517 14.2348 16.2553 14.2869 15.3129 14.033C15.2717 13.4075 15.3013 12.8372 15.4056 12.2693L15.5589 12.116L15.822 12.379L15.6013 12.6002C15.542 12.6596 15.542 12.7554 15.6013 12.8148C15.6601 12.8736 15.7559 12.8742 15.8159 12.8148L16.0371 12.5936L16.1268 12.6833C16.1856 12.7421 16.2813 12.7427 16.3413 12.6833C16.4007 12.6239 16.4007 12.5281 16.3413 12.4687L16.2517 12.379L16.6692 11.9609C16.7286 11.9015 16.7286 11.8057 16.6692 11.7463C16.6583 11.7354 16.642 11.7366 16.6292 11.7299C17.0644 11.7548 17.7789 11.793 18.171 11.8033L18.1401 14.1239Z" fill="#1A1A1A"/>
<path d="M13.4369 11.2027C12.3775 11.1924 11.3581 11.0802 10.2733 11.0693C10.1345 11.0918 10.0193 11.1554 9.98053 11.2839C9.68296 12.2621 9.58841 13.2178 9.68235 14.2912C9.69266 14.413 9.77569 14.5166 9.89205 14.5536C11.0393 14.919 12.2417 14.856 13.4393 14.6905C13.5878 14.6699 13.6993 14.5445 13.7011 14.3942L13.7381 11.5093C13.7393 11.3439 13.606 11.2045 13.4369 11.2027ZM10.4514 11.8772L10.4757 11.9015L10.4369 11.9396C10.4417 11.919 10.4466 11.8984 10.4514 11.8772ZM11.0981 11.7069C11.2721 11.7154 11.4478 11.7215 11.6211 11.7312C11.6096 11.7378 11.5951 11.736 11.5848 11.7463L11.1666 12.1645L10.9036 11.9015L11.0981 11.7069ZM13.0975 14.1239C12.2084 14.2336 11.2127 14.2875 10.2696 14.033C10.2339 13.4815 10.2581 12.9736 10.3345 12.4712L10.6896 12.116L10.9527 12.379L10.7314 12.6002C10.672 12.6596 10.672 12.7554 10.7314 12.8148C10.7914 12.8748 10.8872 12.873 10.946 12.8148L11.1672 12.5936L11.2569 12.6833C11.3157 12.7421 11.4114 12.7427 11.4714 12.6833C11.5308 12.6239 11.5308 12.5281 11.4714 12.4687L11.3817 12.379L11.7999 11.9609C11.8593 11.9015 11.8593 11.8057 11.7999 11.7463C11.7951 11.7415 11.7872 11.7427 11.7817 11.739C11.7993 11.7402 11.8175 11.7402 11.8351 11.7415C12.263 11.7669 12.6914 11.7918 13.1278 11.8033L13.0975 14.1239Z" fill="#1A1A1A"/>
<path d="M8.39347 11.2027C7.33407 11.1924 6.31468 11.0802 5.22983 11.0693C5.0965 11.0918 4.97589 11.1554 4.9371 11.2839C4.63953 12.2602 4.54438 13.216 4.63832 14.2912C4.64922 14.413 4.73165 14.5166 4.84801 14.5536C5.99529 14.919 7.19832 14.856 8.39589 14.6905C8.54438 14.6699 8.65589 14.5439 8.65771 14.3942L8.69468 11.5093C8.6965 11.3439 8.56316 11.2045 8.39347 11.2027ZM5.42074 11.8239L5.49832 11.9015L5.37468 12.0251C5.38922 11.9584 5.40377 11.8912 5.42074 11.8239ZM6.11832 11.7099C6.29104 11.7184 6.46498 11.7239 6.6371 11.7342C6.62741 11.7402 6.61589 11.7384 6.60741 11.7463L6.18983 12.1645L5.9268 11.9015L6.11832 11.7099ZM8.05468 14.1239C7.16559 14.2342 6.16922 14.2869 5.2268 14.033C5.19225 13.5093 5.21347 13.0251 5.28013 12.5481L5.71225 12.116L5.97529 12.379L5.75468 12.6002C5.69529 12.6596 5.69529 12.7554 5.75468 12.8148C5.81347 12.8736 5.90922 12.8742 5.96922 12.8148L6.19044 12.5936L6.28013 12.6833C6.33892 12.7421 6.43468 12.7427 6.49468 12.6833C6.55407 12.6239 6.55407 12.5281 6.49468 12.4687L6.40498 12.379L6.82256 11.9609C6.88195 11.9015 6.88195 11.8057 6.82256 11.7463C6.82013 11.7439 6.81589 11.7445 6.81286 11.7421C7.23407 11.7669 7.65589 11.7912 8.08498 11.8027L8.05468 14.1239Z" fill="#1A1A1A"/>
<path d="M4.90355 20.1293C5.96294 20.1403 6.98234 20.2518 8.06719 20.2627H8.07022C8.20355 20.2627 8.32112 20.1754 8.36052 20.0481C8.65809 19.0699 8.75325 18.1148 8.6587 17.0415C8.64779 16.9196 8.56537 16.816 8.449 16.779C7.24355 16.3936 5.97931 16.493 4.90234 16.6415C4.75385 16.6621 4.64234 16.7875 4.64052 16.9378L4.60355 19.8227C4.60112 19.9875 4.73385 20.1275 4.90355 20.1293ZM7.84294 19.653C6.96112 19.633 6.11749 19.553 5.21264 19.5287L5.23264 17.9506C5.2387 17.9463 5.24658 17.9481 5.25203 17.9427L5.71143 17.4833L5.97446 17.7463L5.75385 17.9675C5.69446 18.0269 5.69446 18.1227 5.75385 18.1821C5.81264 18.2409 5.9084 18.2415 5.9684 18.1821L6.18961 17.9609L6.27931 18.0506C6.33809 18.1093 6.43385 18.1099 6.49385 18.0506C6.55325 17.9912 6.55325 17.8954 6.49385 17.836L6.40415 17.7463L6.82173 17.3281C6.87688 17.273 6.87506 17.1887 6.82779 17.1293C7.24355 17.1445 7.66173 17.1893 8.07022 17.2996C8.12476 18.1396 8.05385 18.8815 7.84294 19.653ZM6.05931 17.1354C6.23931 17.1251 6.41991 17.1166 6.60294 17.1178L6.18961 17.5318L5.92658 17.2687L6.05931 17.1354ZM5.41931 17.1906L5.49749 17.2687L5.23809 17.5281L5.24234 17.2081C5.29991 17.2009 5.36112 17.1972 5.41931 17.1906Z" fill="#1A1A1A"/>
<path d="M9.94652 20.1298C11.0065 20.1407 12.0241 20.2522 13.1108 20.2631H13.1138C13.2471 20.2631 13.3647 20.1759 13.4041 20.0486C13.7011 19.0722 13.7956 18.1171 13.7023 17.0419C13.6914 16.9201 13.6089 16.8165 13.4926 16.7795C12.2847 16.3934 11.0223 16.4928 9.9453 16.6419C9.79682 16.6625 9.6853 16.788 9.68349 16.9383L9.64652 19.8231C9.64409 19.988 9.77682 20.128 9.94652 20.1298ZM10.4029 17.1971L10.475 17.2692L10.2829 17.4613L10.2859 17.2086C10.3241 17.2037 10.3647 17.2013 10.4029 17.1971ZM11.578 17.1207L11.1665 17.5322L10.9035 17.2692L11.0344 17.1383C11.2138 17.1268 11.3956 17.1213 11.578 17.1207ZM12.8865 19.6534C12.0047 19.6334 11.1611 19.5534 10.2562 19.5292L10.2768 17.8953L10.6889 17.4831L10.952 17.7462L10.7308 17.9674C10.6714 18.0268 10.6714 18.1225 10.7308 18.1819C10.7908 18.2419 10.8865 18.2401 10.9453 18.1819L11.1665 17.9613L11.2562 18.051C11.315 18.1098 11.4108 18.1104 11.4708 18.051C11.5302 17.9916 11.5302 17.8959 11.4708 17.8365L11.3811 17.7468L11.7992 17.3286C11.8556 17.2722 11.8544 17.1849 11.8041 17.1256C12.2417 17.1371 12.6835 17.1837 13.1138 17.3001C13.1683 18.1413 13.0968 18.8831 12.8865 19.6534Z" fill="#1A1A1A"/>
<path d="M14.9891 20.1298C16.0497 20.1407 17.0679 20.2522 18.1533 20.2631H18.1564C18.2897 20.2631 18.4073 20.1759 18.4467 20.0486C18.7436 19.0722 18.8382 18.1171 18.7449 17.0419C18.734 16.9201 18.6515 16.8165 18.5352 16.7795C17.3273 16.3934 16.0649 16.4928 14.9879 16.6419C14.8394 16.6625 14.7279 16.788 14.7261 16.9383L14.6885 19.8231C14.6867 19.988 14.82 20.128 14.9891 20.1298ZM15.3285 17.2528L15.3449 17.2692L15.3279 17.2862L15.3285 17.2528ZM16.4418 17.1268L16.0364 17.5322L15.7733 17.2692L15.8897 17.1528C16.0709 17.1377 16.2552 17.131 16.4418 17.1268ZM18.1564 17.2995C18.2115 18.1413 18.14 18.8831 17.9297 19.6534C17.0485 19.6334 16.2055 19.5534 15.2994 19.5292L15.3224 17.7195L15.5588 17.4831L15.8218 17.7462L15.6012 17.9674C15.5418 18.0268 15.5418 18.1225 15.6012 18.1819C15.66 18.2407 15.7558 18.2413 15.8158 18.1819L16.037 17.9607L16.1267 18.0504C16.1855 18.1092 16.2812 18.1098 16.3412 18.0504C16.4006 17.991 16.4006 17.8953 16.3412 17.8359L16.2515 17.7462L16.6691 17.328C16.7267 17.2704 16.7261 17.1783 16.6709 17.1189C17.1655 17.1207 17.6673 17.168 18.1564 17.2995Z" fill="#1A1A1A"/>
<path d="M20.033 20.1293C21.0924 20.1403 22.1118 20.2518 23.1967 20.2627H23.1997C23.333 20.2627 23.4506 20.1754 23.49 20.0481C23.7876 19.0699 23.8821 18.1148 23.7882 17.0415C23.7779 16.9196 23.6949 16.816 23.5785 16.779C22.373 16.3936 21.1094 16.493 20.0312 16.6415C19.8827 16.6621 19.7712 16.7875 19.7694 16.9378L19.7324 19.8227C19.7306 19.9875 19.864 20.1275 20.033 20.1293ZM20.3718 17.2518L20.3888 17.2687L20.3712 17.2857L20.3718 17.2518ZM21.4858 17.1257L21.0797 17.5312L20.8167 17.2681L20.933 17.1518C21.1155 17.1372 21.2997 17.1306 21.4858 17.1257ZM23.2003 17.2996C23.2549 18.1403 23.184 18.8821 22.973 19.653C22.0912 19.633 21.2476 19.553 20.3427 19.5287L20.3658 17.7196L20.6027 17.4827L20.8658 17.7457L20.6446 17.9669C20.5852 18.0263 20.5852 18.1221 20.6446 18.1815C20.7046 18.2415 20.8003 18.2396 20.8591 18.1815L21.0803 17.9609L21.17 18.0506C21.2288 18.1093 21.3246 18.1099 21.3846 18.0506C21.444 17.9912 21.444 17.8954 21.3846 17.836L21.2949 17.7463L21.713 17.3281C21.7712 17.2699 21.7706 17.1784 21.7155 17.1184C22.2094 17.1203 22.7112 17.1675 23.2003 17.2996Z" fill="#1A1A1A"/>
<path d="M23.5231 22.0843C22.7722 22.077 22.1116 22.0219 21.2607 21.98C21.2843 21.9249 21.2843 21.8625 21.2395 21.817C21.1801 21.7576 21.0843 21.7576 21.0249 21.817L20.8758 21.9661C20.7043 21.96 20.5334 21.9522 20.3589 21.9503C20.2104 21.9728 20.1055 22.0364 20.0661 22.1649C19.7692 23.1412 19.6746 24.097 19.768 25.1716C19.7789 25.2934 19.8613 25.397 19.9777 25.434C21.131 25.8019 22.3383 25.7352 23.5249 25.5709C23.6734 25.5503 23.7849 25.4249 23.7867 25.2746L23.8243 22.3897C23.8255 22.2261 23.6928 22.0861 23.5231 22.0843ZM21.2067 22.5897L21.0795 22.7164L20.9401 22.577C21.0298 22.5812 21.1183 22.5855 21.2067 22.5897ZM23.1837 25.0061C22.2946 25.1164 21.2995 25.1691 20.3564 24.9152C20.3055 24.134 20.3686 23.4382 20.5455 22.7267L20.6031 22.6691L20.8661 22.9322L20.6449 23.1534C20.5855 23.2128 20.5855 23.3085 20.6449 23.3679C20.7049 23.4279 20.8007 23.4261 20.8595 23.3679L21.0807 23.1467L21.1704 23.2364C21.2292 23.2952 21.3249 23.2958 21.3849 23.2364C21.4443 23.177 21.4443 23.0812 21.3849 23.0219L21.2952 22.9322L21.6176 22.6103C22.0273 22.6334 22.8061 22.6752 23.2146 22.6861L23.1837 25.0061Z" fill="#1A1A1A"/>
<path d="M18.4801 22.0843C17.728 22.077 17.0686 22.0219 16.2171 21.98C16.2401 21.9249 16.2407 21.8625 16.1959 21.817C16.1365 21.7576 16.0407 21.7576 15.9813 21.817L15.8323 21.9661C15.6607 21.96 15.4898 21.9522 15.3159 21.9503C15.1729 21.9728 15.0626 22.0364 15.0232 22.1649C14.7262 23.1412 14.6317 24.097 14.725 25.1716C14.7359 25.2934 14.8183 25.397 14.9347 25.434C16.0941 25.8037 17.305 25.7334 18.4813 25.5709C18.6298 25.5503 18.7413 25.4249 18.7432 25.2746L18.7807 22.3903C18.782 22.3097 18.7504 22.2322 18.6941 22.1746C18.6377 22.1182 18.5607 22.0855 18.4801 22.0843ZM16.1632 22.5897L16.0365 22.7164L15.8971 22.577C15.9862 22.5812 16.0747 22.5855 16.1632 22.5897ZM18.1401 25.0055C17.2529 25.1164 16.2565 25.1697 15.3129 24.9146C15.262 24.1328 15.325 23.437 15.502 22.7249L15.5589 22.6679L15.822 22.9309L15.6007 23.1522C15.5413 23.2116 15.5413 23.3073 15.6007 23.3667C15.6595 23.4255 15.7553 23.4261 15.8153 23.3667L16.0365 23.1455L16.1262 23.2352C16.185 23.2934 16.2807 23.2952 16.3407 23.2352C16.4001 23.1758 16.4001 23.08 16.3407 23.0206L16.251 22.9309L16.5729 22.6091C16.9838 22.6328 17.7601 22.674 18.1704 22.6849L18.1401 25.0055Z" fill="#1A1A1A"/>
<path d="M13.4365 22.0837C12.7765 22.077 12.2293 22.0358 11.3432 21.9891C11.3723 21.9322 11.3729 21.8643 11.3256 21.817C11.2662 21.7576 11.1705 21.7576 11.1111 21.817L10.9571 21.9709C10.7305 21.9612 10.5032 21.9528 10.2723 21.9503C10.1335 21.9728 10.0183 22.0364 9.97956 22.1649C9.68198 23.1431 9.58744 24.0982 9.68138 25.1716C9.69168 25.2934 9.77471 25.397 9.89107 25.434C11.0414 25.8012 12.2505 25.7346 13.4383 25.5709C13.5868 25.5503 13.6983 25.4249 13.7002 25.2746L13.7371 22.3903C13.739 22.2255 13.6056 22.0855 13.4365 22.0837ZM11.2856 22.597L11.1662 22.7164L11.0353 22.5855C11.119 22.5891 11.2026 22.5928 11.2856 22.597ZM13.0971 25.0049C12.2099 25.1158 11.2135 25.1691 10.2693 24.914C10.2238 24.2158 10.2711 23.5855 10.4068 22.9497L10.6893 22.6679L10.9523 22.9309L10.7311 23.1522C10.6717 23.2116 10.6717 23.3073 10.7311 23.3667C10.7911 23.4267 10.8868 23.4249 10.9456 23.3667L11.1668 23.1455L11.2565 23.2352C11.3153 23.294 11.4111 23.2946 11.4711 23.2352C11.5305 23.1758 11.5305 23.08 11.4711 23.0206L11.3814 22.9309L11.6959 22.6164C12.1323 22.6419 12.7214 22.674 13.1274 22.6843L13.0971 25.0049Z" fill="#1A1A1A"/>
<path d="M8.39347 22.0843C7.76862 22.0782 7.24074 22.0406 6.36438 21.9928C6.39529 21.9352 6.3971 21.8655 6.34862 21.817C6.28922 21.7576 6.19347 21.7576 6.13407 21.817L5.97832 21.9728C5.73104 21.9619 5.48195 21.9528 5.22983 21.9503C5.0965 21.9728 4.97589 22.0364 4.9371 22.1649C4.63953 23.1412 4.54438 24.0964 4.63832 25.1716C4.64922 25.2934 4.73165 25.397 4.84801 25.434C5.99832 25.8012 7.20316 25.7352 8.39589 25.5709C8.54438 25.5503 8.65589 25.4243 8.65771 25.2746L8.69468 22.3903C8.6965 22.2261 8.56316 22.0861 8.39347 22.0843ZM6.30619 22.6006L6.18983 22.717L6.06195 22.5891C6.14316 22.5934 6.22498 22.5964 6.30619 22.6006ZM8.05468 25.0055C7.16559 25.1164 6.16922 25.1691 5.2268 24.9146C5.18316 24.2467 5.22256 23.6419 5.34498 23.0358L5.71286 22.6679L5.97589 22.9309L5.75468 23.1522C5.69529 23.2116 5.69529 23.3073 5.75468 23.3667C5.81347 23.4255 5.90922 23.4261 5.96922 23.3667L6.19044 23.1455L6.28013 23.2352C6.33832 23.2934 6.43468 23.2952 6.49468 23.2352C6.55407 23.1758 6.55407 23.08 6.49468 23.0206L6.40498 22.9309L6.71589 22.6194C7.15165 22.6449 7.66316 22.6734 8.08498 22.6843L8.05468 25.0055Z" fill="#1A1A1A"/>
<path d="M4.90355 31.0121C5.96658 31.023 6.98416 31.1345 8.06719 31.1454H8.07022C8.20355 31.1454 8.32112 31.0581 8.36052 30.9309C8.65809 29.9533 8.75325 28.9975 8.6587 27.9242C8.64779 27.8024 8.56537 27.6987 8.449 27.6618C7.24112 27.2763 5.9787 27.3757 4.90234 27.5248C4.75385 27.5454 4.64234 27.6709 4.64052 27.8212L4.60355 30.706C4.60112 30.8703 4.73385 31.0103 4.90355 31.0121ZM8.07022 28.1818C8.12476 29.0224 8.05385 29.7642 7.84294 30.5351C6.96173 30.5151 6.10597 30.4351 5.21264 30.4115L5.23143 28.9587C5.23809 28.9539 5.24658 28.9557 5.25264 28.9503L5.71264 28.4909L5.97567 28.7539L5.75506 28.9745C5.69567 29.0339 5.69567 29.1296 5.75506 29.189C5.81385 29.2478 5.90961 29.2484 5.96961 29.189L6.19082 28.9678L6.28052 29.0575C6.33931 29.1163 6.43506 29.1169 6.49506 29.0575C6.55446 28.9981 6.55446 28.9024 6.49506 28.843L6.40537 28.7533L6.82294 28.3351C6.88234 28.2757 6.88234 28.1799 6.82294 28.1206C6.76355 28.0612 6.66779 28.0612 6.609 28.1206L6.19143 28.5387L5.9284 28.2757L6.19143 28.0127C6.809 27.986 7.44961 28.0139 8.07022 28.1818ZM5.71203 28.0624L5.69506 28.0454C5.70779 28.0442 5.71991 28.043 5.73264 28.0418L5.71203 28.0624ZM5.32294 28.0824C5.329 28.0927 5.32718 28.106 5.33628 28.1151L5.49749 28.2763L5.23688 28.5375L5.24234 28.0909C5.2684 28.0872 5.29688 28.0854 5.32294 28.0824Z" fill="#1A1A1A"/>
<path d="M9.94652 31.0121C11.0089 31.023 12.0277 31.1345 13.1108 31.1454H13.1138C13.2471 31.1454 13.3647 31.0581 13.4041 30.9309C13.7011 29.9545 13.7956 28.9993 13.7023 27.9242C13.6914 27.8024 13.6089 27.6987 13.4926 27.6618C12.2847 27.2763 11.0223 27.3757 9.9453 27.5248C9.79682 27.5454 9.6853 27.6709 9.68349 27.8212L9.64652 30.706C9.64409 30.8703 9.77682 31.0103 9.94652 31.0121ZM10.3029 28.089C10.3083 28.0975 10.3065 28.1078 10.3138 28.1151L10.475 28.2763L10.2811 28.4703L10.2859 28.0903C10.292 28.0896 10.2974 28.0896 10.3029 28.089ZM10.6786 28.0515C10.6871 28.0509 10.6944 28.0496 10.7029 28.049L10.6895 28.0624L10.6786 28.0515ZM13.1138 28.1818C13.1689 29.0236 13.0974 29.7654 12.8871 30.5351C12.0065 30.5151 11.1483 30.4351 10.2568 30.4115L10.2762 28.9042L10.6902 28.4909L10.9526 28.7539L10.7314 28.9745C10.672 29.0339 10.672 29.1296 10.7314 29.189C10.7914 29.249 10.8871 29.2472 10.9459 29.189L11.1671 28.9684L11.2568 29.0581C11.3156 29.1169 11.4114 29.1175 11.4714 29.0581C11.5308 28.9987 11.5308 28.903 11.4714 28.8436L11.3817 28.7539L11.7999 28.3357C11.8592 28.2763 11.8592 28.1806 11.7999 28.1212C11.7411 28.0624 11.6453 28.0618 11.5853 28.1212L11.1671 28.5393L10.9041 28.2763L11.1647 28.0157C11.8047 27.983 12.4702 28.0078 13.1138 28.1818Z" fill="#1A1A1A"/>
<path d="M14.9891 31.0121C16.0527 31.023 17.0709 31.1345 18.1533 31.1454H18.1564C18.2897 31.1454 18.4073 31.0581 18.4467 30.9309C18.7436 29.9545 18.8382 28.9993 18.7449 27.9242C18.734 27.8024 18.6515 27.6987 18.5352 27.6618C17.3273 27.2763 16.0649 27.3757 14.9879 27.5248C14.8394 27.5454 14.7279 27.6709 14.7261 27.8212L14.6885 30.706C14.6867 30.8703 14.82 31.0103 14.9891 31.0121ZM15.3267 28.2587L15.3449 28.2763L15.3267 28.2945V28.2587ZM18.1564 28.1818C18.2115 29.0236 18.14 29.7654 17.9297 30.5351C17.0485 30.5151 16.1927 30.4351 15.2994 30.4115L15.3206 28.7284L15.5588 28.4903L15.8218 28.7533L15.6012 28.9739C15.5418 29.0333 15.5418 29.129 15.6012 29.1884C15.66 29.2472 15.7558 29.2478 15.8158 29.1884L16.037 28.9672L16.1267 29.0569C16.1855 29.1157 16.2812 29.1163 16.3412 29.0569C16.4006 28.9975 16.4006 28.9018 16.3412 28.8424L16.2515 28.7527L16.6691 28.3345C16.7285 28.2751 16.7285 28.1793 16.6691 28.1199C16.6097 28.0606 16.5139 28.0606 16.4546 28.1199L16.037 28.5381L15.7739 28.2751L16.0285 28.0206C16.7218 27.9739 17.4533 27.9915 18.1564 28.1818Z" fill="#1A1A1A"/>
<path d="M20.033 31.0121C21.0961 31.023 22.1137 31.1345 23.1967 31.1454H23.1997C23.333 31.1454 23.4506 31.0581 23.49 30.9309C23.7876 29.9533 23.8821 28.9975 23.7882 27.9242C23.7779 27.8024 23.6949 27.6987 23.5785 27.6618C22.3706 27.2763 21.1082 27.3757 20.0312 27.5248C19.8827 27.5454 19.7712 27.6709 19.7694 27.8212L19.7324 30.706C19.7306 30.8703 19.864 31.0103 20.033 31.0121ZM20.3706 28.2581L20.3888 28.2763L20.37 28.2951L20.3706 28.2581ZM23.2003 28.1818C23.2549 29.0224 23.184 29.7642 22.973 30.5351C22.0918 30.5151 21.2361 30.4351 20.3427 30.4115L20.364 28.729L20.6027 28.4903L20.8652 28.7533L20.644 28.9739C20.5846 29.0333 20.5846 29.129 20.644 29.1884C20.704 29.2484 20.7997 29.2466 20.8585 29.1884L21.0797 28.9678L21.1694 29.0575C21.2282 29.1163 21.324 29.1169 21.384 29.0575C21.4434 28.9981 21.4434 28.9024 21.384 28.843L21.2943 28.7533L21.7124 28.3351C21.7718 28.2757 21.7718 28.1799 21.7124 28.1206C21.6537 28.0618 21.5579 28.0612 21.4979 28.1206L21.0797 28.5387L20.8167 28.2757L21.0712 28.0212C21.7664 27.9733 22.4973 27.9915 23.2003 28.1818Z" fill="#1A1A1A"/>
<path d="M23.5237 32.9657C22.774 32.9584 22.0989 32.9026 21.2552 32.8614C21.2486 32.8493 21.2504 32.8341 21.2395 32.8238C21.1801 32.7644 21.0843 32.7644 21.0249 32.8238L20.997 32.8511C20.7855 32.8426 20.574 32.8341 20.3589 32.8317C20.2104 32.8548 20.1055 32.9178 20.0661 33.0463C19.7692 34.0226 19.6746 34.9778 19.768 36.0529C19.7789 36.1748 19.8613 36.2784 19.9777 36.3154C21.1286 36.682 22.3352 36.6166 23.5249 36.4523C23.6734 36.4317 23.7849 36.3063 23.7867 36.156L23.8243 33.2711C23.8255 33.1905 23.794 33.1129 23.7376 33.0554C23.6813 32.9996 23.6043 32.9669 23.5237 32.9657ZM20.8249 33.4535C20.9934 33.4596 21.1601 33.4681 21.3273 33.4766L21.0807 33.7232L20.8176 33.4602L20.8249 33.4535ZM23.1843 35.8875C22.2983 35.9984 21.3013 36.0523 20.357 35.7966C20.3098 35.0748 20.3619 34.4263 20.5086 33.7705L20.6037 33.6754L20.8667 33.9384L20.6455 34.1596C20.5861 34.219 20.5861 34.3148 20.6455 34.3735C20.7055 34.4335 20.8013 34.4317 20.8601 34.3735L21.0813 34.1529L21.171 34.2426C21.2298 34.3014 21.3255 34.302 21.3855 34.2426C21.4449 34.1832 21.4449 34.0875 21.3855 34.0281L21.2958 33.9384L21.714 33.5202C21.7207 33.5135 21.7189 33.5032 21.7243 33.4954C22.1625 33.5208 22.8128 33.5554 23.2152 33.5663L23.1843 35.8875Z" fill="#1A1A1A"/>
<path d="M18.4805 32.9656C17.729 32.9583 17.0514 32.9026 16.2114 32.8614C16.1466 32.7462 16.0472 32.7583 15.9544 32.8517C15.7429 32.8432 15.5314 32.8347 15.3169 32.8323C15.1738 32.8553 15.0635 32.9183 15.0241 33.0468C14.7272 34.0232 14.6326 34.9783 14.726 36.0535C14.7369 36.1753 14.8193 36.2789 14.9357 36.3159C16.0866 36.6826 17.2932 36.6171 18.4823 36.4529C18.6308 36.4323 18.7423 36.3068 18.7441 36.1565L18.7817 33.2717C18.7829 33.191 18.7514 33.1135 18.6951 33.0559C18.6381 32.9995 18.5611 32.9668 18.4805 32.9656ZM15.7811 33.4535C15.9496 33.4595 16.1169 33.468 16.2835 33.4765L16.0369 33.7232L15.7738 33.4601L15.7811 33.4535ZM18.1405 35.8874C17.2544 35.9983 16.2575 36.0523 15.3132 35.7965C15.266 35.0747 15.3181 34.4256 15.4647 33.7698L15.5593 33.6753L15.8223 33.9383L15.6017 34.1595C15.5423 34.2189 15.5423 34.3147 15.6017 34.3735C15.6605 34.4323 15.7563 34.4329 15.8163 34.3735L16.0375 34.1523L16.1272 34.242C16.186 34.3007 16.2817 34.3014 16.3417 34.242C16.4011 34.1826 16.4011 34.0868 16.3417 34.0274L16.252 33.9377C16.3132 33.8765 16.6351 33.5614 16.6799 33.4953C17.1187 33.5207 17.7666 33.5553 18.1714 33.5662L18.1405 35.8874Z" fill="#1A1A1A"/>
<path d="M13.4369 32.9657C12.7811 32.959 12.2272 32.9178 11.3454 32.8711C11.2945 32.7614 11.1963 32.7396 11.0793 32.8566C10.8127 32.8445 10.5448 32.8354 10.2733 32.8323C10.1345 32.8554 10.0193 32.9184 9.98053 33.0469C9.68296 34.0245 9.58841 34.9802 9.68235 36.0536C9.69266 36.1754 9.77569 36.279 9.89205 36.316C11.043 36.6827 12.2496 36.6172 13.4393 36.453C13.5878 36.4323 13.6993 36.3069 13.7011 36.1566L13.7381 33.2717C13.7393 33.1075 13.606 32.9675 13.4369 32.9657ZM11.406 33.4845L11.1666 33.7239L10.9042 33.4614C11.072 33.4681 11.2393 33.4754 11.406 33.4845ZM13.0975 35.8875C12.209 35.9984 11.2145 36.0517 10.2696 35.7966C10.2284 35.1578 10.2605 34.576 10.3702 33.9954L10.6896 33.676L10.9527 33.939L10.7314 34.1602C10.672 34.2196 10.672 34.3154 10.7314 34.3742C10.7914 34.4342 10.8872 34.4323 10.946 34.3742L11.1672 34.1536L11.2569 34.2433C11.3157 34.302 11.4114 34.3027 11.4714 34.2433C11.5308 34.1839 11.5308 34.0881 11.4714 34.0287L11.3817 33.939L11.7999 33.5208C11.8048 33.516 11.803 33.5093 11.8066 33.5039C11.8169 33.5045 11.8266 33.5045 11.8369 33.5051C12.2648 33.5305 12.6921 33.5554 13.1278 33.5669L13.0975 35.8875Z" fill="#1A1A1A"/>
<path d="M8.39347 32.966C7.77165 32.96 7.23892 32.9224 6.36922 32.8751C6.36195 32.8582 6.36256 32.8388 6.34862 32.8248C6.28922 32.7654 6.19347 32.7654 6.13407 32.8248L6.09832 32.8606C5.81104 32.8466 5.52256 32.8363 5.22983 32.8333C5.0965 32.8563 4.97589 32.9194 4.9371 33.0478C4.63953 34.0236 4.54438 34.9794 4.63832 36.0545C4.64922 36.1763 4.73165 36.28 4.84801 36.3169C5.99892 36.6836 7.20619 36.6182 8.39589 36.4539C8.54438 36.4333 8.65589 36.3072 8.65771 36.1575L8.69468 33.2727C8.6965 33.1079 8.56316 32.9679 8.39347 32.966ZM5.45407 33.443C5.46316 33.443 5.47225 33.4442 5.48135 33.4442L5.49832 33.4612L5.43589 33.5242C5.44256 33.4969 5.4468 33.4703 5.45407 33.443ZM6.42559 33.4879L6.18922 33.7242L5.92983 33.4648C6.09589 33.4721 6.26135 33.4788 6.42559 33.4879ZM8.05468 35.8878C7.16741 35.9982 6.17165 36.0521 5.2268 35.7969C5.1868 35.186 5.21589 34.6285 5.31407 34.0745L5.71286 33.6757L5.97589 33.9388L5.75529 34.16C5.69589 34.2194 5.69589 34.3151 5.75529 34.3739C5.81407 34.4327 5.90983 34.4333 5.96983 34.3739L6.19104 34.1527L6.27953 34.2424C6.33832 34.3012 6.43407 34.3018 6.49407 34.2424C6.55347 34.183 6.55347 34.0872 6.49407 34.0278L6.40438 33.9382C6.46438 33.8775 6.77407 33.5727 6.82801 33.5066C7.24438 33.5309 7.66074 33.5551 8.08498 33.5666L8.05468 35.8878Z" fill="#1A1A1A"/>
<path d="M27.3836 32.1584C28.443 32.1687 29.4624 32.2808 30.5473 32.2918H30.5503C30.6836 32.2918 30.8012 32.2045 30.8406 32.0772C31.1382 31.099 31.2327 30.1439 31.1388 29.0705C31.1279 28.9487 31.0455 28.8451 30.9291 28.8081C29.7236 28.4233 28.46 28.5221 27.3818 28.6705C27.2333 28.6911 27.1218 28.8166 27.12 28.9669L27.083 31.8518C27.0812 32.0166 27.2145 32.1566 27.3836 32.1584ZM27.7012 30.9287L27.9036 31.1305L27.6964 31.3378L27.7012 30.9287ZM27.7176 29.6639L27.8691 29.8154L27.7139 29.9711L27.7176 29.6639ZM29.3242 29.1584L29.3927 29.2269L29.2 29.4196L28.9321 29.1518C29.0624 29.1499 29.1927 29.1536 29.3242 29.1584ZM28.517 29.1651L28.9855 29.6336L28.8848 29.7342C28.8255 29.7936 28.8255 29.8893 28.8848 29.9487C28.9436 30.0075 29.0394 30.0081 29.0994 29.9487L29.2085 29.8396C29.2842 29.8881 29.3436 29.8778 29.3939 29.8275C29.4455 29.776 29.4436 29.7008 29.4061 29.6421L29.6067 29.4414L29.9412 29.7766C30.0012 29.8366 30.097 29.8354 30.1558 29.7766C30.2151 29.7172 30.2151 29.6215 30.1558 29.5621L29.7812 29.1875C30.0394 29.2166 30.297 29.2596 30.5509 29.3287C30.6055 30.1693 30.5345 30.9111 30.3236 31.6821C29.5097 31.6633 28.9527 31.6051 27.8951 31.5675L28.1242 31.3384C28.1976 31.3899 28.2642 31.3808 28.3158 31.3287C28.3685 31.276 28.3667 31.1966 28.3255 31.1372L28.5097 30.953C28.5691 30.8936 28.5691 30.7978 28.5097 30.7384C28.4503 30.679 28.3545 30.679 28.2951 30.7384L28.1176 30.916L27.7067 30.5051L27.7097 30.2645C27.7655 30.2869 27.8073 30.3051 27.8703 30.2421L28.083 30.0293L28.2279 30.1748C28.2879 30.2348 28.3836 30.2336 28.4424 30.1748C28.5018 30.1154 28.5018 30.0196 28.4424 29.9602L28.297 29.8148L28.5655 29.5463C28.6248 29.4869 28.6248 29.3911 28.5655 29.3318C28.5061 29.2724 28.4103 29.2724 28.3509 29.3318L28.0824 29.6002L27.7218 29.2396V29.236C27.9794 29.2051 28.2467 29.1815 28.517 29.1651Z" fill="#1A1A1A"/>
<path d="M32.4266 32.1584C33.486 32.1687 34.5054 32.2808 35.5902 32.2918H35.5933C35.7266 32.2918 35.8442 32.2045 35.8836 32.0772C36.1811 31.1008 36.2757 30.1457 36.1824 29.0705C36.1721 28.9487 36.089 28.8451 35.9727 28.8081C34.766 28.4233 33.503 28.5221 32.4248 28.6705C32.2763 28.6911 32.1648 28.8172 32.163 28.9669L32.126 31.8518C32.1242 32.0166 32.2569 32.1566 32.4266 32.1584ZM33.4684 29.1681L33.5569 29.2566C33.4975 29.2051 33.4084 29.2039 33.3521 29.2602L33.1793 29.433L32.963 29.2166C33.1302 29.1984 33.2969 29.1802 33.4684 29.1681ZM32.966 29.6475L32.7787 29.8348C32.7648 29.8487 32.7648 29.8687 32.7575 29.8863L32.763 29.4445L32.966 29.6475ZM32.7466 30.7166L32.9224 30.8924L32.7424 31.0724L32.7466 30.7166ZM35.366 31.6821C34.4842 31.6621 33.6405 31.5821 32.7357 31.5578L32.7363 31.5063L33.1363 31.1063L33.1393 31.1093C33.1981 31.1681 33.2939 31.1687 33.3539 31.1093C33.4133 31.0499 33.4133 30.9542 33.3539 30.8948L33.3508 30.8918L33.6781 30.5645C33.7375 30.5051 33.7375 30.4093 33.6781 30.3499C33.6193 30.2911 33.5236 30.2899 33.4636 30.3499L33.1363 30.6772L32.7521 30.293L32.7557 29.9942C32.763 30.013 32.763 30.0336 32.7781 30.0487C32.8369 30.1075 32.9327 30.1081 32.9927 30.0487L33.1799 29.8615L33.4733 30.1548C33.5333 30.2148 33.629 30.213 33.6878 30.1548C33.7472 30.0954 33.7472 29.9996 33.6878 29.9402L33.3945 29.6469L33.5672 29.4742C33.6236 29.4178 33.6224 29.3287 33.5715 29.2693L33.9599 29.6578L33.8708 29.7469C33.8115 29.8063 33.8115 29.9021 33.8708 29.9615C33.9308 30.0215 34.0266 30.0196 34.0854 29.9615L34.183 29.8639C34.2581 29.913 34.3187 29.9033 34.3696 29.8524C34.4211 29.8008 34.4193 29.7245 34.3811 29.6657L34.6115 29.4354L34.7363 29.5602C34.7945 29.619 34.8908 29.6202 34.9508 29.5602C35.0102 29.5008 35.0102 29.4051 34.9508 29.3457L34.8248 29.2196C34.8339 29.2105 34.8327 29.1972 34.8387 29.1869C35.0927 29.216 35.3454 29.259 35.5951 29.3269C35.6484 30.1699 35.5769 30.9124 35.366 31.6821ZM34.3302 29.1566L34.3963 29.2221L34.1739 29.4445L33.8842 29.1548C34.0321 29.1511 34.1799 29.1511 34.3302 29.1566Z" fill="#1A1A1A"/>
<path d="M35.9164 34.1128C34.857 34.1025 33.8376 33.9904 32.7528 33.9795C32.6382 33.9977 32.4994 34.0656 32.46 34.194C32.1624 35.1722 32.0679 36.1274 32.1618 37.2007C32.1728 37.3225 32.2552 37.4262 32.3715 37.4631C33.5194 37.8292 34.7279 37.7649 35.9188 37.6007C36.0673 37.5801 36.1788 37.4546 36.1806 37.3043L36.2176 34.4195C36.2194 34.2546 36.0861 34.1146 35.9164 34.1128ZM34.7243 34.891L34.4934 34.6601C34.6497 34.6692 34.8085 34.6746 34.9661 34.6825C34.9467 34.6898 34.9249 34.6904 34.9091 34.7062L34.7243 34.891ZM33.6152 34.6189L33.3909 34.8431L33.1443 34.5965C33.3031 34.6019 33.4588 34.6116 33.6152 34.6189ZM32.7455 36.7983C32.7315 36.5122 32.7346 36.2359 32.7515 35.9662L33.1643 36.3789L32.7455 36.7983ZM35.5776 37.034C34.7618 37.1346 33.8576 37.1771 32.9843 36.988L33.3788 36.5934L33.4818 36.6965C33.5406 36.7552 33.6364 36.7559 33.6964 36.6965C33.7558 36.6371 33.7558 36.5413 33.6964 36.4819L33.5928 36.3789L33.7376 36.234C33.797 36.1746 33.797 36.0789 33.7376 36.0195C33.6782 35.9601 33.5825 35.9601 33.5231 36.0195L33.3782 36.1643L32.7867 35.5728C32.8176 35.3171 32.8649 35.0625 32.9261 34.8074L33.1764 35.0577L32.9861 35.248C32.9267 35.3074 32.9267 35.4031 32.9861 35.4625C33.0449 35.5213 33.1406 35.5219 33.2006 35.4625L33.3909 35.2722L34.0946 35.9759C34.1534 36.0346 34.2491 36.0352 34.3091 35.9759C34.3685 35.9165 34.3685 35.8207 34.3091 35.7613L33.6055 35.0577L34.0249 34.6383C34.0309 34.6389 34.0376 34.6389 34.0437 34.6389L34.5097 35.1049L34.3431 35.2716C34.2837 35.331 34.2837 35.4268 34.3431 35.4862C34.4018 35.5443 34.4976 35.5462 34.5576 35.4862L34.7243 35.3195L35.014 35.6092C35.0728 35.668 35.1685 35.6686 35.2285 35.6092C35.2879 35.5498 35.2879 35.454 35.2285 35.3946L34.9388 35.1049L35.1237 34.9201C35.1831 34.8607 35.1831 34.7649 35.1237 34.7056C35.1115 34.6934 35.094 34.6946 35.0794 34.6874C35.2558 34.6959 35.4297 34.708 35.6079 34.7128L35.5776 37.034Z" fill="#1A1A1A"/>
<path d="M30.8733 34.1128C29.8127 34.1025 28.7957 33.9904 27.7091 33.9795C27.7079 33.9795 27.7073 33.9795 27.706 33.9795C27.5727 33.9795 27.4551 34.0668 27.4157 34.194C27.1188 35.1704 27.0242 36.1262 27.1176 37.2007C27.1279 37.3225 27.2109 37.4262 27.3273 37.4631C28.4806 37.831 29.6879 37.7643 30.8745 37.6007C31.023 37.5801 31.1345 37.4546 31.1364 37.3043L31.1739 34.4195C31.1757 34.2546 31.043 34.1146 30.8733 34.1128ZM30.5576 35.1462L30.103 34.6916C30.2563 34.6983 30.4079 34.7092 30.563 34.7134L30.5576 35.1462ZM29.6533 34.6698L29.6964 34.7128L29.4357 34.974L29.106 34.6443C29.1606 34.6474 29.2164 34.6486 29.2709 34.6522C29.3976 34.6589 29.5267 34.6625 29.6533 34.6698ZM28.6309 34.6219L28.3406 34.9122L28.0218 34.5934C28.2273 34.5989 28.4285 34.6116 28.6309 34.6219ZM27.7067 36.9431C27.6879 36.6528 27.6897 36.3771 27.7012 36.1049L28.1685 36.5722L27.783 36.9577C27.7576 36.951 27.7315 36.9498 27.7067 36.9431ZM28.1418 37.0268L28.3824 36.7862L28.383 36.7868C28.4418 36.8456 28.5376 36.8462 28.5976 36.7868C28.657 36.7274 28.657 36.6316 28.5976 36.5722L28.597 36.5716L28.9703 36.1983C29.0297 36.1389 29.0297 36.0431 28.9703 35.9837C28.9109 35.9243 28.8151 35.9243 28.7557 35.9837L28.3824 36.3571L27.726 35.7007C27.7545 35.4207 27.8054 35.1449 27.8697 34.868L28.1273 35.1256L27.8933 35.3595C27.8339 35.4189 27.8339 35.5146 27.8933 35.574C27.9533 35.634 28.0491 35.6328 28.1079 35.574L28.3418 35.3401L28.6376 35.6359C28.6963 35.6946 28.7921 35.6952 28.8521 35.6359C28.9115 35.5765 28.9115 35.4807 28.8521 35.4213L28.5564 35.1256L28.8588 34.8237L29.223 35.188L29.217 35.1946C29.1576 35.254 29.1576 35.3498 29.217 35.4092C29.2757 35.4674 29.3715 35.4692 29.4315 35.4092L29.4376 35.4025L29.4545 35.4195C29.5133 35.4783 29.6091 35.4789 29.6691 35.4195C29.7285 35.3601 29.7285 35.2643 29.6691 35.2049L29.6521 35.188L29.9127 34.9268L30.3551 35.3698C30.4073 35.4219 30.4848 35.434 30.557 35.3752L30.5357 37.034C29.78 37.128 28.9515 37.168 28.1418 37.0268Z" fill="#1A1A1A"/>
</svg>
