<svg width="180" height="180" viewBox="0 0 180 180" fill="none" xmlns="http://www.w3.org/2000/svg">
<rect width="180" height="180" fill="#0073E6"/>
<path d="M121.3 87H98.4V19H121.3C127.167 19 132 19.6333 135.8 20.9C139.6 22.1 142.533 24.1333 144.6 27C146.733 29.8 148.2 33.1333 149 37C149.8 40.8 150.2 45.7667 150.2 51.9C150.2 58.0333 149.833 63.1333 149.1 67.2C148.367 71.2 146.967 74.8 144.9 78C142.9 81.1333 139.967 83.4333 136.1 84.9C132.233 86.3 127.3 87 121.3 87ZM135.8 60C135.933 57.8667 136 54.9333 136 51.2C136 47.4 135.867 44.3667 135.6 42.1C135.333 39.8333 134.7 37.7667 133.7 35.9C132.7 34.0333 131.2 32.7667 129.2 32.1C127.267 31.3667 124.633 31 121.3 31H112.2V75H121.3C126.3 75 129.933 73.7333 132.2 71.2C134.133 69.1333 135.333 65.4 135.8 60Z" fill="white"/>
<path d="M65.4 67.2H54.2V87H40.4V19H65.4C81.5333 19 89.6 26.8667 89.6 42.6C89.6 50.5333 87.5333 56.6333 83.4 60.9C79.3333 65.1 73.3333 67.2 65.4 67.2ZM54.2 55.4H65.3C72.1667 55.4 75.6 51.1333 75.6 42.6C75.6 38.4 74.7667 35.4 73.1 33.6C71.4333 31.7333 68.8333 30.8 65.3 30.8H54.2V55.4Z" fill="white"/>
<path d="M121.3 162H98.4V94H121.3C127.167 94 132 94.6333 135.8 95.9C139.6 97.1 142.533 99.1333 144.6 102C146.733 104.8 148.2 108.133 149 112C149.8 115.8 150.2 120.767 150.2 126.9C150.2 133.033 149.833 138.133 149.1 142.2C148.367 146.2 146.967 149.8 144.9 153C142.9 156.133 139.967 158.433 136.1 159.9C132.233 161.3 127.3 162 121.3 162ZM135.8 135C135.933 132.867 136 129.933 136 126.2C136 122.4 135.867 119.367 135.6 117.1C135.333 114.833 134.7 112.767 133.7 110.9C132.7 109.033 131.2 107.767 129.2 107.1C127.267 106.367 124.633 106 121.3 106H112.2V150H121.3C126.3 150 129.933 148.733 132.2 146.2C134.133 144.133 135.333 140.4 135.8 135Z" fill="white"/>
<path d="M38.4 162V94H61.7L78.1 150H79.1V94H92.9V162H70.2L53.2 106H52.2V162H38.4Z" fill="white"/>
</svg>
