<svg width="206" height="48" viewBox="0 0 206 48" fill="none" xmlns="http://www.w3.org/2000/svg">
<g clip-path="url(#clip0_3862_5008)">
<path d="M67.6781 46.0596H1.32696V1.24307H67.6781V46.0596ZM0 -0.0587311V47.416H69.0049V-0.0587311H0Z" fill="white"/>
<path d="M33.0888 11.0078L34.4888 9.97267L35.889 11.0078L35.3561 9.33362L36.7783 8.29848H35.025L34.4888 6.60414L33.9523 8.30038L32.2002 8.29848L33.6213 9.33362L33.0888 11.0078Z" fill="white"/>
<path d="M25.8431 12.9805L27.2434 11.9453L28.6424 12.9805L28.1107 11.3063L29.532 10.2709H27.7789L27.2427 8.5749L26.7062 10.273L24.9541 10.2709L26.3752 11.3063L25.8431 12.9805Z" fill="white"/>
<path d="M21.9419 13.9577L21.4054 15.6558L19.6533 15.6537L21.0746 16.6891L20.5417 18.3633L21.9419 17.3279L23.3419 18.3633L22.8092 16.6891L24.2302 15.6537H22.4784L21.9419 13.9577Z" fill="white"/>
<path d="M19.9973 24.6604L21.3966 25.6953L20.8646 24.0216L22.2854 22.9862H20.5338L19.9973 21.29L19.4608 22.99L17.708 22.9862L19.13 24.0216L18.5973 25.6953L19.9973 24.6604Z" fill="white"/>
<path d="M22.4784 30.3395L21.9419 28.6433L21.4054 30.3414L19.6533 30.3395L21.0746 31.3744L20.5417 33.0488L21.9419 32.0118L23.3419 33.0488L22.8092 31.3744L24.2302 30.3395H22.4784Z" fill="white"/>
<path d="M27.7899 35.721L27.2534 34.0269L26.7179 35.7232L24.9648 35.721L26.3861 36.7562L25.8541 38.4307L27.2544 37.3955L28.6534 38.4307L28.1216 36.7562L29.5427 35.721H27.7899Z" fill="white"/>
<path d="M35.026 37.6705L34.4895 35.9743L33.954 37.6724L32.2012 37.6705L33.6222 38.7056L33.0907 40.3799L34.4905 39.3445L35.8898 40.3799L35.3568 38.7056L36.779 37.6705H35.026Z" fill="white"/>
<path d="M42.2623 35.721L41.7268 34.0269L41.1894 35.7232L39.4385 35.721L40.8586 36.7562L40.3268 38.4307L41.7268 37.3955L43.1266 38.4307L42.5932 36.7562L44.0149 35.721H42.2623Z" fill="white"/>
<path d="M47.5757 30.3395L47.0383 28.6433L46.5007 30.3414L44.75 30.3395L46.172 31.3744L45.6383 33.0488L47.0383 32.0118L48.4383 33.0488L47.9045 31.3744L49.3265 30.3395H47.5757Z" fill="white"/>
<path d="M51.2514 22.9657H49.4986L48.9612 21.2695L48.4257 22.9676L46.6729 22.9657L48.0948 24.0008L47.5626 25.6748L48.9612 24.638L50.361 25.6748L49.8294 24.0008L51.2514 22.9657Z" fill="white"/>
<path d="M45.6383 18.3408L47.0383 17.3059L48.4386 18.3408L47.9047 16.6666L49.3267 15.6334H47.5757L47.0383 13.9374L46.5009 15.6355L44.75 15.6334L46.172 16.6666L45.6383 18.3408Z" fill="white"/>
<path d="M41.7473 8.57685L41.2118 10.275L39.459 10.271L40.8791 11.308L40.3473 12.9824L41.7492 11.9454L43.1471 12.9824L42.6155 11.308L44.0375 10.271H42.2829L41.7473 8.57685Z" fill="white"/>
<path d="M75.8926 11.252V1.24117H82.6664V2.93456H77.8878V5.30422H82.0124V6.99761H77.8878V11.252H75.8926Z" fill="white"/>
<path d="M84.2969 11.252V3.99981H86.191V11.252H84.2969ZM84.2969 3.01634V1.24117H86.191V3.01634H84.2969Z" fill="white"/>
<path d="M94.6435 11.252H92.7494V7.55062C92.7494 6.76769 92.7089 6.26114 92.628 6.03145C92.5473 5.80152 92.4158 5.6228 92.2338 5.49527C92.052 5.36775 91.8328 5.30422 91.5766 5.30422C91.2486 5.30422 90.9542 5.39524 90.6936 5.57729C90.4332 5.75933 90.2545 6.00063 90.1579 6.30096C90.0612 6.60152 90.013 7.1569 90.013 7.96733V11.252H88.1191V3.99981H89.8783V5.06505C90.5027 4.24561 91.289 3.83601 92.2373 3.83601C92.6551 3.83601 93.0369 3.9121 93.383 4.06475C93.729 4.21717 93.9908 4.41178 94.1681 4.64858C94.3455 4.88538 94.4692 5.15394 94.5387 5.45427C94.6084 5.75483 94.6435 6.18505 94.6435 6.74493V11.252Z" fill="white"/>
<path d="M100.514 7.76846C100.271 7.85047 99.8869 7.94837 99.3612 8.06215C98.8355 8.17616 98.4918 8.28757 98.3301 8.39684C98.0829 8.57439 97.9593 8.79981 97.9593 9.07287C97.9593 9.34144 98.0578 9.5735 98.2557 9.76929C98.4534 9.96508 98.7049 10.063 99.0107 10.063C99.3521 10.063 99.678 9.9492 99.9877 9.72164C100.217 9.54861 100.368 9.33694 100.44 9.08639C100.489 8.92259 100.514 8.61089 100.514 8.15104V7.76846ZM97.9794 6.2116L96.2608 5.89753C96.4538 5.19637 96.7865 4.6775 97.2581 4.34043C97.73 4.00384 98.431 3.83531 99.3612 3.83531C100.206 3.83531 100.835 3.93676 101.248 4.13919C101.662 4.34185 101.953 4.59904 102.121 4.91074C102.29 5.22268 102.374 5.79513 102.374 6.62807L102.354 8.86784C102.354 9.50547 102.384 9.97527 102.445 10.278C102.505 10.5809 102.619 10.9052 102.785 11.2512H100.911C100.862 11.1237 100.801 10.9348 100.729 10.6845C100.698 10.5707 100.676 10.4956 100.662 10.4591C100.338 10.7779 99.9924 11.0168 99.6242 11.1761C99.2557 11.3354 98.8624 11.415 98.4445 11.415C97.7073 11.415 97.1269 11.2124 96.7023 10.8073C96.2776 10.4022 96.0654 9.89018 96.0654 9.2708C96.0654 8.8612 96.1618 8.49593 96.3551 8.17474C96.5481 7.85403 96.819 7.60822 97.1674 7.43732C97.5155 7.26665 98.0176 7.11756 98.6736 6.99003C99.5587 6.82173 100.172 6.66458 100.514 6.5188V6.32775C100.514 5.95892 100.424 5.69605 100.244 5.53889C100.064 5.38197 99.725 5.30351 99.2264 5.30351C98.8893 5.30351 98.6266 5.37059 98.4378 5.50499C98.2492 5.63916 98.0964 5.87477 97.9794 6.2116Z" fill="white"/>
<path d="M110.752 11.252H108.858V7.55062C108.858 6.76769 108.817 6.26114 108.736 6.03145C108.655 5.80152 108.524 5.6228 108.342 5.49527C108.16 5.36775 107.941 5.30422 107.685 5.30422C107.357 5.30422 107.063 5.39524 106.802 5.57729C106.541 5.75933 106.363 6.00063 106.266 6.30096C106.169 6.60152 106.121 7.1569 106.121 7.96733V11.252H104.228V3.99981H105.986V5.06505C106.611 4.24561 107.397 3.83601 108.345 3.83601C108.763 3.83601 109.145 3.9121 109.491 4.06475C109.837 4.21717 110.099 4.41178 110.277 4.64858C110.454 4.88538 110.577 5.15394 110.647 5.45427C110.717 5.75483 110.752 6.18505 110.752 6.74493V11.252Z" fill="white"/>
<path d="M111.911 11.252V9.75649L114.594 6.63566C115.034 6.12579 115.36 5.76383 115.571 5.55003C115.351 5.56354 115.061 5.57278 114.702 5.57729L112.174 5.5908V3.99981H118.092V5.35874L115.355 8.55447L114.392 9.61308C114.917 9.58108 115.243 9.5652 115.369 9.5652H118.301V11.252H111.911Z" fill="white"/>
<path d="M119.574 11.252V3.99981H121.468V11.252H119.574ZM119.574 3.01634V1.24117H121.468V3.01634H119.574Z" fill="white"/>
<path d="M127.36 7.76846C127.117 7.85047 126.733 7.94837 126.207 8.06215C125.681 8.17616 125.338 8.28757 125.176 8.39684C124.929 8.57439 124.805 8.79981 124.805 9.07287C124.805 9.34144 124.904 9.5735 125.101 9.76929C125.299 9.96508 125.551 10.063 125.856 10.063C126.198 10.063 126.524 9.9492 126.834 9.72164C127.063 9.54861 127.213 9.33694 127.285 9.08639C127.335 8.92259 127.36 8.61089 127.36 8.15104V7.76846ZM124.825 6.2116L123.106 5.89753C123.3 5.19637 123.632 4.6775 124.104 4.34043C124.576 4.00384 125.277 3.83531 126.207 3.83531C127.051 3.83531 127.681 3.93676 128.094 4.13919C128.507 4.34185 128.798 4.59904 128.967 4.91074C129.135 5.22268 129.22 5.79513 129.22 6.62807L129.199 8.86784C129.199 9.50547 129.23 9.97527 129.29 10.278C129.351 10.5809 129.465 10.9052 129.631 11.2512H127.757C127.708 11.1237 127.647 10.9348 127.575 10.6845C127.544 10.5707 127.521 10.4956 127.507 10.4591C127.184 10.7779 126.838 11.0168 126.47 11.1761C126.101 11.3354 125.708 11.415 125.29 11.415C124.553 11.415 123.973 11.2124 123.548 10.8073C123.123 10.4022 122.911 9.89018 122.911 9.2708C122.911 8.8612 123.008 8.49593 123.201 8.17474C123.394 7.85403 123.665 7.60822 124.013 7.43732C124.361 7.26665 124.863 7.11756 125.519 6.99003C126.405 6.82173 127.018 6.66458 127.36 6.5188V6.32775C127.36 5.95892 127.27 5.69605 127.09 5.53889C126.91 5.38197 126.571 5.30351 126.072 5.30351C125.735 5.30351 125.472 5.37059 125.284 5.50499C125.095 5.63916 124.942 5.87477 124.825 6.2116Z" fill="white"/>
<path d="M134.369 3.9991V5.5287H133.075V8.45136C133.075 9.04325 133.087 9.38814 133.112 9.48603C133.137 9.58393 133.193 9.66476 133.28 9.72852C133.368 9.79205 133.475 9.82405 133.6 9.82405C133.776 9.82405 134.03 9.76242 134.362 9.63963L134.524 11.1282C134.084 11.3195 133.585 11.415 133.027 11.415C132.686 11.415 132.378 11.357 132.104 11.2411C131.83 11.1249 131.629 10.9746 131.501 10.7904C131.373 10.6058 131.284 10.3567 131.235 10.0426C131.194 9.81954 131.174 9.3687 131.174 8.69053V5.5287H130.305V3.9991H131.174V2.55815L133.075 1.43839V3.9991H134.369Z" fill="white"/>
<path d="M137.186 7.62529C137.186 8.34446 137.354 8.89533 137.692 9.27768C138.029 9.66002 138.444 9.8513 138.939 9.8513C139.433 9.8513 139.847 9.66002 140.182 9.27768C140.517 8.89533 140.684 8.33996 140.684 7.61154C140.684 6.90138 140.517 6.35501 140.182 5.97267C139.847 5.59009 139.433 5.39904 138.939 5.39904C138.444 5.39904 138.029 5.59009 137.692 5.97267C137.354 6.35501 137.186 6.90588 137.186 7.62529ZM135.245 7.52265C135.245 6.8855 135.4 6.26849 135.71 5.6721C136.02 5.07572 136.459 4.62061 137.028 4.3063C137.596 3.99222 138.231 3.83531 138.932 3.83531C140.015 3.83531 140.902 4.19157 141.594 4.90387C142.286 5.6164 142.632 6.51667 142.632 7.60467C142.632 8.70191 142.283 9.61119 141.584 10.3327C140.885 11.0543 140.006 11.415 138.945 11.415C138.289 11.415 137.664 11.2648 137.068 10.9644C136.473 10.6639 136.02 10.2235 135.71 9.64295C135.4 9.06268 135.245 8.35584 135.245 7.52265Z" fill="white"/>
<path d="M77.3746 24.2504C77.3746 25.0243 77.4801 25.5842 77.6916 25.9302C77.9969 26.4309 78.4239 26.6812 78.972 26.6812C79.4079 26.6812 79.7787 26.4934 80.0843 26.118C80.3898 25.7425 80.5426 25.1812 80.5426 24.4345C80.5426 23.6016 80.394 23.0019 80.0976 22.6352C79.8009 22.269 79.4212 22.0855 78.9587 22.0855C78.5093 22.0855 78.1328 22.2664 77.8296 22.6286C77.5264 22.9903 77.3746 23.531 77.3746 24.2504ZM82.4299 28.0335H80.6706V26.968C80.3783 27.3823 80.0335 27.6907 79.636 27.8934C79.2383 28.0958 78.8373 28.1973 78.433 28.1973C77.6106 28.1973 76.9062 27.8616 76.3199 27.1901C75.7333 26.5186 75.4404 25.5818 75.4404 24.38C75.4404 23.1507 75.7256 22.2166 76.2962 21.5768C76.8669 20.9373 77.5879 20.6173 78.4599 20.6173C79.2596 20.6173 79.9516 20.9544 80.5358 21.628V18.0225H82.4299V28.0335Z" fill="white"/>
<path d="M88.2463 24.5507C88.0037 24.6327 87.6193 24.7306 87.0936 24.8444C86.5679 24.9582 86.2242 25.0698 86.0626 25.1791C85.8153 25.3566 85.6917 25.5818 85.6917 25.8549C85.6917 26.1237 85.7905 26.3557 85.9884 26.5515C86.1859 26.7473 86.4374 26.8452 86.7432 26.8452C87.0845 26.8452 87.4106 26.7312 87.7204 26.5036C87.9497 26.3308 88.1001 26.1189 88.1719 25.8686C88.2213 25.7046 88.2463 25.3929 88.2463 24.933V24.5507ZM85.7121 22.9938L83.9932 22.6798C84.1862 21.9786 84.5189 21.4597 84.9908 21.1227C85.4625 20.7858 86.1636 20.6173 87.0936 20.6173C87.9382 20.6173 88.5673 20.7187 88.981 20.9214C89.3941 21.1238 89.6852 21.3813 89.8536 21.693C90.0223 22.0047 90.1065 22.5774 90.1065 23.4103L90.0862 25.6501C90.0862 26.2875 90.1166 26.7575 90.1772 27.0602C90.238 27.3629 90.3512 27.6874 90.5176 28.0335H88.6438C88.5942 27.9059 88.5336 27.717 88.462 27.4665C88.4305 27.3527 88.408 27.2776 88.3944 27.2413C88.0709 27.5601 87.7248 27.7988 87.3566 27.9581C86.9881 28.1174 86.5948 28.1973 86.177 28.1973C85.44 28.1973 84.8593 27.9948 84.4347 27.5895C84.0101 27.1844 83.7979 26.6722 83.7979 26.053C83.7979 25.6434 83.8942 25.2782 84.0875 24.957C84.2807 24.6363 84.5514 24.3902 84.8998 24.2195C85.2479 24.0489 85.75 23.8998 86.4062 23.7723C87.2913 23.604 87.9048 23.4468 88.2463 23.301V23.11C88.2463 22.7411 88.1563 22.4783 87.9768 22.3211C87.7969 22.1642 87.4577 22.0855 86.9589 22.0855C86.622 22.0855 86.359 22.1528 86.1704 22.287C85.9816 22.4214 85.8288 22.657 85.7121 22.9938Z" fill="white"/>
<path d="M91.9736 28.0342V18.0232H93.8675V28.0342H91.9736Z" fill="white"/>
<path d="M95.8086 28.0342V18.0232H97.7027V28.0342H95.8086Z" fill="white"/>
<path d="M99.6307 21.5811L99.2734 19.717V18.0234H101.336V19.717L101.026 21.5811H99.6307Z" fill="white"/>
<path d="M102.926 18.0227H104.921V23.4446C104.921 24.3051 104.946 24.8628 104.995 25.1176C105.08 25.5272 105.284 25.8562 105.605 26.1044C105.926 26.3526 106.365 26.4766 106.923 26.4766C107.489 26.4766 107.916 26.3595 108.203 26.125C108.491 25.8906 108.664 25.6026 108.722 25.2611C108.781 24.9197 108.81 24.353 108.81 23.5608V18.0227H110.805V23.2808C110.805 24.4826 110.751 25.3317 110.643 25.8278C110.535 26.3242 110.337 26.7428 110.047 27.0843C109.757 27.4257 109.369 27.698 108.884 27.9005C108.399 28.1029 107.765 28.2041 106.984 28.2041C106.04 28.2041 105.324 28.0936 104.837 27.8732C104.349 27.6523 103.964 27.3655 103.681 27.0128C103.398 26.66 103.211 26.29 103.121 25.9029C102.991 25.3293 102.926 24.4826 102.926 23.3629V18.0227Z" fill="white"/>
<path d="M119.406 28.0342H117.512V24.3328C117.512 23.5499 117.472 23.0434 117.391 22.8134C117.31 22.5838 117.178 22.405 116.996 22.2775C116.814 22.15 116.595 22.0862 116.339 22.0862C116.011 22.0862 115.717 22.1775 115.456 22.3595C115.196 22.5416 115.017 22.7829 114.921 23.0832C114.824 23.3837 114.776 23.9391 114.776 24.7496V28.0342H112.882V20.782H114.641V21.8473C115.265 21.0278 116.052 20.618 117 20.618C117.418 20.618 117.799 20.6943 118.146 20.8467C118.491 20.9994 118.753 21.194 118.931 21.4308C119.108 21.6676 119.232 21.9362 119.301 22.2365C119.371 22.5371 119.406 22.9673 119.406 23.5272V28.0342Z" fill="white"/>
<path d="M121.326 28.0342V20.782H123.22V28.0342H121.326ZM121.326 19.7986V18.0232H123.22V19.7986H121.326Z" fill="white"/>
<path d="M126.665 24.4073C126.665 25.1267 126.833 25.6773 127.17 26.0597C127.507 26.4422 127.923 26.6333 128.417 26.6333C128.911 26.6333 129.326 26.4422 129.661 26.0597C129.995 25.6773 130.163 25.1222 130.163 24.3938C130.163 23.6836 129.995 23.1372 129.661 22.7549C129.326 22.3723 128.911 22.1813 128.417 22.1813C127.923 22.1813 127.507 22.3723 127.17 22.7549C126.833 23.1372 126.665 23.6881 126.665 24.4073ZM124.724 24.3049C124.724 23.6677 124.879 23.0507 125.189 22.4543C125.499 21.8579 125.938 21.4026 126.506 21.0885C127.075 20.7745 127.71 20.6173 128.411 20.6173C129.493 20.6173 130.381 20.9736 131.073 21.6861C131.765 22.3986 132.111 23.2989 132.111 24.3869C132.111 25.4841 131.761 26.3934 131.063 27.115C130.364 27.8365 129.484 28.1973 128.424 28.1973C127.768 28.1973 127.142 28.047 126.547 27.7467C125.951 27.4461 125.499 27.0057 125.189 26.4252C124.879 25.8447 124.724 25.1381 124.724 24.3049Z" fill="white"/>
<path d="M140.104 28.0342H138.21V24.3328C138.21 23.5499 138.17 23.0434 138.089 22.8134C138.008 22.5838 137.877 22.405 137.695 22.2775C137.513 22.15 137.294 22.0862 137.038 22.0862C136.709 22.0862 136.415 22.1775 136.155 22.3595C135.894 22.5416 135.715 22.7829 135.619 23.0832C135.522 23.3837 135.474 23.9391 135.474 24.7496V28.0342H133.58V20.782H135.339V21.8473C135.964 21.0278 136.75 20.618 137.698 20.618C138.116 20.618 138.498 20.6943 138.844 20.8467C139.19 20.9994 139.452 21.194 139.629 21.4308C139.807 21.6676 139.93 21.9362 140 22.2365C140.07 22.5371 140.104 22.9673 140.104 23.5272V28.0342Z" fill="white"/>
<path d="M146.278 23.786C146.265 23.2306 146.123 22.8085 145.853 22.5193C145.584 22.2301 145.256 22.0855 144.869 22.0855C144.456 22.0855 144.115 22.2382 143.845 22.543C143.575 22.8483 143.443 23.2624 143.447 23.786H146.278ZM146.17 25.7252L148.057 26.0462C147.815 26.7473 147.432 27.2811 146.908 27.6476C146.385 28.014 145.73 28.1973 144.944 28.1973C143.699 28.1973 142.778 27.7853 142.18 26.9611C141.708 26.3012 141.473 25.468 141.473 24.462C141.473 23.26 141.782 22.319 142.402 21.6382C143.023 20.9577 143.807 20.6173 144.755 20.6173C145.82 20.6173 146.66 20.9736 147.276 21.6861C147.891 22.3986 148.186 23.4902 148.159 24.9605H143.414C143.427 25.5294 143.58 25.9722 143.872 26.2886C144.164 26.6051 144.528 26.7632 144.964 26.7632C145.26 26.7632 145.51 26.6812 145.712 26.5174C145.914 26.3536 146.067 26.0893 146.17 25.7252Z" fill="white"/>
<path d="M157.79 23.786C157.776 23.2306 157.635 22.8085 157.365 22.5193C157.095 22.2301 156.768 22.0855 156.381 22.0855C155.968 22.0855 155.626 22.2382 155.357 22.543C155.087 22.8483 154.955 23.2624 154.959 23.786H157.79ZM157.682 25.7252L159.569 26.0462C159.327 26.7473 158.944 27.2811 158.42 27.6476C157.897 28.014 157.241 28.1973 156.455 28.1973C155.211 28.1973 154.289 27.7853 153.692 26.9611C153.22 26.3012 152.984 25.468 152.984 24.462C152.984 23.26 153.294 22.319 153.914 21.6382C154.534 20.9577 155.318 20.6173 156.267 20.6173C157.332 20.6173 158.172 20.9736 158.787 21.6861C159.403 22.3986 159.697 23.4902 159.67 24.9605H154.926C154.939 25.5294 155.092 25.9722 155.384 26.2886C155.676 26.6051 156.04 26.7632 156.475 26.7632C156.772 26.7632 157.022 26.6812 157.224 26.5174C157.426 26.3536 157.579 26.0893 157.682 25.7252Z" fill="white"/>
<path d="M165.925 28.0335V26.9476C165.665 27.3345 165.322 27.6395 164.898 27.8626C164.473 28.0856 164.025 28.1973 163.553 28.1973C163.072 28.1973 162.641 28.0901 162.259 27.8763C161.877 27.6623 161.601 27.3619 161.43 26.9749C161.259 26.588 161.174 26.053 161.174 25.3701V20.7813H163.068V24.1136C163.068 25.1336 163.102 25.7584 163.172 25.9883C163.242 26.218 163.369 26.4003 163.553 26.5345C163.737 26.6689 163.971 26.7359 164.254 26.7359C164.577 26.7359 164.867 26.6461 165.123 26.4662C165.379 26.2863 165.554 26.0632 165.649 25.797C165.743 25.5306 165.791 24.8785 165.791 23.8405V20.7813H167.684V28.0335H165.925Z" fill="white"/>
<path d="M171.459 28.0342H169.564V20.782H171.324V21.8131C171.625 21.326 171.895 21.0051 172.136 20.8503C172.376 20.6955 172.649 20.618 172.955 20.618C173.386 20.618 173.802 20.7389 174.201 20.98L173.615 22.653C173.296 22.4437 173 22.3389 172.726 22.3389C172.46 22.3389 172.236 22.4131 172.052 22.561C171.867 22.7089 171.722 22.9763 171.617 23.3634C171.511 23.7502 171.459 24.5606 171.459 25.7942V28.0342Z" fill="white"/>
<path d="M176.52 24.4073C176.52 25.1267 176.688 25.6773 177.026 26.0597C177.362 26.4422 177.778 26.6333 178.273 26.6333C178.767 26.6333 179.181 26.4422 179.516 26.0597C179.851 25.6773 180.018 25.1222 180.018 24.3938C180.018 23.6836 179.851 23.1372 179.516 22.7549C179.181 22.3723 178.767 22.1813 178.273 22.1813C177.778 22.1813 177.362 22.3723 177.026 22.7549C176.688 23.1372 176.52 23.6881 176.52 24.4073ZM174.579 24.3049C174.579 23.6677 174.734 23.0507 175.044 22.4543C175.354 21.8579 175.793 21.4026 176.362 21.0885C176.93 20.7745 177.565 20.6173 178.266 20.6173C179.349 20.6173 180.236 20.9736 180.928 21.6861C181.62 22.3986 181.966 23.2989 181.966 24.3869C181.966 25.4841 181.617 26.3934 180.918 27.115C180.219 27.8365 179.34 28.1973 178.279 28.1973C177.623 28.1973 176.998 28.047 176.402 27.7467C175.807 27.4461 175.354 27.0057 175.044 26.4252C174.734 25.8447 174.579 25.1381 174.579 24.3049Z" fill="white"/>
<path d="M185.27 24.2853C185.27 25.1003 185.429 25.7023 185.748 26.0913C186.067 26.4808 186.456 26.6751 186.914 26.6751C187.354 26.6751 187.72 26.4967 188.013 26.1392C188.305 25.782 188.451 25.1958 188.451 24.3809C188.451 23.6207 188.3 23.0561 187.999 22.6872C187.698 22.3186 187.325 22.1342 186.88 22.1342C186.417 22.1342 186.033 22.3153 185.728 22.677C185.422 23.039 185.27 23.5752 185.27 24.2853ZM183.396 20.7822H185.162V21.8474C185.391 21.4833 185.701 21.1873 186.092 20.9597C186.483 20.7321 186.916 20.6181 187.392 20.6181C188.224 20.6181 188.929 20.9483 189.509 21.6085C190.089 22.2686 190.378 23.1881 190.378 24.3671C190.378 25.5781 190.086 26.5194 189.502 27.1909C188.918 27.8625 188.21 28.1981 187.379 28.1981C186.983 28.1981 186.625 28.1182 186.304 27.9589C185.983 27.7996 185.645 27.5266 185.29 27.1395V30.793H183.396V20.7822Z" fill="white"/>
<path d="M196.134 23.786C196.12 23.2306 195.979 22.8085 195.709 22.5193C195.439 22.2301 195.111 22.0855 194.725 22.0855C194.312 22.0855 193.97 22.2382 193.701 22.543C193.431 22.8483 193.298 23.2624 193.303 23.786H196.134ZM196.026 25.7252L197.913 26.0462C197.67 26.7473 197.287 27.2811 196.764 27.6476C196.241 28.014 195.585 28.1973 194.799 28.1973C193.554 28.1973 192.633 27.7853 192.036 26.9611C191.564 26.3012 191.328 25.468 191.328 24.462C191.328 23.26 191.638 22.319 192.258 21.6382C192.878 20.9577 193.662 20.6173 194.611 20.6173C195.676 20.6173 196.515 20.9736 197.131 21.6861C197.747 22.3986 198.041 23.4902 198.014 24.9605H193.269C193.283 25.5294 193.435 25.9722 193.728 26.2886C194.02 26.6051 194.384 26.7632 194.819 26.7632C195.116 26.7632 195.365 26.6812 195.568 26.5174C195.77 26.3536 195.922 26.0893 196.026 25.7252Z" fill="white"/>
<path d="M203.507 24.5507C203.264 24.6327 202.88 24.7306 202.354 24.8444C201.829 24.9582 201.485 25.0698 201.323 25.1791C201.076 25.3566 200.952 25.5818 200.952 25.8549C200.952 26.1237 201.051 26.3557 201.249 26.5515C201.447 26.7473 201.698 26.8452 202.004 26.8452C202.345 26.8452 202.671 26.7312 202.981 26.5036C203.211 26.3308 203.361 26.1189 203.433 25.8686C203.482 25.7046 203.507 25.3929 203.507 24.933V24.5507ZM200.973 22.9938L199.254 22.6798C199.447 21.9786 199.78 21.4597 200.252 21.1227C200.723 20.7858 201.424 20.6173 202.354 20.6173C203.199 20.6173 203.828 20.7187 204.242 20.9214C204.655 21.1238 204.946 21.3813 205.114 21.693C205.283 22.0047 205.367 22.5774 205.367 23.4103L205.347 25.6501C205.347 26.2875 205.377 26.7575 205.438 27.0602C205.499 27.3629 205.612 27.6874 205.778 28.0335H203.905C203.855 27.9059 203.795 27.717 203.723 27.4665C203.691 27.3527 203.669 27.2776 203.655 27.2413C203.332 27.5601 202.986 27.7988 202.617 27.9581C202.249 28.1174 201.856 28.1973 201.438 28.1973C200.701 28.1973 200.12 27.9948 199.695 27.5895C199.271 27.1844 199.059 26.6722 199.059 26.053C199.059 25.6434 199.155 25.2782 199.348 24.957C199.541 24.6363 199.812 24.3902 200.161 24.2195C200.509 24.0489 201.011 23.8998 201.667 23.7723C202.552 23.604 203.166 23.4468 203.507 23.301V23.11C203.507 22.7411 203.417 22.4783 203.238 22.3211C203.058 22.1642 202.718 22.0855 202.22 22.0855C201.883 22.0855 201.62 22.1528 201.431 22.287C201.242 22.4214 201.09 22.657 200.973 22.9938Z" fill="white"/>
<path d="M75.8809 45.1555V36.5021H77.0403L81.5264 43.2962V36.5021H82.61V45.1555H81.4506L76.9645 38.3555V45.1555H75.8809Z" fill="white"/>
<path d="M88.6167 43.1368L89.7004 43.2725C89.5295 43.914 89.2129 44.4118 88.7507 44.7659C88.2885 45.1201 87.6981 45.2972 86.9796 45.2972C86.0746 45.2972 85.356 45.0158 84.8239 44.4531C84.2957 43.8864 84.0316 43.0935 84.0316 42.0743C84.0316 41.0197 84.2996 40.2011 84.8356 39.6187C85.3716 39.0363 86.0668 38.7451 86.9213 38.7451C87.7486 38.7451 88.4245 39.0304 88.9488 39.601C89.4732 40.1716 89.7353 40.9744 89.7353 42.0094C89.7353 42.0723 89.7334 42.1668 89.7295 42.2927H85.1152C85.1541 42.9813 85.3463 43.5087 85.692 43.8746C86.0377 44.2406 86.4688 44.4236 86.9854 44.4236C87.3699 44.4236 87.6981 44.3213 87.97 44.1166C88.2419 43.912 88.4575 43.5854 88.6167 43.1368ZM85.1735 41.4191H88.6284C88.5818 40.8918 88.4497 40.4963 88.2322 40.2326C87.8982 39.8234 87.4651 39.6187 86.933 39.6187C86.4513 39.6187 86.0455 39.782 85.7153 40.1087C85.3891 40.4353 85.2084 40.8721 85.1735 41.4191Z" fill="white"/>
<path d="M90.3238 45.1555L92.5843 41.8972L90.4927 38.8868H91.8036L92.7532 40.3566C92.9319 40.636 93.0756 40.8701 93.1844 41.059C93.3553 40.7993 93.5126 40.5691 93.6563 40.3684L94.6992 38.8868H95.9518L93.8136 41.8382L96.1149 45.1555H94.8273L93.5573 43.2076L93.2193 42.6823L91.5939 45.1555H90.3238Z" fill="white"/>
<path d="M99.2785 44.2052L99.43 45.1437C99.1348 45.2067 98.8707 45.2382 98.6376 45.2382C98.257 45.2382 97.9618 45.1772 97.752 45.0552C97.5423 44.9332 97.3947 44.7738 97.3093 44.5771C97.2238 44.3764 97.1811 43.9573 97.1811 43.3198V39.7132H96.412V38.8868H97.1811V37.3344L98.224 36.6969V38.8868H99.2785V39.7132H98.224V43.3788C98.224 43.6818 98.2414 43.8766 98.2764 43.9632C98.3152 44.0497 98.3754 44.1186 98.457 44.1698C98.5424 44.2209 98.6629 44.2465 98.8182 44.2465C98.9347 44.2465 99.0882 44.2327 99.2785 44.2052Z" fill="white"/>
<path d="M104.44 41.7614V40.7462L108.058 40.7403V43.9514C107.503 44.4 106.93 44.7384 106.34 44.9666C105.749 45.1909 105.143 45.3031 104.522 45.3031C103.683 45.3031 102.92 45.1221 102.232 44.76C101.549 44.3941 101.032 43.8668 100.683 43.1781C100.333 42.4894 100.158 41.7201 100.158 40.8701C100.158 40.028 100.331 39.2429 100.677 38.5149C101.026 37.783 101.527 37.2399 102.18 36.8857C102.832 36.5316 103.584 36.3545 104.435 36.3545C105.052 36.3545 105.61 36.4568 106.107 36.6614C106.608 36.8621 107 37.1435 107.284 37.5055C107.567 37.8676 107.783 38.3398 107.93 38.9222L106.911 39.2055C106.782 38.7648 106.623 38.4185 106.433 38.1666C106.243 37.9148 105.971 37.7141 105.617 37.5646C105.264 37.4111 104.872 37.3344 104.44 37.3344C103.924 37.3344 103.477 37.415 103.1 37.5764C102.724 37.7338 102.419 37.9423 102.186 38.2021C101.957 38.4618 101.778 38.7471 101.65 39.058C101.432 39.5931 101.323 40.1736 101.323 40.7993C101.323 41.5706 101.454 42.2159 101.714 42.7354C101.978 43.2548 102.36 43.6405 102.862 43.8923C103.363 44.1442 103.895 44.2701 104.458 44.2701C104.947 44.2701 105.425 44.1757 105.891 43.9868C106.357 43.794 106.711 43.5893 106.951 43.3729V41.7614H104.44Z" fill="white"/>
<path d="M113.832 43.1368L114.916 43.2725C114.745 43.914 114.428 44.4118 113.966 44.7659C113.504 45.1201 112.914 45.2972 112.195 45.2972C111.29 45.2972 110.571 45.0158 110.039 44.4531C109.511 43.8864 109.247 43.0935 109.247 42.0743C109.247 41.0197 109.515 40.2011 110.051 39.6187C110.587 39.0363 111.282 38.7451 112.137 38.7451C112.964 38.7451 113.64 39.0304 114.164 39.601C114.689 40.1716 114.951 40.9744 114.951 42.0094C114.951 42.0723 114.949 42.1668 114.945 42.2927H110.331C110.369 42.9813 110.562 43.5087 110.907 43.8746C111.253 44.2406 111.684 44.4236 112.201 44.4236C112.585 44.4236 112.914 44.3213 113.185 44.1166C113.457 43.912 113.673 43.5854 113.832 43.1368ZM110.389 41.4191H113.844C113.797 40.8918 113.665 40.4963 113.448 40.2326C113.114 39.8234 112.68 39.6187 112.148 39.6187C111.667 39.6187 111.261 39.782 110.931 40.1087C110.604 40.4353 110.424 40.8721 110.389 41.4191Z" fill="white"/>
<path d="M116.238 45.1555V38.8868H117.182V39.7781C117.637 39.0894 118.293 38.7451 119.151 38.7451C119.524 38.7451 119.866 38.814 120.177 38.9517C120.491 39.0855 120.726 39.2626 120.882 39.483C121.037 39.7033 121.146 39.965 121.208 40.268C121.247 40.4648 121.266 40.8091 121.266 41.301V45.1555H120.217V41.3423C120.217 40.9095 120.177 40.5868 120.095 40.3743C120.014 40.1578 119.868 39.9867 119.658 39.8607C119.452 39.7309 119.21 39.6659 118.93 39.6659C118.483 39.6659 118.097 39.8096 117.771 40.0969C117.448 40.3841 117.287 40.9291 117.287 41.7319V45.1555H116.238Z" fill="white"/>
<path d="M127.116 43.1368L128.199 43.2725C128.028 43.914 127.712 44.4118 127.25 44.7659C126.787 45.1201 126.197 45.2972 125.478 45.2972C124.573 45.2972 123.855 45.0158 123.323 44.4531C122.795 43.8864 122.53 43.0935 122.53 42.0743C122.53 41.0197 122.798 40.2011 123.334 39.6187C123.87 39.0363 124.566 38.7451 125.42 38.7451C126.248 38.7451 126.923 39.0304 127.448 39.601C127.972 40.1716 128.234 40.9744 128.234 42.0094C128.234 42.0723 128.232 42.1668 128.228 42.2927H123.614C123.653 42.9813 123.845 43.5087 124.191 43.8746C124.537 44.2406 124.968 44.4236 125.484 44.4236C125.869 44.4236 126.197 44.3213 126.469 44.1166C126.741 43.912 126.956 43.5854 127.116 43.1368ZM123.672 41.4191H127.127C127.081 40.8918 126.949 40.4963 126.731 40.2326C126.397 39.8234 125.964 39.6187 125.432 39.6187C124.95 39.6187 124.544 39.782 124.214 40.1087C123.888 40.4353 123.707 40.8721 123.672 41.4191Z" fill="white"/>
<path d="M129.51 45.1555V38.8868H130.454V39.8371C130.695 39.3925 130.916 39.0993 131.118 38.9576C131.324 38.8159 131.549 38.7451 131.794 38.7451C132.147 38.7451 132.507 38.8592 132.872 39.0875L132.511 40.0732C132.254 39.9198 131.998 39.843 131.742 39.843C131.512 39.843 131.307 39.9139 131.124 40.0555C130.941 40.1933 130.811 40.3861 130.734 40.634C130.617 41.0118 130.559 41.425 130.559 41.8736V45.1555H129.51Z" fill="white"/>
<path d="M137.533 44.3823C137.144 44.7168 136.769 44.9529 136.408 45.0906C136.051 45.2283 135.666 45.2972 135.255 45.2972C134.575 45.2972 134.053 45.13 133.687 44.7955C133.322 44.457 133.14 44.0261 133.14 43.5028C133.14 43.1958 133.208 42.9164 133.344 42.6646C133.484 42.4088 133.664 42.2041 133.886 42.0507C134.111 41.8972 134.363 41.7811 134.643 41.7024C134.849 41.6473 135.159 41.5942 135.575 41.543C136.422 41.4407 137.045 41.3187 137.445 41.1771C137.449 41.0315 137.451 40.939 137.451 40.8996C137.451 40.4668 137.352 40.1618 137.154 39.9847C136.886 39.7447 136.488 39.6246 135.96 39.6246C135.466 39.6246 135.101 39.7132 134.864 39.8903C134.631 40.0634 134.458 40.3723 134.346 40.817L133.32 40.6753C133.414 40.2306 133.567 39.8725 133.781 39.601C133.994 39.3256 134.303 39.115 134.707 38.9694C135.111 38.8199 135.579 38.7451 136.111 38.7451C136.639 38.7451 137.069 38.8081 137.399 38.934C137.729 39.0599 137.972 39.2193 138.127 39.4121C138.282 39.601 138.391 39.8411 138.453 40.1323C138.488 40.3133 138.506 40.6399 138.506 41.1121V42.5288C138.506 43.5165 138.527 44.1422 138.57 44.4059C138.616 44.6656 138.706 44.9155 138.838 45.1555H137.742C137.634 44.9352 137.564 44.6774 137.533 44.3823ZM137.445 42.0094C137.065 42.1668 136.494 42.3006 135.732 42.4107C135.301 42.4737 134.996 42.5445 134.818 42.6232C134.639 42.7019 134.501 42.818 134.404 42.9715C134.307 43.121 134.258 43.2883 134.258 43.4732C134.258 43.7566 134.363 43.9927 134.573 44.1816C134.787 44.3705 135.097 44.4649 135.505 44.4649C135.909 44.4649 136.268 44.3764 136.583 44.1993C136.898 44.0183 137.129 43.7723 137.276 43.4614C137.389 43.2214 137.445 42.8672 137.445 42.3989V42.0094Z" fill="white"/>
<path d="M142.427 44.2052L142.578 45.1437C142.283 45.2067 142.019 45.2382 141.786 45.2382C141.405 45.2382 141.11 45.1772 140.9 45.0552C140.69 44.9332 140.543 44.7738 140.457 44.5771C140.372 44.3764 140.329 43.9573 140.329 43.3198V39.7132H139.56V38.8868H140.329V37.3344L141.372 36.6969V38.8868H142.427V39.7132H141.372V43.3788C141.372 43.6818 141.39 43.8766 141.424 43.9632C141.463 44.0497 141.524 44.1186 141.605 44.1698C141.691 44.2209 141.811 44.2465 141.966 44.2465C142.083 44.2465 142.236 44.2327 142.427 44.2052Z" fill="white"/>
<path d="M143.464 37.7239V36.5021H144.512V37.7239H143.464ZM143.464 45.1555V38.8868H144.512V45.1555H143.464Z" fill="white"/>
<path d="M145.724 42.0212C145.724 40.8603 146.043 40.0004 146.68 39.4416C147.212 38.9773 147.86 38.7451 148.626 38.7451C149.476 38.7451 150.171 39.0284 150.711 39.5951C151.251 40.1578 151.521 40.937 151.521 41.9326C151.521 42.7393 151.401 43.3749 151.16 43.8392C150.923 44.2996 150.575 44.6577 150.117 44.9135C149.663 45.1693 149.165 45.2972 148.626 45.2972C147.759 45.2972 147.058 45.0158 146.522 44.4531C145.99 43.8904 145.724 43.0797 145.724 42.0212ZM146.802 42.0212C146.802 42.8239 146.975 43.426 147.321 43.8274C147.666 44.2249 148.101 44.4236 148.626 44.4236C149.146 44.4236 149.579 44.2229 149.925 43.8215C150.27 43.4201 150.443 42.8082 150.443 41.9857C150.443 41.2105 150.269 40.6242 149.919 40.2267C149.573 39.8253 149.142 39.6246 148.626 39.6246C148.101 39.6246 147.666 39.8234 147.321 40.2208C146.975 40.6183 146.802 41.2184 146.802 42.0212Z" fill="white"/>
<path d="M152.756 45.1555V38.8868H153.7V39.7781C154.155 39.0894 154.811 38.7451 155.669 38.7451C156.042 38.7451 156.384 38.814 156.695 38.9517C157.009 39.0855 157.244 39.2626 157.4 39.483C157.555 39.7033 157.664 39.965 157.726 40.268C157.765 40.4648 157.784 40.8091 157.784 41.301V45.1555H156.735V41.3423C156.735 40.9095 156.695 40.5868 156.613 40.3743C156.532 40.1578 156.386 39.9867 156.176 39.8607C155.97 39.7309 155.728 39.6659 155.448 39.6659C155.001 39.6659 154.615 39.8096 154.289 40.0969C153.966 40.3841 153.805 40.9291 153.805 41.7319V45.1555H152.756Z" fill="white"/>
<path d="M159.555 45.1555V36.5021H165.731V37.5232H160.686V40.1736H165.411V41.1889H160.686V44.1344H165.929V45.1555H159.555Z" fill="white"/>
<path d="M173.095 36.5021H174.225V41.5017C174.225 42.3714 174.128 43.062 173.934 43.5736C173.74 44.0852 173.388 44.5023 172.88 44.825C172.375 45.1437 171.711 45.3031 170.887 45.3031C170.087 45.3031 169.433 45.1634 168.924 44.884C168.415 44.6046 168.052 44.2012 167.834 43.6739C167.617 43.1427 167.508 42.4186 167.508 41.5017V36.5021H168.638V41.4958C168.638 42.2474 168.706 42.8023 168.842 43.1604C168.982 43.5146 169.219 43.7881 169.553 43.9809C169.891 44.1737 170.303 44.2701 170.788 44.2701C171.619 44.2701 172.212 44.0793 172.565 43.6975C172.918 43.3158 173.095 42.5819 173.095 41.4958V36.5021Z" fill="white"/>
</g>
<defs>
<clipPath id="clip0_3862_5008">
<rect width="206" height="48" fill="white"/>
</clipPath>
</defs>
</svg>
